<svg width="154" height="154" viewBox="0 0 154 154" fill="none" xmlns="http://www.w3.org/2000/svg">
<path d="M47.9171 34.1727C45.2572 34.2724 42.9805 37.032 44.0077 39.5386C44.9352 41.7616 47.9324 41.5469 49.7645 40.7421C53.3519 39.209 51.8265 34.0347 47.9171 34.1727ZM50.0251 40.0138C48.423 41.0334 45.2035 41.2173 44.3986 39.4313C43.5937 37.6452 45.1652 35.1692 47.4265 34.832C50.899 34.2034 52.5241 38.4271 50.0251 40.0138ZM64.0376 36.871C64.6355 36.1044 65.793 35.4529 66.6592 35.8438C67.1652 36.0814 67.4641 35.4145 66.8892 35.3072C66.291 35.2024 65.6751 35.2775 65.1197 35.5232C64.5642 35.7688 64.0943 36.1739 63.7693 36.687C63.7573 36.7046 63.7488 36.7245 63.7444 36.7453C63.7399 36.7662 63.7397 36.7878 63.7436 36.8088C63.7475 36.8298 63.7555 36.8498 63.7672 36.8677C63.7788 36.8856 63.7939 36.9011 63.8115 36.9131C63.8291 36.9252 63.8489 36.9337 63.8698 36.9381C63.8907 36.9426 63.9123 36.9428 63.9333 36.9389C63.9543 36.935 63.9743 36.927 63.9922 36.9153C64.0101 36.9037 64.0256 36.8886 64.0376 36.871ZM31.145 13.6139C32.5595 14.2207 34.0381 14.6656 35.5526 14.94C35.7366 14.94 35.8363 14.7177 35.8823 14.5797C36.493 12.6863 37.7385 11.0618 39.4084 9.98041C45.7937 6.22432 51.9415 12.6403 49.2662 18.7114C47.7791 22.0766 43.9004 23.0501 40.7345 23.9393C40.1673 24.1003 40.2976 24.3456 40.8495 25.664C41.7796 27.9023 42.6969 30.1432 43.6014 32.3867C43.7854 32.8236 44.5673 32.54 44.8816 32.4787C45.3721 32.3943 48.0551 32.08 48.1394 31.4131C48.2237 30.7463 46.499 27.1895 46.1694 26.4382C52.2558 24.7672 56.3721 18.3128 54.9847 12.0654C53.2446 4.31561 44.7589 2.48355 38.0363 4.71421C34.4948 5.8947 30.9687 9.06055 30.915 13.0773C30.915 13.4835 30.8384 13.4835 31.145 13.6139ZM37.1547 5.57275C43.816 2.99714 52.6084 4.23129 54.4251 12.2111C55.7896 18.1365 51.7038 24.3072 45.9317 25.8787C45.7018 25.94 45.4565 26.0473 45.8627 26.8522C46.5066 28.163 47.5261 30.7616 47.7561 31.2752C46.552 31.6689 45.3157 31.9562 44.0613 32.1337L40.8572 24.5295C43.8774 24.3302 48.5227 21.9309 49.8105 18.9874C52.4014 13.0313 46.7596 5.94836 39.8606 9.19853C38.7946 9.70335 37.855 10.4404 37.1109 11.3556C36.3668 12.2709 35.837 13.3411 35.5603 14.4877L31.2676 13.2306C31.3213 9.96508 34.2188 6.70724 37.1547 5.57275ZM65.2871 38.9713C64.8272 38.5497 63.6237 40.3435 64.2369 40.7114C64.5819 40.9107 65.7547 39.4006 65.2871 38.9713ZM75.3213 38.5957C75.7609 38.844 76.1289 39.2018 76.3895 39.6343C76.65 40.0668 76.7943 40.5593 76.8084 41.064C76.8085 41.101 76.8208 41.1369 76.8434 41.1662C76.866 41.1955 76.8976 41.2166 76.9333 41.2262C76.969 41.2358 77.0069 41.2334 77.0411 41.2193C77.0754 41.2052 77.104 41.1803 77.1226 41.1483C77.5979 39.8989 76.6474 38.6647 75.6432 38.0055C75.2369 37.7295 74.9073 38.4731 75.3213 38.5957ZM69.8174 51.1595C70.8983 50.2856 72.6613 50.1323 73.5352 51.3971C74.1944 52.3553 73.6348 53.5281 72.4544 53.2368C72.1215 53.1017 71.7987 52.9429 71.4885 52.7616C71.4597 52.7509 71.4285 52.7482 71.3983 52.7539C71.3681 52.7597 71.34 52.7735 71.3172 52.7941C71.2943 52.8146 71.2774 52.841 71.2684 52.8704C71.2595 52.8998 71.2587 52.9311 71.2662 52.9609C71.6878 54.2257 74.1868 54.1644 74.3784 52.5009C74.6084 50.5156 71.6571 48.9365 69.6488 50.9678C69.6234 50.9902 69.6079 51.0217 69.6057 51.0555C69.6036 51.0893 69.6149 51.1226 69.6373 51.148C69.6596 51.1734 69.6912 51.1889 69.725 51.191C69.7588 51.1932 69.792 51.1818 69.8174 51.1595ZM72.531 43.6933C73.2976 44.0459 74.0641 42.1219 73.4432 41.8612C72.8223 41.6006 72.0558 43.494 72.531 43.6933ZM67.4948 46.5065C68.5756 46.9435 68.407 46.3839 68.2613 46.2536C67.3886 45.8105 66.4871 45.4264 65.5631 45.1037C66.6899 43.3177 67.7554 41.5086 68.9895 39.7915C69.0969 39.6459 68.8669 39.4619 68.7596 39.6152C67.5944 41.248 66.4139 42.8731 65.2871 44.5288C64.5666 45.579 64.7965 45.418 67.4948 46.5065ZM95.0522 110.123C95.5833 109.854 96.0056 109.41 96.2481 108.866C96.4906 108.323 96.5385 107.712 96.3838 107.138C96.2291 106.563 95.8812 106.059 95.3986 105.71C94.9159 105.362 94.3281 105.19 93.7338 105.224C89.7247 105.224 90.0543 112.867 95.0522 110.123ZM111.625 92.5455C113.296 94.1553 117.114 93.4654 115.933 90.0926C114.53 86.0682 108.59 89.625 111.625 92.5455ZM107.171 121.36C101.913 121.789 104.68 129.079 108.406 126.872C110.943 125.362 109.808 121.115 107.171 121.36ZM93.5881 83.9755C92.9826 81.4229 88.7205 80.7866 87.77 83.7455C86.2829 88.4138 94.5617 88.0919 93.5881 83.9755ZM126.144 109.962C120.816 111.893 128.857 119.72 130.229 112.721C130.743 110.146 128.298 109.18 126.144 109.962ZM76.0112 98.195C75.4137 98.2812 74.8631 98.5674 74.4494 99.007C74.0357 99.4466 73.7833 100.013 73.7335 100.615C73.6837 101.217 73.8393 101.817 74.1751 102.319C74.5108 102.821 75.0068 103.194 75.5819 103.377C79.5296 104.557 80.1965 97.5817 76.0112 98.195Z" fill="black"/>
<path d="M138.868 120.118C138.6 108.129 131.279 95.6577 123.836 86.5128C125.63 84.0552 126.641 81.1146 126.74 78.0738C126.838 75.033 126.019 72.0331 124.388 69.4647C122.295 66.1685 119.474 65.0264 118.585 62.5657C117.512 59.6375 118.854 56.4333 118.67 53.4744C118.455 49.9177 116.37 46.0006 112.698 45.0424C110.261 44.4062 106.658 45.5406 105.347 41.0947C104.32 37.6069 106.114 32.448 103.047 27.5804C101.407 24.9664 98.517 23.5177 95.7038 22.5288C92.147 21.2793 87.9386 20.7887 84.5122 22.6438C82.4636 21.8544 80.253 21.5781 78.0731 21.8389C80.4878 19.3246 81.5226 14.0968 80.3728 10.7853C80.0202 9.75809 74.0641 13.9971 73.6348 19.3016C71.2202 16.4731 68.8362 15.5302 65.3254 15.0779C63.9763 14.9016 66.7895 21.9079 69.2042 22.8354C67.3644 23.0041 64.8195 23.602 63.4934 24.9588C63.0775 25.46 62.7668 26.0398 62.5797 26.6637C62.3927 27.2876 62.3332 27.9427 62.4047 28.5901C62.4762 29.2374 62.6774 29.8638 62.9961 30.4317C63.3148 30.9997 63.7446 31.4977 64.2599 31.8961C61.5233 36.2501 59.1164 41.041 58.6641 46.2382C56.4858 46.7798 54.608 48.1565 53.4362 50.071C50.1784 54.8236 53.9651 56.9699 52.754 60.726C51.3205 65.241 46.9895 63.5622 44.9352 66.5595C43.4021 68.7288 43.7624 71.7873 45.2495 73.8953C43.0035 75.1831 40.1749 76.7852 38.3965 78.6326C38.8028 66.8201 37.2697 55.8967 36.6718 53.4591C36.5875 53.1372 35.384 53.3901 35.062 53.4131C35.7183 51.9944 36.1699 50.4897 36.4035 48.9441C36.5338 47.503 36.4035 45.441 34.5561 45.326C34.3951 44.8738 34.5561 40.2208 31.6049 37.6605C30.961 37.1009 30.2787 36.9936 30.2941 38.0131C30.2941 39.5462 31.3596 40.8877 31.5052 43.379C30.805 43.4194 30.1314 43.6617 29.5659 44.0765C26.9673 43.402 24.154 49.3044 26.4997 49.7413C26.1908 50.8367 26.2638 52.0045 26.7066 53.0528C26.4997 53.0528 26.0551 52.8842 25.9401 53.1218C20.3979 63.9302 12.5868 83.2702 14.7254 95.1671C17.2167 109.019 32.1261 112.867 44.3066 111.487C45.0233 118.378 47.0474 125.07 50.2704 131.203C51.1749 132.904 54.8697 140.187 56.9164 141.888C56.3319 144.334 56.0361 146.84 56.0348 149.355C56.0348 149.6 56.4028 149.562 56.4104 149.355C56.4945 147.001 56.8104 144.662 57.3533 142.371C59.0454 143.081 60.7724 143.706 62.5275 144.242C76.3188 148.369 90.9996 148.489 104.856 144.587C106.888 144.012 109.072 143.475 110.843 142.287C111.541 144.587 112.307 146.787 113.051 149.033C113.056 149.051 113.065 149.069 113.078 149.084C113.09 149.099 113.105 149.111 113.122 149.121C113.139 149.13 113.158 149.136 113.177 149.138C113.197 149.14 113.216 149.138 113.235 149.132C113.253 149.127 113.271 149.118 113.286 149.105C113.301 149.093 113.313 149.078 113.323 149.061C113.332 149.044 113.338 149.025 113.34 149.006C113.342 148.986 113.34 148.967 113.334 148.948C112.645 146.48 111.978 144.012 111.234 141.566C111.726 139.374 111.983 137.136 112.001 134.89C116.692 135.564 123.33 136.116 127.945 135.189C132.56 134.261 136.415 131.755 137.91 127.132C138.63 124.867 138.954 122.494 138.868 120.118ZM89.3874 27.5497C90.7979 30.2173 91.1811 34.1191 90.7365 37.0549C90.4471 39.2745 89.5535 41.372 88.1533 43.1184L87.3867 42.9037C89.2801 36.7713 87.5477 29.7574 82.1588 25.986C80.0188 24.622 77.6253 23.7042 75.1219 23.2877C79.6216 20.6968 86.9498 22.9198 89.3874 27.5497ZM80.1352 11.2835C80.5798 17.3546 79.6752 19.4243 77.069 22.0152C76.575 22.1219 76.0961 22.2893 75.6432 22.5135C75.2585 21.4918 74.7067 20.5411 74.0104 19.7002C74.662 16.1894 76.655 12.648 80.1352 11.2835ZM65.5324 15.4919C65.5324 15.3846 65.5324 15.4076 65.6244 15.4306C70.8292 16.6187 72.7763 18.0445 75.1756 22.7741C74.9916 22.8896 74.8196 23.0232 74.662 23.1727C73.1818 22.8716 71.6724 22.7379 70.1623 22.7741C67.7554 22.3525 65.9233 17.6766 65.5324 15.4919ZM64.8425 32.195C69.8251 34.9163 77.7665 37.2466 83.6536 36.48C82.0534 38.4123 81.2332 40.873 81.354 43.379C81.446 45.326 82.6494 46.5985 84.3435 45.1574C85.225 44.3908 86.3519 43.0494 87.6703 43.4863C88.9888 43.9232 88.8125 45.4333 88.2682 46.5525C86.2522 50.6842 82.3811 49.9943 83.8836 59.5302C84.1398 61.1526 84.5426 62.7485 85.0871 64.2981C84.8314 65.544 84.148 66.6612 83.1554 67.4563C78.6097 71.5804 69.871 70.5915 70.0167 64.9267C70.0598 63.3646 70.0214 61.8012 69.9017 60.2431C66.8892 59.6298 63.0641 58.2347 61.186 55.5978C60.5444 54.6378 60.0725 53.5747 59.7909 52.4549C58.4955 47.9476 59.3846 43.1337 61.2014 38.8947C62.208 36.555 63.4268 34.3124 64.8425 32.195ZM85.5853 64.5971C86.4285 64.6737 87.2334 64.7887 88.0306 64.919C88.0306 65.5323 88.7972 67.9852 88.2069 70.9441C87.632 74.0793 85.409 77.3372 82.0055 77.6131C76.8697 78.0194 75.6815 72.9525 75.7045 70.4842C82.2738 70.9518 85.8536 65.6549 85.5853 64.5971ZM74.7003 70.3615C74.34 70.3615 73.4585 73.8877 70.2697 74.6082C67.2494 75.2981 65.4097 72.8835 65.9693 70.0089C66.4062 67.7093 68.085 66.1225 68.4146 65.4096L69.4801 65.172C69.2501 68.1002 71.7568 69.8633 74.7003 70.3615ZM35.2613 45.9929C36.4571 46.7595 35.8669 49.657 35.5066 50.7455C35.2153 51.6424 34.8704 52.5316 34.5484 53.4208C32.1051 53.5297 29.657 53.4116 27.2355 53.0682C26.9055 51.9685 26.791 50.8155 26.8983 49.6724C27.248 49.576 27.5522 49.3587 27.7568 49.0591C28.4697 49.8947 29.5199 48.6988 30.0564 48.1852L31.3979 48.3999C30.4814 49.0593 29.8164 50.0108 29.5122 51.0981C29.5149 51.1318 29.5286 51.1636 29.5512 51.1887C29.5738 51.2137 29.6041 51.2306 29.6372 51.2368C29.6704 51.2429 29.7047 51.2379 29.7348 51.2225C29.7648 51.2071 29.789 51.1823 29.8035 51.1518C30.0233 50.5556 30.3644 50.0115 30.805 49.5537C31.2457 49.0959 31.7764 48.7343 32.3638 48.4919C33.3449 48.2082 33.1303 47.8173 32.3638 47.9706C32.1261 48.0166 29.7192 47.894 29.6732 47.503C29.6272 47.1121 33.8892 45.119 35.2613 45.9929ZM31.6125 43.8006V44.7204C31.6125 44.8661 31.8732 44.8738 31.9038 44.7204C32.5094 41.3706 30.8997 39.8988 30.8997 37.8828C30.8997 37.5072 31.1526 37.7755 31.3289 37.8828C33.8432 39.8988 34.0578 43.6013 34.1115 45.2877C32.6072 45.4273 31.1598 45.9326 29.8955 46.7595C29.2516 47.1121 28.7227 47.6947 29.6118 48.0779C29.2439 48.3462 28.3087 49.4041 27.9714 48.6068C27.6342 47.8096 28.8683 43.8619 31.5895 43.7852L31.6125 43.8006ZM26.2084 48.7755C26.0627 47.0431 27.3275 44.6744 29.1289 44.4598C28.1017 45.464 27.1819 47.7713 27.5268 48.7832C27.2125 49.2048 26.2467 49.772 26.1854 48.7602L26.2084 48.7755ZM26.308 53.2905C29.4125 54.195 33.0537 53.8884 36.2732 53.7887L36.8941 58.1274C32.7649 58.462 28.6087 58.1176 24.5909 57.1079C25.1429 55.8201 25.7254 54.5629 26.285 53.2751L26.308 53.2905ZM136.691 128.719C133.165 124.649 129.386 131.019 132.605 132.889C129.869 134.476 126.672 134.966 123.553 135.051C112.269 135.357 100.41 132.544 90.2229 127.753C90.7442 121.621 89.3108 116.853 87.2334 113.718C95.8418 111.518 102.472 110.966 110.766 110.475C110.904 110.475 110.935 110.23 110.766 110.222C109.159 110.147 107.549 110.175 105.945 110.306C105.799 109.624 100.794 104.542 95.9797 94.2089C95.9031 94.0479 95.6501 94.1246 95.7191 94.2932C98.1467 99.7675 101.219 104.932 104.872 109.678C105.033 109.893 105.201 110.107 105.385 110.314C96.9463 110.79 88.6076 112.383 80.5874 115.051C80.2195 115.182 80.4724 115.557 80.6871 115.726C79.5403 115.785 78.4038 115.973 77.2989 116.286C76.793 116.002 75.1143 115.887 73.8724 114.683C72.3393 113.15 72.2167 116.738 74.1714 117.581C68.9435 120.44 67.763 124.718 69.2808 124.557C69.6488 124.518 69.94 124.158 70.2007 123.905C70.6529 123.483 71.1205 123.07 71.5651 122.625C69.3805 127.224 71.6648 128.635 72.2857 126.458C72.7017 125 73.495 123.678 74.5853 122.625C73.2822 125.17 74.432 128.32 75.5512 127.47C76.1798 126.979 75.9498 124.403 78.1345 123.185C78.3798 123.054 78.6404 122.97 78.901 122.847C79.5986 123.721 81.8829 124.909 84.4662 124.902C84.5428 125.078 84.5505 125.162 84.6578 125.231C92.9114 130.071 102.021 133.275 111.487 134.667C111.468 136.987 111.211 139.299 110.72 141.566C108.536 143.038 103.484 144.272 100.824 144.87C90.5914 147.148 79.998 147.284 69.7101 145.269C67.3414 144.801 58.6334 142.862 57.246 141.252C54.6474 138.24 53.4822 135.526 51.5275 132.054C47.6258 125.116 44.8815 116.071 44.7742 108.106C44.6168 101.906 46.2338 95.7889 49.4348 90.4758C50.9383 88.2425 52.566 86.0953 54.3101 84.0445C54.4327 83.9065 54.2181 83.7148 54.1031 83.8528C51.1672 87.1873 48.63 90.2075 46.8669 94.3316C44.7033 99.5292 43.8301 105.173 44.3219 110.782C34.8091 111.985 24.0544 110.176 18.1673 101.844C20.6892 100.817 19.8843 95.3204 15.5993 96.2403C13.6446 88.5748 16.7185 77.2988 19.2174 70.1776C20.7505 65.8006 22.5596 61.5386 24.476 57.3072C26.4307 58.2807 32.8544 58.9783 36.9937 58.5797C38.1066 67.6734 38.3377 76.8533 37.6836 85.9915C37.6836 86.1601 37.9366 86.1601 37.9672 85.9915C38.2993 83.7451 38.4735 81.4783 38.4885 79.2075C41.7923 76.0723 47.4955 73.0751 51.6195 71.1358C51.0446 72.6305 52.547 74.3936 54.1108 74.3859C57.3303 74.3859 57.361 69.9936 55.115 69.595C59.1836 67.9146 63.3797 66.5612 67.6634 65.5476C66.1303 67.6096 64.5972 70.2312 65.7087 72.8375C67.0118 75.965 71.6264 76.2793 74.3017 71.933C70.7767 79.3345 68.5 87.268 67.5637 95.4124C67.5637 95.5964 67.8167 95.6577 67.8474 95.4737C69.0199 87.0739 71.5112 78.9119 75.2292 71.2891C75.2616 72.9898 75.8244 74.638 76.839 76.0033C80.7561 81.1546 91.0202 77.0229 88.6055 65.0034C94.3292 66.0204 99.8346 68.0171 104.879 70.9058C104.329 71.39 103.975 72.0591 103.885 72.7865C103.794 73.514 103.974 74.2494 104.389 74.8535C104.6 75.1765 104.874 75.4546 105.193 75.6718C105.512 75.8891 105.871 76.0412 106.249 76.1195C106.627 76.1978 107.017 76.2008 107.396 76.1283C107.775 76.0557 108.137 75.9091 108.459 75.6967C108.76 75.4735 109.004 75.1821 109.171 74.8462C109.337 74.5104 109.422 74.1399 109.417 73.765C117.773 79.5908 124.511 87.4709 129.877 96.064C133.993 102.656 137.603 110.452 138.201 118.386C138.462 121.881 138.255 125.553 136.691 128.704V128.719ZM75.8195 121.115L75.1066 121.881C71.7261 124.181 72.0404 127.73 71.2738 127.002C70.331 126.082 71.9101 122.05 73.3282 120.793C74.5393 119.72 73.1366 119.873 72.0327 121.736L71.9714 121.797C71.1136 122.493 70.2923 123.232 69.5108 124.012C67.7937 125.591 70.0627 116.952 81.078 116.132C83.3777 118.24 83.9756 121.437 84.3818 124.434C81.2543 124.434 79.1003 122.479 78.8167 122.51C77.1073 122.709 76.0034 124.641 75.5818 126.128C75.5282 126.312 75.4055 127.125 75.2216 127.186C74.6467 127.385 73.5505 123.721 75.9881 121.352C76.1721 121.168 75.9651 120.969 75.8195 121.115ZM74.547 117.374C73.1749 116.96 72.7763 114.63 73.2822 114.737C74.2151 115.567 75.3236 116.175 76.5247 116.516C75.8422 116.735 75.1804 117.015 74.547 117.351V117.374ZM80.894 115.519C80.6794 115.519 85.4933 114.147 86.8655 113.794C89.809 119.06 90.0313 122.993 89.6787 127.508L85.0181 125.093C84.5122 120.724 83.1477 116.952 80.894 115.496V115.519Z" fill="black"/>
<path d="M33.6821 101.43C34.6327 103.323 39.048 102.672 38.9023 99.7511C38.703 95.5657 31.4668 97.0375 33.6821 101.43ZM30.1867 66.0842C30.3017 62.0138 25.3957 62.6424 24.8821 66.6515C24.6139 68.7058 30.064 70.4689 30.1867 66.0842ZM29.4738 77.0306C28.4466 78.0194 28.5233 81.3232 31.3978 81.2466C36.3574 81.1239 32.7086 73.926 29.4738 77.0306ZM55.1225 120.348C56.6556 122.487 60.2508 120.931 59.6452 118.148C58.7867 114.216 52.5929 116.853 55.1225 120.348ZM58.503 86.9037C55.3832 86.9037 54.9692 91.2041 57.2229 92.2006C62.5657 94.5616 62.8034 86.9037 58.503 86.9037ZM78.441 138.585C81.4459 140.639 85.3399 135.679 81.9671 133.725C78.418 131.647 75.2828 136.446 78.441 138.585Z" fill="black"/>
</svg>
