<svg width="154" height="154" viewBox="0 0 154 154" fill="none" xmlns="http://www.w3.org/2000/svg">
<path d="M46.6281 145.219C45.7213 144.889 44.7461 144.791 43.7919 144.936C43.6801 144.974 43.583 145.046 43.5143 145.143C43.4456 145.239 43.4086 145.354 43.4086 145.472C43.4086 145.591 43.4456 145.706 43.5143 145.802C43.583 145.898 43.6801 145.971 43.7919 146.009C45.7312 146.86 49.058 146.262 46.6281 145.219ZM44.3745 145.986C43.0637 145.457 44.2672 145.02 44.6811 145.02C46.3905 145.02 47.4866 145.71 46.6971 146.139C45.9276 146.356 45.1066 146.299 44.3745 145.978V145.986ZM64.8408 140.275C64.7043 140.3 64.578 140.364 64.4774 140.46C64.3768 140.556 64.3063 140.678 64.2746 140.814C64.2428 140.949 64.2512 141.09 64.2987 141.22C64.3462 141.351 64.4307 141.465 64.5419 141.548C64.9313 141.78 65.3639 141.93 65.8133 141.989C66.2627 142.049 66.7195 142.016 67.1558 141.893C67.9223 141.701 68.5432 141.126 67.9223 140.628C67.9146 140.612 65.9753 139.915 64.8408 140.275ZM66.4429 141.808C66.0209 141.835 65.5973 141.798 65.1858 141.701C64.036 141.218 64.5572 140.421 65.5844 140.421C65.776 140.421 67.4011 140.421 67.792 140.773C68.3899 141.31 67.1864 141.808 66.4429 141.808ZM77.159 140.758C76.8064 141.019 77.113 141.525 77.4196 141.624C77.7262 141.724 78.6384 141.847 78.7687 141.402C78.9527 140.735 77.5193 140.505 77.159 140.758ZM77.4273 141.371C77.0977 141.203 77.0363 140.819 77.7416 140.842C78.4468 140.865 79.3359 141.609 77.9715 141.494C77.7812 141.491 77.5934 141.449 77.4196 141.371H77.4273ZM39.8596 79.543C39.8433 79.543 39.8278 79.5495 39.8163 79.561C39.8048 79.5725 39.7983 79.5881 39.7983 79.6043C39.7983 79.6206 39.8048 79.6362 39.8163 79.6477C39.8278 79.6592 39.8433 79.6656 39.8596 79.6656C40.4039 79.6656 43.7919 80.2712 43.6923 79.543C43.6923 79.3744 41.9906 77.7876 42.1592 77.7416C42.3278 77.6957 44.5738 78.3242 45.0644 78.3242C45.1563 78.3242 45.1793 78.1709 45.0644 78.1632H44.8881C45.4183 77.6165 45.8007 76.9438 45.9995 76.2086C46.2033 76.8908 46.5166 77.5354 46.927 78.1173C46.9498 78.1388 46.98 78.1508 47.0113 78.1508C47.0427 78.1508 47.0729 78.1388 47.0957 78.1173C47.1723 78.0713 47.3486 77.826 48.2915 77.0364C47.7089 79.267 47.5249 79.336 47.7319 79.3897C48.8342 79.5364 49.954 79.4792 51.0356 79.2211C51.0474 79.2167 51.0575 79.2089 51.0646 79.1986C51.0718 79.1883 51.0756 79.1761 51.0756 79.1636C51.0756 79.1511 51.0718 79.1388 51.0646 79.1286C51.0575 79.1183 51.0474 79.1104 51.0356 79.1061C50.5757 79.1751 48.4064 79.612 48.0768 79.1061C47.8469 78.7535 48.5214 77.2127 48.6287 76.7528C48.6333 76.7382 48.6347 76.7228 48.6329 76.7076C48.631 76.6924 48.6259 76.6777 48.6179 76.6647C48.6099 76.6516 48.5992 76.6404 48.5866 76.6318C48.5739 76.6232 48.5595 76.6174 48.5444 76.6148C48.3528 76.5612 47.4559 77.8183 47.0113 77.688C46.5668 77.5577 46.2448 76.1089 46.1605 75.6797C46.1605 75.58 45.9689 75.5647 45.9535 75.6797C45.8125 76.5915 45.3889 77.436 44.7424 78.0943C43.802 77.9511 42.876 77.7254 41.9752 77.4197C41.9561 77.4139 41.9356 77.414 41.9165 77.42C41.8974 77.426 41.8805 77.4376 41.8681 77.4533C41.8557 77.469 41.8483 77.4881 41.8469 77.5081C41.8455 77.5281 41.8501 77.5481 41.8603 77.5653C42.0902 77.8873 43.5466 79.4433 43.47 79.6043C43.3933 79.7653 40.5265 79.5507 39.8596 79.543ZM72.0539 23.1877C71.8609 23.7833 71.5449 24.3317 71.1264 24.7974C70.9808 24.9737 70.6282 25.242 70.6588 25.5026C70.7125 25.9625 71.7396 26.1618 72.0769 26.1771C72.0952 26.1771 72.1127 26.1699 72.1257 26.1569C72.1386 26.144 72.1459 26.1264 72.1459 26.1081C72.1459 26.0899 72.1386 26.0723 72.1257 26.0594C72.1127 26.0464 72.0952 26.0392 72.0769 26.0392C71.7733 26.0046 71.4819 25.8996 71.226 25.7325C70.6281 25.2266 71.7243 25.012 72.1535 23.2183C72.1618 23.2111 72.1679 23.2019 72.1714 23.1915C72.1748 23.1812 72.1755 23.1701 72.1732 23.1594C72.1709 23.1487 72.1658 23.1388 72.1585 23.1307C72.1511 23.1227 72.1417 23.1167 72.1313 23.1135C72.1208 23.1103 72.1097 23.1099 72.0991 23.1125C72.0884 23.115 72.0787 23.1203 72.0708 23.1279C72.0629 23.1354 72.0572 23.145 72.0542 23.1555C72.0512 23.166 72.0511 23.1771 72.0539 23.1877ZM73.8476 28.2391C74.47 28.3125 75.0971 28.1479 75.6032 27.7783C76.1093 27.4086 76.4569 26.8613 76.5764 26.2461C76.5764 26.1158 76.4155 26.0238 76.3618 26.1541C75.9019 27.1966 75.12 28.1471 73.8706 28.0935C73.7863 28.0935 73.7633 28.2238 73.8476 28.2391ZM70.6282 20.8114C70.3993 20.8399 70.1794 20.9177 69.9835 21.0395C69.7876 21.1612 69.6205 21.324 69.4937 21.5166C69.4803 21.5354 69.4714 21.5569 69.4675 21.5796C69.4636 21.6023 69.4648 21.6256 69.4712 21.6477C69.4775 21.6699 69.4887 21.6903 69.504 21.7075C69.5193 21.7247 69.5383 21.7382 69.5596 21.7471C69.5809 21.7559 69.6038 21.7599 69.6268 21.7586C69.6498 21.7574 69.6722 21.751 69.6924 21.7399C69.7126 21.7288 69.73 21.7133 69.7434 21.6946C69.7567 21.6758 69.7657 21.6543 69.7696 21.6316C69.862 21.4614 69.991 21.314 70.1475 21.1999C70.304 21.0859 70.4839 21.0082 70.6741 20.9724C70.6931 20.9644 70.7085 20.9497 70.7174 20.9311C70.7263 20.9125 70.7281 20.8913 70.7225 20.8715C70.7168 20.8517 70.7041 20.8347 70.6867 20.8236C70.6693 20.8125 70.6485 20.8082 70.6282 20.8114ZM74.6984 20.8191C74.9342 20.8588 75.1591 20.9475 75.3585 21.0796C75.5579 21.2116 75.7273 21.384 75.8559 21.5856C75.8732 21.6141 75.901 21.6345 75.9334 21.6424C75.9657 21.6503 75.9999 21.6451 76.0284 21.6278C76.0568 21.6105 76.0773 21.5826 76.0852 21.5503C76.0931 21.5179 76.0878 21.4838 76.0705 21.4553C75.9221 21.2237 75.7181 21.033 75.4771 20.9004C75.2361 20.7679 74.9658 20.6978 74.6908 20.6964C74.5911 20.6964 74.5911 20.8114 74.6984 20.8191ZM70.1836 22.7584C70.0792 23.0624 70.0199 23.3801 70.0073 23.7012C70.0073 23.7297 70.0186 23.757 70.0387 23.7771C70.0588 23.7973 70.0861 23.8086 70.1146 23.8086C70.143 23.8086 70.1703 23.7973 70.1905 23.7771C70.2106 23.757 70.2219 23.7297 70.2219 23.7012C70.2973 23.4036 70.3536 23.1015 70.3905 22.7967C70.3902 22.7719 70.3813 22.748 70.3652 22.729C70.3493 22.71 70.3272 22.6972 70.3028 22.6927C70.2784 22.6882 70.2531 22.6923 70.2314 22.7042C70.2097 22.7162 70.1928 22.7354 70.1836 22.7584ZM74.5911 23.6782C74.6639 23.3147 74.7024 22.9452 74.7061 22.5744C74.7061 22.4441 74.4915 22.4135 74.4685 22.5744C74.3901 22.9267 74.3515 23.2867 74.3535 23.6476C74.3559 23.6754 74.3678 23.7016 74.3872 23.7218C74.4066 23.742 74.4322 23.7549 74.46 23.7585C74.4877 23.7621 74.5158 23.7561 74.5397 23.7415C74.5635 23.7269 74.5817 23.7046 74.5911 23.6782ZM145.518 132.004C144.505 132.524 143.61 133.247 142.889 134.128C142.061 132.112 142.981 130.333 144.031 128.601C144.042 128.578 144.046 128.551 144.041 128.526C144.036 128.501 144.024 128.477 144.005 128.459C143.986 128.441 143.963 128.43 143.937 128.427C143.911 128.423 143.885 128.428 143.862 128.44C142.22 129.61 140.85 131.121 139.846 132.871C139.846 132.579 139.846 132.296 139.792 131.997C139.792 131.979 139.789 131.962 139.782 131.946C139.775 131.93 139.764 131.916 139.751 131.904C139.738 131.892 139.723 131.884 139.706 131.879C139.689 131.873 139.672 131.872 139.654 131.874C139.532 131.874 139.547 131.874 139.286 132.871C139.056 132.104 138.826 131.337 138.604 130.625C138.604 130.517 138.382 130.494 138.359 130.625C138.273 131.196 138.26 131.775 138.32 132.349C137.064 131.484 135.859 130.547 134.71 129.544C134.687 129.529 134.659 129.523 134.632 129.527C134.604 129.53 134.579 129.542 134.559 129.562C134.54 129.581 134.528 129.607 134.524 129.634C134.521 129.661 134.527 129.689 134.541 129.712C135.611 130.889 136.597 132.139 137.493 133.453C137.554 133.545 137.7 133.453 137.638 133.369C135.185 129.636 134.518 130.065 138.405 132.717C138.504 132.786 138.596 132.671 138.581 132.572C138.524 132.15 138.508 131.724 138.535 131.299L139.156 133.376C139.167 133.409 139.189 133.436 139.219 133.451C139.249 133.467 139.284 133.47 139.317 133.461C139.417 133.461 139.401 133.392 139.57 132.771V133.315C139.568 133.345 139.576 133.374 139.594 133.399C139.611 133.423 139.636 133.441 139.665 133.449C139.693 133.457 139.724 133.455 139.751 133.443C139.779 133.431 139.801 133.41 139.815 133.384C140.715 131.697 141.951 130.212 143.449 129.023C142.536 130.594 141.686 132.48 142.682 134.204C142.708 134.266 142.75 134.319 142.805 134.358C142.83 134.365 142.857 134.365 142.883 134.359C142.908 134.352 142.932 134.338 142.95 134.319C143.546 133.662 144.221 133.08 144.959 132.587C144.52 133.128 144.284 133.806 144.292 134.503C144.292 134.611 144.483 134.649 144.491 134.503C144.59 133.61 145 132.78 145.648 132.158C145.771 132.096 145.641 131.958 145.518 132.004ZM148.707 67.2478C147.472 67.4673 146.351 68.1063 145.534 69.0569C145.456 67.8784 145.642 66.6973 146.078 65.5998C146.085 65.5752 146.085 65.5487 146.075 65.5246C146.066 65.5005 146.049 65.4802 146.027 65.467C146.005 65.4537 145.979 65.4482 145.954 65.4515C145.928 65.4547 145.904 65.4665 145.886 65.4848C144.729 66.7343 144.437 68.6199 144.261 68.6659C144.261 68.6659 143.801 68.3057 143.748 68.2673C142.885 67.6655 141.953 67.1689 140.973 66.7879C140.85 66.7419 140.781 66.9336 140.888 66.9949C141.941 67.6296 142.843 68.4848 143.533 69.5014C143.579 69.5781 143.709 69.5014 143.656 69.4248C143.151 68.6544 142.527 67.9688 141.808 67.3935C142.714 67.8238 143.558 68.3757 144.315 69.0339C144.329 69.0479 144.347 69.058 144.367 69.063C144.386 69.0679 144.407 69.0677 144.426 69.0623C144.445 69.0568 144.463 69.0464 144.477 69.032C144.491 69.0176 144.501 68.9997 144.506 68.9802C144.677 67.9833 145.064 67.036 145.641 66.2054C145.334 67.2228 145.227 68.2901 145.327 69.3481C145.327 69.4401 145.465 69.5244 145.534 69.4325C146.242 68.5136 147.238 67.858 148.362 67.5698C148.039 67.8969 147.784 68.2848 147.611 68.7111C147.439 69.1374 147.353 69.5936 147.358 70.0533C147.358 70.0808 147.369 70.1071 147.388 70.1265C147.408 70.1459 147.434 70.1568 147.461 70.1568C147.489 70.1568 147.515 70.1459 147.535 70.1265C147.554 70.1071 147.565 70.0808 147.565 70.0533C147.627 69.0576 148.075 68.1253 148.814 67.4548C148.914 67.3628 148.807 67.2325 148.707 67.2478ZM36.0653 66.374C36.6019 65.1169 37.0694 61.0083 36.2109 59.2299C36.1067 58.9384 35.9339 58.6762 35.7071 58.4654C35.4803 58.2547 35.2062 58.1015 34.9078 58.0188C34.0416 57.8578 34.2639 56.8844 34.2716 56.1715C34.2716 54.3318 34.2716 47.6247 33.8807 46.1683C33.2904 44.1216 31.4278 42.1133 29.1282 42.3969C28.4766 42.4812 28.3617 42.8415 28.3157 42.052C28.3157 41.0402 28.4536 27.9248 26.4147 25.8629C24.7743 24.2072 22.2907 23.7549 20.4357 25.3493C17.9598 27.4802 17.8678 31.4815 17.5152 34.5477C16.9992 38.3245 17.0638 42.158 17.7069 45.9153C15.7752 45.6393 14.7557 47.571 14.4491 49.2267C13.9757 51.9705 13.8802 54.7662 14.1655 57.5359C14.2192 58.1568 14.8477 61.3686 14.7711 61.5295C14.6024 61.8591 13.5216 61.6982 12.1572 62.7483C9.09107 65.1169 9.09107 71.1801 11.5133 74.4839C12.2798 75.5034 13.3836 76.0783 13.5293 77.4197C13.9355 82.1185 20.1981 85.0237 25.2035 84.8627C25.4105 90.1211 25.7555 95.3719 25.9011 100.63C25.9061 100.646 25.9159 100.659 25.929 100.668C25.942 100.678 25.9578 100.683 25.9739 100.683C25.9901 100.683 26.0058 100.678 26.0189 100.668C26.0319 100.659 26.0417 100.646 26.0467 100.63C25.9011 95.3795 25.9318 90.0905 25.4642 84.8551C28.7756 84.6711 31.9414 83.2453 33.758 80.3249C35.2911 77.6803 35.5364 74.1926 35.2298 71.2338C35.0504 70.4467 34.93 69.6473 34.8695 68.8422C34.9232 67.8687 35.705 67.2248 36.0653 66.374ZM31.2745 61.7748C29.354 64.6705 27.2708 67.455 25.0349 70.1147C25.1116 72.6519 25.2649 81.1527 25.6865 83.2683C25.6814 83.2837 25.6717 83.297 25.6586 83.3065C25.6455 83.316 25.6298 83.3211 25.6136 83.3211C25.5975 83.3211 25.5818 83.316 25.5687 83.3065C25.5556 83.297 25.5459 83.2837 25.5408 83.2683C25.0985 80.8401 24.8702 78.3778 24.8586 75.9096C23.4593 75.3958 22.1732 74.6148 21.0719 73.6101C20.0678 72.7362 18.711 71.6784 18.2358 70.3906C18.1898 70.268 18.3814 70.1913 18.4504 70.3063C19.168 71.4572 20.0781 72.4762 21.1409 73.3188C22.2242 74.3241 23.4848 75.1194 24.8586 75.6644C24.8586 74.4379 24.5443 64.9329 24.4447 61.4375C23.2872 60.5254 22.1451 59.6055 21.0566 58.5861C20.2134 57.8195 19.1403 56.869 18.8107 55.7039C18.7724 55.5812 18.964 55.4969 19.0176 55.6196C20.1138 57.8578 22.4747 59.6285 24.4294 61.1616C24.4294 60.809 23.8698 44.2979 23.6628 36.372C23.6708 36.3362 23.6907 36.3043 23.7192 36.2813C23.7478 36.2584 23.7833 36.2459 23.82 36.2459C23.8566 36.2459 23.8921 36.2584 23.9207 36.2813C23.9493 36.3043 23.9692 36.3362 23.9771 36.372C24.1534 41.1551 24.2914 45.9306 24.437 50.7138C25.4348 49.957 26.2889 49.0276 26.9589 47.9696C26.9822 47.9418 27.0146 47.9232 27.0503 47.9171C27.0861 47.9109 27.1228 47.9176 27.1541 47.936C27.1853 47.9544 27.209 47.9833 27.221 48.0175C27.233 48.0517 27.2325 48.089 27.2195 48.1229C26.4939 49.2556 25.5476 50.2306 24.437 50.9897C24.5213 53.9025 24.9123 66.3817 25.0196 69.7084C27.1199 67.0792 29.0515 64.3427 30.9985 61.5679C31.1135 61.4375 31.4278 61.5909 31.2745 61.7672V61.7748Z" fill="black"/>
<path d="M144.652 48.9201C147.143 45.6317 148.124 41.4005 148.768 37.4222C149.51 32.8409 149.667 28.1841 149.236 23.5633C149.09 22.0302 148.906 20.2902 147.81 19.0791C147.281 18.4889 146.568 18.0903 146.078 17.477C145.204 16.4192 145.656 14.7175 145.641 13.4298C145.641 11.6897 145.281 9.78874 144.001 8.50863C142.72 7.22853 140.651 6.8146 138.964 6.89892C138.198 6.94929 137.453 7.17611 136.788 7.5617C136.123 7.94728 135.556 8.48121 135.132 9.12186C134.714 9.79337 134.382 10.5144 134.143 11.2681C133.376 13.2994 131.368 13.4911 130.379 15.3154C130.009 16.1777 129.767 17.0892 129.659 18.0213C129.421 18.9948 127.819 21.0874 127.681 21.371C117.785 21.2407 113.393 21.2944 113.393 21.2944C113.386 20.8792 113.295 20.4698 113.125 20.0909C112.694 19.2652 112.391 18.3786 112.228 17.4617C111.53 15.7677 110.204 14.9168 108.564 14.2576C106.793 13.5447 105.275 11.958 103.244 12.0807C101.418 12.1342 99.6743 12.8571 98.3459 14.112C97.0352 15.553 97.0658 16.6875 96.3913 17.8373C96.1272 18.2501 95.8867 18.6775 95.6707 19.1174C95.4029 19.9117 95.2154 20.7309 95.1112 21.5626C91.549 21.963 87.9614 22.0911 84.3798 21.9459C84.5637 20.9341 84.8627 19.9299 85.1463 18.9564C87.0166 18.5578 87.1929 13.8743 83.161 13.4298C82.908 12.8855 83.253 12.4333 83.6362 12.0807C83.3607 12.0279 83.0763 12.0444 82.8088 12.1287C82.5412 12.213 82.2987 12.3624 82.1032 12.5636C82.189 12.2815 82.2146 11.9844 82.1781 11.6918C82.1416 11.3992 82.0438 11.1175 81.8913 10.8652C81.7387 10.6128 81.5347 10.3954 81.2925 10.2271C81.0504 10.0588 80.7755 9.9434 80.4858 9.88839C80.7564 10.2508 80.9283 10.6772 80.9847 11.126C81.0411 11.5747 80.9801 12.0305 80.8077 12.4486C80.2328 10.7776 76.8524 8.39365 72.5139 8.79225C72.8665 9.19851 73.0658 9.91905 72.4525 10.126C69.4707 11.1225 67.769 9.46679 67.7997 9.27516C66.9412 12.096 68.091 12.6402 67.8457 12.7782C67.1975 13.2229 66.6905 13.8442 66.3848 14.5683C66.0791 15.2925 65.9875 16.0892 66.121 16.8638C66.2442 16.6348 66.4121 16.4328 66.6147 16.2697C66.8173 16.1066 67.0506 15.9858 67.3006 15.9143C67.5507 15.8429 67.8126 15.8222 68.0708 15.8537C68.3289 15.8851 68.5782 15.9679 68.8038 16.0973C68.2614 17.8041 67.8891 19.5603 67.6924 21.3404C65.3161 21.2637 56.0028 21.1641 53.8028 21.532C53.9025 19.0638 53.1283 18.8568 52.8523 17.638C51.9785 13.744 50.2921 13.4221 47.7166 12.211C45.8616 11.3448 44.2442 9.77341 42.0519 9.91138C39.8597 10.0494 37.652 10.8389 36.28 12.4946C34.9079 14.1503 35.1838 15.1085 34.0877 16.8638C33.2573 18.1139 32.8098 19.5791 32.7999 21.0797C27.4342 21.4093 8.72318 20.9264 3.89404 20.8958C3.87371 20.8958 3.85421 20.9038 3.83983 20.9182C3.82546 20.9326 3.81738 20.9521 3.81738 20.9724C3.81738 20.9927 3.82546 21.0122 3.83983 21.0266C3.85421 21.041 3.87371 21.0491 3.89404 21.0491C8.72318 21.1104 28.0091 21.5397 32.8076 21.394C32.9302 24.1765 34.6856 25.1807 35.8737 26.3918C36.5372 27.2061 37.4086 27.8259 38.3956 28.1855C39.4611 28.4998 41.7607 28.2928 42.2819 27.9172C42.4275 29.7799 42.6652 31.6349 42.9718 33.4592C42.9718 33.6355 43.309 33.5972 43.286 33.4592C43.0944 31.6272 42.9104 29.8029 42.7725 27.9785C42.8185 27.9785 43.6233 28.3694 43.9836 28.5074C45.0524 28.8431 46.1859 28.9188 47.2898 28.7281C48.3937 28.5375 49.4362 28.086 50.3305 27.4113C52.0475 25.9702 53.6265 24.0692 53.8335 21.7696C55.0523 21.6086 65.4464 21.7696 67.6924 21.7006C67.5682 23.1184 67.6327 24.5464 67.884 25.9472C68.3976 28.6607 69.6394 30.1555 73.1654 31.0753C72.9584 32.478 73.2804 34.2181 71.525 34.77C66.2283 35.6591 61.6904 38.0661 57.4362 41.2625C56.7463 41.7761 56.2481 41.8527 56.432 42.6959C55.8563 42.9557 55.2981 43.2528 54.761 43.5851C54.922 42.8722 56.1868 34.0954 56.5777 30.4237C56.6243 30.3949 56.6679 30.3615 56.708 30.3241C56.961 30.5847 57.3519 30.4007 57.5205 30.1095C57.8587 29.928 58.1413 29.6582 58.3384 29.3289C58.5354 28.9995 58.6396 28.6229 58.6397 28.2391C59.2682 27.3653 59.6131 27.3959 59.4828 27.051C59.3525 26.7061 58.6703 26.6064 58.3484 26.8134C57.6585 25.7709 55.8418 25.7709 54.8223 26.2538C52.8983 27.166 53.182 29.3199 52.4154 30.9756C50.4148 35.4062 45.4323 39.7677 43.5313 47.0728C42.7648 50.0776 43.2247 53.205 45.9842 55.0217C49.6253 57.4056 54.8147 55.6119 58.1261 53.3813C58.1951 53.5346 58.287 53.8796 58.6167 53.8489C59.7469 53.7119 60.8303 53.3158 61.7824 52.6915C61.4835 55.198 61.3148 62.503 61.2765 65.0326C61.2765 67.1406 61.1692 70.3983 61.5218 70.6819C61.8257 70.8885 62.1667 71.0343 62.526 71.1112C62.296 73.4108 63.2925 81.5207 63.2925 81.9959C66.213 78.9911 66.5809 78.6845 68.4819 76.7989C68.4941 76.7877 68.5102 76.7818 68.5268 76.7825C68.5433 76.7832 68.5589 76.7905 68.5701 76.8027C68.5812 76.8149 68.5871 76.831 68.5864 76.8475C68.5857 76.8641 68.5784 76.8796 68.5662 76.8908C67.3244 78.2399 60.6633 85.3763 60.4257 86.0892C60.188 86.8021 61.5831 88.1128 61.6291 88.1512C56.5164 94.2834 56.3554 95.9314 55.0446 103.842C51.6489 105.697 46.7738 106.908 46.6128 106.249C46.4595 105.674 47.0574 104.954 47.456 104.647C47.5633 104.57 47.548 104.371 47.387 104.379C46.2587 104.46 45.1999 104.954 44.4128 105.766C44.4158 105.261 44.5275 104.763 44.7405 104.305C44.9535 103.848 45.2627 103.441 45.647 103.114C45.7849 102.999 45.647 102.823 45.4783 102.884C43.9458 103.581 42.6526 104.714 41.7607 106.142C41.4396 105.325 41.4152 104.422 41.6917 103.589C41.7377 103.436 41.5537 103.397 41.4464 103.482C40.3809 104.363 40.2583 106.249 40.2046 106.287C39.9976 106.433 37.1001 104.555 34.8389 105.022C34.7009 105.022 34.6472 105.252 34.8389 105.283C36.1763 105.559 37.361 106.328 38.158 107.437C36.1853 108.682 34.0493 109.647 31.8111 110.304C23.7625 112.849 13.5677 113.447 5.29679 113.094C5.27442 113.094 5.25298 113.103 5.23716 113.119C5.22135 113.135 5.21247 113.156 5.21247 113.178C5.21247 113.201 5.22135 113.222 5.23716 113.238C5.25298 113.254 5.27442 113.263 5.29679 113.263C11.8236 113.607 18.3686 113.279 24.828 112.282C29.1129 111.553 34.7929 110.112 38.3726 107.598C38.3931 107.584 38.4099 107.565 38.4216 107.543C38.4332 107.521 38.4393 107.496 38.4393 107.472C38.4393 107.447 38.4332 107.422 38.4216 107.4C38.4099 107.378 38.3931 107.359 38.3726 107.345C37.7782 106.421 36.9099 105.705 35.889 105.298C37.4234 105.427 38.9065 105.913 40.2199 106.717C40.2379 106.725 40.2574 106.73 40.2773 106.73C40.2972 106.73 40.3169 106.726 40.3351 106.718C40.3533 106.71 40.3696 106.699 40.3828 106.684C40.396 106.669 40.4058 106.651 40.4116 106.632C40.5403 105.789 40.8264 104.978 41.2547 104.241C41.1555 105.01 41.2778 105.792 41.6073 106.494C41.6205 106.515 41.6387 106.532 41.6601 106.543C41.6815 106.555 41.7056 106.561 41.73 106.561C41.7544 106.561 41.7785 106.555 41.7999 106.543C41.8213 106.532 41.8395 106.515 41.8526 106.494C42.5684 105.246 43.5992 104.207 44.8421 103.482C44.2889 104.223 44.032 105.144 44.1216 106.065C44.1213 106.093 44.1295 106.121 44.145 106.145C44.1605 106.169 44.1827 106.188 44.2088 106.2C44.2349 106.211 44.2638 106.214 44.2919 106.21C44.32 106.205 44.3461 106.192 44.3669 106.172C45.0151 105.371 45.9285 104.827 46.9424 104.639C46.6879 104.911 46.5033 105.241 46.4045 105.6C46.3057 105.959 46.2956 106.337 46.3752 106.701C46.3859 106.737 46.4103 106.768 46.4432 106.787C46.4761 106.805 46.5149 106.81 46.5515 106.801C49.4183 106.379 52.5074 105.674 54.9833 104.08C54.0635 109.606 52.4308 121.396 52.2468 127.582C52.0379 127.665 51.85 127.793 51.6963 127.958C51.5427 128.122 51.427 128.318 51.3576 128.532C51.143 129 50.5911 130.594 45.7849 130.563C45.4247 130.563 44.8498 130.402 44.4282 130.701C43.5083 131.368 43.8533 132.756 44.5585 133.43C45.601 134.419 47.364 134.963 48.6978 135.461C50.2308 135.998 52.2621 136.788 53.9025 136.45C55.8648 136.059 56.3784 133.108 56.2941 131.085C58.1721 126.217 61.4375 122.039 63.6298 117.287C65.5998 113.033 67.6387 109.231 68.8958 105.022C69.1564 104.149 69.1718 103.344 69.9613 102.784C70.4212 102.462 74.4915 99.9941 75.8329 98.7983C76.3471 99.204 76.9051 99.5511 77.4963 99.8331C78.2628 99.9787 80.5624 97.3035 81.1067 96.767C83.1583 98.3132 85.5068 99.4196 88.0054 100.017C89.6854 100.453 91.3868 100.801 93.1029 101.06C99.3808 102.064 109.683 103.282 110.978 103.359C111.129 103.533 111.319 103.669 111.532 103.756C111.745 103.842 111.976 103.877 112.205 103.857C112.726 103.857 115.708 103.336 116.398 108.058C116.651 109.637 118.552 110.281 119.464 108.112C120.008 106.801 119.755 104.877 119.633 103.512C119.487 101.864 119.341 99.7564 118.414 98.346C117.601 97.1119 115.716 96.882 114.014 97.6562C113.434 97.8773 112.868 98.1332 112.32 98.4227C105.574 95.9774 99.2888 92.3901 92.9496 89.1017C91.9301 88.5728 90.9413 87.9749 89.9371 87.4076C90.3255 86.8966 90.6934 86.36 91.0409 85.7979C94.0074 84.0579 96.8052 81.628 98.254 78.6615C98.6431 77.9669 98.8787 77.1969 98.9448 76.4035C99.0109 75.6101 98.906 74.8117 98.6372 74.0623C97.8707 72.169 95.9544 71.0422 94.1913 70.2297C94.1643 63.6814 93.424 57.1555 91.9837 50.7675C93.5704 51.534 94.1684 51.8789 94.7816 51.8713C95.2415 51.8713 95.3028 51.6796 95.5481 51.2734C95.7934 50.8671 95.9927 50.5068 96.215 50.1312C97.6561 51.4267 99.9327 51.7256 101.749 52.1932C100.669 55.4132 100.246 58.8176 100.508 62.2041C100.677 65.9914 101.097 69.7633 101.765 73.4951C101.213 74.0317 100.055 73.4951 99.7487 73.909C99.3271 74.4763 100.715 74.9362 101.159 75.0665C100.864 75.7136 100.762 76.4326 100.868 77.1361C101.259 78.056 102.654 78.5082 103.574 78.4009C104.494 78.2936 104.609 77.4811 104.838 76.7835C105.163 75.843 105.303 74.8489 105.252 73.8554C106.64 67.3629 110.618 61.5909 111.193 54.8914C111.5 52.1501 110.965 49.3803 109.66 46.9501C108.732 45.3174 107.207 44.2596 105.712 43.1941C103.852 41.8655 101.944 40.616 99.9863 39.4458C100.124 38.8326 100.201 38.7483 100.071 38.6793C99.764 38.5106 99.4421 38.3573 99.1278 38.204C107.912 34.2257 117.525 33.9574 126.853 32.0181C126.447 35.0842 126.14 39.5761 126.792 41.7147C114.78 48.8051 115.386 61.8285 123.465 65.9754C128.195 68.39 133.43 67.9454 138.428 71.985C142.015 74.9055 143.985 79.2211 144.675 83.7283C146.208 93.6932 142.008 105.827 136.412 114.275C130.816 122.722 122.683 129.605 114.106 135.117C99.2121 144.614 91.0486 145.641 91.2172 145.971C91.2225 145.988 91.2343 146.002 91.25 146.011C91.2658 146.019 91.2842 146.021 91.3015 146.017C98.2003 144.269 104.785 140.927 110.894 137.378C119.456 132.395 127.528 126.133 133.76 118.391C140.191 110.381 144.729 100.078 145.258 89.6842C145.771 79.7193 141.992 71.4638 132.472 68.4437C127.574 66.9106 120.752 66.466 118.498 59.8049C116.574 54.0942 118.927 46.6895 126.846 41.9677C128.264 47.893 133.537 51.8253 138.129 51.8789C138.129 54.7304 138.367 57.5819 138.474 60.4258C138.474 60.5407 138.673 60.5407 138.658 60.4258C138.573 57.5819 138.658 54.7228 138.428 51.8789C139.612 51.8366 140.776 51.5522 141.846 51.0434C142.916 50.5345 143.871 49.8119 144.652 48.9201ZM52.837 24.0309C52.4154 25.1577 51.0817 26.4378 50.1618 27.2426C49.3162 27.8837 48.3326 28.3187 47.2894 28.513C46.2461 28.7073 45.172 28.6555 44.1522 28.3618C43.6846 28.1931 42.7265 27.6949 42.7265 27.6949C42.7265 27.6949 42.6575 26.8057 42.6345 26.3611C44.2834 24.8419 45.676 23.0662 46.7584 21.1027C46.7584 21.0414 46.6971 20.9878 46.6588 21.0414C45.5475 22.8589 44.1762 24.5039 42.5885 25.9242C42.4582 23.7703 42.3739 21.6163 42.3585 19.4547C43.6925 18.4452 44.6979 17.0637 45.2484 15.4841C45.2867 15.4074 45.1487 15.3461 45.1104 15.4304C44.3933 16.7781 43.4583 17.998 42.3432 19.0408C42.3432 17.891 42.3432 16.7412 42.3969 15.5914C42.3969 15.5731 42.3896 15.5555 42.3767 15.5426C42.3637 15.5297 42.3462 15.5224 42.3279 15.5224C42.3096 15.5224 42.292 15.5297 42.2791 15.5426C42.2662 15.5555 42.2589 15.5731 42.2589 15.5914C42.1133 17.4157 42.0213 19.2554 41.9983 21.1027C41.0869 20.8591 40.2127 20.4929 39.3997 20.0143C39.3154 19.9529 39.2464 20.0832 39.3231 20.1446C40.1151 20.7717 41.0327 21.2213 42.0136 21.463C42.0136 23.5326 42.2206 27.6719 42.2206 27.6719C41.5552 28.0188 40.8201 28.2108 40.07 28.2333C39.32 28.2559 38.5746 28.1085 37.8897 27.8022C36.8165 27.3576 36.1343 26.3535 35.3065 25.5793C34.4455 24.8969 33.7706 24.0085 33.3441 22.9961C33.0403 22.0233 32.959 20.9947 33.1063 19.9864C33.2536 18.978 33.6257 18.0156 34.195 17.1704C34.6698 16.379 35.0579 15.5386 35.3525 14.6639C36.28 12.2953 39.7677 9.68142 43.7843 10.4403C44.6978 10.7416 45.5514 11.2008 46.3062 11.797C47.9925 12.8165 49.9855 13.1691 51.2963 14.7559C52.0628 15.645 52.2008 16.6798 52.5994 17.753C53.1099 18.7137 53.3964 19.7775 53.4376 20.8647C53.4787 21.9519 53.2734 23.0343 52.837 24.0309ZM118.375 98.8826C119.295 100.761 119.587 105.153 119.395 107.199C119.311 108.073 118.521 109.798 117.364 109.146C117.618 108.744 117.773 108.287 117.816 107.813C117.986 106.542 118.068 105.262 118.061 103.98C118.126 102.572 117.931 101.163 117.486 99.8254C117.271 98.9573 116.826 98.1631 116.198 97.5258C116.659 97.4899 117.118 97.6023 117.51 97.8464C117.902 98.0905 118.205 98.4537 118.375 98.8826ZM115.309 99.8944C115.378 99.4652 115.808 99.0052 116.175 99.2275C116.382 99.3808 116.306 99.7258 116.175 99.9404C115.892 100.554 115.21 100.416 115.294 99.9174L115.309 99.8944ZM114.88 101.236C115.202 101.014 115.823 100.63 116.237 100.738C116.307 100.753 116.371 100.79 116.419 100.844C116.467 100.898 116.497 100.965 116.505 101.037C116.505 101.19 116.405 101.274 116.29 101.351C116.033 101.527 115.758 101.676 115.47 101.795C115.319 101.881 115.142 101.909 114.972 101.872C114.913 101.85 114.861 101.813 114.82 101.765C114.78 101.716 114.753 101.658 114.742 101.596C114.731 101.534 114.737 101.47 114.758 101.411C114.78 101.352 114.817 101.299 114.865 101.259L114.88 101.236ZM115.049 102.355C115.516 102.133 116.451 101.588 116.835 102.025C117.218 102.462 116.589 102.738 116.298 102.899C116.007 103.06 115.309 103.489 114.857 103.252C114.512 103.091 114.451 102.662 115.033 102.378L115.049 102.355ZM96.4986 18.1056C96.9892 17.3391 97.1042 16.4422 97.5641 15.668C98.2767 14.4749 99.3427 13.5329 100.614 12.9726C101.886 12.4123 103.301 12.2613 104.662 12.5406C105.519 12.8957 106.336 13.3402 107.1 13.8667C108.502 14.6792 110.059 14.9398 111.155 16.2506C111.753 17.0518 112.15 17.9851 112.312 18.9718C112.519 19.8609 113.04 20.5048 113.079 21.486C113.207 22.6864 112.923 23.8947 112.274 24.9124C111.708 25.7429 110.999 26.4669 110.181 27.051C109.415 27.5493 106.563 28.6837 104.777 27.9862C104.455 27.8635 103.712 27.4649 103.712 27.4649C103.712 27.4649 103.658 26.6984 103.635 26.3305C105.065 25.0146 106.273 23.4772 107.215 21.7773C107.219 21.7702 107.221 21.7625 107.222 21.7544C107.223 21.7464 107.223 21.7382 107.221 21.7304C107.219 21.7225 107.215 21.7152 107.21 21.7088C107.205 21.7024 107.199 21.697 107.192 21.693C107.185 21.6889 107.177 21.6863 107.169 21.6853C107.161 21.6843 107.153 21.6849 107.145 21.687C107.137 21.6891 107.13 21.6928 107.123 21.6978C107.117 21.7027 107.111 21.7089 107.107 21.716C106.148 23.2732 104.971 24.6852 103.612 25.9089C103.5 24.0641 103.431 22.2116 103.405 20.3515C104.583 19.4708 105.467 18.2552 105.942 16.8638C105.942 16.7872 105.843 16.7258 105.804 16.8102C105.178 17.9486 104.379 18.9829 103.436 19.8763V16.9405C103.436 16.8485 103.298 16.8561 103.29 16.9405C103.167 18.5093 103.091 20.0935 103.06 21.693C102.278 21.4912 101.527 21.1816 100.829 20.7731C100.745 20.7195 100.676 20.8498 100.753 20.9034C101.426 21.4527 102.211 21.8478 103.052 22.0609C103.052 23.8469 103.229 27.4266 103.229 27.4266C101.42 28.1318 100.063 27.9325 99.0665 27.3116C98.2895 26.7253 97.5753 26.06 96.9355 25.3263C96.0646 24.3455 95.5481 23.1008 95.4689 21.7915C95.3897 20.4822 95.7523 19.1842 96.4986 18.1056ZM68.9878 16.1433C73.4567 13.767 82.5247 14.7252 84.9776 18.8721C84.694 19.8993 84.1038 22.3905 84.0961 22.5131C82.2565 20.3055 79.6809 18.4275 76.7681 18.0903C73.9856 17.776 70.5132 17.7453 68.183 19.5237C68.3896 18.3831 68.6582 17.2546 68.9878 16.1433ZM71.6017 34.9233C73.38 34.379 73.0734 32.5087 73.3187 31.037C73.3187 30.7457 71.0804 30.4697 69.6624 29.1513C67.5621 27.1966 67.6387 22.5208 68.1293 19.7613C70.4672 17.937 74.1082 17.9216 76.9214 18.3049C77.7381 18.4173 78.5336 18.6498 79.2823 18.9948C79.0677 20.0066 79.0907 21.7619 79.405 22.1989C79.6245 22.0046 79.8868 21.8651 80.1706 21.7918C80.4544 21.7185 80.7516 21.7136 81.0377 21.7773C81.2272 21.8289 81.4015 21.9255 81.5456 22.059C81.6898 22.1924 81.7995 22.3588 81.8655 22.5438C82.3484 23.7856 81.2753 24.5445 81.099 24.7897C80.9693 25.0229 80.9258 25.2943 80.9764 25.5563C81.0519 26.3678 80.9312 27.1856 80.6244 27.9407C80.3175 28.6958 79.8336 29.366 79.2133 29.8948C79.0075 29.9702 78.7977 30.0342 78.5848 30.0865C78.4775 30.0865 78.5848 32.2941 81.0913 34.4097C82.0224 34.3866 82.954 34.4173 83.8815 34.5017C83.3197 36.1082 82.2096 37.4652 80.7464 38.3343C76.3388 41.2701 72.8588 40.6339 71.3717 39.8674C70.5912 39.4284 70.0089 38.7065 69.7451 37.8507C69.4812 36.995 69.5559 36.0706 69.9536 35.2682C70.4672 35.1379 71.5557 34.9309 71.594 34.9233H71.6017ZM59.1532 27.258C59.1532 27.3116 58.7163 27.6949 58.6243 27.8635C58.614 27.6015 58.5623 27.3428 58.471 27.097C58.7776 26.867 59.2375 27.0203 59.1456 27.235L59.1532 27.258ZM48.4218 55.8036C46.9149 55.532 45.5641 54.7066 44.635 53.4895C43.7059 52.2725 43.2657 50.7519 43.401 49.2267C43.8852 46.0806 44.9928 43.0627 46.6588 40.3503C48.9584 36.7016 51.8942 33.2216 52.906 30.3854C53.2279 29.4043 53.1973 28.3234 53.8105 27.4496C54.1538 26.9812 54.6285 26.6254 55.1745 26.4275C55.7205 26.2296 56.3129 26.1985 56.8766 26.3381C57.2565 26.3821 57.6079 26.5611 57.8668 26.8425C58.1257 27.1239 58.2749 27.489 58.287 27.8712C58.3197 28.2255 58.2718 28.5825 58.147 28.9157C58.0223 29.2488 57.8238 29.5495 57.5665 29.7952C57.609 29.2516 57.5058 28.7065 57.2676 28.2161C57.2676 28.1471 57.0989 28.2161 57.1296 28.2775C57.3284 28.8328 57.3708 29.432 57.2522 30.0098C57.1526 30.2321 56.915 30.1785 56.7846 30.1401C56.9481 29.5009 56.9268 28.8284 56.7233 28.2008C56.718 28.1836 56.7073 28.1687 56.6928 28.158C56.6783 28.1474 56.6608 28.1416 56.6428 28.1416C56.6249 28.1416 56.6074 28.1474 56.5929 28.158C56.5784 28.1687 56.5677 28.1836 56.5624 28.2008C56.5624 28.6377 56.9456 30.4084 56.1561 30.0251C56.1088 29.4053 56.0269 28.7885 55.9108 28.1778C55.9108 28.0782 55.7575 28.1242 55.7652 28.2161C55.8391 28.7728 55.8801 29.3333 55.8878 29.8948C55.8878 30.2168 55.4279 30.1018 55.2822 29.8948C55.0323 29.3867 54.939 28.8158 55.014 28.2545C55.0111 28.2316 55.0015 28.2101 54.9863 28.1928C54.9711 28.1754 54.951 28.1631 54.9287 28.1573C54.9064 28.1515 54.8829 28.1526 54.8612 28.1603C54.8395 28.1681 54.8206 28.1822 54.807 28.2008C54.4161 28.9673 54.9986 30.6614 55.7575 30.5541C55.8348 30.4892 55.9325 30.4536 56.0334 30.4536C56.1344 30.4536 56.2321 30.4892 56.3094 30.5541C54.6154 41.5231 55.0906 46.5899 51.2196 49.3034C51.166 49.3034 51.2196 49.4414 51.2733 49.3954C53.0558 48.0499 54.2655 46.0819 54.6614 43.884C55.2324 43.5327 55.8237 43.2153 56.432 42.9335C56.7233 44.2903 57.2599 51.3577 58.0264 53.2357C55.4126 54.9604 51.5876 56.4015 48.4295 55.7729L48.4218 55.8036ZM52.0322 131.928C52.0714 131.885 52.1212 131.852 52.1766 131.834C52.2321 131.816 52.2912 131.813 52.3484 131.824C52.4055 131.836 52.4587 131.862 52.5027 131.9C52.5467 131.939 52.58 131.988 52.5994 132.043C52.5994 132.043 52.8064 133.223 52.5151 133.576C52.4691 133.632 52.4072 133.673 52.3374 133.694C52.2677 133.714 52.1933 133.713 52.1241 133.691C51.9785 133.591 51.7409 132.204 52.0398 131.905L52.0322 131.928ZM50.7827 131.284C51.12 130.97 51.7255 133.269 51.166 133.537C50.6064 133.806 50.5604 133.116 50.5374 132.771C50.5144 132.303 50.4148 131.621 50.7904 131.261L50.7827 131.284ZM53.3046 136.297C51.995 136.242 50.7019 135.984 49.4719 135.53C47.9896 135.055 46.5652 134.415 45.2254 133.622C44.4205 133.17 43.516 131.751 44.4588 131.031C44.7172 131.426 45.0635 131.757 45.4707 131.997C50.1312 134.626 53.9025 135.185 54.5157 135.101C54.8372 135.05 55.153 134.968 55.4585 134.856C55.2978 135.29 55.0032 135.661 54.6173 135.916C54.2314 136.171 53.7743 136.296 53.3123 136.274L53.3046 136.297ZM53.09 133.338C53.0992 133.278 53.1224 133.222 53.1578 133.172C53.1932 133.123 53.2397 133.083 53.2936 133.056C53.3474 133.028 53.4071 133.013 53.4676 133.013C53.5281 133.013 53.5879 133.027 53.6419 133.055C53.7593 133.127 53.8594 133.224 53.935 133.339C54.0105 133.454 54.0596 133.585 54.0788 133.721C54.1 133.79 54.0992 133.864 54.0764 133.932C54.0536 134.001 54.0099 134.06 53.9516 134.102C53.8933 134.145 53.8231 134.168 53.7511 134.168C53.6791 134.168 53.6087 134.146 53.5499 134.105C53.5499 134.105 53.0516 133.606 53.0976 133.315L53.09 133.338ZM56.0948 130.847C55.6284 131.068 55.1055 131.142 54.596 131.059C54.0864 130.975 53.6145 130.738 53.2433 130.379C52.9182 129.927 52.7149 129.399 52.6531 128.846C53.8113 129.533 55.1398 129.878 56.4857 129.843C56.3707 130.142 56.2327 130.479 56.1024 130.824L56.0948 130.847ZM69.2331 103.099C68.9648 103.658 66.4506 111.147 63.7447 116.329C62.434 118.835 61.2612 121.334 59.7894 123.741C58.594 125.618 57.5286 127.575 56.6007 129.597C55.2072 129.597 53.8373 129.238 52.6224 128.555C52.5457 128.08 52.5151 127.689 52.4921 127.627C52.837 124.224 53.0286 120.805 53.4119 117.402C53.8565 113.408 55.6578 99.9404 56.8 96.3377C57.7505 93.2716 59.7358 90.6654 61.7441 88.2202C64.8715 90.696 75.373 98.553 75.6183 98.6986C74.2309 99.8714 69.6394 102.24 69.2331 103.099ZM112.312 98.6986C112.691 99.031 112.962 99.4691 113.091 99.9567C113.219 100.444 113.199 100.959 113.033 101.435C112.795 102.125 111.346 102.968 110.963 103.213L110.695 103.175C111.783 101.803 111.776 100.178 111.684 98.4917C111.914 98.5683 112.105 98.6296 112.312 98.6986ZM95.4101 90.765C99.4268 92.9113 107.184 96.8973 111.469 98.4303C111.538 100.124 111.561 101.757 110.465 103.16C98.116 101.404 87.1929 101.182 81.2523 96.6903C83.1303 94.9043 88.9176 89.2166 89.8298 87.5763C91.6848 88.6188 93.5168 89.7532 95.4101 90.765ZM94.1607 70.4596C95.9467 71.3488 97.863 72.5293 98.5299 74.5146C99.0971 76.201 98.4533 78.0023 97.5641 79.4434C95.9659 81.8747 93.8213 83.8986 91.3015 85.3533C92.376 83.5302 93.0529 81.5006 93.2881 79.3976C93.5232 77.2945 93.3112 75.1655 92.6659 73.1502C93.1259 72.9662 93.5704 72.7669 94.015 72.5369C94.0465 72.5414 94.0784 72.5335 94.1041 72.5149C94.1299 72.4964 94.1474 72.4685 94.153 72.4373C94.1607 72.3606 94.1683 70.7586 94.1607 70.4596ZM104.463 42.5809C105.935 43.5851 107.675 44.6276 108.809 46.0303C110.641 48.3299 111.155 51.557 110.986 54.3855C110.572 61.2383 106.28 67.1099 105.022 73.7634C105.097 74.451 105.051 75.1463 104.884 75.8177C104.769 76.5127 104.533 77.182 104.187 77.7953C103.528 78.6615 101.159 77.9716 100.967 76.9138C100.967 76.2707 101.09 75.6333 101.328 75.0358C101.331 75.0186 101.328 75.0009 101.32 74.9856C101.311 74.9702 101.298 74.9582 101.282 74.9515C100.823 74.8724 100.394 74.6712 100.04 74.3689C100.001 74.3084 99.9803 74.2378 99.9803 74.1658C99.9803 74.0938 100.001 74.0233 100.04 73.9627C100.178 73.84 101.45 74.2233 101.926 73.6024C101.933 73.5911 101.937 73.5777 101.937 73.5641C101.937 73.5504 101.933 73.5371 101.926 73.5258C101.289 66.3894 99.5111 59.2376 101.926 52.2239C101.931 52.2134 101.933 52.202 101.934 52.1903C101.934 52.1787 101.932 52.1671 101.928 52.1563C101.923 52.1455 101.917 52.1357 101.909 52.1276C101.9 52.1194 101.891 52.1131 101.88 52.1089C100.101 51.1661 97.863 51.3884 96.2916 50.0009C96.5063 49.61 99.58 41.1552 99.9097 39.6604C101.458 40.5726 102.968 41.5614 104.463 42.5809ZM95.1035 51.4267C94.6053 52.0782 92.8882 50.8594 92.2903 50.5835C91.6925 50.3075 90.8799 49.9319 90.1671 49.6407C90.0444 49.587 89.9524 49.794 90.0751 49.8553C90.627 50.1389 91.1942 50.4072 91.7614 50.6755C93.1904 57.8233 93.9119 65.0944 93.9154 72.3836C90.7096 73.7633 87.2486 74.4503 83.7589 74.3996C80.099 74.5686 76.433 74.2464 72.8588 73.4414C69.5704 72.5983 66.2513 71.962 62.9859 71.0192C62.1044 70.7663 61.5218 70.6359 61.4528 69.5475C61.3838 68.459 61.6445 53.0977 62.6409 48.4525C62.6409 48.3452 62.4953 48.2992 62.4723 48.4066C62.181 49.7556 61.9587 51.1201 61.7901 52.4922C61.0236 52.9597 59.3909 54.0252 58.494 53.5116C57.5972 52.9981 57.6125 50.4455 57.5358 49.771C57.3749 48.4219 56.5854 42.3433 56.6697 42.1057C58.7912 40.321 61.1051 38.7784 63.5684 37.5065C65.5499 36.5678 67.6228 35.8358 69.7543 35.3219C68.5662 38.0661 70.4442 41.0325 75.1201 40.7796C77.0733 40.5536 78.9404 39.8478 80.5548 38.7253C82.2105 37.7058 83.6209 36.4257 84.0195 34.4787C89.7685 34.9463 92.6199 36.234 94.8812 36.8243C96.5552 37.3674 98.198 38.002 99.8023 38.7253C99.8023 38.7253 96.8282 49.1578 95.0882 51.419L95.1035 51.4267ZM127.068 30.6614C127.167 30.9297 126.999 31.3053 126.907 31.6502C117.479 33.3596 107.636 33.9498 98.8288 37.9971C93.5168 35.5748 86.8863 33.9728 81.1986 34.1644C79.9014 33.1983 79.0235 31.7719 78.7458 30.1785C80.7694 29.7339 82.0188 28.0398 83.0613 26.2845C83.7103 25.0151 84.1356 23.6434 84.3184 22.2295C85.9818 22.2679 87.6528 22.2295 89.3162 22.2295C91.2529 22.31 93.1926 22.1867 95.1035 21.8616C95.1068 22.5485 95.253 23.2272 95.5328 23.8546C95.9918 24.6734 96.6094 25.3926 97.3494 25.9702C97.9898 26.7325 98.7704 27.3648 99.649 27.8329C100.86 28.2555 102.184 28.2256 103.374 27.7486C103.374 27.7486 103.704 30.9603 103.972 32.5317C103.972 32.708 104.31 32.6697 104.287 32.5317C104.118 30.9526 103.85 27.8022 103.85 27.8022C103.85 27.8022 104.501 28.0935 104.792 28.2085C106.632 28.975 109.844 27.7332 110.465 27.2656C111.998 26.0928 113.27 24.6288 113.431 22.6128V21.6163C113.431 21.6163 125.251 21.6163 127.543 21.7236C126.478 22.9961 125.527 26.4991 127.068 30.6614ZM143.472 29.3813C141.939 32.0794 140.405 34.8236 138.596 37.3762C138.642 41.845 138.765 46.3446 138.527 50.7981C138.527 50.8428 138.51 50.8857 138.478 50.9174C138.446 50.949 138.404 50.9668 138.359 50.9668C138.314 50.9668 138.271 50.949 138.24 50.9174C138.208 50.8857 138.19 50.8428 138.19 50.7981V46.2679C136.759 44.7344 135.105 43.4244 133.284 42.3816C133.154 42.3126 133.284 42.1057 133.407 42.1747C135.237 43.0288 136.867 44.259 138.19 45.785C138.19 40.036 138.328 34.2871 138.413 28.5534C137.278 27.1597 135.882 26.001 134.304 25.1423C134.151 25.0734 134.304 24.8511 134.442 24.92C136.048 25.5608 137.432 26.6589 138.42 28.0782C138.527 20.6122 138.42 20.8344 138.581 20.8651C138.619 20.8651 138.642 20.8651 138.65 20.9341C138.819 25.9472 138.596 30.9603 138.65 35.9734V36.74C140.183 34.2181 141.847 31.8035 143.318 29.2586C143.34 29.2521 143.362 29.2514 143.384 29.2568C143.406 29.2622 143.425 29.2733 143.441 29.2891C143.457 29.3049 143.468 29.3246 143.473 29.3463C143.479 29.3679 143.478 29.3906 143.472 29.4119V29.3813Z" fill="black"/>
</svg>
