<svg width="154" height="154" viewBox="0 0 154 154" fill="none" xmlns="http://www.w3.org/2000/svg">
<path d="M68.1155 33.0077C67.9236 32.9673 67.7288 32.9417 67.5329 32.9311C67.4888 32.9283 67.4452 32.9415 67.41 32.9682C67.3748 32.9949 67.3504 33.0335 67.3413 33.0767C67.096 34.0272 68.1078 34.0579 68.2688 33.2224C68.2756 33.1738 68.2635 33.1244 68.235 33.0845C68.2064 33.0445 68.1637 33.0171 68.1155 33.0077ZM68.6904 30.0718C68.3606 30.0178 68.0222 30.0616 67.717 30.1978C67.4118 30.334 67.1533 30.5568 66.9733 30.8384C66.9263 30.9079 66.9062 30.9921 66.9168 31.0754C66.9275 31.1586 66.9681 31.2351 67.031 31.2906C67.094 31.3461 67.1751 31.3767 67.259 31.3767C67.3429 31.3767 67.4239 31.3461 67.4869 31.2907C67.785 31.0519 68.1647 30.9391 68.5448 30.9764C69.342 31.0914 69.319 30.1715 68.6904 30.0718ZM69.9246 36.0279C70.0276 36.0141 70.122 35.9633 70.1905 35.8851C70.2589 35.8068 70.2966 35.7064 70.2966 35.6025C70.2966 35.4986 70.2589 35.3982 70.1905 35.3199C70.122 35.2417 70.0276 35.1909 69.9246 35.1771H69.5643C69.6052 34.3465 69.7154 33.5209 69.8939 32.7088C69.9149 32.6194 69.9003 32.5253 69.853 32.4466C69.8058 32.3679 69.7297 32.3107 69.6409 32.2872C69.5556 32.2654 69.4652 32.2772 69.3883 32.3199C69.3113 32.3627 69.2536 32.4332 69.227 32.5171C68.8905 33.3803 68.7114 34.2967 68.6981 35.2231C68.6981 35.522 68.6981 36.0356 69.3343 36.0509C69.5314 36.0575 69.7286 36.0498 69.9246 36.0279ZM73.4813 31.5819C73.1443 31.2939 72.7387 31.0975 72.3038 31.0116C71.8688 30.9256 71.419 30.9531 70.9977 31.0914C70.8994 31.1635 70.8332 31.2712 70.8131 31.3915C70.7931 31.5118 70.8208 31.6351 70.8904 31.7353C71.2277 32.2105 72.1935 31.6586 73.1901 32.3332C73.2723 32.3782 73.367 32.3951 73.4598 32.3813C73.5525 32.3675 73.6382 32.3236 73.7036 32.2565C73.811 32.0879 73.7496 31.8656 73.4813 31.5819ZM71.8869 36.6182C71.5689 36.8764 71.1985 37.0623 70.8013 37.163C70.4042 37.2636 69.9899 37.2765 69.5873 37.2008C69.4948 37.1835 69.3992 37.2036 69.3216 37.2568C69.2439 37.31 69.1906 37.3919 69.1733 37.4844C69.1561 37.5769 69.1762 37.6725 69.2294 37.7501C69.2826 37.8277 69.3645 37.881 69.457 37.8983C69.9969 38.0155 70.556 38.0131 71.095 37.8913C71.634 37.7694 72.1397 37.5311 72.5768 37.1931C73.1287 36.6488 72.5155 35.9513 71.8869 36.6182ZM72.4925 33.46C72.4981 33.4343 72.4986 33.4078 72.4939 33.3819C72.4893 33.356 72.4795 33.3314 72.4653 33.3093C72.451 33.2872 72.4326 33.2681 72.4109 33.2532C72.3893 33.2383 72.3649 33.2278 72.3392 33.2224C72.1322 33.1827 71.9209 33.1698 71.7106 33.184C71.6721 33.1844 71.6348 33.1973 71.6044 33.2208C71.5739 33.2444 71.552 33.2772 71.542 33.3143C71.289 34.1116 72.1552 34.7631 72.4925 33.46Z" fill="black"/>
<path fill-rule="evenodd" clip-rule="evenodd" d="M70.8676 43.6935C69.917 43.6935 69.8097 44.0998 69.8864 45.2266C69.9937 46.7597 69.986 46.8364 71.2508 46.8364C72.5156 46.8364 72.623 46.8364 72.6383 45.2113C72.6536 43.5862 72.3163 43.6935 70.8676 43.6935ZM65.5017 83.6768C65.5017 83.7215 65.5195 83.7644 65.5511 83.796C65.5827 83.8276 65.6256 83.8454 65.6704 83.8454C65.7151 83.8454 65.758 83.8276 65.7896 83.796C65.8212 83.7644 65.839 83.7215 65.839 83.6768C64.9405 71.3777 66.7755 59.0322 71.2125 47.5263C71.3275 47.2273 70.8676 47.005 70.7602 47.3116C67.2077 56.3081 65.3094 65.8723 65.1568 75.5437C65.1568 78.2572 65.2794 80.9708 65.5017 83.6768ZM24.8132 79.0545C23.4105 79.2538 22.0077 79.3228 20.5972 79.3994C19.9101 77.6578 19.0471 75.9909 18.0216 74.4245C17.416 73.6579 17.1477 75.8579 15.9749 80.005L11.1916 81.1395C10.9693 81.1931 10.6857 81.7527 10.9693 81.9597C11.8585 82.6112 13.6139 83.6308 14.6181 84.1903C14.1735 85.4552 13.361 87.6475 13.085 88.8356C13.016 89.1039 13.499 89.6022 13.7826 89.3646L18.6195 85.7005C20.1897 86.6423 21.8298 87.4624 23.5254 88.1534C23.5931 88.1841 23.6679 88.1957 23.7417 88.1868C23.8155 88.178 23.8855 88.1491 23.944 88.1032C24.0024 88.0574 24.0472 87.9963 24.0735 87.9268C24.0997 87.8573 24.1063 87.7819 24.0927 87.7088C23.6145 86.1488 22.9908 84.6372 22.23 83.1938C23.3261 82.0747 24.3533 80.8942 25.4112 79.729C25.7024 79.3381 25.1582 79.0085 24.8132 79.0545ZM21.4634 83.1555C22.0383 84.474 22.6592 85.7618 23.1038 87.1262C22.4906 86.8579 18.5889 84.7346 18.3512 84.8956L14.0279 88.2837C14.4878 86.8426 14.9401 85.4015 15.4 83.968C15.5457 83.4851 12.2648 81.975 11.7206 81.6684C12.4871 81.5074 15.9596 80.9018 16.4349 80.5799C16.5805 80.4802 17.7303 76.4789 17.968 75.7506C18.3512 76.3562 20.0836 79.9973 20.3979 80.0126C21.6949 80.0817 22.9955 80.0355 24.2843 79.8747C23.901 80.2656 21.3561 82.8642 21.4864 83.1708L21.4634 83.1555ZM18.5505 63.5625C19.0028 63.8154 19.1178 63.1255 19.0718 62.8573L18.0829 58.5033L21.5017 56.3339C21.908 56.0733 22.3526 55.4141 21.7317 55.3067C20.1603 55.0308 18.5735 54.8238 16.9944 54.5862C16.5191 52.8421 15.9354 51.1293 15.2467 49.458C15.2166 49.3928 15.1686 49.3376 15.1081 49.2989C15.0476 49.2602 14.9774 49.2396 14.9056 49.2396C14.8338 49.2396 14.7635 49.2602 14.7031 49.2989C14.6426 49.3376 14.5945 49.3928 14.5645 49.458C14.1045 50.5618 13.338 53.0378 12.9777 54.2642C11.7052 54.3332 8.6467 54.4329 7.61186 54.6092C7.3819 54.6858 7.1136 55.1458 7.3359 55.3757L10.6167 58.3499C10.2795 59.8371 9.96517 61.3472 9.67388 62.8496C9.62022 63.1332 9.96517 63.4475 10.2411 63.2789C11.7052 62.405 13.1464 61.4851 14.5875 60.5806C15.8599 61.6078 17.2014 62.5813 18.5505 63.5625ZM11.2146 58.0433C10.259 57.0593 9.23431 56.1448 8.14845 55.3067L13.1234 55.0844C13.6216 55.0844 14.7638 51.1444 14.9784 50.5388C15.354 51.704 16.0056 53.7046 16.2432 54.4712C16.4808 55.2377 16.1742 55.1151 17.0481 55.2377L20.8808 55.8663L17.5847 58.097C17.2704 58.3116 18.1673 61.9297 18.2746 62.4893L14.7331 59.906C14.3422 59.6224 10.9004 62.0447 10.3791 62.3897C10.6321 61.3931 11.4983 58.9632 11.2146 58.0433ZM44.2223 105.018C43.5707 105.079 40.2746 105.286 39.7073 105.431L37.8063 102.273C37.6683 102.013 37.193 100.656 36.6641 100.84C36.5415 100.84 36.4648 100.939 36.3958 101.254C36.2655 101.79 36.1505 103.055 35.8132 106.229C34.2801 106.604 32.7854 106.995 31.2906 107.47C31.0683 107.539 30.8383 108.061 31.0913 108.237C32.3952 109.089 33.7639 109.837 35.1847 110.475C34.924 111.587 34.8091 112.729 34.6327 113.848C34.5024 114.722 34.1498 116.071 35.6369 114.921C36.7397 114.07 37.7656 113.123 38.7031 112.093C39.7916 112.606 42.2063 113.749 43.2411 114.078C43.3408 114.116 44.0077 114.155 43.8927 113.718C43.2599 112.207 42.4902 110.757 41.593 109.387C42.5531 108.332 43.4564 107.226 44.2989 106.075C44.6669 105.669 44.8585 104.964 44.2223 105.018ZM41.0028 109.517L42.8578 113.105C42.3596 112.898 38.6725 111.188 38.5115 111.303C37.446 112.353 36.4648 113.296 35.3226 114.277C35.43 113.565 36.0892 110.13 35.7979 109.939C34.4871 109.303 33.2223 108.666 31.9652 107.969C32.5477 107.831 36.3115 107.072 36.4418 106.666C36.6948 105.861 36.9094 103.408 37.0474 102.419C37.6855 103.657 38.4566 104.821 39.347 105.891C39.6843 106.305 43.0495 105.891 43.678 105.807C43.2334 106.298 40.7268 109.011 41.0028 109.517ZM127.393 38.4503C128.683 39.1162 130.04 39.6454 131.44 40.0294L131.87 44.7054C131.908 45.0273 132.468 45.0886 132.59 44.8817L135.288 40.6273C136.96 40.9416 138.608 41.3479 140.263 41.7541C140.808 41.8845 141.252 41.4475 140.639 40.6733C139.642 39.5118 138.728 38.2824 137.902 36.9939C138.079 36.6796 140.003 33.3757 140.056 32.9848C140.052 32.8596 140.006 32.7394 139.925 32.6435C139.845 32.5476 139.734 32.4816 139.612 32.4559C139.512 32.4559 135.779 33.943 135.403 34.0886C134.966 33.7207 131.985 30.9458 131.854 30.6698C131.586 30.1486 131.141 30.1026 131.088 30.5855L130.996 35.6141L127.401 37.4691C127.155 37.5994 127.148 38.3277 127.393 38.4503ZM131.663 35.9207C131.816 35.0162 131.801 32.8008 131.824 31.6893C132.799 32.8122 133.88 33.839 135.051 34.7555C135.419 35.0392 138.339 33.759 139.029 33.4677L137.297 36.7102C137.297 37.8831 139.037 40.0217 139.834 40.8726C139.229 40.7116 135.135 39.5695 134.867 39.9757C134.1 41.2482 133.211 42.6203 132.437 43.8928L132.238 40.8266C132.123 39.1172 131.985 39.4622 130.75 39.0252L127.861 37.952C128.55 37.7144 131.571 36.4573 131.663 35.9207ZM113.917 109.992C113.917 109.601 111.717 106.597 111.341 106.16C111.472 105.945 113.388 102.235 113.503 101.829C113.695 101.062 113.212 100.939 112.844 101.062C111.41 101.614 110.146 101.928 108.72 102.381C107.56 100.847 106.405 99.3144 105.255 97.7813C104.803 97.2447 104.488 98.4405 104.488 98.7701C104.389 100.188 104.144 102.373 104.182 103.638L99.8125 105.684C99.3986 105.891 99.8125 106.367 99.9505 106.451L104.006 107.938C104.006 109.471 103.722 111.771 103.86 113.128C103.86 113.381 104.396 113.549 104.557 113.358C105.769 111.955 106.934 110.514 108.099 109.065C109.892 109.724 111.728 110.259 113.595 110.667C114.047 110.774 114.285 110.169 113.917 109.992ZM107.739 108.329C106.665 109.647 105.6 110.981 104.565 112.338C104.603 111.625 104.91 107.892 104.741 107.432C104.649 107.187 101.254 106.206 100.763 106.045C101.154 105.884 104.488 104.473 104.772 104.22C105.056 103.967 105.217 99.5827 105.263 98.9158L108.26 103.093C108.605 103.431 111.939 102.235 112.599 101.974C111.98 103.318 111.357 104.655 110.728 105.983C110.56 106.497 112.56 109.18 112.928 109.724C112.315 109.563 107.884 108.145 107.739 108.329ZM145.79 66.1381L142.946 62.6426C143.406 61.6154 144.479 58.5033 144.625 57.959C144.634 57.8617 144.608 57.7645 144.552 57.6845C144.495 57.6046 144.413 57.547 144.318 57.5221C144.004 57.4148 140.616 58.9402 140.11 59.1395C138.996 57.9244 137.954 56.6446 136.99 55.3067C136.73 54.9158 136.346 55.3834 136.277 55.552C136.208 55.7207 136.017 60.2893 135.978 60.9179L130.919 62.8573C130.574 63.0029 130.743 63.6928 130.965 63.7541L135.879 65.0573V70.1625C135.879 70.5074 136.124 71.6956 136.607 71.1437C137.826 69.5186 139.152 67.7938 140.363 66.1611C143.651 66.5367 144.801 67.0273 145.729 66.805C145.805 66.7934 145.875 66.7566 145.928 66.7006C145.981 66.6445 146.013 66.5723 146.021 66.4955C146.028 66.4188 146.009 66.3419 145.967 66.2771C145.925 66.2123 145.863 66.1634 145.79 66.1381ZM139.987 65.4789C138.914 66.9583 137.741 68.5451 136.668 70.0092C136.668 68.9283 136.615 65.5862 136.484 64.9576C137.067 64.1911 132.238 63.4245 131.678 63.2789C132.268 63.0642 136.484 61.7458 136.553 61.3472C136.806 59.7258 136.952 58.0895 136.99 56.4489C137.35 56.9855 139.351 59.9367 139.957 59.7374C140.294 59.998 143.023 58.8022 143.667 58.4879C143.498 59.0322 142.134 62.589 142.356 62.9339C143.123 63.9534 143.996 65.0496 144.771 66.0691C144.004 66.0691 140.171 65.3026 139.972 65.4789H139.987ZM136.875 90.0008C137.151 89.5102 138.738 86.766 138.815 86.4133C138.8 86.3279 138.768 86.2462 138.721 86.1731C138.675 86.1 138.614 86.037 138.542 85.9877C138.471 85.9384 138.391 85.9039 138.306 85.8862C138.221 85.8685 138.133 85.8679 138.048 85.8844C136.638 86.3443 135.258 86.7736 133.84 87.2029C132.475 85.8998 131.072 84.5966 129.662 83.3241C129.615 83.2837 129.56 83.2543 129.5 83.2384C129.441 83.2224 129.378 83.2203 129.318 83.2321C129.257 83.2439 129.2 83.2694 129.151 83.3066C129.102 83.3438 129.061 83.3918 129.033 83.4468C128.849 83.8991 129.302 88.4064 129.409 89.1576L124.672 91.5492C124.549 91.6182 124.158 92.2085 124.572 92.3158L130.191 93.1896C130.239 95.1937 130.496 97.1873 130.957 99.1381C131.134 99.4753 131.77 99.2837 131.885 99.0844L134.783 93.7722C136.116 94.0482 137.849 94.3855 139.183 94.6614C139.995 94.8531 140.585 94.4544 140.033 93.8949C138.968 92.6147 137.879 91.3346 136.875 90.0008ZM134.576 93.1513C134.131 93.2893 131.985 97.7046 131.655 98.3485C131.532 97.6356 130.965 92.6301 130.628 92.4997C130.291 92.3694 126.082 91.8788 125.638 91.8405C126.197 91.5799 130.13 89.9318 130.137 89.4489C130.137 87.7395 129.93 86.0684 129.877 84.3666C131.083 85.5676 132.296 86.7532 133.518 87.9234C133.855 88.2684 137.243 87.0189 137.81 86.8043C137.297 87.7931 136.277 89.1959 136.277 90.2844C137.126 91.5298 138.053 92.7204 139.052 93.8489C138.293 93.6802 134.959 92.9597 134.545 93.1513H134.576ZM88.0996 144.112C88.023 143.529 88.0996 140.463 88 139.988C88.7216 140.007 89.4428 139.935 90.1463 139.773C90.4453 139.528 91.9017 97.1297 91.5414 89.8551C88.5289 91.5952 80.1581 96.0565 76.2104 95.3743C73.7191 94.945 69.1658 91.7485 67.4947 90.0774C66.2069 88.782 66.1993 86.8579 66.3296 85.1562L62.4968 85.0412C62.3156 86.813 61.6464 88.4998 60.5638 89.9139C59.4812 91.3281 58.0275 92.4143 56.3644 93.0517C53.8578 108.038 51.6732 124.089 51.1596 139.811C51.1596 139.988 52.1561 140.049 52.938 140.072C52.8766 140.57 52.478 143.636 52.5547 143.905C50.9526 144.61 45.8014 146.879 45.6557 148.864C45.5408 150.083 59.0704 149.27 59.1394 148.864C59.262 148.259 59.1394 145.146 58.7331 144.648C59.0397 143.115 59.3387 141.582 59.6376 140.049C61.0557 139.988 62.1596 140.049 62.2132 139.788C64.6049 130.183 68.9205 121.261 71.5881 111.709C71.0132 108.137 70.3846 103.983 69.9324 100.403C68.9358 99.9566 68.0252 99.3392 67.2418 98.5785C66.5366 97.8963 67.5331 97.605 68.1157 97.9422C69.7177 98.8774 70.9979 99.2684 71.0439 99.5903C72.577 109.18 77.6132 131.548 79.8055 139.742C79.8592 139.934 80.7254 139.919 81.6146 139.98C81.8062 141.383 82.0132 142.862 82.2738 144.257C81.9059 144.334 81.5073 148.22 81.8676 148.489C82.6341 149.033 94.1324 149.776 94.3777 149.109C94.623 148.443 91.7791 145.821 88.0996 144.112ZM58.3498 144.479C56.5407 144.28 54.6474 144.579 52.9073 143.943C53.1584 142.663 53.3426 141.371 53.4592 140.072H59.1087C58.711 141.512 58.4568 142.989 58.3498 144.479ZM82.6571 144.25C82.5191 142.824 82.3275 141.413 82.1205 139.995C83.9663 140.103 85.8168 140.103 87.6627 139.995C87.5172 141.358 87.5172 142.733 87.6627 144.096C86.0012 144.285 84.327 144.336 82.6571 144.25Z" fill="black"/>
<path fill-rule="evenodd" clip-rule="evenodd" d="M114.982 6.61542C114.883 5.74922 114.3 6.0635 114.063 6.38546C106.98 15.6837 99.8584 24.9436 92.8674 34.3032C85.1789 24.6063 74.6772 12.5332 65.6166 3.9095C65.4173 3.72553 64.965 3.9095 64.8884 4.1318C61.1706 15.3848 57.6521 28.0405 54.7316 39.6154C45.2647 34.5178 32.5016 28.8837 22.3832 24.6523C22.1532 24.5604 21.2717 24.4377 21.402 24.9973C27.4501 52.2481 36.2731 81.1624 39.3776 89.8014C39.5922 90.4147 39.7685 90.4837 40.3971 90.3993C44.9197 89.8781 49.5957 88.9582 54.1183 88.207L54.3023 90.6906C54.448 92.6837 56.0117 91.7178 57.1155 90.9666C58.8774 89.9357 60.1838 88.276 60.772 86.3213C61.4619 83.9296 61.3776 72.6844 61.5385 69.5108C62.0905 69.7791 63.3246 68.6906 62.9797 67.4412C63.2292 67.2122 63.3922 66.9042 63.4411 66.569C63.4899 66.2339 63.4217 65.8921 63.2479 65.6014C64.5128 64.5436 63.3016 63.0028 62.1288 62.4433C62.742 56.8781 64.2828 48.2774 66.0305 44.5903L66.4675 44.414C66.4266 45.3148 66.4625 46.2175 66.5748 47.1123C66.5819 47.1982 66.6108 47.2808 66.6588 47.3524C66.7068 47.424 66.7723 47.4821 66.8491 47.5213C66.9259 47.5605 67.0114 47.5794 67.0976 47.5762C67.1837 47.573 67.2676 47.5479 67.3413 47.5032C68.0258 47.0406 68.6812 46.5363 69.3037 45.9931C69.2284 45.3752 69.2104 44.7516 69.25 44.1304C68.5666 43.5045 67.791 42.9874 66.9504 42.5973C66.4291 42.3826 66.4981 43.5325 66.4828 43.7778C56.9162 47.5262 46.8591 56.6711 44.0229 66.8203C42.6891 71.5959 43.1643 82.7262 50.9218 81.4384C53.919 80.9324 56.9852 77.3297 58.7636 74.4858C60.0131 72.4774 60.5497 74.0335 59.6835 75.4209C58.1728 77.7336 56.3402 79.8192 54.241 81.6147C54.0826 83.5267 54.0391 85.4465 54.1107 87.3638C49.5114 88.1303 44.7818 89.0425 40.1288 89.7554C38.0821 82.8565 30.6849 61.623 22.3525 25.3652C32.1184 29.5583 44.7204 35.5067 54.1107 40.2363C55.1378 40.7576 55.1378 40.8802 55.4061 39.8454C58.4723 28.4238 61.8375 15.814 65.5323 4.79103C74.9838 14.6335 83.8528 24.3074 92.3615 35.0468C92.5072 35.2307 92.9211 35.4377 93.1281 35.1847C100.303 25.9401 107.348 16.5959 114.438 7.28232C116.692 29.5736 118.171 52.7004 117.911 75.6969C112.851 76.719 107.79 77.7078 102.725 78.6635C106.773 71.8105 102.687 62.4586 98.4556 56.6481C93.331 49.5963 85.8452 44.6185 77.3601 42.6203C77.3601 40.129 77.1992 37.768 78.5023 35.5144C78.8932 34.8321 79.5065 34.2189 79.3762 33.3833C81.0856 31.9882 81.9748 29.4203 82.3887 27.3276C83.0939 23.7785 80.0891 24.545 78.096 25.0816C75.5434 25.7638 71.2661 24.775 68.8208 24.0851C67.349 23.6712 63.6542 22.7206 63.1253 24.9436C62.6884 26.745 65.2716 28.4084 66.7051 28.899C65.4709 33.0767 64.4054 41.2865 68.6981 42.191C68.6981 42.4516 68.6445 42.7123 68.6215 42.9576C68.8054 43.0342 68.9817 43.1185 69.1427 43.2029C69.1427 42.9039 69.25 41.7694 68.8668 41.6698C66.0459 40.7499 66.0305 37.0705 66.1992 34.6712C66.3459 32.7678 66.6276 30.8774 67.0424 29.014C68.8972 29.4823 70.8534 29.3426 72.6229 28.6154C73.696 28.2091 76.218 26.5994 77.3371 27.5116C78.2953 28.2781 75.9344 29.198 76.2486 32.3868C76.4556 34.5178 77.6131 32.7088 78.487 32.9771C78.6025 33.0191 78.7019 33.0966 78.7707 33.1985C78.8396 33.3004 78.8744 33.4214 78.8702 33.5443C78.9392 34.7555 76.4096 35.614 76.7852 42.3673C76.103 42.1833 73.811 43.8391 73.2591 44.2377C73.3411 44.8984 73.323 45.5677 73.2054 46.2231C74.3093 46.9053 76.2256 47.7102 76.4249 47.5875C76.7699 47.3806 77.3755 44.4217 77.2682 43.2105C78.1037 43.4022 78.9316 43.6321 79.7441 43.8927C77.1378 46.9589 71.6877 57.8976 70.9518 62.2899C70.4082 62.237 69.8605 62.3332 69.3676 62.5683C68.8746 62.8033 68.455 63.1682 68.1539 63.6237C67.2877 65.0265 66.6974 67.8704 67.8396 69.1966C68.2152 69.5727 68.6874 69.838 69.204 69.9631C68.258 75.2316 67.7122 80.5641 67.5713 85.915C67.5713 87.2258 67.625 88.2147 68.8054 89.2955C70.4612 90.8286 74.1713 93.5652 76.3483 93.8948C79.6291 94.4544 88.8354 90.1387 92.0549 87.7624C92.3741 87.4546 92.568 87.0396 92.5992 86.5972C92.7023 85.8659 92.7203 85.1251 92.6528 84.3896C85.4266 83.4155 78.6969 80.1701 73.4354 75.122C72.6688 74.3554 73.3204 73.4739 74.156 74.2328C80.8173 80.2732 94.7608 87.5478 102.035 79.5986C107.483 78.5766 112.928 77.5136 118.371 76.4098C118.739 76.3408 118.677 75.9115 118.677 75.5896C118.817 52.5452 117.583 29.513 114.982 6.61542ZM58.549 54.8391C58.6333 54.4635 59.7678 53.5053 60.2661 53.1067C59.8061 52.8077 58.8633 52.1255 58.9476 51.6809C59.1086 50.8454 61.3699 47.7408 61.9295 47.0203C62.3051 46.545 63.087 47.1506 62.696 47.6335C61.7544 48.8737 60.9331 50.2007 60.2431 51.5966C61.3392 52.6238 61.7302 52.5548 61.7762 52.984C61.7762 53.6586 60.3197 54.5171 59.6988 55.0844C59.7755 56.7044 59.8547 58.3269 59.9365 59.952C59.9365 60.5959 59.0013 60.6035 58.9476 59.952C58.8939 59.3004 58.434 55.3373 58.549 54.8391ZM61.1093 62.1596C60.5044 62.0703 59.8875 62.1121 59.3002 62.2823C59.9136 61.5417 60.3442 60.6673 60.5574 59.7297C60.772 58.9631 61.2166 59.0858 61.3239 59.6683C61.4216 60.5047 61.3486 61.3523 61.1093 62.1596ZM61.9218 62.9262C62.8953 63.4014 63.6006 64.191 62.972 65.2642C62.6654 64.9039 61.6765 63.9534 61.1859 64.214C61.1597 64.2284 61.1371 64.2484 61.1197 64.2727C61.1023 64.297 61.0906 64.325 61.0854 64.3544C61.0803 64.3838 61.0818 64.4141 61.0899 64.4428C61.098 64.4716 61.1125 64.4982 61.1323 64.5206C61.2549 64.6586 63.6389 65.6398 62.7497 66.9966C62.5274 66.6133 61.7455 65.9157 61.2856 66.0154C61.2605 66.019 61.2364 66.0278 61.2148 66.0411C61.1933 66.0545 61.1747 66.0722 61.1603 66.093C61.146 66.1139 61.136 66.1375 61.1312 66.1624C61.1264 66.1873 61.1267 66.2129 61.1323 66.2377C61.2243 66.6899 62.3817 66.6363 62.5121 67.7708C62.5418 68.0648 62.4676 68.36 62.3023 68.6051C62.1371 68.8501 61.8913 69.0296 61.6075 69.1122C62.0061 68.3457 60.9253 67.7478 60.3121 68.3457C60.2277 68.4223 60.2277 68.6523 60.588 68.545C60.6983 68.5143 60.815 68.5143 60.9253 68.545C60.1588 70.6837 57.5755 69.4265 57.0926 67.4258C56.8019 66.1417 57.0218 64.7948 57.7058 63.6697C59.2082 62.8035 60.1511 62.0906 61.9218 62.9568V62.9262ZM47.5797 65.9924C47.487 66.0333 47.3829 66.0401 47.2857 66.0116C47.1886 65.9831 47.1046 65.9212 47.0486 65.8369C46.9927 65.7525 46.9683 65.651 46.98 65.5504C46.9916 65.4498 47.0384 65.3566 47.1121 65.2872C49.2373 63.7423 51.6552 62.6468 54.218 62.0676C54.7403 59.9745 55.4219 57.9244 56.257 55.9352C56.4487 55.4677 57.2229 55.7819 57.0236 56.2419C56.3324 58.0862 55.7614 59.9733 55.3142 61.8913C55.6566 61.8556 55.9938 61.8326 56.326 61.8224C56.7476 61.8224 56.9086 62.4816 56.4563 62.5889C53.2819 63.0844 50.2531 64.264 47.5797 66.046V65.9924ZM59.1852 72.5694C55.2912 71.9331 52.8765 67.4488 56.2034 63.6621L57.3072 63.6237C56.234 64.9422 56.119 68.1311 57.8361 69.5492C58.1308 69.7974 58.4766 69.9776 58.8489 70.077C59.2213 70.1764 59.6109 70.1925 59.9901 70.1241C59.8261 70.9871 59.5557 71.8265 59.1852 72.623V72.5694ZM74.2096 60.9868C74.8842 60.0593 77.4904 56.3875 78.165 55.621C77.8201 55.276 76.9845 54.3715 77.0995 53.8196C77.1161 53.733 77.1564 53.6527 77.216 53.5878C77.2755 53.5228 77.352 53.4756 77.4368 53.4516L79.8974 52.5011L81.4305 46.5527C81.4403 46.4885 81.4634 46.427 81.4982 46.3723C81.5331 46.3175 81.5789 46.2705 81.6329 46.2345C81.6869 46.1984 81.7478 46.1739 81.8118 46.1627C81.8757 46.1515 81.9413 46.1536 82.0044 46.1691C82.0674 46.1846 82.1265 46.2131 82.178 46.2527C82.2294 46.2923 82.2721 46.3422 82.3032 46.3992C82.3343 46.4562 82.3532 46.519 82.3587 46.5837C82.3642 46.6484 82.3561 46.7136 82.335 46.775C82.0974 47.7868 81.2849 52.8154 80.6256 53.3213C79.9519 53.7172 79.2235 54.0116 78.464 54.1952C79.0465 54.7164 79.6981 55.253 79.2765 55.9659C79.0772 56.3262 75.5511 60.9102 74.9915 61.6154C74.6312 62.0906 73.857 61.5234 74.2096 61.0405V60.9868ZM71.864 60.5575C73.3434 57.9359 73.2668 60.2433 73.1364 61.5311C73.102 61.9266 73.157 62.3248 73.2974 62.6962C72.6761 62.436 72.0152 62.2831 71.3427 62.2439C71.3964 61.6515 71.574 61.077 71.864 60.5575ZM68.2229 68.8056C67.2033 67.8934 67.9162 64.9192 68.6598 63.8154C69.595 62.4509 71.6033 62.4509 72.9755 63.0488C71.9358 63.7989 71.1406 64.839 70.6893 66.0389C70.2379 67.2388 70.1506 68.5452 70.4382 69.7945C69.6438 69.608 68.8921 69.2725 68.2229 68.8056ZM73.2131 72.5311L70.9135 70.2314C70.1469 66.7589 71.7873 63.961 73.9337 63.1178C74.6542 63.1715 75.4668 63.1178 76.1873 63.1178C74.2096 65.5324 72.5462 69.3192 73.1748 72.5311H73.2131ZM95.8187 66.8816C90.3837 64.1253 84.3739 62.6937 78.28 62.7039C77.7434 62.7039 77.7894 61.9373 78.28 61.8837C80.5454 61.7799 82.8155 61.9032 85.0563 62.2516C84.9796 61.968 84.6347 60.6725 84.535 60.3122C84.4923 60.2106 84.4918 60.0961 84.5335 59.9941C84.5752 59.892 84.6557 59.8107 84.7573 59.768C84.859 59.7253 84.9734 59.7247 85.0755 59.7664C85.1776 59.8081 85.2589 59.8886 85.3016 59.9903C85.6716 60.7846 85.9693 61.6108 86.1908 62.4586C89.7138 63.1342 93.0882 64.4321 96.1559 66.2913C96.6389 66.506 96.2403 67.0886 95.8187 66.8816Z" fill="black"/>
</svg>
