<svg width="154" height="154" viewBox="0 0 154 154" fill="none" xmlns="http://www.w3.org/2000/svg">
<path d="M53.7502 64.7506C53.6595 64.8102 53.5958 64.903 53.5728 65.0091C53.5499 65.1152 53.5695 65.2261 53.6276 65.3178C53.6584 65.3609 53.6979 65.3971 53.7434 65.4241C53.789 65.4512 53.8396 65.4685 53.8922 65.475C53.9448 65.4815 53.9982 65.477 54.0489 65.4618C54.0997 65.4466 54.1468 65.4211 54.1871 65.3868C54.2573 65.3252 54.3045 65.2417 54.3212 65.1499C54.3379 65.058 54.3231 64.9632 54.2791 64.8809C54.2547 64.8358 54.2212 64.7962 54.1806 64.7649C54.14 64.7335 54.0933 64.7109 54.0435 64.6987C53.9937 64.6864 53.9419 64.6847 53.8914 64.6936C53.8409 64.7025 53.7928 64.722 53.7502 64.7506ZM96.861 20.375C98.3276 21.2948 99.7841 22.2275 101.23 23.1729C100.879 23.4902 100.543 23.8253 100.226 24.1771C99.7585 23.8628 99.291 23.5562 98.8157 23.2572C98.7988 23.2507 98.7801 23.2505 98.763 23.2565C98.7459 23.2625 98.7314 23.2743 98.7222 23.29C98.7131 23.3056 98.7097 23.3239 98.7128 23.3418C98.7158 23.3597 98.7251 23.3759 98.739 23.3875L100.103 24.3074C99.6359 24.8363 99.199 25.3959 98.7927 25.9555C98.7467 26.0245 98.854 26.0858 98.9 26.0245C99.3234 25.4642 99.7763 24.9268 100.257 24.4147C100.962 24.9053 101.652 25.4036 102.342 25.9018C101.832 26.5165 101.363 27.1644 100.939 27.8412L99.7739 26.8293C99.7049 26.7757 99.6129 26.8293 99.6742 26.9213C100.057 27.2816 100.441 27.6419 100.832 27.9945C100.457 28.6087 100.116 29.2433 99.8122 29.8955C99.8122 29.9645 99.8812 30.0259 99.9195 29.9569C100.227 29.3274 100.57 28.7157 100.947 28.1248C101.675 28.807 102.411 29.4893 103.154 30.1562C102.454 31.2461 101.857 32.3982 101.368 33.598C101.368 33.6516 101.437 33.6746 101.46 33.598C101.951 32.4186 102.555 31.2891 103.262 30.2252C103.967 30.8614 104.687 31.49 105.408 32.1032C104.345 33.3035 103.457 34.6481 102.771 36.0969C102.771 36.1429 102.817 36.1889 102.848 36.1429C103.631 34.7616 104.548 33.46 105.584 32.2565L106.351 32.9081C106.435 32.9771 106.558 32.8621 106.474 32.7778L105.707 32.0649C105.914 31.8349 107.24 30.5318 107.738 30.1562L109.072 31.283C109.141 31.3443 109.241 31.2447 109.172 31.1833C108.758 30.7924 108.336 30.4168 107.907 30.0258C108.49 29.5736 109.103 29.152 109.724 28.7534L110.36 29.1673C110.421 29.2056 110.483 29.106 110.421 29.06L109.862 28.6614C110.276 28.4008 110.705 28.1478 111.134 27.8948C111.211 27.8565 111.134 27.7569 111.073 27.7952C110.591 28.023 110.122 28.279 109.67 28.5617C108.712 27.8872 107.754 27.2203 106.78 26.5687C107.589 26.0182 108.482 25.6038 109.425 25.3422C109.445 25.3361 109.462 25.3222 109.472 25.3035C109.482 25.2848 109.485 25.2629 109.478 25.2426C109.472 25.2222 109.458 25.2052 109.44 25.1951C109.421 25.185 109.399 25.1828 109.379 25.1889C108.375 25.4247 107.426 25.8487 106.581 26.4384C105.661 25.8175 104.726 25.2043 103.791 24.5987C104.296 24.1285 104.914 23.7959 105.584 23.6328C105.653 23.6328 105.638 23.4948 105.584 23.5025C104.849 23.6262 104.168 23.968 103.63 24.4837L101.483 23.1269L101.675 22.9353C101.736 22.8816 101.675 22.7973 101.591 22.8509C101.508 22.9132 101.429 22.9797 101.353 23.0502C99.8735 22.1151 98.3788 21.1952 96.884 20.2907C96.861 20.2447 96.7997 20.3367 96.861 20.375ZM101.062 27.9408C101.414 27.3966 102.395 26.1318 102.495 26.0091C103.323 26.6224 104.136 27.2433 104.94 27.8718C104.344 28.499 103.803 29.176 103.323 29.8955C102.579 29.2286 101.821 28.5847 101.062 27.9408ZM105.584 31.9269C104.879 31.2677 104.166 30.6238 103.438 29.9875C103.931 29.2762 104.485 28.6093 105.094 27.9945C105.937 28.6614 106.772 29.336 107.6 30.0258C106.879 30.6053 106.205 31.2409 105.584 31.9269ZM109.57 28.6384C108.943 29.0177 108.341 29.4376 107.769 29.8955C106.956 29.1826 106.129 28.4928 105.278 27.8182C105.696 27.4169 106.145 27.0479 106.619 26.7144L109.57 28.6384ZM106.42 26.5764C105.958 26.9109 105.525 27.2827 105.124 27.6879C104.312 27.0516 103.484 26.4307 102.648 25.8328C102.959 25.4532 103.294 25.0947 103.653 24.7597L106.42 26.5764ZM103.484 24.6447C103.134 24.9862 102.804 25.3471 102.495 25.7255C101.798 25.2272 101.092 24.7443 100.387 24.2767C100.709 23.9318 101.039 23.6022 101.368 23.2649L103.484 24.6447Z" fill="black"/>
<path d="M98.5092 135.526C97.413 135.265 95.7803 135.725 94.8068 135.58C94.3852 135.559 93.9831 135.396 93.6658 135.118C93.3485 134.839 93.1346 134.462 93.059 134.047C92.871 131.633 92.45 129.243 91.8019 126.91L91.4723 126.987C91.3956 126.703 91.5259 124.84 89.1726 113.143C88.2758 108.628 87.5322 104.044 84.5043 100.387C84.8799 99.7895 85.2709 99.1916 85.6005 98.586C85.7615 98.3101 86.0758 97.9498 86.0758 97.6048C86.0758 97.0452 84.6193 94.3853 84.1671 93.7261C83.2472 92.3846 82.9252 92.3999 82.0284 93.1818L74.8918 85.731C75.6998 83.6463 76.2382 81.467 76.4939 79.2459C80.7022 79.3993 141.819 78.8703 143.996 78.832C145.184 78.832 146.595 78.832 147.614 78.0655C147.802 77.9284 147.953 77.7464 148.052 77.5361C148.151 77.3259 148.195 77.094 148.182 76.862C148.274 75.9881 148.557 28.646 148.511 28.0328C148.435 26.9059 148.205 25.7331 147.039 25.4188C144.019 24.6523 116.431 25.0049 114.292 25.0585C113.587 24.7596 112.959 24.476 112.483 24.2307C103.132 19.3401 102.327 19.0028 99.797 17.5617C98.2179 16.6572 96.5622 15.1624 94.7224 14.8711C94.0679 14.714 93.3778 14.8226 92.8031 15.1731C92.2284 15.5236 91.8161 16.0876 91.6562 16.7415C91.2576 18.5505 91.9322 20.8042 92.3845 22.5366C92.5684 23.2418 92.8137 24.0697 93.151 24.9666C83.9524 25.4725 78.8472 25.0355 74.2172 25.2808C74.2146 24.6152 74.0232 23.964 73.6653 23.4028C71.634 20.1373 66.5441 22.7129 66.5364 22.7052C65.9859 22.1255 65.3102 21.6791 64.561 21.4001C63.8117 21.1212 63.0087 21.017 62.2131 21.0955C60.4153 21.2511 58.6858 21.8574 57.1845 22.8585C54.5782 24.8056 53.3517 28.5693 54.8005 31.5819C54.8005 31.5819 53.3134 33.7589 53.1448 35.0543C52.7845 37.7603 54.9768 40.0139 57.8437 38.4732C57.6904 38.8718 58.0124 39.0404 57.9204 39.3164C57.8744 39.4543 57.7211 39.5233 57.6444 39.646C57.2688 40.2286 58.7866 40.8495 57.5448 41.6927C57.2488 41.8373 56.9874 42.0438 56.7782 42.2982C56.7124 42.388 56.6725 42.4941 56.6631 42.605C56.6536 42.7159 56.6749 42.8272 56.7246 42.9268C56.8702 43.2641 57.1002 43.1491 57.2918 43.2104C57.8974 43.3867 57.2918 44.5212 57.7824 44.8892C57.9894 45.0425 58.319 44.9965 58.4646 45.2035C58.6103 45.4104 58.4186 45.7477 58.1963 45.924C57.7211 46.3073 57.5678 46.5296 57.9587 46.9742L59.4535 48.6453C59.2312 49.0362 58.5029 48.7373 58.3036 49.2585C58.2664 49.3725 58.2618 49.4946 58.2902 49.6111C58.3187 49.7275 58.3791 49.8338 58.4646 49.9178C58.7848 50.1809 59.1932 50.3125 59.6068 50.2857V49.9178L60.5573 49.3735C61.3239 49.8104 60.404 51.2132 61.1322 51.5582C61.1322 51.7728 60.8179 51.7651 60.6263 51.8725C60.2584 52.0871 60.4883 52.8306 61.2855 52.639C61.6103 52.5581 61.8953 52.3637 62.0893 52.091C62.2833 51.8183 62.3734 51.4852 62.3434 51.1519C62.8953 51.2132 62.788 52.0564 63.2249 52.4474V52.5623C62.5958 52.5224 61.9665 52.6383 61.3928 52.8996C60.4046 53.1788 59.4322 53.5115 58.48 53.8961C53.3517 55.9658 53.2214 56.9623 49.2814 61.5157C48.4436 62.4824 47.6752 63.507 46.9817 64.5819C46.9357 64.6585 46.8591 64.5819 48.7064 66.1763C48.1361 66.7335 47.6436 67.3652 47.2423 68.0543C39.0939 67.9087 7.81866 67.763 6.85281 67.786C5.17407 67.786 4.3002 68.2613 4.12389 70.0244C3.95525 71.6648 3.74062 90.0466 3.8786 94.3853C3.94759 96.5776 4.08557 98.7776 4.12389 100.97C4.16222 103.162 3.93992 106.336 5.22772 107.585C6.22424 108.528 7.9873 108.306 9.22912 108.352C13.2075 108.352 17.1476 108.352 21.1183 108.153C20.6255 109.403 20.2957 110.712 20.1371 112.047C19.0915 115.7 19.0201 119.564 19.9302 123.254C17.1859 122.15 11.7894 120.264 11.4061 120.877C12.5232 124.503 14.5375 127.788 17.2626 130.428C13.6317 129.856 9.91309 130.315 6.53086 131.755C10.7775 134.353 17.3775 138.692 22.5211 136.4C16.1894 138.086 11.5901 134.384 6.73016 131.801C10.1804 130.39 13.96 129.986 17.6305 130.635C18.0644 130.814 18.4846 131.024 18.8876 131.264C18.9336 131.264 18.995 131.18 18.811 131.057C14.9782 129.003 13.1309 124.649 11.5901 120.87C16.2814 121.636 21.0876 123.507 24.5371 126.511C23.5406 125.047 20.0451 123.346 20.1525 123.3C19.1866 118.501 19.7998 115.588 20.2138 112.683C20.6047 114.484 22.4214 113.764 22.4214 113.764C23.3285 112.235 24.6245 110.973 26.1775 110.107L27.2354 110.989C29.2824 114.354 30.7588 118.035 31.6047 121.881C31.0951 122.669 30.6662 123.507 30.3246 124.38C30.2403 124.771 30.4396 124.564 30.4779 124.488C31.8577 121.598 34.4563 118.102 36.3113 117.029C38.0848 118.118 39.9681 119.018 41.9301 119.712C41.2096 122.84 39.1859 128.688 39.1859 128.688C39.1859 128.688 39.3929 128.842 44.1608 128.022C43.3716 129.494 42.2811 130.784 40.9604 131.808C39.6397 132.831 38.1184 133.565 36.4953 133.962C36.3803 133.962 36.3803 134.146 36.4953 134.139C39.143 134.137 41.7872 134.332 44.4061 134.721C44.4751 134.721 44.4981 134.606 44.4061 134.599C42.0223 134.157 39.6018 133.944 37.1775 133.962C40.1134 133.004 43.6242 131.08 44.4521 127.914C43.1336 127.416 41.1253 128.175 39.4695 128.389C40.7648 125.663 41.6483 122.759 42.0911 119.773C43.2723 120.151 44.495 120.382 45.7322 120.463C47.9827 120.731 50.255 120.188 52.1406 118.93C53.9853 117.701 55.5478 116.094 56.7246 114.216C57.5908 114.484 58.8786 115.35 59.9517 114.914C60.9086 114.364 61.6313 113.483 61.9831 112.438C62.2725 111.79 62.3107 111.058 62.0904 110.383C63.5162 108.666 64.2981 104.58 64.5587 103.4C64.9106 102.004 65.5655 100.703 66.477 99.5887C67.3885 98.4745 68.5341 97.5748 69.8326 96.9533C70.7294 96.7233 70.2235 97.2982 70.2235 97.2982C68.738 97.9729 67.4501 99.0169 66.4826 100.331C65.5151 101.644 64.9003 103.184 64.6967 104.803L69.5183 108.919C69.0737 109.617 68.5524 110.146 68.9817 111.088C69.6042 112.217 70.5105 113.163 71.611 113.833C71.9176 114.04 72.2165 114.3 72.5921 114.193C72.9678 114.086 74.0409 112.867 74.1866 112.714C74.7526 113.316 75.3823 113.856 76.0646 114.323C76.4632 114.645 77.1071 114.998 77.2681 115.435C77.3593 115.839 77.4233 116.249 77.4597 116.661C78.3489 121.069 81.5225 126.626 84.19 130.337C83.4925 130.758 83.2089 130.973 83.2089 130.973L90.1078 141.758C96.7308 140.823 99.4444 137.734 99.6667 136.875C99.7357 136.53 99.2451 135.679 98.5092 135.526ZM147.944 76.609C147.852 77.6132 147.614 77.9811 146.495 78.3031C144.809 78.786 79.7057 79.016 76.5629 78.9623C76.8465 77 77.0688 75.4209 77.2144 73.5505C77.912 74.0641 78.5406 74.7003 79.1998 75.2599C79.2091 75.2699 79.2204 75.2778 79.2329 75.2833C79.2455 75.2887 79.259 75.2915 79.2726 75.2915C79.2863 75.2915 79.2998 75.2887 79.3123 75.2833C79.3249 75.2778 79.3361 75.2699 79.3455 75.2599C79.6904 74.9456 80.02 74.6237 80.3496 74.294C81.7847 75.3631 83.3676 76.2178 85.0486 76.8313C85.7202 77.082 86.4352 77.1955 87.1514 77.1652C87.8677 77.135 88.5706 76.9615 89.2186 76.655C92.3194 75.112 94.7859 72.5371 96.1942 69.3728C103.208 69.2271 110.23 69.2348 117.236 68.8132C117.252 68.8143 117.269 68.812 117.284 68.8062C117.3 68.8004 117.314 68.7914 117.325 68.7798C117.337 68.7682 117.346 68.7542 117.352 68.7388C117.357 68.7234 117.36 68.707 117.359 68.6906C117.228 65.2794 117.259 61.6996 116.983 58.2885C127.408 57.9512 137.764 57.5909 148.189 57.3763C148.189 61.6843 148.143 74.5163 147.944 76.609ZM72.9678 51.0522C72.9081 51.0459 72.8478 51.0517 72.7905 51.0693C72.7332 51.0869 72.68 51.1159 72.6342 51.1546C72.5883 51.1932 72.5508 51.2408 72.5238 51.2943C72.4968 51.3479 72.481 51.4063 72.4772 51.4662C72.4772 51.7498 72.4312 52.0258 72.3928 52.4244C71.9385 52.944 71.521 53.4947 71.1434 54.0725C70.6925 55.0109 70.3282 55.9884 70.0549 56.993C69.8939 56.5637 69.135 54.2718 69.112 54.2411C68.1935 53.2925 67.1987 52.4209 66.1378 51.6348C66.1934 51.5816 66.2354 51.5159 66.2604 51.4432C66.6997 50.5422 66.8496 49.5275 66.6897 48.538C66.5364 47.8787 66.1071 47.0509 66.82 46.5756C66.8822 46.5243 66.962 46.4995 67.0423 46.5066C67.4869 46.5679 67.3183 47.4341 67.3183 47.7254C67.3183 49.4808 67.2646 49.9024 67.5482 50.2244C67.6035 50.2979 67.6799 50.3528 67.7671 50.3819C67.8544 50.4109 67.9485 50.4126 68.0368 50.3868C68.125 50.3609 68.2033 50.3088 68.2612 50.2374C68.3191 50.1659 68.3539 50.0785 68.3608 49.9867C68.5218 49.2662 68.0618 48.515 68.1921 47.7867C68.2995 47.1888 68.7977 46.5679 68.4911 46.039C68.4049 45.9334 68.328 45.8205 68.2611 45.7017C68.0312 45.1575 68.859 44.6362 68.7211 44.069C68.6291 43.6627 68.0848 43.4481 68.0925 43.0341C68.1227 42.8581 68.1906 42.6907 68.2918 42.5435C68.5132 42.1382 68.5681 41.6626 68.4451 41.2174C68.3682 41.0216 68.3241 40.8144 68.3148 40.6042C68.3148 40.3972 68.5064 40.1826 68.7134 40.2286C68.8116 40.2659 68.9025 40.3204 68.9817 40.3895C69.0581 40.4277 69.1421 40.4483 69.2275 40.4499C69.3129 40.4515 69.3976 40.434 69.4755 40.3988C69.5533 40.3636 69.6223 40.3114 69.6774 40.2462C69.7326 40.1809 69.7725 40.1042 69.7942 40.0216C69.7988 39.7928 69.7651 39.5648 69.6946 39.347C69.6455 39.0306 69.7183 38.7074 69.8982 38.4426C70.0781 38.1777 70.3518 37.991 70.664 37.92C70.9762 37.849 71.3037 37.899 71.5805 38.06C71.8572 38.221 72.0626 38.481 72.1552 38.7874C72.2625 39.1477 72.2089 39.554 72.4235 39.8606C72.6381 40.1672 72.8988 40.2286 73.1287 40.4279C73.5478 40.9705 73.7377 41.6557 73.6576 42.3366C73.6576 43.0111 73.9183 43.8237 74.5698 44C74.9148 43.6014 74.5698 42.9958 74.5698 42.4669C74.6379 41.8818 74.9092 41.3393 75.3364 40.9338C75.4514 40.7958 75.5893 40.6348 75.7963 40.6732C75.8619 40.6902 75.9229 40.7218 75.9746 40.7656C76.0263 40.8094 76.0676 40.8642 76.0953 40.9261C76.1644 41.1952 76.1644 41.4773 76.0953 41.7463C75.988 43.0341 77.0918 43.9233 76.9921 45.2111C76.9578 45.7798 76.8229 46.3378 76.5935 46.8592C75.4437 49.0899 75.0604 49.9791 74.4012 50.5617C74.0062 50.9068 73.4914 51.083 72.9678 51.0522ZM74.1789 53.6585C73.627 54.7547 73.2667 55.9582 72.6458 57.0313C72.2549 56.0578 71.3043 54.1261 71.2967 54.1184C71.542 53.8502 72.3852 52.8153 72.7378 52.386C72.9728 52.3655 73.2085 52.4177 73.4128 52.5356C73.6171 52.6536 73.7802 52.8315 73.8799 53.0453C73.9366 53.268 74.0383 53.4767 74.1789 53.6585ZM68.9894 54.3177C68.3899 55.2818 67.8522 56.2828 67.3796 57.315C66.682 56.5484 64.3134 53.4822 63.5469 52.5547C63.8151 52.6083 63.9378 52.3707 64.0451 52.2097C64.231 51.9368 64.5 51.7312 64.8121 51.6234C65.1243 51.5157 65.4629 51.5116 65.7775 51.6118H65.8848C66.5671 52.3324 68.5064 53.8808 68.9894 54.3177ZM76.7928 52.9533C76.9421 53.0241 77.1054 53.06 77.2706 53.0582C77.4357 53.0565 77.5983 53.0172 77.7461 52.9434C77.8938 52.8695 78.0228 52.763 78.1232 52.6319C78.2237 52.5008 78.293 52.3486 78.3259 52.1867C78.3539 51.7473 78.488 51.3211 78.7169 50.9449C79.6291 49.8258 82.4117 51.3819 81.6758 47.5644C81.6044 47.3614 81.6001 47.1408 81.6636 46.9352C81.7271 46.7295 81.855 46.5497 82.0284 46.4223C82.7949 45.6097 83.5615 44.4369 83.1245 43.3561C82.9921 43.1363 82.8914 42.8989 82.8256 42.6509C82.7643 42.0836 83.3622 41.6007 83.2778 41.0411C82.776 40.8061 82.3758 40.3978 82.151 39.8913C81.9747 39.278 82.3427 38.6495 82.496 38.0286C82.6493 37.4077 82.3657 36.4955 81.7294 36.5721C81.7291 36.6832 81.6978 36.7919 81.6391 36.8862C81.5804 36.9804 81.4967 37.0565 81.3972 37.1058C81.2977 37.1552 81.1865 37.1759 81.0759 37.1655C80.9653 37.1552 80.8598 37.1143 80.7712 37.0474C80.2193 36.6334 80.6486 36.0892 80.7712 35.6216C80.7905 35.2535 80.704 34.8875 80.522 34.567C80.34 34.2464 80.07 33.9846 79.7441 33.8125C79.0843 33.481 78.4602 33.0828 77.8813 32.6244C77.9533 32.5047 78.0501 32.4017 78.1651 32.3224C78.2801 32.2431 78.4107 32.1892 78.5482 32.1645C78.6402 31.7045 78.0806 31.3979 77.6207 31.3059C76.0349 30.9713 74.3852 31.1181 72.8834 31.7275C72.5886 31.8898 72.2534 31.9643 71.9176 31.9422C71.588 31.8732 71.312 31.4669 71.519 31.1756C71.6033 31.053 71.7796 30.961 71.8486 30.846C74.3169 30.846 73.8876 30.639 83.6305 30.7157C87.5629 30.7157 91.4876 30.8153 95.42 30.823C95.9517 32.168 96.5503 33.4856 97.2137 34.7707C98.8506 37.7202 100.917 40.4096 103.346 42.7505C101.046 42.4746 93.6953 42.6202 91.9169 42.5665C91.8864 42.5665 91.8571 42.5787 91.8356 42.6002C91.814 42.6218 91.8019 42.651 91.8019 42.6815C91.8632 47.1582 91.9552 51.7345 92.2465 56.2035C92.1359 56.3822 92.0704 56.5851 92.0557 56.7948C92.041 57.0045 92.0775 57.2146 92.1622 57.4069L85.9608 63.1177C84.7113 61.5846 79.928 55.9812 75.0681 53.4745C75.6507 53.1143 75.7503 52.4704 76.7545 52.9533H76.7928ZM104.389 46.0543C101.782 48.308 96.9761 52.7693 95.742 54.2334C95.5641 54.1239 95.3651 54.053 95.158 54.0255C94.9509 53.998 94.7403 54.0144 94.54 54.0737C94.3396 54.133 94.154 54.2339 93.9953 54.3697C93.8365 54.5055 93.7082 54.6733 93.6186 54.862C93.3656 54.9297 93.1375 55.0693 92.9621 55.2638C92.7866 55.4583 92.6712 55.6995 92.6298 55.9582C92.5348 55.9869 92.4463 56.0337 92.3691 56.0961C92.1008 51.9261 91.8939 43.0648 91.9552 42.8348C91.9552 42.9115 101.537 42.8348 103.453 42.9958C103.768 43.2948 103.944 43.4634 104.266 43.7624C104.251 44.4982 104.35 45.3185 104.35 46.0697L104.389 46.0543ZM105.676 44.9735C105.416 45.1728 105.056 45.4718 104.626 45.8474C104.626 45.1345 104.565 44.4752 104.534 43.908C104.826 44.1686 105.117 44.4216 105.416 44.6745C105.462 44.7895 105.546 44.8892 105.638 44.9888L105.676 44.9735ZM104.841 42.5129C103.921 38.4272 106.504 35.2996 109.532 32.2258C110.726 30.8617 112.104 29.6699 113.626 28.6843C115.251 27.7645 117.543 27.0286 119.413 27.5268C120.245 27.7973 120.994 28.277 121.587 28.9199C122.18 29.5629 122.598 30.3476 122.801 31.1986C123.828 34.8167 121.674 38.3812 119.313 40.9568C116.715 43.7854 112.529 46.7366 108.49 46.0773C107.607 45.8848 106.795 45.4511 106.144 44.8245C105.493 44.1979 105.029 43.403 104.803 42.5282L104.841 42.5129ZM104.787 58.5108C104.789 58.544 104.804 58.5752 104.828 58.598C104.852 58.6208 104.884 58.6335 104.918 58.6334C108.893 58.5261 112.874 58.406 116.86 58.2731C116.86 60.9024 117.274 67.5331 117.152 68.1233C117.029 68.7136 116.102 68.6292 115.488 68.6599C114.231 68.7212 101.614 69.0432 96.3245 69.1352C97.9113 65.3791 97.4744 61.4697 96.9608 56.9777C96.9679 56.2879 96.8322 55.6041 96.5622 54.9693C96.7691 54.563 97.3287 54.3714 97.0528 53.5129C98.9615 51.8495 102.273 48.7756 104.366 46.7826C104.366 50.7073 104.58 54.632 104.749 58.5261L104.787 58.5108ZM86.2367 63.6237C86.413 63.4474 90.7594 59.3463 92.2771 57.8975L92.4305 60.3888C90.9726 62.4096 89.7919 64.6164 88.9197 66.9505C88.1166 66.0457 87.2082 65.2402 86.2137 64.5512C86.2619 64.2443 86.2696 63.9325 86.2367 63.6237ZM92.6144 60.1282L92.4611 57.7289L92.8291 57.3686C93.036 57.6139 93.1433 58.1812 93.3273 58.3728C93.381 58.4418 93.6186 58.6564 93.7106 58.6181C93.8026 58.5798 93.243 59.2237 92.6144 60.1205V60.1282ZM89.0653 67.4564C89.1343 67.5254 89.2723 67.4564 89.2109 67.3414C89.1496 67.2264 89.0653 67.1345 88.9657 67.0118C90.2754 64.0063 91.9515 61.1742 93.9559 58.5798C93.9638 58.5669 93.9689 58.5525 93.9708 58.5375C93.9728 58.5225 93.9715 58.5073 93.9672 58.4928C93.9629 58.4783 93.9555 58.465 93.9456 58.4535C93.9358 58.4421 93.9236 58.4329 93.9099 58.4265C93.7374 58.3359 93.5861 58.2098 93.4659 58.0566C93.3457 57.9033 93.2593 57.7263 93.2123 57.5373C93.1127 57.2613 93.1204 56.924 92.7754 56.878C92.5608 56.878 92.2388 57.1387 92.2542 57.1463C92.2695 57.154 92.2542 55.6822 93.8869 56.2495C94.0249 56.3031 94.0785 56.0885 93.9406 56.0348C93.5599 55.8965 93.1477 55.8699 92.7524 55.9582C92.8743 55.6278 93.1147 55.3545 93.427 55.1916C93.6029 55.1319 93.7917 55.1203 93.9736 55.1581C94.1555 55.1958 94.3241 55.2815 94.4618 55.4062C94.484 55.4229 94.5113 55.4309 94.539 55.429C94.5666 55.427 94.5925 55.4151 94.6121 55.3956C94.6317 55.376 94.6435 55.35 94.6455 55.3224C94.6475 55.2948 94.6394 55.2674 94.6228 55.2453C94.5129 55.117 94.3723 55.0188 94.2141 54.9598C94.0559 54.9008 93.8853 54.883 93.7183 54.908C94.3928 53.8808 95.7803 54.2104 96.3859 55.1533C96.6366 55.663 96.7602 56.2258 96.7461 56.7937C97.0592 59.0027 97.2103 61.2316 97.1984 63.4627C97.2368 65.6915 96.74 67.897 95.7496 69.894C94.5158 72.338 92.6396 74.3997 90.3224 75.8578C89.577 76.3995 88.7126 76.7545 87.8017 76.8932C86.8907 77.0319 85.9598 76.9503 85.0869 76.655C83.4468 76.0527 81.8988 75.2245 80.4876 74.1944C81.8001 72.8825 82.9575 71.4241 83.9371 69.8481C84.9314 68.2489 85.688 66.5137 86.1831 64.6968C87.1796 65.6014 88.1531 66.4982 89.0653 67.4564ZM95.9643 54.3791C96.1942 54.2028 96.5008 53.9498 96.8611 53.6125C96.9143 53.8763 96.8649 54.1504 96.7231 54.3791C96.6019 54.4954 96.5031 54.6331 96.4319 54.7853C96.3018 54.6414 96.149 54.5197 95.9796 54.4251L95.9643 54.3791ZM86.0604 63.777C86.0604 65.4021 85.0716 67.3108 84.3357 68.6829C83.087 70.9092 81.5108 72.9351 79.6597 74.6926C79.4681 74.9149 79.4298 75.0529 79.2611 75.0223C79.0925 74.9916 77.8277 73.7038 77.2451 73.3588C77.2451 72.8989 77.3141 72.4237 77.3448 71.9331C80.2576 69.2348 83.3545 66.3296 86.0604 63.777ZM148.205 57.108C140.631 57.2613 106.504 58.4418 105.607 58.3728C105.048 58.3268 104.994 58.2731 104.971 57.6676C104.971 57.246 104.795 51.0599 104.619 46.5449C105.178 46.0083 105.638 45.5637 105.922 45.2801C106.577 45.9346 107.422 46.3664 108.336 46.5143C112.261 47.0815 116.301 44.5902 118.968 41.915C122.035 38.8488 124.549 34.5944 123.016 30.5394C127.515 30.662 144.15 30.3171 148.312 30.0948C148.327 33.9812 148.228 51.9798 148.205 57.108ZM146.319 25.5031C148.404 25.9707 148.304 27.8028 148.304 29.8571C144.127 29.9798 127.339 30.2557 122.947 30.3861C122.485 29.173 121.611 28.161 120.479 27.5268C120.187 27.3735 117.106 26.2544 114.668 25.2272C123.828 25.0662 144.617 25.1199 146.319 25.5031ZM92.0395 19.4781C91.8862 18.4355 91.6256 17.0788 92.2082 16.1206C92.7907 15.1624 94.2012 14.9554 95.2744 15.2927C96.6235 15.7143 96.9531 16.2969 100.64 18.3589C102.787 19.5394 110.536 23.5944 112.69 24.7213C114.343 25.6249 116.066 26.394 117.842 27.0209C116.833 27.0838 115.839 27.3036 114.898 27.6725C113.002 28.4943 111.311 29.7245 109.946 31.2753C108.3 32.8231 106.839 34.5569 105.592 36.4418C103.791 39.416 104.021 42.4286 105.04 44.1763C98.4555 38.2279 96.3859 33.7359 93.5879 25.5031C92.8873 23.5468 92.3689 21.5298 92.0395 19.4781ZM93.2353 25.2962C93.8102 27.0056 94.5308 28.9219 95.2284 30.662C82.197 30.662 75.1524 30.4321 71.7873 30.8077C71.7489 30.6773 71.565 30.616 71.427 30.5854C72.7225 29.2286 74.1559 27.3965 74.2172 25.5338C77.4674 25.6488 88.2298 25.5721 93.2353 25.2962ZM57.4221 22.9965C58.6725 22.2043 60.0746 21.6821 61.5385 21.4634C62.3785 21.2736 63.2528 21.2984 64.0808 21.5355C64.9087 21.7726 65.6636 22.2145 66.2758 22.8202C66.2758 22.8202 59.0242 25.2962 54.9155 31.4822C54.0263 28.3087 54.5935 25.0125 57.4221 22.9965ZM59.0242 36.7944C58.9132 37.0207 58.7535 37.2197 58.5566 37.377C58.388 37.5686 58.273 37.8676 58.4416 38.0592C58.4425 38.0427 58.4389 38.0262 58.4311 38.0116C58.4234 37.9969 58.4119 37.9846 58.3977 37.976C58.3836 37.9674 58.3674 37.9627 58.3508 37.9625C58.3343 37.9623 58.318 37.9666 58.3036 37.9749C56.5176 39.0941 54.2869 39.0404 53.551 36.7944C52.9838 35.0773 53.8193 33.3679 54.8235 32.0035C59.6068 25.4878 67.3029 22.0383 70.8137 22.0383C73.0444 22.0767 74.1942 24.1617 73.7803 26.2007C73.443 27.9254 72.2472 29.2669 71.082 30.478C70.3155 30.5624 69.6179 31.3059 68.3301 32.4557C68.3423 32.2984 68.3267 32.1401 68.2841 31.9881C69.5336 30.9456 70.7064 29.3206 70.7448 27.6648C70.7448 27.0132 70.6451 25.9784 70.0472 25.5721C69.4493 25.1659 68.2228 25.4418 67.4563 25.5568C65.0912 26.0203 62.8723 27.0456 60.9866 28.5463C59.4535 29.7115 57.5294 31.1296 57.0388 33.1456C56.7016 34.4948 57.5754 36.3728 59.1545 35.9512C59.0242 36.3192 59.1469 36.5415 59.0242 36.7944ZM62.7573 34.7324C61.7915 34.878 61.7148 33.8739 60.9636 33.7665C60.8541 33.7484 60.7418 33.7734 60.6503 33.8363C60.5588 33.8992 60.4953 33.9951 60.473 34.1038C60.473 34.3338 60.611 34.4334 60.7336 34.5714C60.8043 34.6729 60.8495 34.7899 60.8651 34.9126C60.8808 35.0352 60.8666 35.1599 60.8237 35.2759C60.7807 35.3918 60.7104 35.4957 60.6186 35.5786C60.5269 35.6615 60.4164 35.7209 60.2967 35.7519L59.9287 35.2613C59.6607 35.3346 59.4288 35.5037 59.2772 35.7366C58.9981 35.7817 58.7124 35.7619 58.4422 35.6787C58.172 35.5956 57.9247 35.4513 57.7193 35.257C57.5139 35.0628 57.3561 34.8238 57.258 34.5587C57.1599 34.2935 57.1243 34.0094 57.1538 33.7282C57.325 32.5605 57.9033 31.4908 58.7866 30.708C63.3322 26.147 69.0507 24.8669 70.1775 26.0321C70.7524 26.63 71.0744 29.3742 68.1921 31.8502C68.1647 31.8025 68.1262 31.7621 68.0799 31.7323C68.0337 31.7025 67.981 31.6843 67.9262 31.679C67.8714 31.6738 67.8162 31.6817 67.7651 31.7021C67.714 31.7226 67.6686 31.7549 67.6326 31.7965C67.4179 32.0878 67.9928 32.4174 67.119 32.7087C66.9427 32.77 66.5441 32.816 66.4291 32.7087C66.2221 32.4557 66.8813 32.0341 66.6131 31.8578C66.4061 31.5512 65.8465 31.7045 65.6855 32.0188C65.5425 32.3629 65.4321 32.7196 65.3559 33.0843C65.1489 33.6439 64.5894 33.7895 64.4207 33.5442C63.9761 32.8927 64.574 32.9157 64.551 32.5477C64.551 32.0188 63.5852 32.0955 63.6312 33.069C63.6312 33.5059 63.8075 33.9429 63.5085 34.3568C63.3298 34.5789 63.0711 34.722 62.788 34.7554L62.7573 34.7324ZM47.227 64.6278C47.227 64.5512 47.48 64.2369 47.526 64.1679C48.3066 63.0474 49.1539 61.9749 50.0632 60.9561C53.3747 57.1233 53.735 56.1881 57.8361 54.4097C58.725 54.0212 59.6333 53.6783 60.5573 53.3826C61.2395 53.1679 62.7036 52.501 63.3935 52.777C63.6848 53.3979 63.9071 53.6202 67.2646 57.4529C67.2646 57.4529 67.2646 57.5066 67.3183 57.4529C67.3719 57.3993 68.5294 55.4139 69.0277 54.4404C69.1197 55.3896 69.4406 56.3024 69.9629 57.1003C69.9692 57.1098 69.9777 57.1176 69.9877 57.123C69.9978 57.1284 70.009 57.1312 70.0204 57.1312C70.0318 57.1312 70.043 57.1284 70.053 57.123C70.063 57.1176 70.0716 57.1098 70.0779 57.1003C70.5605 56.2028 70.9411 55.254 71.2124 54.2718C71.634 55.2529 72.1859 56.1651 72.5768 57.1616C72.5768 57.1616 72.7455 57.2153 72.7761 57.1616C73.2514 56.0042 73.9336 54.9003 74.3092 53.6968C74.388 53.7304 74.4727 53.7476 74.5583 53.7476C74.644 53.7476 74.7287 53.7304 74.8075 53.6968C79.8437 57.0467 81.0932 57.9359 85.7998 63.3324C83.1859 65.747 80.2116 68.4913 77.3678 71.1052C77.4445 69.9285 77.4445 68.7481 77.3678 67.5714C77.3678 67.4947 77.0458 66.3832 77.0305 67.5101C77.0305 68.3533 77.0305 69.8097 76.9461 71.4961C73.3664 74.823 70.0472 77.8892 68.1998 79.7135C67.8336 79.6501 67.4575 79.6764 67.1036 79.7902C66.9597 79.851 66.8027 79.8745 66.6472 79.8584C66.4918 79.8423 66.3429 79.7872 66.2144 79.6982C65.9308 79.5679 59.3155 76.563 58.1503 75.9345C57.7364 75.7045 56.4946 75.2676 56.5099 74.7003C56.5099 74.501 57.3838 73.1672 57.5448 72.8606C58.411 73.4508 58.388 73.4738 58.4646 73.4048C60.6777 71.4758 62.5196 69.1585 63.8995 66.5672C63.902 66.5627 63.9036 66.5577 63.9042 66.5526C63.9048 66.5474 63.9043 66.5422 63.9029 66.5372C63.9015 66.5322 63.8991 66.5276 63.8959 66.5235C63.8927 66.5195 63.8887 66.5161 63.8841 66.5136C63.8796 66.511 63.8746 66.5094 63.8695 66.5088C63.8643 66.5083 63.8591 66.5087 63.8541 66.5101C63.8491 66.5115 63.8445 66.5139 63.8404 66.5171C63.8364 66.5204 63.833 66.5244 63.8305 66.5289C63.0026 67.9163 58.6256 73.2285 58.3803 73.2209C58.135 73.2132 52.9225 69.3881 52.6848 69.1965C53.6486 68.2253 54.5401 67.1852 55.3524 66.0843C55.4144 65.2653 55.4144 64.4427 55.3524 63.6237C55.3507 63.6019 55.3412 63.5814 55.3258 63.566C55.3103 63.5505 55.2899 63.5411 55.2681 63.5393C54.4402 63.5393 53.482 63.2864 52.9225 63.9533C51.9949 65.0494 51.0291 66.0766 50.1169 67.1805C49.8869 66.9275 47.2653 64.6892 47.2577 64.6125L47.227 64.6278ZM52.5315 69.0738C51.765 68.4759 50.9984 67.8703 50.2319 67.2341C51.0444 66.4676 52.8995 64.0759 53.1831 63.8536C53.7719 63.6536 54.3997 63.5958 55.0151 63.685C55.3218 63.7693 55.2528 65.1414 55.1991 65.655C55.1455 66.1686 53.1678 68.3839 52.5622 69.0585L52.5315 69.0738ZM48.8598 66.2529C51.5876 68.5632 54.4354 70.7279 57.3915 72.7379C56.4639 74.5777 55.9197 74.777 56.119 74.9073C59.4075 77.1073 63.2556 78.1651 66.6054 80.2731C66.7664 80.3804 67.0193 79.8669 67.9928 79.9128L67.4333 80.4571C67.4134 80.4 67.4134 80.3379 67.4333 80.2808C67.4333 80.2348 67.4333 80.2118 67.3719 80.2348C67.0193 80.5338 67.7705 81.0933 68.6061 80.4801C68.741 80.6104 68.8434 80.7705 68.905 80.9477C68.9348 81.081 68.9337 81.2194 68.9018 81.3523C68.8699 81.4851 68.8081 81.6089 68.7211 81.7142C68.541 81.9116 68.3077 82.0527 68.0494 82.1207C67.791 82.1887 67.5185 82.1806 67.2646 82.0975C67.2646 82.0975 67.188 82.1512 67.2646 82.1742C67.5236 82.3012 67.8153 82.3458 68.1004 82.302C68.3855 82.2581 68.6503 82.1279 68.859 81.9289C68.9358 82.1063 68.9593 82.3023 68.9266 82.4928C68.8939 82.6834 68.8065 82.8603 68.6751 83.002C68.2381 83.485 67.6479 83.324 67.096 83.2167C67.0832 83.2132 67.0695 83.2146 67.0576 83.2206C67.0458 83.2266 67.0366 83.2368 67.0318 83.2492C67.027 83.2616 67.027 83.2753 67.0318 83.2877C67.0366 83.3001 67.0458 83.3103 67.0577 83.3163C67.4004 83.5226 67.8086 83.591 68.1998 83.508C68.1998 84.3588 66.5747 84.2745 66.1071 84.1519C65.6468 83.976 65.2231 83.716 64.8577 83.3853C64.6813 83.232 64.4361 82.8181 64.2367 82.7338C64.0374 82.6494 62.7036 82.9101 58.7942 82.8411C52.5162 82.7261 51.4584 81.8752 48.9747 79.2766C45.1343 75.2292 45.5559 69.871 48.8904 66.2376L48.8598 66.2529ZM4.59915 68.9895C5.3657 67.5331 8.04863 68.039 9.38243 68.039C13.3685 68.039 38.4653 68.1233 47.1963 68.3073C46.4922 69.5929 46.1034 71.0274 46.0618 72.4926C38.8563 72.324 11.1148 72.3393 4.21588 72.4467C4.24654 71.2892 4.1009 69.9017 4.59915 68.9895ZM24.5295 102.028C23.5329 102.649 22.1378 105.37 21.1873 107.946C6.99079 108.168 6.70717 108.321 5.67999 107.693C4.22354 106.811 4.3232 103.722 4.33086 102.051C4.33853 100.38 4.25421 98.6703 4.18522 96.9839C3.84793 88.8738 4.23121 72.5923 4.23121 72.5616C7.62703 72.7303 38.8333 72.5616 46.0695 72.7303C46.0695 76.2487 48.1392 79.1003 50.8911 81.239C50.7761 81.4613 50.0172 82.3811 49.9713 82.4808C50.5282 83.1176 51.1441 83.7003 51.811 84.2209L45.303 99.9888C45.134 99.8578 44.923 99.7932 44.7097 99.8074C44.4964 99.8215 44.2956 99.9133 44.1455 100.065C43.3789 100.771 43.2563 102.365 43.0646 103.285C42.827 104.504 42.8653 104.879 44.1455 106.351C44.1455 106.351 42.6124 108.413 42.6124 108.451C42.6124 108.49 35.8591 106.42 35.1155 106.282C35.1998 105.761 35.2458 105.447 35.2458 105.447C35.2458 105.447 26.2619 100.947 24.5295 102.028ZM54.6702 96.0257C54.6702 96.0871 56.3336 96.1867 60.2124 94.4926C60.2124 94.8759 57.1462 102.733 57.1462 102.733C57.1462 102.733 56.4793 104.174 54.6012 103.239C53.0615 102.38 51.595 101.395 50.2165 100.295C50.2165 100.295 49.197 99.6362 50.1092 97.7351C51.0214 95.8341 52.9991 91.0968 53.1141 90.9128C53.2789 92.7044 53.8057 94.4438 54.6625 96.0257H54.6702ZM53.3057 90.6599C53.5127 90.4222 53.7963 90.2536 54.0723 90.4989L59.1469 92.8752C59.4205 92.9827 59.6602 93.1619 59.8409 93.3938C60.0217 93.6258 60.1367 93.902 60.174 94.1937C59.3615 94.577 55.7817 95.8954 54.8082 95.7728C54.0251 94.172 53.5147 92.4517 53.2981 90.6829L53.3057 90.6599ZM30.7232 110.245C30.5015 110.992 30.1819 111.706 29.7727 112.369C29.6883 112.499 29.443 112.422 29.5044 112.254C29.765 111.533 30.2096 110.858 30.5392 110.169C30.5442 110.157 30.5516 110.146 30.5609 110.136C30.5701 110.127 30.5812 110.12 30.5933 110.115C30.6054 110.11 30.6183 110.107 30.6314 110.107C30.6445 110.107 30.6574 110.11 30.6695 110.115C30.6816 110.12 30.6926 110.127 30.7018 110.137C30.711 110.146 30.7184 110.157 30.7233 110.169C30.7283 110.181 30.7309 110.194 30.7308 110.207C30.7308 110.22 30.7282 110.233 30.7232 110.245ZM29.489 109.479C29.3434 109.824 28.9448 111.15 28.7761 111.403C28.7629 111.427 28.742 111.446 28.7169 111.456C28.6917 111.467 28.6636 111.469 28.6372 111.462C28.6108 111.455 28.5874 111.439 28.571 111.417C28.5545 111.395 28.5457 111.369 28.5462 111.341C28.718 110.66 28.9756 110.003 29.3127 109.387C29.3817 109.302 29.535 109.402 29.489 109.509V109.479ZM27.289 110.498C27.4561 109.879 27.6661 109.272 27.9176 108.681C27.9247 108.655 27.942 108.633 27.9658 108.619C27.9895 108.605 28.0177 108.602 28.0441 108.609C28.0705 108.616 28.093 108.633 28.1067 108.657C28.1203 108.681 28.124 108.709 28.1169 108.735C27.9736 109.37 27.7603 109.987 27.4807 110.575C27.4668 110.589 27.4494 110.599 27.4304 110.605C27.4113 110.61 27.3911 110.611 27.3718 110.606C27.3526 110.601 27.3348 110.592 27.3203 110.578C27.3058 110.565 27.295 110.548 27.289 110.529V110.498ZM31.7427 121.651C31.1006 117.98 29.7184 114.477 27.68 111.357L32.2026 115.144C32.2026 115.144 32.3023 114.975 32.4556 114.668C33.6246 115.48 34.8404 116.222 36.0967 116.891C34.6249 117.535 32.7775 120.203 31.7427 121.682V121.651ZM51.8723 118.693C49.4883 120.226 48.1469 120.356 45.2493 120.111C42.8621 119.831 40.5552 119.075 38.4653 117.888C37.4177 117.351 36.3778 116.786 35.3455 116.194C34.4026 115.649 33.4981 115.013 32.5399 114.5C33.7933 111.997 34.6518 109.316 35.0849 106.55C35.6444 106.757 41.6389 108.406 42.7044 108.712C42.8193 108.712 42.758 108.781 44.2911 106.543C46.8361 109.417 49.9406 110.95 53.4207 112.675C54.4249 113.158 55.4291 113.649 56.4869 114.093C55.2853 115.939 53.714 117.516 51.8723 118.723V118.693ZM60.9789 113.702C59.8597 115.143 59.0242 114.837 57.2151 114.109C54.9922 113.219 52.8535 112.108 50.7378 111.042C48.6449 110.019 46.7235 108.677 45.0423 107.064C44.2145 106.221 42.942 105.125 43.1566 103.86C43.2639 103.224 43.8695 100.955 43.9232 100.878C44.0765 100.265 44.5441 100.058 45.326 100.265C45.326 100.311 61.4925 110.33 61.9678 110.544C62.2744 111.625 61.6688 112.836 60.9789 113.733V113.702ZM50.1552 82.5191C50.441 82.1327 50.6972 81.7253 50.9218 81.3003C52.8228 82.7568 55.5977 82.8334 57.8974 82.9407C61.8604 83.0787 62.7803 82.7491 63.8075 82.8411C64.2444 82.8794 64.0988 82.8871 64.528 83.301C63.8765 83.7073 61.7071 85.524 61.4618 86.0912C61.4583 86.1009 61.4575 86.1113 61.4597 86.1214C61.4619 86.1314 61.4669 86.1406 61.4742 86.1479C61.4815 86.1551 61.4907 86.1602 61.5007 86.1624C61.5107 86.1646 61.5212 86.1638 61.5308 86.1602C62.0827 86.0606 64.2444 84.1672 64.758 83.5463C65.2012 83.9194 65.7267 84.1821 66.2911 84.3128C66.8813 84.4432 68.3914 84.3129 68.2918 83.393C68.4578 83.3415 68.6099 83.2528 68.7365 83.1336C68.863 83.0144 68.9607 82.8679 69.0221 82.7053C69.0834 82.5426 69.1068 82.3681 69.0906 82.1951C69.0743 82.022 69.0187 81.8549 68.928 81.7066C69.1887 81.4076 69.2346 80.5031 68.6597 80.2808C68.5448 80.1045 68.4681 80.4111 67.9775 80.5261C67.8937 80.5386 67.8084 80.5386 67.7245 80.5261C69.4723 79.1003 72.9984 75.9268 76.9231 72.2933C76.7315 76.4404 76.1566 81.9519 74.6695 85.5393C71.2503 86.8536 67.5975 87.4511 63.9378 87.2947C59.7294 87.1414 52.8918 85.5853 50.1552 82.5191ZM72.9754 113.61C72.1399 114.247 71.2737 113.373 70.6298 112.783C69.9859 112.192 69.0967 111.127 69.0967 110.199C69.0967 109.486 82.082 93.5804 82.312 93.3965C82.9866 92.8599 83.0785 92.7526 83.7914 93.5191C84.2974 94.094 85.8611 96.685 85.8535 97.3519C85.8535 100.073 73.535 113.189 72.9754 113.61ZM77.6897 116.6C77.6758 116.116 77.6063 115.635 77.4827 115.166C77.1679 114.834 76.8095 114.545 76.4172 114.308C75.712 113.741 75.0451 113.135 74.3782 112.522C77.5977 109.134 81.8751 104.496 84.4123 100.579C87.7545 105.355 87.8158 107.838 88.9197 113.472C89.8089 118.018 90.6444 122.495 91.135 127.102C90.2535 127.378 84.9566 129.877 84.4123 130.206C81.7448 126.373 78.6096 121.161 77.6897 116.6ZM90.0618 131.847C90.3608 131.678 91.4876 130.988 91.7866 130.881C91.8632 130.881 91.9475 130.957 91.8939 131.026C91.4333 131.543 90.822 131.903 90.1461 132.054C90.1206 132.057 90.0946 132.053 90.0722 132.04C90.0498 132.027 90.0323 132.007 90.0226 131.983C90.0129 131.959 90.0114 131.933 90.0186 131.908C90.0257 131.883 90.0409 131.862 90.0618 131.847ZM90.4604 133.081C91.0196 132.797 91.5927 132.541 92.1775 132.314C92.2925 132.314 92.3998 132.437 92.3001 132.521C91.7663 132.876 91.175 133.135 90.5524 133.288C90.4528 133.318 90.3301 133.111 90.4528 133.058L90.4604 133.081ZM92.6221 134.146C92.138 134.585 91.5933 134.952 91.0047 135.235C90.882 135.273 90.7747 135.104 90.8744 135.02C91.3885 134.633 91.929 134.282 92.4918 133.97C92.5838 133.916 92.6834 134.047 92.6221 134.146Z" fill="black"/>
<path d="M133.517 41.248L134.452 41.5469C134.353 40.7838 133.97 40.086 133.379 39.5922C133.574 39.5056 133.757 39.3948 133.924 39.2626C134.106 39.4741 134.321 39.6552 134.56 39.7992C134.629 39.7992 134.774 39.8759 134.744 39.6842C134.496 39.4351 134.205 39.2326 133.885 39.0863C133.816 39.0863 133.287 39.3623 133.165 39.4159C132.908 39.2205 132.63 39.0534 132.337 38.9177C132.337 38.795 132.375 38.2431 132.337 38.1128C132.503 38.0471 132.655 37.9479 132.781 37.8215C133.257 37.4459 132.153 38.0208 132.145 38.0285C132.104 38.2818 132.086 38.5384 132.092 38.795C131.626 38.5998 131.136 38.4683 130.635 38.4041C130.673 38.3274 130.888 37.3309 130.719 37.2006C130.719 37.1623 130.275 36.7483 130.007 36.4954C129.807 36.5414 130.535 37.2083 130.635 37.2619C130.535 37.6215 130.481 37.9925 130.474 38.3657C130.079 38.3326 129.68 38.361 129.294 38.4501C129.209 37.6835 128.427 37.5225 127.761 37.8752C127.761 37.8752 126.787 34.625 126.565 33.9504C126.511 33.8048 126.488 33.8278 126.519 33.9504C126.664 34.6097 127.584 37.8905 127.63 37.9365C127.553 37.9786 127.483 38.0329 127.423 38.0975C126.583 36.8943 125.426 35.9471 124.081 35.3609C123.269 35.0389 123.108 35.0313 123.912 35.4605C125.243 36.1652 126.411 37.142 127.339 38.3274C127.032 38.8717 127.094 39.9065 127.684 40.1058C127.609 40.4274 127.573 40.7568 127.577 41.087C127.245 41.0219 126.904 41.0219 126.572 41.087C126.526 40.995 125.882 40.1058 125.936 40.3204C125.936 40.4508 126.442 41.202 126.641 41.225C126.954 41.2604 127.269 41.2757 127.584 41.271C127.616 41.7893 127.701 42.3029 127.837 42.8041C127.55 42.7414 127.257 42.708 126.963 42.7044C126.806 42.8236 126.659 42.957 126.526 43.103C126.112 43.6013 126.68 43.425 127.04 42.8884C128.366 43.1567 127.623 42.7121 128.251 43.8159C128.056 44.0593 127.876 44.3154 127.715 44.5825C127.77 44.8833 127.89 45.1684 128.067 45.418C128.151 45.648 128.435 45.5483 128.197 45.1344C128.107 44.9651 127.999 44.8058 127.875 44.6591C128.096 44.4969 128.27 44.2804 128.381 44.0306C128.623 44.4191 128.963 44.7366 129.367 44.9507C129.771 45.1649 130.224 45.2679 130.681 45.2494L130.505 44.6208C130.96 44.7629 131.447 44.7709 131.906 44.6439C132.366 44.5169 132.779 44.2602 133.097 43.9044C133.415 43.5487 133.623 43.1091 133.698 42.638C133.772 42.1669 133.71 41.6844 133.517 41.248ZM127.738 39.9295C127.585 39.8149 127.464 39.6626 127.388 39.4874C127.311 39.3122 127.281 39.1201 127.302 38.93C127.322 38.74 127.391 38.5584 127.502 38.403C127.613 38.2477 127.763 38.1239 127.937 38.0438C128.146 37.9716 128.367 37.9379 128.588 37.9441C128.73 37.9853 128.858 38.0629 128.96 38.1692C129.063 38.2754 129.135 38.4067 129.171 38.5497C128.837 38.6433 128.531 38.8183 128.28 39.0591C128.03 39.2999 127.844 39.599 127.738 39.9295ZM129.171 39.8222L130.275 40.1825C130.064 40.4572 129.771 40.6583 129.439 40.7574L129.171 39.8222ZM129.478 40.903C129.888 40.8176 130.256 40.5928 130.52 40.2668L131.287 40.5274C131.186 40.88 130.981 41.1941 130.7 41.4292C130.418 41.6643 130.072 41.8094 129.708 41.8459L129.478 40.903ZM129.807 42.0529C130.203 42.0127 130.577 41.8556 130.883 41.6016C131.189 41.3477 131.412 41.0084 131.524 40.6271L132.62 40.9873C132.567 41.6158 132.293 42.2051 131.847 42.6511C131.401 43.0972 130.811 43.3712 130.183 43.425L129.807 42.0529ZM132.873 43.8236C132.567 44.1297 132.184 44.3465 131.764 44.4506C131.343 44.5546 130.903 44.5419 130.489 44.4138L130.236 43.5246C130.772 43.5222 131.293 43.3534 131.729 43.0417C132.164 42.73 132.492 42.2907 132.666 41.7846C132.777 41.5412 132.852 41.2829 132.889 41.018L133.203 41.1177C133.422 41.5517 133.506 42.0412 133.444 42.5234C133.383 43.0056 133.179 43.4583 132.858 43.8236H132.873ZM35.9661 101.353L36.0888 101.913C36.4841 101.623 36.7574 101.197 36.8553 100.717C36.9515 100.798 37.0602 100.863 37.1773 100.909C36.9243 101.399 37.3459 102.051 37.3613 100.847C37.2999 100.656 37.2539 100.709 36.8937 100.449C36.9128 100.265 36.9128 100.08 36.8937 99.8967C37.0163 99.8507 36.84 99.8967 37.3536 99.6514C37.5452 99.8967 38.4574 99.8507 37.3536 99.4521C37.175 99.4975 37.0044 99.5699 36.8477 99.6668C36.8038 99.3637 36.7214 99.0674 36.6024 98.7852C36.7557 98.7239 37.1466 98.7009 37.3306 98.4019C37.3306 98.3023 37.5376 97.9573 37.4379 97.7121C37.2616 97.8347 37.3766 97.873 37.2003 98.3636C36.9615 98.4048 36.7342 98.4962 36.5334 98.6319C36.4242 98.4207 36.2876 98.2248 36.1271 98.0493C36.2102 97.9776 36.2738 97.886 36.3121 97.7832C36.3503 97.6803 36.3619 97.5694 36.3459 97.4608C36.3298 97.3522 36.2866 97.2495 36.2202 97.1621C36.1538 97.0747 36.0664 97.0054 35.9661 96.9608C36.5487 96.2479 37.6832 95.2131 38.1431 94.5155C37.2707 95.1919 36.4967 95.9866 35.8435 96.8765H35.7362C36.1348 96.11 36.4337 94.3239 35.9891 93.6187C36.0772 94.7171 35.9228 95.8214 35.5369 96.8535C35.1306 96.8535 34.5327 97.2751 34.64 97.6737C33.8121 97.919 34.387 98.1337 33.7968 97.3441C33.9578 97.1908 34.2031 96.1406 33.6742 97.2981C33.5898 97.4591 33.7738 97.6967 33.9424 98.0187C33.6895 98.193 33.4534 98.3906 33.2372 98.6089C33.1671 98.4361 33.0878 98.2673 32.9996 98.103C32.9996 98.103 32.0337 97.8194 32.4937 98.1566C32.615 98.2015 32.741 98.2323 32.8693 98.2486C32.9266 98.4279 32.9984 98.6022 33.0839 98.7699C32.9719 98.8967 32.8742 99.0355 32.7926 99.1838C32.5667 99.123 32.3287 99.123 32.1027 99.1838C31.9111 99.8124 31.5508 99.6284 31.8498 99.8354C32.0142 99.7113 32.1371 99.5402 32.2024 99.3448C32.3538 99.4123 32.5218 99.4336 32.6853 99.4061C32.5532 99.6697 32.4922 99.9633 32.5084 100.258C32.5245 100.552 32.6172 100.837 32.7773 101.085L33.0533 100.801C33.2985 102.012 35.2609 102.472 35.9661 101.353ZM36.0275 97.2751C36.094 97.3721 36.1297 97.4871 36.1297 97.6047C36.1297 97.7224 36.094 97.8373 36.0275 97.9343C35.8705 97.7848 35.6801 97.6748 35.4722 97.6135C35.2642 97.5522 35.0446 97.5413 34.8316 97.5817C34.856 97.4546 34.9159 97.337 35.0046 97.2427C35.0932 97.1484 35.2069 97.0812 35.3323 97.049C35.4577 97.0169 35.5896 97.0211 35.7127 97.0611C35.8358 97.1011 35.945 97.1754 36.0275 97.2751ZM35.4449 99.0688C35.2346 99.031 35.037 98.9414 34.87 98.8082L35.2916 98.3713L35.4449 99.0688ZM34.7627 98.9155C34.9654 99.1317 35.2358 99.2723 35.5292 99.3141L35.6289 99.7664C35.4031 99.8278 35.164 99.8188 34.9435 99.7407C34.723 99.6627 34.5316 99.5192 34.3947 99.3295L34.7627 98.9155ZM34.2107 99.4904C34.3724 99.7071 34.5958 99.8699 34.8516 99.9575C35.1074 100.045 35.3836 100.053 35.6442 99.981L35.7898 100.656C35.4222 100.83 35.0049 100.87 34.6111 100.767C34.2172 100.665 33.872 100.427 33.6358 100.096L34.2107 99.4904ZM34.2644 101.729C33.9932 101.659 33.7462 101.517 33.5503 101.317C33.3543 101.117 33.2169 100.867 33.1529 100.594L33.5285 100.196C33.7623 100.571 34.1248 100.848 34.5481 100.975C34.9714 101.102 35.4265 101.07 35.8282 100.886V101.016C35.6645 101.266 35.4342 101.465 35.1633 101.591C34.8924 101.717 34.5917 101.765 34.2951 101.729H34.2644ZM26.2003 49.772C26.1827 49.9843 26.2269 50.1971 26.3276 50.3848C26.4282 50.5725 26.581 50.727 26.7675 50.8298C26.5395 51.0922 26.3603 51.3934 26.2386 51.719C25.5794 55.2605 27.7717 55.9121 27.7717 55.9121L27.856 53.1448C28.0553 54.8389 29.4351 56.671 30.6003 54.5323C32.2944 55.2988 32.5933 53.0988 31.6198 52.064C31.9111 51.9732 32.1728 51.8061 32.3777 51.58C32.5826 51.3539 32.7232 51.077 32.785 50.7782C32.8468 50.4794 32.8275 50.1695 32.7291 49.8807C32.6307 49.5919 32.4568 49.3347 32.2254 49.1358C33.2066 48.5532 33.5975 46.3685 31.8498 46.6368C31.0832 43.402 28.6073 46.7901 28.1397 48.6528L28.9062 44.0535C28.9062 44.0535 26.6066 44.2605 26.5452 47.8863C26.6042 48.2364 26.7235 48.5736 26.8979 48.8828C26.7669 48.9153 26.6453 48.978 26.5428 49.0658C26.4403 49.1537 26.3598 49.2643 26.3076 49.3887C24.3782 48.6801 22.7533 47.326 21.7083 45.556C22.4365 47.6333 24.2763 48.8062 26.2386 49.6187C24.6595 49.5267 22.1759 49.4424 21.1641 50.6765C22.7278 49.68 24.3682 49.6954 26.2003 49.772ZM31.9801 53.1218C32.279 54.1107 31.5815 54.7469 30.6693 54.3713C30.9146 52.9762 29.0825 50.9678 28.1857 50.2703C29.6728 50.6459 31.3362 51.5197 31.9801 53.1218ZM29.2358 50.4389C28.8915 50.312 28.5378 50.2121 28.178 50.14C28.5403 50.1671 28.9042 50.1671 29.2665 50.14C29.2512 50.2089 29.3202 50.2166 29.2358 50.4389ZM29.4198 50.1476C29.677 50.1287 29.9329 50.0954 30.1864 50.048C30.2198 50.1756 30.2197 50.3097 30.1861 50.4372C30.1525 50.5648 30.0866 50.6816 29.9947 50.7762C29.791 50.6693 29.5811 50.5746 29.3661 50.4926C29.4057 50.4454 29.4316 50.3884 29.4411 50.3276C29.4505 50.2668 29.4432 50.2045 29.4198 50.1476ZM30.3397 50.0173C30.644 49.9532 30.9417 49.8608 31.2289 49.7413C31.3822 50.3546 31.5508 50.9295 30.9529 51.3664C30.7096 51.1754 30.4535 51.0012 30.1864 50.8452C30.3032 50.7459 30.3822 50.6093 30.4102 50.4585C30.4381 50.3077 30.4132 50.1519 30.3397 50.0173ZM32.6393 50.4082C32.6254 50.7437 32.5134 51.0678 32.3172 51.3402C32.121 51.6127 31.8492 51.8217 31.5355 51.9413C31.3876 51.7629 31.2234 51.5986 31.0449 51.4508C31.6275 51.2285 31.6735 50.2549 31.3592 49.68C31.6312 49.5624 31.8885 49.4132 32.1257 49.2354C32.4073 49.569 32.5881 49.9758 32.647 50.4082H32.6393ZM31.3362 49.4271C30.3839 49.8908 29.3267 50.0969 28.27 50.025C29.3355 49.6034 31.6505 48.1853 31.8728 46.7825C33.9348 46.8361 32.5627 49.0591 31.3438 49.4271H31.3362ZM27.9787 49.91C30.0177 41.9072 34.8776 47.1964 28.0477 50.0173H27.9787V49.91ZM27.9787 50.2166C28.178 50.2779 31.8114 53.8577 29.9334 55.1149C27.7717 56.0731 27.9404 51.1058 27.9787 50.2166ZM27.0282 48.9978C27.2475 49.3421 27.525 49.6455 27.8484 49.8947C27.839 49.9246 27.839 49.9567 27.8484 49.9866C27.5153 50.1557 27.2123 50.3784 26.9515 50.6459C26.1773 50.5386 26.2463 49.1511 27.0282 48.9978ZM121.881 43.6243C121.878 43.04 121.819 42.4573 121.705 41.8842C121.705 41.7846 121.536 41.8076 121.536 41.8842C121.523 42.4589 121.561 43.0335 121.651 43.6013C121.689 43.6933 121.881 43.7546 121.881 43.6243ZM118.984 47.4187C118.974 46.8318 118.912 46.247 118.8 45.671C118.8 45.5713 118.631 45.602 118.631 45.671C118.622 46.2481 118.66 46.825 118.746 47.3957C118.815 47.526 118.953 47.526 118.984 47.4187ZM143.981 47.2654C143.971 46.6786 143.909 46.0937 143.797 45.5177C143.797 45.4257 143.628 45.4487 143.628 45.5177C143.617 46.0951 143.658 46.6723 143.751 47.2424C143.789 47.365 143.958 47.3957 143.981 47.2654ZM145.644 47.2654C145.634 46.6786 145.572 46.0937 145.46 45.5177C145.46 45.4257 145.291 45.4487 145.291 45.5177C145.278 46.0949 145.317 46.6721 145.406 47.2424C145.46 47.365 145.644 47.3957 145.644 47.2654ZM138.852 46.1079C138.843 46.685 138.882 47.2619 138.967 47.8326C139.006 47.9323 139.174 47.9553 139.205 47.8326C139.196 47.2458 139.134 46.6609 139.021 46.0849C139.006 45.9929 138.852 45.9929 138.852 46.1079ZM138.898 43.9616C138.893 43.3744 138.831 42.7892 138.715 42.2138C138.715 42.1142 138.546 42.1372 138.546 42.2138C138.535 42.7912 138.577 43.3684 138.669 43.9386C138.699 44.0535 138.868 44.0842 138.898 43.9616ZM136.583 43.9616C136.578 43.3744 136.516 42.7892 136.4 42.2138C136.4 42.1142 136.231 42.1372 136.231 42.2138C136.22 42.7912 136.262 43.3684 136.354 43.9386C136.392 44.0535 136.56 44.0842 136.583 43.9616ZM145.583 43.2947C145.577 42.7101 145.515 42.1275 145.399 41.5546C145.399 41.4549 145.23 41.4779 145.23 41.5546C145.22 42.132 145.261 42.7092 145.353 43.2793C145.391 43.3943 145.56 43.425 145.583 43.2947ZM143.835 39.4159C143.829 38.8314 143.768 38.2487 143.651 37.6759C143.651 37.5762 143.482 37.5992 143.482 37.6759C143.472 38.2507 143.513 38.8254 143.605 39.3929C143.643 39.5156 143.812 39.5462 143.835 39.4159ZM141.206 37.6988C141.189 38.2736 141.227 38.8486 141.321 39.4159C141.321 39.5156 141.528 39.5462 141.551 39.4159C141.544 38.8318 141.485 38.2494 141.374 37.6759C141.373 37.6648 141.369 37.6541 141.364 37.6445C141.358 37.6348 141.351 37.6264 141.342 37.6196C141.333 37.6128 141.323 37.6079 141.312 37.605C141.301 37.6022 141.29 37.6015 141.279 37.603C141.268 37.6045 141.257 37.6082 141.247 37.6138C141.238 37.6195 141.229 37.627 141.222 37.6359C141.216 37.6448 141.211 37.6549 141.208 37.6657C141.205 37.6765 141.204 37.6878 141.206 37.6988ZM136.262 39.9218C136.254 39.3352 136.195 38.7504 136.085 38.1741C136.085 38.0745 135.917 38.1051 135.917 38.1741C135.9 38.7514 135.938 39.3289 136.032 39.8988C136.07 40.0215 136.239 40.0445 136.262 39.9218ZM138.822 35.4682C138.815 34.8841 138.756 34.3017 138.646 33.7281C138.646 33.7058 138.637 33.6843 138.621 33.6685C138.605 33.6527 138.584 33.6438 138.561 33.6438C138.539 33.6438 138.517 33.6527 138.502 33.6685C138.486 33.6843 138.477 33.7058 138.477 33.7281C138.464 34.3028 138.502 34.8774 138.592 35.4452C138.63 35.5678 138.799 35.5985 138.822 35.4682ZM133.586 35.4682C133.569 34.8832 133.5 34.3009 133.379 33.7281C133.379 33.6285 133.211 33.6515 133.211 33.7281C133.201 34.3027 133.24 34.877 133.326 35.4452C133.379 35.5678 133.556 35.5985 133.586 35.4682ZM108.543 55.1302C108.532 55.7076 108.573 56.2848 108.666 56.8549C108.704 56.9546 108.873 56.9852 108.896 56.8549C108.89 56.2704 108.828 55.6877 108.712 55.1149C108.696 55.0152 108.543 55.0382 108.543 55.1302ZM113.303 54.7546C113.293 55.332 113.334 55.9092 113.426 56.4793C113.464 56.579 113.633 56.6096 113.656 56.4793C113.639 55.8918 113.569 55.3069 113.449 54.7316C113.439 54.7216 113.426 54.7141 113.413 54.7098C113.399 54.7054 113.385 54.7043 113.37 54.7066C113.356 54.7088 113.343 54.7143 113.331 54.7226C113.32 54.731 113.31 54.7419 113.303 54.7546ZM116.278 54.6243C116.267 55.2017 116.308 55.7789 116.4 56.349C116.439 56.4487 116.607 56.4717 116.63 56.349C116.624 55.7619 116.563 55.1767 116.446 54.6013C116.431 54.5016 116.278 54.5323 116.278 54.6243ZM113.127 50.3086C113.127 50.2089 112.958 50.2396 112.958 50.3086C112.948 50.886 112.989 51.4632 113.081 52.0333C113.081 52.133 113.288 52.156 113.311 52.0333C113.304 51.4539 113.242 50.8765 113.127 50.3086ZM111.088 52.0563C111.085 51.4695 111.026 50.8843 110.912 50.3086C110.912 50.2089 110.743 50.2396 110.743 50.3086C110.73 50.8858 110.768 51.463 110.858 52.0333C110.896 52.1253 111.065 52.179 111.088 52.0563ZM119.106 51.6807C119.115 51.7042 119.131 51.7244 119.151 51.7387C119.172 51.753 119.196 51.7607 119.221 51.7607C119.246 51.7607 119.271 51.753 119.291 51.7387C119.312 51.7244 119.327 51.7042 119.336 51.6807C119.33 51.0962 119.269 50.5135 119.152 49.9407C119.152 49.841 118.984 49.864 118.984 49.9407C118.972 50.5232 119.013 51.1056 119.106 51.6807ZM125.898 51.6807C125.891 51.0966 125.832 50.5143 125.721 49.9407C125.721 49.9183 125.713 49.8968 125.697 49.881C125.681 49.8652 125.66 49.8563 125.637 49.8563C125.615 49.8563 125.593 49.8652 125.578 49.881C125.562 49.8968 125.553 49.9183 125.553 49.9407C125.536 50.5154 125.575 51.0904 125.668 51.6577C125.714 51.7804 125.875 51.811 125.898 51.6807ZM125.829 54.1183C125.812 54.6956 125.85 55.2732 125.944 55.8431C125.944 55.9427 126.151 55.9657 126.174 55.8431C126.167 55.2564 126.108 54.6715 125.997 54.0954C125.974 53.9957 125.829 54.0264 125.829 54.1183ZM122.211 54.5246C122.198 55.1018 122.236 55.679 122.326 56.2494C122.326 56.349 122.533 56.372 122.556 56.2494C122.549 55.6627 122.49 55.0778 122.379 54.5016C122.364 54.425 122.211 54.425 122.211 54.5246ZM132.176 54.1183C132.163 54.6955 132.201 55.2728 132.291 55.8431C132.291 55.9427 132.498 55.9657 132.521 55.8431C132.514 55.2564 132.455 54.6715 132.344 54.0954C132.321 53.9957 132.176 54.0264 132.176 54.1183ZM132.206 51.6807C132.199 51.0966 132.14 50.5143 132.03 49.9407C132.03 49.841 131.862 49.864 131.862 49.9407C131.849 50.5153 131.887 51.0899 131.977 51.6577C132.015 51.7804 132.184 51.811 132.206 51.6807ZM136.308 49.5497C136.294 50.1269 136.333 50.7041 136.423 51.2744C136.461 51.3741 136.629 51.4048 136.66 51.2744C136.65 50.6876 136.588 50.1028 136.476 49.5267C136.446 49.4347 136.308 49.4577 136.308 49.5497ZM139.228 49.7337C139.219 50.3082 139.257 50.8825 139.343 51.4508C139.381 51.5504 139.55 51.5811 139.573 51.4508C139.57 50.8665 139.511 50.2838 139.397 49.7107C139.381 49.611 139.228 49.634 139.228 49.7337ZM136.829 53.9344C136.818 54.5093 136.859 55.0839 136.951 55.6514C136.951 55.7511 137.158 55.7818 137.181 55.6514C137.172 55.0671 137.11 54.4848 136.997 53.9114C136.982 53.8117 136.829 53.8347 136.829 53.9344ZM141.62 53.7811C141.609 54.3585 141.65 54.9357 141.742 55.5058C141.781 55.6055 141.949 55.6285 141.972 55.5058C141.967 54.9187 141.905 54.3334 141.788 53.7581C141.811 53.6584 141.62 53.6584 141.62 53.7811ZM144.065 53.6584C144.052 54.2331 144.091 54.8077 144.18 55.3755C144.18 55.4751 144.387 55.5058 144.41 55.3755C144.407 54.7912 144.348 54.2085 144.234 53.6354C144.218 53.5588 144.065 53.5818 144.065 53.6584ZM144.111 51.2131C144.104 50.6265 144.045 50.0416 143.935 49.4654C143.929 49.4464 143.917 49.4298 143.902 49.4179C143.886 49.4061 143.866 49.3997 143.847 49.3997C143.827 49.3997 143.807 49.4061 143.792 49.4179C143.776 49.4298 143.764 49.4464 143.758 49.4654C143.748 50.0428 143.789 50.62 143.881 51.1901C143.935 51.3051 144.111 51.3588 144.111 51.2131ZM145.56 139.558C149.193 136.538 149.393 131.463 149.477 127.025C148.71 126.879 144.257 128.926 143.927 128.934C145.141 127.509 145.967 125.796 146.326 123.959C146.771 122.556 148.143 114.706 146.94 115.68C143.728 117.673 140.892 119.589 137.741 121.812C137.741 121.084 137.289 114.055 136.208 111.755C135.495 111.257 134.722 110.85 133.908 110.544C133.993 110.414 136.032 108.643 135.725 108.712C135.264 106.318 134.673 103.951 133.954 101.621C128.726 106.106 126.48 114.216 125.714 121.115C125.461 120.348 123.92 114.706 122.602 113.357C119.957 117.658 119.068 123.422 119.597 128.458C117.956 127.692 105.883 128.857 109.049 130.175C112.077 132.851 115.181 135.242 117.228 138.607C116.278 138.607 112.69 138.538 109.785 138.561C108.606 138.488 107.423 138.488 106.243 138.561C110.033 138.858 113.837 138.925 117.634 138.761C115.657 135.189 111.709 132.237 108.681 129.616C112.218 128.523 115.944 128.184 119.62 128.619C119.727 128.788 119.62 129.93 119.965 129.792C119.232 124.249 120.166 118.613 122.648 113.603C123.866 115.542 125.821 121.805 126.166 124.81C126.572 124.12 125.867 122.51 125.783 121.521C127.009 114.553 128.167 108.206 133.326 102.265C134.238 101.376 134.092 102.702 134.675 104.496C135.045 105.872 135.345 107.267 135.572 108.674C135.656 108.674 134.475 109.732 133.87 110.283C133.103 110.973 136.277 111.602 136.208 112.215C136.893 115.402 137.359 118.631 137.603 121.881C136.185 123.016 133.947 124.618 133.333 126.021C137.166 121.789 142.471 118.785 147.177 115.665C147.338 120.402 146.411 126.304 143.544 129.079C137.634 132.145 149.63 126.895 149.239 127.155H149.285C149.331 131.755 148.419 137.626 145.184 139.55C145.077 139.619 136.43 139.681 139.473 139.834C141.581 139.78 148.419 139.719 148.473 139.504C147.729 139.251 146.48 139.566 145.56 139.558Z" fill="black"/>
<path d="M131.179 139.121C133.993 128.19 137.864 126.174 142.892 121.192C136.537 126.136 132.084 132.483 131.179 139.121ZM131.08 110.897C130.75 115.174 129.24 119.329 129.393 123.752C129.294 127.838 130.413 131.716 130.436 135.541C130.804 131.548 129.347 127.439 129.577 123.376C129.355 119.244 131.21 114.676 131.08 110.897ZM122.441 121.774C122.993 124.649 125.821 135.373 127.04 137.872C127.485 138.523 126.603 136.231 126.442 135.572C125.055 131.364 123.223 123.583 122.441 121.774ZM114.17 130.559C116.99 132.912 121.314 135.764 123.437 139.06C121.421 135.465 117.473 132.897 114.17 130.559ZM74.0943 131.992C72.1856 129.907 72.7605 129.256 71.2734 131.509C71.2044 131.333 65.532 128.535 66.6741 129.831C72.5919 135.334 68.3605 130.835 66.9808 129.831C72.8679 131.701 70.1696 132.789 72.4386 130.252C72.8985 130.444 73.9027 132.713 74.1787 132C74.3856 131.647 74.5849 131.233 74.8302 131.356C75.0679 131.908 75.5968 131.716 76.187 131.747C76.9536 131.64 78.2567 131.992 78.663 131.655C77.4819 131.695 76.2997 131.633 75.1292 131.471C74.6846 130.03 74.4546 131.663 74.0943 131.992ZM31.1062 133.671C32.233 131.279 37.5759 122.824 38.2198 121.084C35.6595 124.564 31.9418 130.689 31.1062 133.671ZM27.5954 126.979C25.9703 122.939 25.5947 117.78 24.1536 114.093C25.2958 118.256 25.7557 123.208 27.5954 126.979ZM24.4602 131.08C21.8156 128.681 18.9411 126.243 16.1815 123.905C18.7526 126.506 21.5203 128.905 24.4602 131.08ZM32.8846 77.0842C32.8846 76.9769 12.7167 76.701 9.24421 76.448C9.17522 76.448 9.1139 76.517 9.10623 76.586C9.03724 79.1539 9.29787 97.1678 9.37452 97.1678C13.2533 97.2292 28.8372 96.8689 32.7083 96.5776C32.8386 96.5853 32.8463 97.6201 32.8846 77.0842ZM32.5473 96.3476C28.7146 96.4013 13.4679 96.5929 9.63515 96.9992C9.35153 90.8668 9.17522 77.1532 9.37452 76.7086C9.47418 76.7776 32.1411 77.3908 32.601 77.2989C32.578 83.6459 32.532 90.0006 32.5473 96.3476ZM36.4491 81.1086C36.442 80.5245 36.383 79.9422 36.2728 79.3686C36.2728 79.3462 36.2639 79.3247 36.2481 79.3089C36.2323 79.2931 36.2108 79.2842 36.1884 79.2842C36.1661 79.2842 36.1446 79.2931 36.1288 79.3089C36.113 79.3247 36.1041 79.3462 36.1041 79.3686C36.0871 79.9458 36.1256 80.5234 36.2191 81.0933C36.2574 81.2083 36.4261 81.2543 36.4491 81.1086ZM11.6818 101.859C11.6687 102.436 11.7071 103.014 11.7968 103.584C11.7968 103.684 12.0038 103.707 12.0345 103.584C12.0251 102.997 11.9636 102.412 11.8505 101.836C11.8351 101.736 11.6818 101.759 11.6818 101.859ZM15.6296 101.859C15.6126 102.436 15.6511 103.014 15.7446 103.584C15.7829 103.684 15.9515 103.707 15.9745 103.584C15.9678 102.997 15.9088 102.412 15.7982 101.836C15.7829 101.736 15.6296 101.759 15.6296 101.859ZM16.6031 101.744C16.5886 102.319 16.6297 102.894 16.7257 103.461C16.7257 103.561 16.9327 103.592 16.9557 103.461C16.9498 102.877 16.8882 102.294 16.7717 101.721C16.7564 101.621 16.6031 101.644 16.6031 101.744ZM44.5438 93.3198C44.5384 92.7326 44.4768 92.1474 44.3599 91.572C44.3599 91.4724 44.1912 91.503 44.1912 91.572C44.1808 92.1494 44.2219 92.7266 44.3139 93.2968C44.3522 93.4194 44.5208 93.4424 44.5438 93.3198ZM46.2532 90.3915C46.2473 89.807 46.1857 89.2243 46.0693 88.6515C46.0693 88.5518 45.9006 88.5748 45.9006 88.6515C45.8899 89.2264 45.931 89.801 46.0233 90.3685C46.0616 90.4912 46.2302 90.5219 46.2532 90.3915ZM38.1125 81.0396C39.293 81.2543 39.3543 79.8745 38.5494 79.2996C38.0358 78.9469 37.5146 79.7748 37.4532 80.0661C37.4167 80.282 37.4649 80.5037 37.5877 80.685C37.7105 80.8664 37.8984 80.9934 38.1125 81.0396ZM37.7062 79.9358C38.1585 78.9393 38.902 79.9358 38.8177 80.3344C38.7976 80.414 38.7614 80.4886 38.7112 80.5535C38.661 80.6185 38.598 80.6724 38.5261 80.7119C38.4542 80.7515 38.3749 80.7758 38.2932 80.7834C38.2115 80.791 38.1291 80.7816 38.0512 80.756C37.9739 80.7257 37.9036 80.6803 37.8442 80.6223C37.7849 80.5644 37.7377 80.4952 37.7056 80.4187C37.6734 80.3422 37.6569 80.2601 37.657 80.1772C37.6571 80.0942 37.6739 80.0122 37.7062 79.9358ZM45.9926 93.2891C46.1044 93.3077 46.2188 93.304 46.3291 93.2781C46.4395 93.2523 46.5436 93.2049 46.6355 93.1386C46.7275 93.0723 46.8054 92.9885 46.8647 92.892C46.9241 92.7955 46.9638 92.6881 46.9815 92.5762C47.0275 92.1699 45.9543 90.4605 45.341 92.2773C45.3129 92.3867 45.3077 92.5008 45.3257 92.6123C45.3438 92.7239 45.3847 92.8305 45.4458 92.9255C45.507 93.0205 45.5872 93.1018 45.6813 93.1644C45.7753 93.227 45.8813 93.2694 45.9926 93.2891ZM45.5863 92.1776C45.9543 91.2577 46.7898 92.1776 46.6978 92.5762C46.6799 92.657 46.6449 92.7331 46.5953 92.7993C46.5456 92.8655 46.4824 92.9204 46.4099 92.9603C46.3374 93.0002 46.2572 93.0242 46.1746 93.0307C46.0921 93.0371 46.0091 93.0259 45.9313 92.9978C45.7822 92.9292 45.6658 92.805 45.6071 92.6517C45.5484 92.4984 45.5519 92.3283 45.617 92.1776H45.5863ZM13.1919 102.426C13.1639 102.536 13.1589 102.651 13.1774 102.763C13.1959 102.875 13.2375 102.982 13.2994 103.077C13.3614 103.172 13.4424 103.253 13.5374 103.316C13.6324 103.378 13.7392 103.419 13.8512 103.438C13.9625 103.457 14.0764 103.453 14.1863 103.427C14.2962 103.401 14.3998 103.354 14.4911 103.287C14.5824 103.221 14.6596 103.137 14.7182 103.041C14.7768 102.944 14.8156 102.837 14.8324 102.725C14.886 102.311 13.8665 100.847 13.1919 102.426ZM14.5641 102.718C14.545 102.798 14.5094 102.873 14.4595 102.939C14.4096 103.004 14.3465 103.059 14.2743 103.098C14.202 103.138 14.1223 103.162 14.0402 103.169C13.9581 103.176 13.8754 103.166 13.7975 103.139C13.719 103.111 13.6471 103.066 13.5863 103.009C13.5255 102.951 13.4771 102.882 13.4441 102.805C13.4111 102.728 13.3941 102.646 13.3943 102.562C13.3944 102.478 13.4116 102.396 13.4449 102.319C13.8665 101.468 14.6407 102.304 14.5641 102.718Z" fill="black"/>
<path d="M29.2437 80.4878C26.4151 80.4495 15.0778 80.1122 12.2876 80.3498V80.4035C15.0702 80.7178 26.4151 80.6948 29.2437 80.7331C29.2762 80.7331 29.3074 80.7202 29.3304 80.6972C29.3534 80.6742 29.3663 80.643 29.3663 80.6104C29.3663 80.5779 29.3534 80.5467 29.3304 80.5237C29.3074 80.5007 29.2762 80.4878 29.2437 80.4878ZM29.5196 84.0293C26.6911 83.9909 15.3461 83.6536 12.5636 83.8989V83.9449C15.3385 84.2592 26.6911 84.2362 29.5196 84.2745C29.5522 84.2745 29.5834 84.2616 29.6064 84.2386C29.6294 84.2156 29.6423 84.1844 29.6423 84.1519C29.6423 84.1194 29.6294 84.0882 29.6064 84.0652C29.5834 84.0422 29.5522 84.0293 29.5196 84.0293ZM29.7496 88.0536C26.9287 88.0153 15.5838 87.678 12.7935 87.9233V87.9693C15.5761 88.2913 26.9287 88.2606 29.7496 88.2989C29.7821 88.2989 29.8133 88.286 29.8363 88.263C29.8593 88.24 29.8723 88.2088 29.8723 88.1763C29.8723 88.1438 29.8593 88.1126 29.8363 88.0896C29.8133 88.0666 29.7821 88.0536 29.7496 88.0536ZM29.7496 92.0857C26.9287 92.0857 15.5838 91.7101 12.7935 91.9554V92.0014C15.5684 92.3157 26.9287 92.2927 29.7496 92.331C29.7821 92.331 29.8133 92.3181 29.8363 92.2951C29.8593 92.2721 29.8723 92.2409 29.8723 92.2083C29.8723 92.1758 29.8593 92.1446 29.8363 92.1216C29.8133 92.0986 29.7821 92.0857 29.7496 92.0857ZM70.783 47.3268C70.7719 47.3223 70.7596 47.3216 70.748 47.3248C70.7364 47.3281 70.7263 47.3352 70.7192 47.3449C70.7122 47.3546 70.7086 47.3664 70.709 47.3785C70.7095 47.3905 70.7139 47.402 70.7217 47.4112C71.079 47.7902 71.4717 48.1341 71.8945 48.4383C71.9558 48.4383 72.0325 48.4383 71.9865 48.3463C71.6193 47.9683 71.2163 47.6269 70.783 47.3268ZM71.8869 42.4362C71.8869 42.4362 71.9635 42.4362 71.9405 42.3826C71.6335 42.0256 71.2804 41.7111 70.8903 41.4474C70.8367 41.4474 70.783 41.4474 70.8214 41.5317C71.1363 41.8776 71.4944 42.1816 71.8869 42.4362ZM75.1217 42.9268C75.3749 42.8862 75.6174 42.795 75.8346 42.6585C75.8806 42.6585 75.8346 42.5512 75.8346 42.5589C75.565 42.5824 75.3036 42.6634 75.068 42.7965C75.0144 42.8425 75.068 42.9268 75.1217 42.9268ZM71.197 43.1645C71.1261 43.4527 71.1079 43.7513 71.1433 44.046C71.1433 44.0997 71.2353 44.1227 71.266 44.046C71.3248 43.7499 71.3248 43.4452 71.266 43.1491C71.2545 43.1429 71.2413 43.141 71.2286 43.1438C71.2159 43.1467 71.2047 43.154 71.197 43.1645ZM75.5663 43.7547C75.4943 44.0052 75.4943 44.2708 75.5663 44.5213C75.5713 44.5276 75.5777 44.5328 75.585 44.5363C75.5923 44.5399 75.6003 44.5417 75.6085 44.5417C75.6166 44.5417 75.6246 44.5399 75.6319 44.5363C75.6392 44.5328 75.6456 44.5276 75.6506 44.5213C75.7226 44.2708 75.7226 44.0052 75.6506 43.7547C75.6385 43.7454 75.6237 43.7403 75.6085 43.7403C75.5932 43.7403 75.5784 43.7454 75.5663 43.7547ZM73.5349 44.3143C73.5349 44.5902 73.8952 46.338 73.2973 46.108C73.1977 46.108 73.144 46.246 73.2513 46.2767C73.3586 46.3073 73.8186 46.361 73.8799 46.0697C73.8428 45.4736 73.7452 44.8829 73.5886 44.3066C73.5886 44.3066 73.5349 44.276 73.5349 44.3143ZM45.6325 23.1345C46.1078 25.7254 47.8019 22.7436 48.0778 21.6474C48.8444 23.5408 51.2053 23.3721 51.5656 21.5248C52.1942 22.0613 54.2792 22.207 53.8653 20.7965C54.6318 20.6892 54.8388 19.6007 54.4555 18.8418H54.9154C54.7355 18.3188 54.401 17.8629 53.956 17.5343C53.5111 17.2058 52.9769 17.0202 52.4242 17.0021C51.5882 16.8836 50.7377 17.0744 50.0325 17.5387C49.9751 17.3657 49.8746 17.2102 49.7405 17.0868C49.6064 16.9635 49.4431 16.8763 49.266 16.8335C49.2701 16.7543 49.2701 16.675 49.266 16.5958C49.22 15.7143 49.1893 12.7018 51.0367 11.7129C51.489 11.5289 51.3587 11.4829 50.9217 11.6669C49.1816 12.4335 48.9977 14.9554 49.1203 16.6955C48.8008 15.4674 48.283 14.2996 47.5872 13.2383C47.2959 12.8474 46.5754 12.1958 46.5294 12.3032C46.4834 12.4105 47.2193 12.9087 47.4799 13.292C48.1209 14.4063 48.5912 15.6104 48.875 16.8641C48.6558 16.9373 48.4548 17.0565 48.2855 17.2139C48.1163 17.3712 47.9827 17.563 47.8938 17.7763C46.4297 17.2397 43.7391 18.1673 43.7085 20.3979L46.1154 19.7234C44.7587 20.5819 43.0646 23.6251 45.6325 23.1345ZM47.8785 21.8084C47.5796 22.7129 46.2611 25.1889 45.7015 23.1115C46.9127 22.6822 47.7252 21.4711 48.3691 20.3213C48.3614 20.3596 47.9168 21.7087 47.8785 21.8084ZM50.1782 20.1603C50.3507 20.4175 50.543 20.661 50.7531 20.8885C50.1705 21.7777 49.0283 21.5171 48.3078 20.9882C48.3998 20.7352 48.4917 20.4746 48.5761 20.2216C48.6824 20.3324 48.8111 20.4195 48.9535 20.477C49.0959 20.5346 49.2489 20.5613 49.4024 20.5556C49.5559 20.5498 49.7064 20.5115 49.8441 20.4434C49.9817 20.3753 50.1034 20.2788 50.2012 20.1603H50.1782ZM48.6451 20.1066C48.7115 19.8752 48.7627 19.6396 48.7984 19.4014C48.9311 19.5351 49.1084 19.6153 49.2964 19.6266C49.4845 19.6379 49.6701 19.5796 49.8179 19.4627C49.9122 19.6549 50.0171 19.8418 50.1322 20.0223C50.039 20.1783 49.8963 20.2985 49.7267 20.3638C49.5572 20.4291 49.3707 20.4357 49.197 20.3826C49.0011 20.3053 48.8115 20.213 48.6297 20.1066H48.6451ZM49.4576 22.7896C49.1588 22.6844 48.887 22.5143 48.6617 22.2917C48.4364 22.069 48.2632 21.7993 48.1545 21.5018C48.1928 21.4098 48.2388 21.2718 48.3231 21.0572C48.4795 21.2508 48.6784 21.406 48.9043 21.5106C49.1302 21.6153 49.3771 21.6666 49.626 21.6607C49.8749 21.6548 50.1191 21.5917 50.3398 21.4765C50.5604 21.3612 50.7517 21.1967 50.8987 20.9958C51.0591 21.1491 51.2307 21.29 51.4123 21.4174C51.3862 21.6429 51.3124 21.8603 51.1959 22.0551C51.0794 22.2499 50.9228 22.4178 50.7365 22.5475C50.5503 22.6772 50.3386 22.7659 50.1154 22.8076C49.8923 22.8494 49.6628 22.8432 49.4423 22.7896H49.4576ZM51.6806 21.3638C50.5078 20.8579 49.6186 18.8418 49.6109 18.8342H49.6569C50.1414 19.4345 50.7496 19.9233 51.4402 20.2672C52.1307 20.6111 52.8873 20.8022 53.6583 20.8272C54.1182 22.3143 52.0102 21.5094 51.6653 21.3638H51.6806ZM54.1489 18.8342C55.4367 21.2948 51.8492 21.0802 49.7412 18.8342H54.1489ZM48.9593 17.0174C49.4576 16.9561 49.7259 17.2627 49.8639 17.6537C49.5116 17.9592 49.2737 18.3755 49.1893 18.8342H49.5189L49.7106 19.2788C49.4729 19.5854 49.0973 19.4934 48.7984 19.3248C48.8444 19.1944 48.8827 19.0565 48.9287 18.9185L49.1893 18.8495C48.9597 18.3852 48.5666 18.0221 48.0855 17.83C48.2924 17.4544 48.4611 17.0788 48.9593 17.0174ZM48.7294 18.9721C48.1545 20.5052 46.9587 23.0425 45.0806 23.0119C43.3942 22.7206 45.7322 19.984 46.3684 19.639L48.7294 18.9721ZM111.15 54.8084C110.954 54.7672 110.751 54.7875 110.568 54.8663C110.385 54.9451 110.231 55.0787 110.127 55.2486C110.023 55.4186 109.974 55.6166 109.986 55.8155C109.999 56.0145 110.073 56.2046 110.198 56.3597C110.324 56.5149 110.494 56.6276 110.685 56.6822C110.877 56.7369 111.081 56.7309 111.269 56.6651C111.457 56.5993 111.621 56.4768 111.736 56.3146C111.852 56.1523 111.915 55.9582 111.916 55.7589C111.936 55.5321 111.867 55.3066 111.724 55.1294C111.581 54.9522 111.375 54.8372 111.15 54.8084ZM111.15 56.4488C111.007 56.4707 110.862 56.4485 110.732 56.3852C110.603 56.3218 110.496 56.2204 110.426 56.0945C110.356 55.9686 110.326 55.8243 110.341 55.681C110.355 55.5376 110.413 55.4022 110.507 55.2928C110.601 55.1834 110.726 55.1054 110.865 55.0692C111.004 55.033 111.152 55.0403 111.287 55.0902C111.422 55.1402 111.538 55.2303 111.621 55.3484C111.703 55.4666 111.747 55.6072 111.747 55.7512C111.76 55.9229 111.704 56.0926 111.592 56.2233C111.48 56.354 111.321 56.4351 111.15 56.4488ZM119.451 54.4251C119.256 54.384 119.053 54.4042 118.87 54.483C118.687 54.5618 118.533 54.6954 118.429 54.8653C118.324 55.0353 118.275 55.2333 118.288 55.4323C118.301 55.6312 118.375 55.8213 118.5 55.9765C118.625 56.1316 118.795 56.2443 118.987 56.299C119.179 56.3536 119.383 56.3477 119.571 56.2818C119.759 56.216 119.922 56.0936 120.038 55.9313C120.154 55.7691 120.217 55.575 120.218 55.3756C120.237 55.1489 120.169 54.9233 120.026 54.7461C119.883 54.569 119.677 54.4539 119.451 54.4251ZM119.451 56.0655C119.309 56.0874 119.163 56.0652 119.034 56.0019C118.904 55.9385 118.798 55.8371 118.728 55.7112C118.658 55.5853 118.628 55.441 118.642 55.2977C118.657 55.1544 118.715 55.0189 118.809 54.9095C118.902 54.8002 119.027 54.7221 119.167 54.6859C119.306 54.6497 119.453 54.657 119.588 54.707C119.723 54.7569 119.84 54.847 119.922 54.9652C120.005 55.0833 120.049 55.2239 120.049 55.3679C120.058 55.5383 119.999 55.7052 119.886 55.8327C119.772 55.9603 119.614 56.0383 119.444 56.0502L119.451 56.0655ZM129.018 53.9345C128.823 53.8934 128.62 53.9136 128.437 53.9924C128.254 54.0712 128.099 54.2048 127.995 54.3747C127.891 54.5447 127.842 54.7427 127.855 54.9417C127.868 55.1406 127.942 55.3307 128.067 55.4859C128.192 55.6411 128.362 55.7537 128.554 55.8084C128.745 55.8631 128.949 55.8571 129.137 55.7912C129.326 55.7254 129.489 55.603 129.605 55.4407C129.72 55.2785 129.783 55.0844 129.784 54.885C129.804 54.6583 129.735 54.4327 129.592 54.2555C129.449 54.0784 129.244 53.9633 129.018 53.9345ZM129.018 55.5749C128.875 55.5968 128.73 55.5746 128.6 55.5113C128.471 55.4479 128.364 55.3465 128.294 55.2206C128.224 55.0947 128.194 54.9504 128.209 54.8071C128.223 54.6638 128.281 54.5283 128.375 54.4189C128.469 54.3096 128.594 54.2315 128.733 54.1953C128.873 54.1591 129.02 54.1665 129.155 54.2164C129.29 54.2663 129.407 54.3564 129.489 54.4746C129.571 54.5927 129.616 54.7333 129.616 54.8773C129.622 54.963 129.611 55.049 129.584 55.1304C129.557 55.2119 129.514 55.2872 129.458 55.352C129.402 55.4168 129.333 55.4699 129.256 55.5081C129.179 55.5464 129.096 55.5691 129.01 55.5749H129.018ZM121.935 50.1554C121.74 50.1143 121.537 50.1345 121.354 50.2133C121.171 50.2921 121.016 50.4257 120.912 50.5956C120.808 50.7656 120.759 50.9636 120.772 51.1626C120.785 51.3615 120.859 51.5516 120.984 51.7068C121.109 51.862 121.279 51.9746 121.471 52.0293C121.662 52.084 121.866 52.078 122.055 52.0122C122.243 51.9463 122.406 51.8239 122.522 51.6616C122.638 51.4994 122.7 51.3053 122.701 51.1059C122.721 50.8792 122.652 50.6536 122.509 50.4764C122.367 50.2993 122.161 50.1842 121.935 50.1554ZM121.935 51.7882C121.765 51.7744 121.607 51.6944 121.495 51.5654C121.383 51.4364 121.326 51.2687 121.337 51.0983C121.323 51.0117 121.328 50.9232 121.352 50.8388C121.375 50.7544 121.417 50.6761 121.474 50.6094C121.531 50.5427 121.601 50.4891 121.681 50.4524C121.761 50.4157 121.847 50.3966 121.935 50.3966C122.023 50.3966 122.109 50.4157 122.189 50.4524C122.268 50.4891 122.339 50.5427 122.396 50.6094C122.453 50.6761 122.494 50.7544 122.518 50.8388C122.542 50.9232 122.547 51.0117 122.533 51.0983C122.543 51.2699 122.486 51.4387 122.372 51.568C122.259 51.6972 122.099 51.7763 121.927 51.7882H121.935ZM121.881 47.3805C122.076 47.4216 122.279 47.4014 122.462 47.3226C122.646 47.2437 122.8 47.1102 122.904 46.9402C123.008 46.7703 123.057 46.5723 123.044 46.3733C123.032 46.1744 122.958 45.9843 122.832 45.8291C122.707 45.6739 122.537 45.5613 122.345 45.5066C122.154 45.4519 121.95 45.4579 121.762 45.5237C121.573 45.5896 121.41 45.712 121.294 45.8743C121.179 46.0365 121.116 46.2306 121.115 46.43C121.095 46.6567 121.164 46.8823 121.307 47.0594C121.45 47.2366 121.655 47.3517 121.881 47.3805ZM121.881 45.7324C122.051 45.7461 122.209 45.8261 122.321 45.9551C122.433 46.0841 122.49 46.2519 122.479 46.4223C122.493 46.5088 122.488 46.5974 122.464 46.6818C122.441 46.7662 122.399 46.8444 122.342 46.9111C122.285 46.9778 122.215 47.0314 122.135 47.0682C122.055 47.1049 121.969 47.1239 121.881 47.1239C121.794 47.1239 121.707 47.1049 121.627 47.0682C121.548 47.0314 121.477 46.9778 121.42 46.9111C121.363 46.8444 121.322 46.7662 121.298 46.6818C121.274 46.5974 121.269 46.5088 121.283 46.4223C121.273 46.2519 121.329 46.0841 121.441 45.9551C121.553 45.8261 121.711 45.7461 121.881 45.7324ZM116.009 50.2704C115.787 50.3106 115.585 50.4278 115.44 50.6015C115.295 50.7752 115.215 50.9945 115.215 51.2209C115.215 51.4473 115.295 51.6666 115.44 51.8403C115.585 52.014 115.787 52.1312 116.009 52.1714C116.232 52.1312 116.434 52.014 116.579 51.8403C116.724 51.6666 116.804 51.4473 116.804 51.2209C116.804 50.9945 116.724 50.7752 116.579 50.6015C116.434 50.4278 116.232 50.3106 116.009 50.2704ZM116.009 51.9108C115.838 51.8971 115.679 51.816 115.567 51.6853C115.455 51.5546 115.399 51.3849 115.412 51.2132C115.398 51.1267 115.403 51.0382 115.426 50.9538C115.45 50.8694 115.492 50.7911 115.549 50.7244C115.605 50.6577 115.676 50.6041 115.756 50.5674C115.835 50.5306 115.922 50.5116 116.009 50.5116C116.097 50.5116 116.184 50.5306 116.263 50.5674C116.343 50.6041 116.414 50.6577 116.47 50.7244C116.527 50.7911 116.569 50.8694 116.593 50.9538C116.616 51.0382 116.621 51.1267 116.607 51.2132C116.614 51.2988 116.603 51.3849 116.576 51.4663C116.549 51.5478 116.506 51.6231 116.45 51.6879C116.393 51.7527 116.325 51.8058 116.248 51.844C116.171 51.8823 116.087 51.905 116.002 51.9108H116.009ZM108.007 50.4774C107.813 50.4378 107.612 50.4591 107.431 50.5383C107.25 50.6175 107.098 50.7507 106.996 50.9196C106.893 51.0886 106.846 51.2851 106.859 51.4822C106.873 51.6793 106.947 51.8673 107.072 52.0206C107.196 52.1739 107.365 52.285 107.555 52.3385C107.746 52.392 107.948 52.3855 108.134 52.3198C108.32 52.254 108.482 52.1323 108.596 51.9713C108.711 51.8102 108.772 51.6178 108.773 51.4202C108.793 51.1943 108.724 50.9697 108.581 50.7937C108.438 50.6178 108.232 50.5044 108.007 50.4774ZM108.007 52.1101C107.835 52.0964 107.676 52.0153 107.564 51.8846C107.452 51.7539 107.396 51.5842 107.409 51.4125C107.426 51.298 107.476 51.1909 107.553 51.104C107.63 51.0171 107.73 50.954 107.841 50.9222C107.953 50.8904 108.071 50.8912 108.182 50.9246C108.293 50.958 108.392 51.0224 108.467 51.1104C108.543 51.1984 108.591 51.3062 108.607 51.4209C108.623 51.5357 108.606 51.6526 108.557 51.7579C108.509 51.8631 108.431 51.9522 108.334 52.0147C108.236 52.0771 108.123 52.1102 108.007 52.1101ZM128.964 51.7498C129.157 51.7893 129.358 51.7681 129.539 51.6892C129.72 51.6103 129.872 51.4776 129.974 51.3091C130.077 51.1406 130.125 50.9446 130.112 50.7478C130.099 50.551 130.025 50.363 129.902 50.2095C129.778 50.056 129.61 49.9444 129.42 49.89C129.23 49.8356 129.029 49.841 128.842 49.9055C128.656 49.97 128.494 50.0905 128.379 50.2504C128.263 50.4104 128.2 50.6021 128.198 50.7993C128.178 51.0261 128.247 51.2516 128.39 51.4288C128.533 51.6059 128.738 51.721 128.964 51.7498ZM128.964 50.1017C129.136 50.1155 129.295 50.1965 129.407 50.3272C129.519 50.4579 129.575 50.6276 129.562 50.7993C129.576 50.8858 129.571 50.9744 129.547 51.0588C129.524 51.1432 129.482 51.2214 129.425 51.2881C129.368 51.3548 129.298 51.4084 129.218 51.4452C129.138 51.4819 129.052 51.5009 128.964 51.5009C128.877 51.5009 128.79 51.4819 128.71 51.4452C128.631 51.4084 128.56 51.3548 128.503 51.2881C128.446 51.2214 128.405 51.1432 128.381 51.0588C128.357 50.9744 128.352 50.8858 128.366 50.7993C128.353 50.6288 128.408 50.4602 128.519 50.3297C128.629 50.1992 128.786 50.1174 128.956 50.1017H128.964ZM135.066 50.7686C135.039 50.6166 134.97 50.4753 134.865 50.3617C134.76 50.2482 134.625 50.1671 134.476 50.1282C134.327 50.0892 134.169 50.0941 134.022 50.1422C133.876 50.1903 133.746 50.2795 133.648 50.3993C133.551 50.5191 133.49 50.6644 133.473 50.8178C133.456 50.9713 133.483 51.1264 133.552 51.2647C133.621 51.403 133.728 51.5187 133.86 51.5979C133.993 51.6771 134.145 51.7165 134.299 51.7115C134.524 51.6827 134.728 51.5687 134.871 51.3932C135.014 51.2178 135.083 50.9941 135.066 50.7686ZM133.663 50.7686C133.681 50.6541 133.731 50.547 133.807 50.4601C133.884 50.3732 133.984 50.3101 134.095 50.2783C134.207 50.2465 134.325 50.2473 134.436 50.2807C134.547 50.3141 134.646 50.3786 134.721 50.4665C134.797 50.5545 134.845 50.6623 134.861 50.777C134.877 50.8918 134.86 51.0087 134.812 51.114C134.763 51.2192 134.686 51.3083 134.588 51.3708C134.49 51.4332 134.377 51.4663 134.261 51.4662C134.175 51.4594 134.092 51.4358 134.015 51.3966C133.939 51.3575 133.871 51.3036 133.815 51.238C133.76 51.1725 133.718 51.0966 133.692 51.0147C133.665 50.9328 133.656 50.8466 133.663 50.761V50.7686ZM141.712 49.6188C141.517 49.5777 141.314 49.5979 141.131 49.6767C140.948 49.7556 140.793 49.8891 140.689 50.0591C140.585 50.229 140.536 50.427 140.549 50.626C140.562 50.8249 140.636 51.015 140.761 51.1702C140.886 51.3254 141.056 51.438 141.248 51.4927C141.439 51.5474 141.643 51.5414 141.832 51.4756C142.02 51.4097 142.183 51.2873 142.299 51.125C142.415 50.9628 142.477 50.7687 142.478 50.5693C142.498 50.3426 142.429 50.117 142.286 49.9399C142.144 49.7627 141.938 49.6477 141.712 49.6188ZM141.712 51.2592C141.54 51.2455 141.38 51.1647 141.266 51.0343C141.153 50.9038 141.096 50.7341 141.106 50.5617C141.097 50.4769 141.105 50.3912 141.131 50.3099C141.157 50.2287 141.2 50.1538 141.256 50.0902C141.313 50.0266 141.383 49.9757 141.461 49.9409C141.538 49.9061 141.623 49.8881 141.708 49.8881C141.793 49.8881 141.878 49.9061 141.955 49.9409C142.033 49.9757 142.103 50.0266 142.16 50.0902C142.216 50.1538 142.259 50.2287 142.285 50.3099C142.311 50.3912 142.319 50.4769 142.31 50.5617C142.316 50.6473 142.305 50.7333 142.278 50.8147C142.251 50.8962 142.208 50.9715 142.152 51.0363C142.096 51.1011 142.027 51.1542 141.95 51.1925C141.874 51.2307 141.79 51.2534 141.704 51.2592H141.712ZM136.492 45.8627C136.296 45.8215 136.093 45.8419 135.91 45.921C135.726 46.0001 135.572 46.1342 135.468 46.3046C135.364 46.475 135.315 46.6735 135.329 46.8727C135.342 47.072 135.417 47.2621 135.543 47.4171C135.669 47.572 135.84 47.6841 136.032 47.7379C136.224 47.7917 136.429 47.7846 136.617 47.7176C136.805 47.6505 136.967 47.5268 137.082 47.3635C137.197 47.2002 137.259 47.0053 137.258 46.8056C137.276 46.5801 137.206 46.3565 137.063 46.181C136.921 46.0055 136.716 45.8915 136.492 45.8627ZM136.492 47.4955C136.322 47.4817 136.164 47.4018 136.052 47.2727C135.94 47.1437 135.883 46.976 135.894 46.8056C135.88 46.719 135.885 46.6305 135.909 46.5461C135.932 46.4617 135.974 46.3835 136.031 46.3167C136.088 46.25 136.158 46.1965 136.238 46.1597C136.317 46.123 136.404 46.104 136.492 46.104C136.579 46.104 136.666 46.123 136.746 46.1597C136.825 46.1965 136.896 46.25 136.953 46.3167C137.009 46.3835 137.051 46.4617 137.075 46.5461C137.098 46.6305 137.103 46.719 137.09 46.8056C137.099 46.893 137.091 46.9815 137.065 47.0656C137.04 47.1497 136.997 47.2278 136.941 47.2951C136.884 47.3625 136.814 47.4176 136.736 47.4573C136.657 47.497 136.572 47.5204 136.484 47.5261L136.492 47.4955ZM141.674 47.5798C141.869 47.6209 142.072 47.6007 142.255 47.5219C142.438 47.4431 142.592 47.3095 142.696 47.1395C142.8 46.9696 142.85 46.7716 142.837 46.5726C142.824 46.3737 142.75 46.1836 142.625 46.0284C142.5 45.8732 142.329 45.7606 142.138 45.7059C141.946 45.6512 141.742 45.6572 141.554 45.723C141.366 45.7889 141.203 45.9113 141.087 46.0736C140.971 46.2358 140.908 46.4299 140.907 46.6293C140.887 46.856 140.956 47.0816 141.099 47.2588C141.242 47.4359 141.448 47.551 141.674 47.5798ZM141.674 45.9317C141.844 45.9454 142.002 46.0254 142.114 46.1544C142.225 46.2835 142.282 46.4512 142.271 46.6216C142.285 46.7081 142.28 46.7967 142.257 46.8811C142.233 46.9655 142.191 47.0437 142.134 47.1104C142.078 47.1771 142.007 47.2307 141.927 47.2675C141.848 47.3042 141.761 47.3232 141.674 47.3232C141.586 47.3232 141.499 47.3042 141.42 47.2675C141.34 47.2307 141.27 47.1771 141.213 47.1104C141.156 47.0437 141.114 46.9655 141.09 46.8811C141.067 46.7967 141.062 46.7081 141.076 46.6216C141.065 46.4524 141.121 46.2857 141.231 46.1569C141.341 46.0281 141.497 45.9473 141.666 45.9317H141.674ZM142.149 41.8153C141.955 41.7758 141.754 41.7971 141.573 41.8763C141.392 41.9555 141.24 42.0887 141.138 42.2576C141.035 42.4266 140.988 42.6231 141.001 42.8202C141.015 43.0173 141.089 43.2053 141.214 43.3586C141.338 43.5119 141.507 43.6229 141.697 43.6765C141.888 43.73 142.09 43.7235 142.276 43.6578C142.462 43.592 142.624 43.4703 142.738 43.3093C142.853 43.1482 142.915 42.9558 142.915 42.7582C142.935 42.5323 142.866 42.3077 142.723 42.1317C142.58 41.9558 142.374 41.8423 142.149 41.8153ZM142.149 43.4481C141.977 43.4344 141.818 43.3533 141.706 43.2226C141.594 43.0919 141.538 42.9222 141.551 42.7505C141.541 42.6658 141.55 42.58 141.576 42.4988C141.602 42.4175 141.644 42.3427 141.701 42.2791C141.758 42.2155 141.827 42.1646 141.905 42.1298C141.983 42.0949 142.067 42.0769 142.153 42.0769C142.238 42.0769 142.322 42.0949 142.4 42.1298C142.478 42.1646 142.547 42.2155 142.604 42.2791C142.661 42.3427 142.704 42.4175 142.73 42.4988C142.756 42.58 142.764 42.6658 142.754 42.7505C142.765 42.9242 142.706 43.095 142.591 43.2256C142.477 43.3563 142.315 43.4363 142.141 43.4481H142.149ZM139.451 38.9101C139.424 38.758 139.354 38.6168 139.25 38.5032C139.145 38.3897 139.01 38.3086 138.861 38.2696C138.711 38.2307 138.554 38.2356 138.407 38.2837C138.26 38.3317 138.131 38.421 138.033 38.5408C137.936 38.6606 137.875 38.8059 137.858 38.9593C137.841 39.1127 137.868 39.2679 137.937 39.4062C138.005 39.5445 138.112 39.6601 138.245 39.7394C138.377 39.8186 138.53 39.858 138.684 39.853C138.908 39.8242 139.113 39.7102 139.256 39.5347C139.398 39.3592 139.468 39.1356 139.451 38.9101ZM138.048 38.9101C138.065 38.7956 138.115 38.6885 138.192 38.6016C138.269 38.5147 138.369 38.4516 138.48 38.4198C138.592 38.388 138.71 38.3888 138.821 38.4222C138.932 38.4555 139.031 38.52 139.106 38.608C139.182 38.696 139.23 38.8037 139.246 38.9185C139.262 39.0333 139.245 39.1502 139.196 39.2554C139.148 39.3607 139.07 39.4498 138.973 39.5122C138.875 39.5747 138.762 39.6078 138.646 39.6077C138.56 39.6009 138.477 39.5773 138.4 39.5381C138.324 39.4989 138.256 39.445 138.2 39.3795C138.144 39.3139 138.102 39.238 138.076 39.1562C138.05 39.0743 138.04 38.9881 138.048 38.9024V38.9101ZM136.798 34.4948C136.765 34.3555 136.694 34.2282 136.592 34.1273C136.491 34.0265 136.363 33.9561 136.223 33.9242C136.084 33.8922 135.938 33.9 135.803 33.9466C135.668 33.9932 135.548 34.0767 135.458 34.1878C135.367 34.2989 135.31 34.433 135.292 34.575C135.274 34.7171 135.296 34.8613 135.356 34.9914C135.416 35.1214 135.511 35.2322 135.63 35.3111C135.749 35.3899 135.889 35.4338 136.032 35.4376C136.256 35.4088 136.461 35.2949 136.603 35.1194C136.746 34.9439 136.816 34.7203 136.798 34.4948ZM135.403 34.4948C135.421 34.3803 135.471 34.2732 135.548 34.1863C135.624 34.0994 135.724 34.0363 135.836 34.0045C135.947 33.9727 136.065 33.9735 136.176 34.0068C136.287 34.0402 136.386 34.1047 136.462 34.1927C136.537 34.2806 136.586 34.3884 136.602 34.5032C136.618 34.6179 136.6 34.7349 136.552 34.8401C136.503 34.9453 136.426 35.0345 136.328 35.0969C136.23 35.1593 136.117 35.1925 136.001 35.1923C135.829 35.1786 135.67 35.0976 135.558 34.9669C135.446 34.8362 135.39 34.6665 135.403 34.4948ZM134.744 28.7227C134.943 28.7166 135.135 28.6522 135.298 28.5374C135.46 28.4226 135.585 28.2626 135.657 28.0773C135.729 27.8919 135.744 27.6895 135.702 27.4953C135.659 27.3011 135.561 27.1237 135.418 26.9852C135.275 26.8467 135.095 26.7534 134.9 26.7167C134.704 26.6801 134.502 26.7019 134.319 26.7793C134.136 26.8567 133.98 26.9863 133.87 27.152C133.76 27.3176 133.702 27.512 133.701 27.7108C133.703 27.8457 133.732 27.9789 133.785 28.1027C133.839 28.2266 133.916 28.3387 134.013 28.4327C134.11 28.5266 134.224 28.6006 134.35 28.6504C134.475 28.7001 134.609 28.7247 134.744 28.7227ZM134.744 26.9596C134.896 26.9596 135.044 27.0046 135.17 27.0888C135.296 27.173 135.394 27.2927 135.452 27.4328C135.51 27.5729 135.525 27.727 135.496 27.8757C135.466 28.0244 135.393 28.161 135.286 28.2682C135.179 28.3754 135.042 28.4484 134.894 28.478C134.745 28.5075 134.591 28.4924 134.451 28.4343C134.311 28.3763 134.191 28.2781 134.107 28.152C134.022 28.026 133.977 27.8778 133.977 27.7261C133.977 27.5255 134.056 27.3328 134.196 27.1895C134.337 27.0461 134.528 26.9636 134.729 26.9596H134.744ZM139.228 28.7763C139.427 28.7703 139.62 28.7059 139.782 28.5911C139.944 28.4763 140.069 28.3163 140.141 28.1309C140.213 27.9456 140.229 27.7432 140.186 27.5489C140.144 27.3547 140.045 27.1773 139.902 27.0389C139.76 26.9004 139.579 26.807 139.384 26.7704C139.189 26.7338 138.987 26.7555 138.804 26.8329C138.621 26.9103 138.464 27.04 138.354 27.2056C138.245 27.3713 138.186 27.5657 138.186 27.7645C138.187 27.8997 138.215 28.0333 138.268 28.1576C138.321 28.282 138.398 28.3945 138.495 28.4886C138.592 28.5828 138.707 28.6567 138.833 28.7061C138.959 28.7555 139.093 28.7794 139.228 28.7763ZM139.228 27.0133C139.38 27.0133 139.528 27.0582 139.654 27.1424C139.78 27.2267 139.878 27.3464 139.936 27.4865C139.994 27.6265 140.01 27.7807 139.98 27.9293C139.951 28.078 139.878 28.2146 139.77 28.3218C139.663 28.429 139.527 28.502 139.378 28.5316C139.229 28.5612 139.075 28.546 138.935 28.488C138.795 28.43 138.675 28.3317 138.591 28.2057C138.507 28.0796 138.462 27.9314 138.462 27.7798C138.462 27.5778 138.541 27.384 138.684 27.2405C138.826 27.0969 139.019 27.0153 139.221 27.0133H139.228ZM143.759 28.5464C143.957 28.5403 144.15 28.4759 144.312 28.3611C144.474 28.2463 144.599 28.0863 144.671 27.9009C144.743 27.7156 144.759 27.5132 144.716 27.319C144.674 27.1248 144.575 26.9473 144.433 26.8089C144.29 26.6704 144.11 26.5771 143.914 26.5404C143.719 26.5038 143.517 26.5256 143.334 26.603C143.151 26.6804 142.995 26.81 142.885 26.9757C142.775 27.1413 142.716 27.3357 142.716 27.5345C142.718 27.6694 142.747 27.8026 142.8 27.9264C142.854 28.0503 142.931 28.1624 143.028 28.2564C143.125 28.3503 143.239 28.4243 143.364 28.4741C143.49 28.5238 143.624 28.5484 143.759 28.5464ZM143.759 26.7833C143.91 26.7833 144.058 26.8282 144.184 26.9125C144.311 26.9967 144.409 27.1164 144.467 27.2565C144.525 27.3966 144.54 27.5507 144.51 27.6994C144.481 27.8481 144.408 27.9847 144.301 28.0919C144.193 28.1991 144.057 28.2721 143.908 28.3017C143.759 28.3312 143.605 28.3161 143.465 28.258C143.325 28.2 143.205 28.1018 143.121 27.9757C143.037 27.8497 142.992 27.7014 142.992 27.5498C142.992 27.3479 143.072 27.154 143.214 27.0105C143.356 26.867 143.549 26.7853 143.751 26.7833H143.759ZM141.812 34.5944C141.784 34.443 141.713 34.3027 141.608 34.1903C141.502 34.0779 141.367 33.9981 141.218 33.9602C141.068 33.9224 140.911 33.9282 140.765 33.977C140.619 34.0257 140.49 34.1153 140.393 34.2352C140.297 34.3551 140.237 34.5002 140.22 34.6533C140.203 34.8064 140.231 34.961 140.299 35.0989C140.368 35.2368 140.475 35.3521 140.607 35.4312C140.739 35.5102 140.891 35.5497 141.045 35.545C141.27 35.5143 141.475 35.3988 141.617 35.2221C141.76 35.0453 141.829 34.8208 141.812 34.5944ZM140.409 34.5944C140.421 34.4794 140.465 34.3701 140.537 34.2796C140.609 34.1891 140.706 34.1211 140.815 34.0837C140.925 34.0463 141.043 34.041 141.155 34.0685C141.267 34.0959 141.369 34.155 141.449 34.2387C141.529 34.3224 141.583 34.4272 141.605 34.5407C141.628 34.6543 141.617 34.7718 141.574 34.8793C141.532 34.9869 141.459 35.0801 141.366 35.1478C141.272 35.2154 141.16 35.2549 141.045 35.2613C140.959 35.2594 140.874 35.2403 140.795 35.2052C140.716 35.1701 140.645 35.1198 140.586 35.057C140.527 34.9942 140.481 34.9204 140.45 34.8396C140.42 34.7589 140.406 34.673 140.409 34.5868V34.5944ZM144.387 33.5213C144.192 33.4801 143.989 33.5004 143.806 33.5792C143.623 33.658 143.469 33.7916 143.364 33.9615C143.26 34.1315 143.211 34.3295 143.224 34.5284C143.237 34.7274 143.311 34.9175 143.436 35.0727C143.561 35.2278 143.731 35.3405 143.923 35.3952C144.115 35.4498 144.319 35.4438 144.507 35.378C144.695 35.3122 144.858 35.1898 144.974 35.0275C145.09 34.8652 145.153 34.6711 145.154 34.4718C145.173 34.245 145.105 34.0195 144.962 33.8423C144.819 33.6651 144.613 33.5501 144.387 33.5213ZM144.387 35.1617C144.245 35.182 144.1 35.1583 143.971 35.0938C143.843 35.0294 143.737 34.9272 143.668 34.8009C143.599 34.6747 143.571 34.5304 143.586 34.3875C143.602 34.2445 143.661 34.1098 143.755 34.0012C143.849 33.8926 143.974 33.8155 144.114 33.7801C144.253 33.7446 144.4 33.7526 144.535 33.803C144.669 33.8533 144.785 33.9437 144.867 34.0618C144.949 34.18 144.993 34.3204 144.993 34.4641C144.999 34.5503 144.988 34.6369 144.96 34.7189C144.933 34.8008 144.889 34.8764 144.832 34.9413C144.775 35.0063 144.706 35.0592 144.628 35.097C144.55 35.1348 144.466 35.1568 144.379 35.1617H144.387ZM146.143 51.2899C146.338 51.331 146.541 51.3108 146.724 51.232C146.907 51.1532 147.061 51.0196 147.165 50.8496C147.269 50.6797 147.319 50.4817 147.306 50.2827C147.293 50.0838 147.219 49.8937 147.094 49.7385C146.969 49.5833 146.798 49.4707 146.607 49.416C146.415 49.3613 146.211 49.3673 146.023 49.4331C145.835 49.499 145.672 49.6214 145.556 49.7837C145.44 49.9459 145.377 50.14 145.376 50.3394C145.356 50.5661 145.425 50.7917 145.568 50.9688C145.711 51.146 145.917 51.2611 146.143 51.2899ZM146.143 49.6418C146.314 49.6536 146.474 49.7328 146.587 49.862C146.701 49.9912 146.759 50.1601 146.748 50.3317C146.758 50.4164 146.749 50.5022 146.723 50.5835C146.698 50.6647 146.655 50.7396 146.598 50.8032C146.541 50.8668 146.472 50.9176 146.394 50.9525C146.316 50.9873 146.232 51.0053 146.146 51.0053C146.061 51.0053 145.977 50.9873 145.899 50.9525C145.821 50.9176 145.752 50.8668 145.695 50.8032C145.638 50.7396 145.595 50.6647 145.569 50.5835C145.543 50.5022 145.535 50.4164 145.545 50.3317C145.534 50.1625 145.59 49.9958 145.7 49.867C145.81 49.7382 145.966 49.6574 146.135 49.6418H146.143ZM134.66 53.8962C134.465 53.855 134.262 53.8753 134.078 53.9541C133.895 54.0329 133.741 54.1665 133.637 54.3364C133.533 54.5064 133.484 54.7044 133.496 54.9033C133.509 55.1023 133.583 55.2924 133.709 55.4476C133.834 55.6027 134.004 55.7154 134.195 55.7701C134.387 55.8247 134.591 55.8187 134.779 55.7529C134.967 55.6871 135.131 55.5647 135.246 55.4024C135.362 55.2402 135.425 55.046 135.426 54.8467C135.446 54.6199 135.377 54.3944 135.234 54.2172C135.091 54.04 134.885 53.925 134.66 53.8962ZM134.66 55.5366C134.488 55.5229 134.329 55.4418 134.217 55.3111C134.105 55.1804 134.049 55.0107 134.062 54.839C134.048 54.7525 134.053 54.664 134.077 54.5796C134.1 54.4952 134.142 54.4169 134.199 54.3502C134.256 54.2835 134.326 54.2299 134.406 54.1932C134.485 54.1564 134.572 54.1374 134.66 54.1374C134.747 54.1374 134.834 54.1564 134.913 54.1932C134.993 54.2299 135.064 54.2835 135.121 54.3502C135.177 54.4169 135.219 54.4952 135.243 54.5796C135.266 54.664 135.271 54.7525 135.258 54.839C135.264 54.9246 135.253 55.0106 135.226 55.0921C135.199 55.1735 135.156 55.2488 135.1 55.3137C135.043 55.3785 134.975 55.4315 134.898 55.4698C134.821 55.5081 134.738 55.5308 134.652 55.5366H134.66ZM139.382 53.8272C139.187 53.786 138.984 53.8063 138.8 53.8851C138.617 53.9639 138.463 54.0975 138.359 54.2674C138.255 54.4374 138.206 54.6354 138.218 54.8343C138.231 55.0333 138.305 55.2234 138.43 55.3786C138.556 55.5337 138.726 55.6464 138.917 55.7011C139.109 55.7557 139.313 55.7498 139.501 55.6839C139.689 55.6181 139.853 55.4957 139.968 55.3334C140.084 55.1712 140.147 54.977 140.148 54.7777C140.168 54.5509 140.099 54.3254 139.956 54.1482C139.813 53.9711 139.607 53.856 139.382 53.8272ZM139.382 55.4676C139.239 55.4895 139.094 55.4673 138.964 55.404C138.835 55.3406 138.728 55.2392 138.658 55.1133C138.588 54.9874 138.558 54.8431 138.573 54.6998C138.587 54.5564 138.645 54.421 138.739 54.3116C138.833 54.2023 138.958 54.1242 139.097 54.088C139.236 54.0518 139.384 54.0591 139.519 54.1091C139.654 54.159 139.77 54.2491 139.853 54.3673C139.935 54.4854 139.979 54.626 139.979 54.77C139.986 54.8556 139.975 54.9416 139.948 55.0231C139.921 55.1046 139.878 55.1799 139.822 55.2447C139.765 55.3095 139.697 55.3626 139.62 55.4008C139.543 55.4391 139.46 55.4618 139.374 55.4676H139.382ZM146.411 53.5819C146.218 53.5424 146.017 53.5636 145.836 53.6425C145.655 53.7214 145.503 53.8541 145.401 54.0226C145.298 54.1911 145.25 54.3871 145.263 54.5839C145.276 54.7807 145.35 54.9687 145.473 55.1222C145.597 55.2758 145.765 55.3873 145.955 55.4417C146.145 55.4961 146.346 55.4907 146.533 55.4262C146.719 55.3617 146.881 55.2412 146.996 55.0813C147.112 54.9213 147.175 54.7296 147.177 54.5324C147.197 54.3057 147.128 54.0801 146.985 53.9029C146.842 53.7258 146.637 53.6107 146.411 53.5819ZM146.411 55.1916C146.268 55.2136 146.123 55.1913 145.993 55.128C145.864 55.0647 145.757 54.9632 145.687 54.8373C145.617 54.7114 145.587 54.5671 145.602 54.4238C145.616 54.2805 145.674 54.145 145.768 54.0357C145.862 53.9263 145.987 53.8483 146.126 53.812C146.266 53.7758 146.413 53.7832 146.548 53.8331C146.683 53.883 146.8 53.9731 146.882 54.0913C146.964 54.2095 147.009 54.35 147.009 54.4941C147.019 54.6653 146.963 54.8339 146.851 54.9642C146.74 55.0944 146.582 55.176 146.411 55.1916ZM55.5977 94.9526C55.6935 94.9526 55.7872 94.924 55.8667 94.8706C55.9463 94.8172 56.0082 94.7413 56.0445 94.6526C56.0808 94.564 56.0899 94.4665 56.0707 94.3726C56.0514 94.2787 56.0047 94.1927 55.9363 94.1255C55.868 94.0582 55.7813 94.0129 55.6871 93.9951C55.5929 93.9773 55.4956 93.988 55.4075 94.0257C55.3194 94.0635 55.2445 94.1265 55.1924 94.207C55.1403 94.2874 55.1132 94.3815 55.1147 94.4773C55.1147 94.5404 55.1273 94.6028 55.1516 94.661C55.176 94.7192 55.2117 94.7719 55.2566 94.8161C55.3016 94.8604 55.3549 94.8952 55.4134 94.9186C55.472 94.9421 55.5346 94.9536 55.5977 94.9526Z" fill="black"/>
<path d="M55.7202 27.6111C55.7202 27.7229 55.7646 27.8301 55.8437 27.9092C55.9228 27.9882 56.03 28.0327 56.1418 28.0327C56.2536 28.0327 56.3609 27.9882 56.4399 27.9092C56.519 27.8301 56.5634 27.7229 56.5634 27.6111C56.5634 27.4992 56.519 27.392 56.4399 27.3129C56.3609 27.2339 56.2536 27.1895 56.1418 27.1895C56.03 27.1895 55.9228 27.2339 55.8437 27.3129C55.7646 27.392 55.7202 27.4992 55.7202 27.6111Z" fill="black"/>
<path d="M56.9238 27.4195C56.9238 27.5272 56.9666 27.6305 57.0428 27.7067C57.119 27.7829 57.2223 27.8257 57.3301 27.8257C57.4378 27.8257 57.5412 27.7829 57.6174 27.7067C57.6936 27.6305 57.7364 27.5272 57.7364 27.4195C57.7364 27.3117 57.6936 27.2084 57.6174 27.1322C57.5412 27.056 57.4378 27.0132 57.3301 27.0132C57.2223 27.0132 57.119 27.056 57.0428 27.1322C56.9666 27.2084 56.9238 27.3117 56.9238 27.4195Z" fill="black"/>
<path d="M57.1233 26.3157C57.2412 26.3157 57.3543 26.2689 57.4377 26.1855C57.5211 26.1021 57.5679 25.989 57.5679 25.8711C57.5679 25.7532 57.5211 25.6401 57.4377 25.5567C57.3543 25.4734 57.2412 25.4265 57.1233 25.4265C57.0649 25.4265 57.0071 25.438 56.9532 25.4604C56.8992 25.4827 56.8502 25.5155 56.8089 25.5567C56.7676 25.598 56.7349 25.647 56.7125 25.701C56.6902 25.7549 56.6787 25.8127 56.6787 25.8711C56.6787 25.9295 56.6902 25.9873 56.7125 26.0413C56.7349 26.0952 56.7676 26.1442 56.8089 26.1855C56.8502 26.2268 56.8992 26.2595 56.9532 26.2819C57.0071 26.3042 57.0649 26.3157 57.1233 26.3157ZM70.4153 65.7394C70.3134 65.7394 70.2138 65.7697 70.1292 65.8265C70.0445 65.8833 69.9787 65.9639 69.9401 66.0582C69.9015 66.1525 69.8917 66.2562 69.9122 66.356C69.9326 66.4558 69.9823 66.5473 70.0549 66.6188C70.1275 66.6904 70.2197 66.7387 70.3199 66.7576C70.42 66.7765 70.5235 66.7653 70.6172 66.7252C70.7109 66.6852 70.7906 66.6182 70.8461 66.5327C70.9016 66.4472 70.9304 66.3472 70.9289 66.2453C70.9269 66.1104 70.8719 65.9817 70.7758 65.8871C70.6797 65.7924 70.5502 65.7394 70.4153 65.7394ZM70.1317 62.2209C70.1317 62.3167 70.1602 62.4104 70.2136 62.49C70.267 62.5696 70.3429 62.6314 70.4316 62.6678C70.5203 62.7041 70.6178 62.7132 70.7117 62.6939C70.8055 62.6747 70.8916 62.6279 70.9588 62.5596C71.026 62.4913 71.0714 62.4045 71.0892 62.3103C71.1069 62.2162 71.0962 62.1188 71.0585 62.0307C71.0208 61.9426 70.9577 61.8678 70.8773 61.8156C70.7969 61.7635 70.7027 61.7365 70.6069 61.738C70.4802 61.74 70.3593 61.7918 70.2704 61.8821C70.1815 61.9725 70.1316 62.0941 70.1317 62.2209ZM70.3463 59.607C70.4361 59.6085 70.5242 59.5833 70.5996 59.5345C70.675 59.4858 70.7341 59.4157 70.7696 59.3332C70.805 59.2507 70.815 59.1595 70.7984 59.0713C70.7819 58.983 70.7394 58.9017 70.6765 58.8377C70.6135 58.7737 70.533 58.7299 70.4451 58.7118C70.3571 58.6937 70.2658 58.7022 70.1827 58.7362C70.0996 58.7702 70.0285 58.8281 69.9785 58.9027C69.9284 58.9772 69.9017 59.0649 69.9017 59.1547C69.9017 59.2733 69.9483 59.3872 70.0314 59.4718C70.1146 59.5564 70.2277 59.605 70.3463 59.607Z" fill="black"/>
</svg>
