<svg width="154" height="154" viewBox="0 0 154 154" fill="none" xmlns="http://www.w3.org/2000/svg">
<path d="M25.4333 99.81C22.4131 100.63 13.8357 103.336 12.5402 103.781C12.5402 94.6895 13.9966 27.6794 14.1423 20.9953C14.1366 20.9763 14.125 20.9596 14.1091 20.9478C14.0932 20.936 14.0739 20.9296 14.0541 20.9296C14.0343 20.9296 14.015 20.936 13.9992 20.9478C13.9833 20.9596 13.9716 20.9763 13.966 20.9953C13.5674 26.9282 12.157 99.9479 12.1876 103.888C10.9688 104.302 5.44215 106.187 3.8861 106.709C3.79411 106.709 3.83244 106.885 3.8861 106.854C6.59195 106.019 12.088 104.187 12.1493 104.172C12.1493 106.839 12.18 109.509 12.2413 112.182C12.2413 112.214 12.2542 112.245 12.2772 112.268C12.3002 112.291 12.3314 112.304 12.3639 112.304C12.3965 112.304 12.4276 112.291 12.4506 112.268C12.4736 112.245 12.4866 112.214 12.4866 112.182V104.049C15.0238 103.206 23.6856 100.599 25.4793 100.124C25.51 100.108 25.5349 100.082 25.5506 100.051C25.5663 100.02 25.572 99.9853 25.567 99.9509C25.562 99.9165 25.5464 99.8845 25.5225 99.8592C25.4985 99.834 25.4674 99.8168 25.4333 99.81ZM85.376 84.5253C85.376 84.5253 83.5516 92.4053 78.7991 89.891C74.0466 87.3768 77.1204 82.2947 77.1971 77.3276C77.2737 72.3605 73.3644 68.9724 73.3644 68.9724C73.3644 68.9724 74.5372 78.3548 68.8419 79.6272C63.1466 80.8996 58.4707 75.5799 60.1111 68.0526C61.7515 60.5253 62.8553 56.3323 62.8093 53.7031C62.7633 51.0739 61.7898 50.2001 61.7898 50.2001C61.7898 50.2001 62.633 56.1254 56.0945 59.3985C49.7246 62.5872 41.0475 68.0143 40.9019 78.4697C40.7562 89.1245 43.1248 92.3363 40.8329 92.7732C37.3835 93.4324 39.5144 87.9517 38.495 84.2264C38.159 83.1072 37.6056 82.0653 36.8663 81.1604C36.1271 80.2554 35.2166 79.5052 34.1871 78.9527C34.1871 78.9527 37.4678 84.2494 33.9648 89.5844C30.4617 94.9195 22.7198 101.458 32.8686 110.38C32.8686 110.38 31.9948 107.061 33.8958 104.946C35.7968 102.83 36.6323 102.424 37.5598 100.27C37.9402 99.5214 38.1595 98.7014 38.2037 97.863C38.2037 97.863 43.0252 104.363 46.8885 100.638C50.7518 96.9125 48.5978 91.7231 50.5908 89.1398C52.5838 86.5566 53.3886 86.6563 53.3886 86.6563C53.3886 86.6563 50.5908 90.4506 53.7566 95.6937C56.9223 100.937 61.7898 95.7627 62.8093 91.861C63.8288 87.9594 67.3012 88.9176 67.3012 88.9176C67.3012 88.9176 63.3229 89.8911 64.1661 93.6394C65.0092 97.3877 65.8754 97.472 65.8754 97.472C65.8754 97.472 66.642 94.1913 70.4746 95.0651C74.3073 95.939 76.1853 99.5187 78.4082 99.0817C80.6311 98.6448 81.3517 95.87 81.3517 95.87C81.3517 95.87 84.2032 100.255 83.8429 102.585C83.4826 104.915 81.3517 107.621 81.3517 107.621C83.3059 107.607 85.1988 106.937 86.7275 105.72C88.2563 104.503 89.3323 102.808 89.7835 100.906C91.7305 93.9383 85.376 84.5253 85.376 84.5253Z" fill="black"/>
<path d="M80.0639 83.3756C80.4307 83.2151 80.761 82.9817 81.0347 82.6895C81.3084 82.3974 81.5198 82.0526 81.6561 81.6761C81.7923 81.2996 81.8506 80.8994 81.8272 80.4997C81.8039 80.1001 81.6994 79.7093 81.5203 79.3513C81.0611 78.6292 80.7752 77.8106 80.6848 76.9597C79.8737 77.9306 79.3883 79.1319 79.2973 80.3938C79.0751 82.6244 80.0639 83.3756 80.0639 83.3756ZM66.32 56.1177C66.0287 54.3087 68.4509 53.9255 68.1213 51.4036C67.7917 48.8817 65.8217 48.6671 65.8217 48.6671L66.32 49.6329C66.8106 50.6064 66.7339 52.1164 65.9904 53.8181C65.2468 55.5198 66.32 56.1177 66.32 56.1177Z" fill="black"/>
<path d="M95.9462 77.7033C94.7012 77.9646 93.4767 78.3155 92.2822 78.7534V75.1047H92.3972C93.1637 75.1047 92.8418 68.3286 92.3512 65.983C92.5352 46.0532 92.9951 10.0263 92.9951 9.64301C92.9951 9.61862 92.9854 9.59522 92.9682 9.57797C92.9509 9.56072 92.9275 9.55103 92.9031 9.55103C92.8787 9.55103 92.8553 9.56072 92.8381 9.57797C92.8208 9.59522 92.8111 9.61862 92.8111 9.64301C92.0446 30.0711 91.9526 51.6719 91.9679 65.1858C91.5694 65.1322 90.6725 65.7914 89.6684 66.6729L76.2234 35.9657C76.461 26.5527 76.645 16.2888 76.645 7.04447C76.645 6.93716 76.4764 6.93716 76.4687 7.04447C76.415 7.99497 76.0854 21.6086 75.7558 35.6054L59.1681 32.1943C59.4517 23.1799 59.7277 14.4338 59.743 13.0311C59.743 12.9698 59.651 12.9698 59.6433 13.0311C59.5054 16.2428 59.1221 22.5207 58.7925 32.1943L43.5079 34.9079C43.5539 25.012 43.5079 17.201 43.5079 16.9481C43.5035 16.9363 43.4957 16.9262 43.4854 16.919C43.4751 16.9119 43.4629 16.9081 43.4504 16.9081C43.4379 16.9081 43.4257 16.9119 43.4154 16.919C43.4051 16.9262 43.3973 16.9363 43.3929 16.9481C43.3392 17.7146 43.2319 25.5025 43.117 34.7546L28.3612 26.4377C28.3996 23.0726 28.4226 21.0107 28.4226 20.888C28.4226 20.8729 28.4196 20.858 28.4138 20.844C28.408 20.8301 28.3996 20.8174 28.3889 20.8067C28.3782 20.796 28.3655 20.7876 28.3516 20.7818C28.3376 20.776 28.3227 20.773 28.3076 20.773C28.2925 20.773 28.2775 20.776 28.2636 20.7818C28.2496 20.7876 28.237 20.796 28.2263 20.8067C28.2156 20.8174 28.2071 20.8301 28.2014 20.844C28.1956 20.858 28.1926 20.8729 28.1926 20.888C28.1926 21.6545 28.1926 23.5862 28.1389 26.384L15.8745 26.1234C15.6661 26.1173 15.4638 26.1943 15.3122 26.3373C15.1605 26.4803 15.0719 26.6777 15.0658 26.8861C15.0597 27.0945 15.1366 27.2968 15.2796 27.4484C15.4227 27.6001 15.6201 27.6887 15.8285 27.6948L28.093 28.0474C27.863 46.5975 27.1425 93.2025 27.1271 93.6241C27.1271 93.7621 27.3341 93.7621 27.3341 93.6241C27.4951 90.0981 28.1006 45.8463 28.3152 28.1394L43.094 36.5712C42.9177 50.867 42.7337 67.769 42.726 68.045C42.726 68.1446 42.8793 68.1446 42.887 68.045C43.2856 59.8738 43.4466 47.203 43.5002 36.5176L58.7388 33.8424C58.5702 39.2081 58.4169 45.5396 58.3403 52.9137C58.3403 53.0056 58.4859 53.0056 58.4859 52.9137C58.5702 50.5144 58.8462 42.2282 59.1144 33.8041L75.7098 37.5217C75.3572 52.3771 75.02 67.1328 75.0123 67.3628C75.0123 67.3892 75.0228 67.4145 75.0415 67.4332C75.0602 67.4519 75.0855 67.4624 75.1119 67.4624C75.1384 67.4624 75.1637 67.4519 75.1824 67.4332C75.2011 67.4145 75.2116 67.3892 75.2116 67.3628C75.2882 65.1245 75.7788 52.9903 76.1621 38.3496L88.4266 67.8457C86.8935 69.2638 85.5598 70.7355 85.5598 70.7355C85.2378 71.6093 90.5039 74.3842 92.0063 75.0204V78.8531C91.439 79.0447 86.5946 80.8 84.6859 81.306C84.6654 81.3145 84.6487 81.3301 84.6388 81.35C84.6289 81.3699 84.6266 81.3926 84.6322 81.4141C84.6378 81.4356 84.651 81.4543 84.6693 81.4668C84.6876 81.4794 84.7099 81.4848 84.7319 81.4823C86.6482 81.007 95.0647 78.2858 95.9539 77.9026C96.0842 77.8489 96.0382 77.6956 95.9462 77.7033ZM57.4434 107.498C57.2377 107.706 57.0883 107.963 57.0092 108.245C56.9301 108.526 56.9239 108.823 56.9912 109.108C57.0764 109.359 57.2172 109.587 57.403 109.775C57.5889 109.964 57.8149 110.108 58.0643 110.196C59.0353 110.486 60.0511 110.595 61.0614 110.518C61.0614 110.518 64.5108 113.355 64.6028 113.439C63.8363 114.075 62.7708 113.692 61.9046 113.638C61.759 113.638 61.759 113.83 61.9046 113.876C62.3803 114.076 62.8973 114.157 63.4113 114.113C63.9254 114.069 64.421 113.901 64.8558 113.623C65.041 113.78 65.2356 113.926 65.4383 114.06C65.4556 114.068 65.4751 114.069 65.4934 114.064C65.5118 114.06 65.5281 114.049 65.5396 114.034C65.5511 114.019 65.5572 114 65.5569 113.981C65.5566 113.963 65.55 113.944 65.538 113.929C65.3787 113.761 65.2098 113.603 65.0321 113.454C65.1919 113.262 65.3068 113.037 65.3681 112.795C65.4294 112.553 65.4357 112.3 65.3864 112.055C65.3372 111.81 65.2336 111.579 65.0834 111.38C64.9332 111.18 64.7402 111.017 64.5185 110.902C63.4732 110.377 62.304 110.149 61.1381 110.242C60.0343 109.338 58.9305 108.433 57.8113 107.537C57.9144 107.453 58.0277 107.384 58.1486 107.33C58.5313 107.203 58.9382 107.167 59.3372 107.224C59.7362 107.281 60.1165 107.43 60.4482 107.659C60.5019 107.659 60.5479 107.659 60.5095 107.583C60.1397 107.201 59.6421 106.968 59.1118 106.93C58.5815 106.892 58.0558 107.051 57.635 107.376L56.8685 106.77C56.7995 106.716 56.7075 106.808 56.7689 106.862L57.4434 107.498ZM65.1087 112.22C65.1332 112.408 65.1171 112.599 65.0616 112.78C65.006 112.961 64.9123 113.128 64.7868 113.27L61.4447 110.518C62.8551 110.534 64.9171 110.787 65.101 112.22H65.1087ZM57.6504 107.667C58.6699 108.541 59.7047 109.392 60.7165 110.25C59.9925 110.256 59.2692 110.2 58.5549 110.082C57.0065 109.691 56.8915 108.449 57.6427 107.667H57.6504Z" fill="black"/>
<path d="M101.657 127.581C100.53 126.608 84.5482 114.888 83.0995 113.907V112.634C83.0995 112.619 68.4127 101.703 68.3208 101.726C66.3278 102.24 41.3466 108.625 39.7368 109.108C39.7223 109.111 39.7086 109.117 39.697 109.126C39.6854 109.136 39.6762 109.147 39.6701 109.161C39.6641 109.175 39.6615 109.189 39.6624 109.204C39.6633 109.219 39.6678 109.233 39.6755 109.246V109.813C38.9933 110.036 30.3162 112.542 30.3162 112.642C30.3162 114.236 30.5461 117.448 30.5461 117.463C30.3468 117.463 24.8891 118.567 24.8661 118.621C24.8432 118.674 24.7972 122.944 24.9121 123.795C24.9121 123.833 53.6494 146.346 53.703 146.338C54.6612 146.093 67.1633 142.169 68.2671 141.893C68.3017 141.882 68.3311 141.859 68.3495 141.827C68.3679 141.796 68.3741 141.759 68.3668 141.724C68.3054 141.371 68.2748 141.026 68.2364 140.674C68.2364 140.674 70.3521 141.571 70.4211 141.548C74.292 140.36 84.2186 137.201 85.2994 136.833C85.3597 136.794 85.4034 136.734 85.4221 136.665V135.737C85.4221 135.737 86.7865 136.305 86.8478 136.282C90.6805 134.886 100.377 131.636 101.412 131.253C101.442 131.243 101.467 131.221 101.481 131.192C101.496 131.163 101.498 131.13 101.489 131.1C101.558 130.901 101.657 128.294 101.688 127.689C101.695 127.67 101.696 127.649 101.691 127.63C101.685 127.611 101.673 127.593 101.657 127.581ZM101.351 127.581C101.136 127.627 92.0449 130.249 91.3243 130.517C91.2784 130.103 91.3243 126.685 91.3243 126.685C91.0867 126.378 85.5447 122.001 84.6402 121.273C85.5677 121.081 89.4617 119.74 90.5272 119.479C92.8574 121.212 100.714 127.175 101.351 127.612V127.581ZM81.4208 134.526L72.8203 136.895C72.9583 136.32 72.736 132.081 72.736 132.027L81.5511 129.628C81.5358 129.827 81.3441 134.427 81.3824 134.557L81.4208 134.526ZM72.6593 131.759C72.5214 131.567 62.8171 124.431 61.7133 123.611L67.4086 122.139C67.1615 122.28 66.9667 122.498 66.8534 122.759C66.7401 123.02 66.7144 123.311 66.78 123.588C66.941 124.262 67.6845 124.86 69.0796 124.868C69.4552 124.868 69.8462 124.83 70.2294 124.791C70.3674 124.914 72.3757 126.593 73.2956 127.29C72.5691 127.54 71.785 127.569 71.042 127.374C71.0199 127.372 70.9977 127.377 70.9794 127.39C70.961 127.402 70.9479 127.421 70.9422 127.443C70.9366 127.464 70.939 127.487 70.9489 127.507C70.9587 127.527 70.9755 127.542 70.996 127.551C71.8218 127.814 72.7134 127.781 73.5178 127.459C73.7555 127.643 73.9931 127.834 74.2384 128.011C74.4837 128.187 74.545 127.865 74.3917 127.75L73.7938 127.282C74.0168 127.127 74.1826 126.902 74.2657 126.643C74.3488 126.384 74.3446 126.105 74.2537 125.849C73.9164 124.837 72.7666 124.446 71.8008 124.393C71.3161 124.378 70.831 124.408 70.3521 124.485C69.9458 124.14 68.2135 122.607 67.7382 122.185C68.0218 122.032 70.1604 121.419 70.881 121.212C70.881 121.212 80.9609 129.107 81.3748 129.306C81.4208 129.306 81.4821 129.306 81.4514 129.229C81.2215 128.9 71.9695 121.656 71.2412 121.12C73.2036 120.598 80.6389 118.536 80.8689 118.475C80.8689 118.475 90.6268 126.493 90.9104 126.677C87.806 127.627 75.0586 131.13 72.621 131.79L72.6593 131.759ZM47.9387 127.428C47.6628 127.428 44.8726 127.972 44.589 128.034C44.635 127.19 44.8956 123.074 44.9263 122.867C45.8538 122.745 49.6787 122.101 49.9394 122.024L50.2766 122.308C49.5718 122.319 48.8712 122.419 48.1917 122.607C48.1917 122.607 47.9234 127.244 47.9004 127.459L47.9387 127.428ZM47.9387 127.574C47.9387 127.758 47.9387 127.934 47.8774 128.11C47.8161 128.287 51.5261 131.176 51.9937 131.56C51.4111 131.698 46.49 133.185 43.3932 133.3C43.0636 133.047 37.1613 128.325 34.5628 126.194C35.4826 126.087 40.4191 124.998 40.4191 124.998C40.8176 125.305 43.5312 127.451 44.4587 128.264C45.6173 128.124 46.7648 127.904 47.8927 127.604L47.9387 127.574ZM48.345 122.791C48.345 122.791 50.2766 122.53 50.5603 122.538C50.5603 122.538 54.002 125.489 54.0326 125.481C56.4855 124.937 58.9844 124.308 61.422 123.68L72.3067 131.843C71.042 132.181 62.6714 134.496 62.6484 134.519L48.345 122.791ZM64.3348 122.66C64.2582 122.66 54.0786 125.305 54.0326 125.381L54.1093 120.016C57.4897 119.357 60.8318 118.529 64.1662 117.647C64.0512 118.084 64.2045 122.292 64.2888 122.691L64.3348 122.66ZM73.5868 120.246C73.0196 120.399 66.9717 122.001 64.5034 122.645C64.5034 122.246 64.4268 118.046 64.3655 117.64C64.3655 117.64 70.9346 115.838 73.8704 115.056C73.8475 115.271 73.4719 119.418 73.5868 120.246ZM67.5389 122.331C67.9758 122.798 69.5855 124.262 69.9228 124.554C69.2669 124.667 68.594 124.633 67.9528 124.454C66.6881 124.04 66.6881 122.883 67.5236 122.331H67.5389ZM70.605 124.776C71.3149 124.667 72.04 124.717 72.7283 124.922C74.0008 125.366 74.3227 126.585 73.4948 127.152C72.598 126.424 70.6664 124.822 70.6127 124.776H70.605ZM83.2298 117.617C83.1685 116.789 83.0841 114.504 83.0918 114.19C85.4757 115.892 87.8826 117.563 90.2512 119.295C89.2547 119.579 85.4144 120.828 84.4792 121.158C84.073 120.828 81.4131 118.674 80.9762 118.483C81.6737 118.283 82.3713 118.084 83.0458 117.831C83.1071 117.816 83.2451 117.693 83.2374 117.617H83.2298ZM83.0075 117.617L73.7478 120.184C73.7478 119.357 73.9931 115.217 74.0621 115.026C74.1234 115.026 80.7079 113.301 82.8312 112.833C82.7852 113.6 83.0152 117.632 83.0152 117.632L83.0075 117.617ZM68.3208 101.949C70.1298 103.482 81.7887 111.914 82.6779 112.588C79.7957 113.232 76.9442 113.96 74.0927 114.719C73.2266 114.067 60.6708 104.248 60.4638 104.103C60.8701 104.026 66.1285 102.654 68.3208 101.949ZM60.1649 104.248C60.5481 104.616 72.8203 114.213 73.7555 114.865L64.1202 117.471C63.2617 116.781 51.0355 107.636 50.131 106.831C53.5037 105.968 56.8484 105.107 60.1649 104.248ZM49.7631 106.923C50.6906 107.575 63.3996 117.218 63.8749 117.532C62.6254 117.862 56.018 119.51 53.9636 119.939L39.7905 109.307C41.2316 109.016 49.6404 106.923 49.7631 106.893V106.923ZM39.6985 110.074C39.7445 111.277 39.7828 112.373 39.8288 113.654L49.6481 121.878C49.4718 121.878 45.7081 122.484 44.7346 122.691C44.6656 122.691 30.6151 112.726 30.6151 112.726C32.1942 112.327 39.024 110.227 39.6985 110.043V110.074ZM25.2954 118.713C25.3951 118.713 30.3698 117.716 30.6151 117.686C30.6151 117.686 38.84 123.871 40.3041 124.983C39.3152 125.06 35.2833 125.887 34.2332 125.995C33.2213 125.159 25.7553 119.027 25.2954 118.713ZM34.6164 131.276C34.6164 130.862 34.3941 127.099 34.3405 126.278C34.9077 126.746 40.81 131.544 43.2092 133.445C43.2092 133.445 43.4622 137.868 43.4928 138.236C43.1326 137.976 37.215 133.376 34.6241 131.276H34.6164ZM43.6385 133.576C46.509 133.117 49.3541 132.51 52.1623 131.759C52.6222 132.119 61.2687 138.658 62.0122 139.179C60.6325 139.509 53.8563 141.042 53.8333 141.042C50.3226 138.742 46.9576 136.182 43.6461 133.576H43.6385ZM53.7873 146.124C53.7873 146.124 53.8487 141.272 53.8717 141.233C54.4926 141.149 60.6708 139.7 62.0735 139.386C62.389 139.502 62.69 139.653 62.9704 139.838L67.7689 138.459C67.9835 139.524 67.8762 140.62 68.0601 141.678C67.171 142 54.8452 145.733 53.795 146.124H53.7873ZM63.1467 139.647C63.1467 139.647 62.978 136.404 62.8861 134.733C66.0748 133.844 69.2662 132.965 72.46 132.096L72.6977 136.925L63.1467 139.647ZM85.1614 136.58C83.2298 137.163 71.5249 140.888 70.4824 141.226C70.4211 140.091 70.2294 137.761 70.2141 137.746C70.1988 137.73 80.6696 134.986 85.2304 133.53C85.1691 133.775 85.1768 136.098 85.1691 136.604L85.1614 136.58ZM81.5664 134.488C81.5664 134.373 81.6737 129.758 81.7121 129.551C82.8159 129.252 89.0631 127.512 91.0714 126.915C90.9866 128.493 91.0456 130.076 91.2477 131.644L81.5664 134.488ZM91.447 131.843C91.4299 131.453 91.3915 131.064 91.332 130.678C91.9912 130.632 101.136 128.018 101.381 127.919C101.381 128.463 101.228 130.885 101.259 131.1C97.5026 132.495 87.921 135.653 86.9551 136.006C86.9551 135.093 87.0088 133.085 87.0088 133.085C87.0088 133.085 91.4393 131.882 91.447 131.843ZM118.758 18.8337V18.7264C118.666 18.6186 118.542 18.5417 118.405 18.506C118.267 18.4703 118.122 18.4775 117.988 18.5267C117.855 18.5759 117.74 18.6647 117.658 18.7813C117.577 18.8978 117.533 19.0364 117.532 19.1787C117.571 19.0589 117.639 18.9507 117.73 18.8635C117.821 18.7763 117.932 18.7128 118.053 18.6787C118.174 18.6446 118.302 18.6409 118.425 18.668C118.548 18.695 118.663 18.7519 118.758 18.8337ZM121.188 20.4051C121.175 20.389 121.158 20.376 121.138 20.3671C121.119 20.3582 121.098 20.3536 121.077 20.3536C121.056 20.3536 121.035 20.3582 121.016 20.3671C120.997 20.376 120.98 20.389 120.966 20.4051C120.964 20.7023 121 20.9986 121.073 21.2866C121.073 21.3939 121.273 21.3709 121.265 21.2866C121.277 20.9907 121.251 20.6945 121.188 20.4051ZM118.214 19.9299C118.204 19.9184 118.192 19.9093 118.178 19.903C118.164 19.8968 118.149 19.8935 118.134 19.8935C118.119 19.8935 118.103 19.8968 118.09 19.903C118.076 19.9093 118.063 19.9184 118.053 19.9299C117.982 20.3072 117.982 20.6946 118.053 21.072C118.053 21.164 118.23 21.1486 118.222 21.072C118.253 20.6918 118.251 20.3096 118.214 19.9299ZM119.832 23.3639V23.3026C118.919 23.3026 118.904 23.088 118.889 23.0726C118.873 23.0573 119.418 21.7006 119.517 21.4093C119.517 21.3709 119.464 21.3403 119.448 21.4093C119.31 21.6852 118.575 23.1953 118.598 23.2643C118.666 23.4559 119.579 23.4406 119.832 23.3639ZM121.702 24.4754C121.793 24.5929 121.872 24.7187 121.94 24.851C121.595 24.9736 121.625 25.9701 122.154 25.9165C122.223 25.915 122.289 25.8885 122.34 25.842C122.391 25.7954 122.423 25.732 122.43 25.6635C122.445 25.2956 121.825 24.6057 121.702 24.4754ZM132.38 39.2771C130.445 39.6383 128.465 39.6849 126.516 39.4151V39.4764C127.505 39.6987 130.594 40.1816 132.433 39.4764C132.502 39.4074 132.456 39.2618 132.38 39.2771ZM118.23 38.8938C116.546 39.289 114.787 39.2201 113.14 38.6945C113.086 38.6945 113.071 38.7559 113.14 38.7789C114.785 39.4251 116.596 39.5166 118.299 39.0395C118.345 39.0165 118.306 38.8708 118.23 38.8938ZM121.572 35.0612C121.027 35.4138 117.44 50.6371 117.386 51.051C117.333 51.4649 119.824 55.1903 119.985 55.1903C121.582 54.307 123.118 53.3186 124.584 52.2315C124.829 51.9325 123.764 35.7204 123.626 35.3141C123.488 34.9079 121.572 35.0612 121.572 35.0612Z" fill="black"/>
<path d="M144.223 20.1675C140.681 17.7069 132.495 12.9391 132.403 12.9008C132.311 12.8624 132.28 12.8394 131.322 13.5063C130.767 12.7114 130.086 12.0124 129.306 11.4367C129.028 11.269 128.71 11.1803 128.386 11.1803C128.062 11.1803 127.744 11.269 127.466 11.4367C126.812 11.7753 126.218 12.2209 125.711 12.7551C124.848 12.7004 123.984 12.8392 123.181 13.1614C123.181 13.1614 120.974 8.50854 117.57 9.60468C114.167 10.7008 116.221 14.8631 116.221 14.8631C116.129 14.9659 116.042 15.0733 115.961 15.185C115.793 14.9877 115.605 14.8079 115.401 14.6485C115.01 14.4492 110.035 15.6833 107.582 16.7334C104.645 18.032 101.938 19.7974 99.5645 21.9612C97.8398 23.9311 97.5638 25.0273 98.1004 27.3269C99.4495 33.1755 103.865 38.7328 108.763 42.2742C108.464 44.3438 108.219 46.4135 108.096 48.4984C107.789 53.4962 108.579 55.8878 111.039 57.7735C105.405 74.7981 108.671 119.862 108.671 119.862C109.096 120.262 109.629 120.529 110.204 120.629C110.242 121.058 110.357 122.216 110.373 122.369C109.675 122.896 108.934 123.363 108.157 123.764C107.889 123.853 107.658 124.029 107.5 124.263C107.342 124.497 107.266 124.777 107.283 125.06C107.176 125.734 110.135 125.703 110.963 125.627C111.791 125.55 111.821 125.006 111.99 124.937C112.159 124.868 112.128 125.266 112.105 125.473C112.082 125.68 112.871 125.703 113.354 125.711C113.837 125.719 113.776 121.035 113.807 120.736C114.332 120.662 114.847 120.526 115.34 120.33C120.82 105.613 121.257 96.2993 121.257 96.2993C119.287 80.7234 119.648 70.1299 120.23 70.2373C120.813 70.3446 119.862 74.3229 120.997 88.818C122.131 103.313 126.884 121.587 126.884 121.587C127.505 121.699 128.132 121.776 128.762 121.817C128.808 122.277 128.946 123.465 128.961 123.611C128.28 124.115 127.56 124.564 126.807 124.952C126.539 125.04 126.308 125.216 126.151 125.451C125.994 125.685 125.92 125.966 125.941 126.248C125.826 126.922 128.785 126.892 129.62 126.815C130.456 126.738 130.471 126.194 130.64 126.125C130.808 126.056 130.778 126.455 130.755 126.662C130.732 126.869 131.521 126.892 132.004 126.899C132.487 126.907 132.065 124.285 132.541 121.848C133.001 121.825 133.456 121.734 133.89 121.579C133.89 121.579 136.074 116.214 137.37 92.8652C138.566 71.4024 136.419 60.5943 136.067 58.9846C136.518 58.7316 136.896 58.3666 137.164 57.9248C137.433 57.483 137.583 56.9794 137.6 56.4627C137.6 56.1561 137.285 43.9223 137.216 42.9641C140.658 40.4237 143.78 37.4768 146.514 34.1873C147.911 32.616 148.882 30.7134 149.335 28.6606C150.033 24.621 147.557 22.4747 144.223 20.1675ZM127.474 11.5823C127.799 11.4092 128.174 11.3535 128.536 11.4247C128.898 11.4959 129.224 11.6897 129.459 11.9733C130.006 12.5493 130.581 13.0968 131.184 13.6136C130.4 14.2253 129.857 15.0939 129.651 16.0665C129.651 15.3216 129.359 14.6062 128.838 14.0736C128.013 13.3242 126.966 12.8641 125.856 12.7628C126.35 12.3098 126.892 11.9138 127.474 11.5823ZM127.589 27.6795C127.58 27.6668 127.567 27.6565 127.553 27.6494C127.54 27.6423 127.524 27.6386 127.508 27.6386C127.493 27.6386 127.477 27.6423 127.463 27.6494C127.449 27.6565 127.437 27.6668 127.428 27.6795L126.868 28.2544C126.738 27.4878 126.554 25.8935 126.569 25.8858C126.953 25.6558 129.306 20.819 129.635 17.2853C131.399 20.2426 133.606 22.9107 136.182 25.1959C136.55 25.5255 138.259 26.8976 138.297 26.9206C138.152 26.9743 129.252 29.5575 128.907 29.7414C128.47 29.0132 128.01 28.3617 127.589 27.6641V27.6795ZM128.869 30.1554C128.363 30.8682 126.278 33.4208 125.849 34.0647C125.176 33.1169 124.561 32.1287 124.009 31.1059C125.219 30.0965 126.378 29.0271 127.482 27.9018C127.941 28.6376 128.371 29.4118 128.869 30.14V30.1554ZM117.44 16.4805C118.122 16.3425 118.207 18.2281 121.188 18.6727C121.064 18.678 120.942 18.711 120.832 18.7693C120.722 18.8277 120.626 18.9099 120.552 19.01C120.552 19.01 121.564 18.5884 121.809 19.3549C121.809 19.4009 121.932 19.3549 121.94 19.3166C121.95 19.1796 121.913 19.043 121.835 18.9299C121.757 18.8168 121.642 18.7341 121.51 18.6957C121.956 18.7396 122.404 18.755 122.852 18.7417C124.676 18.7034 123.856 20.8803 124.431 20.9877C124.707 21.0413 124.745 20.7654 125.021 20.4664C125.297 20.1675 125.849 19.8072 126.293 20.1521C127.466 21.0796 125.91 22.7507 125.91 22.7507C125.981 24.6472 126.266 26.5295 126.761 28.3617C125.297 29.8104 123.772 31.0522 123.772 31.1212C123.526 31.1212 122.43 31.3358 122.031 31.4201C121.595 30.5321 121.214 29.6182 120.889 28.6836C120.947 28.2672 120.97 27.8467 120.958 27.4265C120.958 26.2997 119.993 26.7213 119.364 26.545C118.977 26.4276 118.624 26.2171 118.337 25.9318C117.739 25.2949 117.344 24.4944 117.202 23.6322C117.003 22.6394 116.888 21.6317 116.857 20.6197C116.811 19.4086 116.597 16.6491 117.44 16.4805ZM118.597 30.6613C117.954 30.4007 109.736 25.6252 109.138 25.0963C109.69 24.6593 115.056 21.1716 116.635 20.3744C116.635 22.881 116.934 26.361 119.402 26.8823C120.039 27.0126 120.491 26.7903 120.583 27.1659C120.621 27.3269 120.636 27.8481 120.659 28.2697C120.639 28.259 120.617 28.2533 120.594 28.2533C120.572 28.2533 120.549 28.259 120.529 28.2697C120.215 28.63 118.329 30.1937 118.383 30.2627C118.462 30.3915 118.533 30.5245 118.597 30.6613ZM120.567 28.7756C120.698 29.1819 121.656 30.8299 121.894 31.3128C121.894 31.3128 120.445 33.1908 120.215 33.6124C120 33.0682 118.789 30.4773 118.682 30.301C119.379 29.8947 119.755 29.2969 120.567 28.8063V28.7756ZM113.446 122.484C112.442 123.427 110.848 122.706 110.595 122.484C110.595 122.277 110.434 121.043 110.38 120.637C111.454 120.752 112.535 120.79 113.615 120.752C113.569 121.005 113.446 122.162 113.446 122.484ZM132.088 123.634C131.665 123.941 131.154 124.102 130.632 124.094C130.11 124.085 129.604 123.908 129.191 123.588C129.191 123.404 129.007 122.193 128.953 121.771C129.452 121.771 131.943 121.84 132.387 121.771C132.334 122.193 132.127 123.411 132.081 123.634H132.088ZM148.952 29.2125C148.382 30.9961 147.442 32.6392 146.193 34.034C143.486 37.2627 140.397 40.1506 136.994 42.6345C136.849 42.7418 137.431 56.593 137.224 57.1449C136.938 57.8121 136.443 58.3688 135.814 58.7316C133.644 60.1191 121.25 61.0312 114.175 59.0076C112.954 58.6909 111.834 58.0709 110.917 57.2051C110 56.3394 109.317 55.2561 108.931 54.0558C108.443 52.3643 108.269 50.5976 108.418 48.8434C108.579 45.0107 109.184 40.7795 109.683 37.0695C109.683 37.0695 109.621 37.0158 109.614 37.0695C109.315 38.7712 109.039 40.3809 108.794 42.0979C107.751 41.2241 106.693 40.4499 105.727 39.4994C102.514 36.4842 100.119 32.7018 98.7673 28.5073C97.8321 25.2419 98.1847 24.483 99.4342 22.7737C99.7466 22.3274 100.109 21.9184 100.515 21.5549C102.484 19.8693 104.664 18.447 107 17.3236C109.685 16.2161 112.477 15.389 115.332 14.8554C115.505 15.0289 115.666 15.2132 115.815 15.4073C115.37 16.0512 114.788 17.1627 115.248 18.0825C115.526 18.7913 116.026 19.391 116.673 19.7919V20.1675C115.232 20.8957 109.384 24.5367 108.786 25.0043C108.769 25.02 108.756 25.0391 108.747 25.0601C108.738 25.0812 108.733 25.104 108.733 25.1269C108.733 25.1499 108.738 25.1726 108.747 25.1937C108.756 25.2148 108.769 25.2338 108.786 25.2496C111.085 27.2425 118.03 30.7149 118.82 30.9372C119.019 31.2975 119.908 33.2368 120.161 33.85C120.161 33.9114 120.284 33.9497 120.322 33.85C120.538 33.3885 120.802 32.9516 121.112 32.5469C121.15 32.9225 121.372 34.1797 122.3 34.4403C123.227 34.7009 124.484 33.3288 124.599 32.6006C124.599 32.6619 125.42 33.85 125.749 34.3943C125.761 34.416 125.778 34.4346 125.798 34.4488C125.818 34.463 125.842 34.4723 125.866 34.476C125.891 34.4797 125.916 34.4777 125.939 34.4702C125.963 34.4627 125.984 34.4498 126.002 34.4326C126.523 33.7657 128.501 30.8759 129.107 30.2167C129.183 30.14 129.107 30.0864 128.984 29.8411C129.298 29.8411 139.386 26.8516 140.152 26.43C140.237 26.384 140.152 26.2537 140.083 26.2767C139.6 26.4045 139.124 26.558 138.658 26.7366C135.837 24.3757 133.859 23.1263 131.199 19.4009C130.226 18.0365 130.065 17.6149 129.666 16.994C129.761 16.1896 130.057 15.4221 130.527 14.7628C130.997 14.1035 131.627 13.5737 132.357 13.2227C132.916 13.5523 137.408 15.9822 142.023 18.9487C144.062 20.2595 146.875 22.1221 148.155 23.9235C148.678 24.688 149.022 25.5602 149.163 26.4756C149.303 27.391 149.237 28.3263 148.967 29.2125H148.952Z" fill="black"/>
</svg>
