<svg width="154" height="154" viewBox="0 0 154 154" fill="none" xmlns="http://www.w3.org/2000/svg">
<path d="M30.6616 7.23616C29.9772 6.95688 29.237 6.84139 28.5 6.89888C24.1996 6.82989 16.7794 7.05219 16.8561 7.05219C16.0895 6.55394 15.323 6.07101 14.4644 5.63408C13.3683 5.04383 10.6394 3.83268 9.68884 4.59923C9.59518 4.67913 9.53499 4.79131 9.5202 4.91352C9.45887 5.30446 9.85748 5.55742 11.0533 6.44662C12.3794 7.42014 13.9968 8.54697 15.3536 9.51282C15.9975 12.2647 16.8637 15.9212 17.454 18.2668C17.5024 18.6325 17.634 18.9823 17.8386 19.2893C18.0433 19.5962 18.3155 19.8522 18.6345 20.0375C19.309 20.3672 19.401 19.6696 19.516 18.9414C19.7306 17.5999 20.1752 14.1811 20.3439 12.9163C21.992 14.0278 23.6707 15.1546 25.4491 16.2815C25.636 17.3195 25.8921 18.3438 26.2157 19.3477C26.7829 20.6355 27.4191 18.7497 27.7488 17.3853C31.2212 16.3504 32.7007 15.1776 29.3738 15.1776C30.2017 14.7943 31.5585 14.1504 30.6616 13.7978C29.7648 13.4452 27.3731 14.0201 26.6219 14.1811C25.2958 13.0849 23.7627 11.9198 22.5056 10.9923C33.7048 7.57345 30.1711 8.69261 30.8303 8.41665C31.6965 8.07937 31.5278 7.66543 30.6616 7.23616ZM26.5223 14.4571C26.7522 14.641 28.3007 13.8898 30.2017 13.9358C30.7843 13.9358 30.7383 14.1121 30.7613 14.1198C30.2105 14.5612 29.6051 14.9297 28.9599 15.216C27.7028 15.216 27.3731 15.3003 26.438 15.3309C24.6519 14.2884 15.8366 8.47798 11.8198 5.83338C10.5704 5.01317 10.4784 4.92885 10.2101 4.85986C10.1206 4.82836 10.0252 4.81751 9.93094 4.82813C9.83668 4.83875 9.74605 4.87056 9.66584 4.92118C9.68289 4.84673 9.72315 4.77962 9.78082 4.72955C10.6547 3.963 13.3606 5.22014 14.3801 5.77972C15.1083 6.17833 15.8212 6.60759 16.5188 7.05219C16.0819 7.10585 15.8212 7.59644 16.4498 8.22501C17.8987 9.33101 19.4086 10.3547 20.9725 11.2912C21.0519 11.3386 21.141 11.3674 21.2331 11.3755C21.5743 11.3125 21.9081 11.2149 22.2296 11.0842C23.6784 12.1804 25.1042 13.3149 26.5223 14.4571ZM29.0059 8.7846C27.6951 8.7386 21.1028 8.48564 16.4805 7.91073C16.2965 7.71909 16.2505 7.55812 16.2812 7.45846C16.3118 7.35881 16.6491 7.25916 17.0477 7.2515C17.4463 7.24383 26.1543 7.08285 28.546 7.09052C29.2674 7.0235 29.9945 7.12587 30.6693 7.38948C32.1181 8.12536 30.6616 8.30167 29.0059 8.7846ZM29.5271 19.1637C32.854 21.4633 37.2923 24.6982 40.7954 27.3121C40.8414 27.3121 40.7954 27.4194 40.7494 27.3811C37.2386 24.9205 32.9153 21.8313 29.4735 19.2327C29.4681 19.2246 29.4653 19.2151 29.4657 19.2054C29.466 19.1957 29.4694 19.1864 29.4753 19.1787C29.4813 19.1711 29.4895 19.1655 29.4988 19.1628C29.5081 19.1601 29.518 19.1604 29.5271 19.1637ZM30.7 17.8529C34.2951 20.3212 40.4505 24.7518 43.7926 27.2048C43.8386 27.2048 43.7926 27.3121 43.7467 27.2738C40.5808 25.0814 34.3104 20.6431 30.6616 17.9219C30.6577 17.915 30.6555 17.9072 30.6555 17.8992C30.6554 17.8913 30.6574 17.8835 30.6613 17.8765C30.6651 17.8696 30.6707 17.8637 30.6775 17.8596C30.6843 17.8555 30.692 17.8531 30.7 17.8529ZM138.891 61.5846C138.171 61.4245 137.435 61.3524 136.699 61.3699C139.88 57.5372 132.574 54.7469 131.103 58.94C130.612 51.8494 120.777 51.8954 120.072 57.8745C119.997 58.5621 120.025 59.2573 120.156 59.9365C119.688 59.4719 119.094 59.1542 118.447 59.0224C117.801 58.8907 117.13 58.9506 116.517 59.1948C115.904 59.439 115.375 59.8569 114.997 60.3972C114.618 60.9375 114.405 61.5766 114.384 62.2361C113.066 62.4124 110.291 62.9337 110.398 64.1832C110.398 64.9497 111.786 65.172 112.545 65.2487C113.595 65.356 112.644 65.3637 136.699 65.3253C138.232 65.3253 141.857 65.2717 142.064 63.7922C142.064 62.5274 140.094 61.8452 138.891 61.5846ZM139.09 64.9497C137.626 65.103 138.722 65.0647 114.967 65.057C114.032 65.057 110.643 65.172 110.628 64.1678C110.46 63.1253 113.449 62.5504 114.461 62.4201C114.473 62.4201 114.485 62.4177 114.496 62.4131C114.507 62.4085 114.517 62.4017 114.526 62.3932C114.534 62.3846 114.541 62.3745 114.546 62.3633C114.55 62.3522 114.553 62.3402 114.553 62.3281C114.668 59.1929 118.301 58.3191 120.21 60.3198C120.226 60.333 120.245 60.3414 120.266 60.344C120.286 60.3466 120.307 60.3433 120.325 60.3344C120.344 60.3255 120.36 60.3114 120.37 60.2939C120.381 60.2763 120.387 60.256 120.386 60.2354C120.234 59.4787 120.2 58.7029 120.287 57.9358C121.053 52.156 130.903 52.2556 130.896 59.6988C130.902 59.7197 130.914 59.738 130.932 59.751C130.949 59.7641 130.97 59.7711 130.992 59.7711C131.013 59.7711 131.034 59.7641 131.052 59.751C131.069 59.738 131.081 59.7197 131.087 59.6988C131.184 59.2579 131.358 58.8375 131.601 58.457C133.004 56.3567 136.469 57.1232 137.074 58.986C137.168 59.4207 137.152 59.8719 137.027 60.2989C136.903 60.7258 136.674 61.115 136.361 61.4312C136.349 61.4464 136.342 61.4646 136.34 61.4837C136.339 61.5028 136.342 61.522 136.351 61.539C136.36 61.556 136.374 61.5701 136.391 61.5795C136.407 61.5889 136.426 61.5934 136.446 61.5922C138.05 61.4962 139.648 61.8691 141.045 62.6654C141.252 62.7725 141.429 62.9282 141.563 63.1192C141.697 63.3101 141.782 63.5305 141.811 63.7616C141.666 64.6201 139.964 64.8577 139.09 64.9497ZM61.0937 15.2543C60.7411 15.9442 59.4379 16.0208 59.3153 16.7184C59.1926 17.4159 60.1278 17.7226 60.7641 17.8682C60.7895 17.8763 60.8171 17.874 60.8408 17.8618C60.8645 17.8496 60.8824 17.8285 60.8905 17.8031C60.8987 17.7776 60.8964 17.75 60.8842 17.7263C60.8719 17.7026 60.8508 17.6847 60.8254 17.6766C58.0505 16.5497 60.9097 16.4961 61.2853 15.3769C61.3016 15.3515 61.3071 15.3207 61.3006 15.2912C61.2941 15.2617 61.2762 15.236 61.2508 15.2198C61.2254 15.2035 61.1946 15.198 61.1651 15.2045C61.1356 15.211 61.1099 15.2289 61.0937 15.2543ZM58.725 15.1853C58.863 15.1853 59.0163 14.9477 59.07 14.618C59.1236 14.2884 59.07 13.9971 58.9013 13.9741C58.7327 13.9511 58.6024 14.2118 58.5564 14.5414C58.5104 14.871 58.5794 15.1623 58.725 15.1853ZM63.447 15.8599C63.5926 15.8599 63.7459 15.6299 63.7996 15.2926C63.8533 14.9553 63.7996 14.6717 63.6233 14.6564C63.447 14.641 63.332 14.8863 63.2783 15.2236C63.2247 15.5609 63.309 15.8445 63.447 15.8599ZM63.5773 12.0884C63.7256 11.9327 63.908 11.8135 64.1102 11.7403C64.3124 11.6672 64.5289 11.642 64.7425 11.6668C65.1755 11.8 65.5544 12.0687 65.8233 12.4334C65.8375 12.4557 65.8601 12.4715 65.8859 12.4773C65.9118 12.483 65.9389 12.4783 65.9613 12.464C65.9836 12.4498 65.9994 12.4273 66.0052 12.4014C66.0109 12.3755 66.0062 12.3484 65.9919 12.3261C65.917 12.0595 65.7652 11.821 65.5556 11.6401C65.346 11.4592 65.0878 11.344 64.8132 11.3089C64.5386 11.2738 64.2597 11.3202 64.0113 11.4425C63.7629 11.5647 63.556 11.7574 63.4163 11.9964C63.4165 12.0152 63.4216 12.0336 63.4311 12.0498C63.4405 12.0659 63.4541 12.0794 63.4704 12.0887C63.4867 12.098 63.5051 12.1028 63.5239 12.1028C63.5426 12.1028 63.5611 12.0978 63.5773 12.0884ZM68.5215 13.9665C68.5462 13.9718 68.5716 13.9716 68.5962 13.9658C68.6207 13.96 68.6435 13.9488 68.6632 13.9329C68.6828 13.9171 68.6986 13.8971 68.7094 13.8744C68.7203 13.8517 68.7259 13.8268 68.7259 13.8017C68.7259 13.7765 68.7203 13.7516 68.7094 13.7289C68.6986 13.7062 68.6828 13.6862 68.6632 13.6704C68.6435 13.6546 68.6207 13.6434 68.5962 13.6376C68.5716 13.6318 68.5462 13.6315 68.5215 13.6369C68.4839 13.645 68.4502 13.6658 68.426 13.6958C68.4018 13.7258 68.3887 13.7631 68.3887 13.8017C68.3887 13.8402 68.4018 13.8775 68.426 13.9075C68.4502 13.9375 68.4839 13.9583 68.5215 13.9665ZM69.4184 14.1888C69.4561 14.1806 69.4898 14.1598 69.5139 14.1298C69.5381 14.0998 69.5513 14.0625 69.5513 14.024C69.5513 13.9854 69.5381 13.9481 69.5139 13.9181C69.4898 13.8881 69.4561 13.8673 69.4184 13.8592C69.3938 13.8538 69.3683 13.8541 69.3438 13.8599C69.3193 13.8657 69.2964 13.8769 69.2768 13.8927C69.2572 13.9085 69.2414 13.9285 69.2305 13.9512C69.2197 13.9739 69.214 13.9988 69.214 14.024C69.214 14.0491 69.2197 14.074 69.2305 14.0967C69.2414 14.1194 69.2572 14.1394 69.2768 14.1552C69.2964 14.1711 69.3193 14.1823 69.3438 14.1881C69.3683 14.1939 69.3938 14.1941 69.4184 14.1888ZM68.7745 14.3344C68.7991 14.3291 68.8246 14.3293 68.8491 14.3351C68.8736 14.3409 68.8965 14.3521 68.9161 14.3679C68.9357 14.3838 68.9515 14.4037 68.9624 14.4265C68.9733 14.4492 68.9789 14.474 68.9789 14.4992C68.9789 14.5244 68.9733 14.5493 68.9624 14.572C68.9515 14.5947 68.9357 14.6147 68.9161 14.6305C68.8965 14.6463 68.8736 14.6575 68.8491 14.6633C68.8246 14.6691 68.7991 14.6694 68.7745 14.664C68.7369 14.6559 68.7032 14.6351 68.679 14.6051C68.6548 14.5751 68.6416 14.5377 68.6416 14.4992C68.6416 14.4607 68.6548 14.4234 68.679 14.3934C68.7032 14.3634 68.7369 14.3426 68.7745 14.3344ZM70.5222 14.986C70.568 14.986 70.6119 15.0042 70.6442 15.0365C70.6765 15.0688 70.6947 15.1127 70.6947 15.1585C70.6947 15.2042 70.6765 15.2481 70.6442 15.2804C70.6119 15.3128 70.568 15.3309 70.5222 15.3309C70.4765 15.3309 70.4326 15.3128 70.4003 15.2804C70.3679 15.2481 70.3498 15.2042 70.3498 15.1585C70.3498 15.1127 70.3679 15.0688 70.4003 15.0365C70.4326 15.0042 70.4765 14.986 70.5222 14.986ZM68.6749 16.3658C68.6995 16.3711 68.725 16.3709 68.7495 16.3651C68.774 16.3593 68.7969 16.3481 68.8165 16.3322C68.8361 16.3164 68.8519 16.2964 68.8627 16.2737C68.8736 16.251 68.8792 16.2261 68.8792 16.201C68.8792 16.1758 68.8736 16.1509 68.8627 16.1282C68.8519 16.1055 68.8361 16.0855 68.8165 16.0697C68.7969 16.0539 68.774 16.0427 68.7495 16.0369C68.725 16.0311 68.6995 16.0308 68.6749 16.0362C68.6372 16.0443 68.6035 16.0651 68.5793 16.0951C68.5551 16.1251 68.542 16.1625 68.542 16.201C68.542 16.2395 68.5551 16.2768 68.5793 16.3068C68.6035 16.3368 68.6372 16.3576 68.6749 16.3658ZM69.5104 16.6034C69.535 16.6087 69.5605 16.6085 69.585 16.6027C69.6095 16.5969 69.6324 16.5857 69.652 16.5699C69.6716 16.5541 69.6874 16.5341 69.6983 16.5114C69.7091 16.4886 69.7148 16.4638 69.7148 16.4386C69.7148 16.4134 69.7091 16.3886 69.6983 16.3658C69.6874 16.3431 69.6716 16.3231 69.652 16.3073C69.6324 16.2915 69.6095 16.2803 69.585 16.2745C69.5605 16.2687 69.535 16.2685 69.5104 16.2738C69.4728 16.282 69.439 16.3028 69.4149 16.3327C69.3907 16.3627 69.3775 16.4001 69.3775 16.4386C69.3775 16.4771 69.3907 16.5145 69.4149 16.5445C69.439 16.5744 69.4728 16.5952 69.5104 16.6034ZM68.9891 16.6571C69.0268 16.6652 69.0605 16.686 69.0847 16.716C69.1089 16.746 69.122 16.7834 69.122 16.8219C69.122 16.8604 69.1089 16.8977 69.0847 16.9277C69.0605 16.9577 69.0268 16.9785 68.9891 16.9867C68.9645 16.992 68.939 16.9918 68.9145 16.986C68.89 16.9802 68.8671 16.969 68.8475 16.9532C68.8279 16.9373 68.8121 16.9173 68.8013 16.8946C68.7904 16.8719 68.7847 16.8471 68.7847 16.8219C68.7847 16.7967 68.7904 16.7718 68.8013 16.7491C68.8121 16.7264 68.8279 16.7064 68.8475 16.6906C68.8671 16.6748 68.89 16.6636 68.9145 16.6578C68.939 16.652 68.9645 16.6517 68.9891 16.6571ZM69.9703 17.048C69.9757 17.0234 69.9754 16.9979 69.9696 16.9734C69.9638 16.9489 69.9526 16.926 69.9368 16.9064C69.921 16.8868 69.901 16.871 69.8783 16.8601C69.8556 16.8493 69.8307 16.8436 69.8055 16.8436C69.7803 16.8436 69.7555 16.8493 69.7328 16.8601C69.71 16.871 69.69 16.8868 69.6742 16.9064C69.6584 16.926 69.6472 16.9489 69.6414 16.9734C69.6356 16.9979 69.6354 17.0234 69.6407 17.048C69.6489 17.0856 69.6697 17.1194 69.6997 17.1435C69.7296 17.1677 69.767 17.1809 69.8055 17.1809C69.844 17.1809 69.8814 17.1677 69.9114 17.1435C69.9414 17.1194 69.9622 17.0856 69.9703 17.048ZM68.6749 17.7149C68.6301 17.7149 68.5872 17.7327 68.5556 17.7643C68.524 17.7959 68.5062 17.8388 68.5062 17.8835C68.5062 17.9283 68.524 17.9712 68.5556 18.0028C68.5872 18.0344 68.6301 18.0522 68.6749 18.0522C68.7196 18.0522 68.7625 18.0344 68.7941 18.0028C68.8257 17.9712 68.8435 17.9283 68.8435 17.8835C68.8435 17.8388 68.8257 17.7959 68.7941 17.7643C68.7625 17.7327 68.7196 17.7149 68.6749 17.7149ZM69.5257 17.9449C69.4881 17.953 69.4544 17.9738 69.4302 18.0038C69.406 18.0338 69.3928 18.0712 69.3928 18.1097C69.3928 18.1482 69.406 18.1855 69.4302 18.2155C69.4544 18.2455 69.4881 18.2663 69.5257 18.2745C69.5503 18.2798 69.5758 18.2796 69.6003 18.2738C69.6248 18.268 69.6477 18.2568 69.6673 18.241C69.6869 18.2252 69.7027 18.2052 69.7136 18.1824C69.7245 18.1597 69.7301 18.1349 69.7301 18.1097C69.7301 18.0845 69.7245 18.0596 69.7136 18.0369C69.7027 18.0142 69.6869 17.9942 69.6673 17.9784C69.6477 17.9626 69.6248 17.9514 69.6003 17.9456C69.5758 17.9398 69.5503 17.9395 69.5257 17.9449ZM70.3613 16.5038C70.3859 16.4984 70.4114 16.4987 70.4359 16.5045C70.4604 16.5103 70.4833 16.5215 70.5029 16.5373C70.5225 16.5531 70.5383 16.5731 70.5492 16.5958C70.56 16.6185 70.5657 16.6434 70.5657 16.6686C70.5657 16.6937 70.56 16.7186 70.5492 16.7413C70.5383 16.764 70.5225 16.784 70.5029 16.7998C70.4833 16.8156 70.4604 16.8269 70.4359 16.8327C70.4114 16.8385 70.3859 16.8387 70.3613 16.8334C70.3236 16.8252 70.2899 16.8044 70.2657 16.7744C70.2416 16.7444 70.2284 16.7071 70.2284 16.6686C70.2284 16.63 70.2416 16.5927 70.2657 16.5627C70.2899 16.5327 70.3236 16.5119 70.3613 16.5038ZM68.3836 17.0787C68.3459 17.0868 68.3122 17.1076 68.288 17.1376C68.2639 17.1676 68.2507 17.205 68.2507 17.2435C68.2507 17.282 68.2639 17.3193 68.288 17.3493C68.3122 17.3793 68.3459 17.4001 68.3836 17.4083C68.4082 17.4136 68.4337 17.4134 68.4582 17.4076C68.4827 17.4018 68.5056 17.3906 68.5252 17.3748C68.5448 17.3589 68.5606 17.339 68.5715 17.3162C68.5823 17.2935 68.588 17.2687 68.588 17.2435C68.588 17.2183 68.5823 17.1934 68.5715 17.1707C68.5606 17.148 68.5448 17.128 68.5252 17.1122C68.5056 17.0964 68.4827 17.0852 68.4582 17.0794C68.4337 17.0736 68.4082 17.0733 68.3836 17.0787ZM69.2191 17.3163C69.1815 17.3245 69.1478 17.3453 69.1236 17.3752C69.0994 17.4052 69.0862 17.4426 69.0862 17.4811C69.0862 17.5196 69.0994 17.557 69.1236 17.587C69.1478 17.6169 69.1815 17.6377 69.2191 17.6459C69.2437 17.6513 69.2692 17.651 69.2937 17.6452C69.3182 17.6394 69.3411 17.6282 69.3607 17.6124C69.3803 17.5966 69.3961 17.5766 69.407 17.5539C69.4179 17.5311 69.4235 17.5063 69.4235 17.4811C69.4235 17.4559 69.4179 17.4311 69.407 17.4083C69.3961 17.3856 69.3803 17.3656 69.3607 17.3498C69.3411 17.334 69.3182 17.3228 69.2937 17.317C69.2692 17.3112 69.2437 17.311 69.2191 17.3163ZM70.07 17.5539C70.0323 17.5621 69.9986 17.5829 69.9744 17.6129C69.9503 17.6429 69.9371 17.6802 69.9371 17.7187C69.9371 17.7573 69.9503 17.7946 69.9744 17.8246C69.9986 17.8546 70.0323 17.8754 70.07 17.8835C70.0946 17.8889 70.1201 17.8886 70.1446 17.8828C70.1691 17.877 70.192 17.8658 70.2116 17.85C70.2312 17.8342 70.247 17.8142 70.2579 17.7915C70.2687 17.7688 70.2744 17.7439 70.2744 17.7187C70.2744 17.6936 70.2687 17.6687 70.2579 17.646C70.247 17.6233 70.2312 17.6033 70.2116 17.5875C70.192 17.5716 70.1691 17.5604 70.1446 17.5546C70.1201 17.5488 70.0946 17.5486 70.07 17.5539ZM69.5181 14.8173C69.5127 14.842 69.513 14.8674 69.5188 14.8919C69.5246 14.9165 69.5358 14.9393 69.5516 14.9589C69.5674 14.9786 69.5874 14.9944 69.6101 15.0052C69.6328 15.0161 69.6577 15.0217 69.6829 15.0217C69.708 15.0217 69.7329 15.0161 69.7556 15.0052C69.7783 14.9944 69.7983 14.9786 69.8142 14.9589C69.83 14.9393 69.8412 14.9165 69.847 14.8919C69.8528 14.8674 69.853 14.842 69.8477 14.8173C69.8395 14.7797 69.8187 14.746 69.7887 14.7218C69.7587 14.6976 69.7214 14.6845 69.6829 14.6845C69.6444 14.6845 69.607 14.6976 69.577 14.7218C69.547 14.746 69.5262 14.7797 69.5181 14.8173ZM70.2233 14.4954C70.2479 14.5007 70.2734 14.5005 70.2979 14.4947C70.3224 14.4889 70.3453 14.4777 70.3649 14.4619C70.3845 14.4461 70.4003 14.4261 70.4112 14.4033C70.422 14.3806 70.4277 14.3558 70.4277 14.3306C70.4277 14.3054 70.422 14.2805 70.4112 14.2578C70.4003 14.2351 70.3845 14.2151 70.3649 14.1993C70.3453 14.1835 70.3224 14.1723 70.2979 14.1665C70.2734 14.1607 70.2479 14.1604 70.2233 14.1658C70.1856 14.1739 70.1519 14.1947 70.1278 14.2247C70.1036 14.2547 70.0904 14.2921 70.0904 14.3306C70.0904 14.3691 70.1036 14.4065 70.1278 14.4364C70.1519 14.4664 70.1856 14.4872 70.2233 14.4954ZM70.9362 14.8173C70.9738 14.8092 71.0075 14.7884 71.0317 14.7584C71.0559 14.7284 71.0691 14.6911 71.0691 14.6525C71.0691 14.614 71.0559 14.5767 71.0317 14.5467C71.0075 14.5167 70.9738 14.4959 70.9362 14.4877C70.9116 14.4824 70.8861 14.4826 70.8616 14.4884C70.8371 14.4942 70.8142 14.5054 70.7946 14.5213C70.775 14.5371 70.7592 14.5571 70.7483 14.5798C70.7374 14.6025 70.7318 14.6274 70.7318 14.6525C70.7318 14.6777 70.7374 14.7026 70.7483 14.7253C70.7592 14.748 70.775 14.768 70.7946 14.7838C70.8142 14.7996 70.8371 14.8108 70.8616 14.8166C70.8861 14.8224 70.9116 14.8227 70.9362 14.8173ZM133.793 144.433C133.54 143.053 132.344 141.597 129.869 142.256C129.243 142.412 128.689 142.776 128.299 143.289C127.908 143.802 127.705 144.433 127.722 145.077C127.715 145.463 127.785 145.846 127.93 146.205C128.074 146.563 128.288 146.888 128.561 147.161C128.834 147.434 129.158 147.65 129.516 147.795C129.874 147.94 130.257 148.012 130.643 148.005C131.096 148.016 131.547 147.927 131.963 147.745C132.378 147.564 132.749 147.293 133.049 146.953C133.35 146.612 133.572 146.21 133.7 145.775C133.829 145.34 133.86 144.882 133.793 144.433ZM130.919 146.334C130.682 146.334 130.451 146.264 130.254 146.133C130.058 146.001 129.904 145.815 129.814 145.596C129.723 145.378 129.7 145.137 129.746 144.905C129.792 144.673 129.906 144.46 130.073 144.293C130.24 144.126 130.453 144.012 130.685 143.966C130.917 143.92 131.158 143.943 131.376 144.034C131.595 144.124 131.782 144.277 131.913 144.474C132.044 144.671 132.115 144.902 132.115 145.139C132.115 145.456 131.989 145.76 131.764 145.984C131.54 146.208 131.236 146.334 130.919 146.334ZM117.811 110.383C117.044 106.742 120.486 102.196 122.632 101.491C120.754 100.364 116.845 100.311 113.725 102.066C115.02 104.979 115.128 105.293 115.158 105.416C115.214 105.618 115.222 105.831 115.18 106.036C115.138 106.241 115.047 106.434 114.916 106.598C114.786 106.762 114.618 106.892 114.426 106.979C114.235 107.065 114.026 107.105 113.817 107.095C113.472 107.095 113.119 106.826 112.859 106.274C112.667 105.86 111.686 103.53 111.686 103.53C109.287 105.883 108.512 109.709 109.333 113.02C111.318 110.881 115.925 109.77 117.811 110.383Z" fill="black"/>
<path d="M146.971 122.518H135.196C131.831 116.056 126.764 106.658 124.35 103.078C123.958 102.511 123.461 102.024 122.886 101.645C121.092 102.311 119.237 105.24 118.601 107.279C117.65 110.284 118.447 111.257 123.966 121.843C125.676 125.101 133.932 140.562 135.012 142.448C139.734 139.443 139.405 136.868 139.374 133.211C139.404 131.404 138.935 129.624 138.017 128.068C137.465 126.971 136.484 125.063 135.304 122.771H146.955C146.982 122.771 147.007 122.76 147.026 122.741C147.044 122.723 147.055 122.697 147.055 122.671C147.07 122.602 147.024 122.518 146.971 122.518Z" fill="black"/>
<path d="M117.918 110.782C116.462 110.123 111.142 111.548 109.44 113.388C109.609 114.239 111.602 118.248 113.725 122.372H90.9127C90.7747 121.705 90.6367 121.015 90.5064 120.318C90.5064 120.318 90.1768 118.877 89.119 111.671C88.3271 105.567 87.8461 99.4266 87.6778 93.2738L103.959 86.4208L103.4 85.1023C99.3524 86.6354 93.6569 88.8354 85.3935 92.7295C85.3935 92.7295 85.3169 92.6605 85.3552 92.6375C91.3879 89.3413 102.664 85.0717 103.285 84.834L101.184 79.5295C101.176 79.5122 101.175 79.4924 101.182 79.4745C101.188 79.4565 101.202 79.4418 101.219 79.4337C101.236 79.4256 101.256 79.4246 101.274 79.4311C101.292 79.4376 101.307 79.4509 101.315 79.4682C110.138 99.3985 112.453 104.649 113.051 105.991C113.357 106.665 113.564 106.696 113.725 106.757C113.876 106.769 114.028 106.749 114.171 106.699C114.314 106.65 114.445 106.571 114.555 106.468C114.666 106.365 114.755 106.24 114.815 106.101C114.875 105.962 114.906 105.813 114.906 105.661C114.906 105.293 115.603 106.842 102.925 78.556C102.915 78.5346 102.915 78.5105 102.924 78.489C102.932 78.4674 102.949 78.4502 102.971 78.441C102.992 78.4319 103.016 78.4316 103.038 78.4402C103.059 78.4488 103.076 78.4657 103.085 78.487L105.699 83.9448C107.608 83.2549 109.532 82.6264 111.771 82.0055C111.839 82.0055 111.908 82.1511 111.839 82.1741C111.357 82.3504 109.816 82.7797 105.822 84.2745L106.405 85.5239L112.997 82.7644C113.021 82.7542 113.041 82.7347 113.051 82.7103C113.061 82.6859 113.061 82.6584 113.051 82.634C110.751 76.8159 108.804 71.8257 106.918 68.3532L102.373 71.1511C102.143 71.0131 102.058 70.9365 102.02 70.9212C106.336 68.2842 107.072 67.809 107.148 67.7936C106.308 65.179 105.204 62.6568 103.852 60.2661C103.085 60.3734 102.235 60.5191 101.414 60.68C101.294 54.6529 99.9786 48.7096 97.5433 43.195C106.159 43.3177 118.6 43.4097 127.186 43.0417C128.594 43.0108 129.996 42.8414 131.371 42.5358C132.904 42.1602 134.614 41.386 134.345 39.8452C133.954 37.5456 129.072 37.3233 126.749 37.3156C127.017 31.0146 119.574 28.8836 115.534 32.5323C116.239 29.3358 115.534 25.7867 112.713 23.7553C111.802 23.0846 110.765 22.6034 109.664 22.3401C108.564 22.0768 107.421 22.0367 106.305 22.2222C102.587 22.9198 99.9886 26.3233 100.042 29.0292C97.6047 27.887 95.535 28.3853 94.2318 29.7421C93.5104 30.5116 93.0296 31.4751 92.8485 32.5142C92.6674 33.5533 92.7938 34.6227 93.2123 35.5909C93.082 35.5909 92.9517 35.5909 92.8291 35.6369C86.4284 27.9714 76.9155 24.3226 69.5183 24.5679L68.6137 22.3525C69.1108 21.699 69.5422 20.9981 69.9016 20.2599C72.8681 21.2564 74.4089 16.4271 71.6339 16.5574C71.6059 16.3427 71.5122 16.1419 71.3657 15.9825C71.5726 15.285 71.7719 14.5797 71.9559 13.8745C72.4395 13.7142 72.9375 13.6012 73.443 13.5372C73.4816 13.5286 73.5162 13.5073 73.5412 13.4768C73.5662 13.4462 73.5802 13.4081 73.581 13.3686V12.3567C73.5814 12.3308 73.576 12.305 73.5653 12.2814C73.5546 12.2577 73.5388 12.2367 73.519 12.2198C73.4993 12.203 73.476 12.1907 73.4509 12.1839C73.4259 12.1771 73.3996 12.1759 73.374 12.1804L72.8221 12.2647C72.7989 12.2691 72.7751 12.2688 72.752 12.2638C72.7289 12.2589 72.7071 12.2493 72.6878 12.2357C72.6685 12.2221 72.6521 12.2048 72.6396 12.1848C72.6272 12.1647 72.6188 12.1424 72.6151 12.1191V11.9351C72.6077 11.8927 72.616 11.8489 72.6386 11.8122C72.6612 11.7755 72.6965 11.7483 72.7378 11.7358L73.9336 11.3832C73.97 11.3729 74.0019 11.3507 74.0241 11.3201C74.0464 11.2895 74.0577 11.2524 74.0563 11.2146V10.2641C74.0574 10.2399 74.0535 10.2158 74.0445 10.1934C74.0356 10.1709 74.0219 10.1506 74.0045 10.1339C73.9871 10.1172 73.9662 10.1044 73.9434 10.0965C73.9206 10.0885 73.8963 10.0855 73.8723 10.0877L72.8758 10.1644C72.839 10.1662 72.8026 10.1569 72.7711 10.1378C72.7397 10.1187 72.7147 10.0905 72.6995 10.0571L72.6381 9.9191C72.6271 9.8962 72.6211 9.87117 72.6206 9.84574C72.6201 9.82031 72.6252 9.79508 72.6354 9.77177C72.6456 9.74847 72.6607 9.72765 72.6797 9.71074C72.6987 9.69383 72.7211 9.68123 72.7454 9.67381L74.0103 9.2752C74.0557 9.25948 74.0931 9.22661 74.1146 9.18364C74.1361 9.14067 74.1399 9.09099 74.1252 9.04524L73.7956 8.06405C73.7831 8.02154 73.7544 7.98565 73.7157 7.96413C73.677 7.94262 73.6313 7.93721 73.5887 7.94907L72.0555 8.29402C72.0168 8.305 71.9754 8.30176 71.9389 8.28489C71.9023 8.26802 71.873 8.23863 71.8562 8.20203L71.7796 8.04872C71.769 8.02809 71.7626 8.00557 71.7607 7.98246C71.7588 7.95934 71.7615 7.93607 71.7686 7.914C71.7757 7.89192 71.7871 7.87147 71.8022 7.85381C71.8172 7.83615 71.8356 7.82164 71.8562 7.81109L73.0061 7.20552C73.0344 7.19228 73.0588 7.17172 73.0766 7.14596C73.0944 7.1202 73.105 7.09016 73.1073 7.05894C73.1097 7.02772 73.1037 6.99643 73.0899 6.96831C73.0761 6.94018 73.0551 6.91622 73.0291 6.8989L71.8716 5.67242C71.8387 5.64057 71.7947 5.62277 71.7489 5.62277C71.7032 5.62277 71.6592 5.64057 71.6263 5.67242L70.3768 6.69193C70.3473 6.71833 70.3091 6.73292 70.2695 6.73292C70.2299 6.73292 70.1917 6.71833 70.1622 6.69193C70.1308 6.66034 70.1132 6.61763 70.1132 6.57311C70.1132 6.5286 70.1308 6.48589 70.1622 6.4543L70.8521 5.45012C70.8679 5.42792 70.8783 5.40236 70.8826 5.37544C70.8868 5.34853 70.8848 5.32099 70.8766 5.295C70.8685 5.269 70.8544 5.24525 70.8355 5.22562C70.8166 5.20598 70.7934 5.19099 70.7677 5.18183L69.4723 4.6989C69.4341 4.68352 69.3917 4.682 69.3525 4.6946C69.3133 4.70721 69.2797 4.73313 69.2576 4.76789L68.5448 5.88705C68.5237 5.92491 68.4888 5.9532 68.4474 5.96605C68.406 5.97889 68.3613 5.97531 68.3225 5.95604L68.2381 5.91771C68.1945 5.89625 68.1612 5.85841 68.1454 5.81245C68.1296 5.76649 68.1326 5.71615 68.1538 5.67242L68.7517 4.50726C68.7631 4.48534 68.7697 4.46127 68.7712 4.43661C68.7727 4.41196 68.769 4.38727 68.7603 4.36414C68.7516 4.34102 68.7382 4.31997 68.7209 4.30237C68.7036 4.28477 68.6827 4.271 68.6597 4.26196L67.6096 3.8327C67.5678 3.81421 67.5204 3.81267 67.4775 3.8284C67.4346 3.84413 67.3995 3.8759 67.3796 3.91702L66.5287 5.63409C66.5105 5.67129 66.4798 5.70089 66.442 5.71771C66.4041 5.73453 66.3616 5.73749 66.3218 5.72608C66.2992 5.72081 66.2779 5.71093 66.2593 5.69707C66.2407 5.68321 66.2251 5.66565 66.2136 5.64551C66.2021 5.62536 66.1949 5.60306 66.1924 5.57999C66.1899 5.55692 66.1922 5.53358 66.1991 5.51144L66.5594 4.26196C66.5677 4.23712 66.5702 4.21067 66.5666 4.18472C66.5629 4.15876 66.5533 4.13401 66.5384 4.11244C66.5235 4.09086 66.5038 4.07305 66.4808 4.06042C66.4579 4.04778 66.4323 4.04068 66.4061 4.03967L65.0876 3.96301C65.0464 3.96046 65.0058 3.9731 64.9733 3.99852C64.9408 4.02395 64.9187 4.06041 64.9113 4.10099L64.6353 5.42712C64.6261 5.47281 64.5991 5.51297 64.5603 5.53883C64.5216 5.56469 64.4741 5.57413 64.4284 5.5651H64.3671C64.3432 5.56323 64.3199 5.5565 64.2987 5.54533C64.2774 5.53415 64.2587 5.51877 64.2437 5.50011C64.2286 5.48145 64.2175 5.45992 64.211 5.43683C64.2046 5.41373 64.2029 5.38956 64.2061 5.3658V4.2543C64.2052 4.22873 64.199 4.20362 64.1879 4.18057C64.1768 4.15753 64.161 4.13705 64.1415 4.12046C64.122 4.10387 64.0993 4.09152 64.0748 4.08421C64.0503 4.0769 64.0245 4.07478 63.9991 4.07799L62.9183 4.26963C62.8742 4.27717 62.8347 4.30115 62.8077 4.33673C62.7806 4.3723 62.7681 4.41682 62.7726 4.46127L62.857 5.44245C62.8575 5.4849 62.8427 5.52613 62.8153 5.55855C62.7879 5.59098 62.7497 5.61242 62.7078 5.61895C62.6658 5.62547 62.6229 5.61664 62.5869 5.59408C62.551 5.57151 62.5244 5.53672 62.512 5.49611L62.3204 4.72956C62.3142 4.70569 62.3032 4.68331 62.2882 4.66375C62.2732 4.64419 62.2544 4.62785 62.233 4.61569C62.2115 4.60353 62.1879 4.59581 62.1634 4.59299C62.1389 4.59017 62.1141 4.59229 62.0904 4.59925L61.1552 4.95953C61.1335 4.96798 61.1137 4.98066 61.0969 4.99683C61.0801 5.013 61.0667 5.03233 61.0574 5.05372C61.0481 5.0751 61.0432 5.09811 61.0429 5.12142C61.0426 5.14472 61.0469 5.16786 61.0556 5.18949L61.4848 6.28566C61.501 6.32655 61.5014 6.37203 61.4858 6.41316C61.4702 6.45429 61.4398 6.4881 61.4005 6.50796L61.3239 6.52329C61.3032 6.53389 61.2807 6.54032 61.2576 6.5422C61.2345 6.54409 61.2112 6.54139 61.1891 6.53427C61.1671 6.52715 61.1466 6.51575 61.1289 6.50071C61.1113 6.48567 61.0968 6.46729 61.0862 6.44663L60.5573 5.47311C60.5476 5.4517 60.5335 5.43254 60.516 5.41688C60.4985 5.40122 60.4778 5.38941 60.4555 5.38219C60.4331 5.37497 60.4094 5.37251 60.3861 5.37497C60.3627 5.37743 60.3401 5.38475 60.3197 5.39646L59.7294 5.70308C59.7076 5.71338 59.6882 5.72825 59.6726 5.74669C59.657 5.76514 59.6455 5.78672 59.639 5.80998C59.6324 5.83324 59.6309 5.85764 59.6347 5.88151C59.6384 5.90539 59.6472 5.92819 59.6604 5.94837L60.427 7.28217C60.4539 7.31293 60.4688 7.35243 60.4688 7.39332C60.4688 7.43422 60.4539 7.47372 60.427 7.50447L60.3273 7.58113C60.2953 7.60865 60.2546 7.62378 60.2124 7.62378C60.1702 7.62378 60.1294 7.60865 60.0974 7.58113L59.5991 7.11353C59.5677 7.08801 59.5285 7.07408 59.488 7.07408C59.4475 7.07408 59.4082 7.08801 59.3768 7.11353L58.9322 7.45081C58.9041 7.48403 58.8887 7.52612 58.8887 7.56963C58.8887 7.61313 58.9041 7.65523 58.9322 7.68844C59.3257 8.44254 59.6515 9.23007 59.9057 10.0418C59.6272 10.3664 59.3711 10.7095 59.1392 11.0689C58.9219 11.0802 58.7139 11.1607 58.5457 11.2986C58.3774 11.4365 58.2577 11.6246 58.204 11.8355C58.2004 11.8546 58.2028 11.8743 58.2111 11.8919C58.2194 11.9095 58.233 11.924 58.25 11.9333C58.267 11.9427 58.2866 11.9464 58.3059 11.944C58.3251 11.9416 58.3431 11.9331 58.3573 11.9198C58.4948 11.7406 58.6702 11.594 58.8709 11.4905C58.6395 11.8575 58.4271 12.2362 58.2347 12.625L56.5023 12.4794C56.4743 12.475 56.4457 12.4767 56.4184 12.4842C56.3911 12.4918 56.3657 12.5051 56.3439 12.5232C56.3222 12.5413 56.3045 12.5639 56.2922 12.5894C56.2798 12.6149 56.273 12.6427 56.2723 12.671V13.0006C56.2693 13.0465 56.2811 13.092 56.3059 13.1307C56.3308 13.1693 56.3673 13.199 56.4103 13.2153C56.2186 14.2654 56.2263 15.6836 57.1232 16.2815C57.0542 16.6877 57.0005 17.048 56.9622 17.5386C56.0117 17.1323 54.9308 17.2933 54.8848 18.3435C53.574 17.8529 52.8535 18.4048 52.7998 19.2787C50.8298 18.7191 50.2932 22.5059 50.8068 24.2919C47.2577 28.2473 33.8737 36.5567 37.0549 46.9128C38.7183 52.7309 44.7664 53.6585 50.9678 51.972C49.8793 61.1706 50.4465 70.9825 50.8068 71.1358C50.9831 71.2278 51.1671 71.3198 51.351 71.3964C50.1552 73.0726 49.0591 74.7795 48.0625 76.517H47.5643C47.7329 69.917 40.1211 68.1386 36.2807 71.795C36.2807 62.4431 22.2145 62.0905 22.1378 72.0097C18.0214 69.0968 12.5866 72.1936 14.158 75.8424C12.1267 75.8424 9.69671 76.0647 7.94898 77.1302C4.9901 78.9546 6.13226 82.2738 9.35177 82.2814C17.5998 82.2814 31.7197 82.795 45.1113 82.3887C39.6305 94.8222 38.5113 108.451 39.4389 122.357C36.6256 122.357 12.5329 122.495 7.04445 122.679C6.90647 122.679 6.91414 122.893 7.04445 122.886C12.51 122.755 36.503 122.717 39.4618 122.717C39.8068 127.745 40.42 132.828 41.1866 137.91C41.1876 137.96 41.2057 138.007 41.2378 138.045C41.2699 138.083 41.3141 138.108 41.3629 138.117L42.942 138.378C42.8347 139.021 42.689 139.849 42.574 140.394C40.1132 140.404 37.6737 140.851 35.3685 141.712C30.1176 144.081 46.4604 145.844 46.4834 145.844C47.1193 143.659 47.6034 141.434 47.9322 139.182L49.0897 139.374C49.1563 139.381 49.2231 139.363 49.277 139.323C49.3309 139.284 49.368 139.225 49.381 139.159C50.3469 133.686 51.5043 128.144 53.0221 122.709H74.2479C78.2388 129.265 82.8022 135.455 87.8848 141.206C87.9276 141.255 87.986 141.288 88.0502 141.299C88.1144 141.311 88.1805 141.299 88.2374 141.267L89.2569 140.693C89.6785 141.52 89.8548 141.819 90.2075 142.456C88.3547 144.06 86.7979 145.978 85.6082 148.12C84.8416 149.753 86.666 149.654 88.3677 149.171C91.1043 148.404 96.7538 144.065 96.7538 144.065C96.6311 143.697 95.1517 140.095 94.1169 137.933L94.7914 137.55C94.845 137.518 94.8858 137.468 94.9068 137.409C94.9278 137.351 94.9277 137.286 94.9064 137.228C93.2937 132.483 91.993 127.639 91.0123 122.725H113.932C116.232 127.132 118.585 131.578 119.014 132.391C124.457 142.632 124.38 142.448 125.147 143.161C125.816 143.798 126.624 144.27 127.508 144.541C127.952 141.344 132.329 140.654 133.701 143.245C134.044 143.056 134.389 142.857 134.736 142.647C132.245 138.523 118.662 113.258 117.918 110.782ZM104.182 74.271C104.239 74.9291 104.187 75.5921 104.028 76.2333C103.898 77.3832 104.442 78.74 103.63 78.9469C103.239 78.3184 102.863 77.6438 102.457 76.9999C101.897 76.1797 100.924 75.3518 100.226 75.6814C99.5287 76.011 100.042 77.0306 100.341 77.6668C100.862 78.7783 100.771 80.1428 100.441 79.9664C100.28 79.8821 99.889 78.74 99.2221 77.8968C97.0911 75.1832 97.5203 73.3588 97.321 72.0786C97.8376 71.9995 98.3494 71.8921 98.8541 71.7567C99.0333 71.9647 99.2771 72.1067 99.5464 72.1597C99.8158 72.2128 100.095 72.1739 100.34 72.0494C100.585 71.9248 100.78 71.7218 100.896 71.4728C101.012 71.2237 101.04 70.9431 100.977 70.6759C102.38 71.4041 103.936 72.6919 104.182 74.271ZM98.9691 70.9671C98.9691 70.8155 99.0141 70.6673 99.0983 70.5413C99.1825 70.4152 99.3023 70.317 99.4423 70.2589C99.5824 70.2009 99.7365 70.1857 99.8852 70.2153C100.034 70.2449 100.171 70.3179 100.278 70.4251C100.385 70.5323 100.458 70.6689 100.487 70.8176C100.517 70.9663 100.502 71.1204 100.444 71.2605C100.386 71.4006 100.288 71.5203 100.162 71.6045C100.035 71.6887 99.8873 71.7337 99.7357 71.7337C99.5324 71.7337 99.3374 71.6529 99.1936 71.5092C99.0499 71.3654 98.9691 71.1704 98.9691 70.9671ZM93.3886 35.7748C93.4053 35.7736 93.4215 35.7684 93.4358 35.7598C93.4502 35.7512 93.4623 35.7393 93.4712 35.7251C93.4802 35.711 93.4857 35.6949 93.4873 35.6783C93.4889 35.6616 93.4866 35.6448 93.4806 35.6292C92.1162 32.6626 93.9406 28.8606 97.1371 28.6383C98.1963 28.5997 99.249 28.8207 100.203 29.2822C100.217 29.2823 100.23 29.2796 100.242 29.274C100.255 29.2685 100.266 29.2603 100.274 29.25C100.283 29.2398 100.29 29.2278 100.293 29.2148C100.297 29.2018 100.298 29.1881 100.295 29.1748C100.203 26.7142 102.695 23.2877 106.428 22.5902C108.021 22.3246 109.657 22.5488 111.12 23.2332C112.584 23.9175 113.805 25.0298 114.622 26.4229C115.555 28.3964 115.798 30.6264 115.312 32.7546C115.304 32.7765 115.304 32.8004 115.312 32.8223C115.32 32.8442 115.335 32.8626 115.355 32.8744C115.375 32.8862 115.398 32.8907 115.421 32.887C115.444 32.8833 115.465 32.8718 115.481 32.8543C119.39 29.1825 126.772 31.2522 126.596 37.3539C126.595 37.3676 126.596 37.3814 126.601 37.3944C126.605 37.4074 126.613 37.4193 126.622 37.4294C126.631 37.4395 126.643 37.4475 126.655 37.453C126.668 37.4585 126.681 37.4613 126.695 37.4612C128.52 37.5609 132.337 37.7832 133.594 39.0403C133.835 39.2463 133.996 39.5295 134.05 39.8414C134.105 40.1533 134.049 40.4744 133.893 40.7497C132.973 42.3365 129.003 42.6355 127.193 42.7198C119.045 43.0417 108.551 42.9268 97.436 42.8731C96.2537 40.3361 94.763 37.9546 92.9977 35.7825L93.3886 35.7748ZM75.5817 25.4801C94.9984 29.9721 103.377 49.8257 100.679 68.9894C100.566 69.3011 100.383 69.582 100.142 69.8097C99.9789 69.7564 99.8066 69.738 99.636 69.7555C99.4654 69.773 99.3003 69.826 99.1515 69.9113C99.0027 69.9965 98.8735 70.112 98.7721 70.2503C98.6707 70.3886 98.5994 70.5466 98.5629 70.7142C97.8193 70.9457 97.0413 71.0468 96.2632 71.0131C96.2632 71.0131 95.9106 70.4229 95.374 69.48C97.2137 69.3651 99.7357 68.6292 100.594 67.0271C100.606 67.0019 100.607 66.9735 100.6 66.9471C100.592 66.9206 100.575 66.8979 100.551 66.883C100.528 66.8681 100.5 66.8621 100.473 66.866C100.446 66.87 100.421 66.8836 100.403 66.9044C99.3294 68.3379 97.0068 68.9588 95.2284 69.2041C90.0925 60.3811 85.5698 52.6466 78.6862 45.74C78.6567 45.7115 78.6171 45.6959 78.5762 45.6967C78.5352 45.6974 78.4962 45.7143 78.4677 45.7438C78.4393 45.7733 78.4237 45.8129 78.4244 45.8538C78.4251 45.8948 78.4421 45.9338 78.4716 45.9623C81.094 48.6518 83.4984 51.5457 85.6618 54.6166C87.5245 58.986 88.613 62.5351 89.2186 64.3442C85.5821 65.7863 82.0478 67.474 78.6402 69.3957C75.643 53.4821 72.2932 39.2013 72.8221 31.4285C73.0367 28.3623 74.3552 26.0626 75.5434 25.5107L75.5817 25.4801ZM91.4416 63.5393C90.8437 63.7539 90.2534 63.9839 89.6632 64.2138C88.751 61.4466 87.7622 58.7023 86.643 56.0118C88.4367 58.6257 89.9622 61.0787 91.4416 63.5393ZM75.666 72.8222C74.7809 73.018 73.8851 73.1614 72.9831 73.2515C71.0209 67.5926 69.4131 61.8169 68.1691 55.9581C68.2467 48.9094 69.466 41.9199 71.7796 35.2612C71.7796 42.0222 74.3629 53.7658 77.7663 69.9476C76.8925 70.4587 76.0646 70.9697 75.2827 71.4807C75.4054 71.9483 75.5357 72.3853 75.666 72.8222ZM58.2577 65.0954C57.2151 54.5706 57.3685 37.7142 61.4772 28.0557L60.7106 33.4215C60.7077 33.452 60.7141 33.4826 60.7287 33.5095C60.7434 33.5363 60.7658 33.5582 60.793 33.5722C60.8202 33.5862 60.851 33.5918 60.8814 33.5881C60.9118 33.5845 60.9404 33.5719 60.9636 33.5518L62.328 32.264L62.742 33.9734C59.0319 46.9051 60.5803 55.5212 61.8758 61.8452C61.9678 62.2898 65.7698 64.2138 65.9845 64.1449C66.0286 64.1297 66.0691 64.1055 66.1034 64.0738C66.1377 64.0421 66.1651 64.0037 66.1838 63.9609L67.7169 60.4194C65.3329 54.0801 63.1176 43.5553 63.7845 34.2341L65.1949 32.701L66.4061 34.7553C66.4174 34.7712 66.4324 34.784 66.4497 34.7929C66.4671 34.8018 66.4863 34.8065 66.5057 34.8065C66.5252 34.8065 66.5444 34.8018 66.5617 34.7929C66.5791 34.784 66.594 34.7712 66.6054 34.7553C65.2103 44.6592 67.3719 56.1727 70.1162 65.7469C66.152 65.8642 62.1851 65.6462 58.2577 65.0954ZM64.5357 66.8201C63.8668 66.8178 63.1986 66.7743 62.535 66.6898L62.4737 65.8466C62.9796 65.9079 63.8075 65.9462 64.436 65.9539L64.5357 66.8201ZM58.296 32.195L57.2458 30.133C57.6948 29.591 58.1788 29.0788 58.6946 28.5999C59.6053 27.6814 60.7108 26.9793 61.9294 26.5456C60.9367 28.428 60.165 30.4189 59.6298 32.4787C57.9587 38.6111 57.3301 46.0236 57.2305 52.3706C56.6326 45.3567 55.981 39.3393 55.5824 34.855C58.503 32.0954 58.3343 32.287 58.296 32.195ZM62.2514 25.8557C62.2286 25.9415 62.2107 26.0285 62.1977 26.1163C57.6981 27.9254 54.8925 30.5546 51.88 33.5058C52.2402 31.7275 53.3211 26.3003 53.3287 26.2773C53.9872 26.2659 54.6384 26.1388 55.2528 25.9017C56.5482 25.4034 56.3873 24.9511 58.2653 23.6863C58.7248 24.324 59.3214 24.8506 60.0112 25.2274C60.701 25.6041 61.4665 25.8214 62.2514 25.8633V25.8557ZM59.4995 20.6968C60.082 21.3714 61.4082 20.9498 61.7991 20.2445C61.8042 20.2283 61.8155 20.2147 61.8306 20.2068C61.8457 20.1989 61.8633 20.1973 61.8796 20.2024C61.8959 20.2075 61.9094 20.2188 61.9174 20.2339C61.9253 20.249 61.9268 20.2666 61.9218 20.2829C61.7531 21.402 59.8751 21.816 59.3385 20.8118C59.3269 20.7904 59.3235 20.7655 59.3289 20.7418C59.3344 20.7181 59.3483 20.6972 59.3681 20.6831C59.3879 20.6689 59.4122 20.6625 59.4364 20.665C59.4606 20.6676 59.483 20.6789 59.4995 20.6968ZM62.351 26.5762C62.351 26.5762 62.512 27.8104 62.5273 27.8334C62.8876 28.7532 63.2326 29.6731 63.5928 30.5853L61.0096 32.9999L61.9218 27.2508L62.351 26.5762ZM64.3287 30.6619L69.1503 25.5644C67.8747 28.4303 67.0127 31.4629 66.5901 34.5714L64.3287 30.6619ZM74.9914 25.3498C72.5615 26.7525 71.9252 30.9762 71.8103 33.7818L69.1733 31.4822C70.3998 30.179 72.3162 27.979 72.9371 27.2355C72.9614 27.2065 72.9748 27.1698 72.9748 27.132C72.9748 27.0941 72.9614 27.0575 72.9371 27.0285C72.1578 26.1275 71.2032 25.3947 70.1315 24.8745C71.7639 24.8648 73.3929 25.0267 74.9914 25.3574V25.3498ZM69.6869 24.9665C70.8082 25.4516 71.8043 26.1856 72.5998 27.1128C71.9712 27.8334 70.1622 30.0257 69.0353 31.4285C69.029 31.4335 69.0238 31.4399 69.0203 31.4472C69.0167 31.4545 69.0149 31.4625 69.0149 31.4707C69.0149 31.4788 69.0167 31.4868 69.0203 31.4941C69.0238 31.5014 69.029 31.5078 69.0353 31.5128L71.7873 34.2264C69.5336 40.8111 68.0082 46.7978 67.9545 54.7546C66.4751 47.0048 65.8312 38.4348 67.6632 30.8306C68.1162 28.8088 68.7951 26.8443 69.6869 24.9741V24.9665ZM69.3266 25.0201C65.4939 29.0445 64.3824 30.133 64.0988 30.4856C63.9608 30.6466 63.9225 30.6466 63.8688 30.4856C63.8151 30.3247 63.5239 29.6578 62.8033 27.7261C62.7266 27.0975 62.6576 26.4689 62.581 25.848C64.8806 25.848 67.0117 24.3149 68.4604 22.5442C68.4911 22.6438 69.204 24.6752 69.3266 25.0278V25.0201ZM71.6723 16.8104C71.8198 16.7885 71.9703 16.7998 72.1129 16.8433C72.2555 16.8869 72.3866 16.9617 72.4967 17.0622C72.6068 17.1628 72.6932 17.2866 72.7494 17.4247C72.8057 17.5628 72.8305 17.7117 72.8221 17.8606C72.8334 18.2149 72.7567 18.5666 72.5989 18.8841C72.4411 19.2016 72.2071 19.475 71.9179 19.68C71.6286 19.885 71.293 20.0152 70.9412 20.0588C70.5893 20.1025 70.2322 20.0583 69.9016 19.9302H69.8479C69.9706 19.6035 70.068 19.2678 70.1392 18.9261C70.1448 18.8888 70.1371 18.8507 70.1175 18.8184C70.0979 18.7862 70.0676 18.7619 70.0319 18.7498L67.9622 18.1212C67.9282 18.112 67.8921 18.1138 67.8591 18.1261C67.8261 18.1385 67.7978 18.1609 67.7782 18.1902C67.6223 18.5361 67.3956 18.8455 67.1127 19.0984C66.8298 19.3513 66.4971 19.5421 66.1359 19.6584C65.7747 19.7747 65.3932 19.8139 65.0159 19.7736C64.6386 19.7333 64.2739 19.6143 63.9455 19.4243C61.3852 18.0445 60.266 18.3205 58.9935 18.6578L57.1078 19.1637C57.0618 18.228 57.1158 17.29 57.2688 16.3658C57.5771 16.4948 57.9081 16.5613 58.2423 16.5613C58.5766 16.5613 58.9075 16.4948 59.2158 16.3658C59.526 16.1476 59.7825 15.8616 59.9658 15.5296C60.149 15.1976 60.2543 14.8282 60.2737 14.4494C60.9559 14.0278 61.3085 14.2271 61.9831 14.6947C61.8604 15.8139 62.1057 16.8411 63.1866 17.186C64.6507 17.6459 65.7698 17.1477 66.2528 15.4076C66.7068 15.3265 67.174 15.3635 67.6096 15.5149C68.5677 15.8292 70.5991 16.4424 70.9364 16.5498C70.9364 16.6494 70.8827 16.7567 70.8521 16.8564C70.8436 16.8789 70.8424 16.9035 70.8486 16.9267C70.8549 16.95 70.8682 16.9707 70.8869 16.9859C70.9055 17.0011 70.9284 17.0102 70.9524 17.0117C70.9764 17.0132 71.0003 17.0071 71.0207 16.9944C71.2183 16.8777 71.4428 16.8143 71.6723 16.8104ZM62.4047 13.6982L66.2374 14.2194C65.8388 16.1588 65.1413 17.3546 63.2632 16.7951C62.0904 16.4271 62.1441 14.9093 62.4047 13.6982ZM59.1698 11.3985C59.503 11.5426 59.7877 11.7794 59.9901 12.0808C60.0042 12.0941 60.0222 12.1025 60.0415 12.105C60.0608 12.1074 60.0803 12.1037 60.0973 12.0943C60.1144 12.0849 60.128 12.0704 60.1363 12.0529C60.1445 12.0353 60.147 12.0155 60.1434 11.9965C60.0866 11.8002 59.989 11.6181 59.8569 11.4622C59.7247 11.3063 59.5611 11.1801 59.3768 11.0919C59.629 10.7355 59.9029 10.395 60.197 10.0724C62.0253 9.72261 63.9003 9.69149 65.7392 9.98043C66.0943 10.0243 66.437 10.1393 66.7466 10.3187C67.0563 10.4981 67.3265 10.7381 67.5412 11.0244C67.7559 11.3106 67.9107 11.6373 67.9962 11.9848C68.0817 12.3322 68.0962 12.6934 68.0388 13.0466C68.0345 13.0902 68.0472 13.1338 68.0744 13.1681C68.1016 13.2024 68.1411 13.2248 68.1845 13.2306C69.3635 13.4512 70.4866 13.9046 71.4883 14.5644C71.3733 15.009 71.266 15.4459 71.1434 15.8829L66.5441 14.2271C66.6514 14.1581 66.636 14.0661 66.682 13.7595C66.6886 13.7037 66.673 13.6476 66.6386 13.6031C66.6042 13.5587 66.5537 13.5295 66.4981 13.5219L62.4124 12.9623C62.3565 12.9558 62.3004 12.9714 62.256 13.0058C62.2115 13.0402 62.1824 13.0906 62.1747 13.1463L62.1287 13.4682C62.122 13.5088 62.1279 13.5505 62.1457 13.5875C62.1636 13.6246 62.1924 13.6552 62.2284 13.6752C62.1533 13.9053 62.0969 14.1412 62.0597 14.3804C61.9697 14.2445 61.8532 14.1282 61.7172 14.0384C61.5812 13.9487 61.4284 13.8873 61.2681 13.8579C61.1078 13.8286 60.9432 13.8319 60.7841 13.8677C60.6251 13.9034 60.475 13.9709 60.3427 14.0661V13.5142C60.3723 13.4989 60.3972 13.4759 60.4148 13.4475C60.4323 13.4192 60.4419 13.3866 60.4423 13.3532C60.4423 13.2153 60.588 12.8243 60.2813 12.8013L58.4646 12.6404C58.6763 12.221 58.9118 11.8141 59.1698 11.4215V11.3985ZM60.1357 13.4836C60.059 14.3421 59.8214 15.6146 59.0625 16.0132C58.5094 16.2369 57.8909 16.2369 57.3378 16.0132C57.4963 15.0989 57.7534 14.2045 58.1043 13.3456L60.1357 13.4836ZM56.4793 13.1769L57.8054 13.2843C57.4674 14.1002 57.2106 14.9475 57.0388 15.8139C56.4103 15.3309 56.4026 14.0431 56.4793 13.1999V13.1769ZM57.7441 22.8355C57.0465 23.0731 55.3754 23.7553 54.4479 24.1616C53.9496 23.0578 53.8117 22.6975 53.0145 21.0341C53.4655 21.0554 53.9157 20.9769 54.3329 20.8041C54.9692 20.4668 55.1455 19.7923 53.7043 19.4856C54.746 19.1687 55.7696 18.7951 56.7705 18.3665C56.7137 19.9217 57.0485 21.4663 57.7441 22.8585V22.8355ZM56.8012 17.8299V18.1519C56.165 18.3282 55.6974 18.4968 55.4367 18.5888C55.2976 18.5026 55.1514 18.4282 54.9998 18.3665C55.0688 17.439 55.958 17.4773 56.8012 17.8299ZM54.9998 18.7344C54.7009 18.8417 54.057 19.0717 53.2674 19.4013L52.8918 19.2863C53.0451 18.1825 53.9803 18.2898 54.9998 18.7344ZM50.7761 24.5295C50.8405 24.7247 50.9307 24.9103 51.0444 25.0815C51.0651 25.1063 51.0943 25.1226 51.1264 25.1272C51.1584 25.1317 51.191 25.1241 51.2178 25.106C51.2445 25.0878 51.2636 25.0603 51.2712 25.0289C51.2789 24.9974 51.2745 24.9642 51.2591 24.9358C51.1308 24.7312 51.0327 24.5092 50.9678 24.2766C50.4925 22.8048 50.9141 19.1024 52.5009 19.5163C52.7308 19.5776 52.9608 19.6696 53.2138 19.7463C53.4667 19.8229 55.1685 20.0529 54.1949 20.5818C53.5116 20.8213 52.7806 20.8923 52.0639 20.7888C52.0468 20.7941 52.0318 20.8048 52.0211 20.8193C52.0105 20.8338 52.0047 20.8513 52.0047 20.8693C52.0047 20.8872 52.0105 20.9047 52.0211 20.9192C52.0318 20.9337 52.0468 20.9444 52.0639 20.9498C52.2907 21.0172 52.5251 21.0558 52.7615 21.0647C53.4437 22.8125 53.712 23.3644 54.1949 24.5602C54.2168 24.6096 54.2571 24.6484 54.3073 24.6684C54.3574 24.6885 54.4133 24.6882 54.4632 24.6675C55.3908 24.2919 57.1922 23.4717 57.905 23.1344C57.9821 23.2743 58.0665 23.4099 58.158 23.5407C56.3949 24.4836 56.4026 25.1428 55.1608 25.6334C54.4656 25.9109 53.7247 26.0565 52.9761 26.0626C52.9479 26.0697 52.9228 26.0859 52.9049 26.1088C52.8869 26.1318 52.8772 26.16 52.8772 26.1891C52.8772 26.2182 52.8869 26.2465 52.9049 26.2694C52.9228 26.2923 52.9479 26.3086 52.9761 26.3156H53.1831C53.1218 26.5379 53.0681 26.7602 53.0068 26.9825C52.3092 26.3923 51.2131 25.5107 50.4465 24.9741C50.5155 24.7978 50.6458 24.6522 50.7761 24.5295ZM50.1399 25.2041C50.8451 25.802 52.1099 26.7372 52.8688 27.2508C52.5699 28.3853 52.4472 28.9449 52.3399 29.3895C50.9006 28.7063 49.5098 27.9252 48.1775 27.0515C48.7371 26.5226 49.473 25.8633 50.1399 25.1811V25.2041ZM51.1364 70.8368C50.3638 61.8193 50.8488 52.7382 52.5775 43.8543C52.5805 43.8412 52.581 43.8276 52.5787 43.8144C52.5765 43.8011 52.5717 43.7885 52.5646 43.7771C52.5575 43.7657 52.5482 43.7558 52.5373 43.748C52.5263 43.7402 52.5139 43.7346 52.5009 43.7316C52.4878 43.7286 52.4742 43.7282 52.461 43.7304C52.4477 43.7326 52.4351 43.7374 52.4237 43.7446C52.4123 43.7517 52.4024 43.761 52.3946 43.7719C52.3868 43.7828 52.3812 43.7952 52.3782 43.8083C51.7706 46.3856 51.315 48.9963 51.0138 51.6271C45.1726 53.1602 39.1552 52.4626 37.4152 46.7135C35.7517 41.2557 38.9483 36.2118 42.8577 32.0877C44.4827 30.3707 46.1845 28.8682 47.9246 27.2891C48.8521 28.2396 50.9908 29.2132 52.2786 29.6654C51.7573 31.9268 51.0751 35.4222 50.6305 38.2815C50.6352 38.295 50.644 38.3067 50.6557 38.315C50.6673 38.3233 50.6813 38.3278 50.6956 38.3278C50.71 38.3278 50.7239 38.3233 50.7356 38.315C50.7473 38.3067 50.7561 38.295 50.7608 38.2815C51.1211 36.986 51.4813 35.3839 51.7573 34.0654C53.7946 31.8912 56.0761 29.9594 58.5566 28.3086C57.9705 28.8394 57.4224 29.4106 56.9162 30.018C56.899 30.0442 56.8899 30.0749 56.8899 30.1062C56.8899 30.1375 56.899 30.1681 56.9162 30.1944L58.1197 32.195C55.0535 34.8243 55.1991 34.6403 55.2068 34.7707C55.4981 38.8564 56.2493 45.0501 57.2075 54.7853C57.1895 60.48 57.6614 66.1658 58.6179 71.7797C56.0827 72.1521 53.4939 71.8179 51.1364 70.8138V70.8368ZM9.35177 82.0208C6.40055 82.0208 5.28905 79.0543 8.06396 77.3525C9.80403 76.2793 12.3413 76.057 14.3803 76.1644C14.404 76.1663 14.4278 76.162 14.4493 76.152C14.4709 76.1421 14.4895 76.1267 14.5034 76.1074C14.5172 76.0882 14.5259 76.0656 14.5285 76.042C14.5311 76.0184 14.5276 75.9946 14.5183 75.9727C14.3139 75.5446 14.2115 75.0749 14.2194 74.6006C14.2577 71.8103 18.65 69.6334 22.1838 72.3623C22.2009 72.3751 22.2212 72.3829 22.2425 72.3848C22.2637 72.3867 22.2851 72.3827 22.3042 72.3731C22.3233 72.3636 22.3394 72.3489 22.3506 72.3307C22.3618 72.3126 22.3678 72.2916 22.3678 72.2703C22.3678 62.4738 36.342 63.0717 36.066 72.071C36.0656 72.0916 36.0712 72.1119 36.082 72.1294C36.0928 72.147 36.1084 72.161 36.127 72.1699C36.1456 72.1788 36.1664 72.1822 36.1868 72.1796C36.2073 72.177 36.2266 72.1686 36.2423 72.1553C40.2437 68.5908 47.4416 70.5225 47.3573 76.6549C47.3589 76.6816 47.3697 76.7069 47.3878 76.7265C47.406 76.7461 47.4305 76.7587 47.457 76.7623H47.9322C46.9102 78.51 46.0107 80.2833 45.234 82.0821C41.2249 82.1971 9.35177 82.0208 9.35177 82.0208ZM46.8361 142.931L43.6932 142.578L42.9267 140.547C43.1319 139.862 43.2958 139.166 43.4172 138.462L47.4953 139.129C47.2347 140.386 47.0354 141.651 46.8361 142.931ZM53.1294 122.326C55.5441 113.787 58.8479 105.539 63.7155 98.2333C65.9824 106.709 69.4491 114.816 74.0103 122.311C67.05 122.306 60.0897 122.311 53.1294 122.326ZM95.2897 141.605L92.4305 143.391L90.5294 142.325C90.1921 141.597 90.0312 141.237 89.6325 140.463L93.6723 138.163C93.7719 138.301 93.3886 137.519 95.3127 141.605H95.2897ZM94.2855 137.212L88.1531 140.662C73.1134 123.277 61.7378 102.143 61.6611 78.9546C61.6611 78.786 61.3468 78.7553 61.3392 78.9546C61.2637 85.2593 62.011 91.547 63.5622 97.6584C55.2758 109.617 51.3587 124.526 48.9211 138.822L41.6695 137.649C38.4577 114.201 38.151 91.1121 51.6347 71.5421C53.9831 72.4281 56.5207 72.6921 59.0012 72.3086C59.0679 72.2956 59.1268 72.257 59.1654 72.2012C59.2041 72.1453 59.2194 72.0766 59.2082 72.0097C58.8786 70.2083 58.6179 68.3915 58.4416 66.5671C62.4627 67.1518 66.5204 67.449 70.5838 67.4563C71.427 70.2466 72.5385 73.5428 72.5768 73.5887C72.5938 73.6392 72.6272 73.6824 72.6716 73.7116C72.7161 73.7408 72.7691 73.7542 72.8221 73.7497C73.8281 73.6619 74.8269 73.5057 75.8116 73.2821C76.3319 75.0403 77.0305 76.7407 77.8967 78.3567C77.9733 78.2954 79.1155 78.1344 94.5385 75.4745L97.1524 73.88L97.1984 74.294C96.4012 74.9262 95.5667 75.5098 94.6994 76.0417L78.3106 78.694C80.1831 84.0406 82.3742 89.2701 84.8723 94.3546C84.8853 94.3782 84.9067 94.396 84.9323 94.4045C84.9578 94.413 84.9857 94.4116 85.0102 94.4006L87.2716 93.4577C87.3866 105.853 89.4792 124.526 94.2855 137.212Z" fill="black"/>
</svg>
