<svg width="154" height="154" viewBox="0 0 154 154" fill="none" xmlns="http://www.w3.org/2000/svg">
<path fill-rule="evenodd" clip-rule="evenodd" d="M39.0398 58.862C40.5729 59.9735 57.8198 58.5631 59.6825 57.7736C60.1424 57.5743 60.2421 56.5011 60.3034 55.9569C61.0699 48.5369 59.5369 18.7418 58.1111 16.9558C57.2296 15.8597 51.6569 18.2589 46.9198 24.5368C40.9638 32.4551 38.7945 42.6576 38.4266 52.6378C38.2783 54.6298 38.4151 56.6328 38.8329 58.5861C38.868 58.6992 38.9411 58.7967 39.0398 58.862ZM39.0935 52.6608C39.4384 42.8415 41.5387 32.6697 47.2954 24.8204C52.0555 18.3432 57.2603 16.3886 57.8965 17.1551C59.3299 18.9258 60.5947 54.6231 59.3606 57.191C57.1989 58.0189 41.2168 59.1227 39.4308 58.3408C39.0574 56.472 38.9439 54.5606 39.0935 52.6608ZM58.1111 99.2965C58.1882 99.2355 58.2401 99.1482 58.2567 99.0512C58.64 97.1732 58.1188 84.5485 57.2526 83.4677C57.2165 83.4193 57.1705 83.3791 57.1176 83.35C57.0647 83.321 57.0062 83.3036 56.946 83.299C54.9607 83.1764 41.4621 84.4028 39.4767 84.5868C38.7102 84.6558 39.3388 97.6945 40.4349 100.132C40.4896 100.233 40.5798 100.309 40.6879 100.347C41.991 100.868 57.0686 100.232 58.1111 99.2965ZM40.9178 99.7181C40.021 97.4185 39.1701 87.377 39.5994 84.8551C41.531 84.7325 54.8227 83.8586 56.7697 83.9276C57.4519 85.9359 57.9348 96.905 57.5975 98.852C57.5975 98.7983 57.5975 98.7446 57.6589 98.783C57.9808 99.1969 45.3944 100.124 41.5617 99.8714H41.0481C40.9178 99.8714 40.9715 99.8561 40.9178 99.7181ZM59.1996 109.185C59.1153 108.909 58.985 108.587 58.6937 108.572C56.7007 108.449 43.2098 109.668 41.2168 109.852C40.4502 109.921 41.0711 122.959 42.1749 125.397C42.1996 125.448 42.2349 125.494 42.2785 125.531C42.3221 125.568 42.373 125.596 42.4279 125.612C43.7233 126.125 58.801 125.504 59.8511 124.569C59.924 124.504 59.975 124.419 59.9968 124.324C60.3877 122.392 59.8818 111.492 59.1996 109.185ZM59.3989 124.048C59.7055 124.454 47.2417 125.397 43.3017 125.136H42.8571C42.7268 125.136 42.6808 125.09 42.6195 124.929C41.738 122.492 40.9102 112.626 41.3394 110.135C43.3401 110.005 56.555 109.139 58.5097 109.215C59.1919 111.224 59.6672 122.193 59.3222 124.132C59.3452 124.071 59.3682 124.017 59.3989 124.048Z" fill="black"/>
<path fill-rule="evenodd" clip-rule="evenodd" d="M147.772 125.949C147.665 125.32 146.722 124.761 146.116 124.416C144.675 123.649 142.468 122.745 140.85 122.055C141.149 121.526 142.537 119.104 142.498 118.575C142.498 118.161 142.023 117.762 141.732 117.494C137.899 114.428 120.077 107.069 118.13 105.896C118.705 103.053 119.188 99.9711 119.587 96.8666C120.698 96.491 121.948 95.9314 123.143 95.4869C124.876 95.1956 128.379 94.0304 129.375 93.7852C130.808 93.3437 132.177 92.7148 133.446 91.9148C136.573 90.0573 139.326 87.6317 141.563 84.7631C142.391 83.7589 144.629 83.0307 143.617 80.3402C143.096 78.9375 141.801 77.596 141.249 76.5076C140.858 75.741 140.421 74.8748 139.93 74.0087C140.134 73.8495 140.286 73.6333 140.366 73.3876C140.447 73.1419 140.453 72.8778 140.383 72.6289C140.107 71.8164 133.484 64.2584 130.418 63.9135C129.587 64.0162 128.783 64.2764 128.049 64.68C127.727 63.7908 127.405 63.0013 127.237 62.664C126.194 60.6404 125.113 58.6014 123.941 56.6391C124.876 56.5778 126.784 56.4245 127.559 55.9185C128.11 55.5583 128.026 55.152 127.789 54.2935C128.271 54.1325 128.632 53.9716 128.831 53.8872C131.384 52.8218 132.142 48.5215 132.418 45.808C132.664 43.3858 133.898 23.8469 133.951 23.6936C134.718 22.8504 135.806 20.4052 136.366 19.4777C136.527 19.1575 136.62 18.8081 136.642 18.4505C136.656 18.3228 136.632 18.1937 136.573 18.0793C136.515 17.9649 136.424 17.8702 136.312 17.8066C135.546 17.4387 134.864 17.96 134.319 18.5732C134.485 18.0272 134.552 17.4563 134.519 16.8868C134.45 16.3656 134.097 15.9516 133.622 16.1203C133.372 16.2268 133.141 16.3745 132.94 16.5572C132.72 16.7611 132.531 16.9961 132.38 17.2547C132.38 16.7872 132.38 16.1816 131.989 15.9746C131.861 15.9271 131.722 15.9148 131.587 15.939C131.452 15.9633 131.326 16.0232 131.223 16.1126C130.938 16.354 130.68 16.6265 130.456 16.9251C129.789 17.6917 129.506 19.2247 129.283 19.815C128.517 19.5083 127.145 19.0101 126.869 19.815C126.439 21.1257 128.578 21.4553 128.471 22.1145C127.95 25.3186 125.405 30.2858 123.688 37.0389C122.622 41.2318 123.174 40.8716 122.645 39.8061C122.27 39.0395 114.826 38.204 113.968 38.1197C113.983 38.0873 113.991 38.052 113.991 38.0162C113.991 37.9805 113.983 37.9452 113.968 37.9127C113.423 37.5049 112.763 37.282 112.082 37.2765C111.373 37.3093 110.691 37.558 110.128 37.9894C110.043 37.9894 102.938 38.6486 99.2813 40.0974C99.2491 40.1078 99.22 40.1263 99.1969 40.151C98.8903 40.151 98.5684 40.2277 98.2541 40.2737L98.3154 37.7824C99.5266 37.1999 100.722 36.4717 100.998 35.1456C101.237 33.8976 101.355 32.6295 101.351 31.3589C102.884 31.0753 103.65 29.6725 102.608 27.6872C102.513 27.2853 102.325 26.9114 102.059 26.5957C101.792 26.2801 101.455 26.0317 101.075 25.8705C101.391 25.511 101.577 25.0563 101.605 24.5785C101.633 24.1007 101.5 23.6274 101.228 23.2337C101.464 22.8362 101.534 22.3621 101.424 21.9134C101.313 21.4647 101.031 21.0772 100.638 20.8344C100.438 20.7211 100.22 20.6433 99.9941 20.6045C99.9405 20.6045 99.7182 20.6581 99.5802 20.6581C99.6144 20.2659 99.5203 19.8731 99.3119 19.539C99.1732 19.291 98.9767 19.08 98.7393 18.9239C98.5018 18.7678 98.2302 18.6712 97.9475 18.6422H97.6715C97.6645 18.5423 97.624 18.4478 97.5566 18.3739C97.3907 18.1939 97.1997 18.039 96.9893 17.914C96.5695 17.696 96.096 17.6029 95.6249 17.6457C95.5036 17.6597 95.3904 17.7137 95.303 17.799C94.8507 17.0324 93.2027 17.2011 92.4515 17.6687C92.4174 17.6193 92.3789 17.5731 92.3365 17.5307C92.0882 17.4219 91.8155 17.3809 91.5462 17.4119C91.2768 17.4429 91.0206 17.5447 90.8034 17.707C90.6305 17.8418 90.4713 17.9932 90.3282 18.1593C89.8116 18.0017 89.2542 18.0492 88.7717 18.2918C88.2893 18.5345 87.9188 18.9537 87.7373 19.4624C87.577 19.4228 87.4099 19.4195 87.2481 19.4527C87.0863 19.4858 86.934 19.5546 86.8021 19.654C86.575 19.7926 86.3573 19.9463 86.1506 20.1139C86.0271 20.2365 85.9311 20.384 85.869 20.5465C85.8069 20.7091 85.78 20.883 85.7903 21.0567C85.3803 21.0331 84.9724 21.131 84.6179 21.3383C84.2633 21.5456 83.9779 21.853 83.7973 22.2219C83.7465 22.3379 83.7204 22.4632 83.7207 22.5898C83.7207 23.1187 83.7897 22.8657 83.3911 23.0267C81.9002 19.5029 79.8872 16.2237 77.4198 13.2994C70.2144 4.96726 62.4495 5.65714 61.7366 5.45017C58.4163 4.5255 54.9271 4.38121 51.5417 5.02858C50.1197 4.65727 48.6758 4.37565 47.2185 4.1854C31.8419 2.13876 19.861 8.43198 12.7323 24.2072C4.5994 42.1593 5.01332 67.4088 6.13246 80.2406C6.2781 81.9116 10.7316 127.52 11.1072 129.222C11.1532 129.444 11.2299 129.597 11.7051 129.766C14.1657 130.632 25.7173 130.249 28.3848 130.165C28.8754 137.063 28.8371 136.788 28.8908 136.864C30.7306 137.334 32.6185 137.592 34.5171 137.631C34.8467 137.585 65.5922 132.135 79.2672 129.659C79.5968 130.778 82.065 139.095 82.8852 139.915C82.9692 139.995 83.0767 140.046 83.1918 140.061C84.2252 140.052 85.2542 139.924 86.2579 139.677C86.5262 140.559 86.7868 141.509 87.0244 142.452C86.7868 142.636 87.354 142.59 83.4217 145.12C82.5374 145.648 81.6943 146.242 80.8999 146.898C80.5093 147.34 80.2237 147.864 80.0643 148.431C80.0106 148.62 80.0316 148.823 80.1229 148.997C80.2142 149.171 80.3689 149.303 80.5549 149.366C82.3409 149.964 94.6284 145.687 95.8319 144.468C96.2765 144.008 96.1615 142.935 96.0695 142.238C95.8046 140.609 95.4567 138.994 95.027 137.401C95.6402 137.217 98.3691 136.397 98.8597 135.975C99.5495 135.362 98.599 131.376 98.3768 130.441C96.7287 123.787 92.7504 113.439 92.2445 110.565C92.6891 109.599 96.8437 102.179 97.5566 100.983C97.5566 100.906 97.5029 93.2716 97.5566 92.0605C97.5566 91.5546 97.6332 89.5999 97.6409 89.163C97.636 89.1427 97.6358 89.1216 97.6402 89.1012C97.6447 89.0808 97.6537 89.0617 97.6666 89.0453C97.6796 89.0289 97.696 89.0157 97.7148 89.0065C97.7336 88.9974 97.7542 88.9927 97.775 88.9927C97.7959 88.9927 97.8165 88.9974 97.8353 89.0065C97.854 89.0157 97.8705 89.0289 97.8834 89.0453C97.8963 89.0617 97.9053 89.0808 97.9098 89.1012C97.9143 89.1216 97.9141 89.1427 97.9092 89.163C98.2786 92.8154 98.3376 96.4926 98.0855 100.155C98.0855 104.287 97.9705 116.16 100.485 119.441C102.999 122.722 132.035 134.549 133.269 133.928C133.79 133.668 135.707 130.648 136.098 130.034C137.761 130.507 139.39 131.093 140.973 131.79C140.965 131.825 140.965 131.862 140.973 131.897C141.371 132.886 140.674 138.029 140.866 139.355C141.003 139.936 141.264 140.48 141.632 140.95C141.752 141.105 141.927 141.208 142.121 141.238C142.315 141.268 142.513 141.222 142.675 141.111C144.162 140.053 148.033 127.627 147.772 125.949ZM67.5776 122.254C66.6271 119.909 66.4584 110.603 66.765 108.227C67.3859 108.135 70.774 107.644 74.3154 107.161C74.6296 111.446 76.0171 117.532 77.0672 121.725C74.9133 121.978 70.3217 122.492 68.2674 122.446H67.7998C67.6542 122.446 67.6619 122.461 67.5776 122.254ZM65.8759 83.552C68.4054 83.1917 79.0142 81.6663 81.5667 81.4977C81.4441 81.9729 81.3444 82.4405 81.2601 82.8698C81.1143 83.1754 80.9889 83.4904 80.8845 83.8126C80.7389 84.6404 81.6511 84.5791 82.5326 84.5331C82.5326 84.7708 82.6016 85.016 82.6322 85.2997C80.3454 89.0771 78.2973 92.9941 76.5 97.0276C74.3077 97.2959 69.4939 97.7941 67.3476 97.7941H66.7957C65.9985 97.7405 65.4696 86.8251 65.8759 83.552ZM85.0391 68.3133C84.9606 67.3226 84.8249 66.3373 84.6329 65.3622C84.6329 65.2855 83.7973 61.3532 83.7743 61.2766C83.6977 60.9393 83.2914 59.4599 83.0691 59.4982C82.8468 59.5366 83.0691 61.0313 83.1228 61.4836C83.2761 62.3037 83.5137 63.2696 83.6824 63.9518C82.6705 64.473 77.9947 68.4053 75.3808 69.3175C74.7252 69.6452 74.0432 69.917 73.3419 70.13C73.2575 70.13 73.0506 69.5321 73.0199 69.4478C72.7075 68.1641 72.3053 66.9039 71.8165 65.6765C71.1649 64.0054 68.2214 57.8732 68.6584 56.7234C69.2716 56.2405 71.6478 54.8837 72.33 54.4928C78.5773 50.9284 78.2323 51.4267 78.6539 50.8441C78.9752 50.1995 79.3309 49.5726 79.7194 48.9661C81.766 46.8965 84.2726 44.4283 87.1624 43.3781C86.0663 45.4094 83.2071 50.5835 83.0538 50.8748C83.0309 50.9176 83.0196 50.9656 83.0211 51.0141C83.0227 51.0627 83.037 51.1099 83.0627 51.1511C83.0884 51.1923 83.1244 51.226 83.1673 51.2489C83.2101 51.2717 83.2582 51.2828 83.3068 51.281C83.5904 51.281 85.4224 51.0894 85.7597 51.0511C83.782 53.136 83.0768 53.7033 83.2224 54.1555C84.6063 57.3957 86.1699 60.5562 87.9059 63.6222C88.7338 66.8033 91.524 71.2108 90.7498 74.2693C90.1671 76.6948 89.3401 79.055 88.2815 81.3137C88.0133 81.8503 87.8983 83.1994 87.5763 83.5596C86.5059 83.7449 85.4201 83.8271 84.3339 83.8049C83.7667 83.8049 82.111 83.9582 81.5744 83.8816C81.6434 83.6593 81.8734 83.2684 81.9193 83.0307C82.8545 78.4315 83.851 78.3626 85.3764 73.8324C85.798 72.5216 85.0851 69.7008 85.0851 68.3287L85.0391 68.3133ZM41.0939 70.7279C40.9559 70.6666 40.9483 70.7279 41.0939 70.6513C42.2744 70.2527 44.0757 69.4095 44.9879 70.2527C45.4861 70.7126 44.0374 71.8624 43.6695 72.7056C43.0848 71.7507 42.1673 71.0462 41.0939 70.7279ZM39.7602 70.8122C39.9469 70.8794 40.1488 70.8927 40.3427 70.8506C40.5641 70.8695 40.7827 70.9132 40.9943 70.9809C46.015 73.2268 42.3204 78.3549 38.5797 77.4351C36.3491 76.8985 34.9693 74.2386 36.1728 72.4296C36.5968 71.8916 37.1442 71.4636 37.7686 71.1821C38.3931 70.9006 39.0762 70.7737 39.7602 70.8122ZM45.2255 69.969C43.9761 68.8652 41.7225 70.2067 40.4807 70.5363C40.2277 70.4873 39.9716 70.4565 39.7142 70.4443C39.1853 70.0534 39.0779 69.3405 39.9671 68.8422C41.3346 68.1363 42.767 67.5639 44.2444 67.1329C45.6658 66.8447 47.1402 66.9724 48.4909 67.5008C48.5211 67.5141 48.5538 67.521 48.5868 67.521C48.6198 67.521 48.6524 67.5141 48.6826 67.5008C60.5638 61.6369 64.6187 59.6516 68.2214 58.0725C68.8807 60.97 71.3795 65.5538 72.0081 67.9454C64.4118 69.5858 47.3795 70.8812 46.9042 71.8547C46.429 72.8282 45.3712 73.9167 44.3363 73.4798C42.9873 72.9049 46.3523 70.9962 45.2255 69.969ZM69.1643 55.6963C68.5604 55.7294 67.9547 55.683 67.3629 55.5583C67.3629 51.7256 63.5993 18.8338 65.1706 17.2317C65.5999 16.8025 66.8953 17.1858 67.4702 17.408C69.4019 18.1746 72.1844 20.1446 75.0052 23.9772C78.6539 28.9443 81.1375 35.3295 82.6705 41.3161C82.9443 42.5965 83.1439 43.8915 83.2684 45.1948C81.9011 46.2351 80.6194 47.3835 79.4358 48.6288C78.9069 49.1501 78.5006 50.5988 77.9794 50.8518C76.1014 51.8023 71.2186 54.4238 69.1643 55.6963ZM87.9903 36.0271C88.0785 36.2203 88.2213 36.3834 88.401 36.4965C88.5808 36.6095 88.7898 36.6675 89.0021 36.6633L89.6306 42.1747L87.9903 42.7496C87.912 40.4337 87.6558 38.1273 87.2237 35.8508C87.4532 35.9916 87.7224 36.0535 87.9903 36.0271ZM105.406 38.8862C103.512 41.7761 101.121 47.5404 101.113 48.0846C101.113 48.8511 103.183 48.3836 104.892 48.4142C104.08 50.2999 100.891 56.4015 99.8485 58.3791C99.8485 54.9221 99.7642 54.3395 99.7718 53.0134C99.7718 50.2232 100.163 49.4414 100.347 46.2296C100.535 44.2905 100.286 42.3338 99.6185 40.5036C101.475 39.7339 103.418 39.1934 105.406 38.8939V38.8862ZM91.0257 75.6797C94.4495 75.6096 97.8553 75.165 101.182 74.3536C101.358 75.49 101.45 76.6378 101.458 77.7877C97.6653 77.4315 93.8397 77.706 90.1366 78.6002C90.4508 77.6727 90.7498 76.6915 91.0257 75.695V75.6797ZM91.4703 72.4373C91.2822 71.0677 90.9109 69.7297 90.3665 68.459C93.2947 68.252 96.8667 67.8458 99.8255 67.4165C99.9865 68.643 100.193 69.8617 100.446 71.0882C97.4791 71.6932 94.4833 72.1486 91.4703 72.4526V72.4373ZM86.7561 50.6448C86.7565 50.6011 86.7475 50.5578 86.7297 50.5179C86.712 50.478 86.6859 50.4423 86.6533 50.4132C86.6206 50.3842 86.5821 50.3625 86.5404 50.3495C86.4986 50.3366 86.4546 50.3327 86.4112 50.3382C86.4112 50.3382 84.6252 50.5988 83.7514 50.6908C84.2803 49.633 87.1624 43.999 87.584 43.2248C88.3505 42.9412 88.0516 43.0485 89.6996 42.5273C88.6983 45.9653 87.925 49.4658 87.3847 53.0057C86.955 55.7004 86.9292 58.444 87.3081 61.1463C86.5415 59.6132 84.4182 55.6119 83.8663 54.0482C84.6175 53.0057 86.7638 51.1737 86.7561 50.6601V50.6448ZM86.1506 50.5682V50.6525C86.1506 50.6525 86.1199 50.5912 86.1506 50.5912V50.5682ZM88.0516 61.2996C91.3707 61.016 95.6096 60.4564 99.2046 59.8125C99.2202 59.8525 99.2437 59.889 99.2736 59.9198C99.2736 61.2229 99.3579 62.5107 99.4576 63.7985C96.5984 64.1587 91.8612 64.703 88.8871 64.8946C88.7088 64.433 88.5553 63.9622 88.4272 63.4842C88.5268 63.2389 88.3429 63.1776 88.0516 61.3226V61.2996ZM99.1203 56.3555C92.2215 57.5436 89.2014 58.0418 87.7603 58.2028C87.6992 56.7544 87.7556 55.3035 87.9289 53.8642C93.7239 53.343 92.5281 53.5116 99.105 52.5765C99.0973 52.6915 99.105 54.9834 99.1203 56.3478V56.3555ZM116.75 81.2141C116.934 81.0378 116.827 80.7925 116.75 80.4475C118.391 83.8739 119.05 87.6759 119.74 87.9212C120.015 87.9817 120.3 87.9817 120.575 87.9212C121.043 89.209 122.653 93.5245 122.875 94.82C120.821 95.5865 118.238 96.8513 116.973 96.583C115.892 94.6437 114.374 84.3875 114.022 82.0726C114.089 82.0734 114.156 82.0548 114.213 82.0189C115.394 81.467 115.555 82.4252 116.766 81.2064L116.75 81.2141ZM142.682 80.0489C144.031 82.7011 141.916 83.1764 140.988 84.3415C138.803 87.1457 136.115 89.5189 133.062 91.3399C131.848 92.111 130.539 92.7216 129.168 93.1566C128.325 93.3712 125.374 94.3447 123.573 94.774C122.919 92.4149 122.128 90.096 121.204 87.8292C122.827 87.3267 124.39 86.6481 125.865 85.8056C125.971 86.1904 126.133 86.5572 126.347 86.894C126.409 86.9855 126.488 87.0638 126.58 87.1245C126.672 87.1852 126.775 87.2271 126.884 87.2478C126.992 87.2685 127.103 87.2675 127.211 87.2449C127.319 87.2224 127.422 87.1787 127.513 87.1163C127.948 86.8135 128.349 86.4639 128.708 86.0739C129.069 85.6599 129.053 85.5143 128.394 84.2035C130.617 82.6705 132.671 80.8691 134.733 79.1061C134.969 79.5865 135.304 80.0122 135.714 80.3555C135.879 80.455 136.073 80.4941 136.263 80.4662C136.453 80.4382 136.628 80.3449 136.757 80.2022C137.11 79.8084 137.419 79.3765 137.677 78.9145C137.922 78.4392 137.868 78.2706 136.972 77.2051C137.855 76.384 138.673 75.4946 139.417 74.5452C139.846 75.3118 140.245 76.0783 140.597 76.8448C141.08 77.7493 142.1 78.8608 142.698 80.0413L142.682 80.0489ZM128.195 85.4146C128.248 85.5603 128.302 85.499 128.133 85.6753C127.862 85.9499 127.573 86.206 127.267 86.4418C126.708 86.8251 127.007 86.4418 125.159 83.161C125.709 82.9303 126.286 82.7706 126.876 82.6858C127.106 83.0614 128.011 84.8397 128.21 85.407L128.195 85.4146ZM137.102 78.5159C136.888 78.9095 136.645 79.2862 136.374 79.6427C135.983 80.0719 135.96 79.7193 134.703 78.1863C133.752 77.0135 133.836 77.2281 133.936 77.1208C134.287 76.7216 134.692 76.3734 135.14 76.086C135.408 76.3619 136.841 78.0406 137.117 78.5082L137.102 78.5159ZM130.31 64.5573C133.085 64.8793 139.509 72.3146 139.708 72.8359C139.907 73.3571 139.279 73.6024 138.995 74.001C138.251 74.9554 137.434 75.8498 136.55 76.6762C136.202 76.2709 135.817 75.8988 135.4 75.5647C135.055 75.3808 134.695 75.741 134.396 76.0706C134.109 76.4019 133.852 76.7585 133.63 77.1361C133.63 77.2434 133.553 77.1361 134.396 78.5159C132.372 80.2559 130.31 82.0572 128.126 83.6056C127.879 83.1412 127.594 82.6977 127.275 82.2795C126.991 82.0266 126.424 82.2795 125.934 82.4712C125.583 82.6316 125.242 82.8134 124.914 83.0154C124.791 83.1304 124.83 83.0154 125.681 85.2C124.676 85.7826 121.012 87.6606 120.008 87.4076C119.403 86.4878 118.268 81.8963 116.59 79.2287C116.352 77.9026 115.984 75.9097 115.578 73.6944C119.955 69.5704 128.969 64.3887 130.31 64.5573ZM124.607 66.5503C123.074 67.5008 121.365 68.6123 119.817 69.7391C117.724 62.0125 118.031 62.3957 115.164 56.1638C116.452 56.4254 117.759 56.5792 119.073 56.6238C121.241 59.7394 123.09 63.065 124.592 66.5503H124.607ZM129.03 22.2295C129.237 21.0107 127.191 20.7425 127.428 20.0066C127.574 19.9453 127.873 19.9299 129.061 20.3975C129.276 20.4818 129.467 20.5662 129.636 20.3975C129.965 20.0756 130.257 18.0979 130.916 17.3314C131.106 17.0405 131.342 16.7818 131.614 16.5649C131.641 17.4425 131.509 18.3179 131.223 19.1481C131.107 19.3687 131.019 19.603 130.962 19.8456C130.954 19.8956 130.957 19.9466 130.971 19.9952C130.985 20.0439 131.009 20.089 131.042 20.1275C131.074 20.166 131.115 20.1971 131.161 20.2185C131.207 20.24 131.256 20.2514 131.307 20.2519C131.56 20.2519 131.637 20.0373 131.713 19.815C131.79 19.5927 131.797 19.562 131.843 19.401C132.21 18.5443 132.701 17.7463 133.3 17.0324C133.377 16.9711 133.691 16.5725 133.737 16.7335H133.652C133.798 16.8102 133.783 17.2394 133.767 17.4004C133.62 18.3444 133.363 19.2679 133.001 20.1522C132.971 20.2267 132.966 20.3093 132.989 20.3863C133.012 20.4634 133.061 20.5303 133.127 20.5759C133.193 20.6216 133.273 20.6432 133.353 20.6372C133.434 20.6313 133.509 20.5981 133.568 20.5432C134.013 20.0986 135.14 18.1439 135.868 18.3969C135.861 18.6469 135.801 18.8926 135.691 19.1174C135.17 19.9836 133.944 22.6435 133.308 23.2797C133.237 23.3791 133.195 23.4956 133.185 23.6169C133.185 23.8469 132.418 35.9581 132.219 38.434C131.866 42.6039 132.403 51.8713 128.624 53.527C128.432 53.619 128.095 53.7723 127.635 53.9409C126.777 50.9131 124.239 43.976 123.113 41.1092C124.531 33.1219 128.386 25.9779 129.03 22.2295ZM122.132 40.082C122.66 41.2701 127.045 53.3507 127.252 55.2517C127.198 55.382 126.731 55.5429 126.585 55.5813C123.787 56.4015 115.026 55.9492 114.689 55.2287C114.656 55.1655 114.605 55.1138 114.542 55.0808C114.479 55.0478 114.407 55.035 114.337 55.0443C114.266 55.0535 114.201 55.0843 114.148 55.1324C114.096 55.1805 114.06 55.2435 114.045 55.313C114.03 55.3879 114.033 55.4654 114.054 55.5388C114.076 55.6122 114.114 55.6793 114.167 55.7346C117.425 62.7637 116.973 62.1274 119.173 70.176C117.869 71.1428 116.623 72.1845 115.44 73.2958C113.907 64.9483 111.607 52.7451 111.492 51.8329C111.132 48.0003 111.048 41.4848 113.516 38.5106C115.271 38.7023 120.583 39.4075 122.162 40.082H122.132ZM113.585 38.0354C110.695 40.6723 110.672 48.0003 110.979 51.8943C111.124 53.7186 115.93 79.543 116.137 80.8385C115.639 81.2984 115.493 81.1834 115.156 81.1527C114.807 81.1165 114.455 81.1747 114.137 81.3214C112.772 78.3396 107.629 51.1507 108.142 46.6435C108.434 44.1063 109.17 40.4423 110.35 38.1734C110.81 37.8088 111.374 37.5992 111.96 37.5744C112.547 37.5496 113.126 37.711 113.615 38.0354H113.585ZM109.859 38.3727C108.727 40.9888 107.985 43.7576 107.659 46.5899C107.069 51.1891 110.848 71.1189 112.366 77.5424C109.942 78.3919 107.595 79.4485 105.352 80.7005C104.448 81.2447 102.953 82.8774 102.11 83.0691C101.864 82.7931 102.041 81.283 102.041 81.0454C102.041 79.2977 102.079 77.6957 101.956 76.0783C101.635 71.985 100.063 69.8694 99.7488 59.8968C99.8715 59.7589 104.754 50.4532 105.513 48.4909C105.597 48.3359 105.616 48.1541 105.567 47.985C105.452 47.755 105.168 47.7627 104.892 47.7627C104.126 47.7627 102.294 47.9696 101.688 47.9006C102.745 44.7988 104.082 41.7996 105.682 38.9399C110.381 38.3267 109.17 38.4263 109.89 38.3727H109.859ZM99.128 40.5036C99.8102 43.0945 100.117 43.8457 99.3732 49.4184C97.9245 49.771 96.4758 50.1236 94.8737 50.3765C93.6166 50.5835 89.2397 51.1891 88.3275 51.1431C89.0251 46.5439 89.0941 46.9118 89.9066 43.1558C90.7268 45.5934 92.3365 48.6058 94.9044 48.9125C97.4722 49.2191 98.7983 47.4714 99.1126 44.9725C99.2353 43.9607 98.5531 41.5768 98.2618 40.6109L99.128 40.5036ZM100.416 35.0229C100.17 36.1114 99.059 36.7323 98.0471 37.1922C97.8479 37.2842 97.6792 37.3685 97.6715 37.5831C97.5899 38.58 97.5618 39.5804 97.5872 40.5803C97.8555 41.4311 98.5837 44.0143 98.4687 44.9035C98.2081 46.9808 97.1043 48.4909 95.0117 48.2379C92.5818 47.9466 90.9414 44.4742 90.3358 42.1057C90.3358 41.8144 89.6766 36.5407 89.669 36.4717C89.8294 36.3666 89.948 36.2085 90.004 36.0251C90.06 35.8416 90.05 35.6443 89.9756 35.4675C89.9074 35.3303 89.8534 35.1865 89.8146 35.0383C89.8146 34.816 89.646 34.0418 89.5693 33.7198C89.4927 33.3979 89.416 33.3902 89.3087 33.3442C87.7756 32.731 86.9631 31.4892 87.653 29.8565C87.7465 29.6946 87.8828 29.5616 88.0468 29.472C88.2109 29.3823 88.3964 29.3395 88.5832 29.3482C88.7699 29.3569 88.9507 29.4168 89.1057 29.5213C89.2607 29.6258 89.3839 29.771 89.462 29.9408C89.5992 30.3516 89.8067 30.7355 90.0752 31.0753C90.4508 31.4662 90.8418 31.2363 91.0027 30.784C91.1637 30.3318 90.9337 29.9178 91.1407 28.4384C91.248 27.6719 91.409 27.005 91.547 26.2768C91.6006 26.0239 91.363 25.0044 91.4856 24.92C92.0682 24.5215 92.4898 24.9967 93.08 25.38C93.9615 25.9549 94.935 26.4838 95.9545 26.1465C97.0851 25.8973 98.128 25.3494 98.9746 24.5598C99.2842 24.9593 99.6307 25.3289 100.009 25.6636C100.132 25.7479 100.117 25.7172 100.132 25.7709C98.691 26.0468 98.4151 27.1507 98.6987 28.5841C98.2541 28.6761 97.6715 28.9827 97.3343 29.0746C97.1362 28.5357 96.7844 28.0666 96.3225 27.7255C95.9305 27.3726 95.4452 27.14 94.9245 27.0557C94.4038 26.9715 93.8699 27.039 93.3866 27.2503C92.2522 27.6489 91.0871 29.5499 91.8536 31.5505C91.9633 31.8895 92.1417 32.2022 92.3777 32.4691C92.6137 32.736 92.9022 32.9514 93.2253 33.1017C93.5483 33.2521 93.8988 33.3342 94.255 33.343C94.6112 33.3517 94.9653 33.2869 95.2953 33.1526C95.7458 33.0221 96.1653 32.8021 96.5288 32.5058C96.8924 32.2095 97.1924 31.8428 97.4109 31.4279C97.6179 30.8563 97.6394 30.234 97.4723 29.6495C97.6026 29.6495 97.8172 29.6495 98.0088 29.5959C98.1371 30.1222 98.3142 30.6355 98.5377 31.1289C98.5837 31.2363 98.875 31.9415 98.806 32.0181C98.6727 32.1577 98.5235 32.2812 98.3614 32.3861C98.2618 32.4397 98.1621 32.4474 98.1621 32.5624C98.1621 32.869 98.9287 32.6084 99.174 32.4321C99.4192 32.2557 99.4959 31.8035 99.3732 31.3972C99.1576 30.712 98.8258 30.0689 98.3921 29.4962L98.829 29.2663C99.1433 30.2014 99.8408 31.2669 100.814 31.4049C100.794 32.6206 100.66 33.8318 100.416 35.0229ZM96.905 31.1903C96.2841 32.4397 94.0459 33.3289 92.9344 32.2098C92.7269 31.9881 92.5654 31.7276 92.4591 31.4432C92.2958 31.05 92.2215 30.6254 92.2413 30.2001C92.2612 29.7747 92.3748 29.359 92.5741 28.9827C92.7618 28.5063 93.1158 28.1141 93.5706 27.8789C93.9754 27.6623 94.4336 27.566 94.8913 27.6013C95.349 27.6366 95.7871 27.8021 96.1538 28.0782C96.5478 28.4729 96.8246 28.9692 96.9531 29.5119C97.0817 30.0547 97.0571 30.6224 96.882 31.1519L96.905 31.1903ZM102.34 27.8329C102.861 29.1973 102.685 30.4544 101.267 30.738C99.8485 31.0216 98.4917 27.2043 99.8332 26.6064C101.021 25.9855 101.703 26.5911 102.317 27.7945L102.34 27.8329ZM99.4576 20.6275C99.4576 20.6275 99.5189 20.6275 99.5342 20.6888C99.5496 20.7501 99.4269 20.6275 99.4346 20.5892L99.4576 20.6275ZM92.6278 17.8526C92.6278 17.8526 92.5511 17.8526 92.5051 17.799C92.5971 17.73 92.6891 17.7223 92.6048 17.8143L92.6278 17.8526ZM11.6438 129.13C11.2376 127.421 6.86066 81.1834 6.76868 80.1792C5.68787 67.4548 5.28928 42.3126 13.3608 24.5291C20.0757 9.65843 31.0754 3.4112 45.3788 4.67598C46.521 4.77563 47.5941 4.92127 48.6366 5.10523C24.8128 5.70313 16.174 29.1973 13.9664 53.0824C13.1442 62.5337 13.1442 72.0386 13.9664 81.49C14.2807 85.0927 18.5656 127.75 18.8952 129.781C17.9217 129.758 12.5023 129.705 11.6438 129.13ZM19.1711 129.774C18.351 124.078 14.9322 86.8481 14.4876 81.4823C13.0312 64.1894 14.0354 41.3928 21.1335 25.7479C26.1849 14.6025 34.5554 6.32402 48.1997 5.81811C25.1271 12.7782 23.6017 48.1766 24.3836 72.2073C24.4985 75.4037 27.1814 113.6 28.3235 129.697C24.8895 129.751 21.7697 129.797 19.1635 129.774H19.1711ZM34.3485 137.401C33.9039 131.422 30.3548 76.9215 30.2398 72.9662C29.4043 45.6547 31.8956 8.70026 59.1381 6.27803C70.5977 5.25087 78.1863 12.8702 82.7855 23.4636C82.2787 24.1174 82.0402 24.9398 82.1186 25.7632C82.1813 25.9561 82.2953 26.1283 82.4482 26.2615C82.2303 26.498 82.0748 26.7852 81.996 27.097C81.9944 27.4694 82.087 27.8362 82.2652 28.1633C82.4435 28.4903 82.7016 28.7669 83.0155 28.9673C82.9618 29.067 82.9235 29.1436 82.9082 29.182C82.5172 30.5387 82.9082 31.0676 83.6747 31.4816C83.5527 31.9446 83.5944 32.4355 83.7928 32.8713C83.9911 33.3071 84.3339 33.661 84.7632 33.8731C84.9617 33.924 85.1644 33.9573 85.3687 33.9728C85.3459 34.1663 85.3459 34.3618 85.3687 34.5553C85.476 34.9999 85.9053 35.1379 86.3576 35.1839C86.8859 37.767 87.1936 40.3903 87.2774 43.0255C86.048 43.447 84.8881 44.0489 83.8357 44.8115C83.7058 43.6062 83.5114 42.4087 83.2531 41.2242C81.6281 35.0919 79.1522 28.7834 75.3502 23.7626C70.866 17.8373 66.0138 16.0283 64.9407 17.1014C63.0704 18.9718 66.7727 53.205 66.6884 55.6809C66.6884 56.2711 67.6159 56.3325 68.2214 56.3631C68.0498 56.6763 67.9928 57.0396 68.0605 57.3903C61.5296 60.2571 48.5906 66.9719 48.5139 67.0179C47.0939 66.5028 45.5552 66.4096 44.0834 66.7496C42.5894 67.2106 41.144 67.8165 39.7678 68.5586C38.848 69.1029 38.779 69.8694 39.2619 70.4366C36.648 70.4366 34.5707 72.2916 35.1993 74.8825C35.3762 75.5849 35.7212 76.2338 36.2045 76.7732C36.6879 77.3127 37.2951 77.7266 37.9739 77.9792C38.6527 78.2319 39.3828 78.3158 40.1013 78.2237C40.8197 78.1315 41.505 77.8662 42.0981 77.4504C42.7163 77.0743 43.2215 76.5381 43.5602 75.8985C43.8988 75.259 44.0584 74.5398 44.0221 73.817C45.2792 74.5222 46.6513 73.3724 47.3258 72.1153C48.3913 71.6478 58.9004 70.5823 64.7031 69.8157C67.5469 69.4325 70.1991 69.0492 72.1691 68.6046C72.2933 69.3363 72.5702 70.0336 72.9816 70.6513C73.4645 71.1418 75.0282 70.176 75.6721 69.9537C78.2553 69.0799 82.5709 65.5232 83.8663 64.7106C84.1303 65.9034 84.3172 67.1119 84.4259 68.3287C84.4259 69.6318 85.1158 72.5293 84.7708 73.5717C83.6134 77.0365 82.4712 78.3549 81.7814 80.8691C79.0449 81.0531 68.4207 82.8544 65.7762 83.3143C65.7468 83.3176 65.7195 83.3308 65.6986 83.3517C65.6777 83.3726 65.6645 83.4 65.6612 83.4293C65.2473 85.8976 65.1936 95.9621 66.3128 98.1007C66.4661 98.3997 67.0793 98.392 67.5929 98.392C69.3099 98.392 72.9126 98.1161 76.2777 97.7251C75.3589 99.8079 74.7122 102 74.3537 104.248C74.2862 105.072 74.2862 105.9 74.3537 106.724C70.429 107.353 66.6884 107.997 66.6884 107.997C66.6614 108.004 66.6369 108.018 66.6179 108.038C66.5988 108.059 66.5861 108.084 66.5811 108.112C66.1671 110.588 66.1058 120.644 67.2249 122.791C67.2826 122.888 67.3761 122.96 67.4856 122.99C68.5817 123.358 76.155 122.53 77.3125 122.4C77.9104 124.753 78.5543 127.083 79.1752 129.237C65.2933 131.767 35.3296 137.209 34.3485 137.401ZM94.5671 137.562C94.7664 138.528 94.9887 139.562 95.165 140.536L87.423 142.345C87.1777 141.417 86.8865 140.49 86.5875 139.624C89.0174 139.11 92.1372 138.29 94.5671 137.562ZM136.197 129.789C137.623 127.543 139.363 124.692 140.666 122.384C141.755 122.898 143.058 123.481 144.223 124.055L141.042 131.353C139.464 130.723 137.846 130.2 136.197 129.789Z" fill="black"/>
<path fill-rule="evenodd" clip-rule="evenodd" d="M95.2951 30.0635C95.3134 29.9932 95.3122 29.9193 95.2915 29.8497C95.2709 29.7801 95.2316 29.7174 95.1779 29.6685C95.1243 29.6196 95.0583 29.5863 94.9871 29.5721C94.9159 29.558 94.8422 29.5635 94.7739 29.5882C94.3983 29.7338 94.5669 30.1554 94.5516 30.5694C94.5495 30.621 94.5579 30.6725 94.5763 30.7207C94.5946 30.769 94.6225 30.8131 94.6583 30.8503C94.6941 30.8876 94.737 30.9172 94.7846 30.9374C94.8321 30.9576 94.8832 30.968 94.9349 30.968C95.0334 30.9662 95.1275 30.9273 95.1986 30.8591C95.2697 30.7909 95.3124 30.6984 95.3181 30.6C95.3181 30.4467 95.3028 30.2321 95.2951 30.0635ZM100.477 28.4231C100.47 28.3727 100.454 28.3242 100.429 28.2802C100.403 28.2362 100.37 28.1976 100.329 28.1667C100.289 28.1357 100.243 28.113 100.194 28.0997C100.145 28.0865 100.094 28.0831 100.044 28.0896C99.9935 28.0962 99.9449 28.1126 99.9009 28.1379C99.8569 28.1632 99.8183 28.1969 99.7874 28.2371C99.7564 28.2773 99.7337 28.3233 99.7205 28.3723C99.7072 28.4213 99.7038 28.4724 99.7104 28.5227C99.7382 28.7251 99.7818 28.925 99.8407 29.1206C99.8519 29.1736 99.8743 29.2236 99.9063 29.2673C99.9383 29.311 99.9792 29.3474 100.026 29.3742C100.073 29.4009 100.126 29.4174 100.179 29.4225C100.233 29.4276 100.288 29.4212 100.339 29.4037C100.39 29.3863 100.437 29.3582 100.477 29.3212C100.517 29.2843 100.548 29.2394 100.569 29.1894C100.59 29.1395 100.6 29.0857 100.599 29.0316C100.597 28.9774 100.585 28.9242 100.561 28.8753C100.524 28.7264 100.496 28.5754 100.477 28.4231ZM97.7864 34.6166C97.7097 34.6166 97.0198 34.3484 96.9508 34.448C96.8819 34.5477 97.0198 35.1226 97.5794 35.2759C98.139 35.4292 98.5836 35.0766 98.5606 34.9463C98.5376 34.8159 98.5452 34.8389 97.7864 34.6166ZM119.502 15.645C120.161 14.4109 122.86 12.8012 123.657 12.7015C123.693 12.7015 123.728 12.687 123.754 12.6611C123.78 12.6352 123.795 12.6002 123.795 12.5636C123.795 12.527 123.78 12.4919 123.754 12.466C123.728 12.4401 123.693 12.4256 123.657 12.4256C122.315 12.2033 119.625 13.6367 119.234 15.553C119.222 15.5886 119.224 15.6276 119.241 15.6614C119.257 15.6951 119.286 15.721 119.322 15.7332C119.358 15.7454 119.397 15.7429 119.43 15.7264C119.464 15.7099 119.49 15.6806 119.502 15.645ZM123.664 16.7028C123.201 16.8425 122.776 17.0845 122.419 17.4109C122.062 17.7373 121.783 18.1398 121.602 18.5885C121.237 19.4605 121.146 20.423 121.342 21.348C121.349 21.3781 121.366 21.4049 121.391 21.4241C121.415 21.4433 121.445 21.4537 121.476 21.4537C121.507 21.4537 121.537 21.4433 121.561 21.4241C121.586 21.4049 121.603 21.3781 121.61 21.348C121.687 20.8421 121.84 20.2442 121.871 20.1062C122.004 19.1835 122.41 18.3215 123.036 17.6303C123.733 16.8638 123.956 16.9405 123.856 16.7488C123.836 16.7185 123.805 16.697 123.769 16.6885C123.734 16.68 123.696 16.6851 123.664 16.7028Z" fill="black"/>
</svg>
