<svg width="154" height="154" viewBox="0 0 154 154" fill="none" xmlns="http://www.w3.org/2000/svg">
<path d="M85.3094 12.6941L101.744 14.3805C101.822 14.3872 101.899 14.364 101.961 14.3155C102.022 14.2671 102.062 14.1971 102.074 14.1199L102.196 13.2537C102.207 13.1755 102.187 13.0961 102.14 13.0329C102.092 12.9697 102.022 12.9278 101.944 12.9164L85.4474 11.3067C85.4081 11.3024 85.3683 11.306 85.3304 11.3172C85.2925 11.3285 85.2572 11.3471 85.2266 11.372C85.1959 11.397 85.1705 11.4278 85.1518 11.4626C85.1332 11.4974 85.1216 11.5356 85.1177 11.5749L85.0411 12.3415C85.0334 12.3825 85.0345 12.4247 85.0441 12.4653C85.0538 12.5059 85.0718 12.5441 85.0971 12.5773C85.1223 12.6105 85.1543 12.638 85.1909 12.6582C85.2274 12.6783 85.2678 12.6905 85.3094 12.6941ZM83.186 23.9777L101.468 25.9938C101.544 26.0027 101.621 25.9823 101.682 25.9367C101.743 25.8911 101.785 25.8237 101.798 25.7485L101.967 24.8516C101.98 24.7724 101.962 24.6911 101.916 24.6252C101.87 24.5592 101.8 24.5139 101.721 24.499L83.324 22.5826C83.2847 22.5784 83.245 22.582 83.2071 22.5932C83.1692 22.6044 83.1339 22.623 83.1032 22.648C83.0726 22.6729 83.0472 22.7037 83.0285 22.7385C83.0098 22.7734 82.9982 22.8116 82.9944 22.8509L82.9101 23.6174C82.9036 23.6594 82.9057 23.7021 82.9162 23.7432C82.9267 23.7843 82.9454 23.8228 82.9712 23.8565C82.997 23.8901 83.0293 23.9182 83.0662 23.9391C83.1031 23.9599 83.1439 23.9731 83.186 23.9777ZM82.9101 26.3694L95.1059 27.6878C95.1826 27.6947 95.259 27.6726 95.3201 27.6257C95.3811 27.5788 95.4223 27.5107 95.4355 27.4349L95.5658 26.6683C95.5793 26.5891 95.5611 26.5078 95.5152 26.4419C95.4694 26.3759 95.3994 26.3306 95.3205 26.3157L83.0557 24.9896C83.0164 24.9853 82.9767 24.9889 82.9388 25.0001C82.9009 25.0114 82.8656 25.03 82.8349 25.0549C82.8043 25.0799 82.7789 25.1107 82.7602 25.1455C82.7415 25.1803 82.7299 25.2185 82.7261 25.2579L82.6418 26.0244C82.6353 26.0649 82.6372 26.1063 82.6474 26.1459C82.6576 26.1856 82.6758 26.2228 82.701 26.2552C82.7262 26.2875 82.7577 26.3143 82.7937 26.334C82.8296 26.3536 82.8693 26.3657 82.9101 26.3694ZM81.6913 32.9617L99.9505 34.9777C100.029 34.9843 100.108 34.96 100.169 34.9099C100.231 34.8599 100.27 34.7881 100.28 34.7094L100.349 33.7666C100.356 33.6884 100.331 33.6109 100.281 33.5507C100.231 33.4905 100.159 33.4524 100.081 33.4446L81.8369 31.5666C81.7974 31.5612 81.7573 31.564 81.7189 31.5748C81.6806 31.5856 81.6449 31.6042 81.614 31.6293C81.5831 31.6545 81.5577 31.6857 81.5393 31.721C81.521 31.7564 81.5101 31.7951 81.5073 31.8349L81.423 32.6014C81.4165 32.6427 81.4183 32.685 81.4283 32.7256C81.4383 32.7662 81.4564 32.8044 81.4814 32.838C81.5064 32.8715 81.5378 32.8997 81.5738 32.921C81.6099 32.9422 81.6498 32.9561 81.6913 32.9617ZM93.8104 35.2613L81.5456 33.9429C81.5063 33.9386 81.4666 33.9422 81.4287 33.9535C81.3908 33.9647 81.3555 33.9833 81.3248 34.0082C81.2942 34.0332 81.2688 34.064 81.2501 34.0988C81.2314 34.1336 81.2198 34.1718 81.216 34.2112L81.1393 34.9777C81.134 35.0172 81.1368 35.0573 81.1476 35.0957C81.1584 35.134 81.1769 35.1698 81.2021 35.2006C81.2272 35.2315 81.2585 35.2569 81.2938 35.2753C81.3292 35.2936 81.3679 35.3046 81.4076 35.3073L93.5958 36.6181C93.6717 36.6271 93.7481 36.6067 93.8094 36.5611C93.8707 36.5155 93.9122 36.4481 93.9254 36.3728L94.0557 35.6063C94.0623 35.5675 94.0612 35.5278 94.0524 35.4895C94.0437 35.4512 94.0274 35.415 94.0046 35.3829C93.9818 35.3509 93.953 35.3237 93.9196 35.3028C93.8863 35.2819 93.8492 35.2678 93.8104 35.2613ZM84.9644 15.4154L97.7122 16.8641C97.7884 16.8751 97.8658 16.8555 97.9276 16.8095C97.9893 16.7635 98.0304 16.695 98.0418 16.6188L98.2104 15.6837C98.2241 15.6056 98.207 15.5252 98.1627 15.4595C98.1183 15.3937 98.0503 15.3477 97.9728 15.331L85.1331 13.9513C85.0938 13.947 85.054 13.9506 85.0161 13.9618C84.9782 13.9731 84.9429 13.9917 84.9123 14.0166C84.8816 14.0416 84.8562 14.0724 84.8376 14.1072C84.8189 14.142 84.8073 14.1802 84.8035 14.2195L84.6961 15.0781C84.6875 15.1583 84.7108 15.2387 84.761 15.3018C84.8113 15.3649 84.8843 15.4057 84.9644 15.4154Z" fill="black"/>
<path d="M79.3685 41.1562C79.4528 42.8503 79.6904 47.0893 81.3462 47.0893C83.0019 47.0893 85.9455 43.1262 86.6584 42.1757C90.3009 42.6922 93.9861 42.8411 97.6584 42.6203C101.384 42.2907 103.499 40.9722 104.519 38.343C105.998 34.7172 107.876 20.0914 106.926 13.66C106.428 10.2949 104.864 8.56248 101.56 7.68095C92.8674 5.3813 79.0389 5.19733 76.8695 5.3813C73.4431 5.65726 71.2047 6.42381 69.9093 9.49001C68.0695 13.89 66.9121 23.6252 66.9887 29.9569C67.0347 32.3639 67.0807 35.0928 68.5755 37.0858C70.4152 39.5311 74.5469 40.382 79.3685 41.1562ZM67.6556 29.8956C67.602 23.6712 68.7364 13.8747 70.4459 9.77363C71.6417 6.89907 73.8953 6.14785 76.9232 5.94088C82.4424 5.56527 95.2591 6.6691 101.361 8.32485C104.427 9.16039 105.799 10.6858 106.244 13.7674C107.133 19.8998 105.27 34.6788 103.944 38.1207C103.055 40.5276 101.169 41.7081 97.6354 42.076C93.9494 42.3149 90.2486 42.1813 86.5894 41.6774C86.5214 41.672 86.4531 41.683 86.3904 41.7097C86.3276 41.7364 86.2723 41.778 86.2291 41.8308C85.5316 42.7046 82.4577 46.5527 81.3539 46.4301C80.687 46.3687 80.1964 44.322 80.0277 40.9569C80.0269 40.8964 80.005 40.838 79.9659 40.7918C79.9267 40.7457 79.8727 40.7146 79.8131 40.7039C72.2549 39.3931 70.3385 38.3583 69.0814 36.6642C67.7323 34.8475 67.6939 32.1952 67.6556 29.8956ZM65.5399 70.7144C66.8334 70.8531 68.1391 70.6087 69.2949 70.0116C70.4506 69.4144 71.4055 68.4909 72.0408 67.3557C72.676 66.2204 72.9638 64.9236 72.8682 63.6262C72.7726 62.3288 72.298 61.0881 71.5032 60.0582C70.7084 59.0283 69.6286 58.2547 68.3978 57.8334C67.167 57.412 65.8396 57.3616 64.5804 57.6884C63.3212 58.0152 62.1858 58.7047 61.3152 59.6713C60.4446 60.638 59.8772 61.8391 59.6835 63.1255C59.5695 64.0084 59.6305 64.9051 59.8632 65.7643C60.0958 66.6236 60.4955 67.4286 61.0394 68.1333C61.5832 68.8381 62.2606 69.4288 63.0329 69.8716C63.8051 70.3145 64.657 70.6008 65.5399 70.7144Z" fill="black"/>
<path d="M76.218 18.8726C75.3614 18.8726 74.524 19.1266 73.8118 19.6025C73.0996 20.0784 72.5444 20.7548 72.2166 21.5462C71.8888 22.3375 71.8031 23.2084 71.9702 24.0485C72.1373 24.8886 72.5498 25.6603 73.1555 26.266C73.7612 26.8718 74.5329 27.2842 75.373 27.4514C76.2132 27.6185 77.084 27.5327 77.8754 27.2049C78.6668 26.8771 79.3432 26.322 79.8191 25.6097C80.295 24.8975 80.549 24.0602 80.549 23.2036C80.549 22.0549 80.0927 20.9533 79.2805 20.1411C78.4682 19.3289 77.3666 18.8726 76.218 18.8726ZM76.4709 25.6565C76.3201 25.5113 76.1252 25.4204 75.917 25.3982C75.7088 25.376 75.4992 25.4238 75.3211 25.5339C75.2331 25.5994 75.123 25.6281 75.0143 25.6138C74.9055 25.5994 74.8066 25.5433 74.7385 25.4572C74.1943 24.752 76.1873 24.0314 77.0918 25.1046C77.1281 25.1454 77.1559 25.1929 77.1738 25.2444C77.1917 25.296 77.1992 25.3505 77.196 25.405C77.1928 25.4594 77.1789 25.5127 77.1551 25.5618C77.1313 25.6109 77.0981 25.6548 77.0573 25.691C77.0166 25.7273 76.9691 25.7551 76.9175 25.773C76.866 25.7909 76.8114 25.7984 76.757 25.7952C76.7025 25.792 76.6493 25.7781 76.6002 25.7543C76.5511 25.7305 76.5072 25.6973 76.4709 25.6565ZM77.6208 24.1694C77.2045 23.809 76.6891 23.5825 76.1421 23.5196C75.5951 23.4567 75.0418 23.5603 74.5546 23.8168C74.5042 23.842 74.4494 23.857 74.3933 23.861C74.3372 23.865 74.2808 23.8579 74.2274 23.8401C74.174 23.8223 74.1247 23.7941 74.0822 23.7573C74.0396 23.7204 74.0048 23.6755 73.9796 23.6252C73.9545 23.5748 73.9395 23.52 73.9355 23.4639C73.9315 23.4078 73.9386 23.3514 73.9564 23.298C73.9742 23.2446 74.0023 23.1953 74.0392 23.1528C74.0761 23.1103 74.121 23.0754 74.1713 23.0503C74.8038 22.7014 75.5295 22.5589 76.2469 22.6427C76.9644 22.7266 77.6377 23.0325 78.1727 23.5179C78.2591 23.591 78.3129 23.6956 78.3222 23.8084C78.3316 23.9213 78.2957 24.0332 78.2225 24.1196C78.1493 24.206 78.0448 24.2598 77.9319 24.2691C77.8191 24.2785 77.7072 24.2426 77.6208 24.1694ZM78.6326 22.6363C78.02 22.0543 77.2414 21.6775 76.4049 21.558C75.5684 21.4385 74.7154 21.5823 73.9643 21.9694C73.8719 22.0102 73.7678 22.0159 73.6716 21.9853C73.5753 21.9546 73.4936 21.8899 73.4417 21.8032C73.3899 21.7165 73.3716 21.6138 73.3902 21.5146C73.4088 21.4153 73.463 21.3262 73.5427 21.2642C74.446 20.7995 75.4703 20.6237 76.4767 20.7609C77.4832 20.898 78.4232 21.3413 79.1692 22.0307C79.2358 22.1058 79.2728 22.2025 79.2735 22.3028C79.2742 22.4031 79.2384 22.5002 79.1728 22.5761C79.1072 22.6521 79.0162 22.7016 78.9169 22.7154C78.8175 22.7293 78.7165 22.7067 78.6326 22.6516V22.6363ZM75.3134 32.3945L76.4633 31.9039L75.5204 30.8921L75.3134 32.3945ZM74.9302 35.1847L76.3943 34.2036L75.1985 33.2377L74.9302 35.1847Z" fill="black"/>
<path d="M75.3595 28.5848C74.5042 28.5909 73.6699 28.85 72.9617 29.3296C72.2535 29.8092 71.7032 30.4877 71.3801 31.2796C71.057 32.0715 70.9756 32.9413 71.1461 33.7794C71.3167 34.6175 71.7316 35.3864 72.3385 35.989C72.9454 36.5916 73.7171 37.0011 74.5564 37.1657C75.3957 37.3304 76.265 37.2428 77.0546 36.9141C77.8442 36.5855 78.5188 36.0303 78.9933 35.3188C79.4679 34.6072 79.7211 33.7711 79.7212 32.9158C79.7222 32.3442 79.6099 31.778 79.3906 31.2501C79.1714 30.7222 78.8497 30.243 78.4441 29.8402C78.0385 29.4374 77.557 29.1191 77.0275 28.9036C76.498 28.6881 75.9311 28.5798 75.3595 28.5848ZM77.2452 32.0726C77.1609 32.4789 76.8389 32.5249 75.9267 32.9082L76.9616 33.7284C77.0854 33.8302 77.1637 33.9769 77.1796 34.1364C77.1954 34.2959 77.1473 34.4551 77.0459 34.5793C76.4534 35.0591 75.8227 35.4898 75.1602 35.8671C75.0597 35.9323 74.9427 35.9674 74.8229 35.9683C74.7031 35.9693 74.5856 35.936 74.4841 35.8723C74.3826 35.8087 74.3014 35.7174 74.2501 35.6092C74.1988 35.501 74.1794 35.3803 74.1943 35.2615L74.432 33.5291L73.1058 34.0887C73.0555 34.1098 73.0015 34.1208 72.9469 34.1211C72.8923 34.1214 72.8382 34.1109 72.7877 34.0902C72.7371 34.0696 72.6912 34.0392 72.6524 34.0008C72.6136 33.9624 72.5827 33.9167 72.5616 33.8664C72.5404 33.816 72.5294 33.762 72.5292 33.7074C72.5289 33.6528 72.5394 33.5987 72.56 33.5482C72.5807 33.4977 72.611 33.4517 72.6495 33.4129C72.6879 33.3741 72.7335 33.3432 72.7839 33.3221L74.317 32.6629L72.8989 31.5131C72.8281 31.4401 72.7866 31.3437 72.7823 31.2422C72.7781 31.1406 72.8113 31.0411 72.8757 30.9625C72.9401 30.8838 73.0312 30.8317 73.1316 30.8159C73.232 30.8001 73.3347 30.8218 73.4201 30.8768L74.6466 31.8657L74.8766 30.2329C74.8841 30.1743 74.9032 30.1178 74.9328 30.0666C74.9624 30.0155 75.002 29.9708 75.0491 29.9351C75.0962 29.8994 75.1499 29.8735 75.2072 29.8588C75.2644 29.8441 75.324 29.841 75.3825 29.8496C75.6124 29.8496 75.5511 29.8496 77.0766 31.5131C77.1496 31.5845 77.2034 31.6733 77.2328 31.7712C77.2623 31.869 77.2666 31.9727 77.2452 32.0726ZM77.4215 8.50122C76.709 8.50118 76.0075 8.67692 75.3792 9.01285C74.7509 9.34879 74.2152 9.83455 73.8195 10.4271C73.4238 11.0196 73.1805 11.7006 73.1109 12.4097C73.0414 13.1187 73.1479 13.834 73.421 14.4921C73.694 15.1502 74.1252 15.7307 74.6763 16.1823C75.2275 16.6339 75.8815 16.9425 76.5804 17.0808C77.2793 17.2192 78.0016 17.1829 78.6831 16.9753C79.3647 16.7677 79.9846 16.3952 80.4877 15.8908C81.0923 15.2846 81.5036 14.5129 81.6699 13.6731C81.8361 12.8333 81.7497 11.9631 81.4216 11.1724C81.0935 10.3816 80.5384 9.70587 79.8264 9.23045C79.1145 8.75503 78.2776 8.50127 77.4215 8.50122ZM79.0389 11.1228L79.7288 10.5786C79.8046 10.5327 79.8946 10.5164 79.9816 10.5327C80.0687 10.549 80.1467 10.5968 80.2007 10.667C80.2548 10.7371 80.2811 10.8247 80.2746 10.9131C80.2682 11.0014 80.2294 11.0843 80.1658 11.1458C79.3992 11.7284 79.3992 11.7591 79.2612 11.7591C79.1845 11.7656 79.1078 11.7468 79.0428 11.7057C78.9778 11.6645 78.928 11.6032 78.9011 11.5311C78.8741 11.459 78.8715 11.3801 78.8936 11.3063C78.9158 11.2326 78.9614 11.1682 79.0236 11.1228H79.0389ZM77.4598 9.58972C77.4781 9.50143 77.5289 9.42321 77.602 9.3705C77.6751 9.31779 77.7654 9.29443 77.8549 9.30502C77.9445 9.31561 78.0268 9.35939 78.0856 9.42771C78.1445 9.49603 78.1755 9.58392 78.1727 9.67404L78.0654 10.5479C78.0475 10.6373 77.9963 10.7166 77.9221 10.7698C77.848 10.8229 77.7565 10.846 77.6661 10.8343C77.5756 10.8226 77.493 10.7771 77.4348 10.7069C77.3766 10.6366 77.3472 10.547 77.3525 10.4559L77.4598 9.58972ZM74.202 12.7709C74.1308 12.7624 74.0638 12.7329 74.0095 12.6861C73.9552 12.6394 73.916 12.5774 73.8971 12.5083C73.8782 12.4392 73.8803 12.3659 73.9032 12.298C73.9261 12.2301 73.9688 12.1706 74.0257 12.127C74.179 12.0044 74.248 12.0503 75.1602 12.1653C75.2459 12.1823 75.3225 12.2299 75.3758 12.2992C75.4291 12.3684 75.4553 12.4547 75.4497 12.5419C75.4441 12.6292 75.407 12.7113 75.3452 12.7732C75.2835 12.8351 75.2014 12.8724 75.1142 12.8782L74.202 12.7709ZM75.7888 14.5646C75.0222 15.1549 75.0222 15.1779 74.8842 15.1779C74.8331 15.1794 74.7823 15.1698 74.7353 15.1498C74.6883 15.1298 74.6462 15.0998 74.6119 15.0619C74.5777 15.0239 74.552 14.979 74.5369 14.9302C74.5217 14.8814 74.5173 14.8299 74.5239 14.7793C74.5239 14.58 74.6236 14.5646 75.3518 14.0127C75.4257 13.9766 75.5096 13.9669 75.5898 13.9851C75.6699 14.0033 75.7414 14.0484 75.7924 14.1128C75.8434 14.1772 75.8709 14.2572 75.8702 14.3394C75.8696 14.4215 75.8408 14.501 75.7888 14.5646ZM75.6968 11.2378C75.0912 10.4713 75.0605 10.4713 75.0835 10.2873C75.0934 10.2179 75.1233 10.153 75.1696 10.1003C75.2159 10.0477 75.2765 10.0097 75.344 9.99102C75.4115 9.97231 75.483 9.97369 75.5497 9.995C75.6165 10.0163 75.6756 10.0566 75.7198 10.111L76.264 10.8009C76.2961 10.8758 76.3018 10.9594 76.2802 11.038C76.2586 11.1166 76.211 11.1856 76.1452 11.2336C76.0793 11.2817 75.9991 11.306 75.9177 11.3026C75.8362 11.2991 75.7584 11.2682 75.6968 11.2148V11.2378ZM77.3678 16.0747C77.3594 16.1459 77.3299 16.2129 77.2831 16.2673C77.2363 16.3216 77.1744 16.3607 77.1052 16.3796C77.0361 16.3986 76.9629 16.3964 76.895 16.3735C76.827 16.3506 76.7675 16.308 76.7239 16.251C76.609 16.0977 76.6473 16.0287 76.7239 15.1165C76.7268 15.0672 76.7399 15.019 76.7622 14.9749C76.7845 14.9308 76.8157 14.8917 76.8537 14.8602C76.8918 14.8287 76.9359 14.8053 76.9834 14.7915C77.0309 14.7778 77.0807 14.774 77.1297 14.7803C77.1787 14.7866 77.2259 14.803 77.2684 14.8283C77.3108 14.8537 77.3476 14.8875 77.3764 14.9276C77.4052 14.9678 77.4254 15.0135 77.4358 15.0618C77.4462 15.1101 77.4466 15.1601 77.4368 15.2085L77.3678 16.0747ZM77.3678 14.2427C77.0863 14.2421 76.8117 14.156 76.5803 13.9957C76.3489 13.8354 76.1717 13.6084 76.0723 13.3451C75.973 13.0817 75.9561 12.7943 76.0238 12.5211C76.0916 12.2479 76.2409 12.0017 76.4519 11.8154C76.6629 11.629 76.9256 11.5112 77.2051 11.4777C77.4846 11.4441 77.7677 11.4964 78.0168 11.6275C78.2659 11.7586 78.4692 11.9624 78.5997 12.2118C78.7303 12.4612 78.7819 12.7444 78.7476 13.0239C78.7013 13.3468 78.5432 13.6433 78.3009 13.8617C78.0587 14.0802 77.7475 14.2069 77.4215 14.2197L77.3678 14.2427ZM79.0543 15.5995C78.4487 14.8329 78.418 14.8329 78.441 14.649C78.4474 14.5775 78.4754 14.5097 78.5213 14.4545C78.5673 14.3994 78.6289 14.3596 78.6981 14.3404C78.7672 14.3213 78.8406 14.3237 78.9083 14.3473C78.9761 14.3709 79.035 14.4146 79.0773 14.4726L79.6215 15.1625C79.6425 15.232 79.642 15.3063 79.6201 15.3755C79.5982 15.4447 79.5559 15.5057 79.4987 15.5505C79.4415 15.5952 79.3721 15.6217 79.2997 15.6263C79.2272 15.6309 79.155 15.6136 79.0926 15.5765L79.0543 15.5995ZM80.549 13.6064L79.6292 13.4991C79.5598 13.4892 79.4948 13.4593 79.4422 13.413C79.3896 13.3668 79.3516 13.3062 79.3329 13.2387C79.3142 13.1712 79.3156 13.0997 79.3369 13.0329C79.3582 12.9662 79.3985 12.9071 79.4529 12.8629C79.6138 12.7326 79.6828 12.7786 80.5874 12.8629C80.6829 12.8629 80.7745 12.9008 80.8421 12.9684C80.9097 13.036 80.9476 13.1276 80.9476 13.2232C80.9476 13.3187 80.9097 13.4104 80.8421 13.4779C80.7745 13.5455 80.6829 13.5834 80.5874 13.5834L80.549 13.6064ZM147.622 117.834C150.458 115.174 149.799 111.15 148.327 107.593C151.102 104.151 147.055 88.8433 131.417 79.0545C119.076 71.343 108.275 73.198 97.9037 70.8754C96.9455 67.0426 94.002 58.0893 90.0619 58.3653C90.3992 55.0768 88.7818 53.5437 85.0717 51.382C80.411 48.6608 69.5567 45.9395 65.2947 45.3033C58.1274 44.2301 55.7895 46.7597 52.1254 52.8921C50.7072 52.1869 48.8982 51.29 44.5442 49.4963C43.9539 46.8977 43.0111 45.3033 41.5623 44.4754C40.9644 43.8622 35.6675 40.267 32.7546 38.3967C23.5033 32.5123 13.8578 27.272 3.88637 22.7131C3.86931 22.7056 3.85069 22.7024 3.83211 22.7037C3.81353 22.705 3.79555 22.7108 3.77971 22.7206C3.76388 22.7304 3.75066 22.7439 3.7412 22.76C3.73174 22.776 3.72631 22.7941 3.72539 22.8127C3.72539 23.1347 3.72539 23.242 3.78672 23.288C14.8097 28.7841 29.7728 36.7639 39.8146 43.9848C35.4912 43.3256 30.616 48.4921 28.6306 50.8148C13.4529 68.7904 9.44386 101.476 18.3972 105.784C13.5321 105.836 8.66831 105.593 3.83271 105.056C3.81638 105.054 3.79976 105.055 3.78399 105.06C3.76822 105.065 3.75366 105.073 3.7413 105.084C3.72894 105.094 3.71907 105.108 3.71236 105.123C3.70565 105.138 3.70225 105.154 3.7024 105.171C3.7024 105.447 3.7024 105.554 3.80205 105.569C9.07053 106.178 14.376 106.406 19.6773 106.252C21.3407 106.535 23.1114 105.922 25.2578 104.312C25.6027 104.358 27.5574 104.619 28.186 104.688C24.5454 118.776 23.5705 133.421 25.3114 147.868C25.3114 147.998 25.4341 147.967 25.8174 147.967C26.5149 147.967 22.5365 131.87 28.4773 106.712C31.2445 94.9987 35.6752 84.4817 40.3205 78.6482C41.5197 77.0016 43.0563 75.6296 44.8278 74.6238C50.5309 71.7876 52.9302 81.2621 53.4132 87.5632C54.609 102.672 49.6571 119.981 49.818 120.578C49.826 120.611 49.8404 120.641 49.8603 120.667C49.8802 120.693 49.9052 120.715 49.9338 120.732C49.9624 120.748 49.9941 120.759 50.0269 120.763C50.0597 120.767 50.0929 120.764 50.1247 120.755C62.0139 117.474 74.1867 108.153 81.8982 96.4168C81.938 96.3583 81.9569 96.2881 81.9518 96.2175C81.6145 86.2524 82.3887 60.1897 89.9393 59.0015C93.5727 58.396 96.4013 67.7095 97.2981 71.3123C99.5978 81.1012 99.6515 93.8642 97.5511 109.234C97.5051 109.571 98.103 109.525 98.1567 109.234C99.3259 101.97 99.8773 94.6208 99.8048 87.2642C113.342 92.9444 109.249 119.183 108.283 124.404C108.221 124.726 108.773 124.741 108.835 124.404C109.48 121.246 109.923 118.051 110.161 114.837C116.293 121.736 114.89 135.749 112.292 144.533C112.215 144.786 112.637 144.901 112.721 144.648C113.474 142.229 114.053 139.76 114.454 137.259C116.316 140.378 116.822 144.211 116.937 147.845C116.939 147.874 116.952 147.901 116.973 147.921C116.995 147.941 117.023 147.952 117.052 147.952H117.328C117.359 147.952 117.388 147.94 117.409 147.918C117.431 147.897 117.443 147.868 117.443 147.837C117.482 144.862 116.983 141.904 115.971 139.106C118.662 141.007 120.908 143.751 123.392 144.372C127.324 145.323 127.508 140.248 126.289 136.385C124.58 130.475 120.394 124.756 116.401 120.111C119.154 121.029 121.777 122.299 124.204 123.89C129.547 127.247 132.935 131.195 135.679 134.353C137.979 137.036 141.428 141.337 144.648 140.24C145.124 140.064 145.558 139.793 145.925 139.442C146.291 139.091 146.582 138.669 146.779 138.201C147.959 135.795 147.408 132.245 146.58 129.708C149.868 127.447 149.286 122.119 147.622 117.834ZM46.1463 64.7813C44.4905 68.6141 44.0459 71.6803 44.8278 73.9799C43.2487 74.6468 41.5546 76.0879 39.7916 78.2649C33.4829 86.1144 29.6808 99.0154 28.2933 104.328L15.9289 102.35C9.96511 89.6329 20.7658 55.0155 34.579 46.0698L51.8647 53.3061C49.73 57.0129 47.8204 60.8449 46.1463 64.7813ZM52.8382 63.3709C52.756 63.3071 52.6906 63.2242 52.6478 63.1293C52.605 63.0344 52.5862 62.9305 52.593 62.8266C52.7126 61.7433 53.0159 60.6882 53.4898 59.7068C53.5292 59.6225 53.5878 59.5487 53.6611 59.4914C53.7344 59.4341 53.8201 59.395 53.9114 59.3771C54.7121 59.2486 55.5235 59.1999 56.3337 59.2315C56.786 59.2315 56.6173 58.6796 58.0201 57.1158C58.2884 56.8169 57.9588 56.7172 57.3456 54.4712C57.3143 54.3525 57.3203 54.227 57.3628 54.1118C57.4053 53.9966 57.4823 53.8973 57.5832 53.8273C58.4769 53.2254 59.4089 52.6826 60.3734 52.2022C60.4598 52.1572 60.5558 52.1337 60.6532 52.1337C60.7506 52.1337 60.8466 52.1572 60.933 52.2022C62.8034 53.3137 62.926 53.9116 63.34 53.789C64.2618 53.533 65.2121 53.3939 66.1686 53.3751C66.6591 53.3751 66.4215 52.8001 67.7017 50.9604C67.7571 50.8849 67.83 50.8239 67.914 50.7825C67.9981 50.7411 68.0909 50.7206 68.1846 50.7228C69.2825 50.7666 70.3665 50.9839 71.3964 51.3667C71.4896 51.3994 71.573 51.4552 71.6387 51.5289C71.7044 51.6027 71.7503 51.6919 71.772 51.7883C71.9278 52.7282 72.0047 53.6795 72.002 54.6322C72.002 55.0615 72.5462 54.9312 74.0947 56.3416C74.478 56.7019 74.9226 55.9507 77.2759 55.6364C77.3688 55.6227 77.4637 55.6324 77.552 55.6645C77.6403 55.6966 77.7193 55.7502 77.7818 55.8203C78.5031 56.6217 79.0883 57.5358 79.5142 58.5263C79.5523 58.6163 79.568 58.7143 79.56 58.8117C79.552 58.9092 79.5205 59.0032 79.4682 59.0859C78.8652 59.9221 78.1907 60.7044 77.4522 61.4238C77.1609 61.7228 77.5518 61.9221 77.6591 63.7848C77.6598 63.8555 77.6812 63.9244 77.7207 63.9831C77.7602 64.0417 77.8161 64.0873 77.8814 64.1144C78.8511 64.4768 79.7706 64.961 80.618 65.5555C80.69 65.6103 80.7483 65.681 80.7882 65.7622C80.8281 65.8433 80.8486 65.9327 80.848 66.0231C80.8099 67.0783 80.5786 68.1175 80.1658 69.0893C80.1293 69.1786 80.072 69.2579 79.9986 69.3206C79.9253 69.3832 79.838 69.4275 79.7441 69.4496C78.6208 69.6558 77.4826 69.7712 76.3407 69.7946C75.9727 69.7946 76.0877 70.1855 74.9302 71.4656C74.5929 71.8489 75.3212 72.2322 75.6968 74.7465C75.7075 74.8363 75.6972 74.9274 75.6665 75.0126C75.6359 75.0977 75.5859 75.1746 75.5205 75.2371C74.7315 75.9573 73.8169 76.5263 72.8222 76.9158C72.7366 76.95 72.6441 76.9636 72.5523 76.9556C72.4604 76.9476 72.3717 76.9183 72.2933 76.8698C71.438 76.2928 70.6374 75.6385 69.9016 74.9151C69.595 74.6238 69.3421 75.0684 67.2954 75.1834C66.7741 75.1834 67.0578 75.904 65.563 77.8893C65.5063 77.9611 65.434 78.019 65.3517 78.0588C65.2694 78.0987 65.1792 78.1193 65.0877 78.1193C64.0276 78.0518 62.9887 77.792 62.0215 77.3527C61.9356 77.3186 61.859 77.2647 61.7977 77.1954C61.7365 77.1262 61.6924 77.0435 61.6689 76.9541C61.4749 76.02 61.3596 75.0713 61.324 74.1179C61.3197 74.055 61.3 73.9941 61.2666 73.9406C61.2331 73.8871 61.187 73.8427 61.1323 73.8113C59.0473 72.6768 58.9783 71.9562 58.5107 72.1709C57.7444 72.5752 56.9271 72.8744 56.0808 73.0601C55.9814 73.0806 55.8784 73.0752 55.7817 73.0443C55.685 73.0134 55.5979 72.9581 55.5288 72.8838C54.8417 72.1175 54.2966 71.235 53.9191 70.2775C53.8841 70.189 53.8707 70.0935 53.88 69.9989C53.8894 69.9042 53.9212 69.8131 53.9727 69.7332C55.2452 67.8935 55.9504 67.8245 55.8048 67.3569C55.1379 65.1953 55.5825 64.674 55.1149 64.49C54.3165 64.2035 53.5528 63.8281 52.8382 63.3709ZM50.4926 120.096C51.0752 117.75 51.5428 115.496 51.972 113.342C54.82 114.443 57.79 115.197 60.818 115.588C57.5882 117.54 54.1169 119.06 50.4926 120.111V120.096ZM65.6703 111.089C61.6473 110.918 57.6728 110.143 53.8808 108.789C53.4208 108.628 53.6048 107.8 54.0954 107.907C58.7637 108.942 60.2738 109.441 65.7546 110.207C65.8656 110.228 65.9648 110.289 66.0327 110.379C66.1007 110.469 66.1326 110.582 66.122 110.694C66.1114 110.806 66.0592 110.911 65.9757 110.987C65.8921 111.062 65.7832 111.104 65.6703 111.104V111.089ZM66.8738 104.818C66.8661 104.927 66.8177 105.03 66.7383 105.105C66.6588 105.18 66.5539 105.223 66.4445 105.225C62.3499 104.888 58.3127 104.046 54.425 102.718C54.3209 102.675 54.2373 102.594 54.1916 102.491C54.146 102.388 54.1417 102.272 54.1797 102.166C54.2947 101.806 54.3637 101.829 55.5978 102.128C58.664 102.894 62.4355 103.661 65.448 104.174C66.8431 104.412 66.9274 104.427 66.8738 104.834V104.818ZM67.4794 99.3374C64.1985 99.1611 57.8055 97.9039 54.793 96.6085C54.3637 96.4245 54.5477 95.6196 55.0382 95.7423C59.1626 96.9054 63.3563 97.8067 67.5943 98.4405C67.7153 98.4588 67.824 98.5244 67.8966 98.6229C67.9692 98.7214 67.9997 98.8447 67.9814 98.9656C67.9631 99.0866 67.8975 99.1953 67.7991 99.2679C67.7006 99.3405 67.5773 99.371 67.4564 99.3527L67.4794 99.3374ZM55.0689 88.667C59.5718 90.0846 64.1469 91.2616 68.7748 92.1931C68.8898 92.2106 68.9933 92.2724 69.0633 92.3654C69.1332 92.4583 69.1639 92.5749 69.1489 92.6902C69.1338 92.8055 69.0742 92.9103 68.9828 92.9822C68.8914 93.0541 68.7754 93.0873 68.6598 93.0747C63.9153 92.4352 59.2632 91.2362 54.8006 89.5026C54.3484 89.3186 54.5936 88.529 55.0689 88.667ZM81.2543 96.1562C77.517 101.753 72.92 106.725 67.6327 110.889C67.6327 104.696 69.825 97.0224 74.11 88.0691C74.1174 88.051 74.1203 88.0314 74.1185 88.0119C74.1168 87.9924 74.1104 87.9736 74.0999 87.9571C74.0893 87.9406 74.0751 87.9268 74.0581 87.917C74.0412 87.9071 74.0222 87.9015 74.0027 87.9005C73.0215 87.9005 71.772 88.552 65.9999 86.9116C61.9295 85.7465 58.802 85.3095 54.655 83.4315C54.655 83.4315 54.2794 81.8984 54.1797 81.5458C56.8914 82.7672 59.7153 83.7222 62.6118 84.3973C69.8097 86.3137 74.6466 88.3144 79.4759 82.5499C83.5539 77.621 80.6027 75.536 81.2543 96.1562ZM146.411 129.218C143.452 120.525 134.598 111.832 128.313 108.666C128.284 108.651 128.253 108.642 128.221 108.639C128.189 108.637 128.157 108.641 128.126 108.652C128.096 108.663 128.068 108.68 128.045 108.702C128.021 108.725 128.003 108.751 127.991 108.781C127.7 109.364 128.918 108.981 133.863 113.105C137.143 115.918 144.962 123.43 146.618 132.268C147.216 135.335 146.656 137.151 146.265 137.956C146.104 138.36 145.86 138.726 145.55 139.03C145.24 139.335 144.87 139.572 144.464 139.727C141.582 140.708 138.247 136.431 136.254 134.085C133.541 130.881 130.122 126.895 124.603 123.453C119.835 120.471 115.925 119.352 115.626 119.697C115.327 120.042 123.292 128.244 125.729 136.622C126.81 139.957 126.987 144.709 123.522 143.843C120.893 143.169 118.11 139.643 115.649 138.339C115.351 137.696 114.999 137.078 114.599 136.492C115.649 129.103 115.519 119.367 110.276 114.047C110.805 105.424 110.146 90.4531 99.8201 86.559C99.7527 81.4722 99.1567 76.4062 98.0417 71.4426C108.459 73.8726 119.122 72.2092 131.08 79.5987C138.822 84.3897 147.607 93.9026 148.58 103.454C148.649 104.09 148.787 106.16 148.12 107.11C145.606 101.553 140.01 95.6733 135.733 92.7067C135.503 92.5458 135.235 92.9137 135.457 93.0823C140.923 97.0684 150.481 107.44 148.918 114.507C148.707 115.589 148.172 116.581 147.385 117.351C144.579 110.452 138.439 103.553 133.38 99.667C133.157 99.4984 132.858 99.828 133.065 100.02C136.564 102.803 139.687 106.029 142.356 109.617C149.278 119.038 149.631 126.55 146.411 129.218Z" fill="black"/>
</svg>
