<svg width="154" height="154" viewBox="0 0 154 154" fill="none" xmlns="http://www.w3.org/2000/svg">
<path d="M107.314 46.536C107.096 46.8044 106.864 47.0603 106.617 47.3025C106.59 47.3341 106.573 47.3726 106.568 47.4135C106.563 47.4544 106.57 47.4959 106.588 47.5331C106.605 47.5703 106.633 47.6016 106.669 47.6232C106.704 47.6449 106.744 47.6559 106.785 47.6551C107.674 47.1099 108.377 46.3082 108.801 45.3555C108.909 45.0336 108.41 44.7423 108.25 45.0949C107.828 46.0224 106.234 46.076 105.812 45.9304C105.754 45.9091 105.69 45.9116 105.634 45.9375C105.578 45.9634 105.534 46.0104 105.513 46.0684C105.492 46.1263 105.494 46.1904 105.52 46.2464C105.546 46.3025 105.593 46.346 105.651 46.3673C106.185 46.5521 106.754 46.6098 107.314 46.536ZM104.532 42.6267C104.171 42.9478 103.789 43.2448 103.39 43.5158C103.315 43.5645 103.253 43.6316 103.212 43.7109C103.17 43.7901 103.15 43.8786 103.152 43.9681C103.152 44.244 104.118 44.9646 104.126 44.9722C104.166 45.0024 104.216 45.0172 104.267 45.0142C104.317 45.0111 104.365 44.9904 104.401 44.9556C104.438 44.9207 104.461 44.8741 104.467 44.8239C104.472 44.7736 104.46 44.723 104.432 44.681C104.379 44.5813 104.072 44.2057 103.88 43.9528C104.746 43.0866 105.137 42.803 104.846 42.5883C104.797 42.558 104.739 42.5453 104.682 42.5522C104.625 42.5592 104.572 42.5855 104.532 42.6267ZM103.865 42.1591C104.172 42.0211 104.095 41.6685 104.463 40.7487C104.477 40.7154 104.485 40.6797 104.486 40.6434C104.487 40.6071 104.481 40.571 104.467 40.5372C104.454 40.5034 104.434 40.4725 104.409 40.4463C104.384 40.4201 104.354 40.3992 104.321 40.3846C104.288 40.37 104.252 40.362 104.216 40.3613C104.18 40.3605 104.143 40.3669 104.11 40.3801C104.076 40.3932 104.045 40.4129 104.019 40.438C103.993 40.4631 103.972 40.4931 103.957 40.5264C103.528 41.4232 103.19 41.6072 103.328 41.9214C103.345 41.9744 103.373 42.0232 103.41 42.0646C103.447 42.106 103.492 42.139 103.543 42.1615C103.594 42.184 103.649 42.1954 103.704 42.195C103.76 42.1946 103.815 42.1823 103.865 42.1591ZM107.023 43.1326C107.33 42.9946 107.261 42.6343 107.621 41.7222C107.65 41.6551 107.652 41.579 107.625 41.5107C107.599 41.4424 107.546 41.3875 107.479 41.3581C107.412 41.3286 107.336 41.327 107.268 41.3535C107.199 41.3801 107.145 41.4328 107.115 41.4999C106.762 42.2664 106.349 42.5883 106.479 42.8949C106.496 42.9482 106.525 42.9971 106.563 43.0385C106.6 43.0799 106.646 43.1129 106.698 43.1353C106.749 43.1578 106.805 43.1691 106.861 43.1686C106.917 43.1682 106.972 43.1559 107.023 43.1326ZM44.5278 30.2089C44.1599 27.4723 44.2289 27.411 43.9913 27.411C30.5923 27.411 31.3052 27.319 31.3052 27.6027V30.1399C31.3052 30.2472 31.3895 30.3775 31.4968 30.3775C45.0567 30.4235 44.5738 30.5001 44.5278 30.2089ZM48.8127 27.411C45.1487 27.411 45.3633 27.411 45.279 27.4723C45.1947 27.5337 45.21 27.4187 45.5626 30.2549C45.5626 30.4925 45.601 30.4235 48.8127 30.4235C48.8636 30.4235 48.9123 30.4033 48.9482 30.3674C48.9842 30.3314 49.0044 30.2827 49.0044 30.2319V27.595C49.0024 27.5455 48.9813 27.4987 48.9456 27.4644C48.9099 27.4301 48.8623 27.411 48.8127 27.411ZM115.194 27.457L110.334 27.7943C110.311 27.7943 110.287 27.7991 110.265 27.8084C110.243 27.8177 110.224 27.8314 110.207 27.8486C110.191 27.8658 110.178 27.8862 110.169 27.9084C110.161 27.9307 110.157 27.9545 110.158 27.9783V30.8757C110.158 30.9266 110.178 30.9753 110.214 31.0112C110.25 31.0472 110.299 31.0674 110.35 31.0674H115.202C115.253 31.0674 115.302 31.0472 115.337 31.0112C115.373 30.9753 115.394 30.9266 115.394 30.8757C115.394 27.595 115.478 27.4494 115.194 27.457ZM33.8271 41.1013V38.84C33.8271 38.7892 33.8069 38.7404 33.7709 38.7045C33.735 38.6686 33.6863 38.6484 33.6354 38.6484H31.7574C31.7066 38.6484 31.6579 38.6686 31.6219 38.7045C31.586 38.7404 31.5658 38.7892 31.5658 38.84C31.5658 41.3772 31.5658 41.2546 31.6271 41.3312C31.6884 41.4079 31.6271 41.3925 33.6431 41.2929C33.692 41.2892 33.7377 41.2675 33.7717 41.2322C33.8056 41.1968 33.8253 41.1502 33.8271 41.1013ZM44.7731 38.1348C34.287 38.679 34.6779 38.564 34.6779 38.84C34.6779 41.1856 34.6779 41.0706 34.7316 41.1396C34.7852 41.2086 34.195 41.2009 44.7808 41.0476C44.8316 41.0476 44.8804 41.0274 44.9163 40.9915C44.9522 40.9555 44.9724 40.9068 44.9724 40.856V38.3264C44.9736 38.3003 44.9692 38.2742 44.9595 38.2499C44.9498 38.2256 44.935 38.2036 44.9161 38.1855C44.8973 38.1674 44.8748 38.1534 44.8501 38.1447C44.8254 38.136 44.7992 38.1326 44.7731 38.1348ZM60.3184 38.1271V40.3501C60.3184 40.4009 60.3385 40.4496 60.3745 40.4856C60.4104 40.5215 60.4592 40.5417 60.51 40.5417C63.1469 40.5417 63.0165 40.5417 63.1009 40.4727C63.1852 40.4037 63.1699 40.4727 62.8249 38.0965C62.8249 37.8665 62.7099 37.9355 60.5253 37.9355C60.4989 37.9334 60.4723 37.9368 60.4473 37.9454C60.4222 37.9541 60.3992 37.9679 60.3798 37.9859C60.3603 38.0039 60.3448 38.0258 60.3343 38.0501C60.3237 38.0744 60.3183 38.1006 60.3184 38.1271ZM71.6094 40.5034C71.6937 40.4037 71.6707 40.5034 71.4024 38.2498C71.4024 38.0121 71.7857 38.0965 64.266 37.9585C64.2388 37.9583 64.2118 37.9639 64.1869 37.9749C64.162 37.986 64.1398 38.0022 64.1217 38.0225C64.1035 38.0428 64.0899 38.0667 64.0818 38.0927C64.0736 38.1187 64.0711 38.1461 64.0744 38.1731C64.3656 40.5647 64.312 40.5647 64.5419 40.5647C72.0539 40.5647 71.525 40.626 71.6094 40.5034ZM73.0044 40.5417C76.2699 40.6337 76.0706 40.649 76.1549 40.5417C76.2392 40.4344 76.2162 40.5954 76.2162 38.1041C76.2142 38.0526 76.1924 38.0039 76.1552 37.9681C76.118 37.9324 76.0685 37.9125 76.0169 37.9125C72.4602 38.0505 72.6672 38.0121 72.5905 38.1041C72.5139 38.1961 72.5369 38.1041 72.8205 40.3501C72.8238 40.3985 72.844 40.4443 72.8777 40.4793C72.9113 40.5143 72.9562 40.5364 73.0044 40.5417ZM34.6396 50.338C35.0918 47.5018 35.0918 47.6551 35.0075 47.5631C34.9232 47.4711 35.0535 47.4865 32.3707 47.6321C32.3225 47.636 32.2776 47.6578 32.245 47.6934C32.2123 47.7289 32.1942 47.7755 32.1944 47.8237V50.4759C32.1944 50.5268 32.2145 50.5755 32.2505 50.6114C32.2864 50.6474 32.3352 50.6676 32.386 50.6676L34.4939 50.4989C34.5322 50.491 34.5669 50.4711 34.593 50.4422C34.6192 50.4133 34.6355 50.3768 34.6396 50.338ZM38.2269 50.1693C38.2269 47.3868 38.2269 47.5401 38.1656 47.4558C38.1043 47.3715 38.2116 47.4021 36.0883 47.4941C35.866 47.4941 35.912 47.4941 35.6131 50.1463C35.6098 50.1733 35.6123 50.2008 35.6205 50.2267C35.6287 50.2527 35.6423 50.2766 35.6604 50.297C35.6785 50.3173 35.7008 50.3335 35.7257 50.3445C35.7505 50.3555 35.7775 50.3611 35.8047 50.361H38.0353C38.0861 50.361 38.1349 50.3408 38.1708 50.3048C38.2068 50.2689 38.2269 50.2201 38.2269 50.1693ZM42.0596 47.3562C42.0596 50.131 42.0596 49.9777 42.1133 50.062C42.1669 50.1463 41.0324 50.1847 60.9316 49.0885C60.9582 49.0867 60.9842 49.0794 61.0079 49.067C61.0315 49.0545 61.0523 49.0373 61.0689 49.0164C61.0855 48.9955 61.0976 48.9713 61.1043 48.9454C61.111 48.9196 61.1122 48.8926 61.1079 48.8662L60.6173 45.7388C60.6097 45.6907 60.5841 45.6473 60.5457 45.6174C60.5072 45.5875 60.4588 45.5733 60.4103 45.5778C41.1474 47.2795 42.0596 47.0802 42.0596 47.3562ZM67.5084 48.5979C67.5084 44.9569 67.5084 45.1715 67.4471 45.0872C67.3858 45.0029 67.7154 44.9876 61.8897 45.5625C61.8376 45.5701 61.7903 45.5973 61.7575 45.6387C61.7247 45.68 61.709 45.7322 61.7134 45.7848C62.204 48.9965 62.1427 49.0119 62.3727 49.0119L67.3245 48.7896C67.3739 48.7876 67.4207 48.7665 67.455 48.7308C67.4893 48.6951 67.5085 48.6475 67.5084 48.5979ZM71.732 45.2252V48.5059C71.732 48.5568 71.7522 48.6055 71.7881 48.6415C71.8241 48.6774 71.8728 48.6976 71.9236 48.6976H76.8064C76.8573 48.6976 76.906 48.6774 76.9419 48.6415C76.9779 48.6055 76.9981 48.5568 76.9981 48.5059C76.9981 44.7499 76.9981 45.0029 76.9367 44.9186C76.8754 44.8343 77.2357 44.8419 71.916 45.0336C71.8665 45.0355 71.8197 45.0566 71.7854 45.0923C71.7511 45.1281 71.732 45.1757 71.732 45.2252ZM96.2456 35.7126C90.8799 36.0422 91.0562 35.9348 91.0562 36.1955V39.1619C91.0562 39.2128 91.0764 39.2615 91.1124 39.2974C91.1483 39.3334 91.197 39.3536 91.2479 39.3536H96.261C96.3118 39.3536 96.3605 39.3334 96.3965 39.2974C96.4324 39.2615 96.4526 39.2128 96.4526 39.1619C96.4526 35.9042 96.5369 35.6972 96.2456 35.7126ZM36.7169 60.6478C36.9545 56.8611 36.9622 57.1677 36.8855 57.0834C36.8089 56.9991 37.1155 57.0221 32.7309 57.0221C32.6801 57.0221 32.6314 57.0423 32.5954 57.0782C32.5595 57.1142 32.5393 57.1629 32.5393 57.2137V60.6401C32.5393 60.691 32.5595 60.7397 32.5954 60.7756C32.6314 60.8116 32.6801 60.8318 32.7309 60.8318H36.5253C36.5742 60.83 36.6208 60.8103 36.6562 60.7764C36.6915 60.7424 36.7131 60.6967 36.7169 60.6478ZM46.7968 56.8075C46.7473 56.8095 46.7005 56.8305 46.6662 56.8662C46.6319 56.902 46.6128 56.9496 46.6128 56.9991V59.9043C46.6128 59.9551 46.633 60.0038 46.6689 60.0398C46.7049 60.0757 46.7536 60.0959 46.8044 60.0959H49.8246C49.8754 60.0959 49.9241 60.0757 49.9601 60.0398C49.996 60.0038 50.0162 59.9551 50.0162 59.9043V56.8841C50.0142 56.8326 49.9923 56.7839 49.9552 56.7481C49.918 56.7124 49.8684 56.6925 49.8169 56.6925L46.7968 56.8075ZM64.5113 56.2172C50.4301 56.5852 51.1507 56.5469 51.1507 56.8228C51.1507 60.0806 51.1507 59.8889 51.2043 59.9732C51.258 60.0576 50.4378 60.0652 64.5266 59.728C64.5755 59.7242 64.6212 59.7026 64.6552 59.6673C64.6891 59.6319 64.7088 59.5853 64.7106 59.5363V56.4089C64.7118 56.3827 64.7074 56.3566 64.6977 56.3323C64.688 56.308 64.6732 56.2861 64.6543 56.2679C64.6354 56.2498 64.6129 56.2359 64.5883 56.2272C64.5636 56.2184 64.5374 56.215 64.5113 56.2172ZM76.7451 56.1483C76.4232 59.3064 76.4155 59.1147 76.4998 59.2144C76.5841 59.314 76.0936 59.2757 82.5861 59.2757C82.618 59.2787 82.6501 59.2737 82.6796 59.2611C82.709 59.2485 82.7348 59.2287 82.7546 59.2035C82.7745 59.1784 82.7877 59.1486 82.793 59.1171C82.7984 59.0855 82.7958 59.053 82.7854 59.0227C82.1108 55.8416 82.1798 55.8263 81.9499 55.834C76.5841 55.9566 76.7681 55.9106 76.7451 56.1483ZM84.2341 59.2374H86.4417C86.49 59.2375 86.5366 59.2195 86.5721 59.1868C86.6076 59.1541 86.6295 59.1092 86.6334 59.0611C86.9553 55.5427 86.963 55.765 86.871 55.673C86.779 55.581 87.009 55.604 83.4293 55.8186C83.4017 55.8211 83.375 55.8296 83.351 55.8434C83.3269 55.8572 83.3062 55.876 83.2902 55.8986C83.2742 55.9212 83.2632 55.947 83.2581 55.9742C83.253 56.0014 83.2539 56.0294 83.2606 56.0563C84.1038 59.3294 84.0271 59.2374 84.2341 59.2374ZM54.6997 26.1079C51.8405 28.2465 51.4419 28.4535 51.4266 28.7218C51.4266 29.1281 52.9597 30.5001 53.0133 30.5155C53.0559 30.5388 53.1049 30.5475 53.153 30.5403C53.201 30.5331 53.2453 30.5104 53.2792 30.4756C53.3131 30.4409 53.3347 30.396 53.3406 30.3478C53.3466 30.2996 53.3366 30.2508 53.3123 30.2089C53.0746 29.8946 52.4921 29.1051 52.3081 28.8444C52.6837 28.4765 54.2781 27.1274 55.0293 26.5448C55.3053 26.3302 54.9756 25.901 54.6997 26.1079ZM65.5231 25.9086C65.4759 25.8716 65.4172 25.8526 65.3573 25.8549C65.2974 25.8572 65.2403 25.8807 65.1961 25.9212C65.1519 25.9617 65.1236 26.0166 65.1161 26.0761C65.1086 26.1355 65.1224 26.1957 65.1552 26.2459C65.8417 27.1626 66.464 28.1256 67.0178 29.1281C67.0178 29.2047 65.8987 30.5691 65.4464 31.2667C65.4155 31.3119 65.4029 31.3673 65.4115 31.4215C65.4201 31.4756 65.449 31.5245 65.4924 31.558C65.5358 31.5897 65.5882 31.6068 65.6419 31.6068C65.6957 31.6068 65.748 31.5897 65.7914 31.558C66.2206 31.1057 67.4394 29.7183 67.6081 29.4577C68.068 28.7141 66.5962 27.0738 65.5231 25.9086ZM57.9268 26.4375C57.7919 26.3937 57.6491 26.3792 57.5081 26.3949C57.3671 26.4107 57.2311 26.4564 57.1092 26.529C56.9873 26.6016 56.8823 26.6993 56.8012 26.8157C56.7201 26.9322 56.6648 27.0646 56.639 27.2041C56.5771 27.7973 56.5515 28.3937 56.5624 28.9901H55.7958C55.7199 29.0019 55.6508 29.0404 55.6008 29.0988C55.5509 29.1571 55.5234 29.2314 55.5234 29.3082C55.5234 29.385 55.5509 29.4593 55.6008 29.5176C55.6508 29.5759 55.7199 29.6145 55.7958 29.6263L56.6007 29.7489C56.5954 30.1594 56.6236 30.5695 56.685 30.9754C56.754 31.3893 57.3366 31.305 57.3825 30.9217C57.4132 30.5544 57.4132 30.1852 57.3825 29.8179C57.7428 29.8179 58.0954 29.8179 58.1491 29.4653C58.2027 29.1127 57.7428 29.0591 57.3825 29.0284C57.3136 27.434 57.4745 27.1964 57.5052 27.1581C57.7122 26.9971 58.0418 27.1581 57.7352 27.641C57.6993 27.6941 57.6857 27.7591 57.6971 27.8221C57.7086 27.8851 57.7442 27.9412 57.7965 27.9783C58.1644 28.2542 58.7546 26.8285 57.9268 26.4375ZM60.4333 28.8981C60.1016 28.921 59.7686 28.921 59.4368 28.8981C59.3718 28.8981 59.3094 28.9239 59.2634 28.9699C59.2174 29.0159 59.1916 29.0783 59.1916 29.1434C59.1916 29.2084 59.2174 29.2708 59.2634 29.3168C59.3094 29.3628 59.3718 29.3887 59.4368 29.3887L60.2034 29.4883C60.625 29.5496 60.395 29.381 60.51 30.4005C60.51 30.5082 60.5528 30.6116 60.629 30.6878C60.7052 30.764 60.8085 30.8068 60.9163 30.8068C61.024 30.8068 61.1273 30.764 61.2035 30.6878C61.2797 30.6116 61.3225 30.5082 61.3225 30.4005C61.3181 30.1442 61.3002 29.8884 61.2689 29.634H61.7058C61.8074 29.634 61.9049 29.5936 61.9768 29.5217C62.0487 29.4498 62.089 29.3523 62.089 29.2507C62.089 29.1491 62.0487 29.0516 61.9768 28.9797C61.9049 28.9078 61.8074 28.8674 61.7058 28.8674C61.0696 28.8674 61.1615 28.9134 61.1462 28.7908C61.0849 28.4382 61.0236 28.0779 60.9929 27.7253C60.9929 27.6602 60.9671 27.5979 60.9211 27.5519C60.8751 27.5059 60.8127 27.48 60.7476 27.48C60.6826 27.48 60.6202 27.5059 60.5742 27.5519C60.5282 27.5979 60.5023 27.6602 60.5023 27.7253C60.464 28.2159 60.4333 28.7141 60.4333 28.8981Z" fill="black"/>
<path d="M64.3885 28.7448C64.3495 28.4267 64.3264 28.1069 64.3196 27.7866C64.3092 27.728 64.2786 27.675 64.233 27.6367C64.1875 27.5985 64.1299 27.5775 64.0704 27.5775C64.0109 27.5775 63.9534 27.5985 63.9078 27.6367C63.8622 27.675 63.8316 27.728 63.8213 27.7866C63.8213 28.1315 63.7753 28.4535 63.7447 28.7984C63.4511 28.8167 63.1567 28.8167 62.8631 28.7984C62.795 28.8096 62.733 28.8446 62.6882 28.8973C62.6435 28.9499 62.619 29.0168 62.619 29.0859C62.619 29.155 62.6435 29.2218 62.6882 29.2745C62.733 29.3271 62.795 29.3622 62.8631 29.3733C63.1468 29.3733 63.4074 29.4193 63.6987 29.4423C63.6373 30.1169 63.576 30.7991 64.0896 30.7991C64.6032 30.7991 64.5418 30.1092 64.4805 29.473C64.9021 29.473 65.454 29.473 65.4387 29.0744C65.4234 28.6758 64.8331 28.7064 64.3885 28.7448ZM48.8126 33.2443C47.8468 33.4973 47.2796 34.4554 47.1876 35.7968C47.1493 36.9083 47.4635 38.3187 46.49 38.9703C46.4225 39.0155 46.3698 39.0796 46.3384 39.1545C46.3071 39.2295 46.2985 39.3121 46.3137 39.3919C46.4517 40.0664 47.6628 39.1006 47.4175 41.9674C47.3249 42.332 47.327 42.7142 47.4236 43.0778C47.5202 43.4413 47.7081 43.7742 47.9695 44.0447C48.2111 44.2159 48.4885 44.3298 48.7807 44.3776C49.073 44.4254 49.3722 44.4059 49.6558 44.3207C49.7086 44.3072 49.7553 44.2765 49.7887 44.2334C49.8221 44.1904 49.8403 44.1375 49.8403 44.083C49.8403 44.0286 49.8221 43.9757 49.7887 43.9326C49.7553 43.8896 49.7086 43.8589 49.6558 43.8454C49.1269 43.7688 48.5137 43.8454 48.2377 43.3932C48.0037 42.7728 47.9689 42.0949 48.1381 41.4538C48.2149 41.0415 48.1901 40.6166 48.0659 40.2159C47.9417 39.8153 47.7218 39.4509 47.4252 39.1543C48.736 37.5522 47.0649 34.3711 48.9583 33.7272C49.0075 33.6972 49.0454 33.6516 49.066 33.5978C49.0866 33.5439 49.0887 33.4847 49.0721 33.4295C49.0554 33.3743 49.0209 33.3261 48.974 33.2926C48.927 33.2591 48.8703 33.2421 48.8126 33.2443ZM58.4326 33.7885C57.8577 33.1523 57.0528 33.4589 56.4396 33.3516C56.4039 33.3441 56.367 33.3436 56.3311 33.3503C56.2952 33.357 56.261 33.3707 56.2304 33.3907C56.1998 33.4106 56.1734 33.4364 56.1527 33.4665C56.1321 33.4966 56.1176 33.5305 56.11 33.5662C56.1025 33.602 56.102 33.6389 56.1087 33.6748C56.1154 33.7107 56.1291 33.7449 56.1491 33.7755C56.169 33.8061 56.1947 33.8325 56.2249 33.8531C56.255 33.8738 56.2889 33.8883 56.3246 33.8959C56.9685 34.0185 57.6891 33.8345 57.9573 34.4171C58.4633 35.5362 57.3058 38.426 58.3023 39.6525C57.4131 40.7333 58.4709 42.4427 57.6737 43.2169C57.3747 43.4815 56.9841 43.619 56.5853 43.6001C56.5259 43.5896 56.4647 43.6014 56.4134 43.6331C56.3621 43.6649 56.3243 43.7144 56.3073 43.7722C56.2902 43.8301 56.295 43.8922 56.3209 43.9467C56.3467 44.0012 56.3917 44.0443 56.4473 44.0677C56.6682 44.1393 56.9011 44.1664 57.1326 44.1477C57.364 44.129 57.5895 44.0647 57.7961 43.9586C58.0026 43.8524 58.1862 43.7066 58.3362 43.5293C58.4862 43.352 58.5997 43.1469 58.6702 42.9256C58.7727 42.4765 58.7727 42.0102 58.6702 41.5612C58.4173 39.7292 59.1991 40.2274 59.2145 39.6832C59.2298 39.1389 58.5016 39.5605 58.6319 37.9738C58.8389 35.8965 59.1071 34.5321 58.4326 33.7885Z" fill="black"/>
<path d="M50.7213 36.8547C50.4764 36.8389 50.2318 36.8905 50.0142 37.0041C49.7966 37.1176 49.6143 37.2887 49.4872 37.4986C49.3068 37.6668 49.1727 37.8785 49.0975 38.1133C49.0223 38.3482 49.0087 38.5984 49.0579 38.84C49.2264 39.2169 49.5197 39.5241 49.8884 39.7098C50.257 39.8955 50.6784 39.9484 51.0816 39.8595C50.9053 40.6261 50.6983 40.9787 49.7095 40.7794C49.6407 40.7751 49.5726 40.7953 49.5174 40.8364C49.4621 40.8775 49.4232 40.9369 49.4075 41.004C49.3919 41.0711 49.4006 41.1416 49.432 41.2029C49.4634 41.2642 49.5156 41.3124 49.5792 41.3389C50.4837 41.5536 51.3422 41.3389 51.6181 40.4804C52.4766 38.3265 51.6181 37.031 50.7213 36.8547ZM50.4377 39.1543C49.9394 38.978 49.8168 38.7711 49.7785 38.6178C49.7401 38.4645 49.8474 38.1885 50.0621 37.9355C50.2767 37.6826 50.4147 37.5063 50.6293 37.5906C51.4418 37.9355 51.3575 39.4993 50.4377 39.1773V39.1543ZM54.3546 38.7251C53.0592 38.4951 52.262 40.0282 52.8216 40.7487C53.0905 41.01 53.4508 41.1562 53.8257 41.1562C54.2007 41.1562 54.5609 41.01 54.8299 40.7487C54.8299 40.9403 54.8299 41.155 54.8759 41.27C54.8776 41.323 54.899 41.3735 54.9358 41.4117C54.9726 41.4499 55.0223 41.4732 55.0752 41.4769C55.1288 41.477 55.1803 41.4562 55.2189 41.419C55.2575 41.3819 55.2802 41.3312 55.2822 41.2776C55.2822 40.9863 55.4201 39.6679 55.3895 39.5759C55.3139 39.3514 55.1769 39.1527 54.994 39.0022C54.811 38.8518 54.5895 38.7558 54.3546 38.7251ZM54.6613 39.6526C54.6613 39.8825 54.3776 40.2505 54.2397 40.3271C53.8564 40.5341 53.4731 40.5188 53.3812 40.3808C53.2892 40.2428 53.5881 39.392 54.0557 39.392C54.232 39.392 54.6229 39.4686 54.6613 39.6526ZM99.7256 27.4647C98.6141 27.2654 97.5716 28.6835 98.0086 29.8793C98.1107 30.2244 98.331 30.5226 98.631 30.7216C98.9309 30.9206 99.2912 31.0078 99.6489 30.9678C101.765 30.7455 101.328 27.7637 99.7256 27.4647ZM99.6489 30.1936C98.6754 30.4235 98.3305 29.1894 98.8824 28.4766C98.957 28.3691 99.0551 28.28 99.1694 28.2162C99.2837 28.1525 99.411 28.1157 99.5416 28.1086C99.725 28.1416 99.8981 28.2171 100.047 28.3289C100.196 28.4406 100.317 28.5857 100.4 28.7525C100.491 29.0432 100.464 29.3583 100.323 29.6285C100.182 29.8987 99.9395 30.102 99.6489 30.1936ZM104.079 27.71C104.01 28.2619 103.566 30.3162 103.558 30.8528C103.569 30.9409 103.608 31.0231 103.671 31.0862C103.733 31.1493 103.815 31.1898 103.903 31.2012C103.991 31.2127 104.08 31.1944 104.156 31.1493C104.233 31.1043 104.292 31.035 104.325 30.9525C104.447 30.4159 104.524 28.2926 104.585 27.7637C104.647 27.4187 104.125 27.3804 104.079 27.71ZM101.749 30.6995C101.702 30.6858 101.653 30.6825 101.604 30.6898C101.556 30.6971 101.51 30.7149 101.469 30.7419C101.428 30.7689 101.394 30.8044 101.368 30.8461C101.342 30.8878 101.326 30.9345 101.32 30.9831C101.251 31.6117 100.5 31.8033 100.737 32.1329C100.77 32.1811 100.82 32.2155 100.876 32.2296C100.933 32.2437 100.992 32.2366 101.044 32.2096C101.27 32.1073 101.471 31.959 101.636 31.7742C101.801 31.5894 101.926 31.3722 102.002 31.1364C102.015 31.0911 102.018 31.0437 102.012 30.9971C102.007 30.9504 101.991 30.9054 101.968 30.8646C101.944 30.8239 101.913 30.7883 101.875 30.76C101.838 30.7316 101.795 30.711 101.749 30.6995ZM96.3835 30.1399C96.3835 29.9692 96.3157 29.8054 96.1949 29.6846C96.0742 29.5639 95.9104 29.496 95.7396 29.496C95.5689 29.496 95.4051 29.5639 95.2843 29.6846C95.1636 29.8054 95.0957 29.9692 95.0957 30.1399C95.0957 30.3107 95.1636 30.4745 95.2843 30.5952C95.4051 30.716 95.5689 30.7838 95.7396 30.7838C95.9104 30.7838 96.0742 30.716 96.1949 30.5952C96.3157 30.4745 96.3835 30.3107 96.3835 30.1399ZM77.7952 40.0052C77.7952 40.1759 77.863 40.3397 77.9837 40.4605C78.1045 40.5812 78.2683 40.6491 78.439 40.6491C78.6098 40.6491 78.7736 40.5812 78.8943 40.4605C79.0151 40.3397 79.0829 40.1759 79.0829 40.0052C79.0829 39.8344 79.0151 39.6706 78.8943 39.5499C78.7736 39.4291 78.6098 39.3613 78.439 39.3613C78.2683 39.3613 78.1045 39.4291 77.9837 39.5499C77.863 39.6706 77.7952 39.8344 77.7952 40.0052ZM39.093 59.7893C39.1029 59.6994 39.0937 59.6084 39.066 59.5223C39.0383 59.4361 38.9928 59.3568 38.9324 59.2894C38.872 59.222 38.7981 59.1681 38.7155 59.1313C38.6329 59.0944 38.5434 59.0753 38.453 59.0753C38.3625 59.0753 38.273 59.0944 38.1904 59.1313C38.1078 59.1681 38.0339 59.222 37.9735 59.2894C37.9131 59.3568 37.8676 59.4361 37.8399 59.5223C37.8123 59.6084 37.8031 59.6994 37.8129 59.7893C37.8031 59.8793 37.8123 59.9703 37.8399 60.0564C37.8676 60.1426 37.9131 60.2219 37.9735 60.2893C38.0339 60.3566 38.1078 60.4105 38.1904 60.4474C38.273 60.4843 38.3625 60.5034 38.453 60.5034C38.5434 60.5034 38.6329 60.4843 38.7155 60.4474C38.7981 60.4105 38.872 60.3566 38.9324 60.2893C38.9928 60.2219 39.0383 60.1426 39.066 60.0564C39.0937 59.9703 39.1029 59.8793 39.093 59.7893ZM43.6156 59.2451C43.6156 59.4159 43.6834 59.5796 43.8041 59.7004C43.9249 59.8211 44.0887 59.889 44.2594 59.889C44.4302 59.889 44.594 59.8211 44.7147 59.7004C44.8355 59.5796 44.9033 59.4159 44.9033 59.2451C44.9033 59.0743 44.8355 58.9106 44.7147 58.7898C44.594 58.669 44.4302 58.6012 44.2594 58.6012C44.0887 58.6012 43.9249 58.669 43.8041 58.7898C43.6834 58.9106 43.6156 59.0743 43.6156 59.2451ZM73.4719 57.7427C73.3123 57.7601 73.1647 57.8358 73.0575 57.9554C72.9502 58.0749 72.8909 58.2298 72.8909 58.3904C72.8909 58.551 72.9502 58.7059 73.0575 58.8255C73.1647 58.945 73.3123 59.0207 73.4719 59.0381C73.6316 59.0207 73.7792 58.945 73.8864 58.8255C73.9936 58.7059 74.0529 58.551 74.0529 58.3904C74.0529 58.2298 73.9936 58.0749 73.8864 57.9554C73.7792 57.8358 73.6316 57.7601 73.4719 57.7427ZM80.9609 40.3731C81.0461 40.3752 81.1307 40.36 81.2098 40.3284C81.2889 40.2968 81.3607 40.2494 81.4209 40.1892C81.4811 40.129 81.5285 40.0572 81.5601 39.9781C81.5917 39.899 81.6069 39.8144 81.6048 39.7292C81.5874 39.5696 81.5117 39.422 81.3921 39.3148C81.2726 39.2075 81.1177 39.1482 80.9571 39.1482C80.7965 39.1482 80.6416 39.2075 80.522 39.3148C80.4025 39.422 80.3268 39.5696 80.3094 39.7292C80.3072 39.815 80.3227 39.9004 80.3547 39.98C80.3868 40.0596 80.4349 40.1317 80.4959 40.1921C80.557 40.2524 80.6297 40.2996 80.7097 40.3307C80.7897 40.3619 80.8752 40.3763 80.9609 40.3731ZM39.6449 23.1108C39.783 23.0947 39.9104 23.0284 40.0028 22.9245C40.0953 22.8207 40.1463 22.6865 40.1463 22.5474C40.1463 22.4084 40.0953 22.2742 40.0028 22.1703C39.9104 22.0665 39.783 22.0002 39.6449 21.984C39.5068 22.0002 39.3795 22.0665 39.287 22.1703C39.1946 22.2742 39.1435 22.4084 39.1435 22.5474C39.1435 22.6865 39.1946 22.8207 39.287 22.9245C39.3795 23.0284 39.5068 23.0947 39.6449 23.1108ZM42.4734 23.1108C42.6115 23.0947 42.7389 23.0284 42.8313 22.9245C42.9238 22.8207 42.9748 22.6865 42.9748 22.5474C42.9748 22.4084 42.9238 22.2742 42.8313 22.1703C42.7389 22.0665 42.6115 22.0002 42.4734 21.984C42.3353 22.0002 42.208 22.0665 42.1155 22.1703C42.0231 22.2742 41.972 22.4084 41.972 22.5474C41.972 22.6865 42.0231 22.8207 42.1155 22.9245C42.208 23.0284 42.3353 23.0947 42.4734 23.1108ZM45.5319 23.1032C45.67 23.087 45.7973 23.0207 45.8898 22.9169C45.9822 22.813 46.0333 22.6788 46.0333 22.5398C46.0333 22.4007 45.9822 22.2665 45.8898 22.1627C45.7973 22.0588 45.67 21.9925 45.5319 21.9764C45.3938 21.9925 45.2664 22.0588 45.174 22.1627C45.0815 22.2665 45.0305 22.4007 45.0305 22.5398C45.0305 22.6788 45.0815 22.813 45.174 22.9169C45.2664 23.0207 45.3938 23.087 45.5319 23.1032ZM42.7187 54.6153C42.7387 54.5746 42.7478 54.5295 42.7451 54.4843C42.7424 54.4391 42.7279 54.3954 42.7032 54.3575C42.6784 54.3196 42.6442 54.2888 42.6039 54.2681C42.5636 54.2475 42.5187 54.2377 42.4734 54.2397C42.2741 54.2397 42.2358 54.4466 42.0825 54.7456C41.017 56.8612 39.5836 59.728 39.4763 60.1113C39.4477 60.1924 39.4513 60.2814 39.4861 60.36C39.521 60.4386 39.5846 60.5009 39.6639 60.5342C39.7432 60.5675 39.8322 60.5692 39.9128 60.5391C39.9933 60.5089 40.0593 60.4491 40.0972 60.3719C40.3655 59.9503 42.4504 55.1288 42.7187 54.6153ZM44.888 53.91C44.8652 53.8702 44.8322 53.8371 44.7925 53.8141C44.7528 53.7911 44.7078 53.779 44.6619 53.779C44.616 53.779 44.5709 53.7911 44.5312 53.8141C44.4915 53.8371 44.4586 53.8702 44.4357 53.91C43.171 56.5392 41.2393 60.2876 41.1627 60.5789C41.1514 60.6329 41.1521 60.6888 41.1649 60.7425C41.1777 60.7962 41.2022 60.8464 41.2366 60.8896C41.271 60.9328 41.3144 60.9679 41.3639 60.9923C41.4134 61.0168 41.4677 61.03 41.5229 61.0311C41.8219 61.0311 41.9215 60.9315 44.5277 55.0062C44.8957 54.2013 45.003 54.0863 44.888 53.91ZM68.0755 60.3336C67.3276 59.2484 66.9014 57.9741 66.8458 56.6574C66.7902 55.3406 67.1075 54.0349 67.7613 52.8906C67.7979 52.8357 67.8111 52.7685 67.7982 52.7038C67.7853 52.6391 67.7472 52.5822 67.6923 52.5456C67.6374 52.509 67.5702 52.4957 67.5055 52.5087C67.4408 52.5216 67.3839 52.5597 67.3473 52.6146C66.4595 53.7757 66.0104 55.213 66.0791 56.6729C66.1478 58.1329 66.73 59.5217 67.7229 60.5942C67.7625 60.6229 67.8101 60.6382 67.859 60.638C67.9079 60.6378 67.9554 60.622 67.9947 60.593C68.034 60.5639 68.063 60.5231 68.0775 60.4765C68.0921 60.4299 68.0914 60.3798 68.0755 60.3336Z" fill="black"/>
<path d="M74.4453 52.078C73.9088 52.2849 75.0432 52.9211 74.8669 56.5775C74.7136 59.6436 73.5715 60.6171 73.7555 60.9237C73.7752 60.9522 73.8016 60.9754 73.8323 60.9915C73.863 61.0076 73.8971 61.0159 73.9318 61.0159C73.9664 61.0159 74.0005 61.0076 74.0312 60.9915C74.0619 60.9754 74.0883 60.9522 74.1081 60.9237C74.9257 59.6372 75.4142 58.1692 75.5305 56.6493C75.6468 55.1294 75.3873 53.6042 74.7749 52.2083C74.748 52.1477 74.6984 52.1001 74.6368 52.0757C74.5751 52.0514 74.5064 52.0522 74.4453 52.078ZM68.2824 56.4319C67.0406 57.321 68.0908 58.7314 69.3556 58.3788V60.4561C69.3556 60.7704 69.0336 60.9314 68.842 60.6631C68.8052 60.6135 68.7509 60.5796 68.6902 60.5682C68.6294 60.5568 68.5666 60.5688 68.5143 60.6017C68.462 60.6347 68.4241 60.6861 68.4081 60.7458C68.3921 60.8055 68.3992 60.869 68.4281 60.9237C68.5195 61.0739 68.6565 61.1911 68.819 61.2582C68.9816 61.3254 69.1613 61.339 69.3321 61.2972C69.5029 61.2553 69.656 61.1601 69.7691 61.0255C69.8822 60.8908 69.9494 60.7236 69.9611 60.5481C69.9611 60.3028 70.1987 56.9454 69.8845 56.5392C69.787 56.4259 69.6679 56.3332 69.5343 56.2664C69.4006 56.1997 69.255 56.1601 69.1059 56.1501C68.9568 56.1401 68.8072 56.1599 68.6659 56.2083C68.5245 56.2566 68.3942 56.3326 68.2824 56.4319ZM69.1793 56.9148C69.2623 56.9998 69.3143 57.1104 69.3268 57.2286C69.3393 57.3468 69.3116 57.4658 69.2482 57.5663C69.0796 57.7503 68.4817 57.689 68.3974 57.3823C68.3131 57.0757 68.9033 56.7231 69.1793 56.9148ZM71.5095 56.3015C71.2458 56.3542 71.0065 56.4916 70.828 56.6928C70.6495 56.894 70.5417 57.148 70.5208 57.4162C70.5 57.6843 70.5673 57.9519 70.7126 58.1783C70.8579 58.4046 71.0731 58.5773 71.3256 58.6701C71.5343 58.7483 71.7628 58.7569 71.9768 58.6948C72.1909 58.6326 72.3792 58.503 72.5137 58.3252C72.5411 58.277 72.5519 58.2212 72.5445 58.1663C72.5371 58.1114 72.5118 58.0604 72.4727 58.0213C72.4335 57.9821 72.3825 57.9568 72.3276 57.9494C72.2727 57.942 72.2169 57.9529 72.1687 57.9802C71.9618 58.1029 71.2336 58.1029 71.1799 57.505C71.1674 57.3864 71.1916 57.2669 71.2492 57.1625C71.3068 57.0581 71.395 56.9739 71.502 56.9212C71.609 56.8686 71.7295 56.85 71.8474 56.868C71.9652 56.8861 72.0747 56.9398 72.1611 57.0221C72.2149 57.0729 72.2868 57.1002 72.3608 57.0981C72.4349 57.0959 72.505 57.0645 72.5558 57.0106C72.6067 56.9567 72.634 56.8848 72.6318 56.8108C72.6297 56.7368 72.5982 56.6666 72.5443 56.6158C72.4097 56.4842 72.2454 56.387 72.0653 56.3323C71.8852 56.2776 71.6946 56.267 71.5095 56.3015ZM34.992 23.3024C35.0678 23.3271 35.1495 23.3271 35.2253 23.3023C35.3011 23.2775 35.3671 23.2292 35.4136 23.1644C35.5899 22.9268 36.0958 20.7499 36.2491 20.2286C36.2694 20.1625 36.2627 20.0911 36.2303 20.03C36.198 19.9689 36.1427 19.9232 36.0766 19.9028C36.0106 19.8825 35.9391 19.8893 35.878 19.9216C35.8169 19.9539 35.7712 20.0092 35.7509 20.0753C35.015 22.2293 34.4094 23.1184 34.992 23.3024ZM57.574 93.9305C56.9454 94.642 56.2748 95.3152 55.5657 95.9465C55.5265 95.985 55.4954 96.031 55.4742 96.0816C55.4529 96.1323 55.442 96.1867 55.442 96.2416C55.442 96.2965 55.4529 96.3509 55.4742 96.4016C55.4954 96.4523 55.5265 96.4982 55.5657 96.5367C56.1559 97.0656 56.7768 97.5485 57.344 98.0698C57.3857 98.1021 57.4369 98.1197 57.4897 98.1197C57.5424 98.1197 57.5936 98.1021 57.6353 98.0698C57.6683 98.0299 57.6864 97.9798 57.6864 97.928C57.6864 97.8762 57.6683 97.826 57.6353 97.7862C57.2291 97.2573 56.8228 96.736 56.3935 96.2531C56.9848 95.639 57.5281 94.9804 58.0186 94.2831C58.2562 93.9842 57.7886 93.6546 57.574 93.9305ZM83.5517 96.759C83.6437 96.759 83.5517 96.759 84.5405 96.1075C86.3725 94.8197 86.5565 94.7354 86.5028 94.3674C86.4339 93.8309 85.7363 93.7466 83.8583 92.8344C83.7872 92.7947 83.7032 92.785 83.6248 92.8073C83.5465 92.8296 83.4802 92.882 83.4406 92.9532C83.4009 93.0244 83.3912 93.1083 83.4134 93.1867C83.4357 93.265 83.4882 93.3313 83.5594 93.371C83.912 93.5703 85.0234 94.2678 85.4527 94.5284C84.3412 95.5709 83.3984 96.4371 83.3984 96.4371C83.3783 96.4669 83.3662 96.5015 83.3636 96.5374C83.3609 96.5733 83.3676 96.6093 83.3831 96.6418C83.3986 96.6744 83.4223 96.7023 83.4518 96.7228C83.4814 96.7434 83.5158 96.7559 83.5517 96.759ZM78.0174 95.4482C79.0445 95.4482 80.018 95.2796 81.0068 95.2336C81.078 95.2336 81.1462 95.2054 81.1965 95.155C81.2468 95.1047 81.2751 95.0365 81.2751 94.9653C81.2751 94.8942 81.2468 94.8259 81.1965 94.7756C81.1462 94.7253 81.078 94.6971 81.0068 94.6971C80.0027 94.6971 79.0445 94.5361 78.0174 94.6051C77.9055 94.6051 77.7983 94.6495 77.7192 94.7286C77.6402 94.8076 77.5958 94.9148 77.5958 95.0267C77.5958 95.1385 77.6402 95.2457 77.7192 95.3248C77.7983 95.4038 77.9055 95.4482 78.0174 95.4482ZM72.322 95.6629C72.8126 95.6629 74.9282 95.4406 75.1582 95.4253C75.2273 95.4253 75.2936 95.3978 75.3425 95.3489C75.3914 95.3 75.4188 95.2338 75.4188 95.1646C75.4188 95.0955 75.3914 95.0292 75.3425 94.9804C75.2936 94.9315 75.2273 94.904 75.1582 94.904C74.9282 94.904 72.8126 94.766 72.322 94.8274C72.221 94.8411 72.1283 94.891 72.0612 94.9678C71.9941 95.0446 71.9572 95.1431 71.9572 95.2451C71.9572 95.3471 71.9941 95.4456 72.0612 95.5225C72.1283 95.5993 72.221 95.6492 72.322 95.6629ZM65.3773 95.1723C65.3239 95.1733 65.2713 95.1848 65.2224 95.2061C65.1735 95.2275 65.1292 95.2583 65.0922 95.2967C65.0552 95.3351 65.0261 95.3805 65.0066 95.4302C64.9872 95.4798 64.9777 95.5329 64.9787 95.5862C64.9787 96.0385 65.4463 96.0155 65.7452 96.0155C66.6253 95.9752 67.5028 95.8908 68.3744 95.7625C68.4426 95.7514 68.5046 95.7163 68.5493 95.6637C68.594 95.611 68.6186 95.5442 68.6186 95.4751C68.6186 95.406 68.594 95.3392 68.5493 95.2865C68.5046 95.2338 68.4426 95.1988 68.3744 95.1876C67.8608 95.226 65.8679 95.157 65.3773 95.1723ZM62.2882 95.5939C61.7209 95.5939 59.5593 95.4942 59.0074 95.5939C58.9058 95.5939 58.8083 95.6343 58.7364 95.7061C58.6645 95.778 58.6241 95.8755 58.6241 95.9772C58.6241 96.0788 58.6645 96.1763 58.7364 96.2482C58.8083 96.32 58.9058 96.3604 59.0074 96.3604C59.5823 96.4371 61.7286 96.2225 62.2882 96.1995C62.3685 96.1995 62.4455 96.1676 62.5023 96.1108C62.559 96.054 62.5909 95.977 62.5909 95.8967C62.5909 95.8164 62.559 95.7394 62.5023 95.6826C62.4455 95.6258 62.3685 95.5939 62.2882 95.5939ZM32.6388 11.7278C32.461 11.5061 32.2299 11.3332 31.9671 11.2252C31.7043 11.1172 31.4184 11.0777 31.1362 11.1104C30.8539 11.143 30.5846 11.2468 30.3534 11.4119C30.1222 11.5771 29.9367 11.7982 29.8142 12.0546C29.6918 12.311 29.6365 12.5942 29.6534 12.8778C29.6703 13.1615 29.7589 13.4361 29.9109 13.6762C30.0629 13.9162 30.2734 14.1137 30.5226 14.2502C30.7718 14.3867 31.0515 14.4577 31.3356 14.4566C31.6541 14.4616 31.9672 14.3751 32.2379 14.2073C32.5085 14.0395 32.7254 13.7976 32.8626 13.5102C32.9998 13.2229 33.0517 12.9022 33.012 12.5862C32.9723 12.2702 32.8428 11.9723 32.6388 11.7278ZM32.2172 13.2608C32.1205 13.4411 31.97 13.5866 31.7867 13.6771C31.6033 13.7676 31.3962 13.7986 31.1944 13.7657C30.9926 13.7327 30.8061 13.6375 30.661 13.4934C30.5159 13.3493 30.4195 13.1635 30.3851 12.9619C30.3484 12.8173 30.3445 12.6663 30.3739 12.52C30.4032 12.3737 30.4651 12.2359 30.5548 12.1167C30.6446 11.9975 30.76 11.9 30.8925 11.8313C31.025 11.7627 31.1712 11.7247 31.3203 11.7201C31.4942 11.7348 31.6618 11.7916 31.8088 11.8857C31.9557 11.9798 32.0775 12.1083 32.1636 12.26C32.2496 12.4118 32.2974 12.5823 32.3027 12.7567C32.3081 12.931 32.2708 13.1041 32.1942 13.2608H32.2172ZM39.8595 11.9194C39.6385 11.6306 39.3291 11.4222 38.9784 11.326C38.6277 11.2298 38.2552 11.2512 37.9179 11.3868C37.5805 11.5225 37.2969 11.7649 37.1104 12.0771C36.9239 12.3892 36.8449 12.7539 36.8853 13.1152C36.9196 13.4772 37.0683 13.8189 37.3101 14.0906C37.5518 14.3623 37.8739 14.5498 38.2295 14.6259C38.5851 14.702 38.9557 14.6626 39.2874 14.5137C39.6192 14.3647 39.8947 14.1138 40.0741 13.7974C40.2083 13.4935 40.2592 13.1594 40.2215 12.8293C40.1838 12.4992 40.0588 12.1852 39.8595 11.9194ZM38.0198 12.0804C38.2113 11.9544 38.4414 11.9007 38.6689 11.9288C38.8964 11.9569 39.1064 12.0649 39.2616 12.2337C39.4044 12.4019 39.4962 12.6075 39.5261 12.8261C39.5559 13.0448 39.5227 13.2674 39.4302 13.4678C39.3323 13.64 39.185 13.7788 39.0074 13.8662C38.8297 13.9537 38.6298 13.9858 38.4337 13.9584C38.2304 13.924 38.0418 13.83 37.8919 13.6884C37.742 13.5468 37.6375 13.3639 37.5915 13.1628C37.5456 12.9618 37.5603 12.7516 37.6338 12.559C37.7073 12.3663 37.8363 12.1997 38.0045 12.0804H38.0198ZM47.0572 12.1187C46.8797 11.8973 46.6489 11.7245 46.3864 11.6165C46.124 11.5085 45.8385 11.4688 45.5565 11.5011C45.2746 11.5334 45.0054 11.6366 44.7742 11.8012C44.5429 11.9657 44.3572 12.1862 44.2343 12.442C44.1115 12.6978 44.0554 12.9806 44.0715 13.264C44.0876 13.5473 44.1752 13.822 44.3263 14.0622C44.4773 14.3025 44.6868 14.5006 44.9352 14.6379C45.1835 14.7752 45.4626 14.8474 45.7464 14.8476C46.0655 14.854 46.3797 14.7686 46.6515 14.6014C46.9233 14.4342 47.1413 14.1924 47.2795 13.9047C47.4177 13.6171 47.4702 13.2957 47.4308 12.9791C47.3914 12.6624 47.2617 12.3637 47.0572 12.1187ZM46.6279 13.6518C46.537 13.7977 46.4101 13.9178 46.2594 14.0006C46.1086 14.0834 45.9392 14.1262 45.7672 14.1247C45.5953 14.1232 45.4266 14.0777 45.2773 13.9923C45.1281 13.9069 45.0032 13.7847 44.9147 13.6372C44.8263 13.4898 44.7771 13.3221 44.7721 13.1502C44.767 12.9783 44.8061 12.808 44.8858 12.6556C44.9654 12.5032 45.0828 12.3738 45.2268 12.2798C45.3708 12.1858 45.5365 12.1303 45.7081 12.1187C45.8857 12.1249 46.0589 12.1754 46.2119 12.2657C46.365 12.3559 46.4931 12.483 46.5845 12.6354C46.6759 12.7877 46.7278 12.9605 46.7354 13.138C46.7429 13.3156 46.706 13.4922 46.6279 13.6518Z" fill="black"/>
<path d="M112.427 24.8891C112.646 24.4426 112.746 23.9475 112.72 23.4511C112.693 22.9547 112.539 22.4733 112.274 22.053C111.653 21.1331 110.404 21.1638 109.399 21.1868C106.295 21.2634 33.4209 19.0328 33.3442 19.0252C32.8998 18.9179 32.4312 18.9837 32.0334 19.2091C30.8147 20.0983 30.853 23.2641 32.2251 24.0613C32.6307 24.2441 33.0807 24.3054 33.5205 24.2376L110.051 26.2842C110.535 26.2826 111.01 26.1527 111.427 25.9076C111.845 25.6625 112.19 25.3111 112.427 24.8891ZM37.6751 19.9987C37.2579 20.9713 36.9121 21.973 36.6403 22.9958C36.6382 23.0414 36.6454 23.0869 36.6614 23.1296C36.6774 23.1723 36.702 23.2113 36.7335 23.2443C36.765 23.2772 36.8029 23.3034 36.8448 23.3213C36.8868 23.3393 36.9319 23.3485 36.9776 23.3484C37.3225 23.3484 37.3838 23.0341 37.9051 21.1485C38.1887 20.0907 38.2653 20.06 38.1274 19.9143C49.1117 20.2593 110.013 21.9533 110.135 21.961C111.078 21.961 111.592 22.2523 111.799 22.7965C111.955 23.1636 111.998 23.5689 111.923 23.9607C111.848 24.3525 111.658 24.7131 111.377 24.9964C111.038 25.2339 110.656 25.4022 110.252 25.4916C109.849 25.5811 109.431 25.5899 109.024 25.5177C104.555 25.3644 32.8076 23.5324 32.731 23.517C31.7268 23.2718 31.6425 20.9032 32.2557 19.9757C32.478 19.6461 32.8153 19.6614 33.3442 19.7304C38.3267 19.9757 37.7441 19.7994 37.6751 19.9987ZM62.9093 65.5689C62.9093 64.8024 63.5532 65.1397 35.3142 65.8985C35.1521 65.887 34.9897 65.9144 34.8403 65.9784C34.691 66.0424 34.5591 66.1412 34.4557 66.2665C34.1644 66.7034 34.6703 90.1899 34.6856 90.4122C34.6896 90.5091 34.7309 90.6007 34.8009 90.6679C34.8709 90.7351 34.9642 90.7725 35.0612 90.7724C35.0612 90.7724 38.0737 90.6651 40.7106 90.5885C63.8521 89.9216 63.5532 89.592 63.5302 89.2777C63.4689 88.6875 62.917 65.9752 62.9093 65.5689ZM35.0919 66.7954C35.0919 66.7417 35.2375 66.6957 35.3142 66.688C36.3337 66.688 61.2383 65.9215 62.1428 65.9215C62.2117 68.2211 62.8556 87.783 62.9093 88.9711C58.9693 89.2241 38.3113 89.9523 35.4445 90.0136C34.9922 83.751 35.0459 67.2553 35.0919 66.7954Z" fill="black"/>
<path d="M36.4026 88.0283C37.0005 87.5913 48.2302 78.1477 48.6058 77.8411C51.5722 80.2097 59.9121 86.8708 61.6904 88.3119C61.9664 88.5342 62.319 88.1356 62.0507 87.9056C58.8773 85.2688 50.8134 78.7073 49.1807 77.3582C49.9472 76.7603 59.5825 68.6964 60.8089 67.7075C61.0696 67.4853 60.7323 67.102 60.464 67.309C57.2982 69.8538 49.8246 75.8864 48.5828 76.8906C46.2065 75.0126 38.5336 69.1026 36.6862 67.7689C36.6349 67.7391 36.5746 67.7288 36.5164 67.7401C36.4582 67.7513 36.406 67.7833 36.3695 67.8301C36.333 67.8768 36.3147 67.9352 36.318 67.9944C36.3213 68.0536 36.3459 68.1097 36.3873 68.1521C39.0165 70.2984 47.8086 77.2125 48.0079 77.3505C45.4937 79.4431 36.8319 86.7328 36.0193 87.553C35.9563 87.6038 35.9161 87.6776 35.9074 87.7581C35.8988 87.8386 35.9225 87.9193 35.9733 87.9823C36.0242 88.0453 36.0979 88.0856 36.1784 88.0942C36.2589 88.1028 36.3396 88.0791 36.4026 88.0283ZM91.3322 85.3378C88.795 83.2528 83.5212 78.6689 82.5171 77.7951C84.763 75.8174 91.7154 69.3633 93.1105 68.0908C93.1624 68.042 93.1927 67.9746 93.1949 67.9035C93.197 67.8323 93.1708 67.7632 93.122 67.7114C93.0732 67.6595 93.0059 67.6292 92.9347 67.627C92.8635 67.6249 92.7944 67.6511 92.7426 67.6999C91.7078 68.658 82.2718 77.0286 81.9652 77.3045C80.7234 76.2237 70.9501 67.5849 70.5669 67.263C70.5189 67.2258 70.4589 67.2077 70.3984 67.2122C70.3379 67.2167 70.2813 67.2435 70.2393 67.2873C70.1974 67.3311 70.1732 67.3889 70.1714 67.4496C70.1696 67.5102 70.1903 67.5693 70.2296 67.6156C70.8658 68.2671 79.6732 76.3693 81.352 77.8487C80.4551 78.6153 71.571 86.4722 70.6205 87.3154C70.5851 87.3434 70.5597 87.3822 70.5484 87.4259C70.537 87.4696 70.5403 87.5158 70.5576 87.5575C70.575 87.5992 70.6055 87.6341 70.6446 87.6568C70.6836 87.6795 70.729 87.6888 70.7738 87.6833C71.1341 87.6833 81.1757 78.9449 81.8809 78.3317C83.5596 79.7497 89.4618 84.5559 90.9489 85.744C91.2555 85.9586 91.6081 85.5677 91.3322 85.3378ZM15.7446 122.798C15.7446 122.798 36.6172 121.602 36.9928 121.572C37.0527 121.567 37.1107 121.549 37.1621 121.518C37.2136 121.487 37.2571 121.445 37.2892 121.394C37.3212 121.344 37.341 121.286 37.3467 121.226C37.3525 121.167 37.3442 121.106 37.3224 121.05C37.3608 115.991 37.8897 106.486 37.5677 105.996C37.4634 105.868 37.3261 105.771 37.1708 105.716C37.0154 105.66 36.8478 105.648 36.6862 105.681L15.8596 106.709C15.7619 106.713 15.6694 106.754 15.601 106.823C15.5327 106.893 15.4935 106.987 15.4916 107.084C15.3613 110.097 15.093 122.2 15.162 122.415C15.1976 122.538 15.2758 122.644 15.3826 122.714C15.4894 122.784 15.6178 122.814 15.7446 122.798ZM36.9238 106.609C36.9238 107.238 36.8855 109.928 36.6326 120.82C34.5246 120.905 16.3655 121.986 15.9362 122.009C15.9362 120.391 16.1969 109.269 16.2658 107.444L36.7322 106.417C36.7824 106.419 36.8301 106.44 36.8656 106.476C36.9011 106.511 36.9219 106.559 36.9238 106.609ZM44.0066 120.682C44.1062 121.043 44.4512 121.058 44.8114 121.027C67.1328 119.295 65.983 119.901 66.1363 119.617C66.1976 119.494 66.0827 120.123 66.3509 112.105C66.3509 111.116 66.6499 104.616 66.4046 104.24C66.3014 104.111 66.1643 104.013 66.0085 103.958C65.8528 103.902 65.6847 103.891 65.5231 103.926C65.4158 103.926 45.7619 104.892 44.7041 104.953C44.6051 104.955 44.5107 104.995 44.4407 105.065C44.3707 105.135 44.3305 105.23 44.3285 105.329C44.2059 108.157 43.9299 120.422 44.0066 120.682ZM44.7731 120.253C44.7731 118.59 45.0414 107.444 45.1027 105.689L65.6764 104.662C65.8527 104.662 65.8527 103.535 65.4924 119.05C63.3615 119.142 45.2254 120.223 44.7501 120.253H44.7731ZM70.6282 118.812C70.7355 119.165 71.0728 119.18 71.4407 119.149C93.7621 117.409 92.6123 118.023 92.7656 117.739C92.8269 117.624 92.7119 118.207 92.9802 110.235C92.9802 109.223 93.2792 102.753 93.0339 102.362C92.9307 102.233 92.7935 102.135 92.6378 102.08C92.4821 102.024 92.314 102.013 92.1524 102.048L71.3334 103.075C71.2344 103.077 71.14 103.117 71.07 103.187C71 103.257 70.9598 103.352 70.9578 103.451C70.8275 106.425 70.5592 118.529 70.6282 118.812ZM71.709 103.826L92.2827 102.799C92.459 102.799 92.4513 101.688 92.0987 117.187C89.9908 117.264 71.824 118.345 71.4024 118.375C71.3794 118.268 71.64 105.674 71.709 103.796V103.826Z" fill="black"/>
<path d="M35.8276 106.977C33.5281 108.763 27.5261 113.033 26.6753 113.653C25.9777 113.232 18.1208 108.525 17.2699 107.996C17.215 107.961 17.1483 107.949 17.0843 107.962C17.0203 107.976 16.9644 108.014 16.9288 108.069C16.8933 108.124 16.8809 108.191 16.8946 108.255C16.9083 108.319 16.9468 108.375 17.0017 108.41C18.1438 109.177 24.5443 113.239 25.9931 114.144C25.5331 114.474 17.6609 120.138 17.1933 120.522C17.153 120.554 17.1238 120.598 17.11 120.647C17.0961 120.697 17.0982 120.75 17.1161 120.798C17.1339 120.846 17.1665 120.888 17.2092 120.917C17.252 120.946 17.3027 120.96 17.3543 120.958C17.6149 120.958 26.5526 114.757 26.7596 114.604C28.5609 115.654 35.0228 119.249 35.7357 119.625C35.7814 119.654 35.8364 119.665 35.89 119.657C35.9437 119.648 35.9924 119.621 36.0269 119.579C36.0495 119.526 36.0542 119.468 36.0404 119.412C36.0265 119.357 35.9949 119.308 35.9503 119.272C33.0988 117.586 30.2166 115.838 27.4265 114.144C29.0898 112.91 36.1343 107.414 36.1343 107.414C36.1922 107.373 36.2316 107.311 36.2438 107.241C36.2561 107.172 36.2401 107.1 36.1994 107.042C36.1588 106.984 36.0967 106.945 36.027 106.932C35.9573 106.92 35.8856 106.936 35.8276 106.977ZM65.0555 105.015C64.4576 105.436 55.2515 111.829 54.554 112.327C52.8906 111.185 47.4789 107.414 46.2601 106.471C45.9995 106.272 45.6852 106.678 45.9382 106.877C48.0002 108.502 52.722 112.005 53.8641 112.826C52.1547 114.098 46.4058 118.069 45.3096 119.157C45.2823 119.183 45.2634 119.217 45.2553 119.254C45.2473 119.292 45.2504 119.33 45.2644 119.366C45.2784 119.401 45.3025 119.431 45.3337 119.453C45.365 119.474 45.402 119.486 45.4399 119.487C45.5473 119.487 46.1068 119.172 54.508 113.27C56.386 114.512 62.4569 118.13 63.8213 118.858C63.8634 118.876 63.9105 118.878 63.954 118.864C63.9975 118.85 64.0346 118.821 64.0587 118.782C64.0827 118.744 64.0921 118.697 64.0851 118.652C64.0782 118.607 64.0553 118.566 64.0206 118.536C62.8862 117.77 55.7651 113.17 55.2055 112.772C56.5853 111.798 64.7718 105.789 65.3237 105.39C65.3736 105.355 65.4072 105.301 65.4173 105.24C65.4273 105.18 65.413 105.118 65.3774 105.068C65.3418 105.018 65.2879 104.985 65.2275 104.975C65.1672 104.965 65.1053 104.979 65.0555 105.015ZM82.2717 110.12C84.1727 111.392 89.937 115.416 91.1788 116.367C91.2045 116.389 91.2342 116.405 91.2662 116.415C91.2982 116.425 91.3318 116.429 91.3653 116.426C91.3988 116.423 91.4313 116.414 91.4611 116.399C91.491 116.383 91.5174 116.362 91.5391 116.336C91.5607 116.311 91.5771 116.281 91.5873 116.249C91.5975 116.217 91.6012 116.183 91.5984 116.15C91.5955 116.116 91.5861 116.084 91.5707 116.054C91.5553 116.024 91.5341 115.998 91.5084 115.976C90.5196 115.209 84.4257 110.656 82.9923 109.644C83.7588 109.146 90.8186 104.279 91.6617 103.719C91.6909 103.701 91.7163 103.677 91.7363 103.649C91.7563 103.622 91.7707 103.59 91.7785 103.556C91.7863 103.523 91.7875 103.488 91.7819 103.454C91.7764 103.421 91.7642 103.388 91.7461 103.359C91.7279 103.33 91.7042 103.304 91.6763 103.284C91.6484 103.264 91.6168 103.25 91.5834 103.242C91.5499 103.234 91.5153 103.233 91.4814 103.239C91.4474 103.244 91.415 103.256 91.3858 103.275C90.6959 103.727 82.6473 108.824 82.1874 109.123C80.6007 108.127 75.2886 105.015 73.8629 104.355C73.808 104.329 73.7449 104.326 73.6874 104.346C73.6299 104.366 73.5828 104.408 73.5563 104.463C73.3876 104.785 73.426 104.555 81.4669 109.598C79.2209 111.132 72.2685 116.06 71.5633 116.612C71.5248 116.652 71.4998 116.703 71.4915 116.758C71.4833 116.813 71.4923 116.869 71.5173 116.919C71.5501 116.967 71.6001 117.001 71.657 117.014C71.7139 117.027 71.7736 117.017 71.8239 116.988C72.6518 116.513 82.2717 110.12 82.2717 110.12Z" fill="black"/>
<path d="M149.473 132.341C148.63 132.15 144.108 131.537 120.445 128.049C119.945 127.346 119.557 126.571 119.295 125.749C119.195 123.45 118.605 116.152 118.414 114.727C118.03 111.89 117.256 109.054 117.317 106.134C118.138 105.957 118.95 105.766 119.732 105.551C119.799 105.53 119.857 105.488 119.898 105.432C119.94 105.375 119.962 105.307 119.962 105.237C119.972 102.371 119.762 99.5085 119.333 96.6748C120.621 95.249 120.575 92.5662 120.529 90.3815C120.529 88.3886 120.598 86.9935 120.591 73.5179C122.944 71.6705 122.407 67.5696 122.124 65.4846C122.806 65.0094 122.836 65.0094 122.844 64.8944C122.785 64.147 122.631 63.4102 122.384 62.7021C122.222 62.3305 121.984 61.9965 121.687 61.721C121.947 61.3377 121.993 61.307 121.94 61.1844C121.503 60.2876 121.173 59.6513 120.744 58.9691V52.2467C122.12 52.3981 123.506 52.0705 124.668 51.3191C124.711 51.2968 124.743 51.2596 124.759 51.2148C124.775 51.17 124.774 51.1207 124.756 51.0767C124.738 51.0327 124.704 50.997 124.661 50.9766C124.618 50.9563 124.568 50.9527 124.523 50.9665C123.48 51.2195 122.729 51.0969 122.285 50.5909C121.188 49.3645 122.078 46.1297 122.515 44.9799C123.542 42.1131 124.814 42.0135 125.121 39.9515C125.295 38.4655 124.965 36.9641 124.184 35.688C123.403 34.412 122.216 33.4354 120.813 32.9147C120.813 32.8534 121.02 21.2252 121.027 20.8649C121.104 17.5611 121.204 13.0386 117.509 11.5439C116.676 11.2649 115.795 11.1529 114.918 11.2143C114.757 11.2143 33.7656 8.62339 33.1984 8.58507C31.6682 8.40921 30.1212 8.44014 28.5992 8.67705C24.7666 9.5049 24.7129 13.2762 24.6899 15.7291C24.6899 15.9361 24.7359 37.3376 24.7666 57.7043C22.1833 57.643 11.8888 57.6277 9.73489 57.7043C7.91821 57.7043 6.3315 57.8347 5.31968 58.6089C4.82565 58.9994 4.42485 59.4951 4.1464 60.06C3.86796 60.6248 3.71886 61.2446 3.70996 61.8743C3.70996 69.3786 4.47649 114.405 4.06257 129.398C4.00891 131.345 4.88275 132.878 6.36216 133.33C5.44999 134.564 6.36216 135.967 7.66526 136.55C17.7605 138.727 47.0496 144.982 49.3645 144.982C50.5527 144.982 110.196 139.179 145.863 135.737C147.917 135.737 149.949 134.687 149.696 132.786C149.604 132.326 149.604 132.372 149.473 132.341ZM117.578 114.213C118.053 117.977 118.207 121.802 118.49 125.588C117.7 125.89 116.827 125.89 116.037 125.588C113.738 121.227 110.097 115.309 110.672 110.166C110.848 108.51 110.917 107.782 109.974 106.402C110.794 106.348 111.63 106.272 112.504 106.134C112.665 106.134 112.726 106.134 113.27 103.144C114.366 106.517 114.366 106.747 114.635 106.686L116.612 106.264C116.513 108.955 117.21 111.584 117.578 114.213ZM95.0498 132.518C96.1382 133.698 99.143 131.981 100.5 131.1C100.53 131.082 100.554 131.056 100.569 131.024C100.584 130.993 100.589 130.958 100.584 130.923C100.56 130.764 100.57 130.601 100.612 130.445C100.654 130.29 100.728 130.144 100.829 130.019C100.85 129.989 100.876 129.963 100.906 129.943C100.936 129.924 100.97 129.91 101.006 129.904C101.128 129.904 101.366 130.126 101.481 130.548C101.596 130.969 102.7 130.716 103.014 130.548C103.144 130.471 103.152 130.486 103.014 128.248C106.509 128.9 113.4 130.088 115.892 130.548C115.968 130.877 116.045 131.199 116.129 131.506C107.698 132.272 48.8126 137.531 47.3332 137.638C46.467 137.439 28.7219 134.273 28.101 134.166C44.2441 132.84 86.4109 129.39 97.587 128.432C96.0999 130.67 94.8351 130.962 94.7815 131.222C94.7155 131.444 94.7055 131.678 94.7523 131.904C94.7991 132.13 94.9013 132.341 95.0498 132.518ZM93.7467 100.791C89.3774 100.937 32.7231 102.945 29.3197 102.102C26.5756 101.757 25.2878 99.3883 25.4871 95.065C25.5331 92.7654 25.3415 25.5867 25.3031 16.6796C37.7669 17.2469 112.22 19.3242 120.284 19.3931C120.284 20.8112 120.154 27.825 120.069 32.6618C117.509 32.0026 114.343 32.5775 114.803 35.0917C114.811 35.1333 114.833 35.171 114.865 35.199C115.154 35.4254 115.396 35.7073 115.576 36.0282C115.755 36.3491 115.869 36.7026 115.91 37.068C115.952 37.4334 115.92 37.8034 115.817 38.1564C115.714 38.5093 115.541 38.8382 115.309 39.1236C115.125 39.3383 115.639 40.2734 115.393 43.5542C115.064 47.9617 117.325 51.2195 119.908 52.0244C119.908 53.0208 119.87 56.7309 119.87 57.6047C117.179 53.4118 115.761 52.6836 111.285 49.7784C111.055 49.6251 111.047 50.0314 111.875 46.8809C112.405 46.7109 112.89 46.4244 113.295 46.0424C113.699 45.6603 114.013 45.1925 114.213 44.6733C114.382 42.8888 114.382 41.0922 114.213 39.3076C114.417 38.6251 114.465 37.9052 114.352 37.2017C114.239 36.4983 113.969 35.8294 113.561 35.245C112.861 34.0623 111.808 33.1292 110.549 32.5775C108.104 31.5503 105.835 32.5775 103.827 33.459C101.527 34.5398 101.665 35.1913 101.949 37.6902C101.952 37.8895 102.001 38.0853 102.093 38.2622C102.185 38.4391 102.316 38.5923 102.477 38.7097C101.941 40.5111 101.167 43.8301 101.749 45.6085C101.972 46.2464 102.321 46.833 102.776 47.3334C103.23 47.8338 103.78 48.2377 104.394 48.5213C104.34 48.7513 104.225 49.1805 104.141 49.5025C103.765 49.4028 103.075 49.2342 102.669 49.1422C100.086 47.9387 97.7403 46.5667 95.0881 46.8426C94.883 46.8717 94.6882 46.9506 94.5208 47.0726C94.1327 46.6995 93.6776 46.403 93.1794 46.1987C92.7655 45.4322 85.882 34.3942 85.7977 34.2638C85.4528 33.7196 85.1615 33.2444 85.4145 32.6925C85.6674 32.1406 86.342 31.1594 86.2653 30.3469L92.5509 30.3085C92.7542 30.3085 92.9491 30.2278 93.0929 30.084C93.2366 29.9403 93.3174 29.7453 93.3174 29.542V27.4264C93.3174 27.2231 93.2366 27.0281 93.0929 26.8844C92.9491 26.7406 92.7542 26.6599 92.5509 26.6599H69.7542C69.5509 26.6599 69.356 26.7406 69.2122 26.8844C69.0685 27.0281 68.9877 27.2231 68.9877 27.4264V29.8946C68.9877 30.0979 69.0685 30.2929 69.2122 30.4366C69.356 30.5804 69.5509 30.6611 69.7542 30.6611L78.4084 30.5768C79.251 32.034 80.5076 33.2079 82.0187 33.9496C82.3407 34.1182 82.31 34.1412 82.9309 37.4296C83.9427 42.7263 84.9852 48.207 88.2966 52.5839C88.2353 52.7372 88.1893 52.8905 88.1356 53.0438C88.1198 53.0949 88.1164 53.149 88.1256 53.2017C88.1348 53.2543 88.1564 53.304 88.1886 53.3467C88.2208 53.3894 88.2626 53.4238 88.3108 53.4471C88.3589 53.4704 88.4118 53.4819 88.4653 53.4808C88.7187 53.4736 88.9708 53.5205 89.2047 53.6183C89.4387 53.7161 89.6491 53.8626 89.822 54.048C89.6917 55.5427 89.983 56.3476 91.7537 57.6737C92.1983 58.0033 95.1954 59.636 95.9849 60.0499C95.6323 61.445 95.3334 62.8708 95.0498 64.3042C87.0089 64.5725 69.417 64.7334 68.9877 65.0707C68.8598 65.1718 68.7571 65.3014 68.688 65.4491C68.6188 65.5967 68.5849 65.7585 68.5891 65.9216C68.4665 68.9877 68.2058 86.4952 68.2288 87.3001C68.2288 88.8332 68.4818 89.7683 70.1145 89.5997C71.3026 89.5997 85.9894 89.2241 92.0143 89.0708C91.9223 90.0826 91.8916 90.0979 92.0143 90.1823C92.7035 90.7056 93.4829 91.0979 94.3139 91.3397C93.7686 94.4586 93.5757 97.629 93.739 100.791H93.7467ZM107.314 54.2703C105.482 54.4849 102.577 54.1936 102.056 52.5073C101.857 51.7407 102.585 50.3686 102.976 49.8934L104.309 50.2077C104.391 50.2264 104.476 50.2129 104.547 50.17C104.619 50.1272 104.671 50.0582 104.693 49.9777C104.792 49.5485 104.915 49.0885 104.999 48.7513C105.298 48.8509 105.62 48.9736 105.689 48.6899C105.697 48.6597 105.699 48.6282 105.695 48.5972C105.691 48.5662 105.681 48.5364 105.665 48.5093C105.65 48.4822 105.629 48.4585 105.604 48.4396C105.579 48.4206 105.551 48.4067 105.521 48.3987C103.221 47.7624 101.972 45.5012 102.454 42.872C102.695 41.1388 103.038 39.4213 103.482 37.7286C104.149 38.4771 105.042 38.9871 106.026 39.1808C107.01 39.3746 108.03 39.2414 108.932 38.8017C108.741 40.2052 108.851 41.6333 109.256 42.9908C109.66 44.3482 110.349 45.6039 111.277 46.674C110.38 49.7401 110.35 49.7401 110.58 50.0774C110.81 50.4146 111.584 50.7366 112.465 51.4111C111.148 52.9525 109.319 53.9676 107.314 54.2703ZM107.314 55.65C106.916 55.65 107.314 54.9218 107.644 54.9218C107.973 54.9218 107.575 55.627 107.314 55.65ZM104.961 55.4584C104.961 55.857 104.194 56.156 103.919 55.9567C103.643 55.7574 104.064 55.2898 104.478 55.1901C104.577 55.164 104.681 55.1775 104.77 55.2276C104.859 55.2777 104.925 55.3606 104.953 55.4584H104.961ZM102.385 54.7609C102.354 54.7884 102.317 54.8079 102.276 54.8179C102.236 54.8279 102.193 54.828 102.153 54.8182C102.112 54.8085 102.075 54.7891 102.043 54.7618C102.011 54.7345 101.987 54.7 101.972 54.6612C101.887 54.255 102.493 54.0327 102.615 54.1936C102.738 54.3546 102.646 54.5386 102.378 54.7609H102.385ZM113.753 66.4888C113.803 66.5092 113.845 66.5445 113.874 66.5898C113.902 66.6351 113.917 66.6881 113.914 66.7417C113.9 66.7934 113.87 66.8396 113.829 66.8739C113.788 66.9082 113.737 66.9289 113.684 66.9334C111.385 66.7264 109.66 65.2317 109.185 62.3878C109.172 62.3238 109.186 62.2575 109.223 62.2036C109.259 62.1497 109.316 62.1126 109.38 62.1004C109.444 62.0882 109.51 62.1019 109.564 62.1386C109.618 62.1753 109.655 62.2318 109.667 62.2959C109.916 63.2929 110.424 64.2063 111.14 64.9429C111.857 65.6795 112.756 66.2129 113.745 66.4888H113.753ZM83.7051 30.5308C83.7511 30.7225 83.2068 30.7915 82.7316 32.1022C82.7195 32.1625 82.7297 32.2252 82.7604 32.2784C82.7911 32.3317 82.8402 32.372 82.8984 32.3917C82.9567 32.4114 83.0201 32.4093 83.0769 32.3856C83.1337 32.362 83.1799 32.3184 83.2069 32.2632C83.6131 31.1594 84.5636 31.3664 84.3796 30.4695C84.0194 28.7295 84.4486 27.8327 85.0465 28.009C85.1615 28.009 85.1002 29.542 85.4758 29.9329C86.1427 30.6995 84.9315 31.8493 84.7093 32.7001C84.6478 32.9775 84.6504 33.2653 84.7168 33.5416C84.7832 33.8178 84.9117 34.0753 85.0925 34.2945C85.2382 34.5168 92.1139 45.6238 92.5739 46.3444C90.9538 47.9378 89.5957 49.7772 88.5496 51.7944C84.8396 46.559 84.1114 39.9745 82.8619 33.9649C82.707 33.6397 82.4324 33.387 82.0954 33.2597C80.9056 32.6426 79.9046 31.7157 79.1979 30.5768L83.7051 30.5308ZM92.6199 47.2489C92.9648 46.8656 93.0031 46.789 93.1334 46.8196C93.4472 46.9777 93.7407 47.1733 94.0073 47.4022C93.1028 48.1151 90.6269 50.9895 89.9753 53.1895C89.6487 52.9676 89.272 52.8306 88.8792 52.7909C89.5844 50.6599 91.1328 48.9276 92.6199 47.2489ZM92.0833 88.3962C85.8744 88.5035 70.2525 88.9405 69.2713 88.7948C68.9877 88.5419 69.003 87.9823 69.0107 87.5301C69.0107 87.4457 69.2253 67.125 69.3403 65.8219C69.3403 65.5613 67.4393 65.6763 94.8811 65.0017C93.5167 72.3987 92.8421 80.432 92.0833 88.3962ZM94.9041 91.5237C95.7352 91.6763 96.5872 91.6763 97.4183 91.5237C97.4588 91.5176 97.4963 91.4986 97.5253 91.4697C97.5543 91.4407 97.5732 91.4032 97.5793 91.3627C99.1584 82.7776 97.6866 82.1643 99.1124 66.5808C99.8789 57.85 101.029 54.9678 100.799 54.6842C99.557 53.1512 100.323 51.4878 101.903 50.361C101.136 51.7407 101.351 52.8599 101.964 53.5574C101.772 53.6285 101.609 53.7594 101.498 53.9307C101.386 54.102 101.333 54.3046 101.346 54.5085C101.359 54.7123 101.437 54.9066 101.569 55.0625C101.701 55.2184 101.88 55.3277 102.079 55.3741C102.356 55.392 102.63 55.3038 102.845 55.1274C103.06 54.9509 103.2 54.6993 103.236 54.4236C103.474 54.5203 103.717 54.6022 103.965 54.6689C102.93 55.2821 102.96 56.6312 104.171 56.6312C104.515 56.6537 104.853 56.5451 105.119 56.3274C105.385 56.1097 105.559 55.7991 105.605 55.4584C105.605 54.6382 104.746 54.9678 106.655 54.9218C105.927 56.4012 107.927 56.7538 108.334 55.3204C108.404 55.1222 108.404 54.9055 108.334 54.7072C111.875 53.9407 109.936 52.5533 108.334 58.5859C107.069 63.2924 107.567 68.9034 108.234 72.8203C107.352 73.5147 106.531 74.2841 105.781 75.1199C104.907 73.2879 104.532 72.4601 104.34 72.0998C104.148 71.7395 104.141 71.8238 104.033 71.8545C103.627 71.9925 102.539 72.4217 101.496 72.8587C101.933 68.1752 102.186 65.3007 103.029 58.4402C103.034 58.3806 103.017 58.3212 102.98 58.274C102.943 58.2268 102.89 58.1952 102.831 58.1855C102.772 58.1759 102.711 58.1888 102.662 58.2218C102.612 58.2548 102.576 58.3054 102.562 58.3636C101.895 62.4568 101.105 67.7536 100.776 73.1729C100.009 73.4949 99.6106 73.6558 99.4113 73.7708C99.212 73.8858 99.2273 73.9395 99.2657 74.0391C99.4343 74.4454 99.9249 75.5722 100.53 76.9596C99.7639 82.8695 97.8936 100.814 97.7096 103.413C96.509 102.775 95.3981 101.981 94.4059 101.052C94.2105 97.867 94.3776 94.6705 94.9041 91.5237ZM107.383 78.6306C107.812 78.2627 108.487 77.6188 108.916 77.1972C110.012 86.8018 110.771 82.1567 109.905 98.2998C109.729 101.565 109.576 104.432 109.675 105.697C107.884 105.816 106.086 105.747 104.309 105.49C104.401 103.535 105.26 86.1503 105.413 84.3183C106.572 83.8597 107.694 83.3139 108.771 82.6856C108.924 82.5476 108.886 82.7162 107.383 78.6306ZM115.493 126.156V127.328C109.79 126.485 105.022 125.795 102.861 125.443C102.822 124.983 102.792 124.607 102.769 124.377C104.24 119.494 106.417 113.01 104.424 108.28C104.156 107.636 103.942 108.211 104.892 106.31C106.335 106.472 107.788 106.523 109.238 106.463C110.595 108.326 110.043 108.61 109.92 110.296C109.491 115.961 112.718 121.066 115.493 126.156ZM115.539 128.126C115.585 128.693 115.669 129.283 115.769 129.866L102.991 127.62C102.991 127.129 102.937 126.638 102.907 126.179C105.459 126.608 110.12 127.321 115.539 128.126ZM103.558 105.367C101.761 105.063 100.014 104.511 98.3688 103.727C98.4455 103.022 100.607 82.126 101.036 78.163C103.144 82.9539 103.719 84.2953 103.926 84.6326C104.026 84.7935 104.041 84.7552 104.095 84.7552C104.301 84.7179 104.504 84.6614 104.7 84.5866C104.202 90.1669 103.597 103.336 103.558 105.367ZM104.164 106.187C103.344 107.628 103.267 107.72 103.65 108.38C104.417 109.706 104.463 112.159 104.417 113.684C104.286 116.497 102.209 123.442 102.002 124.124C101.683 124.407 101.288 124.59 100.865 124.651C100.443 124.712 100.013 124.649 99.6259 124.469C99.465 124.408 99.5186 124.584 99.4267 123.365C99.1277 119.318 98.3458 108.847 97.8936 104.325C99.8798 105.253 101.993 105.881 104.164 106.187ZM114.765 93.394C115.118 96.4141 116.26 104.233 116.459 105.567L114.865 105.965C114.612 105.199 113.799 102.332 113.485 101.665C113.451 101.603 113.399 101.552 113.335 101.52C113.272 101.488 113.201 101.475 113.13 101.484C113.06 101.494 112.994 101.524 112.941 101.571C112.888 101.618 112.85 101.68 112.833 101.749C112.603 102.991 112.381 104.24 112.159 105.482C111.507 105.544 110.917 105.59 110.373 105.628C110.373 101.749 110.511 97.7862 110.741 93.8539C112.021 93.7543 114.098 93.5167 114.765 93.394ZM111.86 82.4709C111.855 82.4213 111.871 82.3719 111.902 82.3333C111.934 82.2946 111.979 82.2698 112.028 82.264C117.394 81.6201 117.179 81.5664 117.256 81.7811C117.426 82.347 117.483 82.9408 117.425 83.5288C117.425 83.7357 117.647 83.6131 112.243 84.2953C111.975 84.3643 112.021 84.1037 111.86 82.4709ZM117.164 105.39C116.214 100.385 115.976 98.4454 115.347 93.2944C116.206 93.2192 117.059 93.0886 117.9 92.9034C118.815 96.8446 119.28 100.877 119.287 104.923C118.552 105.068 117.816 105.237 117.164 105.39ZM119.847 82.6932C119.77 93.1564 120.039 93.9076 119.157 95.6706C118.981 94.6435 118.782 93.6086 118.552 92.6045C118.793 92.4334 119.01 92.2296 119.195 91.9989C119.418 91.7306 118.598 82.034 117.271 75.0203C117.915 74.775 119.195 74.2537 119.885 73.9011C119.893 76.8216 119.87 79.8034 119.847 82.6932ZM121.326 71.0726C121.155 71.8086 120.719 72.4556 120.1 72.8893C116.827 75.0049 109.031 76.0474 108.955 76.0551C108.918 76.0622 108.884 76.0786 108.856 76.1028C108.828 76.127 108.806 76.1581 108.794 76.1931C108.264 76.9365 107.643 77.6111 106.946 78.2014C106.539 78.6727 106.008 79.0206 105.413 79.2055C104.946 79.2745 103.811 78.7073 105.068 78.5923C105.402 78.603 105.731 78.507 106.007 78.3181C106.282 78.1293 106.491 77.8575 106.601 77.5422C106.619 77.4929 106.619 77.4389 106.6 77.3898C106.582 77.3408 106.547 77.2997 106.502 77.2739C106.057 77.0669 106.425 78.1171 104.302 78.0404C103.788 78.0404 103.129 77.3812 103.972 77.4425C105.337 77.5498 106.272 76.6147 105.934 76.3617C105.899 76.3324 105.854 76.3164 105.808 76.3164C105.762 76.3164 105.717 76.3324 105.682 76.3617C105.091 76.9903 104.21 76.837 103.321 76.7296C102.884 76.676 102.554 76.2084 103.129 76.1164C103.896 75.9938 105.774 76.0014 105.988 75.7868C108.288 73.2343 111.599 71.5402 114.297 70.1835C116.788 68.9591 119.175 67.5338 121.434 65.9216C121.709 67.631 121.672 69.3761 121.326 71.0726ZM121.15 62.3802C121.574 63.0163 121.803 63.7622 121.809 64.5265C119.791 66.0353 117.684 67.4226 115.501 68.6811C115.439 68.2441 115.332 67.4393 115.317 67.148C118.222 65.5 120.276 63.8059 121.15 62.3802ZM29.0055 9.25195C54.2013 9.83451 114.297 11.8352 114.297 11.8352C115.393 11.8352 115.945 11.8888 116.214 11.8735H116.283C118.421 12.1724 119.64 14.1731 120.039 15.7828C120.235 16.751 120.318 17.7389 120.284 18.7263C107 18.504 61.859 17.4768 25.2955 15.9054C25.2955 12.5174 25.6174 9.7042 29.0055 9.25195ZM25.2955 99.6489C23.3485 99.6489 17.2239 99.6489 15.2769 99.7409C15.2769 97.3493 15.1389 80.8229 15.1159 78.4237C16.5647 78.4773 23.2182 78.3087 24.7436 78.2704C24.7589 97.5716 24.5289 97.6023 25.2955 99.6489ZM24.7282 71.2873C22.6049 71.2873 16.1508 71.2873 14.6867 71.3563C14.7327 70.4824 14.7633 68.2901 14.7863 67.24C16.2121 67.24 22.5436 67.0637 24.7512 66.941C24.7206 68.3591 24.7206 69.8155 24.7206 71.2336L24.7282 71.2873ZM24.7282 66.2512C23.6704 66.2512 14.9243 66.5195 14.4797 66.5578C14.0351 66.5961 14.1194 67.01 14.0965 67.7766C14.0121 70.3138 13.9891 71.3409 14.0351 71.7625C14.0735 72.0461 14.1348 72.0538 14.2421 72.0615C15.2386 72.1305 23.7241 71.9925 24.7359 71.9771V77.5805C14.1808 77.7031 14.4721 77.6878 14.4721 78.1094C14.4721 78.3087 14.4721 98.5068 14.5564 100.262C14.5564 100.622 15.4609 100.53 25.6481 100.446C26.8668 102.746 28.8215 102.93 31.42 103.114C34.0186 103.298 91.2708 101.627 93.9153 101.535C94.8535 102.577 95.9827 103.431 97.242 104.049C97.6176 108.364 98.1619 116.313 98.4991 121.388C93.6777 121.71 13.4142 127.65 10.5627 127.857C10.5627 125.949 10.2178 62.7481 10.2178 62.7481C11.4749 62.7481 23.2488 62.5565 24.7129 62.5105V66.1975L24.7282 66.2512ZM6.89873 132.709C6.01722 131.797 6.39282 134.572 6.39282 61.422C6.39282 59.1224 7.92588 58.5245 9.7119 58.4249C12.0115 58.2946 16.2274 58.5245 24.7129 58.2792V61.7516C22.9499 61.7516 9.85754 61.9663 9.85754 61.9663C9.80693 61.968 9.75717 61.9797 9.71112 62.0007C9.66507 62.0218 9.62365 62.0518 9.58925 62.0889C9.43595 62.2575 9.83454 128.286 9.8652 128.363C9.88016 128.397 9.90483 128.427 9.93615 128.447C9.96748 128.467 10.0041 128.478 10.0415 128.478C10.0415 128.478 90.7802 122.637 98.5451 122.001C98.5451 122.492 98.7598 125.259 98.7904 125.634C88.4269 126.477 7.66526 132.61 6.89873 132.709ZM48.9353 141.532L8.74607 133.192C23.4481 132.234 87.0855 127.359 98.6141 126.362C98.4815 126.794 98.3096 127.212 98.1005 127.612C90.8108 128.172 25.4488 133.66 25.4488 133.66C24.9659 133.706 25.0042 134.426 25.4488 134.426L47.2642 138.397C47.3256 138.397 48.9123 138.267 116.39 132.265C116.39 132.364 116.436 132.433 116.513 132.487C117.187 132.909 118.26 132.487 118.26 132.173C118.242 131.767 118.289 131.361 118.398 130.969C118.398 130.969 118.621 131.069 119.027 132.272C119.035 132.299 119.048 132.323 119.067 132.343C119.086 132.363 119.109 132.378 119.134 132.387C120.545 132.891 121.997 133.273 123.473 133.53C123.751 133.534 124.026 133.471 124.274 133.345C124.523 133.22 124.737 133.036 124.898 132.809C124.992 132.591 125.02 132.351 124.978 132.118C124.935 131.885 124.825 131.669 124.661 131.498C123.282 130.948 122.058 130.069 121.096 128.938C131.437 130.471 142.713 132.004 146.967 132.625L48.9353 141.532Z" fill="black"/>
</svg>
