<svg width="154" height="154" viewBox="0 0 154 154" fill="none" xmlns="http://www.w3.org/2000/svg">
<path d="M132.857 82.2293C131.54 81.9832 130.202 81.8743 128.862 81.9065L133.357 57.5164C133.817 54.9868 134.168 54.7737 131.507 54.6135C105.473 53.0444 90.3126 54.3491 90.2728 53.7282C90.2559 53.4637 88.9696 46.3532 88.4461 42.0712C88.3112 40.9682 87.5607 37.2159 87.2962 35.935C86.8838 33.9366 86.9275 33.459 85.9494 33.4912C77.7289 33.7618 57.2965 35.8231 46.479 37.5693C27.7215 40.5956 27.7997 40.6271 27.9024 41.4749C27.9024 41.4948 28.6084 50.711 32.0862 69.7521C23.1122 69.966 23.6542 71.6018 24.9336 90.6084C25.5468 99.7618 27.8541 118.17 29.9315 127.537C32.8022 140.485 33.7987 143.362 43.629 143.953C50.0473 144.336 106.069 144.987 120.748 143.123C122.147 142.946 123.073 141.069 123.372 139.887C123.755 138.364 124.521 136.768 127.696 123.313C136.148 87.5499 138.325 83.4151 132.857 82.2293ZM129.484 55.7749C132.412 55.8078 132.287 55.7672 132.208 56.1336C132.09 56.6817 121.093 114.216 118.18 127.894C115.814 113.452 111.495 87.0516 111.142 85.6005C109.826 80.1918 108.44 79.9005 104.508 79.4727C103.627 79.3762 69.7369 78.7507 69.4218 78.73C68.9619 78.6985 69.0501 78.5368 69.083 78.3766C69.083 78.3766 69.1528 77.9488 69.1888 77.7633C73.1273 57.6521 72.833 56.0845 73.5773 56.0562C107.714 54.7645 117.462 55.6376 129.483 55.7749H129.484ZM29.0346 41.9302C28.9388 41.5852 29.2086 41.7431 30.557 41.5868C33.6048 41.2342 41.6053 39.8712 46.1877 39.1775C63.5202 36.5551 85.363 34.4341 85.3653 34.454C86.164 34.3774 85.9854 34.3613 86.1449 35.551C86.2215 36.132 86.3679 37.0312 86.4224 37.5248C88.2897 54.5583 89.3759 53.998 88.2836 54.0057C83.2266 54.0378 78.1751 54.3238 73.1473 54.8627C72.0634 54.9876 72.1093 55.6054 71.1006 60.3987C69.1198 69.8104 68.1639 74.8589 67.7998 77.3141C67.7094 77.9274 67.543 78.5598 66.5112 78.4946C63.9816 78.3352 58.4487 78.5751 56.9746 76.6043C52.4596 70.5693 57.0344 69.9537 42.0307 69.7751C41.0641 69.7636 36.996 69.6847 33.5412 69.7238C33.3963 69.0814 33.2345 67.9814 32.9892 66.5809C30.3201 51.1395 29.0338 41.4749 29.0346 41.9302ZM126.656 121.295C126.102 124.285 125.015 128.822 124.47 130.928C121.223 143.468 122.468 141.702 115.583 142.136C105.081 142.797 46.3993 143.149 41.3937 142.584C34.54 141.809 33.7535 138.654 31.5734 127.388C30.557 122.136 27.5935 103.826 26.0665 84.3779C25.0072 70.8943 25.4602 71.713 29.4393 71.2699C33.2284 70.8506 37.9312 71.2569 43.4749 71.2607C43.747 71.2607 49.7169 71.5344 50.5333 71.6056C51.5298 71.6923 52.0572 71.8057 52.4496 72.2189C54.0594 73.9053 55.3411 78.7108 58.3889 79.4467C63.3025 80.6341 93.2017 80.6394 103.769 81.048C108.705 81.2389 108.857 81.7195 109.824 87.2264C110.952 93.6371 110.898 94.7708 115.482 120.787C118.137 135.845 118.57 139.587 119.581 139.392C120.121 139.288 119.816 137.683 119.701 137.149C119.678 137.043 119.332 134.946 118.794 131.651C124.46 105.112 124.107 107.474 128.645 83.0602C129.857 83.0602 131.069 83.1261 132.274 83.2587C136.552 83.8283 134.727 86.4591 129.251 110.589C129.342 110.766 127.094 118.914 126.656 121.295Z" fill="black"/>
<path d="M75.026 67.6097C74.2733 67.5193 74.1828 66.9099 74.6036 66.6278C76.1076 65.6129 105.261 66.4614 110.07 67.241C111.308 67.4411 110.544 68.3403 108.174 68.3709C103.831 68.4246 79.3378 68.1256 75.026 67.6097Z" fill="black"/>
<path d="M90.8571 61.554C82.9831 61.554 73.6665 62.2393 75.1919 60.7729C76.5326 59.4843 96.7189 59.3165 97.0608 60.6917C97.1375 60.9983 97.1321 61.1102 96.8699 61.2397C95.8903 61.7181 90.8571 61.5694 90.8571 61.554Z" fill="black"/>
<path d="M74.0302 74.0387C73.4936 73.7198 73.8102 73.0606 74.8964 72.9157C77.3539 72.5892 86.8929 73.0253 86.9121 73.0261C91.2737 73.1028 91.5344 73.1855 92.6857 73.8164C93.1042 74.0464 93.079 74.4228 92.6957 74.6926C91.7429 75.3626 74.9431 74.5784 74.0302 74.0387Z" fill="black"/>
<path d="M100.238 61.4175C99.5128 60.9714 100.724 60.4049 101.548 60.3926C105.07 60.3428 110.261 60.4639 112.227 60.5781C112.796 60.6111 113.388 61.1339 113.039 61.593C112.638 62.1197 112.231 62.0284 110.543 62.1365C110.531 61.9495 101.453 62.1672 100.238 61.4175Z" fill="black"/>
<path d="M33.4906 45.3988C33.4906 44.3456 33.2031 44.3824 37.8308 43.533C44.0038 42.4009 49.2892 41.7769 60.6456 40.4354C65.6082 39.8505 65.1284 39.7777 65.4948 41.2725C66.8386 46.7595 68.5541 59.4535 68.5771 59.6544C68.758 61.2319 68.7097 61.1215 63.4481 61.9877C63.0119 62.0598 51.03 63.8949 49.5736 64.1065C38.9653 65.6442 36.7515 65.9462 36.4288 64.804C34.9784 59.6467 33.4913 45.9163 33.4906 45.3988ZM66.2912 52.4411C64.4262 41.205 64.9375 40.611 64.1388 40.7367C60.9269 41.2395 52.491 42.43 49.7445 42.8738C34.4534 45.3444 38.8005 44.6898 34.4265 45.3429C34.054 45.3981 34.5109 45.3329 35.653 53.6799C37.1938 64.9206 37.0573 64.5886 37.3639 64.4882C37.7035 64.3725 37.9082 64.538 38.1435 64.1333C38.3735 63.7416 39.4819 62.5749 40.657 61.1683C42.5091 59.0383 44.477 57.0118 46.5518 55.098C47.8366 53.8516 47.6365 53.8907 51.7874 56.5713C52.4466 56.9975 52.5639 57.0496 52.4374 57.2121C52.4221 57.2313 49.0837 61.7524 48.9396 62.3587C48.5272 64.0904 53.079 57.3447 59.0129 50.2749C60.6295 48.3477 60.283 48.268 66.1157 52.665C66.2337 52.7485 66.2912 52.7914 66.2912 52.4411Z" fill="black"/>
<path d="M51.0714 48.5716C50.2282 48.4735 48.6123 48.5716 48.4582 46.909C48.3816 46.0819 49.2562 44.6093 51.2837 44.4729C52.7946 44.3709 53.1718 45.0439 53.4638 44.5771C54.3614 43.1414 55.5028 43.1513 56.2663 43.8673C56.9163 44.4805 56.6274 44.7703 57.3196 44.6867C58.2555 44.574 59.9373 44.2628 60.825 44.6423C61.8108 45.0646 61.301 46.3547 60.352 46.774C57.2214 48.1577 50.2934 48.5716 51.0714 48.5716ZM50.925 47.7775C53.3519 47.4977 62.5359 46.5364 60.4739 45.1812C60.014 44.8745 59.2643 45.1904 58.3636 45.2409C56.8642 45.3245 56.6649 45.7476 56.4189 45.3567C56.2514 44.9395 55.9674 44.5792 55.6009 44.3188C55.013 43.9478 54.1177 44.5173 53.9268 45.3214C53.8202 45.7691 53.6968 45.9791 53.1028 45.6955C51.7069 45.0255 49.9246 45.0823 49.2968 46.692C49.1175 47.152 49.4402 47.3344 49.8005 47.5697C50.1494 47.7401 50.5382 47.812 50.925 47.7775Z" fill="black"/>
<path d="M42.2638 45.8397C46.3051 45.589 47.635 51.3864 43.9633 53.22C43.3818 53.5086 42.7353 53.6414 42.0871 53.6053C41.4389 53.5691 40.8112 53.3653 40.2654 53.0138C39.5353 52.5819 38.968 51.9212 38.6514 51.1342C38.3348 50.3472 38.2866 49.4778 38.5142 48.6606C38.7419 47.8434 39.2326 47.1241 39.9105 46.6141C40.5884 46.1041 41.4155 45.8319 42.2638 45.8397ZM45.2074 49.7613C45.005 48.4513 44.7198 47.3674 43.1453 46.7503C40.9293 45.8818 38.4755 48.7909 39.8645 51.1273C40.1749 51.6718 40.6556 52.0992 41.2327 52.3438C41.8097 52.5885 42.4511 52.6367 43.0583 52.4811C43.6654 52.3255 44.2046 51.9748 44.5929 51.4829C44.9812 50.9909 45.1971 50.3849 45.2074 49.7583V49.7613Z" fill="black"/>
<path d="M47.0133 23.1422C47.4697 22.1638 48.2375 21.3644 49.1966 20.8688C50.1557 20.3732 51.2519 20.2095 52.314 20.4033C52.6628 20.4684 52.4726 20.5106 51.6386 18.0668C51.0009 16.1957 50.0917 13.3663 49.9783 13.0306C49.8464 12.6427 50.3171 12.8489 43.4327 15.2873C37.5901 17.357 37.9948 17.1853 38.1167 17.4513C40.7713 23.2709 41.6367 25.3299 41.846 26.2383C42.6071 29.5505 36.7806 32.5362 34.415 29.6157C32.7853 27.6035 34.4725 24.9236 36.986 24.0528C39.6766 23.1199 40.0798 26.1815 36.2279 17.0619C35.4752 15.2797 34.7991 14.51 35.6768 14.0049C39.8148 11.8975 44.1584 10.2207 48.6391 9.00084C49.6502 8.73025 49.8832 9.32049 50.5954 10.8252C51.7552 13.2782 52.4558 15.5778 54.1675 20.9506C54.6795 22.5557 55.0406 24.0375 53.9053 25.4855C50.994 29.2002 45.2019 27.0347 47.0133 23.1422Z" fill="black"/>
<path d="M8.44672 110.186C8.41376 109.918 7.81738 106.15 7.76755 104.154C7.72693 102.512 8.50728 102.034 8.81313 102.675C9.87633 104.898 10.1477 106.916 10.6651 109.563C10.7326 109.908 10.8054 109.716 13.0246 109.287C13.2369 109.246 14.6389 109.111 15.3395 108.996C15.837 108.915 17.2559 109.125 16.7569 109.648C15.6485 110.812 11.657 112.009 11.3481 112.047C11.0147 112.089 11.1526 112.218 11.3711 113.471C11.4945 114.179 12.6137 120.306 11.9131 120.421C11.736 120.45 11.5298 120.524 11.3765 120.336C10.3232 119.038 9.48463 116.12 9.247 114.664C8.73111 111.51 9.63027 112.928 4.43612 113.105C4.30858 113.1 4.18438 113.063 4.07508 112.997C3.4557 112.664 4.15863 111.9 4.78337 111.649C5.90408 111.131 7.07207 110.722 8.27118 110.428C8.44672 110.391 8.46971 110.311 8.44672 110.186Z" fill="black"/>
<path d="M73.3208 15.6207C73.3208 14.3437 76.8048 15.2428 76.791 14.5736C76.7312 13.712 76.7902 12.8461 76.965 12.0003C77.0723 11.4752 76.955 10.7478 77.5843 10.7271C77.8641 10.7179 78.022 10.8275 78.1493 11.1495C78.2298 11.3399 78.288 11.5393 78.321 11.7435C78.8032 15.3571 77.7323 14.763 80.3754 14.8803C81.0775 14.9046 81.7628 15.104 82.3684 15.4605C82.7816 15.7633 82.0334 16.1619 81.6862 16.2271C78.6138 16.8181 78.6261 16.1964 78.6307 17.0971C78.7211 18.2788 78.6131 19.4674 78.3103 20.6133C78.193 21.0495 77.7085 21.2419 77.4073 20.8164C77.07 20.3396 77.211 20.0966 76.9772 18.7291C76.7235 17.2458 77.1045 16.6318 76.686 16.6127C74.7772 16.5268 73.3231 16.5007 73.3208 15.6207Z" fill="black"/>
<path d="M10.6552 46.2343C10.9518 46.2698 11.238 46.3658 11.4961 46.5164C11.7541 46.667 11.9785 46.8689 12.1553 47.1097C12.6336 47.6448 12.9113 48.3294 12.941 49.0465C12.9707 49.7635 12.7504 50.4687 12.3178 51.0413C8.73036 55.3432 3.7217 48.7087 7.87182 46.5831C8.73971 46.1767 9.71376 46.0546 10.6552 46.2343ZM9.5475 50.8566C10.0349 50.8568 10.5068 50.6851 10.8804 50.372C11.254 50.0589 11.5053 49.6242 11.5904 49.1441C11.6187 48.1737 11.4324 47.3159 10.3639 47.1841C8.436 46.9457 7.52762 48.1584 7.95844 49.5451C8.15774 50.1737 8.87293 50.9241 9.54826 50.8566H9.5475Z" fill="black"/>
<path d="M148.806 39.0044C149.761 40.6341 149.602 42.0867 148.912 43.0127C146.496 46.2559 142.561 42.9973 143.442 40.2408C144.23 37.7733 148.088 37.7794 148.806 39.0044ZM145.753 42.7881C146.763 43.5079 147.878 42.5987 148.133 41.698C148.403 40.7467 147.956 39.37 147.182 39.3547C144.308 39.2957 144.122 41.6237 145.753 42.7881Z" fill="black"/>
<path d="M97.9849 15.006C98.7837 10.6697 98.1467 11.2039 101.772 11.5006C107.253 11.9498 113.173 12.4917 117.973 13.059C118.594 13.1357 131.978 14.9455 133.021 15.1678C134.165 15.4115 133.941 15.2391 131.63 34.6849C129.995 48.4429 129.827 48.3295 129.321 48.3295C127.4 48.3402 126.185 47.9462 114.991 46.5979C102.113 45.0464 102.428 45.5737 95.2031 44.2215C94.6244 44.1135 94.7232 43.153 94.7056 42.0515C94.6236 37.029 97.0865 19.8782 97.9849 15.006ZM129.107 41.5601C129.712 41.6973 129.133 42.1871 130.986 28.6261C131.902 21.9241 132.003 21.9571 131.81 21.9111C131.088 21.7394 101.062 18.4003 98.8779 18.0692C98.5598 18.0209 98.6886 17.0642 96.5208 36.1437C96.3399 37.7373 96.2196 37.6867 96.7508 37.7135C107.384 38.2555 129.181 41.5601 129.103 41.5601H129.107ZM116.592 13.8171C116.148 13.7581 115.934 15.1693 115.782 16.96C115.639 18.6264 115.815 19.6122 115.973 19.6007C116.362 19.5969 117.225 13.903 116.592 13.8171ZM112.72 44.7781C112.943 46.325 113.197 45.5569 113.506 44.0161C113.745 42.8218 113.754 41.396 113.847 40.6885C113.85 40.4683 113.833 40.2481 113.797 40.0308C113.79 39.8415 113.35 39.6759 113.238 40.2715C112.97 41.7614 112.797 43.2665 112.718 44.7781H112.72ZM129.142 15.6576C129.156 15.2743 128.764 15.3916 128.694 15.5043C128.258 16.2202 127.693 20.8372 128.254 20.8188C128.504 20.8111 128.763 19.426 128.944 18.1972C129.106 17.3609 129.172 16.5088 129.14 15.6576H129.142ZM125.757 41.4949C125.527 41.8016 125.495 41.6896 125.178 43.8712C124.994 44.7481 124.964 45.6503 125.091 46.5373C125.095 46.6262 125.22 47.031 125.363 46.811C125.798 46.1372 126.656 40.2807 125.755 41.4949H125.757ZM109.387 18.7675C109.402 18.7844 109.42 18.7977 109.441 18.8064C109.462 18.8151 109.485 18.8189 109.507 18.8176C109.529 18.8162 109.551 18.8098 109.571 18.7987C109.59 18.7877 109.607 18.7722 109.62 18.7537C109.76 18.5704 109.858 18.3592 109.908 18.1343C109.951 17.413 110.643 13.279 110.149 13.1517C109.587 13.0069 109.177 16.2379 109.164 17.4306C109.091 17.8886 109.17 18.3577 109.387 18.7675ZM106.167 43.5202C106.431 44.9498 106.371 44.739 106.516 44.926C106.976 44.3749 106.916 42.8563 107.177 41.1975C107.357 40.6215 107.384 40.0091 107.259 39.4191C107.23 39.3379 107.295 39.2167 107.162 39.1815C106.632 39.0435 106.677 39.4774 106.167 43.5202ZM118.407 45.0732C118.513 45.9524 118.522 46.2744 118.65 46.2744C119.298 46.2744 119.294 43.0786 119.417 42.4922C119.521 41.9438 119.513 41.3801 119.393 40.8349C119.347 40.5935 118.919 40.7345 118.832 41.2282C118.807 41.3662 118.407 44.9912 118.407 45.0732ZM121.396 19.0044C121.349 19.8959 121.496 20.4784 121.779 20.1986C122.127 19.8514 122.347 18.2462 122.381 17.7664C122.458 16.7223 122.744 14.3322 122.106 14.7416C121.738 14.9769 121.446 18.1136 121.399 19.0044H121.396ZM99.912 42.5167C99.8814 42.9621 99.8944 43.4094 99.9519 43.8521C100.02 44.0713 100.321 44.0123 100.412 43.5685C100.774 42.053 100.935 40.4961 100.89 38.9385C100.89 38.4395 100.39 38.4893 100.31 38.983C100.048 40.1426 99.9136 41.3277 99.912 42.5167ZM103.924 13.6446C103.87 13.6385 103.863 13.6446 103.88 12.8712C103.888 12.4948 103.526 12.468 103.386 12.7248C103.253 13.2254 103.155 13.7346 103.091 14.2487C102.381 19.1055 103.538 18.7238 103.704 15.7688C103.73 15.226 103.923 13.568 103.924 13.6446Z" fill="black"/>
<path d="M110.057 25.7408C110.533 22 110.338 22.1548 111.334 21.7999C111.781 21.6397 112.139 22.0797 118.24 26.9358C119.519 27.8751 120.684 28.9607 121.711 30.1707C122.221 30.8996 121.947 31.0369 118.909 32.4642C117.274 33.2307 112.848 35.0858 110.624 35.8094C108.62 36.4617 108.893 34.878 110.057 25.7408ZM111.69 23.0532C111.177 22.5036 111.605 23.8826 110.886 29.1971C110.1 35.0038 110.101 34.9861 110.103 35.0053C110.49 34.98 110.03 34.819 119.779 30.9234C120.113 30.8106 120.432 30.656 120.728 30.4635C120.732 30.5394 113.511 25.0056 111.69 23.0532Z" fill="black"/>
</svg>
