<svg width="154" height="154" viewBox="0 0 154 154" fill="none" xmlns="http://www.w3.org/2000/svg">
<path d="M89.9777 115.806C89.8351 115.072 89.5277 114.379 89.0777 113.781C88.6278 113.183 88.0475 112.696 87.3814 112.355C86.7152 112.015 85.9801 111.831 85.232 111.817C84.4838 111.803 83.7418 111.959 83.0634 112.274C77.6339 114.43 79.9719 122.908 85.9977 121.785C86.6539 121.658 87.2786 121.403 87.8352 121.033C88.3917 120.663 88.8692 120.186 89.2395 119.629C89.6105 119.073 89.8665 118.448 89.993 117.792C90.1195 117.136 90.1141 116.461 89.9777 115.806ZM85.1262 121.115C78.9884 120.63 79.7603 112.598 84.9545 112.514C90.6162 112.421 90.9405 120.717 85.1262 121.115Z" fill="black"/>
<path d="M82.3449 116.822C82.3372 117.506 82.5963 118.165 83.0677 118.661C83.5384 119.157 84.1838 119.45 84.8668 119.477C85.2195 119.494 85.5721 119.438 85.9025 119.313C86.2328 119.188 86.5341 118.997 86.7878 118.751C87.0408 118.505 87.2408 118.209 87.3758 117.882C87.5107 117.556 87.5766 117.205 87.5705 116.852C87.582 113.384 82.4668 113.484 82.3449 116.822ZM83.7806 118.39C83.4012 118.12 83.1306 117.723 83.0172 117.271C82.9037 116.82 82.9551 116.342 83.162 115.925C83.369 115.507 83.7178 115.178 84.1463 114.995C84.574 114.811 85.0539 114.787 85.4985 114.926C85.8687 115.036 86.1976 115.255 86.4421 115.553C86.6874 115.852 86.8376 116.217 86.8729 116.602C86.9036 116.975 86.8277 117.349 86.6544 117.68C86.4812 118.011 86.2175 118.286 85.894 118.473C85.5705 118.66 85.2003 118.752 84.827 118.738C84.4529 118.722 84.0919 118.602 83.7837 118.39H83.7806Z" fill="black"/>
<path fill-rule="evenodd" clip-rule="evenodd" d="M75.6929 85.8121C79.6055 86.7941 83.3072 87.6373 86.6049 88.3065C87.9394 88.5778 89.1613 88.8055 90.2766 89.0132C100.026 90.8307 101.611 91.1259 99.1395 105.515C99.1249 105.599 99.1034 105.731 99.0766 105.895C98.9486 106.679 98.6979 108.206 98.4986 108.917C98.4151 109.215 98.3952 109.439 98.3814 109.601C98.3576 109.865 98.3492 109.959 98.1046 109.922C96.823 109.728 95.9537 109.621 95.168 109.525C93.3428 109.302 91.9646 109.134 86.913 108.043C86.2262 107.894 85.5516 107.724 84.8977 107.558C81.8607 106.79 79.2628 106.133 77.8455 108.32C77.2284 109.273 74.3523 118.959 75.0054 120.532C75.5619 121.874 76.2503 122.914 78.7615 123.863C83.6329 125.541 88.6377 126.806 93.7215 127.642C93.7621 127.649 93.7936 127.651 93.8127 127.667C93.8878 127.732 93.7713 128.021 93.2554 129.703C93.0063 130.515 92.7679 131.296 92.5387 132.047C88.0115 146.862 87.0494 150.011 79.3809 148.491C78.6235 148.341 77.8823 148.196 77.1502 148.052C70.3296 146.715 64.3409 145.542 53.7996 142.106C41.1515 137.984 30.4842 133.175 24.1456 129.618C16.3895 125.266 17 120.656 18.7805 107.213C19.0502 105.177 19.3468 102.937 19.6452 100.465C19.6497 100.427 19.6428 100.396 19.6554 100.38C19.7137 100.303 20.1846 100.543 24.0697 101.912C25.3149 102.351 25.7869 102.361 26.0875 102.593C26.5837 102.977 26.6125 103.966 28.8806 108.488C29.5214 109.767 33.2392 116.706 34.77 118.832C35.8615 120.348 42.263 121.822 44.0682 122.218C44.5018 122.313 44.5083 122.37 44.5241 122.509C44.5253 122.521 44.5266 122.531 44.5282 122.544C44.5388 122.637 44.5478 122.722 44.5563 122.803C44.634 123.536 44.6745 123.919 45.6389 127.494C45.8281 128.195 45.9939 128.554 46.0867 128.756C46.2003 129.002 46.2046 129.011 46.0084 129.122L45.9929 129.131C45.2079 129.578 44.731 129.848 44.5688 130.821C44.4585 131.304 44.4996 131.81 44.6864 132.269C44.8733 132.728 45.1968 133.118 45.6132 133.387C46.0296 133.656 46.5187 133.79 47.014 133.772C47.5093 133.754 47.987 133.583 48.3821 133.284C48.7772 132.984 49.0707 132.571 49.2227 132.099C49.3747 131.627 49.3778 131.12 49.2317 130.646C49.0856 130.172 48.7973 129.755 48.4059 129.451C48.0145 129.147 47.5391 128.97 47.044 128.946C46.889 128.937 46.785 128.932 46.7053 128.886C46.3706 128.691 46.4685 127.753 45.0387 122.601C44.9546 122.3 45.0083 122.167 44.9677 122.077C44.8604 121.838 44.0928 121.894 38.3651 119.918C37.6891 119.685 37.1773 119.516 36.786 119.387C35.6212 119.001 35.5245 118.97 35.3449 118.657C34.9677 118 26.2781 102.652 27.0071 102.859C31.5718 104.163 32.1121 104.228 32.3048 104.523C32.3446 104.583 32.3696 104.654 32.4121 104.747C32.7815 105.558 35.0613 109.897 36.2448 111.778C36.487 112.165 36.6602 112.414 36.7763 112.583C37.0091 112.92 37.0121 112.924 36.881 113.022C36.5228 113.297 36.2524 113.671 36.1025 114.097C35.9524 114.523 35.9295 114.984 36.0363 115.423C36.1432 115.862 36.3752 116.261 36.7042 116.571C37.0332 116.88 37.4451 117.088 37.8898 117.169C40.9752 117.613 41.6398 113.255 38.8794 112.624C37.6852 112.35 37.4888 112.782 37.3309 112.768C37.1024 112.748 36.9543 111.796 33.9735 106.422C33.313 105.23 32.9893 104.766 33.0803 104.661C33.1641 104.563 33.6003 104.772 34.4496 104.997C38.2796 106.009 38.674 105.942 38.8325 106.105C38.8724 106.146 38.8974 106.201 38.9584 106.292C40.1122 108.014 40.4644 108.553 40.8391 109.078C41.214 109.601 41.6116 110.109 42.8571 111.768C42.9748 111.924 43.0855 112.073 43.191 112.215C43.9482 113.235 44.4362 113.893 45.3169 114.297C51.0999 116.964 52.2812 116.545 52.8236 116.961C53.0714 117.151 53.1859 117.515 53.5451 118.427C54.8719 121.796 55.2566 122.223 55.1726 122.357C55.1502 122.393 55.0945 122.408 55.0146 122.452C54.4973 122.753 54.0895 123.211 53.8505 123.759C53.6115 124.308 53.5538 124.919 53.6858 125.503C53.8178 126.087 54.1326 126.613 54.5844 127.006C55.0363 127.398 55.6015 127.637 56.198 127.686C56.7945 127.735 57.3912 127.592 57.9012 127.279C58.4111 126.966 58.8078 126.498 59.0337 125.943C59.2595 125.389 59.3026 124.777 59.1568 124.197C59.0109 123.617 58.6837 123.098 58.2226 122.716C57.8788 122.423 57.4682 122.219 57.0271 122.123C56.586 122.026 56.1278 122.039 55.693 122.161C55.5887 122.177 55.5633 122.083 55.4714 121.747C55.3203 121.194 54.9892 119.982 53.8302 117.511C53.7436 117.209 53.581 116.934 53.3578 116.713C53.1347 116.491 52.8584 116.33 52.5555 116.246C49.8424 115.278 48.7814 114.884 48.2261 114.679C47.7427 114.5 47.6423 114.463 47.1689 114.312C45.0502 113.642 44.9406 113.502 44.7244 113.202C43.7601 111.859 42.4437 110.069 41.3421 108.57C40.5277 107.463 39.8307 106.515 39.4804 106.026C39.1401 105.551 39.1188 105.545 37.1367 105.013C35.3279 104.528 31.8863 103.606 25.0792 101.489C25.0601 101.489 20.9268 100.193 19.79 99.692C20.0902 97.1502 20.1626 97.1854 20.3519 97.2767C20.3681 97.2843 20.3852 97.2928 20.4033 97.2997C28.5631 100.448 35.911 102.212 39.5208 103.079C40.6504 103.351 41.414 103.534 41.7218 103.644C42.0062 103.746 43.0624 105.195 44.2582 106.836C45.2316 108.172 46.2977 109.633 47.1153 110.6C47.5511 111.114 47.7674 111.194 51.0363 112.395C51.2976 112.491 51.5783 112.595 51.8801 112.706C58.5704 115.169 59.3437 115.299 59.358 115.487C59.3608 115.525 59.3321 115.566 59.3157 115.629C59.2015 116.14 59.2258 116.671 59.3859 117.169C59.5459 117.667 59.8362 118.112 60.2263 118.46C60.6166 118.808 61.0926 119.046 61.6054 119.149C62.1181 119.251 62.6489 119.215 63.1428 119.043C63.6368 118.871 64.0759 118.571 64.4149 118.173C64.7538 117.775 64.9802 117.294 65.0708 116.778C65.1613 116.263 65.1126 115.734 64.9298 115.244C64.7469 114.754 64.4365 114.322 64.0307 113.992C63.4853 113.555 62.804 113.324 62.1054 113.338C61.4069 113.352 60.7354 113.61 60.2079 114.069C59.6519 114.539 59.6272 114.835 59.4919 114.9C59.186 115.046 58.315 114.01 49.4663 111.132C48.7807 110.909 48.4654 110.901 48.1978 110.783C47.6068 110.524 47.2487 109.734 43.6474 104.923C43.0824 104.169 42.815 103.752 42.4478 103.458C41.6941 102.856 40.5204 102.779 35.4905 101.408C35.2537 101.343 21.0334 97.0383 20.3174 96.7669C20.3239 96.7056 20.3297 96.6443 20.3354 96.5829C20.3492 96.435 20.363 96.2863 20.388 96.1399C20.6219 94.7693 20.6493 94.4795 20.7492 94.4519C20.7783 94.4435 20.8135 94.4581 20.8617 94.4741C21.3509 94.639 21.9687 94.8544 22.6435 95.0905C24.4274 95.7144 26.6102 96.4771 27.871 96.7983C29.3353 97.1709 30.3917 97.4652 31.1806 97.6852C33.3387 98.287 33.4967 98.3307 34.5323 97.8937C38.936 96.0356 39.2863 95.1487 39.8051 95.0353C40.2969 94.9279 40.9404 95.5167 45.3307 96.632C46.3117 96.9447 47.3214 97.1586 48.3448 97.2705C48.3844 97.2728 48.4083 97.269 48.4292 97.2751C48.5753 97.3173 48.5755 97.8577 52.7862 104.546C53.0756 105.003 54.0669 105.297 55.119 105.609C55.4605 105.711 55.8083 105.814 56.1406 105.926C60.4459 107.36 61.1767 107.212 61.3151 107.433C61.3473 107.486 61.3476 107.557 61.3532 107.673C61.365 108.314 61.5997 108.932 62.017 109.42C62.4342 109.908 63.0082 110.235 63.6405 110.346C64.2727 110.457 64.9239 110.346 65.4825 110.029C66.0411 109.712 66.4723 109.212 66.7021 108.612C67.9417 105.246 63.0779 103.247 61.5747 106.577C61.51 106.721 61.494 106.822 61.4353 106.868C61.212 107.048 60.3716 106.456 53.9015 104.541C53.2369 104.345 52.8843 103.723 52.4213 102.889C50.8008 99.9757 49.9151 98.5921 49.4776 97.9083C49.0749 97.279 49.0519 97.2429 49.1849 97.1532C49.4171 96.9961 49.8195 96.7769 50.4527 96.4319C50.9695 96.1514 51.64 95.7865 52.4972 95.3028C53.4197 94.7815 54.0466 94.4082 54.4874 94.1453C55.4729 93.5581 55.5279 93.5252 55.8754 93.6371C61.0809 95.3143 63.4356 95.8225 64.4883 96.0494C65.2915 96.2227 65.3369 96.2326 65.3124 96.4733C65.2587 96.9999 65.373 97.5296 65.6389 97.9865C65.9049 98.4441 66.3087 98.8052 66.7926 99.019C67.3014 99.2413 67.8703 99.2866 68.4076 99.1463C68.9451 99.0068 69.4197 98.6894 69.7553 98.2471C70.091 97.8048 70.268 97.2621 70.258 96.7071C70.248 96.1521 70.0515 95.6163 69.7001 95.1863C69.3205 94.6896 68.7617 94.3607 68.1431 94.271C67.5245 94.1806 66.8951 94.3354 66.3894 94.7033C65.7784 95.1924 65.6079 95.5075 65.5167 95.6769C65.4363 95.8256 65.4175 95.8601 65.2127 95.7987C64.9697 95.729 64.1431 95.4668 63.0745 95.1288C60.6277 94.3538 56.9118 93.1764 56.0256 92.9809C55.0452 92.764 49.6395 96.0862 48.8799 96.6665C48.5774 96.8972 48.5489 96.8888 46.3352 96.2518C45.8278 96.1061 45.2053 95.9268 44.4385 95.7098C44.3403 95.6822 40.7376 94.6581 40.4754 94.5477C39.9484 94.327 39.7006 94.4634 38.3968 95.1824C38.0584 95.3687 37.6488 95.5948 37.1447 95.8639C35.2744 96.8612 34.6699 97.167 34.3664 97.3211C34.1747 97.4185 34.103 97.4545 33.9084 97.5656C33.8697 97.5879 33.8395 97.6086 33.8073 97.6262C33.529 97.7757 33.0987 97.6415 25.809 95.4362C21.6594 94.1813 20.8379 94.0817 20.7857 93.8249C20.7627 93.7122 20.8893 93.5689 20.946 93.2822C21.0593 92.7118 21.024 92.3546 21.1841 92.2021C21.5957 91.8089 23.2993 92.7693 32.1445 94.9479C32.2251 94.9678 32.2858 94.9831 32.3473 94.987C32.6698 95.0077 33.0131 94.6972 36.3652 92.8843C39.1509 91.3773 39.1652 91.3834 39.3465 91.4562C39.3569 91.4601 39.3679 91.4647 39.38 91.4693C41.5675 92.1484 43.7914 92.7042 46.0413 93.1342C46.2723 93.184 46.4667 93.2331 46.6362 93.2753C47.2716 93.4347 47.5569 93.506 48.1064 93.2216C54.8033 89.7499 55.4433 88.7419 55.7353 88.8346C55.7983 88.8546 55.845 88.9251 55.9329 89.0339C56.2351 89.4195 56.6515 89.6993 57.1224 89.8335C57.5933 89.9676 58.0946 89.9492 58.5546 89.7813C59.0146 89.6135 59.4097 89.3045 59.6835 88.899C59.9572 88.4928 60.0956 88.0106 60.0787 87.5215C60.0618 87.0317 59.8907 86.5603 59.5896 86.1739C59.2885 85.7876 58.8731 85.507 58.4026 85.3714C57.9322 85.2349 57.4308 85.2518 56.9703 85.4181C56.5098 85.5845 56.1136 85.8919 55.8386 86.2974C55.3547 86.9428 55.4317 87.5491 55.484 87.9615C55.5162 88.2153 55.539 88.3954 55.4147 88.4636C48.675 92.1883 48.1666 92.8161 47.6271 92.8445C47.5246 92.8498 47.421 92.833 47.2732 92.8123C46.3164 92.6774 42.1257 91.5728 41.335 91.3643C41.268 91.3466 41.2255 91.3359 41.2113 91.3321C39.0653 90.7732 38.9679 90.8238 38.4487 91.0929C38.4156 91.1105 38.3808 91.1282 38.3436 91.1473C34.1604 93.2676 33.3138 94.1852 32.3788 94.2863C31.2011 94.4136 29.8832 93.2461 21.5807 91.5544C21.4778 91.5329 21.4032 91.5352 21.3609 91.4999C21.2512 91.4064 21.361 91.0546 21.7662 89.3574C23.2602 82.6241 25.3538 76.0374 28.022 69.677C29.1289 67.1627 30.1239 66.2827 36.4541 66.3241C41.678 66.3613 48.1554 67.185 54.8905 68.4081C54.8821 68.1502 54.8793 67.892 54.8819 67.6337C50.3403 66.7913 46.166 66.1871 42.8808 65.9891C42.4441 65.9628 41.8261 65.9323 41.3342 65.9081C40.9241 65.888 40.6017 65.8721 40.5452 65.8665C39.2546 65.7317 37.9567 65.6805 36.6595 65.7132C36.5196 65.7132 36.3783 65.7129 36.2359 65.7127C33.1627 65.7068 29.5591 65.7 28.124 68.3593C23.3645 77.1746 19.7992 93.1066 18.4425 103.805C18.3147 104.813 18.1903 105.775 18.0711 106.698C15.5749 126.019 15.3933 127.425 36.4602 136.529C45.6019 140.46 55.0328 143.682 64.6693 146.166C69.717 147.524 79.0244 149.232 79.2705 149.237C79.3663 149.24 79.5403 149.263 79.7757 149.292C81.1999 149.476 84.8533 149.949 86.706 148.051C86.8969 147.856 87.4611 147.916 88.2131 147.995C89.8466 148.168 92.3662 148.435 93.8779 146.386C95.7069 143.907 98.1943 135.602 99.0797 132.619C99.4154 131.487 99.6255 130.665 99.7788 130.067C100.141 128.651 100.184 128.481 100.819 128.391C102.445 128.161 103.452 126.54 103.981 124.979C105.437 120.677 107.064 114.957 107.017 110.415C107.004 109.06 106.304 108.487 105.816 108.088C105.519 107.845 105.299 107.666 105.362 107.413C105.937 105.094 107.044 96.5569 107.394 93.437C108.56 83.1407 104.485 81.6858 98.6933 79.6169C98.3047 79.4781 97.9084 79.3363 97.5052 79.1891C97.5052 79.1891 92.5579 77.4368 89.126 76.2761C89.0095 76.5022 88.8892 76.7254 88.7642 76.9447C92.5855 78.2026 98.0793 80.0323 99.1648 80.4256C101.842 81.3922 104.512 82.5765 105.706 84.4653C106.515 85.7454 106.619 86.6055 106.778 87.9293C106.794 88.065 106.811 88.2053 106.83 88.3509C107.305 92.1599 104.824 105.893 103.979 109.824H103.975C103.897 110.188 103.88 110.388 103.772 110.482C103.604 110.628 103.216 110.519 102.043 110.366C102.042 110.366 102.063 110.266 102.103 110.079C102.529 108.097 105.056 96.3491 104.245 89.579C104.183 88.6591 103.938 87.7615 103.523 86.939C103.107 86.1165 102.531 85.3859 101.827 84.7903C99.5182 82.8693 96.5179 81.8537 93.6793 80.8939C93.3359 80.7774 92.994 80.6624 92.6568 80.5459C91.7384 80.2301 89.8673 79.6537 87.4496 78.94C86.322 80.4271 84.9836 81.7103 83.4881 82.759C89.379 84.4093 93.8326 85.6504 94.6276 85.8535C95.5267 86.0835 95.7406 86.6423 94.1132 86.374C92.5824 86.1211 89.2617 85.2847 82.4877 83.4113C80.4341 84.6539 78.1283 85.4771 75.6929 85.8121ZM55.1251 70.7892C49.8783 69.7814 44.6028 68.9181 39.2643 68.6437C29.7215 68.1524 30.3132 69.5636 35.4821 72.1238C42.5163 75.6038 52.0176 79.0159 61.5906 81.9127C60.8664 81.3247 60.1869 80.6801 59.5589 79.9848C58.5296 78.8442 57.6516 77.5809 56.9436 76.2255C52.5634 74.9514 47.7186 73.4458 46.7971 72.7846C46.7636 72.7615 46.7394 72.7273 46.7288 72.688C46.7183 72.6488 46.7219 72.607 46.7392 72.5702C46.7565 72.5333 46.7863 72.5039 46.8233 72.487C46.8603 72.4701 46.9021 72.467 46.9412 72.478C46.9412 72.478 50.8473 73.5795 56.4265 75.151C56.2423 74.7337 56.0735 74.3089 55.9209 73.8776C55.5647 72.8711 55.2989 71.8375 55.1251 70.7892ZM95.1841 141.822C95.9284 139.609 99.0574 129.993 99.1916 128.661H99.1962C99.2123 128.504 99.1218 128.491 98.3292 128.377C98.1989 128.358 98.0494 128.336 97.8785 128.311C97.6616 128.277 97.5665 128.231 97.509 128.26C97.4492 128.29 97.4308 128.401 97.3603 128.694C96.7517 131.213 93.2869 143.388 91.4962 144.657C91.1183 144.927 90.6867 145.114 90.2314 145.205C89.7753 145.296 89.3054 145.29 88.8524 145.187C88.6224 145.133 88.5435 145.316 88.3825 145.69C88.2353 146.031 88.0199 146.531 87.5569 147.154C87.4067 147.355 87.6612 147.367 88.8754 147.423C89.2073 147.437 89.6105 147.456 90.0973 147.483C90.2184 147.471 90.3364 147.462 90.4514 147.452C92.3279 147.296 93.3719 147.21 95.1841 141.822ZM106.291 112.766C106.314 112.477 106.335 112.198 106.401 111.789H106.406C106.546 111.191 106.517 110.566 106.321 109.984C106.124 109.402 105.77 108.886 105.296 108.495C105.207 108.405 105.175 108.468 105.148 108.55C105.125 108.606 105.104 108.664 105.087 108.723C104.843 109.952 104.747 110.283 104.843 110.355C104.885 110.387 104.965 110.368 105.087 110.352C105.718 110.276 105.734 110.88 105.01 111.042C104.062 111.255 101.819 111.053 97.9866 110.633C92.0681 109.984 87.9808 109.036 85.094 108.367C79.909 107.165 78.5975 106.862 77.509 110.797C77.4768 110.913 77.4377 111.053 77.3932 111.214C76.8589 113.135 75.507 117.992 75.529 119.428C75.4278 121.228 76.7509 122.324 78.4419 122.965C85.9111 125.796 98.2947 127.86 100.308 127.649C102.73 127.391 103.401 124.876 104.007 122.604C104.062 122.4 104.115 122.199 104.17 122.002C106.125 114.897 106.213 113.764 106.291 112.766ZM47.3533 129.681C47.1061 129.627 46.8501 129.625 46.6024 129.678L46.6063 129.679C46.3695 129.707 46.1407 129.782 45.9332 129.9C45.7258 130.018 45.5438 130.175 45.398 130.364C45.2521 130.553 45.1451 130.769 45.0835 130.999C45.0218 131.229 45.0066 131.47 45.0387 131.706C45.737 134.136 48.8224 133.568 48.7396 131.282C48.721 131.03 48.6487 130.784 48.5272 130.562C48.4058 130.339 48.2383 130.146 48.0358 129.995C47.8333 129.842 47.6006 129.735 47.3533 129.681ZM38.2363 116.689C40.8709 116.634 40.4961 112.9 38.2731 113.108C37.8012 113.116 37.3508 113.307 37.0174 113.641C36.6841 113.975 36.4942 114.426 36.4878 114.898C36.4879 115.366 36.6708 115.815 36.9975 116.149C37.3242 116.484 37.7688 116.677 38.2363 116.689ZM56.3882 122.71C53.6033 122.684 53.3251 127.033 56.481 127.125C57.0466 127.102 57.582 126.863 57.9778 126.458C58.3737 126.054 58.6002 125.513 58.6112 124.948C58.6187 124.653 58.5664 124.36 58.4576 124.086C58.3487 123.812 58.1855 123.563 57.9777 123.354C57.77 123.145 57.5221 122.98 57.2489 122.869C56.9757 122.758 56.6829 122.705 56.3882 122.71ZM60.5203 114.624C60.1001 115.048 59.864 115.622 59.863 116.219C59.8803 116.809 60.1225 117.369 60.5398 117.787C60.9572 118.204 61.5183 118.446 62.1082 118.463C62.4119 118.469 62.7138 118.414 62.9956 118.301C63.2774 118.187 63.5335 118.019 63.7482 117.803C63.9631 117.589 64.1322 117.333 64.2456 117.051C64.359 116.769 64.4141 116.467 64.4079 116.164C64.3924 115.567 64.1424 114.999 63.7121 114.585C63.2817 114.171 62.7055 113.943 62.1082 113.95C61.5109 113.958 60.9404 114.199 60.5203 114.624ZM64.0989 109.678C66.6332 109.804 67.159 105.768 64.1488 105.477C63.873 105.474 63.5992 105.525 63.3431 105.627C63.087 105.73 62.8537 105.882 62.6563 106.075C62.459 106.268 62.3015 106.497 62.1929 106.75C62.0844 107.004 62.0268 107.277 62.0235 107.552C62.0202 107.828 62.0713 108.102 62.1738 108.359C62.2764 108.615 62.4283 108.848 62.6211 109.045C62.8138 109.243 63.0435 109.4 63.2971 109.508C63.5506 109.617 63.8231 109.675 64.0989 109.678ZM67.5953 94.8536C67.2644 94.8904 66.9505 95.0199 66.6899 95.2269C66.4378 95.4109 66.2374 95.6562 66.1085 95.9406C65.9795 96.2242 65.9264 96.5369 65.9541 96.8474C65.9819 97.1586 66.0897 97.4568 66.267 97.7136C66.4442 97.9696 66.685 98.1766 66.9657 98.3123C67.2464 98.4479 67.5576 98.5093 67.8689 98.4893C68.1802 98.4694 68.481 98.369 68.7419 98.1981C69.0029 98.0271 69.2153 97.7918 69.3582 97.5143C69.5011 97.2368 69.5698 96.9279 69.5575 96.6159C69.5585 96.2832 69.4655 95.9567 69.2891 95.6738C69.1127 95.3917 68.8601 95.1648 68.5605 95.0199C68.2608 94.8743 67.9262 94.8168 67.5953 94.8536ZM56.5253 86.361C56.1988 86.6822 56.0075 87.116 55.9904 87.5737H55.9919C56.0049 88.0344 56.1976 88.4713 56.5286 88.7909C56.8596 89.1114 57.3029 89.2892 57.7634 89.2869C58.5721 89.4241 59.4828 88.4705 59.4659 87.5737C59.4387 87.126 59.2491 86.7029 58.9326 86.3847C58.6161 86.0666 58.1944 85.875 57.7465 85.8451C57.2886 85.8551 56.8517 86.039 56.5253 86.361Z" fill="black"/>
<path d="M73.014 49.0654C93.7108 49.8274 98.4718 75.7091 81.7848 84.4302C79.18 85.8008 76.2893 86.5382 73.3465 86.5834C70.4037 86.6279 67.4916 85.9794 64.8463 84.6893C62.201 83.3984 59.8969 81.5035 58.1208 79.1563C56.3446 76.8099 55.1463 74.0774 54.6229 71.1811C52.4781 59.4422 62.0615 48.6622 73.014 49.0654ZM72.1593 85.951C81.8101 86.5014 90.4031 79.4576 91.2179 68.7312C91.4341 57.9995 83.6145 50.2919 74.1201 49.7055C71.7318 49.5618 69.3386 49.8919 67.0783 50.6765C64.818 51.4612 62.7352 52.6851 60.9496 54.2777C59.164 55.8703 57.711 57.8002 56.674 59.9565C55.6371 62.1128 55.0367 64.4527 54.9075 66.8419C54.7782 69.231 55.1226 71.6222 55.9209 73.8777C56.7191 76.1333 57.9555 78.2089 59.5589 79.985C61.1622 81.7603 63.1009 83.2022 65.2633 84.2263C67.4258 85.2496 69.7694 85.836 72.1593 85.951Z" fill="black"/>
<path d="M64.9057 80.8028C61.5197 78.7246 59.081 75.4045 58.1109 71.552C57.1408 67.6994 57.7164 63.6202 59.7146 60.1864C66.8734 47.8817 85.2981 51.2944 87.7181 65.0693C90.0699 78.4656 75.6811 87.4365 64.9057 80.8028ZM58.505 71.0476C59.0778 73.4706 60.2533 75.7097 61.9225 77.5572C63.5917 79.4046 65.7004 80.8005 68.0531 81.6153C81.7459 86.2606 93.0686 70.59 84.494 59.022C75.4787 46.8607 55.0716 55.1517 58.505 71.0476Z" fill="black"/>
<path d="M68.2995 75.2485C65.7292 75.1113 65.9784 75.2892 66.2919 71.9179C66.5663 68.9567 67.1351 69.2917 65.1298 69.76C63.9953 70.0253 63.7715 70.1303 63.799 69.4749C63.8122 68.2825 63.9712 67.0963 64.2728 65.9426C64.2891 65.8453 64.3324 65.7544 64.398 65.6805C64.4634 65.6067 64.5484 65.5528 64.643 65.5249C67.096 64.5812 67.3819 64.9806 67.4739 64.559C69.1764 56.7555 69.3903 56.5869 70.2496 56.5447C71.6859 56.4763 73.1249 56.4929 74.5591 56.5946C75.062 56.6298 75.1547 56.9372 75.1348 57.0368C74.3805 60.763 73.985 62.2992 73.985 62.6051C74.3882 62.5828 73.6147 62.707 76.9255 61.9052C77.3854 61.7941 77.4229 62.2647 77.3417 62.7362C76.592 67.0664 77.4643 66.1358 73.476 67.5102C73.1318 67.629 72.885 67.5915 72.819 68.0652C72.7071 68.8754 72.5032 69.3883 72.4496 69.9456C72.3867 70.591 72.1016 69.9854 80.8755 70.2192C81.9862 70.2483 81.7747 70.6278 81.4312 72.1195C80.6586 75.4693 80.8885 75.0791 79.0496 75.1857C75.4704 75.4116 71.8811 75.4326 68.2995 75.2485ZM80.3243 74.4582C80.4685 73.9469 81.1484 71.5453 81.2519 71.0241C81.3385 70.5864 81.6106 70.6914 78.641 70.5642C78.3781 70.5527 76.6794 70.6577 73.8301 70.6822C71.2285 70.7052 71.9643 71.0525 72.3775 67.8383C72.4473 67.2925 72.714 67.2396 74.2172 66.7283C76.9055 65.8139 76.057 66.3581 76.4142 65.1814C76.6825 64.3007 76.7154 63.3808 76.8948 62.4855C76.9837 62.0432 76.0209 62.6388 73.8639 63.2589C73.0866 63.482 73.2974 63.1631 74.4372 58.3645C74.7439 57.069 74.8075 57.0729 74.4878 57.0507C74.2786 57.0361 72.1284 57.0131 71.9191 57.0116C69.5045 56.9962 69.8977 56.9349 69.4769 58.4105C67.2179 66.3481 69.0476 64.6663 65.6441 65.6881C64.8247 65.935 64.5794 65.2474 64.3134 68.8708C64.2988 69.0763 64.1432 69.2672 64.2414 69.4841C66.8545 68.9015 67.1834 68.6409 67.1297 69.281C67.0531 70.1839 66.8124 71.8435 66.6897 72.7304C66.4184 74.6882 66.3938 74.6008 66.9526 74.6307C72.8359 74.9396 80.2017 74.9021 80.3259 74.4582H80.3243Z" fill="black"/>
<path d="M46.1461 17.5977C70.4879 19.0894 70.721 50.6114 50.1705 54.852C47.3883 55.464 44.5033 55.4336 41.7346 54.7633C38.9659 54.093 36.3864 52.8003 34.1922 50.9835C31.9981 49.1667 30.247 46.8737 29.0721 44.2785C27.8972 41.6834 27.3292 38.8546 27.4117 36.0071C27.4707 31.9812 29.1126 27.1151 32.0876 24.0489C36.5275 19.4604 39.7838 18.0331 46.1461 17.5977ZM46.1852 54.6849C48.6436 54.7119 51.0814 54.2353 53.3487 53.2846C55.6159 52.3339 57.6646 50.9292 59.3685 49.1569C61.0725 47.3846 62.3955 45.2823 63.2564 42.9794C64.1172 40.6766 64.4975 38.2218 64.3739 35.7664C64.2343 32.1984 63.0485 28.7503 60.9642 25.8511C58.8799 22.9519 55.989 20.7295 52.6514 19.4606C49.3138 18.1917 45.6767 17.9323 42.1927 18.7145C38.7088 19.4969 35.5318 21.2863 33.0571 23.8604C30.5823 26.4344 28.9192 29.6792 28.2744 33.1913C27.6297 36.7033 28.0319 40.3274 29.4311 43.6125C30.8302 46.8977 33.1645 49.6989 36.1435 51.6677C39.1224 53.6363 42.6145 54.6856 46.1852 54.6849Z" fill="black"/>
<path d="M59.1876 28.8039C61.1272 32.2542 61.6642 36.3188 60.6871 40.1545C59.71 43.9901 57.2938 47.3024 53.9398 49.4042C43.8573 55.6654 31.0866 48.1179 30.7823 37.7465C30.2787 20.457 51.417 15.3257 59.1876 28.8039ZM48.9901 50.7403C56.7361 48.7978 60.657 42.6148 60.6885 36.2594C60.7345 26.8308 50.9832 19.5011 42.0475 22.2591C38.2048 23.4457 34.6787 25.6281 32.724 29.9085C26.9871 42.4669 38.7559 53.3059 48.9901 50.7403Z" fill="black"/>
<path d="M48.9584 45.8143C47.8721 45.7029 46.8066 45.4408 45.7926 45.0355C45.5779 44.9305 45.6929 44.9964 45.0674 46.4712C44.7608 47.191 44.471 48.068 43.8647 47.8219C41.0737 46.6889 41.2814 47.2217 42.6045 43.8749C42.6658 43.7216 42.4205 43.6879 42.2979 43.6327C42.1377 43.5561 42.1699 43.5285 41.5574 44.8875C40.9058 46.334 40.9671 46.5295 40.5218 46.4375C40.2627 46.3846 38.7526 45.6978 38.5157 45.579C38.1455 45.3942 38.1324 45.2992 38.2344 44.9351C38.4716 44.1334 38.7813 43.3549 39.1596 42.6094C39.2899 42.348 39.3896 42.5082 36.2805 41.1935C35.1038 40.6961 35.3537 40.4531 36.4836 38.0507C36.7205 37.5471 36.8538 37.6797 38.6844 38.3949C40.2175 38.9935 38.7871 39.1944 40.7494 34.8787C40.951 34.4349 42.1384 31.6799 42.9724 29.8256C43.0552 29.6409 43.2078 29.7674 41.0484 28.7616C40.6245 28.5639 40.5747 28.429 40.695 27.9184C40.9143 27.143 41.2393 26.4014 41.6609 25.7146C41.8563 25.3612 41.9223 25.2478 43.7704 25.9515C45.6615 26.672 45.5404 26.9028 45.6761 26.5271C46.7293 23.6097 46.5752 23.8557 48.139 24.4529C48.5869 24.5978 49.0205 24.7836 49.4345 25.0078C49.6706 25.1941 49.6154 25.063 48.5276 27.9683C48.4586 28.1538 49.0443 28.3377 49.0826 28.1369C49.2445 27.5349 49.4658 26.9504 49.7434 26.3922C50.122 25.4655 50.2991 25.3881 50.6502 25.4448C51.4101 25.6081 52.1283 25.9261 52.7598 26.3792C52.9805 26.626 52.8525 27.0752 52.7207 27.4432C51.9587 29.5719 51.9395 29.3327 52.2232 29.4454C57.4802 31.535 56.0092 36.3934 53.3109 37.4405C53.0526 37.5409 52.7674 37.5425 52.9276 37.7203C54.2369 39.1499 54.7597 40.4032 53.997 42.3326C52.7636 45.4563 50.5352 45.6733 48.9584 45.8143ZM52.4225 43.8979C54.4155 41.8719 54.1296 38.9682 52.3611 37.7694C52.0208 37.5394 52.1465 37.3025 52.3259 37.255C52.7904 37.2035 53.2362 37.0424 53.6263 36.7851C54.0165 36.5278 54.3401 36.1815 54.5703 35.7748C55.4089 34.3084 55.5201 32.3867 54.3005 31.1671C53.5391 30.5369 52.6738 30.044 51.7433 29.7106C51.3938 29.5481 51.4681 29.3726 51.6084 29.0299C52.7958 26.1301 53.0096 26.8069 50.6686 25.9024C50.4187 25.8066 50.4992 25.8066 49.6614 27.7421C49.2727 28.6413 49.2528 28.8651 48.983 28.7195C47.8186 28.0932 47.6998 28.8728 48.9546 25.5C49.0688 25.1933 49.2275 25.3137 47.2751 24.6261C46.9685 24.5188 47.0903 24.3455 46.2663 26.2918C45.9336 27.0783 45.9497 27.4263 45.3909 27.1856C41.6662 25.5812 42.0518 25.6686 41.9238 25.9883C40.9142 28.5079 40.7425 28.1752 41.5313 28.5102C43.8034 29.4761 43.7191 29.2768 43.371 30.0433C39.677 38.0975 40.0956 39.3638 39.4616 39.1269C36.1977 37.9127 36.9535 37.9917 36.6154 38.7666C36.3671 39.337 36.1601 39.9257 35.9309 40.5037C35.8688 40.6616 35.5982 40.4845 39.3206 42.0452C39.8372 42.2613 39.664 42.3702 39.1803 43.5783C38.5127 45.2432 38.4866 45.1696 38.8308 45.3122C41.4593 46.403 40.1247 46.4275 41.9391 43.1973C42.0158 43.0563 42.0924 43.0248 42.9586 43.4273C43.1786 43.5292 43.0897 43.796 42.9586 44.1233C41.8609 46.8629 41.9039 46.5686 42.2182 46.7004C44.1161 47.4969 44.0441 47.5069 44.1782 47.2094C45.4315 44.4299 45.0981 45.0071 45.279 44.6522C45.673 43.8466 49.3363 47.0301 52.4225 43.8995V43.8979Z" fill="black"/>
<path d="M50.0558 40.0376C50.1117 41.0985 48.7879 42.2813 47.369 42.0045C45.9373 41.7221 44.5458 41.2645 43.2258 40.6424C42.8908 40.4852 42.831 40.3587 42.9353 39.9931C43.1481 39.0911 43.4538 38.2136 43.8475 37.3746C44.2369 36.6341 44.4438 35.7939 44.913 35.922C45.7746 36.1604 46.6151 36.4699 47.4257 36.8472C48.9918 37.5685 49.9638 38.2921 50.0558 40.0376ZM47.6695 41.6236C47.9769 41.5966 48.2784 41.5224 48.5633 41.4036C48.7856 41.3409 48.9891 41.2245 49.1558 41.0646C49.3225 40.9048 49.4473 40.7063 49.5192 40.4868C50.298 38.148 47.4441 37.314 45.1498 36.4348C44.87 36.3275 44.8179 36.5176 44.683 36.805C44.1904 37.8652 43.7582 38.9524 43.3883 40.0613C43.3553 40.1594 43.373 40.1832 43.4565 40.2146C46.1923 41.3169 45.5208 41.2066 47.6695 41.6236Z" fill="black"/>
<path d="M49.4675 35.0452C48.7776 35.1326 47.4323 34.563 46.2089 34.1031C45.5228 33.8455 45.5957 33.6033 45.6631 33.3634C45.9531 32.3261 46.3629 31.3262 46.8842 30.3838C47.0375 30.0971 47.138 30.0657 47.4745 30.1538C48.0986 30.3487 48.6988 30.6133 49.2636 30.9426C50.4502 31.519 51.1869 32.0158 51.3716 32.7555C51.4668 33.0384 51.4881 33.341 51.4332 33.6343C51.3784 33.9278 51.2495 34.2023 51.0586 34.4318C50.8678 34.6613 50.6214 34.8381 50.3429 34.9455C50.0644 35.0528 49.763 35.0872 49.4675 35.0452ZM51.052 33.4132C51.0737 33.1682 51.0345 32.9217 50.9376 32.6955C50.8408 32.4695 50.6894 32.271 50.497 32.1177C50.0065 31.732 49.4621 31.4203 48.8811 31.1925C47.2154 30.5371 47.3288 30.3991 47.1824 30.7786C46.1093 33.5719 45.9375 33.4883 46.2572 33.6225C47.4591 34.1238 49.9819 35.282 50.6817 34.2702C50.8862 34.0268 51.0149 33.7289 51.052 33.4132Z" fill="black"/>
<path d="M105.627 21.7095C105.631 24.4509 105.005 27.1565 103.796 29.6172C102.587 32.0779 100.829 34.2278 98.6575 35.9007C96.4851 37.5737 93.9578 38.7248 91.2702 39.2653C88.5827 39.8058 85.807 39.7211 83.1571 39.0178C80.5071 38.3144 78.0549 37.0113 75.9891 35.209C73.9234 33.4068 72.2997 31.1538 71.2433 28.624C70.1871 26.0941 69.7267 23.3554 69.8976 20.6193C70.0685 17.8832 70.8663 15.223 72.2291 12.8443C81.1349 -2.93051 105.61 3.25402 105.627 21.7095ZM87.774 4.4713C76.2665 4.34022 67.4712 15.9565 71.3445 27.2739C75.4287 39.2083 90.6202 42.8762 99.4217 34.4902C111.4 23.0785 102.834 4.64377 87.774 4.4713Z" fill="black"/>
<path d="M87.5985 7.31206C90.46 7.31459 93.2564 8.16377 95.6365 9.75267C98.0159 11.3416 99.8725 13.5991 100.972 16.2411C102.071 18.8829 102.364 21.791 101.813 24.5991C101.263 27.4071 99.8939 29.9894 97.8794 32.021C95.8642 34.0525 93.2924 35.4423 90.4891 36.0154C87.6859 36.5884 84.7753 36.3192 82.1245 35.2414C79.4738 34.1636 77.2018 32.3256 75.5934 29.9588C73.9853 27.592 73.1134 24.8022 73.0878 21.9409C73.0466 20.0185 73.393 18.1075 74.1061 16.3219C74.8193 14.5362 75.8847 12.9124 77.2385 11.5472C78.593 10.1821 80.2082 9.10356 81.9881 8.37595C83.768 7.64833 85.676 7.28651 87.5985 7.31206ZM78.1193 11.5281C75.6151 13.7916 74.0211 16.8897 73.6353 20.2432C73.2494 23.5966 74.0982 26.9758 76.0229 29.749C83.5756 40.6217 101.156 36.0163 101.485 21.6465C101.744 10.3928 87.3693 3.17422 78.1193 11.5265V11.5281Z" fill="black"/>
<path d="M89.0248 33.1762C87.3024 32.3568 84.0829 29.9191 82.06 28.2596C80.671 27.1197 80.8687 27.191 81.0113 26.9235C81.6131 25.7896 82.3765 24.7498 83.2795 23.8373C83.5095 23.6074 83.7464 23.6924 84.299 24.0673C85.2764 24.6943 86.2154 25.3787 87.1115 26.117C89.6028 28.0334 87.6619 27.5559 92.137 22.8922C92.692 22.3142 95.0967 24.7012 95.5382 25.1642C95.5888 25.2006 95.6302 25.2475 95.6608 25.3017C95.6907 25.3559 95.7091 25.4161 95.7137 25.4781C95.7183 25.5399 95.7091 25.6021 95.6869 25.6602C95.6654 25.7183 95.6309 25.7709 95.5865 25.8143C94.5271 27.2845 90.4981 32.3729 89.0248 33.1762ZM95.0944 25.6357C95.3328 25.3359 95.4615 25.6058 92.5034 23.2456C92.3187 23.0976 92.5034 22.9389 88.988 27.5014C88.617 27.9828 88.8102 27.9108 86.765 26.3646C83.3493 23.7791 83.5455 24.0757 83.416 24.2428C83.2864 24.4099 82.7368 25.1389 81.4697 26.9035C81.2742 27.1757 81.1631 26.9802 83.2144 28.5133C84.2362 29.2798 88.0436 32.2081 89.2188 32.7538C89.0317 32.7577 89.9056 32.159 95.0944 25.6357Z" fill="black"/>
<path d="M94.4021 15.7349C94.4872 16.5321 92.7571 18.4048 92.1354 19.1154C91.8802 19.4074 91.8947 19.468 91.5023 19.192C86.7182 15.8575 87.1567 15.6046 86.8876 15.7426C85.9402 17.273 84.8754 18.727 83.7011 20.0912C83.1108 20.8294 83.3331 20.7895 79.9005 18.3281C79.5571 18.0821 79.4406 18.2177 81.2665 15.81C81.7939 15.114 83.8053 12.5844 84.266 12.0539C86.151 9.87385 86.0943 10.0647 86.4607 10.2594C88.8515 11.5357 93.7766 14.8334 94.4021 15.7349ZM94.0449 15.9181C93.9637 15.8031 94.1216 15.9181 93.1312 15.163C90.9871 13.491 88.7074 12 86.3158 10.7056C85.99 10.517 86.1985 10.3506 84.44 12.5667C79.6989 18.5412 80.224 18.0407 80.4908 18.2392C83.1737 20.2092 83.0832 20.2629 83.2665 20.0023C83.6099 19.5193 82.4056 21.241 85.5408 16.9545C86.7734 15.2681 86.6906 15.1063 86.9804 15.3079C87.8282 15.892 91.6655 18.8885 91.7782 18.8831C91.8909 18.8777 93.9077 16.1511 94.0449 15.9181Z" fill="black"/>
<path d="M81.9109 22.3626C81.2785 23.5852 80.446 24.694 79.4495 25.6434C79.3667 25.721 79.2601 25.767 79.1467 25.7735C79.034 25.7799 78.9221 25.7463 78.8316 25.6787C77.9141 25.0994 77.0747 24.406 76.3319 23.6151C75.9747 23.2862 75.9249 23.1552 78.0582 20.1534C78.0819 20.0999 78.118 20.0524 78.1624 20.0143C78.2077 19.9762 78.2598 19.9485 78.3165 19.9331C78.3732 19.9177 78.4323 19.915 78.4905 19.9253C78.548 19.9356 78.6024 19.9584 78.6507 19.9924C79.9155 20.5034 81.0347 21.3173 81.9109 22.3626ZM78.5189 20.4086C78.2123 20.6953 76.522 23.1168 76.6408 23.297C76.6953 23.3798 78.456 24.8301 78.5281 24.8922C79.0854 25.3521 79.1413 25.3858 79.2532 25.2417C81.4939 22.2813 81.5406 22.5074 81.2079 22.2522C80.1693 21.4634 78.7634 20.5435 78.5189 20.4086Z" fill="black"/>
<path d="M99.4447 20.0476C98.9472 21.1699 98.2581 22.1974 97.4095 23.0846C97.2393 23.2609 97.1205 23.415 96.9135 23.3046C95.8128 22.7341 94.8232 21.9708 93.9915 21.051C93.9301 21.0048 93.8887 20.9364 93.8772 20.8603C93.865 20.7842 93.8834 20.7066 93.9286 20.6439C94.4445 19.5288 95.1696 18.5234 96.0657 17.6828C96.3777 17.3899 96.4574 17.3577 96.8223 17.5961C97.861 18.217 98.7556 19.0528 99.4447 20.0476ZM98.9947 20.0591C98.1906 19.2743 97.3367 18.5424 96.4375 17.8683C95.6786 18.7712 94.9742 19.7182 94.328 20.7045C94.1854 20.9023 94.3027 20.8417 94.8837 21.2779C97.1129 22.952 97.0416 23.0218 97.1834 22.8025C97.9538 21.6328 98.8744 20.2568 98.9947 20.0591Z" fill="black"/>
<path d="M87.2895 18.8931C88.424 19.417 89.4527 20.1445 90.3243 21.0394C90.509 21.2487 90.509 21.2885 90.3503 21.5185C88.2331 24.5786 88.0967 24.4046 87.7302 24.1439C84.6395 21.9462 84.6909 22.1072 85.1631 21.369C85.5716 20.729 86.5827 19.1966 87.2895 18.8931ZM88.0928 23.8649C88.2093 23.7193 88.4401 23.3651 88.6754 23.0531C90.1257 21.1306 90.1318 21.3361 89.8061 21.1046C87.1346 19.2051 87.3186 19.2242 87.1362 19.4557C86.5797 20.1602 85.9097 21.0011 85.4705 21.5837C85.285 21.829 85.2022 21.7446 86.3221 22.5702C86.3643 22.6047 87.9035 23.7415 88.0928 23.8649Z" fill="black"/>
<path d="M116.516 35.5763C137.22 35.2413 143.361 60.821 127.154 70.4205C124.626 71.928 121.778 72.8186 118.842 73.0201C115.906 73.2215 112.964 72.7282 110.253 71.5803C107.543 70.4322 105.142 68.6618 103.244 66.4123C101.346 64.1629 100.004 61.4979 99.3282 58.6333C96.5648 47.03 105.554 35.7533 116.516 35.5763ZM117.619 72.4519C127.286 72.4887 135.493 65.001 135.736 54.2463C135.383 43.5269 127.163 36.2363 117.653 36.1558C115.259 36.1381 112.886 36.594 110.67 37.4971C108.454 38.4002 106.438 39.7326 104.739 41.4178C103.04 43.103 101.691 45.1077 100.769 47.3164C99.848 49.525 99.3727 51.8941 99.3704 54.2872C99.3681 56.6804 99.8388 59.0504 100.756 61.2607C101.674 63.4711 103.019 65.4782 104.716 67.1666C106.411 68.8549 108.425 70.1911 110.639 71.0983C112.853 72.0055 115.226 72.4659 117.619 72.4527V72.4519Z" fill="black"/>
<path d="M110.103 67.6969C106.61 65.8019 103.998 62.6157 102.824 58.8195C101.651 55.0234 102.009 50.9187 103.822 47.3833C110.321 34.7176 128.895 37.1491 132.044 50.773C135.108 64.0274 121.216 73.7488 110.103 67.6969ZM103.204 58.2952C103.905 60.6834 105.198 62.856 106.963 64.6114C108.727 66.3668 110.907 67.6482 113.299 68.337C127.222 72.2464 137.697 55.9955 128.517 44.9043C118.862 33.2405 98.9218 42.6039 103.201 58.2952H103.204Z" fill="black"/>
<path d="M125.094 55.7004C125.126 56.1006 124.429 56.2822 116.768 58.565C115.956 58.8073 110.049 52.4579 109.886 52.1904C109.66 51.8186 109.733 51.7772 110.699 50.6619C112.551 48.5156 116.033 44.6292 118.235 42.9052C120.239 41.3376 120.209 40.9888 120.541 41.6841C122.382 45.5513 124.714 53.945 125.094 55.7004ZM117.717 50.6067C118.177 50.5776 117.978 50.9363 118.628 48.0863C120.139 41.4579 120.011 42.1655 119.96 41.9654C119.366 42.1279 110.869 50.8949 110.574 51.5871C110.732 51.6278 114.757 50.7968 117.717 50.6067ZM124.516 54.9868C124.46 54.592 120.507 42.3816 120.35 42.2559C120.239 42.4092 120.306 42.4023 120.258 42.6147C118.301 51.3096 118.175 50.5439 119.035 51.0375C122.797 53.1984 124.419 55.3363 124.516 54.9868ZM117.972 51.0321C117.447 50.8604 110.571 52.0501 110.384 52.1015C110.476 52.3161 112.001 53.6928 113.399 55.0849C116.389 58.0599 116.383 58.1894 116.514 57.9894C116.576 57.9119 117.736 51.7872 117.972 51.0321ZM116.938 58.112C119.168 57.429 119.002 57.291 124.546 55.6912C124.811 55.6146 124.807 55.6659 122.421 53.9243C119.63 51.8876 119.483 51.7987 118.607 51.2337C118.276 51.0206 118.417 50.8167 117.519 55.0052C116.801 58.3481 116.848 57.9802 116.936 58.112H116.938Z" fill="black"/>
<path d="M109.472 53.3379C109.762 53.5725 114.788 58.9161 115.874 59.9103C116.075 60.0943 123.912 57.2465 124.341 57.2235C124.725 57.2028 124.407 57.6175 124.145 57.9004C119.412 63.0087 118.808 63.3636 115.7 65.8779C114.719 66.6713 114.566 66.9878 114.3 66.4237C112.323 62.3449 110.654 58.1249 109.303 53.7986C109.199 53.5196 109.337 53.449 109.472 53.3379ZM114.991 65.8649C117.828 63.5178 120.545 61.0299 123.133 58.4109C123.494 58.0537 123.832 57.7417 123.318 57.9188C115.833 60.4936 116.139 60.1962 116.05 60.6124C114.839 66.2527 114.89 65.687 114.991 65.8649ZM110.014 54.4831C109.981 54.5828 114.203 65.4302 114.536 65.8426C114.601 65.6387 114.799 64.3731 115.04 63.2095C115.623 60.3802 115.789 60.4193 115.547 60.177C110.5 55.1278 110.475 54.8166 110.014 54.4831Z" fill="black"/>
</svg>
