<svg width="154" height="154" viewBox="0 0 154 154" fill="none" xmlns="http://www.w3.org/2000/svg">
<path d="M33.5823 56.3874L33.8889 56.2035C33.6337 56.175 33.3771 56.2424 33.1689 56.3925C32.9606 56.5427 32.8156 56.7649 32.7621 57.016C32.7391 56.809 33.429 56.4871 33.5823 56.3874ZM36.6715 58.4571C37.1467 59.2237 36.8784 59.4306 36.1579 59.6606C36.8554 59.7526 37.208 59.4076 37.2004 59.0474C37.2004 58.4801 36.2269 57.2843 35.6673 56.832C35.972 57.3917 36.3072 57.9342 36.6715 58.4571ZM33.7279 57.6062C33.5669 57.6982 33.6666 57.8285 33.8889 58.3345C33.897 58.3582 33.9103 58.3799 33.9278 58.3979C33.9453 58.4159 33.9666 58.4297 33.9902 58.4384C34.0138 58.4471 34.039 58.4504 34.064 58.4481C34.089 58.4458 34.1131 58.438 34.1347 58.4251C34.1563 58.4123 34.1748 58.3948 34.1887 58.3739C34.2027 58.3531 34.2118 58.3293 34.2154 58.3045C34.219 58.2796 34.2171 58.2543 34.2096 58.2303C34.2022 58.2063 34.1895 58.1843 34.1725 58.1658L33.9502 57.6676C33.9398 57.6487 33.9258 57.6322 33.9089 57.6189C33.8921 57.6055 33.8727 57.5957 33.852 57.59C33.8313 57.5843 33.8096 57.5828 33.7883 57.5856C33.767 57.5884 33.7465 57.5954 33.7279 57.6062ZM36.8631 57.1157C36.9627 57.3073 37.2464 57.1157 37.1544 56.9547C37.0624 56.7937 37.0087 56.6251 36.9244 56.4718C36.8401 56.3184 36.5411 56.4718 36.6408 56.6404C36.7404 56.809 36.7941 56.9623 36.8631 57.1157ZM36.9627 60.5575C36.424 60.8216 35.8056 60.8736 35.2303 60.7031C35.3323 60.8456 35.4696 60.9592 35.6287 61.0327C35.7878 61.1062 35.9633 61.1372 36.1379 61.1225C36.3126 61.1078 36.4804 61.048 36.625 60.949C36.7696 60.8499 36.886 60.715 36.9627 60.5575ZM143.13 52.3094L148.618 8.19443L131.279 6.04043L129.547 20.2983L128.872 20.2139L130.643 5.95611L113.549 3.83276C111.096 21.1491 111.632 16.1972 104.35 77.6822L121.644 79.8362C121.644 80.0738 121.536 80.7944 121.521 80.848L104.25 78.694C104.25 78.694 100.418 107.585 100.333 108.206C100.28 108.628 98.8693 108.053 135.648 113.212L143.038 53.0453L125.714 50.8989L125.806 50.1324L143.13 52.3094ZM106.443 62.8571C106.972 58.6258 108.152 49.1205 108.221 48.5916L125.277 50.715C124.748 54.977 123.56 64.5129 123.499 64.9805L106.443 62.8571ZM117.887 110.092L100.832 107.969L102.618 93.6111L119.673 95.7344C119.666 95.8188 117.872 110.207 117.887 110.115V110.092ZM136.775 97.6048C131.724 96.9763 120.831 95.5658 120.195 95.4815L121.981 81.124C144.64 83.9449 136.246 82.9484 138.646 83.2473C138.117 87.5324 136.837 97.1066 136.775 97.6278V97.6048ZM140.524 68.0697C139.995 72.3317 138.822 81.8676 138.761 82.4271C133.709 81.8062 122.717 80.3881 122.08 80.3115C122.609 76.0494 123.798 66.5136 123.867 65.954C128.91 66.6055 139.887 68.016 140.524 68.0927V68.0697ZM125.331 50.255L108.275 48.1394C108.811 43.8773 110 34.3415 110.061 33.7819L127.117 35.8976C125.959 45.2265 125.453 49.3275 125.331 50.255ZM127.247 35.085L110.168 32.9617L111.916 18.7038L129.01 20.6969C128.711 23.1345 127.247 35.1923 127.247 35.085ZM144.295 37.2697C139.251 36.6411 128.358 35.223 127.722 35.1463L129.501 20.8808L146.15 22.9965C145.644 27.2355 144.341 36.7408 144.272 37.2697H144.295ZM15.806 58.0125C16.0786 57.5273 16.4524 57.1063 16.9021 56.7784C16.3595 58.1323 16.2874 59.6293 16.6975 61.0291C17.1076 62.4289 17.976 63.6504 19.1635 64.4975C19.3704 64.6508 19.6004 64.3672 19.4931 64.1679C18.8772 62.8372 18.6871 61.3487 18.9488 59.9059C19.6294 61.1418 20.4753 62.279 21.4631 63.2864C21.6777 63.5163 22.0304 63.1637 21.8081 62.9414C20.8729 61.8836 21.0415 59.7449 21.1412 58.4341C21.3635 55.5979 22.9732 54.6014 23.4408 52.9456C23.4574 52.8836 23.449 52.8176 23.4175 52.7617C23.386 52.7058 23.3338 52.6645 23.2722 52.6467C21.581 52.4572 19.878 52.8816 18.4736 53.8425C16.9405 54.7853 16.2199 56.2495 15.4074 57.7672C15.3946 57.8178 15.3983 57.8712 15.4179 57.9196C15.4376 57.968 15.4722 58.0088 15.5166 58.0362C15.5611 58.0635 15.6131 58.076 15.6652 58.0717C15.7172 58.0675 15.7665 58.0467 15.806 58.0125Z" fill="black"/>
<path d="M102.465 19.7771C102.02 18.3743 100.732 14.9325 98.969 14.6335C97.7042 14.4189 97.6046 16.0056 97.4359 16.8565C95.9028 23.8628 89.4178 27.1206 84.4506 31.421C80.9551 34.4872 79.33 38.3582 77.8353 42.5973C77.0687 42.5129 76.3022 43.2182 75.7809 43.7548C73.0443 46.3917 70.6757 49.3276 68.1461 52.1255C65.7391 54.7931 62.1976 57.1387 62.4889 61.0558C58.5412 64.8042 54.6471 68.66 50.5921 72.8223C48.0625 69.4265 45.6402 67.3722 40.9872 66.46C39.5253 66.1613 38.0288 66.0684 36.5412 66.184C36.2039 66.023 35.8743 65.3715 35.7133 65.0419C35.5843 64.6928 35.4333 64.3522 35.2611 64.0223C35.9491 63.9787 36.5989 63.6905 37.0931 63.2098C38.688 63.5228 40.2193 64.1006 41.6234 64.9192C40.3816 60.2739 38.6262 48.469 31.1217 49.2126C30.2248 49.2969 29.397 49.8335 28.5231 49.8488C28.3343 49.8467 28.1461 49.8699 27.9635 49.9178C22.5977 51.3896 22.268 57.7826 24.4374 61.945C24.5503 62.1964 24.7118 62.4231 24.9126 62.6119C25.5412 63.1331 30.1482 63.7157 30.2785 64.283C30.8304 67.1269 30.0102 68.0237 28.1092 69.0509C24.8743 70.7603 22.2297 72.3624 19.6694 75.122C14.5872 80.7178 14.1579 87.3331 17.5614 94.1707C18.5119 96.0641 20.6276 100.303 22.82 100.51C23.5777 100.513 24.323 100.317 24.9816 99.9429C25.0506 99.9429 25.5029 99.6133 25.5105 99.6209C25.9935 99.8892 27.3656 100.633 27.0436 101.085C26.8367 101.376 26.3384 101.085 26.1315 100.893C26.1048 100.873 26.0725 100.862 26.0391 100.861C26.0057 100.86 25.9729 100.869 25.9451 100.888C25.9173 100.906 25.8959 100.933 25.884 100.964C25.8721 100.996 25.8701 101.03 25.8785 101.062L26.1315 102.089C26.1928 102.35 26.4534 102.81 26.2924 103.07C26.1315 103.331 25.4262 102.135 25.3496 101.974C25.3242 101.93 25.2848 101.895 25.2376 101.876C25.1904 101.857 25.1381 101.853 25.0889 101.867C24.7517 101.967 25.0889 102.633 25.1809 102.833C25.1809 102.925 25.4799 103.599 25.3572 103.668C25.2346 103.737 25.0736 103.5 25.0276 103.446C24.744 103.086 24.675 102.22 24.3377 102.22C23.8625 102.22 24.5064 103.546 24.0234 103.308C23.8471 103.224 23.7398 102.894 23.6708 102.725C23.4652 102.022 23.3924 101.286 23.4562 100.556C23.3578 101.087 23.3192 101.627 23.3412 102.166C23.2172 102.272 23.1042 102.39 23.0039 102.518C16.3273 109.946 11.8583 114.622 7.97188 119.927C7.13634 121.069 4.24645 124.02 4.75237 125.569C5.38861 127.531 8.69244 125.569 9.64296 125.017C13.4757 122.886 16.8332 120.08 20.2367 117.351C30.9684 108.797 43.4632 98.1108 55.3907 86.9269C58.975 85.9507 62.3063 84.2119 65.1565 81.8293C66.7751 80.4369 68.2609 78.8971 69.5948 77.23C69.803 77.0293 69.9502 76.7738 70.0194 76.493C70.0885 76.2123 70.0769 75.9177 69.9858 75.6432H70.7523C71.11 75.6543 71.4653 75.5818 71.79 75.4314C72.1147 75.2811 72.3998 75.057 72.6227 74.777C72.7147 74.5701 72.6227 74.3248 72.2471 74.2941C72.3927 74.2941 72.684 73.9722 72.7607 73.8725C73.144 73.3819 72.8603 72.7533 72.2318 73.0063C71.9405 73.129 72.1091 73.1213 72.2318 72.7457C72.2576 72.6685 72.2632 72.586 72.248 72.5061C72.2329 72.4262 72.1974 72.3515 72.1451 72.2892C72.0928 72.2269 72.0254 72.179 71.9493 72.1502C71.8732 72.1215 71.791 72.1127 71.7105 72.1248C71.1413 72.2378 70.5861 72.4126 70.0548 72.646C70.772 71.9874 71.4406 71.2778 72.0555 70.5227C72.5537 69.8864 73.4966 70.0858 74.2478 69.7561C76.4555 68.8516 78.0806 66.4906 79.7133 64.8502C82.4192 62.106 85.5851 59.653 88.0687 56.7171C88.521 56.1959 89.6018 55.138 89.6018 54.2795C89.6018 54.2795 92.0624 53.2523 92.2541 53.168C103.07 48.1854 106.282 31.6893 102.465 19.7771ZM29.6423 61.5234C29.4735 61.6255 29.28 61.6795 29.0827 61.6795C28.8854 61.6795 28.6919 61.6255 28.5231 61.5234C27.3426 60.9331 27.3656 59.3157 28.5231 59.7297C28.7684 59.814 29.052 60.1589 29.2896 59.9673C29.5273 59.7757 29.443 59.3311 29.5733 59.1011C30.1099 58.1429 32.2869 56.1805 31.9879 53.5743C33.139 53.3635 34.3244 53.4426 35.4374 53.8042C35.9988 54.1167 36.4428 54.6039 36.7022 55.1917C36.5285 55.0959 36.3245 55.0711 36.1329 55.1225C35.9414 55.174 35.7773 55.2977 35.675 55.4676C35.7517 55.4676 36.7022 55.184 36.7482 55.2837C37.4198 56.4451 37.8962 57.7088 38.1586 59.0244C38.4806 61.7304 36.5335 63.7464 34.9774 63.731C34.9486 63.7289 34.9197 63.7346 34.8937 63.7474C34.8678 63.7603 34.8459 63.78 34.8302 63.8043C34.8145 63.8286 34.8056 63.8567 34.8046 63.8857C34.8035 63.9146 34.8103 63.9433 34.8241 63.9687L35.0771 64.4516C34.1266 65.8237 31.5126 65.9847 30.6924 65.5784C30.5774 64.0147 29.7956 61.3854 29.6116 61.5234H29.6423ZM26.7524 69.9554C28.2165 69.0892 30.1252 68.5603 30.5851 66.7896C31.4677 67.0051 32.3827 67.0545 33.2834 66.9352C33.7606 66.9012 34.2248 66.7644 34.6443 66.5341C35.0637 66.3039 35.4284 65.9858 35.7133 65.6014C35.7171 65.5632 35.7171 65.5247 35.7133 65.4865C35.8701 65.7161 36.0556 65.9247 36.2652 66.1074C36.3234 66.1551 36.3849 66.1987 36.4492 66.2377C36.55 66.2796 36.6581 66.3012 36.7673 66.3012C36.8765 66.3012 36.9846 66.2796 37.0855 66.2377C36.9313 66.2733 36.7696 66.2571 36.6255 66.1917C37.7472 66.1458 38.8705 66.2229 39.9753 66.4216C40.2745 69.9709 39.2839 73.509 37.1851 76.3868C34.2009 73.7345 30.6825 71.7531 26.8673 70.5763C26.492 70.5093 26.1133 70.4632 25.7328 70.4384C26.0625 70.2927 26.4151 70.1624 26.7217 69.9784L26.7524 69.9554ZM27.8715 97.1603C27.5802 97.4822 25.5719 99.3603 25.6715 99.6669L25.5259 99.6516C25.9298 99.1519 26.1942 98.5542 26.2924 97.9192L30.9914 92.7526L31.7579 92.8523C30.7767 93.9484 30.5928 94.1401 27.8409 97.1833L27.8715 97.1603ZM47.5259 75.9652C46.8973 74.0795 44.9656 70.4997 44.8046 70.7373C44.6436 70.9749 46.7133 74.0718 47.3496 76.1032C43.2102 80.4035 33.0457 91.4342 32.0186 92.5457C30.2372 92.414 28.4747 92.0954 26.76 91.5951C26.5471 89.634 26.0967 87.7061 25.4186 85.8537C26.8597 84.7575 29.2513 82.4042 29.1363 82.3046C29.0213 82.2049 26.714 84.7422 25.3036 85.7617C25.2943 85.7738 25.2892 85.7886 25.2892 85.8039C25.2892 85.8191 25.2943 85.8339 25.3036 85.846C26.0833 88.1381 26.5223 90.5323 26.6067 92.9519C26.645 94.6307 26.6067 97.9345 25.4032 99.2913C25.0379 99.6117 24.6104 99.8533 24.1474 100.001C23.6845 100.149 23.196 100.199 22.7126 100.15C21.5168 99.8662 20.6966 98.4251 20.0527 97.4899C17.7328 94.2396 16.3223 90.4291 15.967 86.4516C15.4841 79.7213 19.7154 74.3554 25.4262 70.6913C26.5136 70.7714 27.5729 71.074 28.5384 71.5805C31.765 72.8818 34.7246 74.7657 37.2694 77.138C38.4584 75.6413 39.3281 73.917 39.8252 72.0713C40.3222 70.2256 40.4359 68.2976 40.1593 66.4063C45.0882 67.1729 47.6179 69.2272 50.3621 73.0216C49.4192 74.0105 48.4687 74.984 47.5259 75.9652ZM77.6513 43.0725C77.2524 44.2002 77.0881 45.3975 77.1684 46.591C76.9384 45.5332 76.5704 43.1645 77.6589 43.0725H77.6513ZM69.6408 76.4941C69.5488 76.6781 68.422 77.9889 68.4833 77.9122C66.4038 80.5343 63.791 82.6847 60.8178 84.2209C59.3899 85.0792 57.88 85.793 56.3105 86.3519C55.659 86.5666 67.9391 74.938 69.0813 73.7192C69.7558 76.3178 69.7558 76.2488 69.6408 76.4941ZM71.9405 72.5464C71.9227 72.6372 71.8861 72.7234 71.8332 72.7993C71.5853 73.1151 71.2747 73.3761 70.921 73.5659C70.8817 73.5988 70.855 73.6442 70.8453 73.6945C70.8357 73.7448 70.8437 73.7969 70.868 73.842C70.8924 73.8871 70.9315 73.9223 70.9789 73.9419C71.0263 73.9614 71.0789 73.964 71.1279 73.9492C72.4617 73.3819 72.5461 73.3359 72.6227 73.3206C72.6227 73.9108 71.2429 74.2481 71.2736 74.5394C71.3043 74.8307 71.6492 74.6621 72.0401 74.5931C72.1091 74.5931 72.4387 74.5394 72.4541 74.5931C72.4694 74.6467 72.2164 74.9074 72.2854 74.8307C71.6492 75.3979 70.852 75.3136 69.9858 75.4056L69.4799 73.4356C69.4339 73.2516 69.2959 73.4356 69.7405 73.0063C69.7456 73.0288 69.7554 73.05 69.7694 73.0684C69.7834 73.0868 69.8012 73.102 69.8215 73.1129C69.8419 73.1238 69.8643 73.1302 69.8874 73.1316C69.9105 73.1331 69.9335 73.1296 69.9551 73.1213C71.4652 72.6077 71.7259 72.4544 71.9175 72.5464H71.9405ZM87.5474 56.6328C85.7001 58.6948 83.1168 60.9178 81.2464 62.6196C78.4332 65.1568 76.0645 69.0586 73.0367 69.6411C71.8751 69.7448 70.7048 69.604 69.601 69.2277C68.4973 68.8514 67.4846 68.248 66.6283 67.4565C63.4088 64.1986 60.7105 60.3046 67.0269 54.0572C69.1809 51.9262 71.1586 49.6112 73.2053 47.3729C74.1252 46.3764 75.7579 44.1764 76.5858 43.5401C76.4676 44.0655 76.434 44.6063 76.4861 45.1422C76.9537 51.9722 85.7691 57.292 88.6206 55.3833C88.2817 55.8223 87.9156 56.2396 87.5244 56.6328H87.5474ZM84.6192 54.6781C85.7307 55.0307 86.3286 54.7777 87.4631 54.6781C87.9364 54.6358 88.4072 54.5693 88.8736 54.4788C88.0994 55.8126 86.3286 55.4753 84.5962 54.6781H84.6192ZM102.572 32.6858C102.097 32.6858 102.005 31.9729 101.621 31.6739C101.464 31.5813 101.282 31.5391 101.1 31.5528C100.917 31.5665 100.744 31.6355 100.602 31.7506C100.035 32.1645 99.6129 33.4217 97.8115 34.5408C97.0833 34.9931 96.4394 35.0927 95.8952 34.3952C94.8373 33.0537 95.7955 31.26 95.7495 29.7116C95.7644 29.3092 95.6704 28.9102 95.4774 28.5567C95.2845 28.2033 94.9998 27.9084 94.6534 27.7032C93.7335 27.2739 92.3537 27.7875 91.8171 26.8523C91.2805 25.9171 92.7447 25.2426 93.2582 24.7903C95.6192 22.713 97.6582 20.007 98.0185 16.8795C98.0027 16.652 98.0379 16.4239 98.1214 16.2117C98.205 15.9996 98.3348 15.8087 98.5014 15.653C99.153 15.2314 99.9119 16.021 100.257 16.7262C101.56 19.4437 102.419 22.3527 102.802 25.3422C102.901 26.1931 103.875 32.6398 102.549 32.6858H102.572Z" fill="black"/>
<path d="M75.6735 134.813C74.9265 134.45 74.1391 134.178 73.3278 134.001C72.8372 133.878 71.994 133.855 71.7487 133.341C71.4114 132.636 71.6414 131.525 71.6184 130.758C71.4344 123.66 68.8435 117.075 65.1334 111.104C65.1569 110.62 65.2158 110.138 65.3097 109.663C65.2331 106.972 62.8568 105.6 61.1627 103.89C58.733 101.342 56.4817 98.6301 54.4247 95.7727C54.1181 95.3588 50.9752 92.0779 51.0825 91.641C50.316 92.4075 37.07 104.419 26.0394 113.365C26.0394 119.06 22.8505 123.215 24.6749 125.883C26.8366 129.049 31.1752 126.649 34.4944 125.676C35.3529 138.186 34.4944 137.726 34.1035 142.448C33.8965 144.832 33.3369 147.17 34.824 149.301C34.8643 149.369 34.9227 149.425 34.9927 149.462C35.4644 149.44 35.9287 149.336 36.3648 149.155C36.2191 148.642 36.0505 148.128 35.9432 147.622C36.0352 147.998 38.5724 148.159 38.8944 148.189C39.5536 148.251 43.8846 148.105 42.8115 146.603C42.3209 145.92 39.5996 145.07 39.4003 144.978C42.5432 139.451 44.8428 132.214 46.0386 126.097C47.7595 125.994 49.4003 125.335 50.7146 124.219C51.0672 123.89 54.7313 119.467 54.7926 119.513C59.5759 122.732 64.6505 126.941 66.7585 132.306C68.0693 135.649 66.8581 136.323 69.748 138.623C70.024 138.837 71.2275 138.477 70.9975 138.033L70.6296 137.32C70.8289 137.688 73.3125 136.921 73.6421 136.806C74.3292 136.58 74.9819 136.26 75.5815 135.856C76.2714 135.357 76.0951 135.043 75.6735 134.813ZM42.9418 135.58C42.4719 136.214 41.811 136.682 41.0561 136.913C39.4846 137.442 36.5028 137.511 35.3453 136.017C35.3927 132.531 35.2443 129.045 34.9007 125.576C38.6414 124.549 41.24 126.496 45.6784 126.143C45.0154 129.35 44.0951 132.498 42.9265 135.557L42.9418 135.58ZM53.4282 111.05C48.8289 112.2 50.7453 115.028 45.8853 117.949C44.3522 118.869 43.0031 119.528 41.2017 119.114C39.1627 118.647 37.461 117.65 35.3223 118.309C33.4596 118.884 31.8498 120.164 29.8798 120.402C27.7028 120.655 26.3613 119.375 25.7404 117.558C25.8017 117.259 25.863 116.96 25.9167 116.661C25.9858 117.244 26.1772 117.805 26.4784 118.308C26.7796 118.812 27.1838 119.246 27.6644 119.582C29.4428 120.739 31.6198 119.528 33.4136 118.677C36.3111 117.29 37.4073 117.481 39.7299 118.279C42.2519 119.137 43.0721 119.145 45.1954 117.903C45.9943 117.462 46.7512 116.949 47.4568 116.37C48.6679 115.304 49.1202 113.771 50.1244 112.537C51.8491 110.383 54.808 110.521 57.1996 109.946C60.0895 109.249 61.8756 107.263 61.3237 104.251L61.7989 104.711C61.9025 105.904 61.5884 107.096 60.9102 108.083C60.2321 109.07 59.232 109.791 58.0811 110.123C56.571 110.575 54.969 110.636 53.4282 111.019V111.05ZM68.5369 128.014C67.534 128.619 66.3579 128.873 65.1947 128.734C62.4004 125 58.948 121.808 55.0073 119.313C55.7633 118.487 56.6584 117.799 57.6519 117.282C60.3655 115.948 63.6846 115.343 65.0184 111.495C67.4407 115.542 69.932 120.494 70.7139 125.162C70.3369 126.334 69.5682 127.341 68.5369 128.014ZM70.1313 24.7212C72.8986 22.3602 76.808 18.8264 80.679 18.8571C76.7647 17.6261 72.5518 17.734 68.7055 19.1637C66.4059 20.1142 60.3655 23.9163 62.1362 27.2201C63.7613 30.8152 68.6135 26.0626 70.1313 24.7212ZM68.5216 19.6619C72.1857 18.2822 75.6505 18.6884 79.2533 18.8264C75.6351 19.018 72.6226 21.8466 70.001 24.0696C68.6442 25.2194 64.1599 30.1254 62.4275 27.1358C60.6261 23.9623 66.3292 20.4898 68.5216 19.6619ZM72.3006 32.5323V32.4863C69.6484 33.6668 66.9348 35.6445 66.4442 38.6954C66.2756 39.7456 66.3982 41.8306 67.9773 41.4856C69.1655 41.225 69.7097 39.6842 70.1773 38.6954C71.0665 36.8097 71.8867 34.8626 72.5919 32.9079H72.5383C69.0811 38.8334 69.1578 40.7881 67.8317 41.1177C66.6895 41.3936 66.4749 39.8605 66.5285 39.094C66.9578 36.0278 70.07 34.1957 72.3006 32.5323Z" fill="black"/>
</svg>
