<svg width="154" height="154" viewBox="0 0 154 154" fill="none" xmlns="http://www.w3.org/2000/svg">
<path d="M85.4528 58.2562C85.3854 58.3137 85.3214 58.3751 85.2612 58.4401C85.0082 58.6471 84.6326 58.8157 84.4947 58.6778C84.4271 58.5654 84.3755 58.4441 84.3413 58.3175C84.1614 57.7397 83.9516 57.1717 83.7128 56.6158C83.6986 56.5944 83.6764 56.5796 83.6513 56.5746C83.6261 56.5696 83.6 56.5747 83.5787 56.589C83.5573 56.6032 83.5425 56.6253 83.5375 56.6505C83.5324 56.6756 83.5376 56.7018 83.5518 56.7231C83.6915 57.4991 83.95 58.2489 84.3184 58.946C84.4389 59.0158 84.5744 59.0557 84.7136 59.0624C84.8527 59.0692 84.9914 59.0426 85.1182 58.9848C85.245 58.9271 85.3561 58.8398 85.4423 58.7304C85.5285 58.621 85.5873 58.4926 85.6138 58.3558C85.6138 58.2562 85.5525 58.2025 85.4528 58.2562ZM87.7601 58.8157C87.8061 60.3488 86.9935 61.0003 85.6061 60.8317C85.5831 60.8317 85.5608 60.8397 85.5429 60.8543C85.5251 60.8689 85.5129 60.8892 85.5084 60.9118C85.5039 60.9344 85.5073 60.9579 85.5182 60.9782C85.529 60.9985 85.5465 61.0145 85.5678 61.0233C85.8855 61.1384 86.2288 61.1633 86.5598 61.0954C86.8908 61.0275 87.1965 60.8694 87.4433 60.6385C87.69 60.4077 87.868 60.1131 87.9578 59.7873C88.0475 59.4616 88.0454 59.1174 87.9517 58.7927C87.9437 58.7721 87.929 58.7548 87.9101 58.7434C87.8911 58.7321 87.8689 58.7273 87.847 58.7299C87.825 58.7326 87.8046 58.7424 87.7889 58.758C87.7731 58.7735 87.763 58.7938 87.7601 58.8157ZM86.3113 53.7643C86.1427 53.8103 86.089 54.1246 86.204 54.4695C86.319 54.8144 86.5336 55.0521 86.7099 55.0061C86.8862 54.9601 86.9246 54.6458 86.8172 54.3009C86.7099 53.9559 86.48 53.7183 86.3113 53.7643ZM87.1009 52.4919C87.1545 52.5378 87.2388 52.4918 87.1928 52.4152C86.4263 51.3804 85.2305 51.7177 85.1462 52.7371C85.1462 52.7985 85.2382 52.8215 85.2612 52.7371C85.5755 51.8786 86.3497 51.756 87.1009 52.4919ZM80.961 55.7879C80.7923 55.8569 80.7846 56.1789 80.961 56.5008C81.1373 56.8227 81.3672 57.0374 81.5358 56.9684C81.7045 56.8994 81.7045 56.5851 81.5358 56.2632C81.3672 55.9412 81.1219 55.7266 80.961 55.7879ZM79.7652 55.19C79.7652 55.19 79.8112 55.19 79.8342 55.144C79.8486 55.0067 79.8915 54.8739 79.96 54.754C80.0286 54.6341 80.1213 54.5298 80.2323 54.4476C80.3433 54.3654 80.4701 54.3072 80.6048 54.2767C80.7395 54.2462 80.879 54.2439 81.0146 54.2702C81.4285 54.1936 80.1944 53.703 79.7958 54.6535C79.7192 54.7301 79.6502 55.1211 79.7652 55.19Z" fill="black"/>
<path d="M66.9414 87.8749C66.9414 88.4624 67.1732 89.0259 67.5858 89.4413C67.9983 89.8568 68.5579 90.0902 69.1413 90.0902C69.7248 90.0902 70.2844 89.8568 70.6969 89.4413C71.1095 89.0259 71.3413 88.4624 71.3413 87.8749C71.3413 87.2874 71.1095 86.7239 70.6969 86.3084C70.2844 85.893 69.7248 85.6596 69.1413 85.6596C68.5579 85.6596 67.9983 85.893 67.5858 86.3084C67.1732 86.7239 66.9414 87.2874 66.9414 87.8749Z" fill="black"/>
<path d="M115.041 96.2684C117.072 95.5019 128.072 94.5284 139.953 95.6399C139.971 95.6345 139.986 95.6238 139.996 95.6093C140.007 95.5948 140.013 95.5773 140.013 95.5594C140.013 95.5414 140.007 95.5239 139.996 95.5094C139.986 95.4949 139.971 95.4842 139.953 95.4789C128.455 94.2294 117.356 95.1263 114.965 96.1228C114.955 96.1278 114.946 96.1347 114.94 96.143C114.933 96.1513 114.927 96.1609 114.924 96.1712C114.921 96.1815 114.92 96.1924 114.921 96.2031C114.922 96.2139 114.925 96.2244 114.93 96.2339C114.935 96.2435 114.942 96.252 114.95 96.2589C114.959 96.2658 114.968 96.271 114.978 96.2742C114.989 96.2774 115 96.2785 115.01 96.2775C115.021 96.2766 115.032 96.2734 115.041 96.2684ZM139.026 98.8823C139.043 98.8769 139.058 98.8662 139.069 98.8517C139.079 98.8373 139.085 98.8198 139.085 98.8018C139.085 98.7838 139.079 98.7663 139.069 98.7518C139.058 98.7374 139.043 98.7267 139.026 98.7213C128.042 97.4719 118.583 97.9548 114.873 98.7213C114.852 98.7213 114.833 98.7294 114.818 98.7438C114.804 98.7581 114.796 98.7776 114.796 98.798C114.796 98.8183 114.804 98.8378 114.818 98.8522C114.833 98.8665 114.852 98.8746 114.873 98.8746C118.391 98.2614 128.088 97.8091 139.026 98.8823ZM138.742 102.025C131.729 101.205 122.553 100.691 115.578 101.259C115.561 101.264 115.546 101.275 115.535 101.289C115.524 101.304 115.519 101.321 115.519 101.339C115.519 101.357 115.524 101.374 115.535 101.389C115.546 101.403 115.561 101.414 115.578 101.42C123.3 101.133 131.033 101.389 138.719 102.186C138.738 102.184 138.755 102.175 138.768 102.162C138.781 102.15 138.79 102.133 138.792 102.114C138.795 102.096 138.791 102.077 138.782 102.061C138.773 102.045 138.759 102.032 138.742 102.025ZM145.641 99.4572C145.641 99.3499 145.503 99.3269 145.48 99.4572C144.752 103.098 142.337 106.003 141.548 102.884C141.402 102.026 141.402 101.15 141.548 100.293C142.314 95.4252 146.147 94.2141 144.453 99.7561C143.502 102.991 142.046 102.738 143.058 99.0586C143.502 97.5255 143.901 97.4719 143.732 97.3569C143.726 97.3489 143.718 97.3424 143.709 97.338C143.699 97.3336 143.689 97.3313 143.679 97.3313C143.668 97.3313 143.658 97.3336 143.649 97.338C143.64 97.3424 143.632 97.3489 143.625 97.3569C143.282 97.8556 143.023 98.4071 142.859 98.9896C142.598 99.9018 142.161 102.309 143.058 102.24C144.2 102.178 145.633 97.7708 144.806 96.2301C143.978 94.6894 141.785 96.6977 141.241 100.231C140.344 106.065 144.568 105.781 145.641 99.4572ZM135.094 127.895C135.094 129.107 136.067 130.072 137.738 130.195C141.333 130.44 141.28 128.317 141.502 124.622C141.555 123.726 141.609 122.606 141.617 121.71C139.647 121.284 137.644 121.028 135.63 120.943C135.615 121.112 134.91 126.201 135.094 127.895Z" fill="black"/>
<path d="M144.108 111.791C144.062 109.782 144.031 107.743 142.674 106.264C143.658 105.907 144.477 105.2 144.974 104.279C145.638 103.185 146.108 101.984 146.361 100.73C146.875 98.3228 146.768 94.3598 144.545 93.8309C143.87 93.693 142.329 93.5167 140.674 93.3633V10.3864L140.428 9.95715H5.7644V106.18H20.2825V107.713C16.2352 108.142 6.31631 110.051 4.07037 113.416C3.8744 113.749 3.79107 114.136 3.83275 114.52C3.80446 115.094 3.94574 115.665 4.23901 116.16C4.58395 116.536 5.00554 116.497 5.46546 116.513C5.57277 117.072 5.85639 118.414 6.05568 119.011C6.09415 119.243 6.21428 119.453 6.39429 119.603C6.57429 119.754 6.80225 119.835 7.03684 119.832L10.103 119.962C10.2716 122.967 10.5322 125.956 10.8695 128.938C11.281 132.19 11.8721 135.417 12.6402 138.604C12.7042 138.81 12.8279 138.993 12.9957 139.13C13.1634 139.266 13.3678 139.35 13.583 139.371C18.5271 139.731 18.5578 139.731 19.102 139.371C19.3627 139.217 25.5102 131.966 25.6405 131.437C25.7095 131.169 26.2384 121.472 26.2998 120.598V120.552L81.559 122.668C81.8193 128.881 82.6351 135.058 83.9965 141.126C84.0386 141.418 84.176 141.687 84.3874 141.892C84.6164 142.087 84.9073 142.193 85.2076 142.191L89.7455 142.345C90.0507 142.403 90.3657 142.379 90.659 142.277C90.9523 142.175 91.2136 141.997 91.4165 141.762C96.7822 134.633 97.1042 134.434 97.1962 134.235C97.3571 133.874 98.093 123.411 98.1007 123.243C98.2847 123.243 100.607 123.342 100.791 123.289C100.911 123.265 101.022 123.211 101.115 123.131C101.207 123.052 101.278 122.951 101.32 122.836C102.286 121.909 103.149 120.881 103.896 119.77C104.471 117.126 104.455 117.271 104.386 117.034C104.354 116.925 104.299 116.824 104.223 116.739C104.147 116.654 104.054 116.588 103.949 116.543C103.641 116.451 103.32 116.412 102.999 116.428C105.835 113.362 106.877 110.986 107.222 106.831H113.447C111.998 109.775 110.381 113.991 111.216 116.681C111.576 116.75 116.497 117.823 120.56 118.26L120.729 116.681C120.744 116.544 120.813 116.419 120.921 116.332C121.029 116.246 121.166 116.206 121.304 116.221L124.37 116.566C124.505 116.582 124.63 116.65 124.716 116.756C124.802 116.862 124.843 116.998 124.83 117.133L124.699 118.628C127.487 118.81 130.283 118.81 133.07 118.628C133.583 115.225 134.787 107.468 137.217 104.946C137.286 104.869 137.554 105.022 137.454 105.168C137.201 105.521 135.063 106.885 133.292 123.71C132.748 128.846 131.759 138.512 135.86 141.501C136.289 141.816 136.036 142.069 135.599 141.785C131.169 138.918 131.92 128.861 132.457 123.557C132.602 122.062 132.748 120.813 132.962 119.318C130.199 119.517 127.425 119.517 124.661 119.318L124.5 120.943C124.493 121.014 124.473 121.083 124.439 121.146C124.405 121.209 124.358 121.264 124.302 121.308C124.247 121.353 124.182 121.385 124.114 121.404C124.045 121.423 123.973 121.428 123.902 121.418L120.752 120.958C120.618 120.938 120.498 120.866 120.415 120.759C120.332 120.653 120.294 120.518 120.307 120.384L120.445 118.919C117.322 118.604 114.227 118.056 111.185 117.279C110.902 118.429 107.675 131.782 110.227 138.136C112.19 143.012 128.225 143.717 135.063 143.264C136.32 143.175 137.533 142.762 138.585 142.067C139.636 141.371 140.49 140.416 141.065 139.294C143.993 143.717 146.047 141.662 147.864 139.83C148.286 139.018 148.595 138.151 148.784 137.255C150.478 129.59 149.159 118.046 144.108 111.791ZM123.013 124.477C122.354 125.496 120.161 124.477 120.161 124.477C121.227 124.339 121.028 121.786 121.028 121.786L123.542 122.185C123.59 122.988 123.395 123.787 122.982 124.477H123.013ZM146.147 100.714C145.891 101.937 145.426 103.106 144.775 104.171C144.23 104.999 143.441 105.934 142.475 106.08C141.967 105.615 141.37 105.257 140.72 105.03C139.662 103.144 139.777 98.9743 141.655 95.9542C144.353 91.585 147.358 95.0497 146.116 100.684L146.147 100.714ZM102.455 66.6114H123.641C130.318 68.8497 136.879 70.5361 140.114 71.3639V76.3464H112.58C110.296 69.6469 105.268 67.5313 102.416 66.5808L102.455 66.6114ZM51.4496 116.72L49.472 117.678C49.5333 117.471 49.472 117.463 49.2497 115.378C50.5772 114.064 52.072 112.93 53.6956 112.005C52.6378 113.025 51.5723 114.458 51.465 115.539C51.4233 115.931 51.4181 116.326 51.4496 116.72ZM54.9373 111.354C56.4693 111.96 58.052 112.43 59.6668 112.757C66.236 114.083 81.7199 113.722 81.7199 113.239V113.056C84.6481 113.132 88.3811 115.593 90.8186 115.593C92.551 115.593 92.666 114.144 92.0604 112.527C94.5096 111.955 96.8551 111.006 99.0129 109.713C100.843 109.649 102.675 109.72 104.494 109.928C104.494 110.051 104.409 110.181 104.363 110.304C103.451 112.772 99.9097 116.873 97.6178 117.034C97.4031 117.034 51.8406 115.347 51.8176 115.347C52.1242 114.029 53.7799 112.136 54.9373 111.361V111.354ZM26.959 75.2886C28.9903 72.1994 35.2605 72.0538 40.2276 72.0538C46.5938 72.0543 52.9553 72.4024 59.2836 73.0963C63.8368 73.7478 64.1204 73.8628 65.1629 78.7533L56.4321 78.9449C56.1461 78.9518 55.8656 79.024 55.6118 79.1558C55.358 79.2877 55.1376 79.4757 54.9675 79.7057C54.7975 79.9356 54.6822 80.2014 54.6304 80.4827C54.5787 80.764 54.5919 81.0534 54.6691 81.3288L55.3743 83.9197C50.7546 83.2706 46.1021 82.8816 41.4387 82.7546C37.2382 82.5859 31.2822 82.4786 27.1659 83.3601C27.1395 83.3652 27.1162 83.3806 27.1011 83.4029C27.086 83.4251 27.0804 83.4525 27.0855 83.4789C27.0905 83.5054 27.1059 83.5287 27.1282 83.5438C27.1505 83.5589 27.1778 83.5645 27.2043 83.5594C31.1519 82.7929 37.4145 82.9692 41.4234 83.1532C44.9265 83.3065 51.9325 83.7051 55.4586 84.2186L57.4362 91.4164C52.5611 90.6498 47.6016 92.8881 46.1299 97.5486C41.8373 97.2497 31.1212 95.9389 24.4218 97.2573C24.4126 97.2591 24.4039 97.2628 24.3962 97.268C24.3884 97.2733 24.3819 97.2801 24.3769 97.288C24.3718 97.2959 24.3685 97.3047 24.367 97.3139C24.3655 97.3231 24.3659 97.3326 24.3681 97.3416C24.3681 97.5179 24.5827 97.2727 27.1506 97.1193C32.5776 96.7821 40.9482 97.5179 46.0303 97.8859C44.8268 102.355 46.7201 106.241 50.6294 109.031C40.6633 108.074 30.6545 107.632 20.6428 107.705C20.5556 101.358 21.1181 95.0194 22.3215 88.7872C23.6552 82.2563 26.0621 76.653 26.959 75.2886ZM51.6183 32.7614C63.3615 29.841 78.9681 27.549 97.7327 25.3644C97.7327 40.9557 97.6714 51.6947 97.7327 62.3419C93.3329 53.772 95.1342 41.8755 85.5296 42.4121C84.3677 42.4696 83.2297 42.7629 82.1847 43.2741C81.1397 43.7852 80.2096 44.5036 79.451 45.3856C78.6924 46.2675 78.1211 47.2945 77.7719 48.4042C77.4227 49.5139 77.3029 50.683 77.4197 51.8404C77.4657 52.4076 77.5117 52.9365 77.5807 53.4348C76.6302 54.7992 77.0211 57.1601 78.5388 58.6548C79.0405 60.8119 79.0797 63.0507 78.6538 65.224C77.8873 65.4923 77.2357 65.7836 76.5688 66.0979C68.022 66.0979 61.0543 66.0979 51.6259 65.5536C51.6413 56.2786 51.6413 43.6078 51.6183 32.7614ZM51.12 65.523C42.6882 64.9941 21.3326 63.3383 15.2081 57.3977C14.4221 56.7164 13.8098 55.8577 13.4219 54.8925C13.034 53.9274 12.8816 52.8838 12.9775 51.848C13.3147 49.2035 15.714 47.0879 17.9216 45.5778C21.2177 45.5778 34.4403 45.5778 37.7671 45.5242C49.8706 45.2252 46.7048 41.8985 49.8859 33.1984L51.1047 32.8841C51.0894 43.7535 51.0817 56.1253 51.12 65.523ZM104.087 54.0787C103.972 51.4648 107.92 49.9394 110.465 49.2648C119.311 46.9193 131.077 46.0607 140.114 46.1221V65.9752C132.698 64.2735 125.48 61.8048 118.575 58.6088C116.217 57.5933 113.939 56.4018 111.76 55.0445C111.734 55.0317 111.704 55.0288 111.676 55.0362C111.647 55.0436 111.623 55.0609 111.606 55.085C111.589 55.1091 111.582 55.1383 111.585 55.1674C111.588 55.1966 111.601 55.2236 111.622 55.2438C113.758 56.7017 116.024 57.9591 118.391 58.9998C125.33 62.2698 132.618 64.7436 140.114 66.3738V70.973C133.545 69.1946 104.432 61.6443 104.087 54.0787ZM140.114 45.7158C131.023 45.6545 119.234 46.4823 110.358 48.8739C107.575 49.6404 103.589 51.2195 103.673 54.0863C103.804 58.6242 113.086 62.9397 122.507 66.1898H101.182C99.971 65.7912 98.8825 64.3655 98.208 63.2694C98.2463 54.8912 98.2463 50.9512 98.208 25.3261C123.68 23.3025 136.381 23.8697 140.114 23.793V45.7158ZM101.228 87.1085C94.0611 86.4876 90.2897 88.7948 84.3644 89.5844L85.6369 95.0804C84.1958 95.9159 82.6934 96.8511 81.26 97.7556L61.5142 98.3611C61.0293 98.3727 60.5532 98.2306 60.154 97.9552C59.7547 97.6799 59.4528 97.2854 59.2912 96.8281C67.4701 96.6058 79.2824 96.1535 80.4628 96.1075C80.4872 96.1075 80.5106 96.0978 80.5279 96.0806C80.5451 96.0633 80.5548 96.0399 80.5548 96.0155C80.5548 95.9911 80.5451 95.9678 80.5279 95.9505C80.5106 95.9333 80.4872 95.9236 80.4628 95.9236C75.8636 96.0462 67.1942 96.2608 59.2146 96.5521C55.6349 83.5211 55.8035 84.1803 55.8265 84.1037C55.8284 84.0774 55.8237 84.0511 55.813 84.027C55.8023 84.003 55.7859 83.9819 55.7652 83.9657L54.9987 81.2138C54.9293 80.985 54.9145 80.7432 54.9553 80.5076C54.9961 80.272 55.0914 80.0492 55.2337 79.8571C55.3759 79.6649 55.5612 79.5087 55.7746 79.4009C55.988 79.2931 56.2237 79.2367 56.4627 79.2362L76.3925 78.8069C76.095 77.397 75.6425 76.0242 75.0434 74.7137C74.7368 73.9471 75.3424 74.0314 75.5647 74.4914C76.2965 75.8497 76.8553 77.2944 77.2281 78.7916L80.1562 78.7226C80.624 78.7197 81.0791 78.8748 81.4477 79.1628C81.8164 79.4508 82.077 79.8548 82.1875 80.3093L84.1345 88.7028C88.6647 88.0666 92.5663 86.4952 97.2575 86.2653C98.6909 80.6159 99.9864 74.614 104.494 70.9347C104.984 70.5437 105.314 70.9807 104.808 71.3639C102.401 73.2113 101.335 75.6718 100.416 78.2627C99.3885 81.1449 98.8825 83.935 98.2617 86.1503C99.2869 86.1175 100.313 86.1765 101.328 86.3266C102.462 86.5259 101.834 87.1391 101.228 87.0931V87.1085ZM80.6928 98.1158C77.7876 99.9555 74.9055 101.818 71.9237 103.482C69.8464 102.033 68.091 100.53 65.5844 98.5681L80.6928 98.1158ZM65.4925 78.7073C65.3238 77.8794 65.1629 77.1742 65.0019 76.5917H67.3015C67.0792 77.2585 66.8799 77.9561 66.7113 78.6843L65.4925 78.7073ZM81.8809 44.9263C81.6792 46.1867 81.7524 47.4758 82.0955 48.7053C82.1568 48.9199 82.4481 48.5596 83.7742 48.4293C85.3778 48.3048 86.9726 48.7613 88.2674 49.7155C89.5622 50.6697 90.4704 52.0579 90.8263 53.6264L90.0138 53.7107C89.6765 51.1275 87.6299 49.4948 85.8515 49.9241C84.0732 50.3533 82.9387 52.6146 83.8509 55.2055C83.5395 55.2224 83.2416 55.3378 83 55.5351C82.3715 53.6571 80.4858 52.124 78.7918 52.5609V51.5798C79.3733 50.6299 80.182 49.8397 81.145 49.2802C81.1618 49.2721 81.1754 49.2586 81.1837 49.242C81.192 49.2254 81.1946 49.2064 81.191 49.1882C81.0754 47.7328 81.312 46.2709 81.8809 44.9263ZM85.338 66.3891C85.1884 65.6158 84.9651 64.8586 84.6711 64.1279C87.4382 64.7871 89.9908 62.7864 91.1636 60.1112C91.4625 61.1614 92.482 63.9899 94.9426 65.0017C94.5286 66.0289 92.3594 73.6558 89.0863 74.2001C86.2195 74.6907 83.4676 69.7772 83.3526 64.3808L84.1882 63.9822H84.2725C84.647 64.7563 84.9374 65.5684 85.1386 66.4045C85.1417 66.4309 85.1551 66.455 85.176 66.4716C85.1968 66.4881 85.2234 66.4957 85.2498 66.4926C85.2762 66.4896 85.3004 66.4761 85.3169 66.4553C85.3334 66.4345 85.341 66.4079 85.338 66.3815V66.3891ZM91.7768 57.1218C91.4165 56.9455 91.8765 58.2409 90.6807 60.4945C88.565 64.5188 83.5289 65.8602 80.4935 59.728C82.5248 60.0346 83.6899 58.1106 83.1073 55.8953C83.22 55.78 83.3548 55.6886 83.5036 55.6267C83.6525 55.5648 83.8123 55.5336 83.9735 55.5351C84.254 56.2117 84.6962 56.8092 85.2613 57.2751C87.5149 59.0994 90.2514 57.2751 90.0444 54.0557L90.8953 53.9637C90.926 54.1272 90.949 54.2882 90.9643 54.4466C90.9643 54.5539 91.1483 54.5616 91.1942 54.4466C91.6542 53.4041 92.6047 53.2585 93.1412 54.025C94.1071 55.3818 93.0263 57.7273 91.7768 57.1141V57.1218ZM85.9205 50.223C89.6075 49.3338 91.3705 56.6849 87.6759 57.574C87.2862 57.6552 86.8829 57.6441 86.4982 57.5416C86.1136 57.4391 85.7582 57.2481 85.4606 56.9838C83.1303 55.1211 83.4523 50.8362 85.9205 50.2383V50.223ZM81.8502 59.1761C81.379 59.4251 80.8299 59.4828 80.3172 59.3371C79.4315 57.2922 78.9126 55.1075 78.7841 52.8829C81.7812 51.963 84.5714 57.6584 81.8502 59.1914V59.1761ZM78.4008 58.011C77.9191 57.464 77.5936 56.7973 77.4587 56.0811C77.3238 55.3648 77.3845 54.6254 77.6343 53.9407C77.8489 55.5197 78.1402 56.8152 78.4008 58.0263V58.011ZM75.8253 66.4428C71.8244 68.4841 68.7933 72.0249 67.3935 76.2927H64.9252C64.0821 73.4182 63.0472 73.2266 59.3296 72.69C57.3289 72.3987 54.5158 72.1611 51.5723 71.9771V65.8986C59.2376 66.3661 65.3775 66.4198 75.8253 66.4658V66.4428ZM57.5589 91.8456L58.9003 96.7361C59.049 97.291 59.3769 97.7812 59.8329 98.1305C60.289 98.4799 60.8477 98.6687 61.4222 98.6677L64.9559 98.5604C70.9808 103.252 73.4874 105.735 81.3596 108.617V113.04C75.5417 113.316 65.4925 113.431 59.7358 112.274C39.2618 107.927 44.7808 89.684 57.5589 91.8456ZM81.7199 112.734V109.338L83.6822 109.246C84.1422 110.917 84.1268 112.159 83.6822 113.04C83.0426 112.861 82.3839 112.758 81.7199 112.734ZM85.7519 112.657C85.9557 112.082 86.0921 111.485 86.1581 110.879C86.1581 110.787 86.4111 110.825 86.4111 110.932C86.4472 111.573 86.301 112.211 85.9895 112.772C85.9358 112.856 85.7212 112.741 85.7519 112.68V112.657ZM87.2006 113.132C87.3923 112.519 87.4612 111.913 87.6069 111.354C87.6069 111.262 87.8292 111.315 87.8368 111.407C87.9068 112.051 87.7583 112.699 87.4152 113.247C87.3846 113.316 87.17 113.224 87.2006 113.132ZM88.6494 113.607C88.8551 113.033 88.989 112.436 89.048 111.829C89.048 111.729 89.2779 111.76 89.2702 111.829C89.2971 112.471 89.1515 113.109 88.8487 113.676C88.795 113.784 88.6034 113.692 88.6494 113.607ZM99.5801 109.368C101.88 107.92 104.064 105.95 105.114 103.382L105.283 103.282C105.305 105.413 105.071 107.539 104.586 109.614C102.925 109.415 101.252 109.333 99.5801 109.368ZM91.9148 112.151C91.6817 111.647 91.3627 111.188 90.9719 110.794C94.9656 108.84 99.4498 105.482 102.079 101.925C102.091 101.9 102.095 101.871 102.088 101.843C102.082 101.816 102.066 101.791 102.043 101.774C102.02 101.757 101.993 101.748 101.964 101.749C101.936 101.75 101.909 101.761 101.887 101.78C98.7881 105.44 94.9406 108.393 90.604 110.442C89.4097 109.504 87.9576 108.953 86.4417 108.863C84.8687 108.822 83.2946 108.873 81.7276 109.016V108.541C81.7251 108.508 81.7138 108.476 81.6949 108.449C81.676 108.422 81.6502 108.401 81.6203 108.387C78.3044 107.232 75.153 105.65 72.2456 103.681C80.8231 98.8594 89.8298 91.8916 95.6248 91.4164C101.596 91.0714 105.49 95.249 105.383 100.377C105.183 108.978 92.0374 112.028 91.9071 112.151H91.9148ZM140.114 10.578V23.0572C128.616 23.2028 118.03 23.0572 98.208 24.8662C98.208 20.5966 98.208 15.9744 98.1697 10.578H140.114ZM97.7634 10.5167V24.9352C81.3213 26.4299 62.549 29.6493 51.6489 32.3322C51.6489 20.6426 51.6029 11.1683 51.5953 10.5167H97.7634ZM6.25498 10.4247H51.1583C51.1583 14.426 51.1583 22.8579 51.1047 32.4625C47.7779 33.2903 44.2826 34.2562 40.5419 35.4136C38.7712 42.3124 38.9552 42.8873 37.882 44.3207C49.1117 43.9375 45.785 38.7097 48.3222 33.5893L49.564 33.2673C46.3292 41.9828 49.4873 44.8266 37.7594 45.1639C34.4403 45.2482 21.4783 45.2942 18.3278 45.2865C18.8031 44.9723 19.2937 44.6733 19.7919 44.382C26.2001 44.4357 28.86 44.382 28.8906 44.382C29.7415 42.918 29.6955 41.5535 30.462 38.8784C24.7207 41.3926 13.3684 45.6928 12.5942 51.7944C12.491 52.8906 12.6491 53.9956 13.0555 55.0189C13.4619 56.0422 14.105 56.9546 14.9321 57.6813C21.187 63.7216 42.4812 65.3467 51.12 65.8909V71.9771C47.1264 71.7395 42.9258 71.6092 40.1893 71.6092C35.5365 71.6092 28.7833 71.6705 26.545 75.0356C26.2871 75.4466 26.0567 75.8743 25.8552 76.3157H6.25498V10.4247ZM6.25498 105.835V76.5917H25.7555C21.348 86.0047 20.3898 95.3947 20.2825 105.835H6.25498ZM20.4895 108.019C30.7398 107.939 40.9872 108.399 51.189 109.399C52.2131 110.077 53.2956 110.662 54.4238 111.147C52.3199 112.025 50.4735 113.423 49.0581 115.209L4.38465 113.538C6.17066 111.3 13.5907 108.801 20.4588 108.019H20.4895ZM7.07517 119.517C6.74556 119.517 6.54626 119.41 6.38529 118.919C6.22432 118.429 5.93304 117.11 5.82573 116.536L9.96499 116.689C9.96499 117.678 10.034 118.659 10.0876 119.648L7.07517 119.517ZM9.58939 116.359C4.64527 116.168 4.77558 116.252 4.49963 115.945C4.17032 115.272 4.09152 114.503 4.27733 113.776L49.0581 115.401C49.1424 116.099 49.2037 116.796 49.2727 117.486C49.2798 117.534 49.2759 117.583 49.2615 117.629C49.247 117.676 49.2222 117.718 49.1891 117.753C49.1559 117.789 49.1152 117.816 49.0699 117.834C49.0247 117.851 48.9761 117.858 48.9277 117.854L9.58939 116.359ZM18.9717 139.141C18.5885 139.378 18.6115 139.325 15.2004 139.233C13.9739 139.233 13.1078 139.332 12.9008 138.55C12.2071 135.386 11.6953 132.184 11.3677 128.961C10.8792 124.886 10.5289 120.795 10.3176 116.697L17.0554 116.949C17.0554 120.606 17.3697 126.37 17.4157 126.914C17.6635 130.367 18.096 133.803 18.7111 137.209C18.7121 137.224 18.7164 137.239 18.7237 137.253C18.7311 137.267 18.7413 137.279 18.7537 137.288C18.7661 137.297 18.7804 137.304 18.7955 137.307C18.8107 137.31 18.8264 137.31 18.8415 137.307C18.8566 137.304 18.8709 137.297 18.8832 137.288C18.8955 137.278 18.9057 137.266 18.913 137.253C18.9202 137.239 18.9245 137.224 18.9254 137.208C18.9262 137.193 18.9237 137.177 18.9181 137.163C18.7146 136.013 18.5408 134.857 18.3968 133.698C18.8721 133.1 20.3285 131.399 20.3898 131.299L25.2343 131.636C25.15 131.767 19.217 138.964 18.9411 139.133L18.9717 139.141ZM17.4387 120.253L20.7654 120.384C20.2518 132.725 20.4435 127.022 20.3132 130.854C20.3132 131.169 20.3132 131.207 18.3508 133.277C17.9522 130.364 17.546 125.458 17.4233 120.246L17.4387 120.253ZM25.3339 131.307L20.4588 131.077C20.5278 130.862 20.4588 131.314 21.072 120.345L25.9855 120.537C25.9855 120.537 25.3569 131.115 25.3339 131.307ZM17.4233 119.916C17.4233 119.732 17.3773 117.762 17.3697 116.965L48.9047 118.161C49.7951 117.862 50.6592 117.491 51.488 117.049C51.6029 117.731 51.9019 118.283 52.5688 118.306L81.4133 119.41C81.4542 120.396 81.5002 121.385 81.5513 122.377L17.4233 119.916ZM91.2172 141.67C90.8263 142.191 90.397 142.176 89.7378 142.145L85.2153 141.931C84.997 141.926 84.7887 141.838 84.6327 141.685C84.4689 141.52 84.3662 141.304 84.3415 141.072C82.8084 134.587 82.0419 126.133 81.7583 119.418L88.4271 119.678C88.4271 125.887 88.9023 134.097 90.1671 139.991C90.1627 140.007 90.1621 140.024 90.1652 140.04C90.1684 140.056 90.1752 140.072 90.1852 140.085C90.1952 140.098 90.2082 140.109 90.223 140.116C90.2378 140.123 90.2541 140.127 90.2706 140.127C90.2871 140.127 90.3034 140.123 90.3182 140.116C90.333 140.109 90.3459 140.098 90.3559 140.085C90.3659 140.072 90.3728 140.056 90.3759 140.04C90.3791 140.024 90.3784 140.007 90.3741 139.991C90.2131 138.949 90.0598 137.906 89.9218 136.864C90.7788 135.979 91.5899 135.05 92.3517 134.081L96.8282 134.311C96.7899 134.373 97.2422 133.614 91.2172 141.67ZM88.9176 122.982L92.6966 123.112L92.1907 133.583C92.1833 133.734 92.1237 133.878 92.0221 133.989L89.8988 136.396C89.3411 131.945 89.0136 127.467 88.9176 122.982ZM96.9892 133.951L92.4667 133.844C92.528 133.66 92.4667 134.38 93.0339 123.112L97.8017 123.273C97.8017 123.273 97.0045 133.844 96.9815 133.951H96.9892ZM101.075 122.806C101.04 122.872 100.993 122.931 100.935 122.978C100.877 123.026 100.81 123.061 100.738 123.082C100.615 123.12 88.9253 122.66 88.91 122.66C88.91 121.671 88.864 120.682 88.8563 119.694L97.6638 120.023C98.306 120.049 98.9436 119.903 99.5111 119.602C99.6797 119.602 98.8902 119.533 101.182 119.686C101.296 119.697 101.402 119.746 101.484 119.826C101.566 119.905 101.619 120.01 101.634 120.123C101.494 121.027 101.304 121.922 101.067 122.806H101.075ZM103.842 116.88C103.904 116.909 103.959 116.95 104.004 117.002C104.049 117.054 104.083 117.114 104.103 117.179C104.149 117.333 103.704 119.395 103.627 119.755C102.979 120.7 102.253 121.589 101.458 122.415C101.65 121.659 101.791 120.89 101.88 120.115C101.854 119.949 101.774 119.795 101.652 119.679C101.53 119.563 101.373 119.49 101.205 119.471L99.856 119.418C100.871 118.611 101.831 117.737 102.731 116.804C103.781 116.85 103.727 116.835 103.834 116.88H103.842ZM99.9174 118.935C99.2902 119.461 98.4894 119.734 97.6714 119.701L52.5841 117.984C51.7026 117.984 51.7102 116.451 51.8176 115.585L97.1502 117.348C100.04 117.478 103.773 112.895 104.693 110.449C105.459 108.257 105.59 105.444 105.643 103.106C106.147 102.786 106.631 102.435 107.092 102.056C107.069 110.38 106.395 113.554 99.9097 118.935H99.9174ZM107.276 106.479C107.368 105.114 107.399 103.574 107.391 101.757C112.481 97.38 113.784 90.4275 113.784 84.326C113.828 81.7056 113.456 79.0949 112.68 76.5917H140.191V93.3174C138.206 93.1257 136.167 92.9648 135.346 92.9034C135.346 92.9034 121.472 92.2672 116.183 93.67C111.691 94.8581 111.676 101.565 115.271 103.796C114.651 104.63 114.119 105.527 113.684 106.471L107.276 106.479ZM115.424 103.643C112.013 101.481 112.036 95.088 116.237 93.9842C120.069 92.9801 130.034 92.9264 134.059 93.1027L143.51 93.9076C140.666 94.9271 138.696 101.573 140.298 104.877C139.603 104.677 138.893 104.534 138.175 104.447C136.366 104.202 116.927 102.485 115.417 103.643H115.424ZM137.692 130.908C135.707 130.778 134.519 129.452 134.465 127.988C134.273 125.956 135.055 120.399 135.132 120.276C135.425 120.259 135.72 120.259 136.013 120.276L136.581 112.826C137.723 112.78 138.949 113.469 140.245 113.492L139.677 120.69L140.444 120.82L140.812 115.455C141.126 115.455 141.617 115.577 141.732 115.869L141.371 120.905C142.421 121.127 142.291 120.637 142.138 124.278C141.9 128.44 141.9 131.184 137.684 130.908H137.692ZM147.174 129.712C147.218 132.062 147.015 134.411 146.568 136.718C145.664 140.666 144.146 140.505 142.084 137.04C142.814 134.869 143.258 132.612 143.403 130.325C143.541 128.792 144.008 121.204 144.077 115.163C146.407 119.671 147.212 124.653 147.174 129.712Z" fill="black"/>
<path d="M121.472 117.041L121.089 120.146C121.084 120.199 121.1 120.253 121.132 120.295C121.165 120.338 121.212 120.366 121.265 120.376L123.779 120.713C123.797 120.716 123.816 120.716 123.834 120.711C123.852 120.707 123.869 120.7 123.884 120.689C123.899 120.678 123.911 120.665 123.921 120.649C123.931 120.634 123.937 120.616 123.94 120.598C123.943 120.58 123.943 120.561 123.939 120.544C123.934 120.526 123.927 120.509 123.916 120.494C123.905 120.479 123.892 120.466 123.876 120.456C123.861 120.447 123.843 120.44 123.825 120.437L121.526 119.993L121.656 117.057C121.658 117.032 121.65 117.008 121.634 116.989C121.619 116.971 121.596 116.959 121.572 116.957C121.547 116.955 121.523 116.963 121.504 116.979C121.486 116.994 121.474 117.017 121.472 117.041ZM73.0196 40.626C73.4522 40.194 73.7713 39.6618 73.9486 39.0767C74.1259 38.4916 74.1558 37.8718 74.0358 37.2724C73.9157 36.6729 73.6494 36.1124 73.2605 35.6407C72.8716 35.169 72.3722 34.8008 71.8066 34.5686C71.241 34.3365 70.6269 34.2478 70.0187 34.3103C69.4106 34.3728 68.8273 34.5846 68.3208 34.9269C67.8143 35.2691 67.4002 35.7313 67.1153 36.2722C66.8305 36.8132 66.6837 37.4161 66.6881 38.0274C66.6969 38.7571 66.9202 39.468 67.3303 40.0716C67.7403 40.6752 68.3189 41.1448 68.994 41.4219C69.669 41.6989 70.4107 41.7712 71.1266 41.6297C71.8424 41.4881 72.5008 41.1391 73.0196 40.626ZM72.8817 35.5055C73.287 35.9131 73.5859 36.4141 73.7518 36.9644C73.9178 37.5147 73.9458 38.0974 73.8334 38.6611C73.721 39.2248 73.4716 39.7522 73.1072 40.1967C72.7428 40.6413 72.2746 40.9893 71.7439 41.2101C71.2132 41.431 70.6363 41.5178 70.0641 41.463C69.4919 41.4083 68.942 41.2135 68.4629 40.896C67.9838 40.5784 67.5901 40.1479 67.3167 39.6423C67.0433 39.1367 66.8985 38.5715 66.895 37.9968C66.9042 37.3072 67.1157 36.6356 67.5034 36.0653C67.8911 35.495 68.4378 35.0512 69.0756 34.789C69.7134 34.5269 70.4142 34.4579 71.0909 34.5908C71.7676 34.7236 72.3903 35.0524 72.8817 35.5362V35.5055Z" fill="black"/>
<path d="M70.3905 40.6259C70.8184 40.6245 71.2394 40.5176 71.6163 40.3149C71.9931 40.1121 72.3143 39.8197 72.5513 39.4634C72.7884 39.1071 72.9341 38.6979 72.9755 38.272C73.0169 37.8461 72.9528 37.4165 72.7888 37.0212C72.6249 36.6259 72.3661 36.2771 72.0353 36.0055C71.7046 35.734 71.3121 35.548 70.8924 35.4641C70.4728 35.3802 70.0389 35.401 69.6292 35.5245C69.2195 35.648 68.8465 35.8705 68.5431 36.1724C68.173 36.5354 67.9199 37.0009 67.8164 37.5089C67.713 38.0169 67.7638 38.5443 67.9625 39.0232C68.1611 39.5021 68.4985 39.9106 68.9311 40.1962C69.3638 40.4818 69.8721 40.6315 70.3905 40.6259ZM72.6364 37.1306L70.3905 40.4113C70.0123 40.4034 69.6406 40.3118 69.302 40.143L71.9925 36.2107C72.2809 36.4616 72.5022 36.7804 72.6364 37.1382V37.1306ZM70.1069 35.5975C70.5038 35.5472 70.9071 35.5973 71.2796 35.7431L68.6351 39.5758C68.3643 39.2836 68.1718 38.9276 68.0755 38.541L70.1069 35.5975ZM93.7543 40.6259C94.1778 40.1905 94.4878 39.6577 94.6572 39.0744C94.8266 38.4911 94.8502 37.8751 94.726 37.2806C94.6017 36.686 94.3334 36.1311 93.9445 35.6645C93.5557 35.1979 93.0582 34.8339 92.4958 34.6044C91.9334 34.375 91.3233 34.2872 90.719 34.3486C90.1147 34.4101 89.5348 34.619 89.0301 34.957C88.5254 35.295 88.1114 35.7517 87.8245 36.287C87.5376 36.8224 87.3865 37.42 87.3845 38.0274C87.3894 38.7633 87.6123 39.4812 88.0248 40.0906C88.4374 40.7 89.0212 41.1736 89.7026 41.4515C90.384 41.7295 91.1324 41.7994 91.8535 41.6525C92.5746 41.5056 93.236 41.1484 93.7543 40.6259ZM91.1251 34.4937C91.8176 34.4922 92.495 34.696 93.0718 35.0793C93.6485 35.4626 94.0987 36.0083 94.3655 36.6474C94.6322 37.2864 94.7036 37.9902 94.5705 38.6698C94.4375 39.3494 94.106 39.9744 93.6179 40.4656C93.1298 40.9569 92.5071 41.2925 91.8284 41.43C91.1497 41.5675 90.4454 41.5008 89.8046 41.2382C89.1638 40.9757 88.6152 40.5291 88.2281 39.9549C87.841 39.3806 87.6328 38.7046 87.6297 38.0121C87.6277 37.5514 87.7166 37.0949 87.8913 36.6686C88.0659 36.2423 88.3229 35.8547 88.6476 35.5278C88.9723 35.201 89.3582 34.9415 89.7834 34.764C90.2085 34.5866 90.6644 34.4947 91.1251 34.4937Z" fill="black"/>
<path d="M92.9651 39.8594C93.4244 39.3656 93.6745 38.7129 93.6626 38.0386C93.6508 37.3643 93.378 36.7208 92.9016 36.2434C92.4252 35.766 91.7823 35.4919 91.108 35.4786C90.4337 35.4654 89.7805 35.7141 89.2857 36.1724C86.8098 38.61 90.5352 42.3276 92.9651 39.8594ZM93.3713 37.1306L91.1254 40.4113C90.7473 40.4026 90.3757 40.3111 90.0369 40.143L92.7504 36.2184C93.0316 36.4678 93.2452 36.7842 93.3713 37.1382V37.1306ZM90.8494 35.5975C91.2464 35.543 91.6507 35.5933 92.0222 35.7431L89.37 39.5758C89.1018 39.2817 88.9097 38.9264 88.8105 38.541L90.8494 35.5975ZM109.239 35.3982C108.801 35.8284 108.477 36.3602 108.295 36.9462C108.112 37.5322 108.078 38.1542 108.195 38.7566C108.312 39.3591 108.576 39.9232 108.964 40.3988C109.351 40.8744 109.851 41.2466 110.418 41.4821C110.984 41.7177 111.6 41.8094 112.211 41.7489C112.822 41.6885 113.408 41.4778 113.917 41.1357C114.427 40.7936 114.844 40.3308 115.131 39.7884C115.418 39.246 115.566 38.641 115.562 38.0274C115.541 37.3045 115.312 36.6031 114.901 36.0074C114.491 35.4118 113.918 34.9472 113.25 34.6696C112.582 34.3919 111.848 34.313 111.137 34.4422C110.425 34.5715 109.766 34.9034 109.239 35.3982ZM108.372 38.0274C108.35 37.5541 108.424 37.0812 108.59 36.6374C108.756 36.1935 109.01 35.788 109.337 35.4452C109.664 35.1024 110.058 34.8295 110.493 34.6431C110.929 34.4567 111.398 34.3605 111.872 34.3605C112.345 34.3605 112.814 34.4567 113.25 34.6431C113.685 34.8295 114.079 35.1024 114.406 35.4452C114.733 35.788 114.987 36.1935 115.153 36.6374C115.319 37.0812 115.393 37.5541 115.371 38.0274C115.355 42.6419 108.388 42.5576 108.372 38.0274Z" fill="black"/>
<path d="M110.02 36.18C109.533 36.6717 109.258 37.335 109.254 38.0274C109.254 38.6301 109.463 39.2141 109.846 39.6799C110.228 40.1457 110.76 40.4646 111.352 40.5822C111.943 40.6998 112.556 40.6089 113.088 40.325C113.62 40.041 114.036 39.5816 114.267 39.0249C114.498 38.4682 114.529 37.8487 114.355 37.2718C114.18 36.6949 113.811 36.1962 113.311 35.8608C112.81 35.5254 112.208 35.3739 111.608 35.4321C111.009 35.4903 110.447 35.7546 110.02 36.18ZM109.545 38.6023L111.584 35.6358C111.981 35.5858 112.384 35.6359 112.757 35.7814L110.105 39.6141C109.84 39.3266 109.648 38.9795 109.545 38.6023ZM111.845 40.4189C111.467 40.4098 111.095 40.3182 110.756 40.1507L113.447 36.2184C113.734 36.4671 113.955 36.7831 114.091 37.1382L111.845 40.4189ZM135.232 40.6259C135.747 40.1055 136.096 39.4444 136.236 38.7258C136.376 38.0072 136.301 37.2632 136.019 36.5875C135.737 35.9118 135.261 35.3347 134.652 34.9287C134.043 34.5227 133.327 34.3061 132.595 34.3061C131.863 34.3061 131.147 34.5227 130.538 34.9287C129.928 35.3347 129.453 35.9118 129.171 36.5875C128.889 37.2632 128.813 38.0072 128.953 38.7258C129.093 39.4444 129.443 40.1055 129.958 40.6259C130.304 40.9726 130.715 41.2477 131.167 41.4354C131.62 41.6231 132.105 41.7197 132.595 41.7197C133.085 41.7197 133.57 41.6231 134.022 41.4354C134.475 41.2477 134.886 40.9726 135.232 40.6259ZM132.61 34.4937C133.184 34.4926 133.75 34.633 134.257 34.9026C134.765 35.1722 135.198 35.5627 135.518 36.0394C135.838 36.5162 136.036 37.0645 136.094 37.6359C136.152 38.2074 136.069 38.7843 135.851 39.3157C135.633 39.8471 135.287 40.3166 134.844 40.6827C134.402 41.0487 133.876 41.3 133.313 41.4144C132.75 41.5288 132.168 41.5027 131.617 41.3384C131.067 41.1742 130.565 40.8768 130.157 40.4726C129.665 39.9855 129.329 39.3634 129.191 38.6851C129.054 38.0067 129.12 37.3027 129.383 36.6623C129.646 36.0219 130.093 35.474 130.667 35.0879C131.242 34.7018 131.918 34.495 132.61 34.4937Z" fill="black"/>
<path d="M134.442 39.8594C134.742 39.5552 134.963 39.1817 135.085 38.772C135.207 38.3623 135.226 37.9288 135.141 37.5099C135.056 37.091 134.869 36.6994 134.597 36.3698C134.325 36.0401 133.976 35.7824 133.581 35.6194C133.185 35.4565 132.756 35.3932 132.331 35.4352C131.905 35.4773 131.497 35.6233 131.141 35.8605C130.786 36.0976 130.494 36.4186 130.291 36.7952C130.089 37.1717 129.982 37.5923 129.981 38.0198C129.983 38.5358 130.137 39.0398 130.425 39.4681C130.713 39.8964 131.121 40.23 131.598 40.4267C132.075 40.6234 132.6 40.6745 133.106 40.5736C133.612 40.4727 134.077 40.2242 134.442 39.8594ZM134.848 37.1306L132.61 40.419C132.231 40.4148 131.859 40.323 131.522 40.1507L134.22 36.2184C134.499 36.4707 134.715 36.786 134.848 37.1383V37.1306ZM132.319 35.5975C132.716 35.5482 133.119 35.5982 133.492 35.7432L130.847 39.5758C130.574 39.2843 130.379 38.9283 130.28 38.541L132.319 35.5975ZM54.5236 57.298C54.5825 57.8649 54.7463 58.416 55.0065 58.9231C56.7389 62.3265 61.9053 62.0505 63.883 60.2721C65.8606 58.4938 65.416 56.3782 65.416 55.673V45.7081C65.36 45.143 65.1961 44.594 64.9331 44.0907C63.4001 41.0246 60.3339 41.5535 59.1688 41.5305C58.0192 41.5128 56.9046 41.9264 56.0448 42.6898C55.185 43.4531 54.6423 44.5108 54.5236 45.6544C54.4853 46.2293 54.4853 56.8841 54.5236 57.298ZM54.7919 45.7157C54.9079 44.6344 55.4216 43.6347 56.2332 42.9109C57.0449 42.187 58.0966 41.7907 59.1841 41.7988C60.6252 41.7988 63.3311 41.4538 64.7491 44.221C64.9724 44.7021 65.095 45.2238 65.1094 45.7541C65.1707 46.4133 65.1631 53.7566 65.1094 55.6653C65.1094 56.9377 65.3854 58.7314 63.7143 60.1495C61.545 62.0888 55.1905 61.9049 54.7996 57.2674C54.7612 56.8764 54.7383 46.2523 54.7919 45.7157ZM36.8551 44.3513C38.4571 42.4197 38.0126 39.8901 39.5916 35.7125C36.2265 36.755 33.4594 37.7515 31.3054 38.6023C30.7918 40.9019 30.2553 43.3778 29.665 44.3896C32.2329 44.382 34.2796 44.4586 36.8551 44.3513Z" fill="black"/>
</svg>
