<svg width="154" height="154" viewBox="0 0 154 154" fill="none" xmlns="http://www.w3.org/2000/svg">
<path fill-rule="evenodd" clip-rule="evenodd" d="M32.3782 87.7678C36.5021 88.5344 39.4149 87.0933 40.9173 86.7637C41.3543 86.6717 43.2859 87.5302 46.3367 87.5302C47.2122 87.4857 48.07 87.2668 48.8597 86.8864C49.6495 86.506 50.3553 85.9717 50.9359 85.3149C51.0355 85.1999 50.8516 85.0543 50.7519 85.1693C49.5694 86.3337 47.9809 86.9933 46.3214 87.009C44.7078 86.9389 43.1078 86.6817 41.5536 86.2424C40.5034 86.0048 40.6644 86.2961 38.0045 87.009C36.1877 87.5038 34.2896 87.6264 32.4242 87.3692C30.0633 87.032 29.6187 86.503 29.519 86.7713C29.5088 86.8009 29.5103 86.8332 29.5231 86.8617C29.5359 86.8902 29.5592 86.9127 29.588 86.9246C30.4894 87.293 31.4236 87.5753 32.3782 87.7678ZM86.273 77.4197C89.6534 77.1514 92.4052 74.1696 92.1522 72.3682C92.1569 72.3501 92.1573 72.3312 92.1535 72.3129C92.1497 72.2946 92.1418 72.2774 92.1303 72.2626C92.1189 72.2478 92.1042 72.2359 92.0874 72.2276C92.0706 72.2194 92.0521 72.2152 92.0334 72.2152C92.0147 72.2152 91.9963 72.2194 91.9795 72.2276C91.9627 72.2359 91.948 72.2478 91.9365 72.2626C91.9251 72.2774 91.9171 72.2946 91.9133 72.3129C91.9095 72.3312 91.91 72.3501 91.9146 72.3682C91.792 73.0737 91.4547 73.7241 90.9488 74.2309C89.8935 75.3995 88.5816 76.3073 87.1161 76.8831C86.2193 77.2434 86.089 77.1437 86.1196 77.32C86.121 77.3377 86.1264 77.3547 86.1354 77.37C86.1444 77.3852 86.1568 77.3981 86.1716 77.4078C86.1865 77.4174 86.2033 77.4235 86.2209 77.4256C86.2385 77.4276 86.2563 77.4256 86.273 77.4197ZM21.0259 90.2131C21.0553 90.2029 21.0796 90.1814 21.0932 90.1534C21.1069 90.1254 21.1089 90.0931 21.0987 90.0636C21.0885 90.0341 21.0671 90.0099 21.039 89.9962C21.011 89.9826 20.9787 89.9806 20.9492 89.9908C19.0599 90.3999 17.1049 90.3999 15.2156 89.9908C14.403 89.7838 14.3571 89.6152 14.2727 89.7685C14.2579 89.7952 14.2536 89.8266 14.2607 89.8564C14.2678 89.8862 14.2857 89.9122 14.3111 89.9294C16.0971 91.2172 19.0789 91.1636 21.0259 90.2131ZM114.78 34.1797C115.033 34.264 114.78 33.919 116.045 31.6654C118.613 27.0126 123.227 22.9347 127.911 20.3208C129.804 19.263 129.965 19.3703 129.889 19.1787C129.874 19.1506 129.849 19.1289 129.82 19.1176C129.79 19.1063 129.757 19.1062 129.728 19.1173C121.917 22.1835 116.275 28.5457 114.704 34.0264C114.698 34.0414 114.695 34.0575 114.696 34.0737C114.696 34.0898 114.7 34.1057 114.708 34.1201C114.715 34.1346 114.725 34.1474 114.738 34.1577C114.75 34.1679 114.765 34.1754 114.78 34.1797ZM137.638 40.2889C134.242 37.744 128.861 36.5252 124.607 36.004C121.766 35.6255 118.891 35.569 116.037 35.8354C116.021 35.8363 116.005 35.8405 115.991 35.8476C115.976 35.8547 115.963 35.8645 115.953 35.8766C115.942 35.8888 115.934 35.9029 115.929 35.9181C115.923 35.9334 115.921 35.9496 115.922 35.9657C115.922 36.1726 115.968 35.9657 118.713 36.073C124.339 36.2723 133.154 37.6061 137.47 40.4805C137.631 40.5649 137.768 40.3732 137.638 40.2889ZM111.147 80.3938C110.649 80.6437 110.117 80.8169 109.568 80.9074C109.554 80.9008 109.538 80.8971 109.523 80.8965C109.507 80.8958 109.492 80.8982 109.477 80.9036C109.463 80.9089 109.449 80.9171 109.438 80.9276C109.426 80.9381 109.417 80.9508 109.411 80.9649C109.404 80.979 109.4 80.9942 109.4 81.0097C109.399 81.0252 109.402 81.0407 109.407 81.0553C109.412 81.0699 109.42 81.0833 109.431 81.0948C109.441 81.1062 109.454 81.1155 109.468 81.122C109.621 81.2331 109.797 81.307 109.983 81.3379C110.169 81.3688 110.36 81.3558 110.54 81.3C110.72 81.2442 110.885 81.147 111.021 81.0163C111.157 80.8856 111.26 80.7249 111.323 80.5471C111.343 80.5237 111.354 80.4932 111.352 80.4623C111.349 80.4314 111.335 80.4026 111.312 80.3823C111.288 80.362 111.258 80.3518 111.227 80.3539C111.196 80.3561 111.167 80.3704 111.147 80.3938ZM16.9479 114.159C15.4992 114.29 15.7521 114.926 17.2009 114.727C18.6496 114.527 17.8754 114.075 16.9479 114.159ZM39.6526 111.308C39.5003 111.32 39.3491 111.343 39.2003 111.377C38.3725 111.607 38.5564 111.891 39.3766 111.906C40.971 111.914 41.063 111.201 39.6526 111.308ZM16.1661 130.778C15.5375 130.778 14.7403 131.123 15.7828 131.337C16.0369 131.375 16.2952 131.375 16.5493 131.337C17.6301 131.077 16.7333 130.763 16.1661 130.778ZM38.4798 126.662C37.2916 126.715 37.7669 127.167 38.4798 127.236C39.7215 127.367 40.0282 126.6 38.4798 126.662ZM60.8318 137.907C59.2987 137.983 60.6018 138.596 61.5983 138.481C62.5948 138.367 62.2959 137.83 60.8318 137.907ZM84.211 131.974C82.6779 131.912 83.2222 132.579 84.349 132.572C85.2305 132.564 85.5294 132.043 84.211 131.974ZM109.713 140.904C108.709 140.904 108.111 141.325 109.238 141.479C109.559 141.513 109.883 141.513 110.204 141.479C111.369 141.249 110.61 140.888 109.713 140.904ZM128.195 121.679C129.866 121.817 129.904 121.189 128.195 121.089C126.347 120.974 126.96 121.579 128.195 121.679ZM139.738 118.092C139.263 118.168 138.972 118.437 139.593 118.613C139.897 118.69 140.216 118.69 140.52 118.613C141.44 118.245 140.451 117.977 139.738 118.092ZM33.321 39.53C34.3758 39.5281 35.4198 39.3176 36.393 38.9107C37.3661 38.5038 38.2493 37.9085 38.9916 37.1591C39.7339 36.4097 40.3207 35.5209 40.7182 34.5439C41.1158 33.5669 41.3164 32.5209 41.3083 31.4661C41.2439 29.3896 40.3738 27.4197 38.8822 25.9736C37.3906 24.5275 35.3947 23.7188 33.3172 23.7188C31.2397 23.7188 29.2437 24.5275 27.7521 25.9736C26.2605 27.4197 25.3904 29.3896 25.3261 31.4661C25.318 32.5216 25.5188 33.5682 25.9168 34.5457C26.3149 35.5232 26.9024 36.4123 27.6455 37.1618C28.3886 37.9113 29.2726 38.5064 30.2467 38.9129C31.2207 39.3193 32.2656 39.5291 33.321 39.53ZM27.9936 26.1234C28.6756 25.3932 29.5005 24.811 30.4169 24.413C31.3334 24.0149 32.3219 23.8095 33.321 23.8095C34.3202 23.8095 35.3087 24.0149 36.2251 24.413C37.1416 24.811 37.9664 25.3932 38.6484 26.1234C40.0289 27.5509 40.7955 29.4622 40.784 31.448C40.7725 33.4338 39.9839 35.3361 38.5871 36.7475C37.8974 37.4424 37.077 37.9938 36.1732 38.3701C35.2694 38.7465 34.3 38.9402 33.321 38.9402C32.342 38.9402 31.3727 38.7465 30.4689 38.3701C29.5651 37.9938 28.7447 37.4424 28.055 36.7475C26.6581 35.3361 25.8695 33.4338 25.858 31.448C25.8466 29.4622 26.6132 27.5509 27.9936 26.1234ZM114.895 34.7086L114.888 34.6932V34.7009L114.895 34.7086ZM95.2107 47.295C95.2107 47.295 97.1807 45.9229 97.3417 45.8003C98.1772 45.1564 99.2043 44.5125 100.025 43.9836C102.209 42.5808 102.125 42.4505 105.045 40.8331C105.888 40.3579 113.01 36.5023 113.63 36.1343C113.655 36.1171 113.672 36.0915 113.679 36.0623C113.686 36.0332 113.682 36.0025 113.668 35.9761C113.654 35.9497 113.631 35.9294 113.602 35.919C113.574 35.9086 113.543 35.9088 113.515 35.9197C110.702 37.3684 105.229 39.691 101.159 42.5425C99.7539 43.4551 98.3955 44.4375 97.0887 45.486C96.3566 46.0321 95.653 46.6154 94.9807 47.2337C94.9803 47.261 94.989 47.2878 95.0055 47.3096C95.022 47.3314 95.0453 47.3471 95.0718 47.3542C95.0982 47.3612 95.1262 47.3592 95.1514 47.3485C95.1766 47.3378 95.1975 47.3189 95.2107 47.295ZM84.7476 91.3935C85.2413 91.6563 85.7904 91.7982 86.3496 91.8074C86.5949 91.8074 86.7559 91.6311 86.8095 91.2709C86.8632 90.9075 86.8632 90.5381 86.8095 90.1747C86.5489 88.4424 86.043 88.864 86.158 89.0479C85.6674 89.1782 84.027 91.0179 84.7476 91.3935ZM86.204 89.3162C86.2125 89.3198 86.2216 89.3216 86.2308 89.3216C86.24 89.3216 86.2491 89.3198 86.2576 89.3162C86.3202 89.9509 86.3202 90.5902 86.2576 91.2249C85.8896 91.1667 85.5295 91.0664 85.1845 90.9259C85.4463 90.3438 85.7896 89.8018 86.204 89.3162Z" fill="black"/>
<path fill-rule="evenodd" clip-rule="evenodd" d="M126.769 43.6922L128.555 41.9062L129.436 44.3361C129.498 44.5047 128.869 44.2134 138.106 48.0384C138.251 48.0997 138.159 48.0997 140.405 47.2719C140.712 49.8858 140.681 49.8398 140.781 49.9471C141.394 50.5986 146.223 55.7267 146.913 56.317C148.224 57.4744 151.091 49.3032 148.339 44.957C142.759 36.1802 135.676 33.551 125.42 32.8075C123.396 32.6695 118.889 33.4743 116.888 33.8576C121.38 31.3051 121.181 31.5197 121.165 31.3281L121.02 29.2968L122.921 29.542C123.043 29.542 122.254 30.0786 135.101 21.5011C135.285 21.3785 135.239 21.5011 135.239 19.0866C137.033 18.7493 137.255 18.7186 137.332 18.688C138.006 18.4044 143.303 16.2274 143.893 15.7981C143.966 15.7549 144.019 15.6855 144.042 15.6042C144.064 15.5229 144.055 15.4359 144.016 15.3612C141.908 11.6512 138.757 11.4213 134.618 12.1571C126.83 13.5292 121.756 18.5423 116.812 24.6516C115.306 26.6653 114.373 29.0493 114.113 31.5504C111.116 26.5066 105.981 24.7052 100.684 22.5589C92.8882 19.4085 75.5186 19.2169 68.3439 24.2453C64.9764 26.5326 62.2695 29.6652 60.4946 33.3287C60.4333 33.4513 60.4179 33.7196 60.7782 33.8193C62.0583 34.1719 73.5333 33.8193 74.867 33.8193C75.051 33.8193 75.0587 33.689 76.6224 32.5162C76.7297 32.9224 76.86 33.528 76.929 33.8959C76.9435 33.9635 76.9815 34.0237 77.0362 34.0658C77.091 34.108 77.1589 34.1292 77.2279 34.1259C89.1858 33.643 88.4576 33.712 88.5726 33.5893C88.5726 33.5893 89.8374 32.1559 90.4123 31.5887C90.4857 31.8023 90.5471 32.0198 90.5962 32.2402C90.9258 33.689 90.7572 33.8959 91.0255 33.9803C93.4324 34.7468 98.5528 36.2798 101.098 36.8777C93.5397 39.2846 89.0325 41.9292 84.395 48.506C82.7082 51.0757 81.3921 53.8704 80.4857 56.8075C79.9234 56.7519 79.3583 56.8811 78.876 57.1755C78.5464 57.3978 78.6614 57.942 78.784 58.3176C77.8412 58.1336 77.3276 58.5706 77.6419 59.5287C77.8948 60.2952 78.6997 61.3607 78.6997 61.905C78.646 61.8283 78.5157 61.6137 78.4851 61.5754C77.7102 60.9821 76.7449 60.693 75.7715 60.7628C74.821 60.7628 74.0468 61.7287 73.4183 62.1809C74.0238 60.2799 72.9277 59.1761 70.1989 61.744C70.2593 61.5712 70.2777 61.3864 70.2523 61.2051C70.227 61.0238 70.1587 60.8511 70.0532 60.7015C69.2867 59.935 67.447 61.6367 66.7035 62.0813C66.7035 61.767 66.9411 61.1078 66.2512 60.7628C65.1398 60.2033 64.3502 61.3377 63.668 62.2959C63.4074 61.2304 62.0583 60.9928 61.0388 61.3991C60.441 61.699 59.9749 62.2091 59.7302 62.8316C59.4854 63.4541 59.4792 64.145 59.7127 64.7718C58.5706 64.1739 57.2138 63.783 57.1602 65.0707C57.1577 65.3988 57.1963 65.7258 57.2752 66.0442C56.7386 65.707 55.9107 65.2777 55.3435 65.5613C54.2703 66.1055 54.577 67.2017 55.1902 68.2288C48.483 68.2288 8.07155 68.9954 4.59916 69.187C4.53518 69.202 4.47814 69.2382 4.43731 69.2896C4.39648 69.3411 4.37426 69.4049 4.37426 69.4706C4.37426 69.5363 4.39648 69.6001 4.43731 69.6516C4.47814 69.7031 4.53518 69.7393 4.59916 69.7542C38.1425 69.3403 98.6218 68.9877 98.9361 69.164C104.302 72.8893 94.4136 82.7699 87.5608 84.2877C85.4105 82.758 83.1792 81.3455 80.8766 80.0564C80.685 79.9568 80.6467 80.2787 80.616 80.4933C80.5853 80.708 80.5547 80.9379 80.524 81.2599C78.5505 79.2008 76.2111 77.5268 73.6253 76.3234C68.5202 74.1618 65.1934 75.9018 62.3189 80.5317C61.0846 82.6507 60.0578 84.884 59.2528 87.2005C58.5585 89.2435 57.9701 91.321 57.4898 93.4247C56.2559 93.6742 54.989 93.7157 53.7414 93.5473C50.8746 93.1871 46.72 92.0986 45.8692 92.3822C44.2288 92.9341 42.872 94.2832 41.1703 94.8504C38.4477 95.7915 35.5619 96.1681 32.6889 95.9573C29.8159 95.7464 27.016 94.9525 24.46 93.624C23.6934 93.2561 18.8183 94.7891 17.7145 95.0191C14.9857 95.571 8.03322 93.854 4.04726 90.8798C4.02174 90.8673 3.99266 90.864 3.965 90.8706C3.93733 90.8771 3.91281 90.8931 3.8956 90.9157C3.8784 90.9383 3.8696 90.9663 3.8707 90.9947C3.87179 91.0231 3.88272 91.0502 3.90162 91.0714C7.9489 94.1376 14.955 95.9006 17.7835 95.3487C18.4734 95.2107 23.7624 93.7007 24.2837 93.9613C26.8839 95.3306 29.7359 96.1558 32.6655 96.3864C35.5952 96.6171 38.5412 96.2483 41.3236 95.3027C43.102 94.7125 44.3898 93.394 46.0301 92.8575C46.6817 92.6428 50.9819 93.7236 53.6955 94.0686C54.9206 94.2461 56.1667 94.2176 57.3825 93.9843C57.0452 95.4483 55.9261 100.561 55.8494 101.565C55.8403 101.618 55.8424 101.671 55.8556 101.723C55.8688 101.775 55.8928 101.823 55.9261 101.864C56.0564 101.987 56.3017 101.995 57.9267 102.025C57.5128 104.555 57.5511 104.363 57.3671 104.593C56.5518 105.433 55.6784 106.214 54.7533 106.931C54.1784 107.406 53.4425 108.226 53.7721 108.901C53.9714 109.292 54.4696 109.315 54.9066 109.277C54.9066 109.484 54.9066 109.882 55.1059 109.936C55.4431 110.012 58.7546 109.982 59.3218 109.974L59.912 110.741C59.0612 112.12 53.3735 121.541 53.5115 123.143C53.5575 123.618 54.485 123.871 54.9909 124.009C54.8912 124.27 54.7916 124.531 54.6996 124.73C54.6076 124.929 54.623 124.937 54.5846 124.998C54.5463 125.059 51.6565 125.765 50.3457 126.715C49.4872 127.328 49.5792 127.988 50.0391 128.248C51.2962 128.976 58.2103 128.823 58.5936 128.417C59.0995 127.88 59.4904 125.604 59.6207 124.868C60.1597 124.97 60.7147 124.952 61.2458 124.814C63.7741 122.761 66.123 120.497 68.2672 118.046C69.1564 118.59 70.0992 119.111 71.0957 119.579C70.3292 120.445 62.1196 129.597 62.0353 130.264C61.9203 131.1 64.3349 132.027 65.0478 131.59C65.2624 131.452 65.8143 130.824 74.4224 120.943C76.0235 121.485 77.6707 121.88 79.3436 122.124C81.9919 122.504 84.663 122.704 87.3385 122.722C90.3586 124.377 94.0073 126.363 96.3375 127.62C87.2158 138.903 87.6528 138.313 87.6528 138.527C87.6528 138.934 88.2583 139.348 88.6033 139.562C88.9482 139.777 89.6074 140.099 89.9677 139.907C90.4966 139.616 98.6678 129.582 99.0741 129.084C103.443 131.383 107.153 133.33 108.134 133.813C108.449 133.974 108.709 133.66 108.901 133.361C109.135 132.975 109.335 132.57 109.499 132.15C109.521 132.085 109.52 132.015 109.496 131.95C109.472 131.886 109.427 131.832 109.369 131.797L100.776 127.006L106.042 120.583L131.843 134.909C131.907 134.937 131.977 134.945 132.045 134.933C132.113 134.92 132.176 134.888 132.227 134.84C132.702 134.212 133.094 133.524 133.392 132.794C133.484 132.51 133.33 132.41 133.139 132.288C133.1 132.288 117.854 123.687 108.019 118.168L113.47 111.499C114.787 111.555 116.101 111.323 117.32 110.82C118.539 110.317 119.634 109.555 120.529 108.587C120.606 109.476 120.66 110.181 120.698 110.672C120.705 110.698 120.72 110.721 120.741 110.738C120.763 110.755 120.789 110.764 120.817 110.764C120.844 110.764 120.87 110.755 120.892 110.738C120.913 110.721 120.929 110.698 120.936 110.672C120.89 109.905 120.836 109.139 120.782 108.326C122.783 106.026 123.588 102.615 123.618 99.5569C124.423 99.4067 125.216 99.2044 125.995 98.9514C126.025 98.9514 126.054 98.9393 126.076 98.9177C126.097 98.8961 126.11 98.8669 126.11 98.8364C126.11 98.8059 126.097 98.7767 126.076 98.7551C126.054 98.7335 126.025 98.7214 125.995 98.7214C125.249 98.731 124.505 98.8029 123.772 98.9361C126.945 95.0498 132.464 88.2046 133.399 87.0088C135.699 100.438 135.852 110.626 136.143 111.538C136.143 111.699 136.373 111.821 136.373 111.438C136.377 111.418 136.377 111.397 136.373 111.377C135.998 107.452 135.737 98.4608 133.79 86.5183C140.589 77.9561 140.29 78.1937 140.137 77.9484C139.831 77.4809 138.604 77.0746 137.746 77.0439C137.661 77.0439 137.815 76.883 135.814 79.3435C134.994 79.1289 133.783 78.8836 132.334 78.623C131.705 75.5569 131 72.5444 130.188 69.4246C147.12 69.8232 146.208 69.8922 146.338 69.6776L147.174 69.7542C147.192 69.7589 147.211 69.7593 147.229 69.7555C147.248 69.7517 147.265 69.7438 147.279 69.7323C147.294 69.7208 147.306 69.7062 147.314 69.6894C147.323 69.6726 147.327 69.6541 147.327 69.6354C147.327 69.6167 147.323 69.5983 147.314 69.5815C147.306 69.5647 147.294 69.55 147.279 69.5385C147.265 69.5271 147.248 69.5191 147.229 69.5153C147.211 69.5115 147.192 69.512 147.174 69.5166L146.331 69.44C146.369 68.3285 146.208 67.2094 145.158 66.8261C145.809 66.5041 146.875 66.0596 146.438 65.2394C146.001 64.4192 144.905 65.293 144.468 65.2394C144.391 64.7335 145.235 63.1007 143.701 62.7175C143.141 62.7136 142.581 62.7392 142.023 62.7941C142.306 62.2806 142.866 61.3684 142.789 60.8088C142.72 60.4486 142.414 60.1649 141.578 60.3719C141.41 60.4179 140.812 60.6555 140.39 60.7628C140.475 60.6379 140.547 60.5043 140.605 60.3642C140.75 59.6694 140.624 58.9452 140.252 58.3406C139.363 57.0145 138.067 58.034 136.987 58.5322C137.188 58.1818 137.299 57.7866 137.309 57.3824C137.27 56.6619 136.458 56.4933 135.776 56.6926C135.212 56.9049 134.666 57.1612 134.143 57.4591C134.366 57.1455 134.464 56.7592 134.415 56.3772C134.367 55.9952 134.177 55.6453 133.882 55.3971C133.415 55.0905 132.234 55.3971 131.698 55.6041C132.464 54.2397 132.188 53.0669 131.56 52.4383C130.931 51.8098 129.482 52.3617 128.838 52.3003C129.001 52.0762 129.142 51.8375 129.26 51.5875C129.406 50.9025 129.279 50.1879 128.907 49.5945C128.826 49.4662 128.713 49.3618 128.578 49.2917C128.443 49.2217 128.292 49.1886 128.141 49.1959C127.374 49.1959 126.064 50.2077 125.841 49.9624C125.619 49.7171 125.841 48.8433 125.075 48.4294C124.308 48.0154 123.411 48.2914 123.411 49.6175C122.101 46.5514 120.828 43.9911 119.686 41.8755C127.167 43.9452 126.631 43.8455 126.769 43.6922ZM58.2563 128.011C57.3978 128.21 51.0969 128.248 50.2614 127.689C49.9701 126.983 54.186 125.619 54.7226 125.335C54.9449 125.213 55.1595 124.454 55.2745 124.063C56.6077 124.408 57.9623 124.664 59.3295 124.829C59.1531 125.381 58.6089 127.566 58.2563 128.011ZM117.141 24.9122C122.085 18.9639 127.167 14.0351 134.718 12.7244C138.474 12.0728 141.379 12.1571 143.364 15.4225C142.345 15.9745 138.213 17.7221 137.14 18.1361L134.902 18.5653C134.836 18.5791 134.777 18.6145 134.734 18.666C134.691 18.7174 134.666 18.7819 134.664 18.8489V21.1102L122.89 29.1281C120.69 28.8752 120.759 28.8522 120.66 28.9441C120.56 29.0361 120.583 28.9441 120.782 31.2437C120.261 31.5504 117.839 32.9531 116.045 34.0186C114.106 34.4018 114.55 34.3559 114.198 34.3175C114.213 31.0674 115.056 27.4188 117.141 24.9122ZM91.3244 33.5357C91.2422 32.6813 91.049 31.8412 90.7495 31.0368C90.7315 31.0012 90.7055 30.9703 90.6736 30.9464C90.6417 30.9225 90.6048 30.9062 90.5656 30.8988C90.3893 30.8988 90.2513 31.0138 90.1057 31.1518C89.6151 31.6193 88.5726 32.7998 88.2506 33.1217L77.4426 33.5203C77.3736 33.1754 77.182 32.2786 77.067 31.9413C77.0537 31.8992 77.0309 31.8606 77.0005 31.8286C76.9701 31.7966 76.9329 31.7719 76.8915 31.7563C76.8502 31.7408 76.8058 31.7349 76.7618 31.7391C76.7179 31.7432 76.6754 31.7573 76.6377 31.7803C76.4001 31.903 74.9667 33.0451 74.752 33.2137C72.7667 33.275 63.1391 33.528 61.1768 33.2904C62.9127 29.8513 65.4919 26.9082 68.6735 24.7359C75.5646 19.9297 92.7502 19.9297 100.507 22.9959C105.935 25.1422 111.078 26.8745 114.06 32.0486C113.977 32.7944 113.936 33.5442 113.937 34.2945C113.209 34.2409 113.715 34.4095 112.488 33.5817C105.59 28.9288 89.9217 24.0537 81.9958 26.3993C81.9658 26.4082 81.9404 26.4283 81.9247 26.4553C81.909 26.4824 81.9043 26.5145 81.9114 26.5449C82.0341 26.9818 84.5253 25.0962 94.5745 27.2501C100.347 28.4766 108.088 31.1441 112.764 34.2409C109.2 34.1872 106.525 35.1684 101.826 36.6171C99.488 36.0959 93.5934 34.2562 91.3244 33.5357ZM84.8549 48.805C89.9907 41.4539 95.0498 39.093 103.689 36.4715C106.364 35.6513 109.307 34.5398 112.12 34.5245C113.017 34.4857 113.915 34.5319 114.803 34.6625C114.803 34.6625 114.941 34.6625 114.918 34.7085C115.036 35.8989 114.838 37.0994 114.343 38.1885C113.663 39.8637 112.738 41.4291 111.599 42.8337C108.617 46.6663 107.36 48.1074 103.221 50.7596C102.784 50.6676 101.151 50.2077 100.737 50.0851C100.7 50.0747 100.66 50.0729 100.622 50.0798C100.584 50.0867 100.547 50.1021 100.516 50.1249C100.484 50.1477 100.458 50.1773 100.439 50.2115C100.421 50.2458 100.41 50.2837 100.408 50.3227L100.186 53.6571C97.3724 54.7992 91.884 57.2445 89.6304 59.2528C88.8639 57.4514 88.7796 56.4703 88.3196 56.4703C88.0284 56.4703 88.0284 56.5163 87.1315 60.1649C85.9741 60.7092 81.1296 62.9628 79.8571 63.1467C79.4662 61.9816 81.2522 53.9177 84.8549 48.805ZM113.784 47.1339C113.017 46.766 111.844 47.3792 111.147 47.8008C111.454 47.2566 111.913 46.3521 111.316 46.0684C110.604 45.8887 109.851 45.9932 109.215 46.3597C110.02 45.4322 110.84 44.3821 111.86 43.0483C112.714 41.9461 113.454 40.7595 114.067 39.5069C114.213 41.201 114.497 44.3284 114.872 48.368C114.482 48.379 114.099 48.4786 113.753 48.6593C113.983 48.2914 114.566 47.5248 113.784 47.1339ZM55.7881 68.2212C55.2438 67.4546 54.7149 66.4352 55.5505 66.0136C55.8082 65.9434 56.0832 65.9764 56.317 66.1055C56.7528 66.3108 57.162 66.5682 57.5358 66.8721C57.579 66.9043 57.6314 66.9219 57.6853 66.9223C57.7393 66.9226 57.7919 66.9057 57.8356 66.8741C57.8792 66.8424 57.9116 66.7976 57.928 66.7462C57.9444 66.6948 57.9439 66.6396 57.9267 66.5885C57.7237 66.0612 57.6349 65.4969 57.6661 64.9328C57.6661 64.8561 57.6661 64.7948 57.7657 64.7718C58.0464 64.7149 58.3376 64.7443 58.6012 64.8561C59.0605 65.0188 59.5001 65.2322 59.912 65.4923C59.9516 65.5152 59.9966 65.5272 60.0423 65.5272C60.0881 65.5272 60.133 65.5152 60.1726 65.4923C60.5636 65.2394 59.7434 64.3119 60.1726 63.0318C60.2489 62.7734 60.3811 62.5351 60.56 62.3337C60.7389 62.1323 60.9599 61.9728 61.2075 61.8666C62.0736 61.5217 63.2311 61.7133 63.2388 62.7175V62.9321C63.2378 62.9787 63.2511 63.0245 63.2767 63.0635C63.3024 63.1024 63.3393 63.1326 63.3826 63.15C63.4258 63.1675 63.4733 63.1714 63.5188 63.1612C63.5643 63.1511 63.6057 63.1273 63.6374 63.0931C64.2122 62.5182 65.0171 60.7015 66.0443 61.2074C66.3585 61.3684 66.2666 61.6367 66.2436 61.9739C66.2206 62.3112 66.3432 62.6792 66.6498 62.6408C67.1404 62.5795 70.0609 59.774 69.7849 61.56C69.7227 61.8933 69.6197 62.2177 69.4783 62.5259C69.4617 62.5727 69.4613 62.6237 69.4771 62.6708C69.4929 62.7179 69.524 62.7583 69.5654 62.7857C69.6069 62.813 69.6563 62.8257 69.7058 62.8217C69.7553 62.8176 69.8021 62.7972 69.8386 62.7635C70.4748 62.0506 72.4218 60.2109 73.0504 60.8395C73.242 61.0311 73.0963 61.8436 73.0044 62.1196C72.9479 62.216 72.8811 62.306 72.8051 62.3879C72.6671 62.5948 72.7361 62.8248 72.989 62.8248C73.8399 62.8248 74.729 61.2151 75.7639 61.2151C76.6297 61.1531 77.4897 61.3973 78.1938 61.905C78.2704 61.9816 78.5924 62.7481 78.899 62.4339C79.4739 61.8666 78.5924 60.7322 78.1324 59.8507C77.9715 59.5287 77.7032 58.9078 78.0405 58.7622C78.329 58.6823 78.6357 58.6984 78.9143 58.8082C79.0523 59.0918 79.2976 59.5747 79.5582 59.3447C79.8188 59.1148 79.7422 58.7775 79.1903 58.5169C79.1166 58.3407 79.0576 58.1586 79.014 57.9727C79.014 57.8653 78.9526 57.5894 79.014 57.5281C79.4013 57.2948 79.8505 57.1852 80.3017 57.2138C79.9568 58.3023 78.6307 62.8248 79.4279 63.6297C79.5345 63.7194 79.6722 63.7635 79.8111 63.7523C80.9456 63.6986 86.4416 61.1308 87.4765 60.6862C87.6911 60.5865 87.5684 60.6325 88.3503 57.6201C89.0632 59.4904 89.1628 60.0193 89.5231 60.027C89.8834 60.0346 89.6994 59.4367 93.8003 57.2445C96.9584 55.5581 100.515 54.117 100.515 54.117C100.563 54.0988 100.605 54.0676 100.636 54.027C100.667 53.9864 100.686 53.938 100.691 53.8871L100.852 50.7289C103.152 51.3498 103.229 51.3728 103.359 51.2885C105.28 50.1036 107.044 48.6821 108.61 47.0573C109.376 46.628 110.564 46.1221 111.147 46.4134C111.538 46.6127 110.741 47.9464 110.442 48.3144C110.423 48.3465 110.416 48.3837 110.421 48.4203C110.426 48.4569 110.443 48.4909 110.469 48.517C110.495 48.5431 110.529 48.5599 110.566 48.5649C110.602 48.5698 110.64 48.5626 110.672 48.5443C111.047 48.2684 112.818 47.1033 113.6 47.4942C114.382 47.8851 112.795 48.9123 113.278 49.2342C113.424 49.3262 113.607 49.1959 113.768 49.0886C114.102 48.8887 114.483 48.7803 114.872 48.7743C115.317 53.4501 115.869 59.2988 116.459 65.5307C115.167 65.8521 113.981 66.5046 113.017 67.424C111.788 67.3126 110.55 67.5075 109.415 67.9912C109.016 68.1599 109.108 68.5355 109.507 68.5278C109.415 68.5278 109.737 68.5278 110.273 68.6658C110.472 68.6044 68.0679 68.2595 55.7881 68.2212ZM114.297 84.395C114.297 84.395 114.55 84.5253 114.88 84.7169C113.5 85.6367 110.465 87.2848 110.181 87.8444C110.146 87.9248 110.139 88.0146 110.161 88.0994C110.184 88.1842 110.234 88.259 110.304 88.3119C110.495 88.5266 110.449 88.3656 110.419 88.6645V89.9906C110.342 90.6776 110.198 91.3554 109.989 92.0143C109.639 92.0985 109.271 92.069 108.939 91.93C107.061 91.1098 105.988 89.7377 106.187 87.6834C107.138 87.8214 107.682 87.9823 107.866 87.9977C108.05 88.013 108.548 87.6757 107.966 87.4534C107.613 87.3231 107.629 83.1149 108.081 83.3142C108.109 83.3197 108.138 83.3154 108.163 83.302C108.188 83.2886 108.207 83.267 108.218 83.2408C108.229 83.2145 108.23 83.1854 108.222 83.1582C108.214 83.1311 108.196 83.1076 108.173 83.0919C108.939 81.9267 108.939 81.9497 108.939 81.7888C108.929 81.7497 108.909 81.7136 108.883 81.6831C108.856 81.6525 108.823 81.6284 108.786 81.6125C108.495 81.4557 108.25 81.2266 108.074 80.9472C107.898 80.6679 107.798 80.3478 107.782 80.0181C107.745 79.5213 107.802 79.0219 107.95 78.5463C108.243 78.6832 108.565 78.7476 108.887 78.7343C109.21 78.7209 109.525 78.6302 109.805 78.4697C109.645 78.7993 109.468 79.1902 109.698 79.4662C109.877 79.6502 110.111 79.7702 110.364 79.8076C110.618 79.845 110.877 79.7978 111.101 79.6731C111.115 79.6676 111.128 79.6593 111.139 79.6488C111.15 79.6383 111.158 79.6258 111.164 79.6119C111.171 79.598 111.174 79.5831 111.174 79.5679C111.174 79.5528 111.172 79.5378 111.166 79.5237C111.161 79.5096 111.152 79.4967 111.142 79.4858C111.131 79.4749 111.119 79.4662 111.105 79.4601C111.091 79.4541 111.076 79.4508 111.061 79.4505C111.046 79.4503 111.031 79.453 111.017 79.4585C110.707 79.4704 110.403 79.3666 110.166 79.1672C110.379 78.6362 110.635 78.1235 110.932 77.6342C111.752 78.0404 111.699 77.6342 111.607 78.0481C111.385 79.9644 113.569 80.5776 114.895 79.3052C115.115 79.074 115.306 78.8165 115.462 78.5387C115.682 78.5836 115.91 78.5677 116.122 78.4927C116.543 78.761 116.49 78.6077 116.467 78.8376C116.451 78.9463 116.465 79.0571 116.505 79.1592C116.545 79.2612 116.611 79.3512 116.697 79.4202C116.712 79.5089 116.712 79.5997 116.697 79.6885C115.562 80.3247 115.631 79.9491 115.439 80.524C115.033 80.7386 115.049 81.1755 114.949 81.5665C114.903 81.7428 114.412 83.4828 114.221 84.1114C114.205 84.1598 114.204 84.2118 114.218 84.2608C114.231 84.3098 114.259 84.3538 114.297 84.3873V84.395ZM110.748 88.7335C111.172 89.0439 111.471 89.4951 111.592 90.006C111.699 90.5425 111.592 90.6729 111.699 90.8568C111.736 90.9142 111.789 90.9595 111.852 90.9871C111.422 91.3562 110.939 91.6585 110.419 91.884C110.578 91.2774 110.694 90.66 110.764 90.0366C110.794 89.7607 110.725 89.1858 110.748 88.7259V88.7335ZM110.748 87.967C111.607 87.2005 115.095 85.0465 115.524 84.464C116.068 84.7936 116.888 85.2995 117.402 85.6674C115.869 86.8939 113.883 88.4729 112.166 90.075C112.059 89.0172 111.492 88.6722 110.779 87.99L110.748 87.967ZM94.4902 103.098C96.7756 102.994 99.0532 102.761 101.312 102.401C102.317 104.172 103.563 105.795 105.015 107.222C106.529 108.619 108.252 109.772 110.12 110.641C108.993 112.634 107.138 115.309 105.245 116.605L100.078 113.715C99.5493 111.929 99.3577 110.35 98.7828 108.625C98.4464 107.442 97.782 106.379 96.8665 105.559C96.1996 104.854 94.5669 103.259 94.4595 103.114C94.3522 102.968 94.4519 103.137 94.4902 103.098ZM101.136 101.849C99.4957 102.094 95.0804 102.615 93.5627 102.485C93.8658 99.5597 93.981 96.6178 93.9076 93.6777C95.0574 94.6665 96.6135 95.9772 98.1082 97.2957C97.4672 97.4939 96.9111 97.9014 96.5292 98.4531C96.4812 98.5499 96.4561 98.6563 96.4558 98.7643C96.4555 98.8723 96.48 98.9789 96.5274 99.0759C96.5748 99.173 96.6438 99.2578 96.7292 99.3239C96.8146 99.39 96.914 99.4357 97.0198 99.4573C97.1291 99.473 97.2401 99.473 97.3494 99.4573C97.3165 99.5665 97.3083 99.6816 97.3256 99.7943C97.3428 99.907 97.385 100.014 97.449 100.109C97.5617 100.285 97.7245 100.424 97.9166 100.507C98.0002 100.523 98.086 100.523 98.1696 100.507C98.1507 100.583 98.1507 100.662 98.1696 100.737C98.3229 101.995 99.557 101.328 100.737 100.906C101.32 100.707 101.312 100.737 101.673 101.029L101.136 101.849ZM107.33 87.2848C106.475 87.067 105.597 86.9588 104.716 86.9628C104.363 86.9628 104.401 87.0472 104.417 86.9628C104.547 85.951 105.061 83.1302 105.751 82.3637L107.82 83.1302C107.314 83.7511 107.092 86.2346 107.314 87.3155L107.33 87.2848ZM107.33 82.6856C107.084 82.563 105.996 82.0341 105.797 81.9191C105.597 81.8041 105.513 81.9191 105.352 82.126L105.099 82.08L107.215 79.7345C107.2 80.1253 107.274 80.5143 107.43 80.8727C107.587 81.231 107.822 81.5494 108.119 81.8041L107.33 82.6856ZM105.099 82.425C104.618 83.2868 104.281 84.2216 104.103 85.1922C103.925 85.949 103.802 86.7175 103.735 87.4918C103.732 87.5313 103.738 87.5708 103.752 87.6079C103.766 87.6451 103.787 87.679 103.814 87.7077C103.842 87.7364 103.874 87.7592 103.911 87.7748C103.947 87.7904 103.986 87.7984 104.026 87.7984C104.497 87.5512 105.042 87.4832 105.559 87.6067C105.468 88.3882 105.579 89.1799 105.881 89.9063C103.478 92.3558 100.948 94.6765 98.2999 96.8588L93.8617 93.2637C93.8617 92.3592 93.8617 91.5314 93.8003 90.8645C93.7313 89.1321 93.6854 89.1168 93.4707 88.8715C92.8778 88.2739 92.2397 87.7229 91.5621 87.2235C95.3717 84.9469 100.607 81.8118 105.137 82.4403L105.099 82.425ZM101.228 100.415C100.714 100.415 99.488 101.006 98.8364 100.99C98.6985 100.99 98.6601 100.822 98.6525 100.684C99.1354 100.101 100.438 99.9172 100.438 99.4496C100.438 99.4496 100.308 99.074 100.017 99.2043C99.3959 99.514 98.7496 99.7705 98.0852 99.9709C98.0273 99.9235 97.978 99.8665 97.9396 99.8022C97.8783 99.6872 97.9396 99.6643 97.9396 99.6336C98.5133 99.2433 99.1408 98.9386 99.8023 98.7291C99.8652 98.6939 99.9134 98.6372 99.9378 98.5693C99.9622 98.5014 99.9612 98.427 99.9351 98.3597C99.909 98.2925 99.8594 98.237 99.7955 98.2035C99.7317 98.1699 99.6578 98.1606 99.5876 98.1772C98.7445 98.4608 98.7138 98.5681 98.0546 98.7598C97.8476 98.8134 97.1194 99.028 97.0274 98.8364C96.9354 98.6448 97.4414 98.2615 97.656 98.1389C98.5089 97.6547 99.46 97.3691 100.438 97.3033C101.297 97.3033 101.381 97.357 103.175 98.6294L101.818 100.776C101.662 100.599 101.456 100.474 101.228 100.415ZM101.542 97.0197C100.732 96.7639 99.8618 96.7639 99.0511 97.0197C101.537 94.9332 103.894 92.6985 106.111 90.3279C106.711 91.3091 107.619 92.0639 108.694 92.4742C109.022 92.616 109.38 92.6764 109.737 92.6505C108.594 95.1494 105.26 96.5445 104.486 97.7786L104.171 97.587C104.11 97.5493 104.037 97.5371 103.967 97.5528C103.896 97.5686 103.835 97.6111 103.796 97.6713L103.351 98.3765C102.669 97.8246 101.826 97.1807 101.542 97.0274V97.0197ZM115.34 75.3729C115.34 75.6335 115.133 75.8022 115.141 76.1394C115.139 76.2664 115.163 76.3924 115.212 76.5097C115.261 76.627 115.333 76.7332 115.424 76.8216C115.537 76.9098 115.657 76.9868 115.784 77.0516C115.843 77.072 115.895 77.1062 115.938 77.1513C115.833 77.3964 115.761 77.654 115.723 77.9178H115.662C115.792 77.5115 115.715 77.1513 115.455 77.0286C114.446 76.5666 113.332 76.3814 112.228 76.492C112.028 76.492 111.783 77.1283 111.714 77.3429C111.476 77.1968 111.218 77.0858 110.948 77.0133C111.086 76.6453 111.032 76.3387 110.802 76.1854C110.235 75.8512 109.602 75.6446 108.947 75.5799L109.108 75.1659C109.3 75.0831 109.463 74.9442 109.576 74.7673C109.752 74.5297 110.058 73.9318 110.158 74.0008C110.388 74.0698 110.649 74.5067 111.239 74.0468C111.442 73.855 111.629 73.6474 111.798 73.4259C112.03 73.5756 112.271 73.7113 112.519 73.8322C113.002 73.9395 113.347 73.4872 113.546 73.4183C113.646 73.5409 113.814 73.7709 113.86 73.8168C113.987 73.9097 114.132 73.9725 114.286 74.0004C114.44 74.0283 114.599 74.0206 114.75 73.9778C114.596 74.729 114.98 74.8517 115.332 75.3806L115.34 75.3729ZM116.62 70.0992C115.131 69.4656 113.592 68.9529 112.021 68.5661C111.706 68.4971 109.537 68.2518 109.461 68.2365L109.553 68.1828C110.829 67.6844 112.226 67.5829 113.561 67.8916C116.359 68.6581 120.997 70.8197 122.607 73.2573C123.175 74.027 123.632 74.8735 123.963 75.7715C123.219 75.1472 122.522 74.4682 121.878 73.7402C120.41 72.1581 118.612 70.9178 116.612 70.1068L116.62 70.0992ZM122.568 71.0497C122.568 71.3946 122.484 71.7319 122.446 72.0692C120.506 69.9305 115.876 67.8762 113.401 67.4087C116.106 65.2624 119.126 65.4233 120.905 66.8644C121.491 67.3836 121.947 68.034 122.235 68.7626C122.523 69.4912 122.634 70.2774 122.561 71.0573L122.568 71.0497ZM99.7409 69.0644C111.17 69.0644 110.143 69.0644 110.058 69.141H109.691C109.255 69.2353 108.864 69.4728 108.579 69.8156C108.173 70.4441 108.288 70.4211 108.326 70.9424C108.18 71.0767 108.051 71.2286 107.943 71.3946C107.811 71.5932 107.737 71.8245 107.729 72.0626C107.721 72.3008 107.779 72.5366 107.897 72.7437C107.828 72.9123 107.682 73.081 107.621 73.2649C107.585 73.3559 107.575 73.4551 107.593 73.5514C107.61 73.6476 107.655 73.737 107.721 73.8092C107.774 73.8519 107.83 73.8903 107.889 73.9242C107.916 73.9357 107.94 73.9542 107.958 73.9778C107.92 74.1311 107.82 74.2461 107.79 74.3994C107.778 74.5089 107.796 74.6195 107.84 74.7202C107.884 74.821 107.954 74.9086 108.042 74.9743C108.21 75.0991 108.39 75.2069 108.579 75.2963L108.487 75.5415H107.927C107.774 75.5415 107.552 75.9248 107.483 76.0628C107.271 76.3804 107.157 76.7539 107.157 77.1359C107.157 77.518 107.271 77.8914 107.483 78.2091C107.363 78.5496 107.278 78.9015 107.23 79.2592L104.647 82.08C102.453 81.9928 100.266 82.3744 98.2309 83.1992C95.7459 84.2055 93.3595 85.4398 91.1021 86.8862C90.1746 86.181 89.1015 85.3991 88.1663 84.7476C94.9425 82.9079 104.624 73.4259 99.7409 69.0644ZM80.869 80.3247C83.3832 81.6661 91.7307 87.6987 93.0568 89.1935C93.2024 89.3698 93.2178 89.1935 93.2791 90.8951C93.3711 93.5473 93.3941 99.6719 92.9955 102.27C92.7732 102.094 81.0606 92.8881 80.386 92.3976C80.3401 91.2171 80.639 81.5818 80.869 80.3247ZM54.347 108.686C54.2933 108.686 54.255 108.686 54.232 108.64C54.209 108.594 54.232 108.334 54.3393 108.173C54.7686 107.406 55.7498 106.893 57.1142 105.528C57.435 105.24 57.6956 104.891 57.8807 104.501C57.9804 104.118 58.149 102.493 58.195 102.033H62.6485C62.396 103.374 62.0762 104.702 61.6904 106.011C60.6019 106.548 55.5581 108.955 54.347 108.686ZM60.4792 109.667C59.82 109.667 55.7344 109.759 55.1135 109.667C55.0864 109.518 55.0864 109.365 55.1135 109.215C56.6388 108.865 58.1217 108.351 59.5364 107.682H61.836C61.3761 108.295 60.9392 108.97 60.5022 109.667H60.4792ZM66.1822 101.657C64.6508 103.438 63.2519 105.329 61.997 107.314L60.119 107.353C61.1385 106.877 61.8973 106.479 61.997 106.433C62.0799 106.379 62.1441 106.302 62.1809 106.21C62.54 104.824 62.8114 103.415 62.9935 101.995C63.9593 101.995 64.3042 101.995 64.3962 101.749C64.6415 101.213 69.118 92.8268 69.8386 91.5007C70.0839 91.5007 69.601 91.0868 73.265 95.8546C76.9137 94.8888 80.2174 94.8351 85.2152 96.8281L86.9169 98.1772C83.6975 96.7284 80.2097 95.5633 76.6454 95.7626C75.1418 95.8416 73.6511 96.0832 72.1995 96.4832C69.8846 97.7249 68.0142 99.7102 66.2052 101.657H66.1822ZM68.6428 117.578C71.387 114.573 73.7556 111.745 75.7102 109.767H79.7882C76.8907 113.025 73.9932 116.298 71.4636 119.157C70.5033 118.681 69.5693 118.154 68.6658 117.578H68.6428ZM64.7335 131.077C63.9609 131.101 63.2086 130.826 62.6332 130.31C63.4764 128.953 72.5444 118.751 80.5317 109.721H83.5978C67.2707 128.287 64.9405 130.946 64.7335 131.077ZM74.821 120.476C77.5882 117.294 80.8076 113.615 84.1957 109.744C85.2842 109.744 86.043 109.79 86.342 109.836C88.7489 114.282 93.9536 115.968 98.9514 116.628L103.052 118.927C100.764 120.196 98.2833 121.084 95.709 121.556C89.0862 122.852 80.0641 122.223 74.821 120.476ZM103.183 119.142L98.0546 125.481L92.5586 122.415C96.2874 122.066 99.9042 120.952 103.183 119.142ZM88.151 122.706C89.4771 122.706 90.7112 122.614 91.8687 122.499L97.7326 125.841L96.6595 127.167L88.151 122.706ZM108.847 132.165C108.701 132.536 108.508 132.886 108.272 133.208C107.613 132.878 103.75 130.862 99.4497 128.608L100.461 127.382L108.847 132.165ZM89.6841 139.355C89.1518 139.217 88.6688 138.933 88.289 138.535C88.335 138.466 95.1877 129.965 103.804 119.31L105.582 120.299C94.4825 133.721 90.2053 138.918 89.6841 139.355ZM132.778 132.74C132.537 133.273 132.252 133.786 131.928 134.273C129.628 133.154 88.2353 109.744 86.549 109.353C85.7058 109.139 76.745 109.353 75.7639 109.353L77.5422 107.529C78.4697 107.529 87.1469 107.529 87.8521 107.713C90.1516 108.387 132.495 132.74 132.771 132.74H132.778ZM107.567 117.9L105.781 116.919C107.682 115.516 109.484 112.91 110.633 110.863C111.342 111.137 112.08 111.328 112.833 111.43C112.941 111.438 113.163 111.147 107.56 117.9H107.567ZM121.878 105.705C121.129 107.324 119.919 108.687 118.398 109.621C113.799 112.427 109.453 110.388 105.367 106.785C103.926 105.362 102.69 103.744 101.696 101.979L104.08 98.1849C111.216 102.408 110.48 101.849 112.297 102.899C112.442 102.976 112.603 103.06 112.987 103.282L113.791 103.765C114.343 104.087 114.198 104.164 114.366 104.171C114.665 104.171 114.366 103.589 113.899 103.19C113.302 102.76 112.647 102.419 111.952 102.178C113.366 99.7643 114.917 97.4328 116.597 95.1954C116.616 95.171 116.625 95.1399 116.621 95.109C116.618 95.0781 116.602 95.0499 116.578 95.0306C116.553 95.0113 116.522 95.0024 116.491 95.006C116.461 95.0096 116.432 95.0253 116.413 95.0497C114.665 97.2664 113.048 99.5827 111.569 101.987C110.626 101.519 105.758 98.5605 104.854 98.0086C105.567 96.8511 109.062 95.3487 110.15 92.5662C111.906 92.1369 113.707 90.0213 114.75 88.5572L117.662 85.997C119.103 86.9993 120.258 88.36 121.012 89.9446C122.327 92.8365 123.037 95.9668 123.097 99.143C123.226 101.396 122.808 103.648 121.878 105.705ZM137.746 77.2739C138.343 77.2739 139.654 77.6802 139.869 78.0941C139.922 78.1784 138.65 80.0181 123.595 98.4148C123.54 97.3613 123.407 96.3134 123.197 95.2797C131.23 85.3455 137.523 77.5499 137.753 77.2739H137.746ZM135.446 79.6961C132.909 82.7623 128.379 88.2659 123.082 94.7125C122.682 93.0233 122.117 91.3775 121.395 89.799C120.606 88.1925 119.415 86.817 117.938 85.8054C117.97 85.7589 117.983 85.7023 117.974 85.6469C117.966 85.5914 117.936 85.5413 117.892 85.5064C117.279 85.1002 116.191 84.5483 115.593 84.2187C115.577 84.2098 115.558 84.2051 115.54 84.2047C115.521 84.2044 115.503 84.2086 115.487 84.2169C115.47 84.2251 115.456 84.2373 115.445 84.2523C115.434 84.2673 115.427 84.2847 115.424 84.303L114.811 83.9657L115.309 82.4326C115.49 82.5592 115.701 82.6376 115.921 82.6604C116.141 82.6832 116.363 82.6497 116.566 82.563C116.659 82.496 116.742 82.4159 116.812 82.3253C117.027 82.458 117.273 82.5351 117.525 82.5498C117.778 82.5645 118.031 82.5163 118.26 82.4097C118.583 82.2048 118.847 81.9195 119.027 81.5818C119.195 81.3365 119.226 81.2905 119.671 81.2982C120.101 81.3655 120.54 81.2639 120.897 81.0146C121.294 80.6034 121.514 80.0531 121.51 79.4815C121.903 79.3204 122.237 79.0416 122.464 78.6833C122.692 78.325 122.804 77.905 122.783 77.4809C125.634 77.9025 132.61 78.9526 135.446 79.7191V79.6961ZM123.948 48.9429C124.109 48.5673 124.469 48.6746 124.837 48.8586C125.205 49.0426 125.213 49.3799 125.274 49.7631C125.611 51.7331 127.85 48.8893 128.494 49.8628C128.79 50.355 128.891 50.9401 128.777 51.5031C128.628 51.7692 128.461 52.0252 128.279 52.2697C128.246 52.3095 128.228 52.3597 128.228 52.4115C128.228 52.4633 128.246 52.5134 128.279 52.5533C128.877 53.1512 130.532 52.1394 131.161 52.7756C131.414 53.0785 131.574 53.4481 131.621 53.8398C131.669 54.2314 131.602 54.6285 131.429 54.9832C131.207 55.5428 130.709 56.0333 130.831 56.294C130.954 56.5546 131.1 56.4856 131.276 56.294C131.452 56.1023 133.238 55.5811 133.576 55.788C133.671 55.8652 133.748 55.962 133.802 56.0718C133.856 56.1816 133.886 56.3018 133.89 56.4243C133.959 57.0988 133.599 57.2521 133.392 57.5511C133.185 57.85 133.307 58.08 133.599 58.08C134.564 58.08 135.737 56.7232 136.665 57.1985C136.902 57.3211 136.665 58.0493 136.465 58.3406C136.266 58.6319 136.097 58.7392 136.174 58.9615C136.327 59.4061 137.186 58.9615 137.6 58.7392C138.451 58.2869 139.24 57.8117 139.777 58.6165C140.067 59.1024 140.168 59.6783 140.06 60.2339C140.022 60.3872 139.654 60.8165 139.624 61.0005C139.562 61.3301 139.953 61.3761 140.275 61.3147C140.942 61.1921 142.207 60.5482 142.23 60.9468C142.23 61.5064 141.325 62.7788 141.325 63.0931C141.333 63.1649 141.367 63.2313 141.421 63.2795C141.474 63.3277 141.544 63.3541 141.617 63.3537C141.693 63.3537 143.449 63.2081 143.556 63.2387C144.759 63.5377 143.51 65.0631 144.077 65.6303C144.445 66.0059 145.104 65.6303 145.664 65.454C145.725 65.454 145.917 65.3927 145.947 65.454C146.154 65.8756 145.097 66.2205 144.667 66.4582C144.238 66.6958 144.253 67.1404 144.529 67.2247C144.662 67.2437 144.796 67.2437 144.928 67.2247C145.694 67.4776 145.802 68.3515 145.779 69.1563C144.698 69.1027 129.981 68.6044 129.927 68.6044C128.311 62.481 126.286 56.4732 123.864 50.6216C123.797 50.0613 123.825 49.4937 123.948 48.9429ZM130.793 74.2384C129.207 74.4175 127.633 74.6888 126.079 75.051C125.634 75.1659 125.243 75.2963 124.921 75.3959C124.891 75.402 124.864 75.42 124.847 75.4458C124.83 75.4717 124.823 75.5034 124.829 75.5339C124.836 75.5644 124.854 75.5912 124.879 75.6084C124.905 75.6257 124.937 75.632 124.967 75.6259L125.688 75.5722C126.967 75.4532 128.236 75.238 129.482 74.9283C129.945 74.7981 130.4 74.6446 130.847 74.4684C131.164 75.7715 131.465 77.1078 131.751 78.4773C130.486 78.2627 124.285 77.3352 122.668 77.1129C122.658 76.9746 122.604 76.843 122.515 76.7373C122.695 76.3841 122.834 76.0111 122.928 75.6259C123.207 75.9134 123.515 76.1704 123.848 76.3924C124.193 76.538 124.707 76.2621 124.485 75.4649C124.092 74.4959 123.577 73.5814 122.951 72.7437C122.99 72.2148 123.082 71.6936 123.143 71.1417C123.254 70.0394 123.019 68.9298 122.469 67.9679C121.919 67.006 121.083 66.2397 120.077 65.7759C119.153 65.429 118.161 65.3005 117.18 65.4003C116.996 63.553 116.812 61.652 116.62 59.797C116.932 59.8006 117.245 59.7852 117.555 59.751C119.104 59.5591 120.629 59.2125 122.108 58.7162C122.139 58.7101 122.166 58.6921 122.183 58.6663C122.2 58.6404 122.206 58.6087 122.2 58.5782C122.194 58.5477 122.176 58.5209 122.15 58.5037C122.124 58.4864 122.093 58.4801 122.062 58.4862C120.21 58.6372 118.379 58.9788 116.597 59.5057C115.325 46.8426 114.826 43.2399 114.573 38.3801C114.868 37.6161 115.064 36.8175 115.156 36.0039C116.33 37.728 117.356 39.5487 118.222 41.4463C118.276 41.5536 118.329 41.5382 118.904 41.6992C124.255 51.3575 128.172 63.2311 130.793 74.2538V74.2384ZM118.529 41.1626C117.601 39.1875 116.481 37.3082 115.187 35.5516C115.206 35.2494 115.191 34.9458 115.141 34.6471C115.129 34.6101 115.108 34.5765 115.08 34.5497C115.052 34.5229 115.017 34.5037 114.98 34.4938C117.226 34.0646 123.074 33.0221 125.374 33.2137C135.507 34.0416 142.444 36.7321 147.81 45.2636C149.519 47.9694 148.914 52.7296 147.634 55.1365C147.513 55.3746 147.358 55.5941 147.174 55.788C146.331 55.0215 142.046 50.4223 141.249 49.6098L140.919 46.8273C140.912 46.7842 140.896 46.7431 140.872 46.7069C140.848 46.6707 140.816 46.6401 140.779 46.6175C140.742 46.5949 140.7 46.5807 140.656 46.5758C140.613 46.571 140.569 46.5758 140.528 46.5897L138.228 47.4789L129.904 44.0678C128.838 41.201 128.915 41.27 128.723 41.2316C128.532 41.1933 128.624 41.1703 126.547 43.2859L118.529 41.1626Z" fill="black"/>
</svg>
