<svg width="154" height="154" viewBox="0 0 154 154" fill="none" xmlns="http://www.w3.org/2000/svg">
<path d="M35.4629 48.2617C30.0012 46.5707 24.5809 44.8376 19.2335 42.8062C18.5428 42.544 18.2362 43.6601 18.9276 43.9146C24.2597 45.8801 29.7582 47.5979 35.3211 48.7753C35.6553 48.8458 35.7925 48.3637 35.4629 48.2617Z" fill="black"/>
<path d="M41.5838 39.7333C39.6291 36.7836 33.0176 27.4984 31.683 25.6249C31.2913 25.0745 30.951 24.3639 30.3316 24.055C29.9966 23.8879 29.69 24.1616 29.7421 24.508C29.8502 25.2271 30.5064 25.8472 30.9311 26.4198C31.4209 27.0806 39.1646 37.5402 41.1607 40.0598C41.35 40.299 41.7517 39.987 41.5838 39.7333Z" fill="black"/>
<path d="M52.5362 34.293C52.3039 32.2432 52.1284 31.2022 50.9456 23.27C50.8704 22.7641 50.8689 22.183 50.5815 21.7514C50.4006 21.4801 49.9698 21.5115 49.8755 21.8434C49.7513 22.2819 49.7459 21.9477 50.7509 27.9958C51.105 30.126 51.4354 32.2662 51.8654 34.3827C51.9406 34.7537 52.5799 34.6778 52.5362 34.293Z" fill="black"/>
<path d="M85.0227 80.0408L89.471 81.1477C88.5741 74.2941 87.8888 69.9102 87.4327 67.261C86.1863 70.1302 85.1714 73.0998 84.4087 76.133C84.6034 77.3272 84.8088 78.6304 85.0227 80.0408Z" fill="black"/>
<path d="M75.7214 139.642C74.271 138.496 72.1699 138.742 71.0239 140.193C69.1927 142.511 71.073 145.939 74.038 145.587C76.9786 145.242 78.0525 141.483 75.7214 139.642Z" fill="black"/>
<path d="M95.9981 142.462C94.8107 130.042 92.2995 102.963 89.5714 81.9165L85.8835 86.0038C87.8252 100.158 89.6196 119.409 90.377 131.943C90.4912 132.916 89.7929 133.8 88.8201 133.913C88.4928 133.953 85.4573 135.419 73.0338 136.876C60.4179 138.356 57.5472 137.59 56.9547 137.652C55.9796 137.767 55.0981 137.067 54.9808 136.074C54.9593 135.95 52.8107 123.434 50.2182 104.559C47.628 85.701 47.362 71.27 47.3574 71.0883C47.2432 70.1156 47.9416 69.2317 48.9603 69.1091C55.8439 67.4702 69.0868 65.4803 76.5047 65.2817C76.7738 64.1511 77.062 63.025 77.3709 61.9043C68.2682 62.677 46.7135 65.3216 44.4507 66.0996C42.7819 66.2951 39.6521 67.924 39.3033 70.0129C38.7667 73.2201 46.6285 139.991 48.2926 147.302C48.5824 149.773 51.3696 150.55 53.8448 150.3C59.9825 149.682 87.8926 147.363 93.7674 145.268C95.1595 145.105 96.13 143.842 95.9981 142.462ZM52.9257 149.633C50.5271 149.482 49.224 148.668 49.0485 147.181C46.8791 136.428 40.1864 77.4836 40.0269 71.0385C39.9809 69.1819 41.2626 68.1317 42.8877 67.6795C42.2683 69.1865 46.1885 102.687 46.3763 104.306C49.3367 129.753 51.9246 147.448 51.9491 147.613C52.0526 148.492 52.5945 149.214 53.3312 149.587L52.9257 149.633ZM74.1277 146.348C71.8855 146.613 69.8312 145.004 69.5659 142.745C69.3007 140.488 70.9135 138.447 73.1703 138.183C75.4254 137.918 77.4668 139.53 77.732 141.786C77.9964 144.038 76.379 146.084 74.1277 146.348Z" fill="black"/>
<path d="M90.2114 80.9378L84.0774 79.4108C86.0053 69.2617 90.7295 59.7427 97.584 52.0488L96.8367 51.7368C89.9047 59.5894 85.1514 69.2939 83.258 79.6262C83.2212 79.8248 83.3461 80.0179 83.5424 80.067L89.4065 81.5265L75.739 96.6743L68.6714 77.9965C70.4597 78.6558 72.3217 79.0958 74.2189 79.3058C74.4366 79.3273 74.6229 79.1724 74.6428 78.9601C75.6891 67.6405 78.802 56.317 83.6827 46.013L82.9836 45.6987C78.1252 55.9605 75.0054 67.2258 73.9161 78.4979C71.9369 78.2441 70.0006 77.7321 68.1532 76.9732C67.8435 76.846 67.5308 77.1503 67.6488 77.463L75.2438 97.5336C75.3457 97.8019 75.6953 97.8678 75.8869 97.6547L90.403 81.5664C90.5969 81.3517 90.4911 81.0068 90.2114 80.9378Z" fill="black"/>
<path d="M131.949 22.7505C126.432 19.9733 92.7486 4.91366 86.7496 3.79143C84.5166 2.85471 81.9517 3.90411 81.0158 6.13707L69.0108 34.7585C68.0764 36.9861 69.1289 39.5587 71.2982 40.4624C75.1716 42.9292 105.911 56.6489 116.557 59.4506C118.789 60.3713 121.339 59.3027 122.255 57.1173C124.663 52.301 133.111 34.0863 134.281 28.4452C135.15 25.8106 134.291 23.7309 131.949 22.7505ZM121.559 56.7984C120.787 58.6366 118.666 59.5043 116.827 58.7331C116.81 58.7262 116.792 58.7201 116.774 58.7155C107.857 56.4511 78.9346 43.895 71.6531 39.7863C69.8157 39.0159 68.9472 36.8934 69.7176 35.0552L70.813 32.4428C88.2068 38.8619 104.934 46.8807 122.674 54.3216C122.775 54.3638 122.893 54.0633 121.559 56.7984ZM133.542 28.2428C132.468 33.0974 127.079 45.0065 125.05 49.4226C107.313 41.9764 90.2596 34.0119 72.8474 27.5913L81.721 6.43449C82.4653 4.65916 84.5174 3.69408 86.515 4.51965C93.4937 6.07652 125.098 20.2286 131.627 23.4465C133.606 24.2767 134.29 25.967 133.541 28.2428H133.542Z" fill="black"/>
<path d="M129.606 25.7721C128.441 25.362 127.332 24.7794 125.435 24.1117C125.235 24.0412 125.017 24.147 124.947 24.3463C124.462 25.7291 123.659 27.5451 123.06 28.8137C122.94 29.069 123.129 29.3603 123.408 29.3603C124.453 29.8923 125.779 30.4672 127.345 31.0697C127.543 31.1463 127.845 31.0229 127.934 30.8305C128.633 29.3158 129.398 27.7321 129.861 26.2994C129.92 26.1178 129.827 25.8495 129.606 25.7721Z" fill="black"/>
<path d="M96.8167 14.1053C96.3951 14.1053 89.2355 11.4983 84.627 9.58189C84.4316 9.50064 84.3388 9.27604 84.4201 9.08057C84.5013 8.8851 84.7267 8.79311 84.9214 8.8736C88.8523 10.5079 92.895 12.0165 96.9371 13.3571C97.3487 13.4936 97.2498 14.1053 96.8167 14.1053Z" fill="black"/>
<path d="M91.2086 16.3857C90.8713 16.3857 86.6346 14.825 83.0303 13.0374C82.8402 12.9431 82.7628 12.7132 82.857 12.5238C82.9506 12.3337 83.1813 12.2571 83.3706 12.3506C85.9363 13.6231 88.6146 14.7292 91.3305 15.6383C91.7406 15.7755 91.6417 16.3857 91.2086 16.3857Z" fill="black"/>
<path d="M53.6586 98.7992C53.6862 97.7054 53.7536 96.9097 53.7912 96.5318C53.8119 96.321 53.6586 96.1332 53.4478 96.1117C53.2408 96.091 53.0492 96.2451 53.0285 96.4551C52.9894 96.843 52.9196 97.6609 52.892 98.7801C52.879 99.2914 53.6463 99.299 53.6586 98.7992Z" fill="black"/>
<path d="M55.0798 95.6816C55.168 95.6816 55.1526 95.6624 57.4109 95.3198C57.9122 95.2439 57.7972 94.4843 57.2958 94.5617C55.8954 94.774 55.1004 94.9059 55.0177 94.9197C54.5562 94.9963 54.6121 95.6808 55.0805 95.6808L55.0798 95.6816Z" fill="black"/>
<path d="M55.269 112.383C55.1287 111.702 54.9792 110.948 54.8244 110.132C54.7301 109.634 53.9773 109.776 54.0716 110.275C54.2272 111.096 54.3775 111.852 54.5185 112.537C54.5607 112.742 54.7608 112.878 54.9708 112.836C55.1785 112.793 55.3119 112.59 55.269 112.383Z" fill="black"/>
<path d="M53.4454 103.767C53.6562 103.75 53.8125 103.564 53.7957 103.353C53.7328 102.596 53.6891 101.83 53.6661 101.077C53.66 100.866 53.463 100.703 53.2714 100.706C53.0598 100.713 52.8934 100.89 52.8996 101.101C52.9233 101.867 52.9678 102.646 53.0322 103.417C53.0483 103.617 53.2192 103.783 53.4454 103.767Z" fill="black"/>
<path d="M59.6284 94.9885C59.7058 94.9885 59.6851 94.9763 61.9587 94.6643C62.1687 94.6351 62.3151 94.442 62.286 94.2327C62.2569 94.0234 62.0645 93.8747 61.8544 93.9054C61.0258 94.0188 60.2638 94.1269 59.5739 94.2266C59.1056 94.2932 59.1554 94.9885 59.6284 94.9885Z" fill="black"/>
<path d="M64.1858 94.3622C64.2624 94.3622 64.2946 94.3454 66.5153 94.0648C66.7253 94.0388 66.8741 93.8471 66.848 93.6363C66.8219 93.4271 66.6318 93.2768 66.4195 93.3036C65.6223 93.4041 64.8603 93.5029 64.1359 93.598C63.6645 93.6593 63.7105 94.3622 64.1858 94.3622Z" fill="black"/>
<path d="M68.7489 93.7867L71.0761 93.5176C71.2862 93.4939 71.4379 93.3037 71.4142 93.0937C71.3904 92.8837 71.2034 92.7304 70.9903 92.7557C70.2743 92.8361 69.5131 92.9251 68.7037 93.0232C68.2284 93.0799 68.2706 93.7867 68.7489 93.7867Z" fill="black"/>
<path d="M54.4129 107.875C54.2542 106.958 54.1615 106.446 54.0465 105.618C54.0174 105.409 53.8257 105.263 53.6149 105.291C53.4049 105.32 53.2585 105.514 53.2876 105.723C53.4041 106.57 53.5023 107.112 53.6571 108.007C53.6939 108.219 53.8986 108.356 54.1009 108.318C54.3094 108.282 54.449 108.083 54.4129 107.875Z" fill="black"/>
<path d="M83.8343 99.9696C84.0436 99.9374 84.1869 99.7419 84.1547 99.5326C84.0275 98.7009 83.8933 97.9397 83.7592 97.2514C83.7185 97.0437 83.5169 96.908 83.31 96.9486C83.1022 96.9892 82.9666 97.1901 83.0072 97.3978C83.139 98.0762 83.2724 98.8274 83.3974 99.6484C83.4296 99.8584 83.6266 100.001 83.8343 99.9696Z" fill="black"/>
<path d="M84.338 104.541C84.5488 104.524 84.7052 104.337 84.6868 104.127C84.6454 103.644 84.4906 102.093 84.4599 101.827C84.4017 101.321 83.6405 101.412 83.6987 101.914C83.7286 102.177 83.8819 103.714 83.9233 104.193C83.9417 104.409 84.1357 104.561 84.338 104.541Z" fill="black"/>
<path d="M85.041 111.044C85.0348 110.53 84.2683 110.551 84.2744 111.054C84.2836 111.775 84.2851 112.672 84.2652 113.338C84.2629 113.421 84.3127 113.727 84.6485 113.732C84.8547 113.735 85.0249 113.568 85.0318 113.361C85.0517 112.679 85.0509 111.775 85.041 111.044Z" fill="black"/>
<path d="M55.7489 114.625C55.6392 114.13 54.8896 114.298 55.0007 114.792C55.2889 116.082 55.4798 116.816 55.4798 116.816C55.5312 117.248 55.9121 117.446 56.1827 117.222C56.3452 117.085 56.3682 116.837 56.2318 116.674C56.2318 116.674 56.0432 115.94 55.7489 114.625Z" fill="black"/>
<path d="M84.6109 109.133C84.8225 109.126 84.9873 108.945 84.9781 108.734C84.9497 108.029 84.9114 107.259 84.8593 106.429C84.8455 106.217 84.6638 106.056 84.453 106.071C84.2414 106.084 84.0812 106.266 84.0942 106.477C84.1456 107.3 84.1847 108.066 84.2123 108.765C84.2161 108.852 84.2897 109.142 84.6109 109.132V109.133Z" fill="black"/>
<path d="M82.6715 113.955C82.3197 114.027 81.6052 114.164 80.4247 114.358C80.2162 114.392 80.0744 114.589 80.1089 114.798C80.1442 115.013 80.3496 115.15 80.5489 115.114C81.7455 114.917 82.4684 114.778 82.8248 114.705C83.0326 114.663 83.1659 114.46 83.1238 114.253C83.0816 114.045 82.8769 113.912 82.6715 113.955Z" fill="black"/>
<path d="M64.4846 116.362C63.6345 116.444 62.8748 116.514 62.2003 116.572C61.702 116.615 61.7526 117.37 62.2662 117.336C62.9431 117.278 63.7058 117.208 64.5597 117.124C65.0626 117.074 64.992 116.313 64.4846 116.362Z" fill="black"/>
<path d="M59.9151 116.751C58.3238 116.86 57.6446 116.867 57.6446 116.867C57.4331 116.868 57.2629 117.041 57.2644 117.253C57.2659 117.463 57.4377 117.634 57.6477 117.633C57.6753 117.633 58.3476 117.627 59.9673 117.516C60.4663 117.481 60.431 116.724 59.9151 116.751Z" fill="black"/>
<path d="M69.0508 115.876C68.2398 115.967 67.4802 116.051 66.768 116.128C66.558 116.15 66.4055 116.339 66.4277 116.549C66.4499 116.761 66.64 116.912 66.8493 116.89C67.5622 116.814 68.3241 116.73 69.1367 116.637C69.3467 116.613 69.4977 116.423 69.474 116.213C69.4502 116.003 69.2616 115.852 69.0501 115.876H69.0508Z" fill="black"/>
<path d="M78.1596 114.709C77.4858 114.808 76.7308 114.915 75.8877 115.029C75.388 115.098 75.4845 115.854 75.9912 115.789C76.8373 115.674 77.5955 115.567 78.2716 115.467C78.7737 115.393 78.6617 114.633 78.1596 114.709Z" fill="black"/>
<path d="M73.6111 115.328C72.8997 115.418 72.1416 115.512 71.3321 115.609C71.1221 115.634 70.9719 115.825 70.9972 116.035C71.0225 116.245 71.2133 116.395 71.4234 116.37C72.2344 116.273 72.9948 116.178 73.7077 116.089C74.2113 116.024 74.1147 115.264 73.6111 115.328V115.328Z" fill="black"/>
<path d="M74.6468 103.196L70.5526 103.697L69.9976 99.1587C69.8129 97.6486 67.5309 97.9284 67.7148 99.4377L68.2698 103.976L64.1757 104.476C62.6663 104.661 62.9461 106.949 64.4547 106.759L68.5488 106.258L69.1038 110.796C69.2909 112.326 71.5706 112.024 71.3866 110.517L70.8316 105.979L74.9258 105.479C76.4366 105.294 76.1576 103.014 74.6468 103.196Z" fill="black"/>
<path d="M82.6762 92.9182L82.0806 93.5782C82.194 93.9523 82.3466 94.4873 82.516 95.1719C82.5673 95.3788 82.7781 95.503 82.9805 95.4517C83.1859 95.4003 83.3109 95.1933 83.2603 94.9871C83.0058 93.9615 82.7873 93.257 82.6762 92.9182Z" fill="black"/>
</svg>
