<svg width="154" height="154" viewBox="0 0 154 154" fill="none" xmlns="http://www.w3.org/2000/svg">
<path d="M115.914 127.232C115.853 129.007 114.903 130.474 113.785 130.474C113.129 130.474 112.53 129.968 112.136 129.19C111.905 129.305 111.673 129.42 111.437 129.535C111.959 130.576 112.809 131.241 113.785 131.241C114.939 131.241 115.927 131.176 116.871 130.282C117.939 129.271 118.309 127.565 118.086 126.027C117.4 126.417 116.676 126.82 115.914 127.233V127.232Z" fill="black"/>
<path d="M48.0088 124.727C46.9502 123.57 44.7533 123.873 44.2389 124.183C41.3981 125.237 41.5683 131.268 44.495 131.942C45.4118 132.154 46.9272 131.978 47.8716 131.085C49.5128 129.532 49.4139 126.263 48.0088 124.727ZM42.9634 128.024C42.9634 126.288 43.8733 124.821 44.9495 124.821C46.0258 124.821 46.9357 126.288 46.9357 128.024C46.9357 129.759 46.0258 131.227 44.9495 131.227C43.8733 131.227 42.9634 129.76 42.9634 128.024Z" fill="black"/>
<path d="M77.8759 141.675C76.9047 140.614 75.6775 140.719 74.5951 140.813C72.4495 141.002 71.3511 143.24 71.3511 145.394C71.3511 147.857 72.7339 149.861 74.4326 149.861C75.6989 149.861 76.7246 149.784 77.7234 148.84C79.5547 147.107 79.4704 143.418 77.8759 141.675ZM72.1169 145.394C72.1169 143.388 73.177 141.694 74.4318 141.694C75.6867 141.694 76.7468 143.388 76.7468 145.394C76.7468 147.4 75.6867 149.094 74.4318 149.094C73.177 149.094 72.1169 147.4 72.1169 145.394Z" fill="black"/>
<path d="M145.211 80.8396C124.698 70.3709 103.603 62.7483 82.5903 58.0248C79.613 54.6343 75.998 50.5977 72.977 47.2831C69.572 43.5477 66.6438 40.1994 63.1958 38.2976C63.1299 37.1041 62.3013 36.2287 60.8916 35.8776C59.5976 35.5565 58.2677 35.8316 57.0941 36.0762C51.2821 37.2835 15.6314 44.6217 10.044 46.8585C8.89649 47.3176 8.2342 47.7086 7.91071 48.8668C7.49447 50.3624 7.56959 52.9648 9.04137 54.0686C9.765 54.6121 10.7462 54.5086 11.5411 54.0564C12.4096 53.8072 13.5495 53.4914 14.9055 53.1219C16.1856 54.3615 15.5425 53.6685 31.059 70.9672C31.1847 84.4791 33.8868 99.7626 38.9437 111.822C38.9851 111.922 38.9437 111.888 40.2951 113.06C40.7052 114.877 41.2135 117.556 42.5427 121.403C43.2617 123.483 45.083 124.632 46.8438 125.746C55.8546 131.444 64.8569 136.621 74.0471 141.351C74.1736 141.323 74.3024 141.309 74.4334 141.309C75.1862 141.309 75.8669 141.776 76.3559 142.528C77.0742 142.89 77.7932 143.25 78.513 143.607C80.0124 144.35 81.6896 145.146 83.3967 145.146C89.5989 145.146 112.601 134.272 117.143 131.899C118.465 131.207 121.392 130.026 121.95 128.524C122.461 127.149 121.119 126.203 119.867 125.46C122.342 124.033 124.756 122.521 127.103 120.927C127.556 120.617 138.762 101.357 145.4 81.3002C145.46 81.1178 145.376 80.9231 145.211 80.838L145.211 80.8396ZM12.0424 52.5095C11.5925 53.3734 10.2671 54.0303 9.5013 53.4554C8.44193 52.6605 8.2342 50.5617 8.6489 49.073C8.85893 48.321 9.35029 47.8228 10.1437 47.8228C10.7293 47.8228 11.2874 48.1141 11.5672 48.4452C12.3774 49.4065 12.4564 51.7153 12.0424 52.5095ZM82.6202 58.8174C103.27 63.4773 123.969 70.9956 144.17 81.1722C134.285 85.8965 124.275 90.1662 114.017 93.1979C113.459 93.3627 105.857 95.9099 95.8033 98.2494C91.201 97.0736 86.4621 95.7926 81.6766 94.3485C82.3734 82.7268 82.6731 70.9366 82.6194 58.8182L82.6202 58.8174ZM60.184 114.368C55.4276 112.018 50.7494 109.328 46.2604 106.205C45.8166 101.776 45.5215 97.3303 45.3743 92.8821C50.2143 95.8946 55.2467 98.5009 60.3565 100.786C60.161 105.309 60.1028 109.841 60.184 114.368ZM60.2009 115.232C60.2845 119.08 60.4684 122.924 60.7528 126.754C56.3237 124.176 51.9919 121.298 47.825 118.16C47.2363 114.527 46.7495 110.874 46.3632 107.207C50.8321 110.274 55.4813 112.918 60.2009 115.232ZM60.3933 99.9612C55.2544 97.65 50.1997 95.0123 45.3452 91.9591C45.231 87.9355 45.2379 83.9111 45.3674 79.8959C50.4887 82.9414 55.8415 85.5776 61.2932 87.8903C60.8831 91.8993 60.5834 95.926 60.3933 99.9612ZM93.8716 111.94C99.4498 110.592 104.965 109.027 110.399 107.253C108.965 111.779 107.481 116.309 105.955 120.817C100.948 122.564 95.8577 124.112 90.7004 125.453C91.8732 121.095 92.9318 116.586 93.8716 111.94ZM89.8971 125.486C85.2019 124.112 80.3397 122.586 75.4323 120.809C76.313 116.371 77.1386 111.916 77.9051 107.458C83.0602 109.131 88.1624 110.58 93.0997 111.893C92.1507 116.569 91.0821 121.105 89.8971 125.486ZM94.038 111.111C94.8237 107.154 95.5251 103.1 96.1391 98.9562C102.017 97.5833 107.885 95.9605 113.723 94.0955C113.58 97.5473 112.338 101.109 110.684 106.353C105.212 108.155 99.6568 109.742 94.038 111.111ZM93.2507 111.14C88.3072 109.824 83.1966 108.372 78.0362 106.695C78.7223 102.669 79.3608 98.6411 79.9488 94.6214C85.172 96.2326 90.3501 97.6423 95.3687 98.9278C94.7501 103.092 94.0433 107.166 93.2507 111.14ZM77.2996 106.453C71.9192 104.682 66.4905 102.664 61.1445 100.296C61.3293 96.2533 61.6252 92.2182 62.0314 88.2015C67.7054 90.5755 73.4806 92.6061 79.2067 94.3914C78.6203 98.4066 77.9833 102.431 77.2988 106.453H77.2996ZM61.1085 101.119C66.4261 103.46 71.8218 105.461 77.1685 107.217C76.4042 111.668 75.5817 116.115 74.7033 120.544C70.1224 118.863 65.507 116.958 60.956 114.747C60.867 110.206 60.9184 105.658 61.1085 101.119ZM74.5523 121.304C73.7941 125.096 72.9954 128.875 72.1576 132.63C68.5877 131.024 65.0424 129.213 61.5554 127.217C61.2603 123.359 61.0663 119.486 60.9751 115.608C65.4732 117.776 70.0296 119.648 74.5515 121.304H74.5523ZM75.2812 121.569C80.1726 123.338 85.0172 124.857 89.6962 126.226C88.5993 130.222 87.405 134.088 86.1164 137.811C81.708 136.525 77.2727 134.892 72.8727 132.948C73.716 129.175 74.5193 125.379 75.282 121.569L75.2812 121.569ZM90.4697 126.304C95.5979 124.983 100.661 123.459 105.643 121.737C104.337 125.578 103 129.403 101.639 133.196C96.9056 134.974 92.0051 136.492 86.9512 137.741C88.216 134.063 89.3911 130.246 90.4697 126.304ZM106.561 121.417C111.548 119.665 116.452 117.717 121.257 115.577C119.877 119.168 118.423 122.726 116.896 126.243C112.323 128.726 107.546 130.926 102.582 132.837C103.936 129.055 105.263 125.243 106.561 121.417ZM106.873 120.494C108.392 115.994 109.87 111.474 111.297 106.958C116.361 105.281 121.355 103.421 126.264 101.385C124.837 105.815 123.296 110.213 121.644 114.563C116.817 116.736 111.887 118.716 106.873 120.494ZM111.581 106.056C113.166 101.015 114.411 97.4354 114.498 93.8464C119.746 92.1492 124.969 90.2559 130.151 88.1716C129.056 92.2757 127.861 96.3645 126.57 100.427C121.655 102.484 116.654 104.362 111.581 106.056ZM80.8939 94.1101C63.8635 88.9129 46.2995 81.6138 32.1835 69.5951C44.5388 65.1085 57.9963 61.7909 72.1913 59.7127C75.3801 59.2459 78.6725 58.7285 81.8521 58.7193C81.9073 70.8722 81.5938 82.4539 80.8939 94.1101ZM17.1683 52.5102C31.361 48.6936 60.5903 41.1783 61.3408 40.7521C61.7409 40.5252 62.2185 40.2539 62.5887 39.879C65.681 42.1197 67.592 44.5833 79.5057 58.0394C77.029 58.2088 74.5599 58.592 72.0817 58.9539C57.879 61.0266 44.4115 64.3488 32.0409 68.8316C28.9939 65.3599 20.4959 55.7144 17.1683 52.5102ZM31.8202 70.2919C35.8423 73.703 40.1372 76.7339 44.6162 79.4452C44.479 83.4458 44.4621 87.4556 44.5656 91.4639C40.3626 88.7687 36.3167 85.7562 32.5055 82.3673C32.067 78.326 31.8317 74.2657 31.8202 70.2919ZM32.6335 83.5018C36.4225 86.8079 40.4331 89.7522 44.5917 92.3899C44.7258 96.8076 45.0071 101.223 45.4326 105.622C41.8045 103.04 38.3059 100.167 34.9991 96.954C33.9703 92.6076 33.1724 88.0727 32.6335 83.5018ZM39.616 111.446C37.9449 107.448 36.5061 103.014 35.3363 98.3384C38.5811 101.404 41.9984 104.153 45.5337 106.632C45.904 110.266 46.3739 113.888 46.9419 117.49C44.433 115.567 41.9862 113.55 39.616 111.446ZM121.231 128.257C120.795 129.43 117.865 130.657 116.788 131.22C110.765 134.366 88.515 144.63 83.2135 144.377C81.7601 144.309 80.4348 143.704 78.8534 142.921C68.1623 137.625 57.6452 131.683 47.5689 125.299C45.8235 124.193 43.937 123.093 43.2671 121.153C42.4492 118.786 41.7761 116.345 41.2618 113.891C54.2249 124.903 70.0151 133.979 86.2536 138.651C86.3196 138.67 86.384 138.67 86.4499 138.655C98.2111 135.81 109.159 131.53 119.11 125.893C120.003 126.472 121.608 127.246 121.231 128.257ZM126.603 120.341C123.823 122.226 120.951 123.994 117.992 125.641C119.481 122.175 120.901 118.67 122.249 115.133C125.609 113.613 128.921 111.999 132.178 110.293C130.375 113.772 128.504 117.151 126.603 120.341H126.603ZM132.789 109.104C129.46 110.872 126.073 112.543 122.633 114.116C124.263 109.784 125.785 105.407 127.194 100.998C131.24 99.2965 135.227 97.4745 139.147 95.5358C137.202 100.081 135.055 104.665 132.789 109.105V109.104ZM139.609 94.4496C135.639 96.4342 131.6 98.297 127.499 100.036C128.777 95.9835 129.959 91.9062 131.042 87.8121C135.524 85.9892 139.975 84.023 144.386 81.9173C143.026 85.9471 141.409 90.1746 139.609 94.4496Z" fill="black"/>
<path d="M89.0241 91.2287C99.0192 87.0181 106.407 78.0441 109.04 67.9671C110.701 61.6093 110.6 54.3049 115.416 45.1714C117.106 41.9657 119.429 38.2495 122.696 36.5309C123.755 35.9744 124.891 35.7682 126.045 35.5152C126.318 35.4554 126.337 34.9886 126.045 34.9433C124.013 34.6306 121.95 35.808 120.426 37.056C118.734 38.4419 117.396 40.2394 116.271 42.1006C108.907 54.2688 110.664 62.6196 107.421 71.3284C104.162 80.077 97.3044 87.2963 89.0011 91.1705C88.9689 91.185 88.9927 91.2418 89.0256 91.228L89.0241 91.2287Z" fill="black"/>
<path d="M137.925 30.442C137.378 30.3615 136.817 30.3983 136.285 30.5493C136.232 30.258 136.11 29.9806 135.917 29.756C135.987 29.4861 136.015 29.0806 136.442 28.5647C136.576 28.4015 136.553 28.16 136.391 28.0251C136.228 27.8902 135.986 27.9132 135.851 28.0757C135.55 28.4406 135.336 28.8675 135.223 29.3236C134.188 29.0814 133.567 29.6502 133.371 30.3692C132.236 29.2999 131.03 28.2964 129.773 27.3789C129.233 26.9849 128.731 26.9665 128.202 27.697C127.517 28.6406 126.798 29.8702 127.324 31.0169C127.611 31.6409 128.164 32.0173 128.812 32.2304C128.275 33.4891 128.886 34.9233 130.452 35.1801C130.321 35.3648 130.201 35.5426 130.094 35.7121C129.976 35.8983 129.758 36.2456 129.808 36.6442C129.884 37.2467 130.663 38.0017 131.824 38.0017C133.559 38.0017 134.669 36.4257 134.798 34.6534C134.853 33.9045 134.754 33.1725 134.613 32.458C135.272 32.4764 136.017 32.0203 136.233 31.3695C136.246 31.3665 136.258 31.3626 136.271 31.358C136.763 31.1779 137.295 31.1227 137.814 31.2001C138.021 31.2308 138.218 31.0867 138.248 30.8767C138.279 30.6666 138.135 30.4727 137.925 30.442ZM128.02 30.6973C127.66 29.9123 128.259 28.9227 128.821 28.1477C128.999 27.9017 129.077 27.8748 129.102 27.8748C129.26 27.848 131.795 29.9108 133.16 31.227C131.904 31.8463 128.652 32.0732 128.019 30.698L128.02 30.6973ZM129.469 33.6071C129.326 33.253 129.359 32.8183 129.581 32.4075C129.896 32.4534 130.217 32.4726 130.528 32.4726C131.323 32.4726 132.324 32.3661 133.126 32.0725C132.288 32.9348 131.572 33.7374 131.001 34.4564C130.37 34.4695 129.701 34.1843 129.47 33.6079L129.469 33.6071ZM134.035 34.5975C133.961 35.5986 133.549 36.4357 132.904 36.8941C132.279 37.3379 131.244 37.3962 130.699 36.776C130.514 36.566 130.523 36.4694 130.742 36.1214C131.181 35.4269 132.067 34.2403 133.828 32.4481C133.976 33.1625 134.086 33.8869 134.034 34.5983L134.035 34.5975ZM135.301 31.4263C134.647 31.9092 134.223 31.7045 134.098 31.0913C133.993 30.5762 134.192 30.0373 134.77 30.0373C135.151 30.0373 135.424 30.196 135.523 30.6421C135.578 30.8874 135.553 31.2392 135.301 31.4255V31.4263Z" fill="black"/>
<path d="M91.0489 39.0727C90.4748 37.2322 89.7512 35.1211 88.3722 33.7574C88.4204 33.0445 88.3423 32.3132 88.2165 31.6325C86.5309 22.5451 78.1517 14.1176 68.9907 12.409C68.4074 12.3002 68.1498 13.1756 68.7423 13.3097C74.0285 14.5109 78.742 17.2628 82.2942 21.3784C85.7567 25.3913 87.6232 30.4659 87.6915 33.1894C87.1081 32.7893 86.4389 32.5394 85.7153 32.5877C84.5241 32.6674 83.2493 33.4562 82.9266 34.6596C82.6215 35.798 83.3888 36.9087 84.5149 37.1471C85.9606 37.4537 87.6524 36.6964 88.1966 34.7946C89.2721 36.1399 89.9673 38.2356 90.4449 39.8538C92.3199 46.21 92.0217 53.0837 90.1252 59.397C88.2779 65.5455 84.9687 71.0915 81.0163 76.1093C80.5487 76.7026 80.0773 77.2913 79.6158 77.8892C79.4924 78.0487 79.7546 78.2388 79.891 78.1016C83.9085 74.0733 88.3285 67.2127 90.5698 60.3667C92.8059 53.5336 93.2045 45.9793 91.0497 39.0719L91.0489 39.0727ZM86.5025 36.1138C85.6869 36.6143 84.1983 36.7416 83.7453 35.6853C83.2516 34.5339 84.6536 33.5382 85.6509 33.4301C86.4067 33.3481 87.0774 33.6892 87.6317 34.1898C87.509 34.9716 87.1848 35.6945 86.5025 36.1138Z" fill="black"/>
<path d="M65.7215 9.36717C66.5977 8.35303 66.9204 6.85901 66.3968 5.11281C66.1692 4.3524 65.8457 3.80201 65.4103 3.43024C65.2501 3.29302 65.0102 3.31142 64.8722 3.4701C63.2318 5.35581 62.0436 7.24612 60.7872 9.30278C60.246 8.74473 59.1338 8.5623 58.4738 9.07512C58.24 8.99003 57.695 8.90724 57.0656 8.3377C56.9085 8.19512 56.6663 8.20738 56.5244 8.36453C56.3826 8.52167 56.3941 8.7639 56.5513 8.90648C56.9614 9.27749 57.4481 9.55881 57.9732 9.72899C57.8444 10.0318 57.8046 10.3208 57.8375 10.5929C57.8276 10.6021 57.8176 10.6113 57.8084 10.6212C57.5194 10.9371 57.1499 11.1693 56.7391 11.292C56.5359 11.3525 56.421 11.5656 56.4815 11.7688C56.5405 11.9673 56.7513 12.0877 56.9583 12.0263C57.4113 11.8914 57.8268 11.6553 58.1741 11.338C58.5696 11.7695 59.1729 12.0286 59.7792 11.9106C59.9226 11.8822 60.059 11.8332 60.1855 11.7672C60.1234 12.9301 60.0184 14.9477 59.4235 18.3849C59.3821 18.6233 59.5684 18.8356 59.8045 18.8333C62.8117 18.8065 65.1297 15.9166 64.83 13.4291C65.9645 13.2168 66.646 12.4886 66.8131 11.6952C67.0116 10.7516 66.4643 9.86543 65.7215 9.36641V9.36717ZM65.1757 4.29414C65.372 4.55476 65.5329 4.89741 65.6633 5.33205C66.5456 8.27331 64.6897 10.4587 61.3054 9.92446C62.5465 7.89003 63.6541 6.09936 65.1757 4.29337V4.29414ZM58.7551 10.8344C58.5481 10.6274 58.5704 10.3062 58.6601 10.0739C58.9598 9.30048 59.9985 9.48216 60.2867 9.89456C60.6845 10.4649 59.7248 11.8033 58.7551 10.8344ZM60.2621 18.0292C60.8945 14.1895 60.9459 11.6546 61.0141 11.0329C61.7431 11.0375 62.709 11.338 63.3805 12.0509C65.2072 13.9879 63.2448 17.6084 60.2621 18.0292ZM66.0642 11.5373C65.9292 12.1773 65.2861 12.5798 64.6583 12.6909C64.5088 12.2739 64.2727 11.8792 63.9385 11.525C63.6311 11.1992 63.2778 10.9432 62.9075 10.7493C63.7691 10.6603 64.528 10.3698 65.1328 9.91602C65.8664 10.3062 66.183 10.9746 66.0642 11.5373Z" fill="black"/>
</svg>
