<svg width="154" height="154" viewBox="0 0 154 154" fill="none" xmlns="http://www.w3.org/2000/svg">
<path fill-rule="evenodd" clip-rule="evenodd" d="M76.5534 65.2086C76.3215 64.8642 76.0309 64.5633 75.6948 64.3195C75.4924 64.3239 75.293 64.3705 75.1096 64.4563C74.9261 64.542 74.7626 64.6651 74.6294 64.8177C74.4991 65.0017 74.6984 65.293 74.8287 65.4923C74.9662 65.7073 75.1254 65.9077 75.3039 66.0902C75.5415 66.2511 75.9171 65.9445 76.1854 65.7452C76.4537 65.5459 76.653 65.4079 76.5534 65.2086ZM75.5185 65.5613C75.4036 65.4156 75.1889 65.1397 75.0893 64.9787C75.2498 64.8014 75.4358 64.649 75.6412 64.5264C75.6412 64.5264 75.9248 65.0323 76.0244 65.224C75.8175 65.3696 75.6488 65.4846 75.5185 65.5613ZM77.1359 66.5424C77.0439 66.4351 76.3004 66.7264 76.0781 67.0407C75.9478 67.2246 76.1394 67.5159 76.2774 67.7229C76.4094 67.9395 76.5691 68.138 76.7526 68.3131C76.7944 68.3458 76.8453 68.3646 76.8983 68.3668C77.1436 68.3668 77.8411 67.8225 77.9484 67.6999C77.9839 67.6661 78.0081 67.6222 78.0178 67.5742C78.0274 67.5262 78.0219 67.4764 78.0021 67.4316C77.7677 67.0867 77.4745 66.7857 77.1359 66.5424ZM76.9673 67.7842C76.8113 67.598 76.6655 67.4035 76.5304 67.2016C76.6949 67.0287 76.8803 66.8768 77.0823 66.7494C77.0823 66.7494 77.3735 67.263 77.4732 67.4546C77.2356 67.6079 77.0976 67.7075 76.9673 67.7842ZM81.3672 72.7053C83.1379 71.4099 80.7003 68.9953 79.3282 70.7737C79.1849 71.0121 79.1093 71.285 79.1093 71.5632C79.1093 71.8414 79.1849 72.1143 79.3282 72.3527C79.552 72.6697 79.8924 72.8848 80.2747 72.9509C80.657 73.017 81.0499 72.9287 81.3672 72.7053ZM79.6041 71.2872C79.6961 69.9381 81.9497 70.3444 81.4668 71.7701C81.386 71.9977 81.2228 72.1868 81.0095 72.3C80.7961 72.4132 80.5481 72.4424 80.3143 72.3818C80.0805 72.3212 79.8779 72.1752 79.7464 71.9726C79.615 71.77 79.5642 71.5254 79.6041 71.2872ZM76.9749 64.9557C77.0182 64.9844 77.0687 65.0004 77.1206 65.0017C77.3735 65.0017 78.0634 64.4651 78.1707 64.3425C78.2079 64.3082 78.2331 64.2629 78.2427 64.2133C78.2524 64.1637 78.246 64.1122 78.2244 64.0665C77.9905 63.7259 77.7002 63.4278 77.3659 63.185C77.1642 63.1938 76.9663 63.2424 76.7834 63.3279C76.6006 63.4134 76.4365 63.5342 76.3004 63.6833C76.1701 63.8672 76.3694 64.1662 76.4997 64.3578C76.6347 64.5746 76.7941 64.7753 76.9749 64.9557ZM77.3122 63.4226C77.3122 63.4226 77.5958 63.9285 77.6955 64.1202C77.4195 64.3118 77.2969 64.3885 77.1896 64.4574C77.0669 64.3041 76.86 64.0359 76.7526 63.8749C76.9102 63.6831 77.0994 63.5197 77.3122 63.392V63.4226ZM79.6195 66.5654C79.6547 66.5314 79.6782 66.4871 79.6864 66.4388C79.6947 66.3905 79.6874 66.3409 79.6655 66.2971C79.4336 65.9527 79.143 65.6517 78.8069 65.4079C78.6053 65.4168 78.4074 65.4653 78.2245 65.5508C78.0417 65.6363 77.8775 65.7571 77.7415 65.9062C77.6112 66.0902 77.8181 66.3968 77.9408 66.5884C78.0799 66.8 78.239 66.9976 78.416 67.1786C78.4601 67.2069 78.5098 67.2252 78.5617 67.2323C78.8223 67.24 79.5045 66.688 79.6195 66.5654ZM78.6307 66.6497C78.4778 66.4629 78.3346 66.2685 78.2014 66.0672C78.3636 65.8917 78.5493 65.7395 78.7533 65.6149C78.7533 65.6149 79.0369 66.1208 79.1366 66.3125C78.9526 66.4658 78.7533 66.5807 78.6307 66.6881V66.6497ZM118.046 64.5034C117.961 64.5648 117.524 64.8867 117.11 65.27C116.697 65.6532 115.378 66.918 115.271 67.4929C115.263 67.5981 115.279 67.7036 115.318 67.8018C115.356 67.8999 115.416 67.9882 115.493 68.0601C115.692 68.2748 116.482 68.9493 116.482 68.6274C116.463 68.5725 116.431 68.5227 116.39 68.4817C116.153 68.2558 115.949 67.9977 115.784 67.7152C115.646 67.4393 117.133 66.0288 118.199 64.6491C118.314 64.5494 118.161 64.3885 118.046 64.5034ZM115.945 69.8385C115.838 69.9918 115.731 70.3061 115.945 70.3291C115.945 70.3291 116.137 70.1068 116.375 70.0761C116.827 70.0761 116.804 70.7583 116.796 71.2183C116.796 71.3486 116.973 71.4022 117.003 71.2719C117.211 70.9838 117.304 70.6284 117.264 70.2754C117.11 69.6315 116.26 69.3632 115.945 69.8385ZM116.275 65.2853C116.369 65.3214 116.473 65.3201 116.566 65.2815C116.658 65.243 116.733 65.1702 116.773 65.0783L116.957 64.6567C116.999 64.5642 117.002 64.459 116.966 64.3642C116.93 64.2694 116.858 64.1927 116.766 64.1508C116.72 64.129 116.671 64.1164 116.621 64.1139C116.571 64.1114 116.521 64.1189 116.474 64.136C116.427 64.1532 116.383 64.1796 116.347 64.2137C116.31 64.2479 116.28 64.289 116.26 64.3348L116.068 64.7794C116.048 64.8261 116.037 64.8764 116.037 64.9273C116.036 64.9782 116.046 65.0286 116.065 65.0757C116.085 65.1228 116.113 65.1656 116.149 65.2016C116.185 65.2376 116.228 65.266 116.275 65.2853ZM119.188 66.8567C119.248 66.8932 119.317 66.9118 119.387 66.9103C119.755 66.9103 119.717 66.5807 119.916 66.4121C119.993 66.346 120.041 66.252 120.049 66.1506C120.057 66.0493 120.024 65.9489 119.958 65.8717C119.892 65.7944 119.798 65.7466 119.697 65.7387C119.595 65.7308 119.495 65.7635 119.418 65.8295C119.134 66.0672 118.812 66.6267 119.188 66.8567ZM64.0282 47.6014C69.141 47.931 81.3288 47.3025 81.3288 46.7046C81.2598 19.6461 81.4208 21.0488 81.1065 20.9875C75.8941 20.0217 73.8782 19.6077 70.3291 20.083C65.4923 20.7422 63.691 22.03 55.765 22.2063C51.1659 22.3136 51.2885 22.099 51.2502 22.2829C51.1199 22.8962 51.0049 49.0655 51.4725 49.5484C52.3616 50.4453 59.9273 47.3332 64.0282 47.6014ZM51.4341 22.3826C54.3551 22.5032 57.2806 22.452 60.1956 22.2293C65.6303 21.7464 69.6546 19.8454 74.7597 20.3513C76.0014 20.4739 79.6041 21.1178 80.8459 21.3784V46.4746C79.8571 46.582 75.5492 47.0189 70.881 47.1722C63.3307 47.4251 64.3272 46.7123 60.2416 47.4941C56.7769 48.1533 52.5763 49.5254 51.8097 49.2418C51.5031 47.5631 51.3575 23.5477 51.4341 22.3826Z" fill="black"/>
<path fill-rule="evenodd" clip-rule="evenodd" d="M61.4297 41.5382C62.9628 41.2699 73.1883 35.3446 73.8475 33.9802C73.8907 33.9184 73.9139 33.8448 73.9139 33.7694C73.9139 33.694 73.8907 33.6204 73.8475 33.5586C73.081 32.7307 62.0276 27.4263 60.7705 27.388C60.004 27.388 60.4026 39.8748 60.9698 41.2775C60.9999 41.3707 61.0639 41.4491 61.149 41.4974C61.2342 41.5456 61.3343 41.5602 61.4297 41.5382ZM60.7398 27.595C61.951 27.664 72.3758 33.0067 73.3876 33.8192C72.2761 35.2603 63.0778 40.6796 61.3224 41.0859C60.3872 38.3264 60.8165 27.595 60.7398 27.595ZM33.643 28.5455C33.6343 28.6714 33.6189 28.7968 33.597 28.9211C33.5871 28.9705 33.5872 29.0214 33.5973 29.0707C33.6074 29.1201 33.6274 29.1669 33.656 29.2084C33.6846 29.2499 33.7213 29.2852 33.7638 29.3122C33.8064 29.3392 33.8539 29.3574 33.9036 29.3657C34.0021 29.3838 34.1037 29.3626 34.1868 29.3068C34.2699 29.2509 34.3278 29.1647 34.3482 29.0667C34.3789 28.9149 34.3994 28.7613 34.4095 28.6068C34.4135 28.5565 34.4076 28.5058 34.3921 28.4578C34.3765 28.4097 34.3517 28.3652 34.3189 28.3268C34.2862 28.2884 34.2462 28.2567 34.2012 28.2338C34.1563 28.2108 34.1072 28.1969 34.0569 28.1929C34.0066 28.1888 33.9559 28.1948 33.9079 28.2103C33.8599 28.2258 33.8154 28.2507 33.7769 28.2834C33.7385 28.3162 33.7069 28.3562 33.6839 28.4011C33.6609 28.4461 33.647 28.4951 33.643 28.5455ZM33.804 32.6617C33.804 32.6617 33.0911 32.0868 33.0374 32.0255C32.9467 31.9706 32.8619 31.9063 32.7845 31.8339C32.7845 31.6806 32.4472 31.6422 32.6465 32.1941C32.7845 32.5774 33.5203 33.0603 33.8653 32.8457C33.8897 32.8376 33.9098 32.8201 33.9213 32.7971C33.9328 32.7741 33.9347 32.7474 33.9266 32.7231C33.9185 32.6987 33.901 32.6785 33.878 32.667C33.855 32.6555 33.8283 32.6536 33.804 32.6617Z" fill="black"/>
<path fill-rule="evenodd" clip-rule="evenodd" d="M41.6303 67.3167C42.2052 66.8644 41.3313 64.0972 40.2352 60.8012C45.3173 62.6178 49.5409 63.4074 54.7993 62.3802C55.7651 62.5335 56.7003 62.6638 57.5741 62.7635C57.7274 62.7635 57.9114 62.5642 58.1567 62.1196C58.9331 62.6357 59.8678 62.8585 60.7936 62.7482C61.4988 62.5489 63.8597 61.3301 64.059 60.7092C64.0836 60.6484 64.0958 60.5833 64.0948 60.5177C64.0938 60.4521 64.0797 60.3874 64.0532 60.3273C64.0268 60.2673 63.9886 60.2132 63.9408 60.1682C63.8931 60.1232 63.8368 60.0882 63.7754 60.0653C65.9217 59.5565 68.0978 59.1827 70.2909 58.9462C76.8294 58.2256 88.7336 60.3796 92.9648 60.096C98.8671 59.6897 111.047 53.9637 111.553 52.5993C111.967 51.4955 114.121 6.99072 112.373 4.30786C112.306 4.2024 112.209 4.11964 112.094 4.0704C111.979 4.02117 111.852 4.00775 111.73 4.03191C109.254 4.1009 96.8971 8.67708 92.2903 8.89938C86.7483 9.19832 76.0628 6.82208 69.44 7.55028C59.8661 8.61576 55.6271 11.6512 48.8663 11.4979C40.6951 11.2756 34.3023 6.43115 26.4377 5.42699C21.5549 4.8061 14.84 4.87509 10.5705 6.55379C10.1073 6.69671 9.68263 6.9431 9.32869 7.27433C8.7308 8.10985 8.99908 28.2466 9.00675 29.0438C8.7308 28.4612 8.24022 28.6452 7.97193 29.2431C7.44303 30.5309 7.604 33.7963 7.581 34.2179C7.25268 35.1894 6.97382 36.1769 6.74548 37.1767H5.97895C5.94445 37.1769 5.91093 37.1882 5.88333 37.2089C5.85572 37.2296 5.8355 37.2586 5.82565 37.2917C4.29259 41.9369 2.24595 51.5108 5.68767 55.0369C6.77668 56.2296 8.24434 57.0095 9.84227 57.2445C9.86427 57.6905 9.94679 58.1314 10.0876 58.5552C10.4248 59.0918 11.6206 58.6396 13.6903 58.011C12.9126 60.0014 12.2371 62.0302 11.6666 64.0896C11.4367 64.8561 10.2562 69.4093 10.5091 69.9152C10.7621 70.4211 11.544 70.4825 12.0422 70.6051C10.5824 79.9019 10.2914 89.3447 11.176 98.7138C11.2144 99.12 11.6283 99.4803 12.3335 99.7103C12.1878 107.238 13.4526 121.112 13.7976 121.503C13.913 121.582 14.0434 121.637 14.1808 121.664C14.1808 122.323 14.1425 123.465 14.1808 124.285C14.1667 124.33 14.1667 124.378 14.1808 124.423C14.1742 124.703 14.2318 124.981 14.3495 125.236C15.024 126.102 20.6657 126.117 20.9493 125.895C21.0552 125.825 21.1422 125.73 21.2024 125.618C21.2625 125.507 21.294 125.382 21.294 125.255C21.294 125.128 21.2625 125.003 21.2024 124.891C21.1422 124.78 21.0552 124.685 20.9493 124.615C20.573 124.383 20.1751 124.188 19.7612 124.032C19.088 123.771 18.3851 123.593 17.6685 123.503C17.6685 123.051 17.6685 122.407 17.7299 121.886C17.8097 121.89 17.8886 121.866 17.9529 121.819C18.0172 121.771 18.063 121.703 18.0825 121.625C18.5117 120.445 21.4475 106.164 22.4824 100.592C25.1116 100.592 27.9324 100.438 30.5999 100.247C31.1365 108.594 33.1141 120.399 33.3901 120.652C33.5189 120.731 33.6623 120.783 33.8117 120.805V122.821C33.7965 122.866 33.7965 122.914 33.8117 122.959C33.805 123.239 33.8627 123.517 33.9803 123.772C34.6472 124.638 40.2889 124.653 40.5801 124.431C40.6861 124.361 40.773 124.266 40.8332 124.154C40.8934 124.043 40.9249 123.918 40.9249 123.791C40.9249 123.664 40.8934 123.539 40.8332 123.427C40.773 123.316 40.6861 123.221 40.5801 123.151C40.2055 122.916 39.8073 122.72 39.392 122.568C38.7182 122.309 38.0156 122.131 37.2994 122.039V120.905C37.3621 120.891 37.4213 120.864 37.4728 120.826C37.5244 120.788 37.5672 120.739 37.5983 120.683C38.5105 118.452 39.8979 105.421 39.8979 99.2197C40.9251 99.0357 43.8302 98.4991 44.4128 97.6866C45.2253 96.4525 42.5808 79.7191 40.6261 68.0295C40.9742 67.8113 41.3095 67.5733 41.6303 67.3167ZM57.5588 62.3802C51.8635 61.675 43.309 59.8583 38.7711 56.3783C36.6862 49.7478 37.0464 47.7701 38.0813 40.5801C40.7488 43.0253 42.6804 45.8768 44.3975 47.9464C45.5319 49.2879 57.8807 58.3943 59.0689 59.4904C58.6178 60.4801 58.1137 61.4448 57.5588 62.3802ZM22.3444 20.9032C22.5625 21.1702 22.8584 21.3624 23.1909 21.4531C23.5235 21.5438 23.876 21.5284 24.1994 21.4092C24.1227 21.7618 24.1227 21.8537 24.1994 21.9841C23.5974 22.3085 23.074 22.7612 22.6663 23.3102C21.7925 24.7436 21.9228 24.5289 21.9841 25.2955C21.7289 25.465 21.5169 25.692 21.3651 25.9582C21.2134 26.2245 21.1261 26.5225 21.1103 26.8285C21.0505 27.3393 21.0686 27.8562 21.1639 28.3616C21.2234 28.6877 21.3543 28.9966 21.5472 29.2661C21.6916 29.4745 21.8781 29.6504 22.0946 29.7824C22.3111 29.9144 22.5529 29.9997 22.8043 30.0326C22.7487 30.3625 22.7487 30.6993 22.8043 31.0291C23.0387 32.0052 23.5752 32.8824 24.3374 33.5357C24.6327 33.7747 24.9932 33.9194 25.3719 33.9508C25.7505 33.9823 26.1299 33.899 26.4606 33.712C26.384 34.1259 26.2614 34.7621 26.1464 35.4213C25.5318 35.4201 24.9176 35.4534 24.3067 35.521C23.7011 34.9154 19.01 35.613 19.01 37.1767C17.2657 38.13 15.6951 39.3714 14.3648 40.8484C13.9662 32.7232 13.5063 18.1744 13.445 18.1437C14.2115 17.7988 18.9257 17.4615 23.6092 17.9521C23.3296 18.0593 23.0744 18.2214 22.8587 18.429C22.6429 18.6365 22.471 18.8852 22.3531 19.1604C22.2351 19.4355 22.1736 19.7316 22.1721 20.0309C22.1706 20.3303 22.2292 20.6269 22.3444 20.9032ZM31.2591 20.2977C30.3393 20.6656 25.8398 21.9227 24.7283 21.8997C24.5826 21.6928 24.5903 21.7848 24.6746 21.4552C28.5916 20.9416 30.4389 18.8566 31.2591 20.2977ZM35.5364 27.963C35.5977 28.4536 36.1879 30.3469 36.2416 30.8835C36.0653 31.0138 35.5517 31.0674 35.4137 31.2054C35.2727 31.5948 35.19 32.0029 35.1684 32.4165C34.9308 33.8423 33.7427 34.1872 32.3016 34.2485C31.7344 34.2485 31.9183 34.2485 31.6807 36.4332C30.0585 35.857 28.3574 35.5339 26.637 35.475C26.7826 34.6625 26.8822 34.1489 26.9436 33.8116C27.0039 33.9241 27.1057 34.0086 27.2274 34.0473C27.349 34.0859 27.4809 34.0756 27.5951 34.0186C28.147 33.735 28.009 33.1524 27.7791 32.5852C27.2962 31.3971 27.6028 30.9295 27.3422 30.7838C26.9919 30.5798 26.6971 30.2929 26.4836 29.9483C26.0544 29.1818 26.4836 28.4152 26.9742 28.4152C27.9017 28.4152 27.9477 29.3811 28.2083 29.9483C28.5916 30.8298 29.5804 29.8257 29.4654 27.9783C29.6034 27.8863 30.1783 27.9323 30.4466 27.7484C30.7149 27.5644 30.8605 27.0508 31.0752 26.7979C31.3856 26.9243 31.7213 26.9763 32.0554 26.9497C32.3895 26.9231 32.7127 26.8186 32.9992 26.6446C33.1467 26.5386 33.2687 26.4011 33.3562 26.2419C33.4438 26.0828 33.4946 25.9061 33.5051 25.7247C33.6602 25.8296 33.8397 25.8929 34.0263 25.9087C34.4189 25.897 34.7921 25.7352 35.0688 25.4564C35.2824 25.6244 35.4799 25.8117 35.659 26.016C35.935 27.3651 35.4827 27.5261 35.5364 27.9553V27.963ZM21.1793 35.8889C22.0935 35.6921 23.0351 35.6558 23.9618 35.7816C24.3902 36.6907 25.1376 37.4109 26.0621 37.8052C24.4523 38.932 20.9953 38.3265 21.1793 35.8889ZM24.4217 35.7586C27.4378 35.4448 30.4818 35.9756 33.2138 37.2917C31.2285 38.7021 28.8752 38.4261 26.6063 37.5293C25.6892 37.2204 24.9138 36.5919 24.4217 35.7586ZM32.1406 36.5941C32.2096 35.9809 32.2633 35.3294 32.3169 34.7085C33.9956 34.6241 35.3371 34.1412 35.6054 32.4779C35.6054 32.2862 35.6973 31.7113 35.7357 31.4967C36.8011 31.1288 36.7858 31.2514 36.4409 29.9636C36.4409 30.0403 35.9196 28.2083 35.8736 27.825C35.9741 27.6127 36.0364 27.3844 36.0576 27.1505C36.2492 27.2578 36.4792 27.0355 36.5865 26.7059C36.8931 25.7171 36.1496 25.4028 36.1573 25.0502C36.2477 24.6069 36.224 24.148 36.0883 23.7164C36.027 23.3451 35.8847 22.9919 35.6714 22.6819C35.4581 22.3718 35.179 22.1126 34.8542 21.9227C34.7162 21.8537 34.3253 21.7081 34.2946 21.6774C34.0263 21.4015 33.9956 20.6503 32.6006 20.3897C32.2326 20.3207 31.834 20.3897 31.6731 20.3207C31.579 20.0587 31.4012 19.8351 31.1671 19.6845C30.7379 19.4085 30.6842 19.5925 30.8452 19.4162C35.1608 20.451 40.8101 21.9074 43.6846 22.6663C43.6463 24.437 43.3167 38.4108 42.8644 45.6085C41.4426 43.7084 39.8548 41.9384 38.1196 40.3195C38.3189 38.9474 34.5475 36.2875 33.4131 37.1537C32.9992 36.9391 32.5699 36.7934 32.1406 36.5941ZM37.744 40.1508C37.5447 41.2546 37.4144 41.8755 37.1921 43.3933C36.6152 43.4653 36.0296 43.3759 35.5005 43.135C34.9714 42.8941 34.5194 42.5112 34.1949 42.0288C33.9993 41.2793 34.0732 40.4848 34.4039 39.7842C34.7346 39.0836 35.3009 38.5216 36.004 38.1962C36.9621 38.8247 37.8206 39.6909 37.744 40.1508ZM38.3265 56.7232C36.5789 57.3364 33.896 56.5393 34.103 54.462C34.1228 53.6959 34.4391 52.9674 34.9852 52.4298C35.5314 51.8922 36.2648 51.5875 37.0311 51.5798C37.3678 53.3169 37.8002 55.0339 38.3265 56.7232ZM60.165 56.1407C60.2187 56.4626 60.3873 57.988 60.395 58.4403C60.395 58.5629 60.395 58.5169 60.2876 58.5476C59.9743 58.6259 59.6571 58.6873 59.3372 58.7315C59.1992 58.011 59.1685 57.7274 58.9539 56.6159C59.935 56.1943 60.0194 56.1943 60.188 56.133L60.165 56.1407ZM63.4304 60.7398C62.5897 61.4079 61.6579 61.9525 60.6632 62.3572C59.8381 62.4703 58.9985 62.3116 58.2717 61.905C58.4633 61.537 58.6933 61.0541 58.9769 60.4639C59.2068 60.5329 59.3755 60.4639 59.6361 60.2646C60.1113 59.9273 60.9852 59.3218 60.6862 59.889C60.4716 60.2953 60.096 60.5865 60.211 60.8625C60.326 61.1384 60.6939 61.0465 60.9775 61.0081C61.7263 60.8851 62.4663 60.7136 63.1928 60.4946C63.3154 60.4562 63.8443 60.3872 63.4534 60.7322L63.4304 60.7398ZM66.7418 57.1295C66.7418 57.2521 66.7418 57.2061 66.6269 57.2291C66.3073 57.2815 65.9847 57.3122 65.661 57.3211C65.592 56.6159 65.569 56.1253 65.4694 55.1902C65.8772 55.0584 66.2917 54.9484 66.7112 54.8606C66.7648 55.1902 66.7878 56.7232 66.7648 57.1218L66.7418 57.1295ZM73.587 56.6006C73.587 56.7232 73.587 56.6772 73.4643 56.6926C73.1426 56.7117 72.8201 56.7117 72.4985 56.6926V54.5539C73.541 54.347 73.6329 54.3623 73.7633 54.3393C73.8016 54.6843 73.6866 56.1866 73.587 56.6006ZM80.8613 57.1065C80.8613 57.2215 80.8613 57.1831 80.7234 57.1755C80.402 57.1604 80.0819 57.1245 79.7652 57.0682C79.8112 56.6082 79.9492 55.6961 80.0258 54.9449C81.0606 54.8606 81.0836 54.8912 81.3136 54.8759C81.2982 55.1902 81.007 56.7232 80.892 57.1065H80.8613ZM95.8777 57.3211C95.8777 57.4361 95.8777 57.3978 95.755 57.4131C95.4342 57.447 95.1117 57.4624 94.7892 57.4591C94.7892 56.7845 94.7892 56.3323 94.7049 55.3205C95.8547 55.0369 95.7703 55.0905 95.962 55.0445C96.0003 55.3971 95.9543 56.8919 95.9083 57.3211H95.8777ZM102.546 55.4891C102.546 55.6118 102.546 55.5658 102.432 55.5888C102.115 55.65 101.795 55.6935 101.473 55.7191C101.42 55.3588 101.328 54.4543 101.205 53.5881C102.232 53.2508 102.317 53.2585 102.439 53.2125C102.508 53.5421 102.592 55.0599 102.577 55.4891H102.546ZM108.134 52.9749C108.134 53.0592 108.134 53.0285 108.042 53.0439C107.759 53.0985 107.472 53.1343 107.184 53.1512C107.1 52.5303 107.092 52.2544 106.962 51.2809C107.322 51.148 107.691 51.0379 108.065 50.9512C108.127 51.2655 108.18 52.607 108.165 52.9749H108.134ZM111.799 41.3926C106.985 43.6922 105.038 46.1528 98.9438 47.2566C96.324 47.7784 93.622 47.7235 91.0255 47.0956C90.4506 44.5967 90.5656 22.5666 90.6193 21.7541C97.8553 22.8272 112.481 17.4309 112.557 17.4079C112.473 24.8815 112.136 34.2179 111.799 41.3926ZM9.19838 13.3376C12.4025 12.893 17.5306 11.4213 23.2182 11.9502C31.6501 12.7167 37.9279 17.0859 46.7507 17.7988C56.5163 18.5653 60.4486 15.3459 70.7048 14.5794C77.7339 14.0505 87.0089 16.1584 92.7042 16.1967C97.3494 16.1967 108.157 13.5599 112.634 12.6324V17.1779C112.557 17.1779 96.6595 22.6969 90.5273 21.2559C90.5273 21.2559 90.2743 21.2559 90.259 21.4781C90.2053 22.3597 89.9754 45.9611 90.7112 47.3486C90.7312 47.3888 90.7592 47.4244 90.7935 47.4534C90.8278 47.4824 90.8676 47.5041 90.9105 47.5172C93.5928 48.1802 96.3887 48.2404 99.0971 47.6935C105.16 46.5897 107.23 44.1291 111.844 41.8679C111.73 44.1675 111.622 46.2601 111.523 47.9464C106.157 50.0927 99.8713 52.6836 93.969 53.1589C89.4695 53.5268 76.7451 51.7331 69.693 52.2543C62.0277 52.8292 58.3713 54.3853 53.9561 55.0445C44.3668 47.8545 44.9877 48.2914 43.3167 46.1451C43.7689 39.2463 44.0832 25.3645 44.1445 22.4746C44.146 22.4239 44.1301 22.3742 44.0994 22.3337C44.0687 22.2933 44.0251 22.2646 43.9759 22.2523C40.6261 21.3785 35.6897 20.1597 31.0675 19.0636C31.1546 18.8963 31.1842 18.7051 31.1518 18.5193C31.1138 18.2821 31.0095 18.0604 30.8507 17.88C30.692 17.6996 30.4855 17.5678 30.255 17.4999C30.3374 17.3747 30.3813 17.2281 30.3813 17.0783C30.3813 16.9284 30.3374 16.7818 30.255 16.6567C30.0864 16.3944 29.8344 16.1965 29.5395 16.095C29.2447 15.9934 28.9243 15.9942 28.6299 16.0971C27.3881 14.4491 24.4907 15.4762 23.9004 16.9633C23.3102 18.4503 25.5025 17.4615 18.688 17.5382C17.7069 17.5382 13.9432 17.6762 13.3223 18.0824C13.2227 18.1437 13.9202 39.346 14.0122 41.3466C13.3217 42.1372 12.7011 42.9861 12.1572 43.8838C11.9328 41.6346 11.4545 39.418 10.7314 37.2763C10.7314 37.2227 10.7314 37.192 10.4478 37.1767C10.267 36.2902 10.1339 35.3946 10.0492 34.4938C11.7969 32.6695 11.2144 31.8646 10.4555 32.1023C10.1226 32.2708 9.77653 32.4118 9.42067 32.5239C9.19838 27.7944 9.14472 17.7758 9.19838 13.3376ZM7.91827 34.3712C7.97193 34.2945 8.1559 28.2006 8.60049 29.2584C8.93776 30.071 8.89943 32.5315 8.97609 32.6772C9.34402 33.4437 10.3252 32.5009 10.7238 32.4855C10.9231 32.7385 9.95725 33.9419 9.71962 34.2179C9.482 34.4938 9.71962 34.8848 10.1949 37.169H6.99844C7.31272 36.1419 7.77263 34.6625 7.91827 34.3712ZM10.3175 56.8765C8.66128 56.7576 7.11633 55.9988 6.00961 54.7609C2.69054 51.3958 4.72184 41.9905 6.13226 37.5063H10.4785C11.2059 39.7172 11.6816 42.0032 11.8966 44.3208C11.9003 44.3521 11.914 44.3814 11.9358 44.4042C11.9576 44.4271 11.9861 44.4422 12.0173 44.4474C12.0484 44.4526 12.0804 44.4475 12.1084 44.433C12.1364 44.4184 12.1589 44.3952 12.1725 44.3668C13.813 41.491 16.1955 39.1084 19.0713 37.468C19.3253 42.2762 18.4976 47.0802 16.6491 51.5261C15.4456 54.324 14.7481 57.0835 10.3175 56.8765ZM17.8295 49.1116C18.4572 49.1581 19.0547 49.3996 19.5385 49.8022C20.0222 50.2049 20.3681 50.7487 20.5277 51.3575C21.3556 54.232 17.9598 55.1902 15.9975 54.0864C16.7001 52.4634 17.3117 50.8026 17.8295 49.1116ZM13.2303 60.4562C16.2965 61.491 16.0282 66.4505 11.6973 65.661C12.1189 64.1739 12.5405 62.6178 13.261 60.4562H13.2303ZM10.9614 69.7542C11.0783 68.5312 11.3014 67.3206 11.6283 66.1362C16.4344 67.1097 17.0936 61.3301 13.33 60.2799C13.9865 58.2688 14.7963 56.311 15.7522 54.4236C16.6732 54.9297 17.748 55.0798 18.7723 54.8452C22.6663 53.9561 21.1869 48.9199 17.8908 48.8893C19.0648 45.1268 19.5147 41.1758 19.2169 37.2457C19.1786 36.6171 19.9835 36.1802 20.9723 35.9119C20.9464 36.1309 20.9464 36.3522 20.9723 36.5711C21.1333 38.6561 24.8049 39.6373 26.6829 37.9126C28.1298 38.4452 29.6801 38.6367 31.2131 38.4721C32.1259 38.3146 32.9834 37.9268 33.7044 37.3453C34.057 37.077 34.9538 37.4373 35.82 37.9892C35.0723 38.2644 34.4562 38.812 34.0953 39.5223C33.8647 39.9253 33.7198 40.3717 33.6696 40.8333C33.6195 41.295 33.6653 41.762 33.804 42.2051C34.1615 42.7705 34.6712 43.2236 35.2746 43.5124C35.8779 43.8012 36.5505 43.914 37.2151 43.8378C36.8349 46.2284 36.7679 48.6583 37.0158 51.0662C36.4541 51.0506 35.899 51.1897 35.411 51.4681C34.923 51.7466 34.5209 52.1538 34.2486 52.6453C32.2939 55.9337 35.636 58.08 38.5105 56.8459C39.4303 59.6514 41.638 66.1286 41.3543 66.9104C40.409 67.7298 39.3164 68.3619 38.1349 68.7731C38.0497 68.2425 37.8357 67.741 37.5118 67.3122C37.1879 66.8835 36.7638 66.5407 36.2767 66.3138C35.7896 66.0869 35.2543 65.9828 34.7177 66.0106C34.1811 66.0385 33.6594 66.1974 33.1985 66.4735C31.719 67.4393 31.3894 69.6239 31.8494 70.4671C29.1411 70.9082 26.4059 71.1643 23.6628 71.2337C24.23 66.6345 17.0017 65.9906 17.1856 71.2337C15.0516 71.0356 12.9563 70.5376 10.9614 69.7542ZM37.652 68.9877C35.8278 69.6446 33.947 70.1322 32.0333 70.4441V70.3981C31.9246 69.9564 31.9101 69.4968 31.9906 69.0491C32.0712 68.6014 32.2451 68.1757 32.5009 67.7996C32.8128 67.3115 33.268 66.9319 33.8042 66.7129C34.3404 66.4939 34.9312 66.4462 35.4956 66.5764C36.06 66.7065 36.5703 67.0082 36.9564 67.4399C37.3424 67.8717 37.5854 68.4124 37.652 68.9877ZM23.1569 71.2413C21.3939 71.2413 19.4699 71.2413 17.3696 71.1953C17.3429 70.4025 17.6148 69.6286 18.1315 69.0267C18.6482 68.4249 19.3721 68.0389 20.1598 67.9452C20.5823 67.9345 21.0023 68.0148 21.391 68.1809C21.7797 68.3469 22.1281 68.5948 22.4125 68.9075C22.6969 69.2203 22.9106 69.5906 23.039 69.9933C23.1675 70.396 23.2077 70.8217 23.1569 71.2413ZM19.0176 124.232C18.9872 124.299 18.9396 124.357 18.8797 124.4C17.4379 124.417 15.9965 124.343 14.5641 124.178C14.5028 123.411 14.4491 122.354 14.4108 121.694C15.4117 121.854 16.4255 121.918 17.4386 121.886C17.2086 123.864 17.2623 123.749 17.5152 123.825C18.4581 124.178 18.3278 123.979 19.0176 124.232ZM17.6302 121.418C16.4797 121.463 15.3278 121.378 14.1962 121.165C13.7362 118.099 12.6018 105.766 12.6094 99.7946C14.5028 100.408 18.1208 100.63 22.2064 100.561C20.98 106.218 17.9598 120.43 17.6302 121.418ZM38.6332 122.768C38.6006 122.833 38.5534 122.891 38.4952 122.936C37.0537 122.958 35.6124 122.889 34.1796 122.729C34.1336 122.185 34.0953 121.464 34.0646 120.859C35.0351 121.015 36.0211 121.051 37.0004 120.966C36.8471 122.346 36.8778 122.292 37.1308 122.377C38.0353 122.645 37.9279 122.515 38.6178 122.768H38.6332ZM37.1538 120.468C36.011 120.616 34.8511 120.562 33.7274 120.307C33.2138 118.214 31.4278 107.207 30.8452 100.247C34.2793 100.002 37.4527 99.6413 39.645 99.2733C39.4917 105.36 37.9126 118.414 37.1384 120.445L37.1538 120.468ZM44.0525 97.38C42.3585 99.8176 12.0039 101.473 11.7203 98.6984C10.8383 89.3867 11.1164 80.0015 12.5481 70.7584C19.1709 72.7054 33.9343 71.9542 40.2352 68.3132C42.1592 80.0411 44.6964 96.3605 44.0065 97.3493L44.0525 97.38Z" fill="black"/>
<path fill-rule="evenodd" clip-rule="evenodd" d="M28.9137 61.238C28.9799 60.7421 28.9344 60.2376 28.7806 59.7615C28.6267 59.2854 28.3684 58.8496 28.0245 58.4862C27.69 58.108 27.2687 57.8166 26.7967 57.637C26.3248 57.4575 25.8163 57.3952 25.3149 57.4555C24.8136 57.5159 24.3344 57.697 23.9185 57.9833C23.5026 58.2696 23.1624 58.6526 22.9271 59.0994C22.6683 59.5207 22.5035 59.9928 22.4439 60.4837C22.3844 60.9745 22.4315 61.4723 22.5822 61.9432C23.8086 64.2812 28.4998 64.0819 28.9137 61.238ZM23.2567 59.2834C23.4626 58.8891 23.7615 58.5509 24.1275 58.2982C24.4935 58.0454 24.9157 57.8857 25.3573 57.8328C25.799 57.78 26.2469 57.8356 26.6622 57.9949C27.0776 58.1541 27.4478 58.4122 27.7409 58.7468C28.0422 59.0703 28.2675 59.4571 28.4001 59.8788C28.5327 60.3006 28.5694 60.7466 28.5074 61.1844C28.1548 63.6296 23.9696 63.8059 22.9041 61.7593C22.7889 61.3446 22.7608 60.9106 22.8215 60.4845C22.8821 60.0584 23.0303 59.6494 23.2567 59.2834ZM31.4892 47.2412C31.5602 46.7404 31.5171 46.23 31.3631 45.7482C31.2092 45.2663 30.9483 44.8255 30.6001 44.4587C30.2661 44.0801 29.8453 43.7883 29.3737 43.6082C28.9021 43.428 28.3938 43.3651 27.8925 43.4246C27.3913 43.4842 26.9119 43.6645 26.4956 43.9501C26.0794 44.2356 25.7386 44.618 25.5026 45.0642C22.7891 49.9624 30.9373 51.0892 31.4892 47.2412ZM25.8322 45.2865C26.0381 44.8922 26.337 44.5541 26.7031 44.3013C27.0691 44.0485 27.4912 43.8888 27.9329 43.836C28.3745 43.7831 28.8224 43.8387 29.2378 43.998C29.6531 44.1573 30.0234 44.4154 30.3165 44.75C30.6192 45.0726 30.8453 45.4592 30.978 45.8812C31.1107 46.3032 31.1466 46.7497 31.083 47.1875C30.7304 49.6328 26.5451 49.8014 25.4796 47.7624C25.3645 47.3477 25.3363 46.9137 25.397 46.4876C25.4577 46.0615 25.6059 45.6526 25.8322 45.2865ZM129.36 80.8229C127.864 79.7718 126.273 78.8633 124.607 78.1094C124.722 77.1895 125.152 71.8545 124.837 71.3716C124.738 71.2259 124.715 71.3716 124.837 71.0803C125.082 71.2539 125.365 71.3673 125.662 71.4113C125.959 71.4552 126.262 71.4285 126.547 71.3332C126.813 71.6894 127.207 71.9284 127.646 71.9999C128.085 72.0714 128.534 71.9698 128.9 71.7165C130.057 71.1033 132.066 68.7117 131.46 67.0177C131.23 66.3815 131.062 66.7877 131.698 66.3508C132.208 65.9079 132.602 65.3476 132.848 64.7181C133.16 64.1262 133.288 63.4546 133.215 62.7895C133.143 62.1244 132.873 61.496 132.441 60.9851C131.806 60.2095 130.929 59.6697 129.95 59.452C129.645 59.3684 129.335 59.3019 129.023 59.2527C128.854 58.2409 129.613 56.4089 126.83 54.8988C125.953 54.4818 124.951 54.4133 124.025 54.7072C122.967 55.0062 123.258 55.4737 123.067 54.9142C122.231 52.7296 119.456 51.1735 117.578 52.3156C117.04 52.6339 116.582 53.0719 116.241 53.5956C115.899 54.1194 115.683 54.7148 115.608 55.3358C115.634 55.9741 115.79 56.6003 116.068 57.1754C112.849 57.5817 113.332 62.3112 116.13 62.1962C115.55 63.5189 115.084 64.8882 114.734 66.2895C114.405 68.0065 114.16 69.9382 114.957 71.5019C115.303 72.1267 115.787 72.665 116.371 73.0765C116.955 73.488 117.625 73.762 118.329 73.8781C117.946 74.6063 117.563 75.3345 117.31 75.8941C111.078 74.6447 97.5029 78.2704 96.2228 79.3818C95.9928 79.5811 96.0924 79.7574 96.2228 80.1483C95.3293 80.4008 94.4236 80.6081 93.5092 80.7692C90.5772 77.2576 87.3373 74.0151 83.828 71.0803C83.9199 69.3556 82.6552 67.3703 81.2447 66.9947C79.7117 64.5495 77.964 62.1119 77.5271 61.8513C77.0901 61.5906 73.4951 63.9209 73.2652 64.3885C73.1885 64.5341 73.2652 64.6568 73.3878 64.9097C74.1083 66.2971 77.4121 71.7165 78.8915 73.8245C80.1056 76.7889 81.5913 79.6346 83.3297 82.3253C82.8305 82.3851 82.3362 82.4798 81.8503 82.6089C76.1167 84.0883 71.0729 87.76 67.0256 91.7613C62.3574 96.3605 58.0802 102.577 56.6008 105.613C56.5241 105.758 56.4628 105.873 56.5318 106.003C56.7072 106.336 56.9017 106.659 57.1144 106.969L56.6621 107.628C55.336 106.609 51.1124 103.566 49.7633 104.616C48.5522 105.114 47.7857 105.229 49.4414 108.157C50.4992 110.012 53.3967 113.178 55.244 114.09C56.4398 114.673 57.1067 113.538 56.8844 113.086C58.0157 112.472 59.0685 111.723 60.0195 110.856L60.786 111.814C60.8317 111.865 60.8947 111.897 60.9626 111.904C61.0306 111.911 61.0988 111.892 61.154 111.852C70.1914 104.953 81.1451 96.2532 82.1109 96.6901C83.8969 97.5026 90.4048 107.897 92.5051 109.46C92.5285 109.477 92.5444 109.502 92.5495 109.53C92.5545 109.558 92.5482 109.587 92.5319 109.61C92.5156 109.633 92.4908 109.649 92.4627 109.654C92.4347 109.659 92.4058 109.653 92.3824 109.637C89.9602 107.973 83.3757 97.9395 81.927 97.1883C80.6545 97.5639 76.6609 100.707 69.4555 105.835C65.8222 116.566 64.5344 130.019 64.8563 130.877C64.9253 131.038 65.2626 131.23 65.7532 131.429C65.6612 132.265 65.5692 133.123 65.5002 133.867C64.0821 134.771 59.7129 137.768 60.2648 139.371C60.3185 140.643 60.1422 141.44 63.4919 140.904C65.5845 140.543 67.8228 139.371 69.6241 138.366C69.9231 138.205 70.0304 137.056 70.0457 136.442C70.4678 135.27 70.7258 134.045 70.8123 132.801C71.3122 132.935 71.8354 132.959 72.3453 132.87C72.6979 132.694 73.978 130.479 75.5954 127.451C74.0624 133.438 72.2533 141.501 72.8589 142.245C73.044 142.5 73.3107 142.684 73.6147 142.766C73.9186 142.848 74.2416 142.824 74.5299 142.697C75.4114 142.322 79.6504 127.474 80.7465 123.028C83.9506 123.795 89.5309 125.128 95.7322 126.546C92.9267 136.404 90.5581 146.323 91.064 146.974C91.242 147.229 91.5032 147.414 91.8027 147.496C92.1022 147.579 92.4211 147.554 92.7044 147.427C93.1336 147.243 96.537 137.178 99.9021 127.497C109.1 129.567 118.728 131.613 123.557 132.28C124.324 138.558 125.727 148.515 126.623 149.052C126.886 149.226 127.202 149.305 127.516 149.274C127.83 149.243 128.124 149.105 128.348 148.883C128.877 148.354 128.041 138.152 127.375 131.79C130.042 129.153 135.331 120.476 139.861 112.45C140.866 122.093 143.579 145.411 144.599 147.212C144.726 147.361 144.887 147.476 145.069 147.548C145.25 147.62 145.447 147.647 145.641 147.626C145.961 147.607 146.262 147.467 146.484 147.235C147.182 146.545 144.185 115.347 143.28 108.847C144.974 108.786 146.346 108.717 147.251 108.625C148.408 108.51 148.646 105.459 147.588 105.137C146.475 104.846 145.339 104.653 144.192 104.562C146.093 100.983 147.442 98.2538 147.741 97.38C147.803 97.196 147.856 96.9967 147.741 96.8664C147.351 96.6072 146.931 96.3938 146.492 96.2302C148.247 92.4972 149.389 89.9446 149.435 89.7836C150.24 86.7405 132.388 81.6967 129.36 80.8229ZM54.1402 106.44C53.6785 107.478 53.1053 108.462 52.4309 109.376L51.6643 108.456C52.371 107.724 52.8295 106.788 52.9751 105.781C53.366 105.996 53.757 106.218 54.1402 106.44ZM52.5612 105.59C52.4065 106.504 51.9882 107.354 51.3577 108.035C49.2421 105.222 49.4951 104.095 52.5612 105.59ZM55.428 113.837C53.8106 112.964 50.1313 109.054 49.2038 106.417C49.1424 106.249 48.9738 105.704 49.0965 105.582C49.2066 105.495 49.3277 105.423 49.4567 105.367C49.4107 106.348 50.5222 107.843 51.1278 108.602C52.2546 110.005 54.5158 112.734 56.3248 113.201C56.4512 113.227 56.5817 113.227 56.7081 113.201C56.8691 113.446 56.3402 114.336 55.428 113.837ZM56.4475 112.757C55.4587 112.488 54.0252 111.17 52.7681 109.767C53.473 108.79 54.0093 107.702 54.3549 106.548C55.3667 107.153 56.2482 107.759 56.6008 108.027C56.6202 108.041 56.6423 108.052 56.6657 108.057C56.6892 108.063 56.7135 108.063 56.7372 108.059C56.7609 108.055 56.7835 108.045 56.8035 108.032C56.8236 108.019 56.8407 108.001 56.8537 107.981C56.8537 107.981 57.0454 107.659 57.2983 107.261C58.0649 108.318 59.0537 109.637 59.8739 110.649C58.5861 111.607 56.8997 112.887 56.4475 112.757ZM63.4996 135.936C64.3138 136.719 65.0411 137.588 65.6688 138.527L64.542 138.911C64.0957 138.014 63.3801 137.28 62.4954 136.81C62.8557 136.481 63.2006 136.182 63.4996 135.936ZM62.1658 137.117C62.9596 137.584 63.6074 138.264 64.0361 139.079C60.809 140.099 59.6362 139.57 62.1658 137.117ZM69.5552 138.083C67.1099 139.233 64.3274 140.582 61.7825 140.559C61.6139 140.559 61.016 140.559 60.9623 140.375C60.9186 140.243 60.8928 140.107 60.8857 139.968C61.9972 140.421 64.3887 139.531 65.5385 139.125C66.8646 138.673 68.9036 137.883 69.8771 136.826C69.8334 137.258 69.7249 137.682 69.5552 138.083ZM69.7315 136.258C69.1029 137.132 67.4319 137.883 66.1594 138.351C65.4767 137.371 64.6467 136.502 63.6989 135.775C65.8145 134.089 65.9141 134.242 65.9295 134.028C65.9295 134.028 65.9985 132.817 66.0904 131.567C67.5608 132.057 69.0612 132.451 70.5823 132.748C70.4664 133.95 70.1879 135.131 69.7545 136.258H69.7315ZM141.785 85.1461C140.467 84.9622 139.332 85.1461 138.758 85.767C138.489 86.0736 137.684 87.3001 136.535 89.1474C134.961 86.1353 132.77 83.4892 130.103 81.3825C134.549 82.6396 138.742 83.9887 141.808 85.1461H141.785ZM117.318 76.2927C117.479 76.2927 117.318 76.2927 118.598 73.8628C118.736 73.5792 117.831 73.7708 116.589 72.92C114.405 71.4636 114.581 68.9417 115.118 66.3738C115.507 64.9124 116.02 63.4867 116.651 62.1119C117.321 61.8357 117.927 61.4232 118.429 60.9008C122.223 62.8478 123.68 62.4338 124.354 62.7098C124.203 63.081 124.004 63.4313 123.764 63.7523C123.764 63.7523 124.163 66.3048 123.588 67.4853C123.35 67.9682 124.232 68.2135 124.638 67.9605C124.838 67.8068 125.02 67.6321 125.182 67.4393C126.608 67.2093 126.715 67.9222 126.018 68.819C125.152 69.8998 124.554 69.9458 124.485 70.4747C124.446 70.8733 123.649 71.6245 124.339 71.7242C124.381 73.9008 124.274 76.0778 124.017 78.2397C124.009 78.2961 124.02 78.3537 124.047 78.4035C124.075 78.4534 124.118 78.4927 124.17 78.5156C124.63 78.7073 125.121 78.9296 125.596 79.1672C123.488 82.0264 120.759 84.7399 117.164 83.889C113.569 83.0382 114.045 79.3665 115.739 76.0857C116.269 76.1213 116.796 76.1904 117.318 76.2927ZM115.401 76.1624C114.727 77.4808 113.815 79.7804 114.213 81.6278C114.673 83.7357 116.727 84.5559 118.812 84.4716C121.495 84.3643 123.151 82.8849 124.799 81.0452C125.29 80.4856 125.78 79.9031 126.163 79.3742C134.649 83.7281 138.949 94.0532 138.819 96.0002C137.286 96.8894 128.248 97.0044 126.447 97.0274C125.943 95.1648 125.554 93.273 125.282 91.3627C125.282 91.3342 125.271 91.3069 125.251 91.2868C125.23 91.2667 125.203 91.2554 125.175 91.2554C125.146 91.2554 125.119 91.2667 125.099 91.2868C125.079 91.3069 125.067 91.3342 125.067 91.3627C125.272 93.3601 125.608 95.342 126.071 97.2956C126.133 97.5409 126.432 97.472 127.421 97.472L127.559 97.8016C122.078 98.4378 118.92 98.5681 114.397 100.806C111.783 98.2155 109.3 95.6399 105.429 92.3745C103.95 91.017 102.366 89.779 100.692 88.6722C102.111 86.4353 103.728 84.3292 105.521 82.379C105.628 82.287 105.482 82.126 105.375 82.218C103.31 83.9411 101.598 86.0467 100.331 88.4192C99.6108 86.8095 97.1886 81.3058 96.6903 79.7344C98.0011 78.9066 108.848 75.7638 115.401 76.1624ZM121.595 116.237C122.691 114.083 123.994 111.637 125.428 109.116C129.506 109.116 133.698 109.039 137.37 108.978C135.438 112.381 133.399 115.991 131.575 119.18C128.241 118.122 124.86 117.133 121.595 116.237ZM131.284 119.64C128.517 124.469 126.294 128.256 125.819 128.762C124.546 128.762 112.688 126.064 101.328 123.473C102.861 119.103 104.271 115.125 105.268 112.573C113.6 114.55 123.611 117.179 131.284 119.64ZM121.779 109.154L125.021 109.116C124.584 109.928 124.155 110.733 123.741 111.538C123.166 110.825 122.507 110.02 121.779 109.154ZM106.763 109.154C106.057 109.277 105.996 108.556 100.814 123.388L97.2806 122.576C101.642 107.598 103.206 106.341 103.413 106.341C104.072 105.413 126.807 104.133 139.785 104.723L137.646 108.495C126.248 108.648 109.614 108.594 106.763 109.123V109.154ZM136.918 104.202C126.186 103.995 111.139 104.769 105.49 105.628C103.252 105.444 105.544 103.934 107.667 103.604C109.277 103.359 111.017 103.428 111.369 103.252C113.209 102.332 113.953 99.9325 127.88 98.2155C128.21 98.1695 127.995 97.8016 127.88 97.5026C131.065 97.5383 134.248 97.3591 137.408 96.966C137.715 98.7921 137.867 100.641 137.861 102.493C137.74 103.141 137.408 103.731 136.918 104.171V104.202ZM81.3444 67.4086C81.6708 67.5032 81.9747 67.6626 82.2381 67.8773C82.5015 68.092 82.7189 68.3575 82.8775 68.6581C83.154 69.2462 83.3203 69.8802 83.368 70.5284C82.8851 69.7082 82.5325 69.0413 82.4329 68.9493C82.1646 68.6811 80.2023 68.8574 79.6887 68.1828C79.1751 67.5083 80.5549 67.1787 81.3444 67.378V67.4086ZM73.6331 64.5571C74.4839 63.5683 77.4657 61.8513 77.4657 62.0429C77.8413 62.2959 79.3284 64.5801 80.7388 66.918C79.635 66.918 78.7075 67.5849 79.3131 68.4511C79.9186 69.3173 81.3444 69.2176 82.1033 69.3479C82.654 70.2119 83.1383 71.1165 83.552 72.0538C82.7855 72.4907 80.3786 73.9318 79.819 74.2077C78.8915 73.1193 73.8784 65.109 73.6331 64.5571ZM83.8356 82.3023C82.2073 79.9046 80.7939 77.3677 79.612 74.7213C79.7653 74.7826 79.911 74.7213 80.1103 74.5987C80.8768 74.2001 83.2531 72.7973 83.9429 72.3911C84.2419 72.2071 84.0043 71.7472 83.8433 71.3869C88.3045 74.9896 93.2333 81.1678 93.3789 81.2138C94.4188 81.1204 95.4463 80.9201 96.445 80.6159C97.1503 82.4939 98.7446 86.1503 99.5112 87.8673C94.1301 84.257 88.6801 81.896 83.8356 82.3023ZM85.2384 108.502C92.1371 109.997 97.0736 111.047 100.569 111.499C99.4882 114.405 98.2234 118.306 96.9816 122.469C88.8717 120.614 81.812 118.996 80.1869 118.69C82.7318 113.607 85.0007 109.001 85.2384 108.502ZM74.3076 142.23C74.1304 142.295 73.9368 142.301 73.7558 142.247C73.5748 142.193 73.4161 142.082 73.3035 141.931C73.0122 140.904 74.9515 132.012 76.3083 126.171C76.9368 124.983 77.5961 123.703 78.2629 122.407L80.4552 122.951C79.3054 127.244 75.0052 141.218 74.3076 142.23ZM92.4898 147.013C92.3119 147.079 92.1173 147.084 91.9359 147.029C91.7545 146.974 91.5963 146.86 91.4856 146.706C91.3706 145.173 93.5399 135.913 96.0848 126.631L99.3885 127.397C96.2764 136.511 93.1106 145.901 92.4898 147.013ZM127.98 148.546C127.841 148.674 127.663 148.75 127.475 148.762C127.287 148.775 127.1 148.723 126.945 148.615C126.278 147.749 124.807 138.382 123.941 132.334C126.524 132.671 126.6 132.51 127.007 132.15C127.551 138.282 128.195 147.588 128.011 148.531L127.98 148.546ZM146.101 146.913C145.964 147.03 145.793 147.1 145.613 147.111C145.433 147.122 145.255 147.074 145.104 146.974C144.215 145.395 141.272 121.334 140.145 112.028C140.743 110.963 141.325 109.913 141.885 108.893H143.065C143.748 114.757 146.331 144.79 146.101 146.898V146.913ZM147.481 105.613C148.04 105.781 147.826 108.081 147.243 108.142C146.139 108.249 144.369 108.326 142.169 108.387C142.812 107.207 143.426 106.088 143.993 105.007C145.171 105.097 146.339 105.294 147.481 105.597V105.613ZM147.289 97.1807C146.522 99.8175 130.333 129.528 126.393 131.996C124.776 133.016 81.7813 123.005 78.3626 122.223C78.9375 121.112 79.5201 119.977 80.0796 118.858C94.6437 122.223 125.152 129.651 126.025 129.222C127.03 128.723 143.863 98.2308 145.235 96.3222C145.94 96.5507 146.627 96.8326 147.289 97.1653V97.1807ZM148.937 89.6457C147.983 91.7855 147.01 93.9166 146.017 96.0385C145.718 95.9236 145.449 95.8316 145.304 95.7932C145.239 95.7629 145.166 95.7539 145.096 95.7677C145.025 95.7815 144.961 95.8173 144.913 95.8699C144.622 96.1918 142.613 99.7026 140.007 104.302C139.179 104.263 138.305 104.233 137.401 104.217C137.806 103.742 138.071 103.164 138.167 102.546C138.305 101.719 137.937 98.9284 137.638 96.92C138.62 96.7284 139.271 96.4831 139.325 96.1535C139.532 95.0727 137.462 90.8568 136.841 89.6917C138.06 87.737 138.919 86.4339 139.141 86.135C140.881 84.1343 149.221 88.0973 148.937 89.6303V89.6457Z" fill="black"/>
</svg>
