<svg width="154" height="154" viewBox="0 0 154 154" fill="none" xmlns="http://www.w3.org/2000/svg">
<path d="M3.87113 132.466C11.0261 126.255 17.8859 119.698 24.8746 113.302C31.8632 106.905 55.9114 85.416 57.8232 83.5164C58.1773 83.1646 57.6607 82.6901 57.2897 82.9829C52.938 86.4117 17.8246 118.808 15.2475 121.229C11.3641 124.879 7.50304 128.562 3.79447 132.389C3.74541 132.44 3.819 132.51 3.87036 132.465L3.87113 132.466Z" fill="black"/>
<path d="M19.8637 133.818C32.5333 123.878 61.318 99.9666 76.4305 87.4128C78.7286 85.5041 81.1148 83.6575 83.2244 81.5372C83.541 81.2191 83.1232 80.6304 82.7307 80.8979C80.5369 82.3942 78.5247 84.1542 76.4842 85.8491C74.4229 87.5615 24.1679 129.668 19.669 133.624C19.5334 133.743 19.7281 133.925 19.8637 133.818Z" fill="black"/>
<path d="M42.6718 128.026C45.925 125.647 89.1583 91.3275 94.3402 86.5273C94.6047 86.282 94.2521 85.8052 93.9485 86.0191C88.0752 90.1661 39.243 130.533 42.6718 128.026Z" fill="black"/>
<path d="M28.1012 145.008C30.141 143.576 32.0566 141.953 34.0067 140.402C36.0028 138.815 87.4329 99.532 89.5692 97.6754C89.8636 97.4194 89.4834 96.9403 89.1553 97.1396C80.4182 102.443 35.0492 138.171 28.036 144.924C27.9931 144.965 28.0506 145.044 28.1012 145.008Z" fill="black"/>
<path d="M147.641 14.7292C147.931 14.431 147.601 13.9466 147.217 14.1083C146.199 14.5368 145.306 15.2466 144.646 16.1312C142.376 13.5135 139.1 13.6676 135.944 14.9147C136.4 14.3145 136.808 13.7089 136.95 12.9899C137.193 11.7519 136.531 10.3722 135.339 9.63473C134.365 9.03069 133.07 8.83139 131.691 9.06902C125.111 10.2104 119.473 16.9216 116.056 22.6592C116.216 22.893 116.373 23.1298 116.526 23.3675C119.839 17.7241 125.397 10.9386 131.822 9.82484C134.782 9.31125 136.529 11.1556 136.197 12.842C136.079 13.4453 135.697 13.978 135.248 14.5629C133.185 17.2458 130.422 20.7198 127.343 23.8029C124.709 26.4406 122.397 29.4363 120.469 32.6864C120.55 33.0697 120.622 33.4545 120.685 33.8409C121.187 32.9563 121.717 32.0901 122.274 31.2453C122.088 33.0812 122.085 35.0152 122.613 36.7898C122.629 36.8434 122.708 36.8327 122.709 36.7767C122.81 33.8577 122.732 32.4618 123.398 29.6179C124.753 27.746 126.245 25.9898 127.856 24.3724C127.716 25.0723 127.628 25.7859 127.598 26.518C127.575 27.0768 127.564 28.6383 127.87 29.1365C127.903 29.1925 128.002 29.204 128.032 29.1365C128.336 28.4804 128.12 26.2152 129.191 22.9942C131.355 20.6922 133.324 18.2784 134.953 16.1926C135.359 15.9925 135.761 15.8093 136.151 15.6514C134.379 17.9526 132.737 20.8693 133.12 23.7477C133.131 23.8243 133.252 23.8611 133.27 23.7676C134.387 18.1212 137.048 15.9871 137.483 15.1861C140.072 14.4387 142.538 14.7162 144.209 16.8035C144.118 16.9645 144.036 17.1293 143.96 17.2979C143.714 17.8506 144.519 18.4271 145.091 18.3335C145.584 19.6091 145.566 20.9467 145.031 22.039C144.309 23.5154 142.827 24.5357 141.49 25.5238C134.818 30.4542 129.313 36.835 125.36 44.013C125.615 44.0659 125.867 44.1195 126.119 44.1732C129.788 37.6161 135.183 31.1326 141.946 26.1401C143.246 25.1804 144.581 24.2436 145.421 22.9098C145.759 23.1912 146.065 23.5185 146.328 23.8964C149.004 27.7399 143.524 30.1629 139.298 33.1502C134.878 36.2739 131.34 40.5436 129.296 44.8799C129.548 44.9382 129.798 44.9965 130.046 45.0555C135.641 33.2345 146.739 31.4446 147.735 26.6652C148.073 25.0416 147.171 23.3092 145.791 22.2246C146.33 21.0149 146.353 19.5815 145.862 18.2101L147.723 17.9119C148.305 17.8177 148.577 17.5386 148.51 16.9522C148.494 16.8181 148.485 16.8288 148.588 16.6701C149.326 15.5096 147.9 15.1761 147.641 14.7308L147.641 14.7292ZM148.027 16.0975C148.022 16.1305 147.979 16.1979 147.941 16.2577C147.746 16.562 147.712 16.7131 147.748 17.0388C147.752 17.0695 147.756 17.1117 147.771 17.114C147.684 17.1523 147.522 17.1676 144.953 17.5785C144.897 17.5747 144.792 17.5264 144.722 17.4773C145.204 16.4716 146.005 15.6238 146.977 15.0788C147.104 15.3478 147.341 15.5632 147.542 15.6828C147.68 15.7648 148.045 15.9833 148.027 16.0975Z" fill="black"/>
<path d="M50.6973 41.5515L48.3279 43.543C48.1784 43.6687 48.1477 43.8864 48.2551 44.0489C48.577 44.5326 48.9074 45.0109 49.2462 45.4839C45.9884 43.8089 42.798 41.9853 39.7149 40.0322C39.6229 39.9739 39.511 39.957 39.4068 39.9869C39.1776 40.0506 39.2734 39.9632 37.7595 43.0163C37.3754 43.7898 37.5004 44.2903 38.3328 44.7372C43.9539 47.7498 49.5551 50.0303 52.3875 51.0758C52.4534 50.8198 52.5201 50.5638 52.5884 50.3085C47.8258 48.5524 43.1606 46.4551 38.6939 44.0619C38.5827 44.0021 38.3512 43.8787 38.3206 43.7607C38.2853 43.625 38.3451 43.559 39.6636 40.9076C43.9938 43.6288 48.5287 46.0979 53.1671 48.2603C53.2407 48.0127 53.3158 47.7659 53.3917 47.519C52.5132 47.1089 51.6386 46.6873 50.7686 46.255C50.1837 45.4885 49.621 44.7066 49.0829 43.9101L50.8031 42.4652C51.5696 44.1225 52.4657 45.7169 53.4806 47.2339C53.5657 46.9587 53.6746 46.639 53.8539 46.4075C52.8796 44.9059 52.0226 43.3283 51.2937 41.691C51.1871 41.4526 50.8866 41.3943 50.6965 41.5538L50.6973 41.5515Z" fill="black"/>
<path d="M57.0839 37.7005C57.0326 36.7462 56.5772 36.3391 55.6819 36.5737L52.9438 37.2866C52.756 37.3356 52.6341 37.5173 52.6609 37.7105C53.0534 40.5352 53.6751 43.3262 54.5167 46.0498C54.7398 46.0299 55.0119 46.0628 55.3507 46.1487C54.5037 43.4703 53.8728 40.7238 53.4673 37.9428C56.0123 37.2805 56.1112 37.2352 56.1978 37.2782C56.4799 37.4184 56.2162 40.8349 57.576 46.755L58.4185 46.9819C57.7002 43.9364 57.2518 40.8242 57.0832 37.7013L57.0839 37.7005Z" fill="black"/>
<path d="M40.5572 47.9218C40.1064 48.9061 39.8029 49.9424 39.6503 51.0102C35.1898 52.1624 30.9745 53.4548 26.7953 54.9495C26.2587 55.1427 26.0264 55.3857 25.9973 56.0304C25.9498 57.0599 26.0441 58.0901 26.2779 59.0935C26.3185 59.266 26.4718 59.3894 26.6512 59.3894C26.8842 59.3894 31.7894 57.8739 36.8831 56.1178C37.425 56.2841 38.0398 56.3439 39.9976 56.5976L31.7679 61.689C31.5885 61.8017 31.111 62.1015 31.1493 62.6181C31.1769 62.9761 31.4306 63.1808 31.6161 63.331C31.8285 63.5019 31.8346 63.5119 31.8997 63.7771C31.945 63.9588 32.0002 64.1857 32.1696 64.3758C32.3512 64.5812 32.5904 64.6832 32.8694 64.6832C33.383 64.6832 33.3087 64.7484 38.0781 61.5748C38.0674 61.8815 38.0919 62.1712 38.1563 62.4303C36.4124 64.6571 34.677 66.8993 32.989 69.1123C32.8595 69.2817 32.8932 69.5278 33.0687 69.655C34.6754 70.8217 34.654 70.8493 34.8364 70.8493C34.9429 70.8493 35.048 70.8049 35.1231 70.7205C37.215 68.3626 39.2931 65.9426 41.3237 63.5019L46.2036 63.111L39.6879 67.6758C39.1958 68.0208 39.1659 68.4646 39.6074 68.903C39.6373 68.9329 39.6664 68.9613 39.6948 68.9904C39.0746 69.3361 38.4576 69.6849 37.8451 70.0398C36.9574 70.5542 37.2641 70.9474 37.9747 73.5851C38.0199 73.753 38.1724 73.8688 38.3441 73.8688C38.6952 73.8688 44.754 70.9612 50.487 67.7977L49.985 67.6789C49.9911 67.5187 49.998 67.3577 50.0041 67.1967C46.2818 69.261 42.459 71.1889 38.5963 72.9497C38.2506 71.6657 38.0137 70.9091 38.0605 70.8233C38.1372 70.683 43.9821 67.3799 50.1559 64.6134C50.1774 64.3229 50.2011 64.0324 50.2257 63.7426C46.8919 65.2175 43.5981 66.8464 40.3939 68.6041L40.1064 68.3182L47.7121 62.9899L50.3161 62.7799C50.3414 62.5215 50.3682 62.2632 50.3966 62.0056C39.52 62.8925 39.612 62.9278 39.3008 62.7898C38.5365 62.451 38.9229 60.6412 39.0471 60.5446C39.1981 60.4265 44.7663 59.5074 50.7477 59.2507C50.7852 58.9923 50.8251 58.734 50.865 58.4764C47.7052 58.5976 44.5394 58.8934 41.4096 59.3595L44.6751 57.1932C47.2154 57.5106 49.6653 57.808 50.9493 57.9513C50.9907 57.6953 51.0344 57.4393 51.0781 57.184C46.8421 56.7049 42.5663 56.1753 38.351 55.608C39.2931 55.2769 40.2268 54.9411 41.1236 54.61C41.5077 54.4689 41.7307 54.2826 41.8112 53.9837C49.9206 54.902 47.312 54.4681 51.3693 55.5965C51.4176 55.3451 51.4682 55.0936 51.5196 54.843C48.1429 53.9032 44.7724 52.8607 41.4571 51.73C41.362 51.4464 41.2524 51.1858 41.1267 50.9413C41.0455 50.7826 40.8653 50.7021 40.6928 50.745L40.459 50.804C40.594 50.0283 40.8147 49.2725 41.1206 48.545L52.198 51.832C52.2593 51.5836 52.3214 51.3353 52.385 51.0877L41.0148 47.7141C40.8323 47.6612 40.6369 47.7486 40.5572 47.9218ZM40.2536 63.5847C38.456 65.7349 36.624 67.8667 34.7789 69.9502L33.836 69.2649C35.3768 67.2481 36.9544 65.2083 38.5419 63.18C39.0547 63.7265 39.7569 63.6231 40.2536 63.5847ZM39.5637 59.6546C38.8301 59.7796 38.4246 59.7934 38.2253 60.54L33.5225 63.6514C33.1684 63.8867 32.8395 63.9772 32.7422 63.8661C32.6985 63.8178 32.6724 63.7081 32.6441 63.5939C32.6042 63.4337 32.5597 63.2513 32.4432 63.0803C32.2478 62.7936 31.9534 62.6672 31.9135 62.5652C31.9411 62.4548 31.8944 62.5093 41.2034 56.754L43.5061 57.0468L39.5637 59.6546ZM41.0692 53.7859C40.9757 53.93 33.2803 56.6367 26.9394 58.5209C26.7455 57.5114 26.6933 55.9415 26.8129 55.7897C26.9478 55.621 33.8023 53.2808 40.574 51.5652C40.8983 52.3141 41.1382 53.6824 41.0692 53.7859Z" fill="black"/>
<path d="M32.7693 66.7448C32.5141 66.4827 32.2458 66.2335 31.9775 65.9836C31.1442 65.2087 31.1657 65.1282 30.9227 65.1282C30.8154 65.1312 30.715 65.1788 30.6444 65.26C27.2709 69.1349 24.0322 73.1225 21.0189 77.1133C20.884 77.2926 20.9315 77.5502 21.1216 77.669C23.7087 79.2872 23.5638 79.2259 23.721 79.2259C23.8382 79.2259 23.954 79.1714 24.0283 79.071L32.8023 67.2393C32.9142 67.0882 32.8996 66.879 32.7693 66.7448ZM23.6236 78.3305L21.8835 77.242C24.7336 73.4828 27.7814 69.729 30.9534 66.0726C31.3129 66.4206 31.6509 66.7195 31.9897 67.0492L23.6236 78.3305Z" fill="black"/>
<path d="M34.0143 73.5741C33.3596 73.3778 32.6659 73.3364 32.1991 73.3364C32.0473 73.3364 31.9093 73.4261 31.848 73.5656C31.1029 75.262 28.0566 82.0713 27.3116 83.7692C27.0325 84.4024 27.2472 84.8394 27.8957 84.9735C29.4157 85.2893 30.1079 85.6764 30.7319 84.2545C32.1209 81.0886 33.3865 77.8216 34.4941 74.5445C34.6643 74.0378 34.4773 73.7128 34.015 73.5733L34.0143 73.5741ZM30.029 83.9471C29.7546 84.5718 29.6365 84.5527 29.2103 84.4645C28.1241 84.2399 28.0191 84.2177 27.9647 84.2031C28.0061 84.0552 31.8649 75.4299 32.4474 74.1076C32.9104 74.1237 33.3566 74.1881 33.7651 74.3038C32.6651 77.5579 31.4088 80.8027 30.029 83.9471Z" fill="black"/>
<path d="M20.0421 85.7761C19.5254 85.3974 18.1878 86.8623 5.64707 90.3885C5.4677 90.439 5.35118 90.6107 5.36958 90.7955L5.50219 92.127C5.55739 92.6774 5.80958 93.0246 6.36303 93.0246C8.37597 93.0246 17.1729 90.1117 19.0992 89.4402C20.2652 89.0332 20.003 88.5648 20.1977 86.1165C20.2084 85.9839 20.1502 85.8558 20.0429 85.7769L20.0421 85.7761ZM18.8463 88.7151C17.0326 89.3475 8.11764 92.2788 6.30707 92.2619C6.25341 92.1852 6.19669 91.3635 6.16373 91.0385C11.2781 89.592 15.5072 88.1946 19.3898 86.6653C19.2648 88.656 19.379 88.5296 18.8463 88.7151Z" fill="black"/>
<path d="M65.4369 71.2063C60.4298 69.8395 55.3974 68.5586 50.3788 67.3758C50.651 60.5566 51.8245 53.7987 53.8651 47.2838C54.1311 46.436 54.3327 46.2635 55.3714 46.5494C56.5473 46.8737 59.073 47.5429 62.14 48.3493C61.4133 46.5057 60.9105 44.6507 60.6475 42.8455C58.5955 43.6902 56.5825 44.6277 54.6186 45.6556C53.7578 45.6725 53.3883 46.2436 53.1338 47.0546C51.0404 53.7351 49.8522 60.6685 49.6008 67.6633C49.5778 68.321 49.7357 67.7238 64.9931 71.8801C65.1342 71.6516 65.2821 71.427 65.4369 71.2063Z" fill="black"/>
<path d="M78.5822 52.3269C78.5684 52.1184 78.5753 51.9037 78.5899 51.6868C77.5351 50.4442 76.4528 49.227 75.3306 48.0488C71.8129 47.0791 70.9375 46.9135 70.0828 46.255C69.3913 45.7223 68.9077 44.8224 69.1223 43.9769C69.2311 43.5476 69.4895 43.2034 69.8076 42.8922C69.0472 42.2406 66.8663 40.4063 65.2734 38.7773C66.7383 46.127 71.4733 53.5541 78.2495 58.2998C79.2989 57.3754 80.3598 56.464 81.4322 55.5679C79.9566 55.0543 78.6819 53.8531 78.5822 52.3269Z" fill="black"/>
<path d="M73.3742 62.7821C73.5681 62.5958 73.7621 62.4103 73.9575 62.2255C68.305 58.5561 63.5792 52.8453 61.6077 45.4803C60.2348 40.3513 60.4295 34.8053 64.112 30.9794C64.4692 31.2347 64.844 31.4578 65.2081 31.6655C64.798 32.2113 64.4033 32.7678 64.0253 33.3358C62.5306 35.5833 62.8671 36.6703 64.0223 37.9826C65.6152 39.7909 67.4603 41.3854 69.2563 42.9246C68.2207 44.1733 68.7189 45.6888 69.8488 46.5596C70.7902 47.2855 71.7974 47.4733 75.1265 48.3909C76.1905 49.5108 77.213 50.6598 78.1988 51.8166C78.1903 51.9952 78.188 52.1753 78.1988 52.3531C78.3099 54.0518 79.6997 55.3005 81.091 55.8532C81.3194 55.6608 81.5486 55.4699 81.7778 55.2783C80.3934 54.8828 79.0581 53.7544 78.963 52.3026C78.8963 51.2669 79.3969 49.9147 78.5813 48.9489C78.0217 48.2874 77.5717 48.2705 72.5808 46.8945C71.7821 46.6745 70.9565 46.4469 70.3149 45.9525C69.7737 45.5355 69.3092 44.7919 69.4924 44.0721C69.7116 43.2097 70.7587 42.6816 71.503 41.9327C73.7636 42.8042 76.9999 43.4573 79.1961 43.9035C79.7127 44.0085 79.1685 43.7417 80.7974 45.6435C82.2715 47.3629 84.6156 49.4564 86.847 51.2386C87.0593 51.0761 87.2724 50.9143 87.4855 50.7526C82.3857 46.6991 79.3494 43.6543 76.5784 37.2467C69.5821 21.0771 78.8243 8.71193 92.2926 8.71193C95.5956 8.71193 98.9876 9.47311 102.099 11.02C113.804 16.8374 123.552 30.3424 119.691 42.9115C119.944 42.9568 120.197 43.0028 120.45 43.0488C124.362 29.9668 114.276 16.2157 102.441 10.3332C95.4393 6.8523 86.5089 7.04547 80.3214 11.8264C77.1026 11.0844 71.3114 10.6996 70.7649 13.9574C70.6575 14.5937 70.8507 15.4039 70.6667 15.9029C70.121 17.3862 67.1214 16.8197 65.3384 18.6633C64.496 19.5341 64.1005 21.0718 64.8977 22.1388C65.4021 22.8141 66.2844 23.1737 66.384 23.7823C66.4737 24.3235 65.8689 24.8417 65.2258 25.0747C64.4753 25.3468 63.5555 25.4672 62.8978 26.1126C61.9181 27.0746 61.8828 29.0224 63.5118 30.5011C56.1889 38.208 61.0281 54.5447 73.3734 62.7836L73.3742 62.7821ZM76.7515 48.8385C77.9205 49.1612 78.3536 49.4472 78.2831 50.7373C76.3177 48.4667 76.3821 48.7366 76.7515 48.8385ZM69.799 42.3803C68.7481 41.4796 64.2645 37.6798 63.8682 36.3537C63.6137 35.5051 64.1281 34.5661 64.6639 33.7605C65.0518 33.1771 65.458 32.6053 65.8804 32.0457L67.1115 32.7394C66.7029 33.4669 66.5695 34.2771 66.7719 35.01C67.0594 36.0509 67.9056 36.7209 68.7833 37.2751C68.0482 38.5951 68.5741 40.5176 70.7411 41.5992C70.4575 41.8506 70.1118 42.109 69.799 42.3803ZM67.7837 33.1181C69.7936 34.2511 70.0351 34.353 70.1915 34.5769C70.5763 35.1295 69.881 35.775 69.2126 36.6404C68.433 36.1498 67.7301 35.601 67.5108 34.8061C67.3522 34.2304 67.4948 33.6325 67.7837 33.1189V33.1181ZM63.4228 29.2432C62.9085 28.4835 62.7728 27.3084 63.4366 26.6576C63.928 26.1747 64.7298 26.0674 65.4879 25.7937C66.4308 25.4534 67.3077 24.66 67.1421 23.6558C66.9812 22.6785 65.9655 22.2837 65.5132 21.6789C64.9682 20.9491 65.2856 19.8215 65.8911 19.1953C67.5262 17.5043 70.6445 18.188 71.3881 16.1666C71.6648 15.4154 71.4149 14.7201 71.523 14.0839C71.9438 11.575 77.0421 11.9468 79.5663 12.4458C70.6729 20.1228 72.4321 33.4577 78.8411 43.0472C76.7086 42.6134 71.5506 41.6038 70.0688 40.2302C69.4464 39.6537 69.0041 38.6426 69.3644 37.827C69.9193 36.5676 72.5325 34.9149 70.0251 33.4999C65.2971 30.8315 64.1633 30.3363 63.4244 29.2424L63.4228 29.2432Z" fill="black"/>
<path d="M92.8723 22.8663C93.2586 22.5313 91.2227 21.5616 90.5335 21.7479C89.6972 22.0998 89.7716 23.2404 90.7466 23.3239C91.8965 23.4236 92.7956 22.933 92.8723 22.8663Z" fill="black"/>
<path d="M98.787 15.9841C98.5992 15.6285 98.0511 15.4698 97.6625 15.7695C97.4816 15.9098 97.3482 16.1321 97.3612 16.3705C97.398 17.0282 97.8104 17.971 97.858 18.0623C97.9407 18.2186 98.1584 18.1964 98.2458 18.0623C98.4543 17.7449 98.9932 16.6503 98.8637 16.1674L98.787 15.9841Z" fill="black"/>
<path d="M107.835 20.0184C106.741 20.6071 106.959 20.9428 106.6 21.3912C106.528 21.4802 106.562 21.6603 106.705 21.6465C107.542 21.5683 107.357 22.016 108.608 21.3422C108.774 21.2525 108.911 21.0632 108.96 20.8838C109.139 20.233 108.445 19.6887 107.834 20.0184H107.835Z" fill="black"/>
<path d="M101.167 26.9441C100.914 26.7486 100.735 27.0024 99.4503 28.1514C99.2111 28.3645 99.1283 28.8766 99.52 29.1794C99.8328 29.4208 100.311 29.3603 100.532 28.9862C101.252 27.3212 101.4 27.1242 101.167 26.9441Z" fill="black"/>
<path d="M105.255 35.2971C105.068 35.1998 104.877 35.2902 104.807 35.4796C104.723 35.7019 104.831 36.9759 104.876 37.2089C105.052 38.1579 106.461 38.2844 106.504 37.1054C106.522 36.601 105.333 35.337 105.256 35.2971H105.255Z" fill="black"/>
<path d="M113.89 29.1397C112.899 29.0669 112.446 29.6142 112.131 29.687C111.92 29.7369 111.92 30.0642 112.131 30.114C112.144 30.1171 112.732 30.4421 113.217 30.623C113.368 30.6797 113.61 30.6759 113.871 30.6628C114.898 30.61 114.946 29.2156 113.89 29.1397Z" fill="black"/>
<path d="M92.1701 35.8762C92.0222 35.8111 91.8605 35.7996 91.6979 35.7919C91.5224 35.7835 91.3538 35.8348 91.215 35.9422C90.5182 36.4833 91.0954 37.2392 91.6979 37.21C92.1494 37.1886 93.5269 36.6328 93.6036 36.5891C93.924 36.4074 92.5235 35.9805 92.1701 35.8762Z" fill="black"/>
<path d="M134.391 69.9219C132.146 71.9808 126.623 76.7493 121.182 81.3701C120.077 78.2686 115.774 76.8689 113.092 79.7856C113.452 79.7549 113.82 79.7733 114.175 79.84C116.675 77.7818 120.069 79.551 120.601 82.1259C120.66 82.4095 121.002 82.5299 121.224 82.3405C124.753 79.3456 132.068 73.1092 134.929 70.4516C134.736 70.2944 134.556 70.1166 134.391 69.9219Z" fill="black"/>
<path d="M114.851 79.6247C112.645 78.8535 110.115 79.8646 108.948 82.989L83.6537 78.3246C83.7825 76.1071 82.9515 74.4322 81.2674 73.4418L79.8899 74.5656C80.4871 75.421 80.8029 76.6192 80.668 78.1237C80.2947 82.3022 75.9093 84.9591 73.405 82.0592C72.5564 81.0765 72.1946 79.6929 72.4131 78.2625C72.9037 75.0462 74.6177 73.034 76.8866 73.0279C77.7834 73.0256 78.6174 73.3192 79.2751 73.8833C79.0881 73.3307 78.7846 72.85 78.5354 72.5151C77.6746 72.3181 77.4776 72.2521 76.882 72.2613C74.2091 72.2759 72.2061 74.5311 71.6549 78.1475C71.4028 79.7994 71.8297 81.4077 72.8247 82.5605C74.0497 83.9787 76.4336 84.4302 78.3062 84.4302C80.3529 84.4302 82.2816 82.8112 83.1623 80.5721L108.412 85.2289C108.144 87.7892 109.64 90.1394 111.939 90.5043C112.615 90.745 113.502 90.8791 114.628 90.9159C116.99 91.0041 119.507 88.6347 119.799 85.373C120.073 82.3076 118.544 80.218 114.849 79.6254L114.851 79.6247ZM116.957 84.9407C116.606 88.8692 112.488 91.3644 110.138 88.6439C109.399 87.7884 109.053 86.6079 109.171 85.3684L109.969 85.5156C110.075 87.0625 111.217 88.2077 112.573 88.2077C115.363 88.2077 116.805 84.0898 115.013 82.1412C113.811 80.8327 111.456 80.9538 110.421 83.2604L109.717 83.1309C110.458 81.262 111.781 80.1582 113.407 80.1536C115.518 80.1482 117.229 81.8837 116.956 84.9407H116.957ZM112.151 85.918C112.774 86.0338 113.375 85.6206 113.49 84.9959C113.605 84.3719 113.193 83.7717 112.568 83.6567L111.206 83.4053C112.029 81.8132 113.617 81.7534 114.45 82.6602C115.807 84.1366 114.668 87.4304 112.582 87.4412C111.736 87.458 110.911 86.7451 110.754 85.6605L112.15 85.918H112.151Z" fill="black"/>
<path d="M73.3041 77.9045C72.9937 79.9413 74.3581 81.5602 76.0031 81.5602C78.9366 81.5602 80.4589 77.2239 78.5724 75.172C77.0876 73.5576 73.8982 74.0122 73.3041 77.9045ZM78.6146 77.9C78.4835 79.371 77.3521 80.7929 76.0039 80.7929C74.8525 80.7929 73.8177 79.6186 74.0622 78.0195C74.2884 76.5356 75.0825 75.0685 76.5558 75.0685C77.7484 75.0685 78.7802 76.0474 78.6146 77.9Z" fill="black"/>
<path d="M140.293 60.5907C138.851 60.2817 138.763 60.2066 138.074 60.2081C136.083 60.2135 134.475 61.5059 133.591 63.6906L108.254 58.6406C108.527 55.4402 106.902 53.2977 103.672 52.6063C102.18 52.2851 102.045 52.1946 101.327 52.2015C98.5884 52.2161 96.5356 54.5288 95.9699 58.2366C95.7123 59.9291 96.1485 61.578 97.1688 62.7592C98.4282 64.2164 100.883 64.6756 102.79 64.6756C104.84 64.6756 106.774 63.0904 107.703 60.875L132.998 65.8983C132.742 67.3378 133.1 69.0166 134.131 70.2101C135.331 71.5999 137.496 71.9655 139.331 72.0245C141.757 72.1142 144.331 69.6796 144.629 66.3421C144.902 63.2912 143.362 61.2484 140.29 60.5899L140.293 60.5907ZM105.226 58.2113C104.841 62.5124 100.326 65.2413 97.7514 62.2587C96.8775 61.2476 96.5057 59.8233 96.7296 58.3523C97.2339 55.0439 98.9978 52.975 101.333 52.9688C103.625 52.9627 105.529 54.8369 105.226 58.2113ZM141.733 65.9006C141.37 69.9587 137.127 72.5044 134.714 69.7088C133.895 68.7613 133.545 67.4275 133.753 66.0477L134.55 66.2064C134.53 67.9403 135.764 69.2442 137.221 69.2442C140.079 69.2442 141.553 65.0259 139.72 63.0329C138.519 61.7267 136.209 61.8141 135.11 63.9934L134.359 63.8439C135.134 62.0394 136.461 60.9793 138.079 60.9747C140.24 60.9686 142.015 62.7385 141.732 65.9006H141.733ZM137.531 66.7974C138.067 66.7974 138.548 66.4187 138.657 65.8714C138.781 65.249 138.376 64.6434 137.754 64.5192L135.9 64.1497C137.081 62.1 140.006 62.7301 139.741 65.6828C139.606 67.1907 138.456 68.4938 137.23 68.4769C136.087 68.4608 135.37 67.4758 135.321 66.3582L137.531 66.7974Z" fill="black"/>
<path d="M103.055 55.1869C101.515 53.5127 98.2649 54.0401 97.6632 57.9879C97.3443 60.0828 98.7471 61.7294 100.425 61.7294C103.423 61.7294 104.989 57.2911 103.055 55.1869ZM103.116 57.9825C102.896 60.4508 100.388 61.9011 98.987 60.2783C98.5026 59.7172 98.2964 58.9246 98.4221 58.1028C99.0859 53.7427 103.441 54.3613 103.116 57.9825Z" fill="black"/>
<path d="M149.836 58.7432C148.431 54.997 145.599 50.0267 142.242 48.3487C137.097 45.7762 115.385 40.9776 103.982 40.6656C102.446 40.6235 101.98 40.5368 100.233 41.6039C88.3005 48.8968 77.3726 57.7413 67.7524 67.8912C62.8841 73.0271 61.7097 76.0373 64.8671 85.4727C64.9308 85.6628 65.3608 85.9732 65.6437 85.7693C78.3009 88.3925 107.268 92.4299 107.697 92.4299C107.787 92.4299 107.874 92.3985 107.943 92.3402C108.37 91.9822 109.736 90.8324 110.94 89.7707C110.707 89.6481 110.487 89.4986 110.284 89.3261C109.473 90.0375 108.514 90.8592 107.582 91.6434C105.257 91.3276 79.3449 87.7708 66.3841 85.1385C70.1318 81.9956 71.3368 81.1332 71.1061 80.6404C70.9214 80.244 70.6607 79.3349 70.5902 78.7117C70.2361 75.6096 71.3384 73.0393 73.6158 71.6588C74.6368 71.0402 75.6977 70.965 76.6865 71.4403C77.9436 72.0459 78.9555 73.5031 79.1471 74.9856C79.1862 75.2891 79.5457 75.4233 79.7749 75.2286C84.388 71.3146 95.1481 62.1367 95.4325 61.4575C95.8319 60.5016 93.1535 55.4593 97.8831 51.7108C99.3542 50.5449 100.706 50.6614 101.58 50.965C102.984 51.451 104.2 52.7771 104.536 54.1899C104.6 54.4581 104.92 54.5754 105.142 54.4045L109.376 51.1459C118.979 51.5338 142.274 56.9832 148.668 59.0138L145.293 61.6116C144.768 60.2494 143.552 59.0414 142.174 58.5638C139.905 57.7781 137.819 59.0666 136.393 60.9761C136.809 60.7753 137.256 60.6503 137.731 60.6082C138.924 59.4323 140.293 58.7225 141.923 59.2882C143.251 59.7481 144.4 61.0022 144.719 62.3383C144.782 62.6058 145.102 62.7246 145.326 62.5537C149.794 59.1142 149.545 59.3181 149.598 59.2414C149.79 59.1763 149.917 58.9578 149.835 58.7424L149.836 58.7432ZM105.113 53.4616C104.568 52.0236 103.287 50.7442 101.832 50.2406C100.34 49.7232 98.7677 50.0329 97.4086 51.1099C93.4057 54.2826 94.2075 58.3745 94.5924 60.3407C94.6606 60.6871 94.7372 61.0796 94.7441 61.1271C94.3425 61.7227 86.9951 68.0928 79.7772 74.2229C79.3802 72.7266 78.3292 71.3805 77.02 70.7504C72.9504 68.7903 67.9908 74.7871 70.3196 80.7461C69.6428 81.4943 66.782 83.7893 65.4842 84.8962C62.5529 76.0557 63.6874 73.2961 68.3097 68.4178C77.8839 58.317 88.7589 49.5154 100.634 42.2577C102.675 41.0113 103.51 41.157 104.823 42.6464C106.81 44.8993 108.214 47.629 108.892 50.5533L105.114 53.4616H105.113ZM109.639 50.3885C108.934 47.3377 107.47 44.4899 105.398 42.1397C105.192 41.9067 104.967 41.6675 104.719 41.4513C116.737 41.9159 137.386 46.7773 141.899 49.034C144.843 50.5058 147.393 54.7625 148.824 58.2618C142.817 56.4021 119.697 50.8569 109.639 50.3885Z" fill="black"/>
</svg>
