<svg width="154" height="154" viewBox="0 0 154 154" fill="none" xmlns="http://www.w3.org/2000/svg">
<path d="M114.048 54.0678C114.265 54.0946 114.449 53.949 114.478 53.7413L114.884 50.8284C114.572 50.9372 114.296 51.0361 114.07 51.1227L113.771 53.2606C111.589 53.0061 109.355 53.0284 107.184 53.3189C107.252 53.568 107.32 53.8164 107.388 54.0655C109.587 53.7796 111.847 53.7781 114.048 54.0678Z" fill="black"/>
<path d="M122.018 48.1514C121.864 48.2618 121.633 48.3859 121.344 48.5193C122.791 51.7442 123.656 54.9215 122.94 58.0621C122.796 58.5673 122.642 59.0509 122.374 59.3898C121.995 59.7677 121.533 60.0758 120.994 60.3065C117.553 61.8634 113.896 63.027 110.125 63.7645C110.083 63.7729 110.045 63.7867 110.011 63.8043C110.075 64.0442 110.138 64.2842 110.201 64.5241C110.592 64.5195 116.069 63.3758 121.303 61.0087C121.925 60.7419 122.468 60.3794 122.944 59.9003C123.329 59.4189 123.511 58.8555 123.682 58.253C124.455 54.8648 123.535 51.5096 122.018 48.1514Z" fill="black"/>
<path d="M122.453 47.8158C120.742 45.5268 120.972 46.0404 120.776 45.464C120.726 45.2616 120.767 45.0401 120.919 44.8048C121.443 43.6695 121.779 42.5488 121.948 41.3584C122.212 38.2837 120.087 35.4337 117.003 34.7292C115.365 34.3643 112.432 34.8381 110.678 36.122C108.786 37.508 108.803 39.4604 109.988 40.0414C107.535 41.9486 108.693 47.237 113.032 48.0404C112.97 49.1818 112.978 50.3347 113.053 51.473C113.077 51.8264 113.526 51.959 113.739 51.6815C114.625 51.1702 121.457 49.2783 122.419 48.3163C122.554 48.1814 122.568 47.9683 122.453 47.8158ZM113.784 50.8214C113.738 49.7958 113.749 48.7609 113.817 47.7391C113.83 47.5352 113.682 47.3566 113.479 47.3328C108.657 46.7656 108.479 40.2645 111.639 40.2645C113.422 40.2645 113.727 41.4051 113.047 41.9218C112.829 42.0881 112.655 42.1027 112.356 42.1027C111.879 42.1027 111.835 42.8071 112.309 42.8662C112.72 42.9183 113.344 42.7527 113.748 42.5434C115.668 41.1046 113.412 39.0027 110.908 39.3845C110.412 39.5501 109.921 39.222 109.917 38.6202C110.135 36.1535 114.704 35.0006 116.835 35.4751C119.545 36.0952 121.415 38.5949 121.186 41.2702C121.03 42.3648 120.715 43.415 120.251 44.4307C120.01 44.794 119.93 45.2379 120.04 45.6763C120.308 46.4812 120.145 45.9914 121.606 47.9606C120.228 48.7418 115.242 50.235 113.783 50.8199L113.784 50.8214Z" fill="black"/>
<path d="M136.399 113.949C131.844 110.51 126.523 108.476 121.013 108.065C120.913 108.057 120.82 108.089 120.747 108.146C120.796 108.37 120.845 108.595 120.894 108.819C120.914 108.824 120.934 108.828 120.956 108.829C126.227 109.223 131.323 111.145 135.711 114.392L134.775 116.998C129.275 115.028 123.402 114.645 117.781 115.842L116.238 117.007C120.114 115.944 126.949 114.902 134.872 117.85C135.071 117.924 135.294 117.822 135.367 117.62L136.529 114.385C136.586 114.227 136.533 114.05 136.399 113.949Z" fill="black"/>
<path d="M149.358 108.003C147.592 105.033 144.404 107.496 142.108 110.098C141.347 110.936 140.106 112.703 138.97 112.633C137.461 112.382 135.549 110.972 134.245 109.969C134.059 109.826 133.779 109.883 133.669 110.102C132.232 112.975 131.303 115.179 129.941 118.71C129.671 119.103 129.914 119.809 130.538 119.863C137.777 122.289 140.034 125.605 143.831 125.605C146.502 125.605 147.936 123.267 147.498 121.073C147.327 120.134 146.569 119.497 146.892 118.721C147.118 118.193 147.504 117.731 147.929 117.218C149.247 115.395 149.636 112.475 149.733 111.362C149.986 110.352 149.865 109.206 149.359 108.004L149.358 108.003Z" fill="black"/>
<path d="M74.7204 123.428C69.5753 107.712 64.9331 91.6678 60.8321 75.4439C60.56 75.4194 60.2894 75.3895 60.0195 75.355C64.142 91.6892 68.8119 107.841 73.9899 123.659C74.5641 125.544 76.37 126.842 78.3424 126.866C78.2657 126.624 78.1845 126.365 78.0963 126.086C76.5663 125.956 75.1673 124.893 74.7204 123.427V123.428Z" fill="black"/>
<path d="M121.443 109.532C115.684 81.5455 108.227 52.9764 99.2831 24.624C98.6584 22.4807 96.394 21.0871 94.125 21.4489C82.7586 23.2672 70.1933 26.3832 56.6315 31.3413C54.6285 32.0925 51.2749 36.3123 51.7448 38.661C53.4427 47.1989 55.2947 55.7175 57.2946 64.1971C57.5621 64.2148 57.8289 64.2339 58.0964 64.2561C56.0766 55.7076 54.2077 47.1192 52.4968 38.5116C52.2438 37.246 53.5378 35.0008 54.9781 33.4953C54.5841 34.3553 54.4499 35.3457 54.6485 36.3376C60.2121 64.644 67.6967 93.2438 76.8938 121.336C77.5277 123.418 79.6656 124.784 81.8687 124.508C94.1871 123.05 106.358 119.923 118.057 115.212C117.276 115.721 116.384 116.184 115.526 116.556C106.572 120.213 97.3346 122.935 87.9627 124.685C87.9735 124.94 87.9804 125.196 87.9842 125.451C98.466 123.496 108.439 120.449 115.828 117.261C119.31 115.759 122.346 113.439 121.443 109.532ZM118.43 114.234C106.592 119.069 94.2607 122.269 81.7767 123.748C79.9653 123.97 78.1463 122.817 77.625 121.105C68.4356 93.0353 60.958 64.4662 55.4005 36.1889C55.0218 34.294 56.1003 32.4459 57.8971 31.8112C69.7641 27.6197 81.917 24.1786 94.2469 22.2063C96.1303 21.9035 98.0268 23.0533 98.5496 24.847C107.489 53.1818 114.938 81.7257 120.694 109.695C121.14 111.626 120.23 113.449 118.43 114.234Z" fill="black"/>
<path d="M78.6375 119.183C69.987 92.4007 62.8098 64.946 57.3037 37.584C56.8514 35.5051 58.0518 33.3066 60.0372 32.5846C70.7152 28.5801 81.8225 25.6703 93.0487 23.9371C95.1076 23.6673 97.142 24.9942 97.7867 27.0209C106.233 54.0334 113.411 81.4575 119.12 108.534C119.505 110.745 118.336 112.841 116.571 113.612C105.957 118.251 94.6952 121.028 83.2759 122.269C81.1648 122.451 79.2707 121.173 78.6375 119.183ZM93.5899 24.6684C92.0698 24.6684 76.6069 27.1903 60.3039 33.3043C58.6674 33.8992 57.6816 35.7098 58.0549 37.4276C63.5557 64.7674 70.726 92.193 79.368 118.949C79.8954 120.606 81.4684 121.657 83.2016 121.506C94.5365 120.274 105.663 117.381 116.265 112.91C117.808 112.171 118.673 110.432 118.368 108.678C112.666 81.6399 105.496 54.2396 97.057 27.2517C96.5694 25.7186 95.1245 24.6684 93.5899 24.6684Z" fill="black"/>
<path d="M79.5451 137.872C76.8469 137.872 74.6132 137.418 70.5826 137.867C70.3864 137.887 70.2001 137.754 70.1641 137.557C69.9004 136.151 69.7402 134.898 69.6605 133.61C69.6497 133.446 69.7471 133.291 69.9004 133.23C72.7765 132.079 75.8534 132.117 78.4957 130.756C78.6728 130.693 78.846 130.542 78.9817 130.353C79.0078 130.196 79.0323 130.353 77.559 125.653C77.4954 125.45 77.6081 125.236 77.8097 125.172C78.0128 125.109 78.2267 125.221 78.2903 125.423C79.7889 130.2 79.8556 130.168 79.6984 130.637C79.6379 130.822 79.2224 131.317 78.7924 131.46C76.1739 132.818 73.2058 132.809 70.4439 133.841C70.5198 134.894 70.6516 135.933 70.8532 137.067C72.8762 136.864 74.9052 136.85 77.2064 137.02C80.0043 137.189 82.8965 137.239 84.7469 135.851C86.116 134.825 86.5108 133.164 86.9354 131.408C87.4812 129.151 87.669 126.926 87.5809 124.723C87.5609 124.225 88.3252 124.172 88.3467 124.692C88.4379 126.973 88.2416 129.262 87.6805 131.587C87.2436 133.398 86.7967 135.271 85.2061 136.464C83.7044 137.591 81.6761 137.872 79.5451 137.872Z" fill="black"/>
<path d="M73.9616 140.449C73.6688 139.543 73.4956 132.544 73.4956 131.347C73.4956 131.115 73.2917 130.937 73.0617 130.967C70.6823 131.283 68.2531 131.065 65.8538 130.32C63.719 129.581 61.1779 127.151 58.6406 128.78C57.4785 129.495 56.7886 130.871 56.8837 132.294C56.9642 133.179 57.5536 134.03 57.2194 134.669C56.8039 135.167 56.4122 135.638 55.8994 136.071C54.377 137.796 53.5921 140.591 53.3345 141.679C52.5373 144.071 53.2839 146.648 55.523 146.648C57.4318 146.648 59.7743 144.777 60.7816 143.887C61.818 142.776 63.1265 141.94 64.75 141.339C65.8362 141.044 66.3843 141.104 73.6933 141.104C74.0375 141.104 74.2046 140.686 73.9624 140.448L73.9616 140.449Z" fill="black"/>
<path d="M44.1575 75.913C43.7596 72.4275 43.9068 69.1459 45.5633 66.3311C45.7626 65.9992 46.1137 65.6228 46.5261 65.2909C46.9516 65.0073 47.4521 64.8578 48.0224 64.8547C51.7011 64.3748 55.5507 64.3472 59.464 64.7727C59.674 64.7941 59.8633 64.6439 59.8863 64.4331C59.9093 64.2223 59.7575 64.0337 59.5467 64.0107C55.5707 63.5792 51.6605 63.6075 47.9726 64.0912C47.2996 64.0912 46.6518 64.2859 46.0731 64.673C45.7787 64.9084 45.236 65.3859 44.9033 65.9394C43.1188 68.9741 42.9762 72.4505 43.4063 76.0954C43.5864 76.0256 43.8432 75.9659 44.1567 75.9137L44.1575 75.913Z" fill="black"/>
<path d="M61.765 75.1257C58.6597 74.9663 55.6104 74.1699 52.7029 72.7579C52.6109 72.7126 52.5043 72.7073 52.4085 72.741C52.2407 72.8 52.2598 72.7502 50.9482 75.5481C51.2756 75.5427 51.5684 75.5381 51.8129 75.5328C52.085 74.9548 52.3855 74.3178 52.7182 73.6133C55.6127 74.9671 58.6413 75.7328 61.7259 75.8908C61.9206 75.903 62.1176 75.739 62.1284 75.5274C62.1391 75.3158 61.9766 75.1365 61.765 75.1257Z" fill="black"/>
<path d="M51.9363 78.8741C52.3103 77.8224 52.6813 76.7347 52.9113 75.5844C52.9611 75.3329 52.7557 75.1045 52.502 75.1267C51.6595 75.2019 44.2493 75.103 43.042 75.8458C42.9032 75.9309 42.8335 76.0957 42.8687 76.2551C43.0427 77.0359 43.3747 77.6982 43.6261 78.4502C43.6368 78.4824 43.6521 78.5138 43.6705 78.5422C43.82 78.766 43.8821 79.2213 43.4697 79.6345C42.6809 80.4233 41.9673 81.4336 41.3931 82.5857C40.2203 85.5638 41.3364 88.8684 44.0561 90.4475C46.1204 91.5659 48.6846 91.3466 50.952 90.7349C51.4694 90.6314 52.0221 90.3363 52.4207 89.9354C53.0324 89.1704 52.6737 88.1478 52.2429 88.0045C52.0221 87.9309 51.845 87.8458 51.5967 87.7615C51.4625 87.6519 51.3376 87.6833 51.1245 87.382C51.3621 87.5139 51.622 87.5913 51.9209 87.5867C52.7197 87.4871 53.4824 86.9888 53.8519 86.3411C55.5988 83.721 54.6575 80.2309 51.9378 78.8733L51.9363 78.8741ZM53.198 85.9386C52.9343 86.4001 52.3824 86.7573 51.8719 86.824C51.4564 86.824 51.0057 86.4032 51.1521 86.0145C51.3108 85.5906 50.7259 85.2886 50.4744 85.6673C49.8574 86.5925 50.1556 87.845 51.1053 88.3717C51.2172 88.436 51.2617 88.4767 51.3736 88.4958C51.5622 88.561 51.7071 88.6277 51.8987 88.6967C52.039 88.8975 52.0129 89.2187 51.8512 89.4249C51.5898 89.6855 51.1682 89.9101 50.778 89.9891C48.1372 90.7004 45.9993 90.6276 44.4325 89.779C42.0524 88.397 41.075 85.4902 42.0938 82.8977C43.4482 80.1895 44.5406 80.1696 44.5406 79.0757C44.5406 78.8143 44.5406 78.4924 44.3397 78.1627C44.1305 77.5464 43.863 76.9662 43.6981 76.3969C45.14 75.9722 50.5749 75.947 52.0566 75.9117C51.8082 76.9577 51.448 77.9673 51.0984 78.9477C51.0294 79.1401 51.1237 79.3524 51.3123 79.4306C53.8158 80.4662 54.7771 83.56 53.2003 85.9386H53.198Z" fill="black"/>
<path d="M100.717 26.6162C100.194 26.4069 99.631 26.3395 99.2201 26.4238C87.7586 27.2425 76.8023 30.4122 68.5933 33.2461C66.457 33.9835 62.7032 35.0237 57.6738 37.6645C55.8701 38.5667 53.0699 40.3949 52.1026 41.6896C47.3086 42.1634 43.4934 36.1391 41.2037 32.4458C38.3637 27.8657 37.9865 27.809 38.064 27.809C33.9223 22.7375 28.0888 19.4758 21.6383 18.6272C21.2114 18.5759 21.032 19.1577 21.4168 19.3501C21.9488 19.6161 22.247 20.2048 22.1374 20.7107C21.8951 21.4374 21.5134 22.0031 21.0006 22.3718C19.4613 23.7493 17.5649 24.5189 15.5167 24.5979C15.0391 24.6163 15.023 25.3238 15.4998 25.3629C19.4567 25.6925 23.2895 26.3402 27.2165 27.3429C30.9504 28.3172 34.0794 30.6414 36.0242 33.8823C37.0092 35.6071 37.6868 37.6292 38.9624 39.1593C41.1424 41.8682 45.5394 43.6827 49.4917 43.767C41.2681 46.0919 35.0277 41.1032 27.3982 39.3754C18.924 37.446 10.0174 39.8377 3.57303 45.7731C3.26564 46.0567 3.57303 46.5588 3.9655 46.4147C5.3062 45.9195 6.63233 47.6358 6.77031 49.08C6.93511 50.7265 6.42536 52.544 6.95045 54.2963C7.09456 54.7762 7.83123 54.5715 7.68482 54.0763C7.26626 52.6804 10.6767 49.6142 11.4938 48.7266C13.2737 46.8692 15.6347 45.471 18.3468 44.854C25.3722 43.2565 30.6859 46.3181 34.7594 47.3368C41.1141 49.129 47.1345 48.3326 51.9163 45.1077C52.3302 45.0855 52.8499 44.9436 53.4808 44.5082C55.7483 42.9422 58.6167 42.1948 61.3954 41.4696C65.777 40.3275 75.9867 36.8267 97.5728 32.7425C98.4896 32.5692 101.027 32.7724 101.992 31.9031C103.086 30.9196 102.085 27.392 100.717 26.6162Z" fill="black"/>
<path d="M114.813 7.40027C114.392 6.87288 113.664 6.57699 113.079 6.67664C111.675 6.76403 110.351 7.3627 109.351 8.36078C107.855 9.79346 106.417 11.9728 104.959 15.0244C104.837 15.2789 105.023 15.5732 105.304 15.5732C106.04 15.5732 105.497 13.7366 110.111 11.6385C111.426 11.0337 116.286 9.88698 114.813 7.40027ZM109.792 10.9418C109.015 11.2951 108.084 11.7658 107.215 12.4097C108.1 10.9303 108.992 9.78426 109.884 8.91269C110.775 8.04112 111.92 7.51755 113.167 7.43783C113.519 7.3788 113.961 7.56277 114.182 7.83339C115.059 9.32969 111.066 10.3553 109.792 10.9418Z" fill="black"/>
<path d="M128.167 14.1242C126.355 12.9161 123.003 12.854 120.993 13.2381C118.402 13.7325 116.063 14.6102 113.83 15.8505C113.435 16.0697 113.683 16.6745 114.118 16.5549C119.725 15.0034 124.481 18.0405 126.945 18.0405C128.895 18.0405 130.859 15.9172 128.167 14.1242ZM128.056 16.9574C127.109 17.6381 125.55 17.0271 124.529 16.7251C121.855 15.934 119.371 15.1882 116.6 15.3591C118.038 14.7627 119.539 14.3105 121.137 13.99C123.238 13.6405 126.199 13.734 127.741 14.7612C128.37 15.1805 128.718 15.6289 128.721 16.0237C128.723 16.3372 128.498 16.6392 128.055 16.9566L128.056 16.9574Z" fill="black"/>
<path d="M76.5293 50.3723C69.8036 50.3723 72.7602 38.3865 77.834 38.2869C78.6726 38.1926 79.6177 38.5667 80.2018 39.2451C82.9706 42.2676 81.2919 50.3723 76.5293 50.3723ZM78.0754 39.0404C73.8885 39.0404 71.4179 48.1731 75.3848 49.4225C80.1321 50.9058 82.2646 42.8095 79.6246 39.7494C79.2482 39.3125 78.6465 39.0404 78.0754 39.0404Z" fill="black"/>
<path d="M87.8695 46.9242C84.1234 45.966 81.777 42.1057 83.212 38.6079C84.151 36.2784 85.8574 36.3834 86.791 36.6532C89.5866 37.4619 92.4543 41.586 91.9905 44.1317C91.3006 47.9997 87.786 46.9242 87.8695 46.9242ZM88.0581 46.1814C89.7001 46.5961 90.8967 45.9001 91.2362 43.996C91.8334 40.7159 85.7715 34.3037 83.9218 38.8969C82.6631 41.9654 84.7773 45.3528 88.0581 46.1814Z" fill="black"/>
<path d="M81.3455 42.2357C81.3018 40.8904 79.3525 39.5205 77.985 40.8881C77.1893 41.683 77.0981 43.0651 77.8033 44.0692C79.1678 45.6039 81.3954 43.7818 81.3455 42.2357Z" fill="black"/>
<path d="M89.9234 40.1356C89.8667 39.0088 88.066 37.3576 86.6303 38.7987C85.7587 39.5737 85.6238 40.9619 86.3497 41.9952C87.7211 43.5375 89.9954 41.5514 89.9234 40.1356Z" fill="black"/>
<path d="M90.5381 49.8258C90.3464 49.7346 90.118 49.8158 90.0268 50.0067C87.0763 56.2035 75.4133 55.8915 71.175 49.3122C71.2892 49.3206 71.4035 49.3467 71.5146 49.3904C71.7101 49.4678 71.9339 49.3712 72.0113 49.1742C72.3425 48.331 69.8152 48.1118 69.2847 49.8656C69.2104 50.1117 69.3943 50.3601 69.6519 50.3601C69.8167 50.3601 69.9685 50.2527 70.0191 50.0879C70.0858 49.8679 70.2237 49.6748 70.41 49.536C74.8414 56.7715 87.4619 57.1762 90.719 50.3371C90.8102 50.1454 90.729 49.917 90.5381 49.8258Z" fill="black"/>
<path d="M92.6099 103.604C83.8896 103.604 76.7944 96.36 76.7944 87.4565C76.7944 78.5531 83.8896 71.3091 92.6099 71.3091C101.33 71.3091 108.425 78.5531 108.425 87.4565C108.425 96.36 101.331 103.604 92.6099 103.604ZM92.6099 72.0756C84.312 72.0756 77.561 78.9754 77.561 87.4565C77.561 95.9376 84.312 102.837 92.6099 102.837C100.908 102.837 107.659 95.9376 107.659 87.4565C107.659 78.9754 100.908 72.0756 92.6099 72.0756Z" fill="black"/>
<path d="M109.908 107.112C109.202 104.2 109.246 104.344 109.2 104.268C108.596 103.262 107.76 103.399 107.625 103.427C101.451 104.715 96.1728 106.054 91.493 107.503C90.8139 107.713 90.4574 108.319 90.5785 109.036L91.2362 111.747C91.3459 112.407 91.989 112.853 92.7686 112.723C97.6139 111.754 102.951 110.536 108.994 108.645C109.673 108.433 110.03 107.83 109.909 107.113L109.908 107.112ZM92.6291 111.968C92.3378 112.019 92.0411 111.906 91.9859 111.593L91.3282 108.881C91.2753 108.566 91.4179 108.328 91.7192 108.235C95.4423 107.08 99.5855 106.099 104.227 105.001L105.25 108.914C100.642 110.192 96.484 111.197 92.6291 111.968ZM108.764 107.913C107.826 108.207 106.895 108.455 105.988 108.709L104.973 104.826C105.889 104.612 106.825 104.396 107.781 104.178C108.141 104.121 108.407 104.455 108.513 104.616L109.156 107.266C109.209 107.581 109.065 107.819 108.763 107.914L108.764 107.913Z" fill="black"/>
<path d="M86.6356 113.725C85.5096 113.725 84.5928 112.772 84.5928 111.6C84.5928 110.428 85.5088 109.474 86.6356 109.474C87.7625 109.474 88.6785 110.428 88.6785 111.6C88.6785 112.772 87.7625 113.725 86.6356 113.725ZM86.6356 110.241C85.9319 110.241 85.3593 110.85 85.3593 111.6C85.3593 112.349 85.9319 112.959 86.6356 112.959C87.3393 112.959 87.9119 112.349 87.9119 111.6C87.9119 110.85 87.3393 110.241 86.6356 110.241Z" fill="black"/>
<path d="M94.518 77.532C92.8884 77.532 91.563 78.8573 91.563 80.487C91.563 82.1167 92.8884 83.4421 94.518 83.4421C96.1477 83.4421 97.4731 82.1167 97.4731 80.487C97.4731 78.8573 96.1477 77.532 94.518 77.532Z" fill="black"/>
<path d="M88.7933 83.3907C87.1337 83.3907 85.5577 84.3037 84.8111 85.8797C84.4791 86.7926 85.1568 87.9785 86.2215 87.3729C87.0624 86.8946 87.2962 86.0752 88.4614 86.2116C89.3713 86.3182 89.9546 87.041 89.8718 87.954C89.8718 88.1195 89.789 88.2859 89.7062 88.535C88.2099 93.0239 85.6474 92.5962 84.6455 93.2646C84.2308 93.7621 84.3136 94.5095 84.8111 94.8414L84.8938 94.9242C85.4749 95.2561 86.0513 95.4064 86.719 95.2561C87.5446 95.0706 88.3786 94.8414 89.0424 94.3432C89.7062 93.9285 90.3701 93.2025 91.1995 93.1818C97.7964 93.017 96.4933 95.5214 98.0862 95.92C98.4181 96.0027 98.8328 95.8372 99.0819 95.588C99.7458 94.7586 98.9991 93.1818 98.4181 92.6008C97.5887 91.8542 95.3802 91.6127 95.68 90.2774C95.7727 89.865 95.8455 89.5308 96.0119 89.1988C96.7646 87.6926 98.5975 89.2617 100.41 86.5435C100.741 86.046 100.824 85.5478 100.824 84.9667C100.741 84.3029 100.086 83.324 99.331 83.7218C99.003 83.8951 98.8336 84.3029 98.5844 84.6348C96.3346 87.2066 92.6115 83.1592 88.794 83.3899L88.7933 83.3907Z" fill="black"/>
<path d="M75.1027 67.1289C74.7707 66.4651 73.7029 66.4781 73.1947 66.8798C72.8697 67.1374 72.6972 67.5436 72.6137 67.9583C72.2818 67.7092 71.8671 67.4609 71.4523 67.3773C70.7057 67.2945 70.0419 67.792 69.9591 68.4558C69.8763 68.8705 70.0473 69.1986 70.291 69.5344C70.8851 70.3546 72.2825 70.7792 73.1947 71.1112C73.6271 71.3273 74.1713 71.0981 74.4396 70.6965C74.9133 69.276 75.5503 68.173 75.1027 67.1289Z" fill="black"/>
<path d="M90.5356 62.7835C90.6184 63.0326 90.7847 63.1982 90.8675 63.4473C91.1166 63.7793 91.6141 63.9448 92.0288 63.9448C92.3607 63.9448 92.6926 63.7793 93.1073 63.7793C93.854 63.7793 94.435 64.2767 94.6841 64.9406C94.9034 65.1598 94.494 65.34 94.1943 65.4189C92.698 65.8121 91.2025 66.1977 89.7062 66.4338C89.457 65.3553 89.2915 64.2767 89.1251 63.1982C89.0423 63.1154 89.1251 62.9491 89.2079 62.9491C89.3252 62.9491 89.1228 62.9874 90.3692 62.7L90.5348 62.7827L90.5356 62.7835Z" fill="black"/>
<path d="M90.3008 67.8995C89.8547 67.8995 89.7719 67.2602 90.2027 67.146L91.0359 66.9237C91.2414 66.8692 91.4506 66.9904 91.5051 67.195C91.5595 67.3997 91.4384 67.6097 91.2337 67.6642C90.4526 67.8719 90.379 67.8995 90.3008 67.8995Z" fill="black"/>
<path d="M92.8335 67.2685C92.382 67.2685 92.3053 66.6177 92.7446 66.5127L94.6104 66.065C94.815 66.0152 95.0228 66.1424 95.0726 66.3479C95.1217 66.5541 94.9952 66.7603 94.789 66.8101C92.8665 67.2708 92.9102 67.2685 92.8335 67.2685Z" fill="black"/>
<path d="M77.9233 67.5951C77.4718 67.5951 77.3952 66.9443 77.8344 66.8393L81.983 65.8436C82.1884 65.7945 82.3962 65.921 82.4452 66.1264C82.4943 66.3319 82.3678 66.5388 82.1616 66.5887C78.1334 67.5537 78.0015 67.5951 77.9233 67.5951Z" fill="black"/>
<path d="M78.3382 69.9177C77.8859 69.9177 77.81 69.2669 78.2492 69.1619L83.8083 67.8343C84.0145 67.786 84.2214 67.9124 84.2705 68.1179C84.3195 68.3241 84.1923 68.5303 83.9869 68.5801C77.9878 70.0136 78.4163 69.9177 78.3382 69.9177Z" fill="black"/>
<path d="M97.2552 62.6172C96.8021 62.6172 96.727 61.9648 97.1678 61.8606L102.81 60.5329C103.016 60.4846 103.222 60.6119 103.271 60.8181C103.319 61.0243 103.192 61.2305 102.986 61.2788C96.9524 62.7015 97.3333 62.6164 97.2559 62.6164L97.2552 62.6172Z" fill="black"/>
<path d="M97.7535 64.9406C97.3112 64.9406 97.223 64.3105 97.6485 64.1886L101.133 63.1928C101.336 63.1353 101.549 63.2526 101.607 63.4558C101.665 63.6589 101.547 63.8712 101.343 63.9295C97.5879 65.0027 97.8302 64.9398 97.7527 64.9398L97.7535 64.9406Z" fill="black"/>
<path d="M64.2521 66.1279C63.8029 66.1279 63.7232 65.4825 64.1594 65.3729L105.428 54.9762C105.634 54.9263 105.842 55.049 105.893 55.2552C105.944 55.4606 105.819 55.6691 105.614 55.7205L64.2514 66.1287L64.2521 66.1279Z" fill="black"/>
</svg>
