<svg width="154" height="154" viewBox="0 0 154 154" fill="none" xmlns="http://www.w3.org/2000/svg">
<path d="M139.163 39.2233C139.079 38.6484 139.018 38.4567 138.297 38.1271C135.285 36.8777 124.001 36.7014 120.744 36.6631C120.755 36.0369 120.61 35.4177 120.322 34.8617C119.103 33.6276 111.308 33.7732 109.652 33.436C109.499 33.436 109.514 33.436 109.476 33.298C109.085 32.3398 108.985 29.1281 108.349 28.0089C107.161 25.9086 102.654 24.7052 99.871 26.6905C98.4356 26.2578 96.9016 26.2793 95.4788 26.7518C94.7118 27.064 94.0221 27.5399 93.4581 28.1463C92.8941 28.7527 92.4693 29.4749 92.2134 30.2625C91.7802 31.7112 91.5455 33.212 91.5159 34.7237C90.0978 35.1913 82.7084 35.7432 81.8576 36.847C81.6476 37.1691 81.509 37.5324 81.4513 37.9125C76.2389 38.3034 76.7985 38.3724 76.7371 38.1884C74.7902 32.1252 67.7764 26.0619 67.7764 26.0619C67.6154 25.9163 67.4545 26.0619 67.1019 26.2152C66.7009 25.076 66.1873 23.9795 65.5688 22.9422C65.5835 22.6864 65.4968 22.4351 65.3275 22.2428C65.1582 22.0505 64.9199 21.9327 64.6643 21.915C65.3542 21.0948 64.2044 19.784 62.6253 20.8649C62.357 20.4739 62.0734 20.0983 61.7821 19.6844C61.9556 19.5737 62.1129 19.4395 62.2497 19.2858C62.4107 18.9945 61.4832 19.2858 66.9945 18.251C68.014 18.044 72.5136 17.1319 73.1268 16.9326C73.1963 16.9241 73.2608 16.8921 73.3096 16.8419C73.3584 16.7917 73.3886 16.7263 73.3951 16.6566C74.4682 16.0664 73.2724 12.8776 72.8125 11.7431C74.7212 9.8958 74.3456 7.91049 72.7282 7.33559C71.9828 7.10743 71.192 7.07053 70.4286 7.22828C69.7035 5.97584 68.7181 4.89364 67.5388 4.05484C66.6726 3.57959 66.0057 3.87087 65.8064 4.32313C65.6071 4.77538 58.2331 13.5215 58.1411 13.5751C56.746 13.9737 54.6841 14.8476 54.0018 16.1277C52.4228 19.1248 55.4889 22.8042 58.4784 21.6391L59.0226 21.4627C59.3446 21.9303 59.7432 22.4592 60.0958 22.9268C60.0287 23.0495 59.9723 23.1778 59.9271 23.3101C59.8428 23.586 59.2832 24.3219 59.6512 25.0578C60.0191 25.7936 62.564 27.5873 63.3305 28.0702L63.1696 28.1546C63.1163 28.1767 63.0738 28.2187 63.0509 28.2716C63.028 28.3245 63.0266 28.3842 63.0469 28.4382C63.4915 29.7413 65.8907 35.9808 64.7256 35.7355C63.0239 35.3676 58.8157 33.7196 53.6952 32.0485C50.8821 31.1287 48.9964 30.2395 46.4898 29.657C46.3059 28.4535 46.0989 28.0702 45.9149 27.0967C46.7424 26.744 47.4429 26.1478 47.9233 25.3874C48.1992 24.9275 47.8773 25.1114 48.4598 25.2264C48.6489 25.2827 48.8525 25.264 49.0281 25.174C49.2037 25.0841 49.3379 24.9299 49.4027 24.7435C50.0925 24.9811 50.7518 24.5902 50.5984 23.7853C51.089 23.7853 51.9935 23.7853 52.1315 22.9345C52.3385 21.9073 51.066 21.5471 50.7441 21.1638C50.1643 20.4435 49.746 19.607 49.5176 18.7109C48.7511 16.258 48.1532 12.1187 46.8041 10.5474C46.3818 10.0803 45.8625 9.71105 45.2826 9.46556C44.7028 9.22008 44.0762 9.10423 43.4469 9.12614C42.8176 9.14804 42.2006 9.30716 41.6392 9.59236C41.0778 9.87757 40.5854 10.282 40.1966 10.7773C39.7088 10.501 39.1954 10.2725 38.6636 10.0951C38.0118 9.98877 37.3452 10.0183 36.7054 10.1819C36.0656 10.3454 35.4666 10.6395 34.9459 11.0456C32.4317 13.1842 33.7271 16.8636 32.0331 20.8112C31.5042 22.0376 28.8673 24.6822 30.799 25.6863C30.9983 25.7478 31.2106 25.7539 31.4132 25.7039C31.6157 25.654 31.8009 25.5499 31.9488 25.4027C31.9676 25.601 32.0249 25.7936 32.1174 25.9699C32.3473 26.2451 32.6449 26.4556 32.981 26.5806C33.317 26.7057 33.6799 26.7409 34.0337 26.6828C34.2531 26.6103 34.4508 26.4837 34.6086 26.3149C34.6601 26.4741 34.7526 26.6168 34.8769 26.7288C35.5055 27.2271 36.272 27.1811 36.9312 26.1846C37.0337 26.3293 37.1756 26.4416 37.34 26.5082C37.5043 26.5748 37.6844 26.5928 37.8587 26.5602V29.0974C37.4371 29.1511 37.0155 29.2047 36.5939 29.2814C36.5585 29.2743 36.522 29.2743 36.4866 29.2814C31.8612 29.9604 27.5262 31.947 23.9922 35.0073C20.4531 38.0174 17.5523 41.7053 15.4607 45.8538C13.6133 49.9164 13.8126 51.4188 14.4489 54.2856C14.8405 55.9343 15.5918 57.476 16.6488 58.8005C17.8139 60.3795 19.6153 62.2805 22.2215 65.0937C22.8424 65.7605 23.6242 66.6267 24.2835 67.2859C23.9308 68.8957 21.4396 78.6229 21.5853 80.5929C21.5853 80.7922 21.7692 81.0298 22.1678 81.1985C23.4734 81.5884 24.8229 81.8124 26.1844 81.8654C25.7322 98.1388 26.8897 119.487 28.3231 135.331C28.2645 135.351 28.2119 135.385 28.1698 135.431C27.9244 136.106 27.9244 136.847 28.1698 137.523C28.2694 137.73 28.461 137.715 28.9363 137.753C28.9363 138.734 29.0206 139.869 29.0819 140.858C28.9101 140.991 28.7556 141.146 28.622 141.317C28.5684 141.44 28.5607 141.402 28.9056 143.41C28.6689 144.061 28.4869 144.73 28.3614 145.411C28.2899 145.919 28.2464 146.431 28.2311 146.944C28.2294 147.219 28.3153 147.487 28.4764 147.71C29.4469 148.469 30.5342 149.064 31.6958 149.473C32.993 149.267 34.2182 148.74 35.2602 147.94C35.3895 147.824 35.4886 147.679 35.5487 147.516C35.6089 147.353 35.6282 147.177 35.6051 147.005C35.5586 145.751 35.3446 144.508 34.9689 143.31C35.1221 142.654 35.2043 141.984 35.2142 141.31C35.1682 141.164 35.0839 141.095 34.6699 140.827C34.7696 139.876 34.8616 138.803 34.9306 137.86H35.8887C36.4943 137.822 36.3103 136.764 36.341 135.921C36.341 135.622 36.0497 135.515 35.7737 135.454L43.0405 88.6185C43.5694 91.5313 44.8188 98.8133 44.8111 101.787C44.8111 102.508 42.9638 126.27 42.5115 132.495C42.4387 132.511 42.3722 132.549 42.3199 132.602C42.0479 133.257 41.9916 133.982 42.1589 134.672C42.2433 134.902 42.4579 134.902 42.7798 134.955C42.6649 136.028 42.5575 137.178 42.4732 138.29C42.1666 138.29 42.0746 138.366 41.975 138.65C41.676 139.508 41.3694 142.552 41.906 143.395C42.2663 143.954 54.4158 146.277 57.6352 144.859C58.2791 144.568 58.2484 143.908 58.1411 143.211C57.9571 141.954 52.7754 140.229 51.2423 139.478C51.0967 139.401 51.1274 139.424 51.066 139.309C50.2995 137.914 50.0849 137.324 49.8626 137.217C49.641 137.153 49.4078 137.139 49.1804 137.178C49.1267 136.649 49.0731 136.136 49.0117 135.553C49.1395 135.575 49.271 135.557 49.3873 135.5C49.7093 135.27 49.6786 134.304 49.7553 133.66C49.7644 133.572 49.7397 133.484 49.6863 133.415C49.2724 132.809 48.9197 135.354 53.0513 120.92C52.9134 122.53 51.7789 135.408 52.1775 136.044C52.2925 136.205 52.5148 136.212 52.7907 136.235C57.8728 136.749 122.422 139.133 127.842 139.194C128.769 139.194 131.674 139.255 131.95 139.072C134.526 137.508 140.275 47.2795 139.163 39.2233ZM82.0185 36.9927C82.7851 35.9578 90.9486 35.4979 91.7381 35.0457C91.7816 35.0262 91.8188 34.9951 91.8458 34.9559C91.8729 34.9167 91.8886 34.8709 91.8914 34.8234C91.9287 33.3332 92.1712 31.8552 92.612 30.4312C92.857 29.7059 93.2587 29.0435 93.7887 28.4911C94.3186 27.9386 94.9637 27.5097 95.6781 27.2347C97.7554 26.4682 101.289 27.1427 102.309 28.9824C102.945 30.1092 102.96 34.0109 103.612 34.5551C104.263 35.0993 113.308 34.9154 114.343 35.9732C114.406 36.0989 114.45 36.2332 114.473 36.3718C114.709 38.0436 114.691 39.7415 114.42 41.4079C112.327 42.2434 86.656 43.3932 82.6394 42.9409C82.0722 42.8796 82.0262 42.9409 81.8729 42.3737C81.4973 41.1856 81.344 37.8972 82.0185 36.9927ZM62.2574 22.8655C62.311 22.4209 62.1117 22.6279 62.541 22.7199C62.4801 22.8274 62.4461 22.9481 62.4419 23.0716C62.4377 23.1951 62.4634 23.3178 62.5168 23.4292C62.5703 23.5407 62.6499 23.6375 62.7489 23.7115C62.8478 23.7855 62.9632 23.8345 63.0852 23.8543C63.013 23.9557 62.9693 24.0746 62.9585 24.1986C62.9477 24.3226 62.9703 24.4472 63.0239 24.5595C63.2079 24.9428 63.4685 24.9965 63.8594 25.0424C63.7073 25.2152 63.4932 25.321 63.2635 25.3367C63.0339 25.3525 62.8073 25.2771 62.633 25.1268C62.564 25.0578 62.2267 24.6439 61.7821 24.0919C62.0079 23.7125 62.1685 23.298 62.2574 22.8655ZM64.9939 22.5742C65.0474 22.6043 65.0943 22.6449 65.1317 22.6936C65.169 22.7424 65.196 22.7982 65.2111 22.8577C65.2262 22.9173 65.2289 22.9792 65.2193 23.0399C65.2096 23.1005 65.1877 23.1585 65.1549 23.2104C64.8238 23.1755 64.4891 23.1989 64.166 23.2794C63.8211 23.3561 63.2155 23.4097 63.0699 23.1798C62.8553 22.8118 64.4267 22.1833 64.9939 22.5742ZM63.3765 21.0948C64.212 20.7499 64.6873 21.3324 64.5416 21.6467C64.0054 21.9937 63.3789 22.175 62.7403 22.168C62.7055 22.1673 62.6712 22.1595 62.6395 22.145C62.6079 22.1305 62.5795 22.1096 62.5563 22.0836C62.3877 21.9227 62.5027 21.754 62.6483 21.6007C62.8584 21.3894 63.1051 21.218 63.3765 21.0948ZM62.0351 18.7416C61.0923 17.3695 58.8003 14.3187 58.4324 13.7285L65.7374 5.29662C65.9981 7.59621 68.5123 11.8121 69.7617 13.7285C69.8028 13.7803 69.8591 13.8178 69.9227 13.8358C70.6191 14.8783 71.4783 15.8022 72.4676 16.5723C71.8697 16.6489 64.1967 18.3123 62.0351 18.7416ZM72.5366 7.87216C72.7302 7.93951 72.9078 8.04617 73.0583 8.18545C73.2087 8.32472 73.3287 8.4936 73.4108 8.68148C73.4928 8.86935 73.5352 9.07217 73.5351 9.27718C73.535 9.4822 73.4926 9.68498 73.4104 9.87281C72.9965 11.0149 71.8773 11.8735 70.8655 12.594C70.5896 12.801 70.3213 12.9926 70.099 13.1382C69.0653 11.6675 68.1282 10.1312 67.2935 8.53904C68.8572 8.07146 71.1108 7.2896 72.5366 7.87216ZM58.3097 21.1178C55.8185 22.0913 53.2506 18.9255 54.4771 16.373C55.0213 15.2232 56.999 14.2727 58.2024 13.8434C58.5167 14.4183 61.1689 18.3966 61.6212 19.1095C60.5898 19.8917 59.4801 20.5648 58.3097 21.1178ZM59.4519 21.2021C60.1188 20.8265 60.9083 20.3206 61.5292 19.8837C61.7821 20.29 62.0427 20.7345 62.2957 21.1408C62.1614 21.2449 62.0547 21.3805 61.9852 21.5355C61.9157 21.6906 61.8854 21.8604 61.8971 22.03C61.6877 21.9199 61.4495 21.8771 61.2149 21.9073C60.9053 21.9699 60.6312 22.1481 60.4484 22.4056L59.4519 21.2021ZM62.0887 26.6292C60.41 25.1651 60.2567 25.2801 60.0958 24.8355C59.9348 24.3909 60.3947 23.7393 60.4944 23.4634C60.663 22.9728 61.1996 22.2293 61.6442 22.5436C61.9431 22.7505 61.5215 23.9463 61.4142 24.1916C61.3725 24.2562 61.3391 24.3257 61.3145 24.3986C61.5983 24.7951 61.9027 25.1763 62.2267 25.5407C62.4063 25.6987 62.6203 25.8124 62.8517 25.8729C63.0831 25.9334 63.3254 25.9389 63.5593 25.889C63.7932 25.8391 64.0121 25.7352 64.1987 25.5855C64.3852 25.4358 64.5342 25.2446 64.6336 25.0271L65.0016 24.9505C65.032 24.9432 65.0587 24.9253 65.077 24.9C65.0953 24.8747 65.1039 24.8436 65.1012 24.8125C65.1012 24.6132 64.6566 24.8125 64.0587 24.5979C63.7981 24.5212 63.6295 24.4982 63.5681 24.3372C63.4302 24.0076 64.6413 23.7393 65.0169 23.747C65.1174 23.7351 65.2192 23.7431 65.3166 23.7708C65.414 23.7984 65.5049 23.845 65.5841 23.908C65.6608 23.977 66.7569 26.0083 66.9026 26.3455L63.6218 27.8786C63.1849 27.595 62.61 27.1044 62.0887 26.6292ZM64.6413 36.1035C64.7188 36.1281 64.8004 36.1369 64.8813 36.1293C64.9623 36.1216 65.0409 36.0978 65.1124 36.0592C65.1839 36.0206 65.247 35.9679 65.2977 35.9044C65.3485 35.8409 65.3859 35.7678 65.4078 35.6896C65.7911 34.5398 64.2963 30.6151 63.5681 28.4612L67.5771 26.5755C68.5046 27.411 74.4759 32.8917 76.1852 38.3647C77.1664 41.4309 76.7908 44.497 73.3031 46.7123C70.6229 48.3251 67.5074 49.0645 64.3883 48.8279C61.2659 48.6303 58.2046 47.8721 55.3509 46.5896C55.4659 44.9416 55.4276 41.2699 55.7112 39.2846C55.7139 39.253 55.7049 39.2214 55.686 39.196C55.667 39.1705 55.6395 39.1528 55.6084 39.1462C55.5773 39.1396 55.5449 39.1446 55.5173 39.1602C55.4897 39.1758 55.4687 39.2009 55.4583 39.2309C55.238 39.8983 55.0739 40.5829 54.9677 41.2776C54.7611 43.0872 54.7354 44.9129 54.891 46.7276C54.8297 46.8502 54.7377 46.2064 55.8798 57.0374C55.8798 57.1677 60.1571 75.8558 60.0421 78.3776C58.509 79.2055 49.7016 80.1253 47.7776 80.1637C47.1721 78.6843 43.8453 68.6657 43.3241 67.0713C46.3902 51.871 43.8683 61.9356 48.3065 52.6989C49.8608 49.4504 51.2474 46.1244 52.4611 42.734C52.7554 41.9528 52.9911 41.1509 53.1663 40.3347C53.2276 40.1968 53.312 40.0511 53.1663 39.8901L51.204 37.2456C53.289 31.9795 53.22 32.2632 53.2123 32.1329C58.1564 33.8269 62.9089 35.7126 64.6413 36.1035ZM55.5349 47.3792C57.1967 48.084 58.9249 48.6206 60.6937 48.9812C60.0421 53.4041 59.2909 59.383 58.5014 66.1515C55.8952 53.7644 56.838 60.3642 55.5349 47.3792ZM31.9334 127.566C31.7035 133.476 31.9334 133.215 31.6805 133.223C31.6472 133.223 31.6152 133.21 31.5909 133.188C31.5667 133.165 31.5521 133.133 31.5502 133.1C31.2512 126.401 32.0561 113.692 33.6581 82.1106H33.9494C33.4358 93.9535 31.9871 126.117 31.9334 127.566ZM37.0615 37.8052C35.1662 35.6624 33.422 33.3905 31.8414 31.0061C33.3015 30.4574 34.8146 30.0618 36.3563 29.8256C36.8622 30.9907 38.3953 35.2756 38.8245 36.4867L37.0768 37.8282L37.0615 37.8052ZM37.9737 29.703C39.4454 31.236 42.5115 34.0492 44.6502 34.2485C44.4279 34.6087 43.0251 36.8853 42.7492 37.215C41.929 36.9467 38.5256 32.8687 37.9277 32.1635C37.6901 31.5273 37.2915 30.4388 37.0309 29.8179L37.9737 29.703ZM35.2142 41.5995V41.5229C35.2142 41.4922 36.7932 38.7327 36.9465 38.4567C37.0155 38.3264 36.7779 38.541 38.9395 36.7704C42.5729 47.0725 42.4502 48.0997 44.3052 54.9985C34.095 39.9821 35.2602 41.5229 35.2142 41.5995ZM43.4697 36.7397C43.6197 37.287 43.8225 37.8184 44.0753 38.3264C44.2286 38.4951 43.784 40.1278 43.0558 47.4635C41.7412 42.7125 40.1883 38.0308 38.4029 33.436C39.0162 34.1028 41.745 37.1 42.5805 37.4219C42.6326 37.4553 42.6937 37.4718 42.7554 37.4691C42.8172 37.4663 42.8766 37.4445 42.9255 37.4066C43.0098 37.3146 43.2091 37.0463 43.4544 36.7014L43.4697 36.7397ZM45.409 56.5622C46.4285 51.963 48.6208 40.9556 48.8584 36.2874L50.6981 37.4986C52.8904 40.5647 52.6911 40.2121 52.6757 40.3501C52.3921 41.9828 47.356 53.9483 45.3937 56.5239L45.409 56.5622ZM50.5908 37.0003L48.8968 35.9578C49.0935 34.3551 49.2061 32.7432 49.234 31.1287C50.2995 31.489 51.4033 31.8952 52.4381 32.3475C52.2542 32.7844 50.9357 36.1188 50.5908 37.0003ZM47.586 41.3925C47.3566 40.3004 47.0545 39.2249 46.6815 38.1731C46.7198 38.0045 46.8808 37.2609 46.9804 36.7934C47.1574 36.9917 47.3441 37.181 47.54 37.3606C47.7316 37.5292 47.8849 37.6289 48.0919 37.5292C47.9309 38.817 47.77 40.0434 47.586 41.3925ZM48.5825 30.9064C48.5745 32.7005 48.4567 34.4924 48.2299 36.2721C48.0919 36.5481 47.9769 36.7704 47.8926 36.916C46.9955 36.0586 46.1459 35.1527 45.3477 34.2025C46.7045 33.8269 46.7198 31.7189 46.5818 30.3085C47.2794 30.4771 47.9463 30.6611 48.5825 30.8757V30.9064ZM39.2155 25.5407C39.2615 25.4104 39.2155 25.4487 39.3304 25.4717C39.7966 25.5209 40.2659 25.4145 40.6652 25.1691C41.0645 24.9237 41.3714 24.553 41.5381 24.1149C41.7108 23.3605 41.6602 22.5721 41.3924 21.846C41.2776 21.5029 41.1879 21.152 41.1241 20.7959C40.7409 19.2628 39.8057 17.7681 40.235 16.2657C40.3385 15.8569 40.5976 15.5048 40.957 15.2843C41.3164 15.0638 41.7477 14.9924 42.1589 15.0852C42.368 15.1606 42.5705 15.2529 42.7645 15.3612C43.4161 15.6984 43.8836 15.9437 44.1903 15.6371C44.1903 15.6371 45.1178 14.7249 45.9993 14.9626C46.3519 15.1005 47.1797 16.8559 47.3637 17.8141C47.2255 17.6296 47.023 17.5038 46.7965 17.4615C46.1679 17.3848 45.731 17.8984 45.823 18.0517C46.3359 18.1666 46.8719 18.1183 47.356 17.9137C47.6189 19.3574 47.7395 20.8234 47.7163 22.2906C47.3608 22.0597 46.9697 21.8888 46.5588 21.7847C46.2479 21.7742 45.9386 21.8345 45.6543 21.961C45.3489 21.8841 45.0337 21.8531 44.7192 21.869C43.8376 22.0376 43.1094 22.9958 42.6649 23.4021C42.4656 23.586 42.3199 24.0919 42.6649 24.3066C43.0098 24.5212 43.508 24.1303 43.6613 23.954C44.2935 23.3192 44.981 22.742 45.7156 22.2293C46.3497 22.6482 47.0046 23.0345 47.678 23.3867C47.5907 23.7608 47.5622 24.1461 47.5936 24.5289C47.4143 24.9796 47.1411 25.387 46.7922 25.724C46.4433 26.061 46.0267 26.3199 45.57 26.4835C45.5098 26.5025 45.4541 26.5334 45.4062 26.5745C45.3583 26.6156 45.3192 26.6659 45.2913 26.7225C45.2634 26.7791 45.2472 26.8407 45.2437 26.9037C45.2402 26.9667 45.2495 27.0298 45.2711 27.0891C45.4244 28.0472 46.1602 30.0479 45.9379 32.0639C45.869 32.6924 45.6697 33.4819 45.0411 33.5509C43.2014 33.7579 39.7827 30.5921 38.4873 29.2584V26.3532C38.8316 26.1679 39.0921 25.8581 39.2155 25.487V25.5407ZM38.3263 19.0099C38.455 19.8223 38.5394 20.6411 38.5792 21.4627C38.1423 21.6161 37.5598 21.0412 37.4524 20.6349C37.2072 19.7917 37.4218 19.2551 38.3263 19.0099ZM22.2291 80.4856C22.1372 78.6536 24.4061 69.6545 24.843 67.7842C25.0562 68.0133 25.3182 68.1914 25.6095 68.3054C25.6759 68.3129 25.7429 68.3 25.8018 68.2685C25.8606 68.237 25.9085 68.1884 25.9392 68.1291C25.9928 68.0525 26.1768 67.7612 26.4451 67.3626C26.6676 67.8327 26.9801 68.2546 27.3649 68.6044C26.2228 69.5395 25.9775 69.4706 26.0771 69.6545C26.0919 69.6825 26.1169 69.7037 26.1468 69.7137C26.1768 69.7237 26.2095 69.7217 26.2381 69.7082C29.5035 68.2671 31.1746 65.6532 31.3662 61.9969C31.3686 61.9667 31.3598 61.9367 31.3414 61.9126C31.323 61.8886 31.2963 61.8722 31.2665 61.8666C31.0059 61.8666 31.1899 62.4951 30.339 64.6261C29.9557 64.2445 29.4846 63.9629 28.967 63.8059C29.0693 63.672 29.182 63.5464 29.3042 63.4303C29.4805 63.3843 29.5802 63.208 29.4805 62.955C29.2276 62.2882 27.6562 59.567 27.2576 58.8848C27.2619 58.8414 27.2619 58.7978 27.2576 58.7545C27.3036 57.689 27.5565 55.8033 27.7942 53.772C28.2526 49.7825 28.4651 45.7685 28.4304 41.7528C28.3743 40.5865 28.1576 39.4335 27.7865 38.3264C27.7794 38.2939 27.7596 38.2655 27.7316 38.2476C27.7036 38.2296 27.6695 38.2235 27.637 38.2306C27.6045 38.2377 27.5761 38.2575 27.5582 38.2855C27.5402 38.3135 27.5341 38.3475 27.5412 38.3801C27.7788 40.0664 27.9015 46.7506 27.9015 46.9039C27.1886 47.9847 23.8082 52.5686 23.8235 53.2814C23.9039 53.7104 24.0378 54.1276 24.2221 54.5232C24.2221 54.7225 23.7545 53.4807 26.859 59.245C27.2653 60.0116 28.5147 62.3112 28.8443 63.0317C27.6512 64.4966 26.5479 66.0325 25.5406 67.6309C23.8159 66.2511 18.6418 60.4255 17.17 58.4325C16.1643 57.1794 15.4495 55.7184 15.0774 54.1553C14.6706 52.8366 14.5504 51.4462 14.7248 50.0773C15.4913 45.1332 20.4891 38.7863 24.3831 35.5133C26.5292 33.6718 28.9635 32.1957 31.5885 31.144C32.0254 31.9106 32.9376 33.229 33.8881 34.5934C36.6859 38.4951 36.7012 37.9048 36.5326 38.1961C36.1187 38.9626 34.8616 40.971 34.6623 41.4232C34.555 41.6762 33.6658 40.5417 44.4739 56.6542C44.1289 58.5245 40.3423 79.5044 39.5527 81.2598C38.219 81.7887 23.5552 81.6124 22.2291 80.4856ZM27.5259 68.4664C27.2139 68.0214 26.9806 67.5262 26.836 67.0023C27.2474 66.2171 27.7325 65.4728 28.2847 64.7794C28.6144 64.3425 28.599 64.2965 28.8213 64.3118C29.32 64.3822 29.7952 64.5686 30.2087 64.856C29.6261 66.273 28.6955 67.52 27.5029 68.4817L27.5259 68.4664ZM26.6827 57.8883C26.2151 57.1217 24.4981 53.8793 24.4521 53.2891C24.774 52.4306 26.4834 49.8397 27.9858 47.3562C27.8095 50.0083 26.9816 54.5309 26.6597 57.9036L26.6827 57.8883ZM34.9306 147.005C34.9304 147.119 34.9149 147.233 34.8846 147.342C34.8709 147.371 34.8497 147.395 34.8232 147.411C34.0349 148.015 33.1443 148.472 32.194 148.76C31.6728 148.921 31.6651 148.937 30.523 148.408C29.9013 148.136 29.2994 147.821 28.7217 147.465C28.5377 147.296 28.5147 146.745 28.5147 146.499C29.0441 146.982 29.628 147.401 30.2547 147.749C31.3432 148.339 32.0867 148.446 33.7501 147.672C34.1634 147.487 34.5585 147.263 34.9306 147.005ZM34.256 137.922C34.187 138.773 34.1104 139.646 34.0337 140.428C33.3875 140.031 32.7138 139.68 32.0177 139.378C31.3585 139.21 30.1781 140.022 29.6262 140.428C29.5648 139.83 29.5035 139.079 29.3885 137.776C30.2547 137.822 31.2819 137.845 32.1481 137.853C34.4936 137.876 34.2713 137.807 34.256 137.922ZM35.6434 137.155C35.5668 137.155 28.8136 137.27 28.5377 137.247C28.3173 136.708 28.2613 136.116 28.3767 135.546C28.482 135.517 28.5898 135.499 28.6987 135.492C31.0324 135.506 33.3627 135.675 35.6741 135.998C35.6934 136.402 35.6832 136.806 35.6434 137.209V137.155ZM48.2912 135.484C48.3448 136.067 48.3908 136.672 48.4445 137.263C48.1829 137.307 47.9262 137.376 47.678 137.469C47.0877 137.784 47.5936 138.872 47.402 139.118C46.6815 139.033 44.2362 138.351 42.9408 138.267C42.9868 137.232 43.0481 135.967 43.1018 134.994C44.6195 135.208 46.8348 135.385 48.2912 135.484ZM57.4896 143.494C57.4896 143.801 57.5509 144.131 57.3209 144.261C54.6457 145.449 43.2628 143.609 42.1513 143.157C42.0452 142.914 41.983 142.655 41.9673 142.391C46.1986 143.103 54.0785 145.112 57.4896 143.494ZM48.9197 134.909C48.8431 134.909 42.6802 134.518 42.4656 134.48C42.3808 134.087 42.3448 133.686 42.3582 133.284C42.3498 133.108 42.384 132.931 42.4579 132.771C43.3854 132.61 48.1072 133.537 49.0424 133.759C49.0231 134.145 48.9821 134.529 48.9197 134.909ZM52.7064 101.948C52.2235 104.248 47.448 127.742 46.6661 131.322C46.6557 131.352 46.6347 131.377 46.6071 131.393C46.5794 131.408 46.5471 131.413 46.516 131.407C46.485 131.4 46.4574 131.382 46.4384 131.357C46.4195 131.331 46.4105 131.3 46.4132 131.268C47.0417 128.026 51.5566 104.286 52.0779 101.81C52.3231 100.653 50.2612 82.6089 50.0159 80.6772H50.4221C51.5413 87.9133 52.944 100.776 52.7064 101.948ZM131.414 138.612C128.171 138.865 53.2966 135.722 52.6221 135.637C52.4611 133.622 53.6569 119.977 53.8332 117.961C55.0597 113.615 57.3976 105.084 58.0875 100.599C58.6853 96.6824 57.6352 87.9133 57.114 83.958C57.2673 82.5322 57.4129 81.1142 57.5662 79.7037C58.4501 79.5722 59.32 79.3592 60.1647 79.0675C60.3947 78.9602 60.6247 78.8146 60.6477 78.5693C60.7933 77.2048 59.1146 69.2789 58.8616 67.9068C59.7048 60.4408 60.5557 53.8563 61.2072 49.0578C65.4768 49.8244 69.9304 49.5561 73.625 47.2105C77.1817 44.9569 77.7566 41.8448 76.9058 38.7327C78.3239 38.5947 79.8186 38.4644 81.367 38.3418C81.1983 39.5759 81.229 42.5577 81.8806 43.0712C83.1147 44.0524 112.228 42.8949 114.634 41.9368C114.753 41.8956 114.853 41.8143 114.918 41.7068C115.286 41.0016 115.255 38.0505 115.148 36.9467C117.532 36.9467 137.377 36.7934 138.795 38.702C140.398 40.8636 133.92 138.366 131.414 138.573V138.612Z" fill="black"/>
<path d="M78.04 82.2947C77.9557 81.7658 77.7794 81.6661 77.4881 81.5818C75.955 81.1372 67.0556 80.6313 66.3044 81.1372C65.5532 81.6431 64.0738 87.5224 64.595 89.3468C64.6444 89.4521 64.7158 89.5456 64.8044 89.621C64.893 89.6964 64.9967 89.7519 65.1086 89.7837C66.9253 90.5502 75.7021 91.2631 76.6526 90.7265C77.6031 90.1899 78.2623 83.7434 78.04 82.2947ZM76.6526 89.615C76.5888 89.8262 76.4959 90.0274 76.3766 90.2129C75.7634 90.5579 66.2124 90.0443 65.078 89.1934C64.5644 87.4841 65.8445 81.7581 66.45 81.3365C67.0556 80.9149 76.4763 81.7198 77.4574 82.1567C77.7717 83.4368 77.1202 88.151 76.6526 89.615ZM74.7746 96.2455C74.008 95.6553 64.0431 95.1801 63.2766 95.6706C62.5101 96.1612 61.046 102.01 61.5672 103.88C61.6178 103.985 61.6896 104.078 61.778 104.153C61.8664 104.228 61.9696 104.284 62.0808 104.317C63.9128 105.084 71.4862 105.659 73.2568 105.367C73.3726 105.363 73.4858 105.332 73.588 105.278C73.6903 105.223 73.7788 105.147 73.8471 105.053C74.6059 104.003 75.5794 96.8971 74.7746 96.2455ZM73.3488 104.739C72.7203 105.091 63.223 104.578 62.0502 103.719C61.5366 102.01 62.8167 96.2839 63.4222 95.8623C64.0278 95.4407 73.5328 96.2762 74.422 96.6825C74.8052 98.1159 73.8547 104.455 73.3488 104.739ZM72.9962 110.426C72.2297 109.844 62.2648 109.361 61.4983 109.851C60.7317 110.342 59.2677 116.183 59.7889 118.046C59.8382 118.151 59.9096 118.245 59.9982 118.32C60.0868 118.395 60.1906 118.451 60.3025 118.483C62.1345 119.249 69.7078 119.824 71.4785 119.533C71.5949 119.527 71.7085 119.496 71.8108 119.44C71.9131 119.384 72.0013 119.306 72.0687 119.211C72.8199 118.199 73.8087 111.086 72.9962 110.426ZM71.8388 118.329C71.8388 118.421 71.6471 118.881 71.5628 118.92C70.9343 119.272 61.4369 118.751 60.2641 117.9C59.7582 116.198 61.0307 110.472 61.6362 110.043C62.2418 109.614 71.6548 110.426 72.6436 110.863C72.9502 112.105 72.36 116.712 71.8388 118.329Z" fill="black"/>
<path d="M74.2 83.6898C72.8279 84.9929 71.6091 86.503 70.7199 87.0702C70.4056 87.2772 70.2447 87.3462 69.9534 87.1928C69.4788 86.8931 69.0758 86.4927 68.7729 86.0201C68.7554 85.9981 68.7309 85.9827 68.7034 85.9767C68.676 85.9706 68.6473 85.9742 68.6221 85.9868C68.597 85.9993 68.5769 86.0202 68.5653 86.0458C68.5537 86.0714 68.5512 86.1002 68.5583 86.1274C68.8156 86.7409 69.2373 87.2715 69.7771 87.6604C69.973 87.7619 70.1943 87.8036 70.4137 87.7805C70.6331 87.7573 70.8408 87.6703 71.0112 87.5301C71.6367 87.0964 72.2013 86.5807 72.6899 85.9971C73.2864 85.3125 73.8418 84.5933 74.3533 83.8431C74.3699 83.8352 74.3843 83.8234 74.3954 83.8087C74.4065 83.794 74.4139 83.7769 74.417 83.7588C74.4202 83.7407 74.4189 83.7221 74.4133 83.7045C74.4077 83.687 74.398 83.6711 74.385 83.6581C74.372 83.645 74.3561 83.6353 74.3386 83.6298C74.321 83.6242 74.3024 83.6229 74.2843 83.626C74.2662 83.6291 74.249 83.6366 74.2344 83.6477C74.2197 83.6588 74.2079 83.6732 74.2 83.6898ZM71.1875 98.2156C69.5318 99.7869 67.9604 101.78 67.2322 101.811C67.0057 101.767 66.7959 101.661 66.6266 101.504C65.8141 100.837 65.8141 100.385 65.6148 100.5C65.6002 100.506 65.5872 100.516 65.5765 100.528C65.5657 100.539 65.5576 100.553 65.5525 100.568C65.5475 100.584 65.5457 100.6 65.5471 100.616C65.5486 100.631 65.5534 100.647 65.5612 100.661C65.8448 101.32 66.5193 102.339 67.2399 102.355C68.1597 102.355 69.6621 100.653 70.2063 99.9709C70.7506 99.2887 71.1492 98.6601 71.3638 98.3689C71.3841 98.3455 71.3943 98.315 71.3922 98.2841C71.39 98.2532 71.3757 98.2244 71.3523 98.2041C71.3289 98.1837 71.2984 98.1735 71.2675 98.1757C71.2366 98.1778 71.2078 98.1922 71.1875 98.2156ZM69.4015 112.396C67.7764 113.929 66.1667 115.961 65.4539 115.984C65.2229 115.947 65.0088 115.84 64.8406 115.677C64.0204 115.01 64.0741 114.566 63.8288 114.673C63.8146 114.681 63.8022 114.692 63.7922 114.704C63.7821 114.717 63.7748 114.732 63.7705 114.748C63.7662 114.763 63.7651 114.78 63.7672 114.796C63.7693 114.812 63.7746 114.828 63.7828 114.842C64.0588 115.501 64.7333 116.52 65.4615 116.536C66.3814 116.536 67.8838 114.834 68.4203 114.152C68.9569 113.47 69.3708 112.841 69.5778 112.55C69.6851 112.435 69.5088 112.281 69.4015 112.396ZM128.355 86.365C125.879 86.2194 85.5983 84.5253 83.0457 84.418C83.0194 84.4248 82.996 84.4401 82.9793 84.4616C82.9626 84.4831 82.9535 84.5096 82.9535 84.5368C82.9535 84.5641 82.9626 84.5905 82.9793 84.612C82.996 84.6335 83.0194 84.6489 83.0457 84.6556C85.6443 84.8243 126.669 86.5566 128.363 86.6026C128.389 86.5951 128.412 86.579 128.428 86.5569C128.444 86.5349 128.452 86.5081 128.452 86.4808C128.451 86.4536 128.441 86.4274 128.423 86.4064C128.406 86.3854 128.382 86.3708 128.355 86.365ZM125.343 100.898C122.867 100.753 82.5858 99.0587 80.0333 98.9438C80.0152 98.9391 79.9962 98.9387 79.9779 98.9425C79.9596 98.9463 79.9424 98.9542 79.9277 98.9657C79.9129 98.9772 79.9009 98.9918 79.8927 99.0086C79.8845 99.0254 79.8802 99.0439 79.8802 99.0626C79.8802 99.0813 79.8845 99.0997 79.8927 99.1165C79.9009 99.1333 79.9129 99.148 79.9277 99.1595C79.9424 99.1709 79.9596 99.1789 79.9779 99.1827C79.9962 99.1865 80.0152 99.186 80.0333 99.1814C82.6318 99.35 123.649 101.082 125.343 101.136C125.369 101.129 125.393 101.114 125.409 101.092C125.426 101.071 125.435 101.044 125.435 101.017C125.435 100.99 125.426 100.964 125.409 100.942C125.393 100.921 125.369 100.905 125.343 100.898ZM123.557 115.079C121.081 114.934 80.7998 113.24 78.2473 113.125C78.2209 113.131 78.1975 113.147 78.1808 113.168C78.1641 113.19 78.155 113.216 78.155 113.243C78.155 113.271 78.1641 113.297 78.1808 113.319C78.1975 113.34 78.2209 113.355 78.2473 113.362C80.8381 113.531 121.863 115.263 123.557 115.309C123.587 115.309 123.617 115.297 123.638 115.276C123.66 115.254 123.672 115.225 123.672 115.194C123.672 115.164 123.66 115.134 123.638 115.113C123.617 115.091 123.587 115.079 123.557 115.079ZM128.01 91.792C125.535 91.6541 85.2533 89.9524 82.7085 89.845C82.6904 89.8404 82.6714 89.84 82.6531 89.8438C82.6348 89.8476 82.6176 89.8555 82.6028 89.867C82.5881 89.8784 82.5761 89.8931 82.5679 89.9099C82.5597 89.9267 82.5554 89.9452 82.5554 89.9639C82.5554 89.9826 82.5597 90.001 82.5679 90.0178C82.5761 90.0346 82.5881 90.0493 82.6028 90.0607C82.6176 90.0722 82.6348 90.0801 82.6531 90.0839C82.6714 90.0877 82.6904 90.0873 82.7085 90.0827C85.2993 90.2513 126.324 91.9837 128.018 92.0297C128.044 92.0221 128.067 92.006 128.083 91.984C128.099 91.9619 128.108 91.9351 128.107 91.9079C128.106 91.8806 128.096 91.8544 128.078 91.8334C128.061 91.8125 128.037 91.7979 128.01 91.792ZM125.013 106.325C122.537 106.18 82.2562 104.486 79.7037 104.378C79.5504 104.378 79.535 104.601 79.7037 104.616C82.3022 104.785 123.327 106.509 125.021 106.563C125.047 106.556 125.07 106.539 125.086 106.517C125.102 106.495 125.11 106.469 125.11 106.441C125.109 106.414 125.099 106.388 125.081 106.367C125.064 106.346 125.04 106.331 125.013 106.325ZM123.227 120.506C120.759 120.361 80.4779 118.667 77.9253 118.552C77.8928 118.552 77.8616 118.565 77.8386 118.588C77.8156 118.611 77.8027 118.642 77.8027 118.674C77.8027 118.707 77.8156 118.738 77.8386 118.761C77.8616 118.784 77.8928 118.797 77.9253 118.797C80.5239 118.958 121.541 120.69 123.235 120.744C123.261 120.736 123.284 120.72 123.3 120.698C123.316 120.676 123.324 120.649 123.324 120.622C123.323 120.595 123.313 120.569 123.295 120.548C123.278 120.527 123.254 120.512 123.227 120.506ZM84.7781 75.074C85.0157 74.936 85.123 74.4991 85.192 74.2078C86.2038 70.1069 87.369 51.3269 87.1237 50.2691C87.1027 50.1985 87.063 50.1349 87.0087 50.0851C86.5718 49.6865 84.1572 49.6405 83.3217 49.6175C78.9448 49.5102 68.7576 49.8398 68.6426 49.9471C68.359 50.2921 64.1354 72.7897 64.6567 74.3151C65.1779 75.8405 82.9691 76.0935 84.7781 75.074ZM65.1549 74.1082C65.1493 74.0265 65.1493 73.9445 65.1549 73.8629C65.1614 73.8874 65.1758 73.9091 65.1959 73.9246C65.216 73.94 65.2407 73.9484 65.2661 73.9484C65.2914 73.9484 65.3161 73.94 65.3362 73.9246C65.3563 73.9091 65.3707 73.8874 65.3772 73.8629C65.7038 72.6047 66.3478 71.4513 67.2475 70.5131C68.2771 69.3625 69.6029 68.5167 71.0802 68.0679C71.7486 68.9346 72.476 69.7542 73.2571 70.5208C73.4334 70.6511 73.6404 70.5208 73.855 70.4212C74.6216 72.3605 74.2536 69.8539 73.855 75.0203C72.7129 74.982 66.1437 74.7291 65.1549 74.1082ZM73.809 65.1551C73.3814 64.9853 72.9974 64.7215 72.6855 64.3831C72.3737 64.0447 72.142 63.6405 72.0077 63.2004C71.9262 62.8659 71.8749 62.5247 71.8544 62.181C72.1203 62.5325 72.4912 62.7904 72.9134 62.9172C73.3356 63.0441 73.7872 63.0333 74.2029 62.8865C74.6186 62.7397 74.9768 62.4645 75.2257 62.1006C75.4746 61.7367 75.6012 61.3031 75.5874 60.8625H75.7254C75.5182 61.5609 75.4276 62.2886 75.4571 63.0165C75.4604 63.1239 75.4893 63.2291 75.5414 63.3231C75.7714 63.6144 76.0013 63.6067 76.3923 63.5454C76.423 63.5438 76.4521 63.5313 76.4746 63.5103C76.497 63.4893 76.5113 63.461 76.5149 63.4304C76.5149 63.2541 76.2083 63.3307 75.9937 63.1161C75.9937 62.8555 76.078 61.974 76.0856 61.7517C76.0856 60.7859 75.894 60.8932 76.17 60.8932C76.117 61.2677 76.1692 61.6496 76.3208 61.9961C76.4724 62.3427 76.7174 62.6402 77.0285 62.8555C77.4008 63.0976 77.8383 63.22 78.2823 63.2063C78.7262 63.1926 79.1553 63.0434 79.512 62.7788C79.512 62.8785 79.4354 62.9935 79.3741 63.1468C79.1651 63.8367 78.7506 64.4464 78.1859 64.8945C77.2891 65.523 76.7142 65.3007 76.7755 65.7223C76.8675 66.3279 77.0745 66.7571 77.2048 67.654C76.532 68.059 75.8844 68.5044 75.2654 68.9877C74.6736 68.4393 74.049 67.9274 73.3951 67.4547C73.7017 65.8526 74.2383 65.3467 73.809 65.1551ZM76.2849 60.3949C76.261 60.4602 76.2405 60.5268 76.2236 60.5942C76.125 60.528 76.0089 60.4926 75.8902 60.4926C75.7714 60.4926 75.6553 60.528 75.5567 60.5942C75.5412 60.3707 75.4769 60.1533 75.3683 59.9573C75.2597 59.7613 75.1095 59.5914 74.9282 59.4598C74.4475 59.1528 73.8888 58.9905 73.3185 58.9922C72.9127 58.9737 72.5151 59.1108 72.207 59.3755C72.4233 58.3836 73.0065 57.5102 73.8397 56.9302C75.2808 56.0334 77.5191 56.2097 78.4389 57.6354C78.646 57.9233 78.8016 58.2449 78.8988 58.5859C78.9494 58.8468 79.0211 59.1032 79.1134 59.3525C78.9477 59.283 78.7715 59.2416 78.5922 59.2298C77.5957 59.1608 76.5302 59.3984 76.2849 60.4103V60.3949ZM74.3533 62.3036C74.166 62.399 73.9615 62.456 73.7519 62.4714C73.5423 62.4867 73.3317 62.46 73.1325 62.3929C72.9333 62.3258 72.7495 62.2196 72.5919 62.0805C72.4343 61.9415 72.306 61.7723 72.2147 61.5831C71.954 60.6019 72.3603 59.4981 73.3261 59.4904C76.2466 59.3908 75.3728 61.928 74.3533 62.3036ZM78.5999 59.7204C79.5657 59.8277 79.8416 60.9775 79.489 61.928C79.3768 62.1048 79.2308 62.2576 79.0592 62.3776C78.8877 62.4977 78.6941 62.5826 78.4896 62.6275C78.2851 62.6724 78.0737 62.6763 77.8677 62.6392C77.6617 62.602 77.465 62.5244 77.2891 62.4109C76.3003 61.9357 75.641 59.3065 78.5845 59.7204H78.5999ZM80.1329 60.4869L80.3246 60.3796C80.7615 60.7092 80.8381 61.2688 80.0946 61.9127C80.2211 61.4708 80.2343 61.0042 80.1329 60.5559V60.4869ZM71.0649 60.119C71.1264 60.0591 71.2089 60.0255 71.2948 60.0255C71.3807 60.0255 71.4632 60.0591 71.5248 60.119C71.5614 60.1516 71.6066 60.1729 71.6551 60.1803C71.5245 60.5995 71.4982 61.0441 71.5784 61.4757C71.0342 61.1461 70.5973 60.6172 71.0649 60.1496V60.119ZM76.8138 70.0839C76.4474 69.8349 76.0967 69.5635 75.7637 69.2714L78.002 67.4547C78.1783 67.585 78.6612 67.9453 78.9218 68.1676C77.6494 69.3097 77.1128 69.8539 76.8138 70.1069V70.0839ZM74.7289 69.21C74.3299 69.4708 73.918 69.7113 73.4948 69.9306C73.2801 69.7083 71.4635 67.7076 71.4635 67.7076C71.7624 67.5083 72.3296 67.1864 72.5289 67.0791L74.7289 69.21ZM76.6529 75.12C76.6498 73.8925 76.498 72.6699 76.2006 71.479C76.7065 70.4901 76.4306 70.7124 76.7219 70.7814C76.7604 70.7988 76.8022 70.8077 76.8445 70.8077C76.8868 70.8077 76.9286 70.7988 76.9671 70.7814C77.7292 70.1359 78.4416 69.4338 79.0981 68.6811C81.712 69.8386 83.7739 71.7473 84.4638 74.5681C84.2569 75.12 77.3351 75.12 76.6529 75.12ZM68.8189 50.1388C70.7429 50.0851 84.8471 49.7172 86.6408 50.4377C86.8171 51.9708 85.4603 70.9424 84.6248 74.0392C83.9119 71.3563 81.9496 69.44 79.42 68.2519C79.535 67.9989 79.2591 67.8456 78.0633 67.1864C78.0449 67.1748 78.0237 67.1687 78.002 67.1687C77.9803 67.1687 77.959 67.1748 77.9406 67.1864L77.6417 67.3704C77.5267 66.6038 77.4117 66.3815 77.3121 65.8373C77.776 65.7223 78.211 65.5124 78.5896 65.2209C78.9683 64.9293 79.2823 64.5624 79.512 64.1433C79.7939 63.6451 80.0078 63.1114 80.1483 62.5566C81.1064 61.8973 81.6353 60.9775 80.9148 60.0883C81.1217 59.7664 81.2674 59.5058 81.1141 59.1608C81.1791 59.0624 81.2205 58.9504 81.2351 58.8334C81.2497 58.7164 81.2372 58.5976 81.1984 58.4863C81.1617 58.3338 81.105 58.1869 81.0298 58.0494C81.1077 57.9223 81.1588 57.7806 81.1798 57.633C81.2007 57.4854 81.1911 57.3351 81.1516 57.1913C81.1121 57.0476 81.0434 56.9135 80.95 56.7974C80.8565 56.6813 80.7402 56.5856 80.6082 56.5163C80.6392 56.3295 80.6233 56.1379 80.5619 55.9587C80.5005 55.7796 80.3955 55.6185 80.2564 55.4901C80.1172 55.3616 79.9483 55.2697 79.7649 55.2227C79.5814 55.1757 79.3892 55.1751 79.2054 55.2209C79.1396 55.0467 79.0252 54.8951 78.8758 54.7839C78.7523 54.68 78.6096 54.6014 78.4557 54.5527C78.3018 54.5041 78.1398 54.4862 77.979 54.5003C77.3964 54.5463 77.6417 54.7303 77.5191 54.4313C77.4558 54.2875 77.3453 54.1697 77.2059 54.0972C77.0665 54.0247 76.9066 54.002 76.7525 54.0327C76.5067 54.0503 76.2718 54.1411 76.078 54.2934C75.8484 54.1033 75.5597 53.9993 75.2616 53.9993C74.9636 53.9993 74.6748 54.1033 74.4453 54.2934C74.3303 54.416 74.3916 54.3853 74.292 54.347C74.0406 54.2821 73.7768 54.2821 73.5254 54.347C73.3748 54.38 73.2339 54.4478 73.1141 54.545C72.9943 54.6421 72.8989 54.766 72.8355 54.9066C72.7114 54.8838 72.5841 54.8838 72.4599 54.9066C72.2104 54.9966 71.9862 55.1452 71.8061 55.34C71.626 55.5347 71.4954 55.7699 71.4251 56.0257C71.4212 56.0844 71.4212 56.1433 71.4251 56.202C71.2814 56.2851 71.1431 56.3772 71.0112 56.478C70.867 56.6512 70.7723 56.8602 70.7372 57.0829C70.7021 57.3055 70.7279 57.5336 70.8119 57.7427C70.6343 57.8687 70.5025 58.0489 70.4363 58.2563C70.3963 58.5184 70.4392 58.7863 70.559 59.0228C70.6041 59.0868 70.6527 59.1482 70.7046 59.2068L70.6279 59.2988C70.578 59.4322 70.578 59.5793 70.6279 59.7127C70.4998 59.8625 70.4104 60.0416 70.3676 60.234C70.3248 60.4265 70.33 60.6265 70.3826 60.8165C70.557 61.2887 70.8729 61.6956 71.2872 61.9817C71.2872 62.158 71.2872 62.4569 71.3561 62.7482C71.4298 63.3525 71.6574 63.9279 72.0171 64.4191C72.3768 64.9103 72.8565 65.301 73.4104 65.5537C73.2319 66.0554 73.0835 66.5673 72.9659 67.0867C72.6362 66.8415 72.5903 66.7801 72.5059 66.8261C71.2872 67.309 70.9729 67.4547 70.9729 67.5927C67.8071 68.6121 65.6072 71.4943 65.1779 73.7249C65.2009 70.3445 68.4663 51.2962 68.8189 50.1388ZM132.042 62.9628C131.935 62.8478 93.8691 62.6102 93.7925 62.6179C93.76 62.6179 93.7288 62.6308 93.7058 62.6538C93.6828 62.6768 93.6698 62.708 93.6698 62.7405C93.6698 62.6639 93.3786 66.1976 93.7695 66.4275C94.8043 67.0101 128.486 67.5697 131.544 67.2707C131.677 67.2724 131.807 67.2292 131.912 67.1481C132.472 66.5732 132.456 63.3154 132.042 62.9628ZM93.8155 62.8555H93.8615C93.8615 62.8555 93.8232 62.8938 93.8155 62.8555ZM131.529 66.6882C129.781 66.9104 95.7855 66.6115 93.9688 66.1899C93.8613 65.081 93.8613 63.9644 93.9688 62.8555L131.72 63.4917C131.864 64.5596 131.799 65.6451 131.529 66.6882ZM132.134 56.5316C132.027 56.4166 93.9611 56.179 93.8845 56.1867C93.8525 56.1885 93.8224 56.202 93.7998 56.2246C93.7772 56.2472 93.7637 56.2774 93.7618 56.3093C93.7618 56.2327 93.4629 59.7664 93.8615 59.9963C94.9576 60.6249 128.739 61.1231 131.636 60.8395C131.769 60.8413 131.899 60.798 132.004 60.7169C132.564 60.142 132.541 56.8842 132.134 56.5316ZM93.9075 56.4243H93.9535C93.9995 56.4243 93.9151 56.4703 93.9075 56.4243ZM131.621 60.257C129.973 60.4793 95.8928 60.1803 94.0608 59.751C93.9572 58.6446 93.9572 57.5308 94.0608 56.4243L131.812 57.0605C131.952 58.1259 131.887 59.2083 131.621 60.2493V60.257ZM132.219 50.3534C132.158 50.3046 132.082 50.2801 132.004 50.2844C132.004 50.2844 94.3367 49.9931 94.1068 50.0008C93.9918 50.0008 93.8308 50.0008 93.8385 50.1311C93.8385 50.0544 93.5472 53.5881 93.9381 53.8181C94.8886 54.3547 131.498 55.1289 132.081 54.5386C132.663 53.9484 132.61 50.706 132.219 50.3534ZM93.9841 50.2461H94.0301C94.0761 50.2461 93.9918 50.2844 93.9841 50.2461ZM131.697 54.0787C129.942 54.301 95.7855 53.9867 94.1374 53.5728C94.0184 52.4678 94.0031 51.354 94.0914 50.2461L131.843 50.8823C132.001 51.9447 131.951 53.0275 131.697 54.0711V54.0787ZM100.362 73.8246C100.814 73.5716 100.86 73.173 100.645 72.92C100.038 72.5303 99.3569 72.2694 98.6446 72.1535C98.577 71.4697 98.3341 70.815 97.9394 70.2525C97.1729 69.5626 96.6746 71.1417 96.4064 72.1305C95.7625 72.1842 94.3444 72.3681 94.2371 73.0044C94.2371 73.2267 94.3904 73.3646 94.5897 73.4643C95.0416 73.6457 95.5051 73.7968 95.9771 73.9165C95.3639 74.5604 93.9841 76.0552 94.8426 76.2161C95.3332 76.3234 96.6363 75.5416 97.2572 75.4036C97.8321 75.7256 99.0739 76.7297 99.5568 76.3924C100.04 76.0552 99.3498 74.9667 98.9589 74.2232C99.4368 74.1295 99.906 73.9962 100.362 73.8246ZM107.682 74.1695C108.142 73.9242 108.188 73.5256 107.966 73.2726C107.364 72.8768 106.684 72.6153 105.973 72.5061C105.905 71.82 105.662 71.1628 105.267 70.5975C104.501 69.9152 104.003 71.4943 103.734 72.4831C103.091 72.5368 101.672 72.7131 101.565 73.357C101.527 73.5716 101.718 73.7172 101.918 73.8169C102.369 73.994 102.829 74.145 103.297 74.2691C102.692 74.9054 101.304 76.4078 102.163 76.5687C102.654 76.676 103.995 75.8865 104.578 75.8022C105.183 76.1395 106.402 77.1206 106.877 76.7834C107.352 76.4461 106.67 75.3576 106.287 74.6141C106.766 74.5126 107.233 74.3637 107.682 74.1695ZM115.309 74.4531C115.761 74.2001 115.807 73.8016 115.593 73.5563C114.987 73.1623 114.306 72.9011 113.592 72.7897C113.528 72.1052 113.285 71.4495 112.887 70.8887C112.12 70.1989 111.622 71.7779 111.354 72.7667C110.71 72.8281 109.292 73.0044 109.192 73.6406C109.192 73.8629 109.345 74.0085 109.545 74.1005C109.994 74.2848 110.455 74.4385 110.924 74.5604C110.319 75.1966 108.931 76.699 109.79 76.86C110.281 76.9673 111.584 76.1855 112.205 76.0475C112.779 76.3771 114.021 77.3736 114.504 77.0363C114.987 76.699 114.29 75.6106 113.906 74.867C114.385 74.7704 114.854 74.6319 115.309 74.4531ZM123.266 74.7521C123.726 74.5068 123.764 74.1005 123.549 73.8552C122.944 73.4613 122.262 73.2 121.549 73.0887C121.482 72.4058 121.242 71.7514 120.851 71.1877C120.084 70.4978 119.579 72.0845 119.318 73.0657C118.674 73.127 117.256 73.3033 117.156 73.9472C117.118 74.1618 117.31 74.3075 117.509 74.4071C117.96 74.5842 118.42 74.7352 118.889 74.8594C118.283 75.4956 116.896 76.998 117.754 77.159C118.237 77.2663 119.579 76.4767 120.169 76.3464C120.751 76.676 121.978 77.6725 122.468 77.3353C122.959 76.998 122.261 75.9095 121.878 75.166C122.353 75.0714 122.817 74.9328 123.266 74.7521ZM121.181 75.0203C121.181 75.304 121.871 76.2391 122.039 76.8447C121.901 76.7834 121.71 76.6607 121.556 76.5764C120.33 75.9248 120.376 75.7102 119.87 75.8865C119.479 76.0245 118.183 76.722 117.839 76.7834C117.915 76.5324 118.035 76.2965 118.191 76.0858C119.034 74.8364 119.448 74.821 118.919 74.5528C118.415 74.4042 117.931 74.193 117.478 73.9242C117.616 73.5716 119.011 73.4719 119.487 73.4643C119.755 73.4643 119.663 73.2573 120.092 72.2455C120.188 71.9947 120.317 71.7576 120.475 71.5403C120.621 71.7515 120.725 71.9881 120.782 72.2378C121.066 73.2113 120.912 73.4796 121.234 73.5486C121.862 73.6729 122.47 73.879 123.043 74.1618C122.923 74.2493 122.788 74.3143 122.645 74.3535C121.694 74.6371 121.158 74.6064 121.181 75.0203ZM131.138 73.7556C130.607 73.5226 130.055 73.3404 129.49 73.2113C129.414 72.7286 129.286 72.2556 129.107 71.8009C128.785 71.0344 128.263 70.8887 127.849 71.5786C127.586 72.0917 127.378 72.6313 127.229 73.1883C126.707 73.2249 126.192 73.3253 125.695 73.4873C125.259 73.6559 124.883 74.0085 125.121 74.3151C125.623 74.6485 126.19 74.873 126.784 74.9743C126.327 75.4469 125.914 75.96 125.55 76.5074C125.197 77.1206 125.412 77.4962 126.186 77.2739C126.776 77.09 127.619 76.6377 128.064 76.5074C128.447 76.722 129.597 77.5882 130.141 77.5652C130.197 77.5673 130.252 77.5581 130.303 77.5381C130.355 77.5182 130.402 77.4879 130.441 77.4491C130.481 77.4104 130.512 77.364 130.533 77.3128C130.554 77.2615 130.564 77.2066 130.563 77.1513C130.42 76.5019 130.16 75.8838 129.796 75.327C130.275 75.2332 130.745 75.0973 131.199 74.9207C131.69 74.6447 131.843 74.1158 131.138 73.7556ZM129.298 74.8747C128.731 75.143 129.704 76.0322 129.973 77.0057C129.62 76.8447 128.348 76.0552 128.256 76.0168C127.842 75.8405 126.876 76.5611 126.01 76.86L125.78 76.9443C126.094 76.2418 126.527 75.5987 127.06 75.0433C127.359 74.7137 125.726 74.4761 125.412 74.1158C125.473 73.9549 125.887 73.8399 126.048 73.8016C127.167 73.5409 127.543 73.8016 127.642 73.4796C127.823 72.8668 128.08 72.2795 128.409 71.7319C128.705 72.277 128.885 72.8771 128.938 73.4949C128.984 73.8169 129.252 73.6866 130.341 74.0698C130.566 74.1376 130.782 74.2328 130.985 74.3535C130.716 74.5528 129.681 74.6907 129.298 74.8747ZM97.3875 34.1259C98.216 34.1928 99.0386 33.9405 99.6871 33.4207C101.611 31.7037 98.9206 28.4383 96.2531 30.1936C94.1681 31.5657 95.4405 34.0493 97.3875 34.1259ZM96.5367 30.6612C97.0576 30.28 97.7059 30.1152 98.3457 30.2013C98.6654 30.2478 98.97 30.3675 99.2359 30.551C99.5018 30.7344 99.7218 30.9768 99.8788 31.2591C100.4 32.7538 99.0126 33.6507 97.4029 33.5587C96.0001 33.482 95.0036 31.7114 96.5367 30.6612ZM31.5349 67.8609C31.3816 67.7996 31.5349 67.8609 30.4311 68.9801C29.3273 70.0992 28.3001 70.7124 28.3998 70.8964C28.4994 71.0804 29.4269 70.6205 29.5802 70.5361C30.0728 70.2275 30.5171 69.8478 30.8987 69.4093C31.1669 69.0951 31.8185 67.9836 31.5349 67.8609ZM43.3701 18.619C43.4084 18.4351 42.8949 18.2741 42.5193 18.3201C41.6914 18.4274 41.3465 19.0866 41.5228 19.2016C42.1686 19.1202 42.7944 18.9229 43.3701 18.619ZM45.2251 21.4628C45.4425 21.5456 45.6778 21.5694 45.9073 21.5318C46.0096 21.5123 46.1081 21.476 46.1986 21.4245C46.2908 21.3821 46.3676 21.3122 46.4184 21.2243C46.4692 21.1365 46.4915 21.035 46.4822 20.9339C46.4822 20.2287 45.5011 18.6727 45.2404 18.8413C45.1485 18.895 45.1715 18.9333 45.3171 19.4162C45.4104 19.7465 45.5283 20.0693 45.6697 20.382C45.7508 20.5649 45.8149 20.7547 45.8613 20.9493C45.7022 21.0963 45.5013 21.19 45.2864 21.2176C45.2703 21.2135 45.2536 21.2127 45.2372 21.2152C45.2207 21.2176 45.205 21.2233 45.1907 21.2318C45.1765 21.2403 45.1641 21.2516 45.1542 21.2649C45.1443 21.2783 45.1372 21.2934 45.1331 21.3095C45.1291 21.3256 45.1283 21.3424 45.1307 21.3588C45.1332 21.3752 45.1388 21.391 45.1474 21.4052C45.1559 21.4195 45.1672 21.4319 45.1805 21.4418C45.1939 21.4517 45.209 21.4588 45.2251 21.4628ZM44.9645 24.4217C45.0157 24.5389 45.0921 24.6435 45.1882 24.7279C45.2843 24.8124 45.3977 24.8748 45.5205 24.9106C45.6434 24.9464 45.7726 24.9549 45.899 24.9353C46.0254 24.9157 46.146 24.8686 46.2523 24.7973C46.2814 24.7853 46.3053 24.7632 46.3193 24.735C46.3334 24.7068 46.3368 24.6745 46.3289 24.644C46.2676 24.4676 46.1143 24.6899 45.7234 24.4676C45.6424 24.4185 45.5749 24.3501 45.5267 24.2685C45.4786 24.1869 45.4513 24.0947 45.4474 24.0001C45.4518 23.9008 45.4773 23.8037 45.5222 23.7151C45.5672 23.6266 45.6305 23.5486 45.708 23.4865C45.7777 23.4496 45.8553 23.4303 45.9342 23.4303C46.013 23.4303 46.0906 23.4496 46.1603 23.4865C46.2829 23.5861 46.4209 23.3945 46.2983 23.3025C45.5624 22.4517 44.5276 23.5325 44.9645 24.4217ZM46.7582 57.2292C46.5783 57.2325 46.402 57.2803 46.2452 57.3684C46.0883 57.4565 45.9557 57.5821 45.8593 57.734C45.7628 57.8859 45.7055 58.0593 45.6925 58.2387C45.6795 58.4181 45.7112 58.598 45.7847 58.7622C46.2906 59.7817 48.0306 59.4061 48 58.3023C47.9935 58.1487 47.9556 57.9981 47.8887 57.8596C47.8218 57.7212 47.7273 57.598 47.6109 57.4974C47.4946 57.3969 47.359 57.3212 47.2123 57.2751C47.0656 57.229 46.9111 57.2133 46.7582 57.2292ZM47.4251 58.5399C47.416 58.6149 47.3923 58.6874 47.3552 58.7532C47.3181 58.819 47.2684 58.8769 47.209 58.9235C47.1496 58.9702 47.0815 59.0046 47.0088 59.0249C46.936 59.0453 46.86 59.0511 46.785 59.042C46.71 59.033 46.6375 59.0092 46.5717 58.9721C46.5059 58.9351 46.448 58.8854 46.4014 58.826C46.3548 58.7665 46.3203 58.6985 46.3 58.6257C46.2797 58.553 46.2739 58.477 46.2829 58.402C46.2829 58.3319 46.2969 58.2624 46.3239 58.1978C46.351 58.1331 46.3906 58.0744 46.4405 58.0252C46.4905 57.976 46.5497 57.9372 46.6147 57.9111C46.6798 57.885 46.7494 57.872 46.8195 57.8731C46.9078 57.8635 46.997 57.8746 47.0803 57.9053C47.1636 57.9361 47.2386 57.9857 47.2995 58.0503C47.3604 58.1149 47.4055 58.1927 47.4312 58.2777C47.457 58.3626 47.4628 58.4524 47.4481 58.5399H47.4251ZM46.5512 62.4262C46.3706 62.4276 46.1932 62.4742 46.0352 62.5618C45.8773 62.6494 45.7438 62.7752 45.6469 62.9276C45.5501 63.0801 45.4931 63.2544 45.481 63.4347C45.4689 63.6149 45.5021 63.7953 45.5777 63.9593C46.076 64.9635 47.8237 64.6109 47.793 63.4994C47.7854 63.3461 47.7468 63.1961 47.6796 63.0582C47.6123 62.9203 47.5178 62.7975 47.4017 62.6971C47.2856 62.5968 47.1504 62.5211 47.0042 62.4745C46.858 62.428 46.7039 62.4115 46.5512 62.4262ZM47.2181 63.737C47.2205 63.8198 47.2052 63.9021 47.1732 63.9785C47.1413 64.0549 47.0934 64.1236 47.0328 64.18C46.9723 64.2365 46.9003 64.2794 46.8219 64.3058C46.7434 64.3323 46.6602 64.3417 46.5778 64.3334C46.4954 64.3252 46.4157 64.2995 46.344 64.258C46.2724 64.2166 46.2104 64.1603 46.1621 64.093C46.1139 64.0257 46.0806 63.9488 46.0644 63.8676C46.0483 63.7864 46.0496 63.7027 46.0683 63.622C46.0703 63.4811 46.1277 63.3465 46.2281 63.2476C46.3286 63.1486 46.4639 63.0931 46.6049 63.0931C46.6894 63.0882 46.7739 63.1017 46.8526 63.1328C46.9314 63.1638 47.0024 63.2116 47.0607 63.2729C47.1191 63.3342 47.1634 63.4075 47.1906 63.4876C47.2178 63.5678 47.2271 63.6529 47.2181 63.737ZM43.3318 19.6538C43.3318 19.7765 43.3778 19.8991 43.4238 20.1597C43.4321 20.2097 43.4503 20.2575 43.4772 20.3003C43.5041 20.3432 43.5392 20.3803 43.5806 20.4095C43.6219 20.4388 43.6686 20.4595 43.718 20.4706C43.7674 20.4816 43.8185 20.4828 43.8684 20.474C43.9676 20.4571 44.0563 20.4018 44.1151 20.32C44.1739 20.2382 44.1982 20.1366 44.1826 20.0371C44.1826 19.8991 44.1136 19.7075 44.0983 19.5695C44.0871 19.4679 44.036 19.3748 43.9562 19.3109C43.8765 19.2469 43.7745 19.2172 43.6729 19.2284C43.5712 19.2396 43.4782 19.2907 43.4142 19.3705C43.3503 19.4503 43.3206 19.5522 43.3318 19.6538ZM46.6432 19.5542C46.6562 19.6442 46.7014 19.7265 46.7705 19.7857C46.8396 19.8449 46.9278 19.8771 47.0188 19.8761C47.0743 19.8756 47.1291 19.8632 47.1795 19.8398C47.2299 19.8164 47.2747 19.7825 47.3109 19.7405C47.3472 19.6984 47.3741 19.6491 47.3898 19.5958C47.4055 19.5426 47.4097 19.4866 47.4021 19.4315C47.3407 19.0943 47.3254 19.0559 47.3101 18.964C47.2979 18.8623 47.2458 18.7697 47.1653 18.7064C47.0848 18.6432 46.9825 18.6145 46.8808 18.6267C46.7792 18.6389 46.6865 18.691 46.6233 18.7715C46.56 18.852 46.5314 18.9543 46.5436 19.0559C46.5665 19.1633 46.5972 19.2859 46.6432 19.5542ZM58.0722 68.8498C58.1642 68.9418 58.3098 68.8038 58.2178 68.7118C56.3628 66.4812 55.9182 64.2276 56.2478 61.4068C56.2521 61.3919 56.2528 61.3763 56.25 61.3612C56.2472 61.346 56.2408 61.3317 56.2316 61.3194C56.2223 61.3071 56.2103 61.2971 56.1964 61.2902C56.1826 61.2833 56.1674 61.2797 56.152 61.2797C56.1366 61.2797 56.1214 61.2833 56.1076 61.2902C56.0938 61.2971 56.0817 61.3071 56.0725 61.3194C56.0632 61.3317 56.0569 61.346 56.054 61.3612C56.0512 61.3763 56.052 61.3919 56.0562 61.4068C55.2743 64.2506 55.8186 66.8108 58.0722 68.8498Z" fill="black"/>
<path d="M73.7399 60.5559C73.6394 60.5451 73.5387 60.5745 73.4597 60.6377C73.3807 60.7009 73.3299 60.7927 73.3184 60.8932V61.3991C73.3184 61.5007 73.3587 61.5982 73.4306 61.6701C73.5025 61.742 73.6 61.7823 73.7016 61.7823C73.8033 61.7823 73.9008 61.742 73.9726 61.6701C74.0445 61.5982 74.0849 61.5007 74.0849 61.3991V60.9928C74.0924 60.9413 74.0893 60.8887 74.0758 60.8384C74.0623 60.7881 74.0387 60.741 74.0064 60.7001C73.9742 60.6592 73.9339 60.6254 73.8881 60.6006C73.8422 60.5758 73.7918 60.5606 73.7399 60.5559ZM77.9329 61.836C77.9823 61.8424 78.0324 61.839 78.0805 61.8258C78.1285 61.8127 78.1734 61.7901 78.2127 61.7594C78.2519 61.7288 78.2846 61.6906 78.309 61.6472C78.3333 61.6037 78.3488 61.5559 78.3545 61.5064V61.0081C78.3545 60.9065 78.3141 60.809 78.2422 60.7371C78.1703 60.6653 78.0728 60.6249 77.9712 60.6249C77.8702 60.6268 77.7738 60.6679 77.7024 60.7393C77.6309 60.8108 77.5899 60.9071 77.5879 61.0081V61.4144C77.5826 61.4648 77.5874 61.5157 77.6019 61.5642C77.6164 61.6128 77.6404 61.6579 77.6725 61.6972C77.7045 61.7364 77.7441 61.7688 77.7888 61.7926C77.8335 61.8165 77.8824 61.8312 77.9329 61.836ZM74.7441 64.4575C75.3709 64.6565 76.0375 64.696 76.6834 64.5725C76.7601 64.5725 76.7524 64.4499 76.6834 64.4575L76.2005 64.3885C75.7235 64.3489 75.2441 64.3489 74.7671 64.3885C74.6904 64.3272 74.6675 64.4499 74.7441 64.4575Z" fill="black"/>
</svg>
