<svg width="154" height="154" viewBox="0 0 154 154" fill="none" xmlns="http://www.w3.org/2000/svg">
<path d="M127.75 119.172C118.306 114.474 99.3885 114.573 93.1719 114.297C78.6078 113.699 60.2954 113.607 45.7543 114.98C39.9057 115.547 28.8293 116.513 23.5249 120.621C21.8922 121.878 22.2295 125.542 22.3981 126.477C22.5668 127.413 22.6357 128.011 23.4023 128.639C25.2969 130.021 27.3938 131.102 29.6188 131.843C27.9171 135.538 23.9925 145.832 24.0538 146.507C24.1305 147.634 26.2078 148.04 27.0433 147.971C27.8788 147.902 28.0321 147.779 28.3311 147.105C29.2586 144.943 32.9303 135.607 33.7964 133.108C47.2874 136.174 63.2772 136.35 65.2242 136.427C64.6493 137.753 63.1392 141.126 63.1546 141.425C63.1546 141.961 63.9211 142.598 64.3963 142.789C64.6941 142.933 65.0174 143.017 65.3476 143.035C65.6778 143.054 66.0084 143.007 66.3203 142.897C66.7956 142.628 69.3864 136.573 69.3864 136.573C69.3864 136.573 79.589 136.795 84.1575 136.764C85.3456 139.585 88.9406 147.113 89.4312 148.109C89.5291 148.399 89.695 148.662 89.915 148.875C90.135 149.089 90.4027 149.247 90.696 149.335C91.2249 149.489 92.758 149.596 93.1106 149.006C93.7008 148.017 89.6229 139.57 88.6264 136.695C94.1147 136.611 108.089 136.289 118.053 133.721C118.598 135.768 122.515 144.046 123.595 146.2C123.925 146.867 124.285 146.967 125.129 146.86C125.795 146.775 126.853 146.43 126.792 145.625C126.731 144.821 122.959 134.848 122.001 132.656C124.467 131.937 126.818 130.871 128.984 129.49C129.751 128.969 130.602 128.447 130.778 127.505C131.889 121.656 129.314 119.947 127.75 119.172ZM23.0343 121.472C24.0308 120.169 26.3611 119.287 27.8328 118.69C32.8996 116.674 37.9587 116.083 43.3397 115.501C61.4835 113.523 104.103 113.968 119.104 116.804C122.029 117.356 124.883 118.236 127.612 119.425C131.889 121.296 130.349 124.722 129.329 125.642C126.263 128.447 117.065 130.172 114.313 130.709C100.216 133.445 57.053 134.81 37.1385 130.272C33.6048 129.467 27.3499 127.367 25.4259 125.987C24.1995 125.09 21.7389 123.158 23.0343 121.457V121.472ZM27.9401 147.365C27.2886 148.262 24.3758 147.611 24.3604 146.369C25.9297 141.465 27.7488 136.645 29.8105 131.928C31.0376 132.388 32.292 132.772 33.5665 133.077C32.0181 137.209 28.3617 146.806 27.9401 147.35V147.365ZM66.7649 141.808C66.713 141.995 66.6224 142.168 66.499 142.318C66.3755 142.467 66.2221 142.588 66.0485 142.675C65.875 142.761 65.6853 142.809 65.4918 142.817C65.2982 142.825 65.1052 142.792 64.9252 142.72C64.2813 142.544 63.3922 141.954 63.5148 141.241C63.5915 140.804 65.0479 137.608 65.5001 136.481L69.1642 136.603C68.436 138.029 67.5008 140.221 66.7649 141.808ZM92.827 148.055C92.9216 148.299 92.9558 148.562 92.9266 148.822C92.781 149.243 91.8918 149.282 91.5009 149.282C91.0664 149.295 90.6395 149.166 90.2852 148.914C89.931 148.662 89.6687 148.301 89.5385 147.887C89.0939 146.975 85.5679 139.623 84.3568 136.81C85.7059 136.81 87.0626 136.81 88.4117 136.757C88.795 137.768 92.689 147.258 92.8576 148.048L92.827 148.055ZM121.771 132.763C123.304 136.596 126.332 144.989 126.37 145.334C126.485 145.832 126.57 145.932 126.048 146.246C125.527 146.561 124.423 146.913 123.994 146.484C123.848 146.331 118.82 135.875 118.237 133.714C119.487 133.43 120.652 133.108 121.802 132.755L121.771 132.763ZM130.31 128.256C122.982 134.71 102.968 136.166 93.1872 136.419C76.6225 136.833 58.77 135.998 55.4969 135.799C52.2238 135.599 43.0331 134.672 37.5601 133.698C34.1785 133.131 30.8734 132.177 27.7102 130.854C24.1075 129.321 22.7967 128.164 22.6664 126.845C22.5374 125.623 22.5041 124.393 22.5668 123.166C23.1773 124.571 24.2627 125.716 25.6329 126.401C35.5978 131.767 48.6288 132.372 57.1296 132.932C73.4481 133.844 89.8115 133.557 106.088 132.073C113.37 131.391 122.584 129.505 127.29 127.29C128.823 126.577 130.502 125.343 130.809 123.588C130.931 124.299 130.954 125.024 130.878 125.742C130.816 126.477 130.878 127.758 130.31 128.256ZM33.1142 101.404C35.7557 105.401 37.3382 110.004 37.7134 114.78C37.7134 114.934 37.974 114.941 37.9664 114.78C37.679 109.942 36.0638 105.277 33.2982 101.297C33.2215 101.182 33.0452 101.289 33.1142 101.404ZM55.4892 100.048C52.9214 103.19 53.366 107.575 55.5506 110.779C55.6656 110.94 55.9338 110.779 55.8265 110.618C53.8565 107.391 53.1513 103.336 55.6272 100.155C55.7039 100.086 55.5659 99.9479 55.4892 100.048ZM87.7142 77.2969C89.5737 82.4635 90.5607 87.9035 90.6347 93.394C90.6347 93.4306 90.6492 93.4657 90.6751 93.4916C90.701 93.5175 90.7361 93.532 90.7727 93.532C90.8092 93.532 90.8443 93.5175 90.8702 93.4916C90.8961 93.4657 90.9106 93.4306 90.9106 93.394C90.8804 87.8761 89.8601 82.4084 87.8982 77.2509C87.8598 77.1359 87.6759 77.1819 87.7142 77.2969ZM102.861 87.4381C98.3383 93.1411 97.9934 100.615 98.1313 107.583C98.1313 107.619 98.1459 107.654 98.1718 107.68C98.1976 107.706 98.2327 107.72 98.2693 107.72C98.3059 107.72 98.341 107.706 98.3669 107.68C98.3928 107.654 98.4073 107.619 98.4073 107.583C98.461 100.684 98.5759 93.2637 103.006 87.5837C103.091 87.4764 102.945 87.3231 102.861 87.4381ZM90.696 16.9403C90.6317 16.8502 90.5456 16.778 90.4457 16.7304C90.3458 16.6828 90.2354 16.6615 90.125 16.6684C90.0145 16.6753 89.9076 16.7102 89.8144 16.7698C89.7212 16.8295 89.6447 16.9119 89.5922 17.0093C89.5462 17.0782 89.6612 17.1702 89.7148 17.1012C89.7665 17.036 89.8311 16.9823 89.9047 16.9436C89.9783 16.9048 90.0591 16.8818 90.1421 16.876C90.225 16.8702 90.3083 16.8818 90.3865 16.91C90.4647 16.9383 90.5362 16.9825 90.5964 17.0399C90.6103 17.0455 90.6255 17.0469 90.6402 17.0438C90.6549 17.0408 90.6684 17.0336 90.679 17.023C90.6897 17.0123 90.6969 16.9989 90.6999 16.9842C90.7029 16.9695 90.7016 16.9542 90.696 16.9403ZM92.1754 17.2086C92.2429 17.1557 92.3234 17.1222 92.4084 17.1114C92.4934 17.1006 92.5798 17.113 92.6583 17.1472C92.8116 17.2162 92.8576 17.3465 92.9419 17.4922C92.9539 17.5122 92.9721 17.5277 92.9938 17.5364C93.0154 17.5452 93.0393 17.5466 93.0618 17.5405C93.0844 17.5345 93.1043 17.5212 93.1186 17.5028C93.1329 17.4844 93.1409 17.4618 93.1412 17.4385C93.1317 17.321 93.0882 17.2088 93.0159 17.1158C92.9436 17.0227 92.8456 16.9527 92.7341 16.9145C92.6227 16.8762 92.5024 16.8713 92.3882 16.9004C92.274 16.9295 92.1707 16.9913 92.0911 17.0782C91.9838 17.1396 92.0988 17.2699 92.1754 17.2086ZM91.5852 19.1632C91.4395 19.1095 90.903 19.1172 90.8186 19.0406C90.7343 18.9639 91.0716 17.9444 91.1099 17.5842C91.1099 17.4922 90.9796 17.4845 90.9566 17.5842C90.8682 17.8638 90.794 18.1478 90.7343 18.435C90.604 19.0022 90.3127 19.4392 91.5009 19.3395C91.5242 19.3507 91.5511 19.3521 91.5755 19.3435C91.6 19.3349 91.62 19.3169 91.6312 19.2935C91.6423 19.2701 91.6438 19.2433 91.6352 19.2188C91.6265 19.1944 91.6086 19.1744 91.5852 19.1632ZM92.4667 20.9109C92.5179 21.0035 92.5907 21.0825 92.6789 21.1411C92.7671 21.1996 92.8681 21.2361 92.9734 21.2474C93.0786 21.2587 93.1851 21.2444 93.2837 21.2059C93.3823 21.1673 93.4701 21.1056 93.5398 21.0259C93.6493 20.8076 93.6944 20.5627 93.67 20.3198C93.6456 20.0769 93.5526 19.8459 93.4019 19.6538C93.3482 19.5771 93.1796 19.5848 93.2026 19.7074C93.2296 19.877 93.2074 20.0508 93.1386 20.2082C93.0698 20.3655 92.9573 20.4998 92.8144 20.595C92.6715 20.6903 92.5043 20.7425 92.3326 20.7455C92.1609 20.7485 91.9919 20.7022 91.8458 20.6119C91.8388 20.6074 91.8309 20.6043 91.8226 20.6028C91.8144 20.6013 91.8059 20.6015 91.7978 20.6033C91.7896 20.6051 91.7818 20.6084 91.7749 20.6132C91.768 20.618 91.7622 20.6241 91.7576 20.6311C91.7531 20.6382 91.75 20.646 91.7485 20.6543C91.747 20.6625 91.7472 20.671 91.749 20.6792C91.7507 20.6873 91.7541 20.6951 91.7589 20.702C91.7637 20.7089 91.7698 20.7147 91.7768 20.7193C91.9778 20.8608 92.2215 20.9285 92.4667 20.9109ZM93.3942 20.0984C93.7085 21.0182 92.9573 21.2482 92.6737 20.8649C92.8506 20.8118 93.0103 20.713 93.1368 20.5784C93.2633 20.4438 93.3521 20.2782 93.3942 20.0984ZM50.7751 47.6935C50.5863 47.6903 50.3996 47.7333 50.2312 47.8188C50.0629 47.9043 49.918 48.0297 49.8093 48.1841C49.7403 48.2607 49.8552 48.3834 49.9242 48.299C50.1502 48.0437 50.4603 47.8778 50.7981 47.8315C50.8164 47.8284 50.8327 47.8182 50.8435 47.8031C50.8543 47.788 50.8586 47.7693 50.8556 47.751C50.8525 47.7327 50.8423 47.7163 50.8272 47.7055C50.8121 47.6948 50.7934 47.6904 50.7751 47.6935ZM53.4579 47.2029C53.8335 46.8886 54.0712 47.2642 54.1632 47.3485C54.1788 47.3631 54.1993 47.3712 54.2206 47.3712C54.242 47.3712 54.2625 47.3631 54.2781 47.3485C54.3471 47.2719 54.2091 46.9576 53.9179 46.8963C53.8131 46.8741 53.7045 46.8794 53.6024 46.9117C53.5003 46.9439 53.4083 47.002 53.3353 47.0802C53.319 47.0965 53.3099 47.1186 53.3099 47.1416C53.3099 47.1646 53.319 47.1866 53.3353 47.2029C53.3516 47.2192 53.3736 47.2283 53.3966 47.2283C53.4196 47.2283 53.4417 47.2192 53.4579 47.2029ZM52.8217 48.6056C52.7124 48.6211 52.6014 48.6211 52.4921 48.6056C52.4155 48.6056 52.3311 48.6976 52.4078 48.759C52.4968 48.828 52.6023 48.8727 52.7138 48.8889C52.8253 48.905 52.9391 48.8919 53.044 48.8509C53.0736 48.8391 53.0982 48.8173 53.1136 48.7894C53.129 48.7614 53.1342 48.729 53.1283 48.6976C52.8942 48.2783 52.6383 47.8715 52.3618 47.4788C52.3516 47.4626 52.3354 47.451 52.3167 47.4467C52.2981 47.4424 52.2784 47.4457 52.2622 47.4559C52.2459 47.466 52.2343 47.4822 52.23 47.5009C52.2257 47.5196 52.229 47.5392 52.2392 47.5555C52.4122 47.9169 52.6067 48.2676 52.8217 48.6056ZM52.1242 50.4913C52.4078 50.545 52.6837 50.2537 52.6148 50.0314C52.8331 50.0072 53.0403 49.9222 53.2126 49.7861C53.2299 49.7749 53.2421 49.7573 53.2464 49.7372C53.2507 49.7171 53.2468 49.6961 53.2356 49.6788C53.2245 49.6615 53.2069 49.6494 53.1868 49.6451C53.1666 49.6408 53.1456 49.6446 53.1283 49.6558C52.9113 49.793 52.6572 49.86 52.4007 49.8476C52.1442 49.8353 51.8978 49.7442 51.6949 49.5868C51.6827 49.5655 51.6625 49.5498 51.6388 49.5434C51.6151 49.5369 51.5898 49.5401 51.5684 49.5523C51.5471 49.5645 51.5315 49.5847 51.525 49.6084C51.5185 49.6321 51.5218 49.6574 51.534 49.6788C51.6106 50.0007 51.7332 50.4147 52.1242 50.4913ZM52.4691 50.0391C52.3465 50.4223 51.9709 50.3687 51.8022 49.8704C52.0036 49.983 52.2308 50.0411 52.4615 50.0391H52.4691Z" fill="black"/>
<path d="M71.7318 44.6657C71.7017 44.602 71.6485 44.5523 71.5829 44.5267C71.5174 44.501 71.4445 44.5014 71.3792 44.5277C71.3792 44.474 71.8008 43.7612 71.5632 43.6002C71.5236 43.5773 71.4786 43.5653 71.4329 43.5653C71.3871 43.5653 71.3422 43.5773 71.3026 43.6002C71.4099 43.3472 71.4636 43.0866 71.3026 42.964C71.2421 42.923 71.1691 42.9044 71.0964 42.9114C71.0236 42.9184 70.9556 42.9506 70.904 43.0023C70.95 42.8413 70.9653 42.4044 70.8043 42.3967C70.4057 42.3967 70.1681 42.941 69.9918 43.2246C69.8155 43.5082 69.7005 43.9911 69.4782 43.8148C69.2559 43.6385 68.6427 43.2323 68.3744 43.3396C67.8609 43.5389 68.4894 45.5089 68.4817 45.5242C68.1445 45.7005 68.0372 46.2907 68.0142 46.6203C66.7571 46.4747 66.1132 47.9311 64.0052 50.9436C61.8973 53.956 58.0723 54.8375 54.6382 54.347C54.6541 54.2657 54.6517 54.1819 54.6313 54.1016C54.6109 54.0214 54.5729 53.9467 54.5201 53.8829C54.4673 53.8191 54.401 53.7678 54.326 53.7327C54.251 53.6976 54.1691 53.6797 54.0863 53.6801C53.9666 53.1022 53.8999 52.5147 53.887 51.9247C53.887 51.6258 53.887 51.6641 54.3086 51.4418C54.5085 51.3555 54.6893 51.2305 54.8406 51.0739C54.9919 50.9174 55.1107 50.7324 55.1901 50.5296C55.5646 49.1407 55.5407 47.6744 55.1211 46.2984C55.2453 45.8958 55.3325 45.4827 55.3817 45.0643C55.558 45.1486 55.558 44.9799 55.581 44.9186C55.7261 44.1992 55.586 43.4516 55.1901 42.8337C54.9126 42.505 54.5314 42.2806 54.1093 42.1974C53.6413 41.2575 52.827 40.5358 51.8377 40.1841C50.8483 39.8324 49.7612 39.8782 48.8049 40.3118C47.0189 41.2163 45.1869 43.3012 46.2217 45.3479C45.8538 45.8845 45.5088 46.536 45.7005 47.0189C45.7935 47.2907 45.983 47.5188 46.2331 47.6601C46.4832 47.8014 46.7764 47.846 47.0572 47.7854C46.9125 48.0248 46.836 48.2991 46.836 48.5788C46.836 48.8585 46.9125 49.1328 47.0572 49.3722C47.6398 50.1847 48.207 49.9087 48.207 49.9087C48.2837 51.0739 49.3415 51.6794 50.453 51.7867C50.453 51.7867 50.131 53.0745 49.993 53.4424C49.7707 53.2431 49.3032 53.4424 49.2265 53.8104C47.1862 53.6973 45.2196 53.009 43.5542 51.8251C41.0093 50.0927 41.3926 47.7854 39.2386 42.0825C39.1726 41.837 39.0578 41.6073 38.9011 41.4071C38.7443 41.2069 38.5489 41.0404 38.3264 40.9173C38.3264 40.5187 37.6289 40.2964 37.5599 40.2811C37.9508 39.8749 38.9933 38.978 38.5181 38.6944C38.2268 38.5258 37.7515 39.0777 37.7515 38.7404C37.7515 38.1885 37.5829 37.4143 37.4066 37.4373C37.2303 37.4603 37.146 37.6213 37.0847 37.7669C36.939 37.0617 36.5174 37.261 36.4408 37.8665C36.3488 37.5906 36.2108 37.3606 36.0038 37.399C35.7969 37.4373 35.7126 37.8742 35.7432 38.2651C35.6589 38.1425 35.4903 37.9355 35.3293 38.0658C35.1683 38.1961 35.2833 38.6484 35.3293 38.9014C35.3965 39.4373 35.5601 39.9567 35.8122 40.4344C35.6307 40.596 35.4933 40.8011 35.4129 41.0304C35.3324 41.2597 35.3116 41.5056 35.3523 41.7452C34.5858 43.0943 34.7084 46.3444 34.6778 47.9541C34.5474 53.8487 36.4714 59.7893 41.9291 62.0889C41.4521 63.9057 40.8815 65.6967 40.2198 67.4546C40.0104 67.9936 39.9441 68.5777 40.0274 69.1499C40.1107 69.7221 40.3407 70.2631 40.695 70.72C39.8825 71.18 40.0128 71.7319 40.4421 72.2531C38.4383 74.8727 37.2949 78.0485 37.169 81.3442C37.2956 83.3877 37.2622 85.438 37.0693 87.4764C37.0693 87.5837 36.8854 87.5837 36.893 87.4764C37.0195 85.7898 37.0195 84.0962 36.893 82.4096C34.035 80.3704 31.3437 78.1071 28.8445 75.6412C28.5471 75.7776 28.2579 75.9312 27.9783 76.1011C27.6257 75.8021 27.2807 75.5032 26.9435 75.1889C26.9895 74.89 25.7553 73.8245 25.6097 73.7862C25.4856 73.7737 25.3602 73.7869 25.2415 73.8252C25.1228 73.8634 25.0133 73.9258 24.9198 74.0085C23.9616 74.7238 23.1009 75.5613 22.3596 76.4997C22.2983 76.6683 22.4746 76.86 22.6509 76.8906C23.538 76.8357 24.4211 76.7282 25.2954 76.5687C25.4947 76.9673 25.671 77.3889 25.8703 77.7951C25.648 78.0404 25.4564 78.2704 25.3031 78.4773C27.4417 84.4333 34.0722 93.716 37.6212 94.2372C38.5646 94.4135 39.5379 94.3368 40.4421 94.0149C43.5695 92.8498 46.9959 84.8165 46.9959 84.8165C47.8371 83.3363 48.5748 81.7996 49.2035 80.2174C49.212 80.1969 49.2277 80.1801 49.2475 80.1703C49.2674 80.1604 49.2902 80.1581 49.3117 80.1637C49.3331 80.1693 49.3519 80.1824 49.3644 80.2008C49.3769 80.2191 49.3824 80.2413 49.3798 80.2634C48.8969 81.988 47.8467 83.4598 47.0802 85.0772C47.3016 85.7259 47.5893 86.3501 47.9387 86.9398C48.8599 88.3603 49.9979 89.6277 51.3115 90.6958C51.4264 90.7725 51.3115 90.9565 51.2042 90.8798C50.5424 90.4363 49.9307 89.9222 49.3798 89.3467C46.5283 92.5508 43.8071 95.8137 41.2163 99.1353C41.4309 99.4113 41.6608 99.7026 41.9061 99.9938C41.6685 100.285 41.4079 100.561 41.1933 100.86C40.7415 101.303 40.3333 101.788 39.9745 102.309C39.9132 102.861 42.6803 105.191 42.849 105.229C42.9329 105.252 43.0218 105.249 43.104 105.22C43.1861 105.192 43.2576 105.139 43.3089 105.068C43.5312 104.639 42.8873 103.397 42.7876 102.539C43.0406 102.293 43.2859 102.04 43.5542 101.772L44.1521 102.37C45.4015 101.665 57.7733 94.5898 58.9538 92.4052C60.6785 89.1934 57.6583 77.7721 57.6583 77.7721C57.6583 77.7721 58.9998 77.7261 58.4249 76.3464C59.291 75.8635 59.4903 73.3876 59.567 72.0845C59.7203 69.4093 59.7203 66.7188 59.659 64.0436C64.1516 60.9816 67.6228 56.6426 69.6239 51.5874C70.0915 50.3457 70.812 48.9812 70.0608 47.8774C70.4901 47.5938 70.9653 47.1109 70.8273 46.6893C70.7568 46.4986 70.6379 46.3296 70.4824 46.1987C70.9346 45.9458 71.9541 45.1333 71.7318 44.6657ZM26.1693 77.5115C25.9623 77.1206 25.74 76.745 25.4947 76.3617V76.3081C25.4911 76.1546 25.5217 76.0022 25.5843 75.862C25.6469 75.7218 25.7399 75.5973 25.8566 75.4975C25.9733 75.3977 26.1107 75.3251 26.2589 75.285C26.4071 75.2449 26.5624 75.2382 26.7135 75.2656C27.0334 75.6149 27.3712 75.9475 27.7253 76.2621C27.1621 76.6199 26.6403 77.0389 26.1693 77.5115ZM42.6727 102.278C42.3666 102.282 42.07 102.172 41.8406 101.969C41.6111 101.767 41.4651 101.486 41.4309 101.182C41.6455 100.852 41.8985 100.553 42.1361 100.239C42.3354 100.469 43.1862 101.412 43.4009 101.627C42.688 102.209 42.6727 102.355 42.6727 102.278ZM48.9429 40.4957C50.8899 39.5299 52.8139 40.4038 53.91 42.1361C52.6057 41.903 51.2634 42.0082 50.0114 42.4417C48.7593 42.8751 47.6393 43.6224 46.7583 44.612C46.6433 44.7577 46.4823 44.9493 46.3214 45.1716C45.4628 43.2553 47.2718 41.3313 48.9429 40.4957ZM47.0189 47.3255C46.5973 47.6398 45.4858 47.0496 46.2524 45.7925C46.8 44.8955 47.5323 44.1253 48.4007 43.5332C49.269 42.9411 50.2534 42.5406 51.2885 42.3584C52.3693 42.1438 54.1246 41.9828 54.9448 42.8873C55.1883 43.1569 55.3562 43.4861 55.4316 43.8414C55.507 44.1968 55.4871 44.5657 55.3741 44.911C53.4041 44.1444 50.9895 43.9681 49.1882 45.0949C48.3883 45.7598 47.6612 46.5075 47.0189 47.3255ZM50.5909 51.7637C50.5909 51.7637 50.5909 51.6718 50.5373 51.6641C50.0094 51.6368 49.5058 51.4343 49.1059 51.0886C48.7061 50.7429 48.433 50.2738 48.3297 49.7554C48.0681 49.6877 47.8118 49.6005 47.5631 49.4948C47.4271 49.4011 47.3127 49.2794 47.2276 49.1378C47.1425 48.9962 47.0888 48.838 47.0699 48.6739C47.051 48.5098 47.0675 48.3436 47.1182 48.1864C47.1689 48.0291 47.2526 47.8846 47.3638 47.7625C47.4482 48.2377 47.7318 48.529 48.069 48.529C48.4063 48.529 48.3986 47.8468 48.3986 47.7088C48.9889 47.4692 49.497 47.0636 49.8616 46.5412C50.2262 46.0188 50.4316 45.402 50.453 44.7653C50.9516 45.2234 51.5499 45.5593 52.2006 45.7465C53.0773 46.0768 53.9958 46.2832 54.9295 46.3597C55.3281 48.1687 55.696 51.0202 53.818 51.4878C53.797 51.4915 53.7782 51.5031 53.7654 51.5202C53.7526 51.5373 53.7468 51.5586 53.749 51.5798C53.714 52.3032 53.7602 53.0283 53.887 53.7414C53.703 53.7414 53.1205 54.3853 52.5609 54.5079C52.1158 54.5781 51.66 54.5317 51.2381 54.3732C50.8163 54.2146 50.4428 53.9494 50.154 53.6034C50.344 53.0016 50.49 52.3867 50.5909 51.7637ZM50.016 53.7261C50.9819 54.6076 52.3156 55.0905 53.3811 54.3623C53.6494 54.163 54.0097 53.8257 54.1476 53.8794C54.2856 53.933 54.5232 54.1553 54.4083 54.5846C54.002 56.0333 52.1087 55.972 50.8975 55.5964C50.6019 55.5369 50.3244 55.4089 50.0874 55.2224C49.8504 55.036 49.6605 54.7965 49.5331 54.5233C49.4488 54.1936 49.5178 53.2431 50.039 53.7261H50.016ZM35.4519 38.6791C35.3523 37.9968 35.5823 38.2115 35.7892 38.9473C35.7952 38.9682 35.8077 38.9865 35.825 38.9995C35.8423 39.0126 35.8634 39.0196 35.885 39.0196C35.9067 39.0196 35.9278 39.0126 35.945 38.9995C35.9623 38.9865 35.9749 38.9682 35.9809 38.9473C35.9809 38.7097 35.8199 37.9202 36.0268 37.8205C36.2338 37.7209 36.3641 38.5871 36.4254 38.7864C36.434 38.8069 36.4496 38.8236 36.4695 38.8335C36.4893 38.8433 36.5121 38.8457 36.5336 38.8401C36.5551 38.8345 36.5738 38.8213 36.5863 38.803C36.5988 38.7847 36.6043 38.7624 36.6017 38.7404C36.6017 38.6561 36.5328 37.4603 36.824 37.8435C36.9145 38.1023 36.9612 38.3743 36.962 38.6484C36.962 38.794 37.1613 38.7634 37.1613 38.6484C37.1613 38.3571 37.215 37.4373 37.4986 37.9662C37.5556 38.3028 37.5762 38.6446 37.5599 38.9857C37.5599 39.3536 38.5027 38.5258 38.3264 39.139C38.2881 39.3 37.8359 39.6219 37.7362 39.7369L37.2993 40.2275C36.8433 40.0911 36.3534 40.1237 35.9195 40.3194C35.6664 39.8046 35.5056 39.2494 35.4443 38.6791H35.4519ZM36.6554 40.4114C37.008 40.4114 37.8895 40.4651 38.0888 40.8407C37.6356 40.7383 37.1645 40.7446 36.7142 40.8592C36.2639 40.9738 35.8471 41.1933 35.4979 41.4999C35.4988 41.352 35.5296 41.2057 35.5885 41.07C35.6473 40.9343 35.7331 40.8119 35.8405 40.7102C35.9479 40.6085 36.0748 40.5296 36.2136 40.4783C36.3523 40.4269 36.5 40.4042 36.6477 40.4114H36.6554ZM56.3322 77.6955C53.657 77.5268 49.0579 76.3004 44.2594 74.3534C41.6685 73.3109 39.4072 71.6705 40.8023 70.8734C41.8221 71.9163 43.0495 72.7337 44.405 73.2726C45.9848 73.9955 47.6109 74.6126 49.2725 75.1199C51.2195 75.7178 56.6925 77.3659 58.2792 76.561C58.8158 77.8028 56.8228 77.7261 56.3246 77.6955H56.3322ZM69.8998 50.3687C68.2671 55.1901 65.7376 59.2451 59.6973 63.9286C59.6513 62.1349 59.5823 60.3719 59.498 58.5629C59.498 58.4326 59.291 58.4249 59.2987 58.5629C59.406 61.859 59.5287 65.155 59.4903 68.4511C59.4903 70.0685 59.7356 75.5952 57.9573 76.3081C56.0256 77.0746 46.2907 74.4301 42.5194 72.0231C39.9668 70.3904 39.8058 69.0107 40.4191 67.3166C41.0552 65.6205 41.5977 63.8906 42.0441 62.1349C42.9775 62.4945 43.9648 62.6941 44.9646 62.7251C44.9836 62.7195 45.0002 62.7078 45.0121 62.692C45.0239 62.6761 45.0303 62.6568 45.0303 62.637C45.0303 62.6172 45.0239 62.5979 45.0121 62.582C45.0002 62.5661 44.9836 62.5545 44.9646 62.5488C43.955 62.4376 42.9572 62.2375 41.9828 61.9509C36.985 60.0039 34.8464 53.6954 34.8617 48.5137C34.8617 46.9269 34.9384 45.3249 35.061 43.7458C35.13 42.803 35.268 41.6762 36.2338 41.2316C36.4715 41.1013 36.7337 41.0219 37.0037 40.9984C37.2737 40.9749 37.5457 41.0078 37.8023 41.095C38.0589 41.1822 38.2946 41.3219 38.4943 41.5051C38.6941 41.6883 38.8536 41.911 38.9627 42.1591C40.672 46.4517 40.764 48.7743 41.6762 50.1924C43.7841 53.4578 47.6704 53.933 49.2188 53.9407C49.0579 55.1058 50.4453 55.7267 51.3575 55.8953C52.6376 56.1253 54.3776 55.995 54.6075 54.5156C57.1966 54.9691 59.8618 54.4475 62.0889 53.0515C63.1429 52.3215 64.0266 51.3723 64.6798 50.269C65.1167 49.6021 67.0637 46.536 68.1905 46.8809C68.6045 47.018 68.9892 47.2312 69.3249 47.5095C70.3214 48.2914 70.2601 49.2725 69.8922 50.3687H69.8998ZM70.5744 46.674C70.7737 47.1646 70.3291 47.6628 70.0301 47.8314C69.5663 47.2329 68.9118 46.811 68.1751 46.6357C68.1751 46.1374 68.3821 45.7081 68.9417 45.7081C69.269 45.7315 69.5864 45.831 69.8685 45.9987C70.1507 46.1664 70.3897 46.3976 70.5667 46.674H70.5744ZM70.4287 46.1604C69.9498 45.7124 69.3215 45.4583 68.6657 45.4475C68.6657 45.0029 68.4128 44.428 68.4051 43.9911C68.4051 42.9716 69.6009 44.3284 69.7695 44.0601C69.901 43.6803 70.0953 43.3253 70.3444 43.01C70.4364 42.9103 70.6204 42.6804 70.697 43.01C70.6093 43.3185 70.4885 43.6166 70.3368 43.8991C70.3266 43.9174 70.3241 43.939 70.3299 43.9591C70.3356 43.9793 70.3491 43.9963 70.3674 44.0065C70.3857 44.0166 70.4073 44.0191 70.4274 44.0133C70.4475 44.0076 70.4646 43.9941 70.4747 43.9758C70.4747 43.9758 70.8043 43.3396 70.858 43.2093C71.0803 42.895 71.2643 43.1019 71.1033 43.5005C71.0078 43.7632 70.8951 44.0192 70.766 44.2671C70.7558 44.2854 70.7534 44.307 70.7591 44.3271C70.7649 44.3472 70.7784 44.3642 70.7967 44.3744C70.815 44.3846 70.8366 44.387 70.8567 44.3813C70.8768 44.3755 70.8938 44.362 70.904 44.3437C70.9576 44.2594 71.3946 43.5772 71.5019 43.7918C71.6092 44.0065 71.088 44.7347 71.0036 44.8803C70.9193 45.0259 71.0036 44.9876 71.0803 44.934C71.1569 44.8803 71.5019 44.451 71.5555 44.8496C71.6092 45.2482 70.5591 46.0301 70.4211 46.1604H70.4287ZM115.746 23.8314C116.064 23.7793 116.354 23.6202 116.569 23.3803C116.783 23.1405 116.91 22.8344 116.926 22.5129C121.878 23.931 123.266 16.9173 119.563 13.7362C119.671 14.6943 119.655 15.9438 118.873 16.6643C117.969 17.5075 116.697 16.9862 115.876 17.8294C115.462 18.2434 115.11 19.0635 115.455 20.8496C115.285 20.8381 115.114 20.8604 114.952 20.9151C114.791 20.9699 114.641 21.056 114.513 21.1685C114.385 21.281 114.28 21.4178 114.205 21.5709C114.13 21.724 114.086 21.8904 114.075 22.0607C113.8 21.9674 113.51 21.9324 113.221 21.9579C112.932 21.9834 112.652 22.0688 112.398 22.2088C112.144 22.3487 111.922 22.5401 111.746 22.7706C111.57 23.0012 111.445 23.2658 111.377 23.5477C111.059 23.412 110.712 23.3564 110.367 23.3858C110.022 23.4152 109.69 23.5287 109.399 23.7164C110.929 21.2625 112.077 18.5899 112.803 15.7905C113.293 14.0581 113.975 12.2031 113.945 10.3788C113.945 9.7502 113.868 9.01433 113.37 8.67705C113.437 8.61643 113.489 8.5405 113.521 8.45564C113.553 8.37079 113.565 8.27948 113.554 8.18937C113.544 8.09927 113.512 8.013 113.461 7.9378C113.41 7.86261 113.342 7.80068 113.262 7.75722C113.638 7.38162 115.11 6.02486 114.796 5.57261C114.65 5.38097 114.412 5.44996 114.175 5.57261C114.435 5.08969 114.65 4.52246 114.29 4.37682C114.052 4.28483 113.753 4.54545 113.523 4.87506C113.669 4.39981 113.745 3.9169 113.454 3.82492C113.163 3.73293 112.856 4.17752 112.619 4.6451C112.671 4.38771 112.644 4.12052 112.542 3.87857C112.531 3.85906 112.513 3.8439 112.492 3.83555C112.472 3.8272 112.448 3.82615 112.427 3.83258C111.607 3.97822 111.453 5.80256 111.377 5.82556C111.3 5.84856 111.162 5.48062 110.917 5.36564C109.89 4.87506 110.971 6.84505 111.193 7.22831C110.725 7.30497 110.388 7.68056 110.603 8.53141C109.899 8.75394 109.308 9.24012 108.955 9.88817C106.241 14.3187 106.08 16.2887 105.26 17.5535C104.662 18.504 103.351 19.3395 102.194 20.1214C102.401 19.1249 101.374 18.5883 100.339 18.8413C100.742 17.3463 100.671 15.7631 100.135 14.3103C99.5998 12.8575 98.6263 11.6069 97.3493 10.7314C96.1458 9.87284 94.973 9.54323 93.8846 10.5321C90.4352 7.91052 86.1273 13.4142 89.1244 16.1124C88.812 17.0334 88.7185 18.0145 88.8516 18.9779C88.9847 19.9412 89.3405 20.8603 89.8909 21.6621C90.429 22.2724 91.175 22.6604 91.9836 22.7506C91.682 23.8564 91.2059 24.907 90.5732 25.8627C90.5195 25.5101 89.477 25.8627 89.339 25.8627C88.6798 25.9547 88.2736 26.6675 88.0666 27.1658C84.073 30.1093 83.6361 31.0751 81.8041 32.6695C80.4856 33.8116 78.1247 31.7726 76.8599 31.1364C75.7834 30.5407 74.5718 30.2319 73.3416 30.2396C72.8114 30.2242 72.2855 30.3373 71.8085 30.5692C71.716 30.333 71.5429 30.1372 71.3198 30.0165C71.0966 29.8958 70.838 29.8581 70.5897 29.91C70.536 28.3769 70.5284 28.1853 70.3751 28.0626C70.3579 28.0517 70.338 28.0459 70.3176 28.0459C70.2972 28.0459 70.2773 28.0517 70.2601 28.0626C69.9382 28.1929 69.8232 28.7678 69.6929 29.1128C68.9263 28.4076 68.6351 27.9476 68.3668 28.1009C68.0985 28.2542 68.2441 28.5685 68.4128 28.8675C67.9835 28.5455 67.4623 28.2466 67.2246 28.5225C66.987 28.7985 67.3396 29.1204 67.7076 29.4194C67.2936 29.2814 66.872 29.2277 66.7877 29.5114C66.7034 29.795 67.0637 30.0403 67.4469 30.2242C67.102 30.2242 66.8107 30.2779 66.8797 30.5692C66.9487 30.8605 67.5159 31.0444 67.7382 31.1441C68.2111 31.3497 68.7178 31.4666 69.2329 31.489C69.15 31.6136 69.1054 31.7597 69.1045 31.9094C69.1037 32.0591 69.1466 32.2057 69.2281 32.3312C69.3097 32.4568 69.4261 32.5557 69.5632 32.6158C69.7003 32.6759 69.8519 32.6945 69.9995 32.6695C69.931 33.1734 70.0601 33.6843 70.3597 34.0952C71.9925 36.4638 76.1011 38.6944 77.6188 39.5989C79.0472 40.2874 80.6481 40.5355 82.218 40.3118C83.4311 40.2419 84.6259 39.9833 85.7593 39.5452C85.6827 40.7027 85.6444 41.7069 85.6214 42.527C85.0618 62.5105 84.9392 66.5961 95.6783 74.2691C99.0253 76.6451 102.746 78.4456 106.686 79.5965L107.123 78.6C107.813 78.6613 108.497 78.7767 109.169 78.9449C109.461 79.6556 109.867 80.3134 110.373 80.8919C110.423 80.94 110.488 80.9704 110.557 80.9787C110.626 80.987 110.696 80.9727 110.756 80.9379C111.017 80.7386 111.132 77.1052 110.902 76.9213C110.469 76.8683 110.031 76.8683 109.598 76.9213C109.127 76.6618 108.687 76.3479 108.288 75.9861L108.548 75.3959C105.168 72.0231 100.469 68.6887 98.982 66.2818C97.3493 63.645 96.4754 59.3217 96.1152 58.6165C97.8169 62.4492 100.645 66.4888 106.126 68.4281C107.897 69.0567 111.63 69.8309 114.512 61.8896C115.984 57.8347 117.195 54.2243 118.191 51.1582L117.333 50.591C117.471 49.8934 117.632 49.2035 117.831 48.5213C118.518 48.1911 119.166 47.7849 119.763 47.3102C119.8 47.2721 119.826 47.2245 119.838 47.1727C119.85 47.1208 119.847 47.0667 119.831 47.0162C119.814 46.9656 119.784 46.9206 119.744 46.8859C119.703 46.8513 119.654 46.8283 119.602 46.8196C118.33 46.6456 117.041 46.6456 115.769 46.8196C115.706 47.2645 115.706 47.7161 115.769 48.161C115.534 48.5627 115.278 48.9516 115.002 49.3262L113.998 48.7743C112.879 50.4376 108.633 57.0145 107.659 58.5629C106.624 56.4856 103.374 48.9659 102.815 47.5172C103.222 42.0517 103.342 36.5685 103.175 31.0904C103.175 29.6723 103.528 29.726 104.708 28.7142C105.122 31.1594 107.621 30.1016 108.916 28.0473C110.449 29.0974 112.059 27.8097 111.936 26.0773C113.6 26.8285 115.301 25.74 115.746 23.8314ZM115.47 21.2175C115.631 21.2712 116.743 22.1373 116.735 22.6509C116.725 22.7632 116.693 22.8725 116.641 22.9723C116.588 23.072 116.516 23.1603 116.429 23.2317C116.342 23.3032 116.241 23.3565 116.133 23.3884C116.025 23.4202 115.912 23.4301 115.8 23.4174C115.227 23.0775 114.748 22.6008 114.405 22.03C114.383 21.8928 114.4 21.7524 114.452 21.6238C114.504 21.4952 114.59 21.3832 114.701 21.2998C114.812 21.2164 114.944 21.1646 115.082 21.1502C115.22 21.1357 115.36 21.1589 115.485 21.2175H115.47ZM69.3479 31.351C68.6747 31.2673 68.0136 31.1053 67.3779 30.8681C67.0177 30.6918 67.102 30.4695 67.217 30.4389C67.5899 30.4269 67.9623 30.4735 68.3208 30.5768C68.4358 30.5768 68.4817 30.4312 68.3744 30.4005C68.1445 30.3469 67.2016 30.1169 67.1173 29.772C66.987 29.2507 68.3744 29.9483 68.4817 30.0096C68.5891 30.0709 68.6657 29.91 68.5814 29.8486C68.3361 29.6877 67.5236 29.1894 67.5849 28.8445C67.6462 28.4995 67.9988 28.8905 68.1828 29.0054C68.865 29.473 68.9033 29.68 69.026 29.5344C69.1486 29.3887 68.8114 29.3197 68.6121 28.6988C68.5507 28.4535 68.4818 28.3692 68.7654 28.5379C69.2329 28.8215 69.7082 29.7107 69.8768 29.3964C70.0455 29.0821 70.1451 28.5072 70.3214 28.6298C70.413 29.1096 70.4363 29.6 70.3904 30.0863C70.1343 30.2226 69.9157 30.4201 69.7542 30.6612C69.599 30.8789 69.463 31.1097 69.3479 31.351ZM69.4169 32.1942C69.4225 31.5945 69.6553 31.0192 70.0685 30.5845C70.1556 30.4397 70.2812 30.3219 70.4314 30.2443C70.5815 30.1667 70.7503 30.1324 70.9188 30.1451C71.0873 30.1578 71.249 30.2171 71.3858 30.3163C71.5226 30.4156 71.6291 30.5509 71.6935 30.7071C71.3003 30.8689 70.9491 31.1178 70.6662 31.4352C70.3834 31.7525 70.1764 32.13 70.0608 32.5392C69.9303 32.5623 69.7959 32.5408 69.6791 32.4783C69.5623 32.4157 69.4699 32.3156 69.4169 32.1942ZM85.8053 39.3613C81.4055 40.6107 78.9066 40.1278 77.9101 39.5759C77.1435 39.162 76.377 38.6714 75.6105 38.1962C74.0305 37.2073 72.5426 36.0785 71.1646 34.8234C69.0183 32.7691 70.7353 30.5845 73.3032 30.4925C76.5763 30.3622 79.4355 33.6583 81.3365 33.2214C82.1796 33.0221 83.7357 30.9908 84.4026 30.3929C85.5294 29.381 87.9133 27.503 87.9133 27.503C86.7982 31.3713 86.0917 35.3457 85.8053 39.3613ZM88.4039 35.6513C88.1953 35.6848 87.9815 35.6449 87.799 35.5384C87.6166 35.4318 87.4768 35.2653 87.4035 35.0671C87.3302 34.8689 87.328 34.6515 87.3972 34.4519C87.4664 34.2522 87.6028 34.0828 87.783 33.9726C87.961 33.852 88.1795 33.8069 88.3907 33.8471C88.6019 33.8873 88.7886 34.0096 88.9098 34.1872C88.9842 34.3142 89.0303 34.4558 89.0448 34.6022C89.0593 34.7487 89.0419 34.8966 88.9938 35.0357C88.9458 35.1748 88.8681 35.3018 88.7663 35.4081C88.6645 35.5144 88.5408 35.5973 88.4039 35.6513ZM108.203 76.2774C108.607 76.6826 109.076 77.0169 109.591 77.2662C109.703 77.5136 109.729 77.7912 109.665 78.055C109.601 78.3188 109.451 78.5538 109.238 78.7226C108.597 78.5498 107.944 78.4268 107.284 78.3547C107.582 77.6572 107.889 76.9596 108.203 76.2697V76.2774ZM116.244 48.0691C116.477 47.9553 116.742 47.9298 116.992 47.9975C117.242 48.0652 117.458 48.2214 117.601 48.437C117.601 48.437 117.187 49.8168 117.064 50.476L115.263 49.4795C115.557 48.9848 115.885 48.5109 116.244 48.0614V48.0691ZM110.733 5.58027C111.032 5.51895 111.124 5.8179 111.338 6.00953C111.384 6.05552 111.492 6.00953 111.484 5.95587C111.51 5.47449 111.657 5.00754 111.913 4.59911C112.005 4.42281 112.205 4.05488 112.366 4.26184C112.527 4.4688 112.251 5.26599 112.189 5.52661C112.189 5.64926 112.343 5.70292 112.373 5.58027C112.404 5.45763 113.017 3.99355 113.293 4.15452C113.569 4.3155 112.994 5.50362 112.895 5.72591C112.795 5.94821 113.048 5.92521 113.109 5.8179C113.278 5.54961 113.684 4.79841 114.044 4.82141C114.405 4.8444 114.044 5.243 113.922 5.45763C113.799 5.67225 113.684 5.89455 113.561 6.10918C113.546 6.13561 113.542 6.16701 113.55 6.19648C113.558 6.22595 113.577 6.25107 113.604 6.26632C113.63 6.28156 113.661 6.28569 113.691 6.27778C113.72 6.26987 113.745 6.25059 113.761 6.22416C114.029 5.83323 114.933 5.36564 114.198 6.29314C113.837 6.7454 113.431 7.17465 113.063 7.59625C112.496 7.38417 111.903 7.25008 111.3 7.19765C110.771 6.13217 110.38 5.65692 110.733 5.58027ZM110.733 7.6959C110.978 7.31263 111.699 7.35862 112.626 7.62691C112.725 7.64899 112.817 7.69188 112.897 7.75269C112.978 7.81349 113.044 7.8908 113.092 7.97941C113.14 8.06802 113.168 8.16588 113.175 8.26638C113.182 8.36689 113.167 8.46772 113.132 8.56208C112.331 8.43611 111.516 8.41806 110.71 8.50842C110.619 8.23083 110.639 7.9291 110.764 7.66523L110.733 7.6959ZM92.2212 22.6279C92.2246 22.6148 92.2253 22.6012 92.2232 22.5878C92.2212 22.5744 92.2164 22.5616 92.2092 22.5501C92.2021 22.5386 92.1926 22.5287 92.1815 22.521C92.1704 22.5133 92.1578 22.508 92.1445 22.5053C88.5648 22.398 88.5878 16.8943 89.776 14.9089C91.0775 14.5964 92.26 13.9119 93.1794 12.939C93.0184 15.6295 94.4135 17.4462 94.7124 17.3235C94.8318 17.2343 94.9683 17.1706 95.1133 17.1364C95.2584 17.1021 95.4089 17.0979 95.5556 17.1242C96.0845 17.2162 96.6134 18.4886 96.0692 18.9409C95.8693 19.0933 95.6228 19.1719 95.3716 19.1632C95.4176 19.5388 95.5403 22.3213 95.5479 22.3903C95.6704 22.6223 95.8632 22.8096 96.0987 22.9253C96.3342 23.041 96.6002 23.0791 96.8587 23.0342C96.5041 24.347 95.7962 25.5374 94.8121 26.4759C92.9801 28.1546 91.1481 27.4187 90.6345 26.0006C91.4053 25.007 91.9471 23.8553 92.2212 22.6279ZM96.0538 43.0789C95.9542 43.2936 94.0072 45.1792 93.049 45.4629C92.0909 45.7465 89.8833 43.8608 89.7913 43.6845C89.6993 43.5082 89.6303 38.6024 89.6533 38.5718C89.6763 38.5411 96.0385 37.9279 96.1382 38.0965C96.2378 38.2651 96.1228 42.8567 96.0155 43.0789H96.0538ZM96.6671 26.3992C96.267 28.2804 96.0946 30.2029 96.1535 32.1252C95.7332 32.6621 95.1988 33.0988 94.589 33.4037C93.9791 33.7086 93.3091 33.8741 92.6275 33.8882C91.4469 33.877 90.3171 33.4069 89.477 32.5775C89.1168 30.4465 90.4122 25.9547 90.4352 25.947C92.0372 29.657 95.9849 26.9895 97.0887 23.0188C97.2113 22.9729 97.3263 22.9805 97.4489 22.9269C97.127 23.8927 96.828 25.4487 96.6287 26.3992H96.6671ZM98.6524 34.2945C98.5062 34.3653 98.3414 34.3879 98.1816 34.359C98.0218 34.33 97.8753 34.2511 97.7632 34.1335C97.6694 34.0184 97.6111 33.8785 97.5954 33.7308C97.5796 33.5831 97.6071 33.434 97.6745 33.3017C97.7419 33.1693 97.8463 33.0594 97.975 32.9853C98.1037 32.9111 98.2511 32.876 98.3994 32.8841C99.5339 33.0374 99.2043 34.0339 98.6447 34.2868L98.6524 34.2945ZM103.688 29.3274C103.509 29.4558 103.356 29.619 103.24 29.8072C103.125 29.9955 103.048 30.205 103.014 30.4235C102.96 30.8068 103.014 32.2402 103.014 32.5468C101.849 33.7963 99.9478 33.206 99.12 31.535C99.074 30.5692 99.2426 23.8697 99.4419 22.053C101.339 21.1059 103.113 19.9294 104.723 18.55C106.348 17.1549 105.934 15.4838 109.031 10.2944C109.621 9.29795 110.02 8.7997 111.239 8.76137C112.005 8.71538 113.101 8.58507 113.408 8.999C114.428 10.4094 112.864 14.9703 112.366 16.6643C109.936 24.6209 106.425 26.8745 103.65 29.3274H103.688ZM121.112 120.192C102.24 116.359 58.7468 116.597 37.4603 119.364C25.2954 120.935 26.3609 124.178 32.1329 126.094C36.4178 127.497 40.8253 127.742 45.3095 128.133C69.9918 130.318 106.969 130.027 122.806 124.914C123.979 124.538 127.535 121.503 121.112 120.192ZM51.5184 123.411C47.6589 124.734 43.4847 124.831 39.5682 123.687C39.4971 123.667 39.4369 123.619 39.401 123.555C39.365 123.49 39.3563 123.414 39.3766 123.342C39.3969 123.271 39.4447 123.211 39.5094 123.175C39.5741 123.139 39.6504 123.13 39.7215 123.151C42.5962 123.911 45.5954 124.077 48.5366 123.641C51.9477 123.128 52.3693 122.108 52.3693 121.671C52.3799 121.502 52.3433 121.332 52.2635 121.182C52.1836 121.032 52.0637 120.907 51.917 120.82C51.1346 120.613 50.307 120.653 49.5484 120.935C49.5159 120.948 49.4812 120.954 49.4463 120.952C49.4115 120.951 49.3774 120.942 49.346 120.927C49.3147 120.912 49.2868 120.89 49.2643 120.864C49.2417 120.837 49.2248 120.806 49.2147 120.773C49.2047 120.739 49.2016 120.704 49.2058 120.67C49.2099 120.635 49.2211 120.602 49.2388 120.572C49.2565 120.541 49.2802 120.515 49.3084 120.495C49.3366 120.474 49.3687 120.46 49.4028 120.453C52.2773 119.77 52.8982 120.713 53.0362 121.15C53.3121 121.963 52.6069 122.997 51.5184 123.411ZM101.289 121.372C101.036 122.729 98.1695 123.02 96.6901 123.02C96.0998 123.02 95.5249 122.982 94.7661 122.967C94.694 122.955 94.6285 122.918 94.5811 122.863C94.5338 122.807 94.5078 122.737 94.5078 122.664C94.5078 122.591 94.5338 122.52 94.5811 122.465C94.6285 122.41 94.694 122.373 94.7661 122.361C96.2991 122.361 98.0085 122.499 99.4572 122.001C100.078 121.794 100.461 121.533 100.515 121.288C100.569 121.043 100.461 121.004 100.285 120.828C99.8906 120.645 99.4626 120.546 99.028 120.537C98.2751 120.486 97.5188 120.543 96.7821 120.706C96.7108 120.712 96.6396 120.692 96.5816 120.65C96.5235 120.608 96.4824 120.547 96.4657 120.477C96.449 120.408 96.4578 120.335 96.4905 120.271C96.5233 120.207 96.5778 120.157 96.6441 120.131C97.0657 120.039 100.078 119.54 101.052 120.46C101.17 120.578 101.255 120.725 101.297 120.887C101.339 121.049 101.336 121.22 101.289 121.38V121.372Z" fill="black"/>
</svg>
