<svg width="154" height="154" viewBox="0 0 154 154" fill="none" xmlns="http://www.w3.org/2000/svg">
<path d="M55.9229 136.449C39.1408 137.304 11.4101 139.353 11.3511 140.639C11.2929 141.902 16.0654 139.835 48.3004 137.916C50.4199 137.79 52.5723 137.678 54.7447 137.577C55.0652 137.255 55.4484 136.891 55.9229 136.449Z" fill="black"/>
<path d="M92.6646 135.791C92.8792 136.053 93.1015 136.327 93.3414 136.633C93.3912 136.696 93.4326 136.753 93.4817 136.816C118.616 136.844 139.187 137.663 139.667 137.438C142.362 136.171 115.925 135.766 92.6646 135.792V135.791Z" fill="black"/>
<path d="M126.493 37.9309C126.354 37.9186 126.176 37.9002 125.975 37.8788C126.169 40.3892 126.327 43.2929 126.469 46.1598C126.306 56.0452 127.665 99.8491 124.633 100.291C116.403 101.493 86.9882 102.734 83.321 102.934C66.8891 103.831 35.7649 103.912 19.1714 102.488C14.0371 102.048 14.5744 102.348 14.4541 99.1438C12.3545 43.309 15.1754 33.002 15.1899 32.214C15.2068 31.2887 15.4237 29.4084 15.761 28.5253C15.8936 28.1781 16.0968 27.9021 16.5352 27.8431C17.6674 27.6913 16.5099 27.3801 25.8228 26.6511C46.6231 25.0207 78.9271 23.1365 104.226 24.7186C103.72 22.5501 103.669 20.2819 104.068 18.0635C72.5953 16.3947 20.0483 18.0205 11.6477 22.6413C10.0571 23.5159 9.70912 24.7393 9.21699 26.0961C5.12823 37.379 6.75638 103.508 9.29748 114.622C9.87086 117.131 10.1913 118.485 11.6401 119.542C13.3916 120.82 18.444 121.474 19.4014 121.513C20.0721 121.54 22.4254 122.044 25.257 122.409C27.5383 122.704 31.2737 122.89 31.3795 122.904C38.4624 123.781 46.8791 123.818 60.0944 123.998C60.4862 124.003 60.4463 123.956 60.3083 125.788C59.7855 132.718 60.2493 132.831 59.4099 133.257C53.7773 138.397 54.4143 137.74 51.7621 141.183C50.9955 142.179 50.022 143.626 50.0864 144.777C50.1224 145.417 50.1883 147.493 50.4528 148.037C51.4731 150.136 69.9178 149.374 72.531 149.196C78.1813 148.813 91.3989 148.752 96.3332 147.63C96.8 147.523 97.079 147.256 97.2354 146.816C97.5213 146.012 97.7705 143.565 97.3749 142.81C96.6137 141.354 95.5521 139.457 93.3398 136.633C87.8705 129.653 89.0433 134.733 88.2836 129.141C87.4941 123.325 87.5454 123.629 87.8153 123.634C87.642 123.64 114.994 122.366 125.845 119.753C127.682 119.31 129.426 118.856 130.434 116.942C134.244 109.706 134.722 58.5879 133.311 37.1214C131.569 37.5929 131.24 37.6036 126.492 37.9309H126.493ZM88.8302 137.041C89.0517 137.661 89.202 137.678 89.4434 137.657C90.095 137.602 89.553 136.282 88.9582 133.363C91.6051 135.675 94.4858 139.973 96.2335 142.47C96.8728 143.384 95.1696 143.266 84.5314 143.931C84.3842 143.94 56.4464 145.236 52.1438 144.658C50.2558 144.404 50.1753 144.747 54.7593 138.946C56.0762 137.279 59.1056 134.516 59.7303 134.11C60.0216 133.921 59.7441 134.418 59.587 137.805C59.5655 138.274 59.9741 138.665 60.0975 138.348C61.0741 135.842 61.4673 126.681 61.3416 126.681C61.3416 123.98 61.245 124.001 61.5739 124C73.0246 123.972 62.3381 124.42 81.5043 123.885C86.2845 123.752 84.6372 123.849 86.2845 123.72C86.5091 123.703 86.4362 123.847 86.5236 124.75C87.0265 129.945 88.3281 135.628 88.831 137.04L88.8302 137.041ZM129.733 115.95C128.869 118.16 127.428 118.462 121.014 119.797C117.032 120.626 92.3601 122.347 92.3418 122.348C89.8666 122.567 70.5019 123.077 70.5011 123.049C36.0194 123.049 29.1573 121.523 22.0582 120.691C14.0248 119.749 11.7075 119.797 10.7739 116.203C10.33 114.493 9.60103 111.6 9.56041 109.835C9.53894 108.867 9.35037 108.501 9.64166 108.618C13.0697 109.994 62.8333 110.377 85.5486 109.585C97.3343 109.174 94.5479 108.98 104.492 108.565C125.303 107.695 128.715 106.405 131.343 106.4C131.408 108.982 130.522 113.926 129.731 115.951L129.733 115.95Z" fill="black"/>
<path d="M90.3885 47.5092C90.0589 44.0743 88.8608 37.9012 84.5474 34.707C84.8126 34.1497 84.5865 33.4744 84.0353 33.1908C82.0845 32.1881 75.2055 29.0422 68.6407 30.6489C62.437 32.1667 58.3161 35.8967 56.832 37.4298C56.3706 37.9074 56.4081 38.6716 56.9087 39.1024C56.9784 39.1622 57.052 39.2251 57.1271 39.2894C55.1625 42.6684 54.7976 46.9473 55.9635 52.7294C56.0417 53.1165 56.0662 53.243 56.2142 53.3204C56.3828 53.4093 56.5729 53.3089 56.8228 53.2C57.1693 53.0498 57.1547 52.9103 57.0597 52.5293C56.1506 48.8637 56.1728 43.2778 58.0025 40.02C58.5614 40.4707 59.2106 40.3672 59.6023 39.9579C60.874 38.6287 64.4362 35.4345 70.0282 34.4709C75.6455 33.5035 80.602 35.4544 82.4716 36.3375C83.0419 36.6058 83.708 36.3766 83.9901 35.8147L84.0054 35.784C87.1621 38.3803 89.0762 43.5446 89.1168 47.2125C89.1245 47.8342 89.474 47.7828 90.213 47.7177C90.318 47.7085 90.3969 47.6149 90.387 47.5084L90.3885 47.5092ZM82.8004 35.6453C80.8649 34.7308 75.7344 32.7117 69.8994 33.7166C64.0828 34.7185 60.3742 38.0453 59.0496 39.429C58.9132 39.5715 58.6871 39.5869 58.5338 39.4627C58.1865 39.1837 57.7534 38.8165 57.4092 38.5206C57.2414 38.3765 57.2291 38.1212 57.3839 37.9618C61.1584 34.0623 67.1061 30.9639 72.5333 30.9639C77.5595 30.9639 82.165 33.0904 83.6858 33.8715C83.8721 33.9673 83.9472 34.1973 83.8529 34.3835L83.3079 35.4697C83.2136 35.6568 82.9921 35.7334 82.8012 35.6437L82.8004 35.6453Z" fill="black"/>
<path d="M37.0964 71.8495C36.9822 72.4167 36.5629 72.3324 36.4357 71.9315C35.86 70.1194 36.116 69.4525 34.4564 68.2168C34.2778 68.0842 33.4346 67.4426 33.3327 67.218C33.2047 66.9367 33.5144 66.6561 33.7451 66.7634C36.021 67.8266 37.5909 69.3858 37.0964 71.8495Z" fill="black"/>
<path d="M85.284 51.6223C85.0962 55.5945 85.1215 55.9916 81.4681 56.8371C77.0873 57.8505 77.364 57.2503 76.5155 55.0993C75.7627 53.1899 76.0579 52.6433 75.6186 52.4762C75.3051 52.3574 75.3626 52.0569 74.4634 51.981C72.6137 51.8254 72.1224 52.3183 70.9787 53.3838C70.8461 53.5072 70.9028 54.3558 70.9143 54.4669C71.0707 55.9847 70.9511 56.6478 70.8951 57.5393C70.8039 58.9834 69.2149 59.2755 67.6764 59.4403C64.8524 59.7431 63.6351 60.5257 62.4393 57.189C62.0116 55.9962 60.8004 52.8472 61.8943 52.2087C63.4627 51.2934 68.0597 50.277 68.2459 50.2471C71.5007 49.7327 70.3601 52.1458 70.9864 51.6322C73.4447 49.6177 74.9241 50.9362 75.2192 50.7791C75.3718 50.6978 74.8498 49.3203 76.284 48.7761C77.1286 48.4557 77.6338 48.346 81.2013 47.8248C85.2196 47.2376 85.1092 47.8846 85.284 51.6223ZM83.9916 51.5701C83.8628 48.402 84.266 48.7853 81.7992 49.0183C81.7808 49.0198 77.4836 49.5932 76.9002 49.8262C76.4971 49.9872 76.5937 50.2532 76.8059 51.0957C77.4238 53.5448 77.9588 56.1717 78.8703 56.0039C82.6271 55.3124 82.3389 55.2764 83.1254 55.0273C83.8084 54.8104 83.7463 54.2439 83.9916 51.5701ZM69.5935 55.1737C69.5667 54.135 69.7246 54.4807 69.3214 51.6721C69.2578 51.2275 68.8929 51.0995 63.0418 52.894C62.5911 53.032 62.4079 53.0802 62.611 53.7709C63.9939 58.4691 64.2507 58.7489 66.0099 58.3855C69.8488 57.5914 69.6832 58.6492 69.5935 55.1737Z" fill="black"/>
<path d="M78.4405 69.0761C77.7008 70.5041 76.0804 70.8177 75.5139 70.4658C75.1123 70.2159 75.4434 69.9607 75.8995 69.8832C77.8971 69.5444 78.4022 67.1137 78.2412 65.0938C77.7046 65.543 76.2736 67.3436 73.698 66.9059C73.3009 66.8385 72.8916 66.1471 74.0881 66.1816C75.4334 66.2207 76.8768 65.5001 77.5176 64.2683C77.8687 63.5929 77.8848 63.2119 78.4053 63.1368C79.7191 62.9467 79.4263 67.1719 78.4405 69.0761Z" fill="black"/>
<path d="M73.3014 53.9993C73.9 54.115 73.2055 55.1108 73.1227 58.0175C73.1043 58.6745 73.2017 59.3322 73.3987 59.9561C74.1614 62.3731 77.0206 59.6764 77.8975 59.8197C79.541 60.088 73.424 64.718 72.2182 60.2099C71.7889 58.6055 72.5846 53.8613 73.3021 54.0001L73.3014 53.9993Z" fill="black"/>
<path d="M79.8522 44.3049C80.132 44.8354 79.4528 45.1113 79.0427 44.9987C77.9749 44.7043 76.9937 44.4713 76.028 44.6185C75.6087 44.6821 75.138 44.2474 75.4745 43.8136C76.1276 42.9711 79.3547 43.3621 79.8522 44.3049Z" fill="black"/>
<path d="M66.3481 45.0285C67.1177 44.9855 67.2158 45.5413 66.7574 45.8931C65.9756 46.4933 65.4834 46.4014 64.3627 47.6294C64.0806 47.9391 63.8499 48.1989 63.4827 47.9797C62.4694 47.3741 64.6395 45.1235 66.3481 45.0285Z" fill="black"/>
<path d="M80.5055 52.6395C80.4971 51.692 79.532 51.3471 79.0276 52.0937C78.7018 52.572 78.9816 53.5885 79.7152 53.5885C80.1698 53.5885 80.5684 53.1608 80.5055 52.6395Z" fill="black"/>
<path d="M66.5936 54.2841C66.4349 54.652 66.5629 55.3281 66.8381 55.5749C67.1486 55.854 67.6737 55.8394 67.8837 55.4377C68.5766 54.1154 67.0267 53.2707 66.5936 54.2841Z" fill="black"/>
<path d="M119.126 93.4622L118.555 94.2088C121.877 97.0021 123.195 98.7644 123.754 98.4555C124.427 98.0845 121.632 95.5525 119.126 93.4622Z" fill="black"/>
<path d="M109.035 86.4437C98.3583 80.6746 88.2376 79.5892 87.9517 76.9921C87.9494 76.973 87.6642 75.5211 87.609 74.5461C87.4825 72.2985 87.7523 72.3422 88.2552 68.0327C88.2713 67.8962 88.7489 63.8466 88.837 63.7415C88.8424 63.7354 90.1463 63.4449 90.4207 63.3736C90.9504 63.2364 91.4609 63.0248 92.022 63.0149C92.1661 63.0118 92.3133 62.9282 92.4498 62.8631C95.5581 61.3821 95.194 60.1786 95.0691 56.2983C95.0691 56.2799 94.7195 52.9179 94.6406 52.5721C94.3378 51.2537 94.0856 49.9858 93.2968 49.0131C92.2627 47.7367 91.5912 47.483 90.9205 47.3397C90.3609 47.2201 88.7343 46.984 88.1824 47.1335C87.1774 47.4056 88.2997 44.505 85.2212 40.4093C81.9365 36.0392 77.3595 35.8637 74.186 35.4582C73.9944 35.4336 73.7936 35.5034 73.5958 35.5118C73.2455 35.5279 73.06 35.2918 73.0209 35.0871C72.3693 31.6423 72.7043 31.6078 72.5862 30.1429C72.5372 29.5335 71.9377 29.5979 71.4939 30.0187C70.0513 31.387 70.2383 31.2958 69.4066 32.6526C68.9612 33.3793 68.9781 33.1186 69.0271 29.5596C69.0371 28.8428 68.4714 28.6964 68.0996 29.0107C67.6434 29.3963 67.1545 29.7458 66.7214 30.1552C65.8069 31.0183 64.6264 32.4456 64.4363 33.9856C64.3251 34.8886 64.1013 36.1274 64.5467 37.4359C64.7774 38.1135 64.6394 37.5501 62.654 39.0111C61.3954 39.9379 59.932 41.7623 59.7335 42.0489C55.4791 48.1829 58.7646 51.6362 57.9375 51.9198C56.5761 52.3874 56.0172 52.5875 55.2599 52.9738C52.8997 54.1765 52.7065 57.2826 53.2776 59.9103C53.7199 61.9455 54.3247 64.7695 55.2001 66.4751C56.9609 69.9061 62.2079 67.2577 62.6786 68.2082C63.9894 70.8544 64.9514 72.3721 67.3116 74.1475C67.652 74.4035 67.9501 74.7224 68.3663 74.8734C68.4821 74.9155 68.486 75.0114 68.4423 75.1386C67.3446 78.3428 67.9693 78.1305 67.1652 78.27C59.8408 79.5432 45.2181 84.1716 40.1765 87.3252C37.016 89.3029 37.0712 89.3481 37.0973 89.1159C37.2575 87.7146 38.2816 81.8329 39.1225 79.3194C39.1593 79.209 40.2256 76.0776 40.5536 75.7733C44.3151 72.2817 44.0031 73.1249 46.2913 67.2531C47.3867 64.4422 47.6856 64.0719 47.6251 63.4043C47.5408 62.4737 46.5021 62.6523 45.8658 63.3353C44.4002 64.9082 44.1672 65.9369 43.5248 66.9626C43.3692 67.211 43.1982 67.1941 42.6563 67.273C42.3382 67.3198 42.5045 67.0117 42.4248 66.5057C41.7817 62.4162 43.6191 61.028 44.7275 55.6583C44.8908 54.8695 43.7923 53.7381 42.7782 55.2275C40.2079 59.0004 39.505 63.1314 38.9769 62.5572C38.9194 62.4944 38.8596 62.4054 38.8573 62.3265C38.8312 61.3169 39.1447 58.5512 39.1486 58.5321C39.2773 57.9395 39.4835 53.7089 39.0343 52.9501C38.4909 52.0302 37.5534 52.3889 37.223 53.3295C35.9099 57.071 36.3529 56.2332 35.5343 61.1184C35.5036 61.3016 35.4454 61.3461 35.2154 61.3729C35.0613 61.3905 34.9356 61.3691 34.8942 61.1958C33.7934 56.6441 34.4327 55.0389 33.2277 54.1428C32.7302 53.7733 32.0135 53.9036 31.8234 54.52C31.1603 56.6678 31.631 58.1066 31.9208 61.2434C32.0488 62.6323 32.0442 62.6201 31.8863 62.696C31.5268 62.8684 31.5344 62.6201 28.6698 58.102C27.9776 57.0105 27.162 57.1385 26.8899 57.7464C26.3602 58.9261 28.5019 63.2854 29.2095 64.2605C29.6104 64.8132 29.5483 65.1489 29.7162 66.9726C30.2213 72.4802 32.3117 73.9543 32.1001 74.4303C31.9338 74.8044 31.8732 75.2191 31.6249 75.5633C29.2562 78.8433 30.2037 78.1657 25.3169 82.7788C23.2357 84.7435 18.5958 88.6996 16.5859 92.261C16.3314 92.711 16.6764 92.9939 17.0972 92.6734C17.1447 92.6374 17.9818 91.8057 18.3252 91.4224C26.3487 82.4707 29.152 82.404 32.8966 74.7699C33.2231 74.1038 32.9318 73.5128 32.5079 72.8972C31.0316 70.7539 30.9396 68.4175 30.807 67.4999C30.3072 64.0443 29.2647 63.1283 27.5714 58.7191C27.3552 58.1557 27.6948 57.8882 27.8335 58.0507C28.3992 58.7183 27.9125 58.0024 29.6472 60.8624C31.4309 63.8029 31.3022 63.819 32.4918 63.2678C33.5589 62.7734 31.7782 57.0902 32.4604 54.7744C32.5401 54.5054 32.6122 54.4862 32.8445 54.6234C33.7973 55.1853 33.5872 59.7984 34.2825 61.7523C34.4051 62.0973 34.7662 62.1893 35.1203 62.1594C35.3587 62.1395 35.5902 62.036 35.8233 61.9639C35.995 61.911 36.1153 61.7968 36.1674 61.6228C36.678 59.9165 37.3042 53.1133 38.1957 53.4399C39.0895 53.7672 38.4472 57.0503 38.1091 61.051C37.9366 63.0946 37.8715 63.1551 39.3578 63.4142C39.8553 63.5008 40.027 62.1701 43.0227 56.188C43.3592 55.5157 43.8567 55.2758 43.8513 56.0285C43.8414 57.429 41.2941 61.9961 41.3562 65.2524C41.3578 65.3505 41.3478 65.2547 41.6973 67.2822C41.7855 67.7912 41.5126 67.2347 39.4245 68.9916C38.4188 69.8379 38.4594 70.583 38.8826 70.3193C39.3379 70.0365 39.8047 69.7674 40.2309 69.4454C42.9116 67.421 43.6382 68.7142 44.2883 67.4087C45.2856 65.4057 45.57 65.047 46.6286 63.75C46.6653 63.7048 46.7604 63.7063 46.8279 63.6864C46.9574 64.1333 46.1073 65.7522 45.5401 67.306C42.9936 74.2785 40.1842 73.8301 39.3226 76.3252C38.4127 78.9606 37.86 80.2661 36.458 87.4601C36.4534 87.4816 33.7919 101.814 33.7835 102.114C33.7674 102.66 34.1813 102.813 34.4189 102.253C34.7639 101.438 35.5159 98.0347 35.66 97.3816C36.4879 93.6263 36.5975 90.6359 37.0628 90.255C41.6529 86.4958 55.2913 82.3787 61.0336 80.6118C61.5617 80.4493 61.2405 80.7551 62.1734 82.1311C67.2426 89.608 71.8802 91.7413 76.8543 94.1337C77.2912 94.3438 78.0264 94.655 78.7661 94.1927C80.2179 93.2851 83.4581 90.3109 85.9563 88.2788C92.2819 83.1345 92.17 80.69 92.8024 80.9C98.5369 82.801 103.381 84.5771 108.219 87.2056L109.034 86.4429L109.035 86.4437ZM91.2202 48.4213C94.5555 50.028 93.8863 58.2523 94.1829 58.2829C93.9737 60.1533 94.1101 61.1951 92.5487 61.7102C92.2857 61.7968 92.8231 61.5829 92.1355 55.5249C91.8304 52.8358 91.9247 51.594 91.3636 49.6424C91.1198 48.7954 90.5196 48.084 91.2202 48.4213ZM88.8278 48.1936C90.305 48.2542 90.7373 49.6301 91.4548 59.2634C91.49 59.7409 91.4333 60.2315 91.4785 60.2315C91.4785 62.0421 91.487 61.9425 89.057 62.5427C88.9221 62.5756 88.8876 62.5189 88.8922 62.41C89.5637 47.089 85.9571 48.0763 88.8278 48.1936ZM55.7474 65.1681C54.6513 62.2728 52.7119 55.0496 55.424 54.0232C55.4301 54.1788 55.4485 54.0278 55.3465 54.6004C54.9134 57.0342 58.1191 67.2186 58.1199 67.237C56.757 67.191 56.2993 66.6268 55.7474 65.1681ZM60.3958 67.0791C58.7423 67.3175 58.6343 65.6679 57.6883 61.7531C55.7643 53.7871 55.6738 53.5625 58.5791 52.8665C59.0589 52.7515 58.9033 52.737 59.0681 53.8492C60.359 62.5542 61.2421 63.8136 62.0255 66.6744C62.1129 66.994 61.9979 66.8476 60.3958 67.0791ZM91.3873 80.6976C86.7788 86.4514 83.9725 89.0017 78.0494 93.3902C77.8915 93.5074 77.7619 93.5258 77.5871 93.4431C69.7017 89.736 67.1399 87.1696 63.1822 81.8674C61.9481 80.2139 62.0009 80.3481 62.4088 80.2461C65.9977 79.3462 67.7968 79.3056 68.0582 78.9031C68.4783 78.2585 69.0416 76.9691 69.2494 76.4264C69.4111 76.0033 69.4886 75.5472 69.5883 75.1026C69.6503 74.8243 69.5568 74.6051 69.3169 74.425C63.7617 70.2634 62.5015 65.7123 60.2494 55.7825C59.0681 50.5722 60.1137 47.3795 62.2516 44.7526C63.4812 43.2425 64.3635 42.3977 65.9433 41.4012C66.9904 40.7404 67.0747 40.5526 67.3607 40.6324C69.3138 41.1766 71.8181 40.3127 73.5797 39.3085C74.2565 38.923 76.7048 39.2909 77.4553 39.4994C83.5563 41.1935 86.1142 45.4011 87.3047 50.8865C88.6914 57.2749 87.9294 61.2089 87.5308 64.7212C86.9084 70.199 86.1158 70.9808 86.4185 74.9891C86.7075 78.8158 87.4978 78.979 89.2655 79.659C91.4349 80.4937 91.6664 80.3489 91.3866 80.6969L91.3873 80.6976Z" fill="black"/>
<path d="M46.0752 88.0036C40.1045 89.6387 38.5936 97.2176 43.4896 100.833C47.4925 103.788 53.4785 101.961 55.0591 97.3594C57.0729 91.4968 51.7407 86.4521 46.0752 88.0036ZM48.8209 101.302C40.1083 101.995 38.6649 90.5271 46.6462 88.6744C49.448 88.0236 52.9013 89.3068 54.3294 92.7332C55.9537 96.6296 52.8875 100.978 48.8209 101.302Z" fill="black"/>
<path d="M92.9246 86.5318C89.3571 87.0439 86.4365 90.3431 86.7163 94.3399C87.2107 101.407 96.824 103.425 100.539 97.3931C103.636 92.3653 99.8358 85.5399 92.9246 86.5318ZM95.7049 99.8683C91.0466 101.002 86.9861 97.0726 87.5128 92.9762C88.0118 89.0898 91.8361 86.5449 95.6244 87.3819C102.598 88.9227 102.562 98.1995 95.7049 99.8683Z" fill="black"/>
<path d="M118.512 89.0155C114.34 82.2568 103.319 86.2644 104.793 94.3124C106.299 102.54 119.207 102.183 119.583 92.6505C119.468 91.588 119.438 90.5164 118.512 89.0155ZM113.131 99.1792C109.13 99.8652 105.346 96.494 105.421 93.1418C105.579 86.0712 114.654 84.059 117.926 89.6287C120.38 93.8064 117.622 98.4096 113.131 99.1792Z" fill="black"/>
<path d="M42.3267 95.3525C42.3857 96.4241 42.4394 97.1685 43.4551 97.5287C44.5236 97.9082 46.079 97.5548 46.3986 96.5115C46.6569 95.6691 46.1641 95.4644 46.5849 95.2843C46.9191 95.1409 47.3353 94.911 48.4085 94.8864C49.7293 95.0367 49.8903 94.9646 49.8926 95.4644C49.8964 96.2632 49.7546 96.6717 50.3471 97.0412C50.8891 97.3793 51.8794 97.4858 52.9074 97.0236C53.943 96.5583 54.4965 94.3613 52.843 93.1303C49.2073 90.4228 42.165 92.422 42.3275 95.3517L42.3267 95.3525ZM53.1174 95.4138C52.9886 96.3199 52.0174 96.339 51.1627 96.2938C50.1432 96.2402 52.16 94.0609 48.3893 93.9995C47.6044 93.9865 46.1395 94.2356 45.6873 94.96C45.5148 95.236 45.5615 95.768 45.5753 96.0807C45.6068 96.8143 44.3964 96.8434 43.7011 96.6089C43.1323 96.4172 42.7307 95.4721 43.4911 94.1981C43.5501 94.0992 44.5305 93.3296 45.143 93.1609C46.5274 92.7807 47.7554 92.5523 49.9523 92.7355C51.5406 92.8681 53.3397 93.847 53.1174 95.4138Z" fill="black"/>
<path d="M97.2509 92.5386C96.9159 92.4144 96.653 92.8843 96.6668 93.1365C96.7503 94.6658 96.7887 94.1844 96.6108 95.0812C96.3364 96.4671 94.2682 96.0279 93.7478 96.1521C93.2211 96.2778 92.7543 96.1191 92.2791 95.9513C91.1584 95.5557 91.5593 92.9035 91.12 92.7402C90.8172 92.6283 90.503 92.8667 90.5129 93.2147C90.5183 93.4117 90.5604 93.6079 90.5834 93.8042C90.7942 95.6439 90.667 96.9386 93.307 97.1026C93.6129 97.1218 93.6152 97.0873 93.6266 97.3648C93.6404 97.7044 93.7079 97.8822 93.4588 97.8814C92.7919 97.8791 92.3733 97.8324 91.8329 98.0493C91.5953 98.1444 91.5447 98.5591 91.8575 98.6434C92.2277 98.743 92.1403 98.7216 94.1479 98.7216C94.1479 98.6311 96.1517 98.8917 96.5986 98.5522C96.988 98.2563 96.5863 97.8584 96.1946 97.8646C95.5078 97.8761 94.8531 97.8922 94.847 97.8017C94.7972 97.0421 94.8455 97.0674 94.9919 97.0336C96.9504 96.5852 97.7338 96.3046 97.5192 92.8805C97.5085 92.7034 97.395 92.5907 97.2524 92.5378L97.2509 92.5386Z" fill="black"/>
<path d="M93.2449 95.4446C96.9458 96.6159 95.6817 92.2152 95.9584 92.2144C95.9584 90.4437 96.0029 90.3295 95.7614 89.5261C95.4694 88.5549 94.0099 88.2789 93.2518 88.6791C92.2522 89.2065 92.2936 89.8757 92.2729 92.6728C92.2629 94.0457 92.2269 95.1227 93.2456 95.4454L93.2449 95.4446ZM93.7945 89.3184C95.0731 89.1175 95.0416 89.8473 95.2218 91.7798C95.0669 94.5501 95.2233 94.7072 94.1885 94.7364C92.7182 94.7777 93.3276 94.0288 93.0854 91.4624C93.0095 90.6606 92.9988 89.4433 93.7945 89.3184Z" fill="black"/>
<path d="M117.078 90.8415C116.65 90.433 116.293 90.8546 115.156 91.7177C114.785 91.9998 115.095 90.9925 114.228 90.6851C114.096 90.6376 114.177 90.564 114.204 90.5081C114.409 90.0734 114.533 89.6449 114.416 89.1428C113.84 86.6577 110.3 88.0827 111.345 90.377C111.432 90.5679 111.425 90.5709 111.239 90.5939C110.766 90.6522 110.76 90.6499 110.904 90.2053C111.18 89.3521 110.759 88.3809 109.738 88.1057C108.77 87.8451 107.751 88.712 107.731 89.7913C107.714 90.7319 108.379 90.8262 107.954 90.9925C107.621 91.1228 107.36 91.2854 107.292 91.6341C107.079 92.7311 107.241 95.0851 107.401 95.509C107.539 95.8724 107.775 96.1698 108.179 96.2081C108.907 96.2779 109.636 96.3921 110.373 96.2403C110.704 96.1721 114.675 96.6014 114.864 95.6723C115.094 94.5432 115.032 94.6122 115.273 94.7387C117.617 95.9705 117.347 96.0088 117.347 93.3949C117.366 93.3949 117.443 91.1903 117.078 90.8415ZM112.82 88.4652C113.288 88.4606 113.745 88.9359 113.748 89.4295C113.751 89.9086 113.31 90.3923 112.861 90.364C111.346 90.2674 111.853 88.4752 112.82 88.4652ZM110.205 89.6871C110.221 90.6667 108.475 90.8883 108.474 89.6672C108.474 88.4936 110.185 88.3909 110.205 89.6871ZM114.129 94.3661C114.114 95.2078 114.196 95.2109 113.564 95.3373C113.357 95.3787 109.395 95.45 108.563 95.381C108.067 95.3396 108.071 94.5892 108.033 93.6256C107.965 91.9254 107.947 91.7736 108.461 91.6012C109.19 91.3566 111.701 91.3965 111.701 91.4149C114.152 91.4149 113.951 91.3244 114.088 91.8143C114.311 92.6168 114.159 92.7349 114.129 94.3653V94.3661ZM116.612 93.6348C116.612 94.7739 116.807 94.7187 115.403 93.9552C115.051 93.7644 115 93.5957 115.012 93.1826C115.022 92.8384 115.14 92.6169 115.432 92.439C116.115 92.0228 116.48 91.4548 116.516 91.9913C116.626 93.6333 116.642 93.6325 116.612 93.6348Z" fill="black"/>
<path d="M140.094 8.11381C134.718 4.08406 124.816 3.02086 118.275 4.41521C100.799 8.14218 98.8375 28.8153 112.121 35.5486C113.536 36.2661 113.603 36.1665 113.51 36.4133C113.051 37.6406 110.829 42.673 109.91 43.8327C108.271 45.904 116.668 44.4874 121.773 38.4293C122.271 37.8376 125.164 38.2615 126.16 38.3473C131.355 37.9893 131.254 38.0123 133.509 37.393C147.05 33.6752 151.437 16.6156 140.093 8.11305L140.094 8.11381ZM133.529 35.8169C130.222 36.6916 131.5 36.5643 127.588 36.9798C122.4 37.5309 122.363 36.5873 121.347 37.5463C118.969 39.79 118.165 40.4093 114.948 42.1279C113.884 42.6967 111.963 43.4203 111.359 43.4265C111.557 42.9336 112 42.7795 113.755 38.6003C115.201 35.1554 114.776 35.8269 112.605 34.4042C109.856 32.6028 107.585 30.9693 105.946 27.2753C102.769 20.1211 105.073 6.92949 122.322 5.53744C123.254 5.46232 124.189 5.42629 125.122 5.37263C125.129 5.5658 127.322 5.27145 129.964 5.8341C131.406 6.14071 130.694 5.81416 132.299 6.25416C134.295 6.80148 137.042 7.44002 139.82 9.77033C149.674 18.0376 145.403 32.6779 133.53 35.8177L133.529 35.8169Z" fill="black"/>
<path d="M124.601 20.1255C123.291 20.1201 122.485 21.3796 122.496 22.314C122.526 25.0652 126.654 25.21 126.729 22.1745C126.758 20.9495 125.806 20.1301 124.601 20.1255H124.601Z" fill="black"/>
<path d="M116.441 20.0061C115.275 19.944 114.286 21.192 114.271 22.1931C114.255 23.2885 115.232 24.3233 116.329 24.2743C118.88 24.4475 119.532 20.1709 116.442 20.0061H116.441Z" fill="black"/>
<path d="M132.504 19.905C131.375 19.8023 130.419 21.0763 130.419 22.0927C130.421 23.2004 131.417 24.1655 132.506 24.1686C135.186 24.1747 135.564 19.8544 132.503 19.9058L132.504 19.905Z" fill="black"/>
</svg>
