<svg width="154" height="154" viewBox="0 0 154 154" fill="none" xmlns="http://www.w3.org/2000/svg">
<path d="M89.6243 123.676C87.9294 122.427 86.8394 122.039 84.9751 121.341C82.7452 120.506 80.4065 120.831 78.3889 121.201C75.4624 121.738 64.2669 123.54 66.2853 125.601C67.6482 126.99 70.3165 128.635 72.9519 128.96C75.8564 129.321 78.9424 128.274 81.5264 127.624C83.3991 127.152 84.4002 127.021 87.8604 126.147C88.7389 125.924 90.1854 125.735 90.3571 124.909C90.482 124.309 89.8366 123.832 89.6243 123.676ZM88.0789 125.308C87.1537 125.517 86.4492 125.741 83.5202 126.378C79.0367 127.351 76.1354 128.582 73.0455 128.199C70.5925 127.896 68.1051 126.362 66.8264 125.118C67.0005 124.667 69.5462 123.779 72.5027 123.14C74.6782 122.67 76.865 122.259 78.5269 121.954C80.638 121.567 82.7031 121.309 84.7061 122.059C86.5519 122.75 87.5553 123.103 89.1689 124.293C89.5859 124.6 89.6066 124.751 89.6066 124.751C89.5246 124.978 88.4744 125.217 88.0789 125.308Z" fill="black"/>
<path d="M101.8 111.803C101.129 111.296 100.048 110.709 98.6787 109.965C96.0885 108.557 92.0534 106.291 88.2621 104.625C86.8225 103.992 84.1434 103.752 81.8905 104.054C78.5146 104.505 53.4153 109.06 41.3245 111.835C27.3189 115.05 21.8971 116.835 19.8151 117.768C19.2487 118.022 18.9252 118.337 18.8554 118.705C18.7634 119.185 19.113 119.476 19.3414 119.716C21.2087 121.675 23.4011 122.991 26.0234 124.441C29.7604 126.508 33.032 128.491 37.0863 128.491C39.5615 128.491 43.4172 127.39 48.967 125.899C61.5101 122.531 64.866 121.743 85.8589 117.471C93.8901 115.836 100.233 114.546 101.407 114.122C102.846 113.601 103.065 112.761 101.799 111.804L101.8 111.803ZM19.8979 119.187C19.645 118.922 19.336 118.822 20.1294 118.467C21.8074 117.716 26.816 115.951 41.4962 112.582C53.5702 109.811 78.6242 105.263 81.9925 104.813C83.7693 104.576 86.4691 104.674 87.9539 105.326C88.5978 105.609 89.4403 105.997 90.4835 106.505C67.7889 110.161 44.8499 115.111 22.275 121.237C20.9604 120.301 20.3586 119.67 19.8979 119.187ZM23.1105 121.809C45.8035 115.675 68.859 110.721 91.6571 107.088C94.0503 108.292 95.8486 109.291 97.3242 110.1C74.2808 113.485 51.2904 118.552 28.9693 125.183C27.1319 124.193 24.7793 122.907 23.1105 121.809ZM101.147 113.4C98.9018 114.211 74.8297 118.752 63.0624 121.507C51.5281 124.206 42.9688 126.942 38.7474 127.599C36.6524 127.924 34.362 127.547 33.0197 127.028C31.6576 126.501 31.0129 126.245 29.9466 125.699C52.3184 119.093 75.3517 114.045 98.4327 110.704C99.7143 111.4 100.732 111.957 101.337 112.414C102.029 112.937 102.062 113.069 101.146 113.4H101.147Z" fill="black"/>
<path d="M121.448 118.045C114.812 113.18 99.6094 104.874 91.891 101.482C90.4744 100.86 88.223 100.474 85.8644 100.39C88.6048 99.177 89.9263 97.0659 90.1754 94.7908C90.6798 90.1777 91.0171 84.2224 91.198 77.8861C89.5338 78.3353 87.7823 78.6074 86.0683 78.7262C85.9671 82.8848 85.7709 86.7328 85.4658 89.855C85.2925 91.6234 84.1373 93.1926 82.4486 93.9515C70.3762 99.3763 37.0719 107.617 16.674 108.696C13.9919 108.834 11.5933 107.058 11.105 104.554C8.27724 90.0405 8.42366 71.0938 10.7777 59.8601C11.0698 58.468 11.9889 57.2415 13.3004 56.4957C24.8562 49.9256 65.9111 41.124 79.6476 41.1394C82.3168 41.1424 84.5758 43.0366 84.9322 45.5486C86.8808 45.6199 88.8807 45.9717 90.7933 46.5527C90.6944 45.0948 90.5825 43.7548 90.4575 42.5621C90.1019 39.1448 87.2626 36.5132 83.8522 36.442C68.6147 36.1269 22.368 45.639 9.15801 53.2401C7.48004 54.2052 6.28652 55.828 5.88408 57.6922C2.98346 71.1199 2.50206 93.4992 5.36666 110.594C5.92011 113.898 8.85139 116.395 12.3231 116.273C12.7639 116.257 13.21 116.237 13.6607 116.214C12.6857 116.566 11.8402 116.9 11.1434 117.212C10.3837 117.552 9.59724 118.098 9.72756 118.917C9.18024 120.712 9.53209 124.024 10.1055 124.618C13.5013 128.133 17.0197 131.184 23.2066 134.607C29.8342 138.273 35.9014 140.851 39.8254 142.369C42.0553 143.231 46.3165 143.68 50.1332 143.087C55.716 142.219 65.2327 139.971 78.4058 136.868C89.0463 134.362 110.018 129.601 120.299 125.887C121.643 125.402 122.111 122.834 122.223 122.059C122.423 120.669 122.521 118.834 121.445 118.046L121.448 118.045ZM121.392 119.231C121.358 119.463 120.985 119.832 120.04 120.174C105.388 125.467 67.8343 133.654 50.0167 136.424C46.6944 136.941 42.4324 136.651 40.1021 135.749C31.9215 132.585 16.743 125.352 10.6551 119.09C10.5148 118.946 10.455 118.815 10.4772 118.7C11.0376 115.774 74.8452 101.137 84.9192 101.137C87.5025 101.137 90.0605 101.516 91.5821 102.184C99.1816 105.524 114.408 113.836 120.994 118.663C121.156 118.782 121.423 119.014 121.392 119.231Z" fill="black"/>
<path d="M55.5979 63.4861C54.7057 61.6686 52.35 61.3681 50.6429 62.1232C48.4544 63.0913 47.3422 65.5979 46.6722 67.742C45.1958 72.4639 45.1 79.6114 49.0838 82.5864C51.3727 84.2958 54.7103 83.9807 56.7845 82.0391C57.016 81.8221 56.7753 81.3438 56.4565 81.4764C54.7631 82.1793 52.7103 83.6733 50.1585 82.164C46.3541 79.9134 46.2613 73.7096 47.2088 69.3763C47.6611 67.3096 48.3663 65.0138 49.9753 63.5413C51.4578 62.1853 54.13 61.8304 55.4845 63.5743C55.5374 63.6425 55.6309 63.5559 55.5972 63.4869L55.5979 63.4861Z" fill="black"/>
<path d="M45.2703 59.9569C42.6196 61.2462 41.1662 63.9521 40.1996 66.6167C39.0682 69.7342 38.6159 73.0963 38.8175 76.404C39.1709 82.213 41.6752 89.2238 47.1323 91.1448C49.7631 92.0708 53.1857 91.7596 54.9327 89.3672C55.1036 89.1334 54.7472 88.9026 54.5517 89.0736C52.7013 90.6902 50.1425 91.1709 47.8 90.494C45.2581 89.7604 43.3593 87.7068 42.1122 85.4524C39.2253 80.2337 38.8819 73.6958 40.4763 68.0248C41.3134 65.0475 42.7415 61.9399 45.3838 60.1523C45.5049 60.0703 45.4014 59.8933 45.2703 59.9569Z" fill="black"/>
<path d="M60.9909 63.3637C61.2937 63.3614 61.5926 63.3606 61.8885 63.3591C59.073 56.9699 53.2257 55.2528 49.1615 57.4728C49.0756 57.5203 49.1339 57.6567 49.2282 57.6307C54.8891 56.0393 58.9082 58.9001 60.9909 63.3637Z" fill="black"/>
<path d="M61.3856 78.0915C61.2868 78.3476 61.1817 78.6013 61.0706 78.8512C60.5516 80.0186 59.8824 81.1056 59.27 82.224C59.1113 82.5138 59.4854 82.8073 59.7268 82.5766C60.997 81.3655 61.9192 79.6331 62.5316 77.7029C62.1484 77.8332 61.7658 77.9627 61.3856 78.0915Z" fill="black"/>
<path d="M34.0426 64.8643C37.6032 53.8475 47.0655 49.2451 54.7639 51.8698C57.1265 52.6754 59.1302 54.1786 60.8059 56.0061C60.9998 56.2177 61.3563 55.9432 61.2037 55.6995C58.7561 51.7916 53.6088 50.0002 49.1651 50.4003C42.0576 51.0404 35.7121 56.5626 33.8962 64.8245C33.8755 64.9195 34.0127 64.9571 34.0426 64.8643Z" fill="black"/>
<path d="M35.2316 88.4106C36.6497 92.9371 40.5414 96.3122 45.0518 97.5877C49.8213 98.9369 54.9135 97.6782 58.8382 94.7438C60.7845 93.2889 63.4406 90.5278 64.1044 88.3945C64.1979 88.0932 63.7556 87.7997 63.5456 88.0695C62.8174 89.0047 62.2601 90.061 61.5074 90.9847C59.2591 93.7458 56.2902 95.7403 53.0492 96.6801C45.5915 98.8418 37.9382 94.6741 35.46 88.347C35.4056 88.2082 35.1848 88.2619 35.2316 88.4106Z" fill="black"/>
<path d="M79.9092 72.0746C78.9211 72.5092 77.8886 72.8618 76.8445 72.9852C75.89 73.0994 75.4263 72.6019 74.3247 72.523C74.0227 72.5015 73.1512 72.7085 72.147 72.9867C70.0413 72.8396 68.0812 67.8946 69.5054 64.9916C69.6043 64.7908 69.7454 64.5907 69.9201 64.4213C72.4398 63.8602 72.5165 63.8157 73.26 62.7886C74.6567 60.8592 76.5332 59.3452 78.659 58.2345C78.6712 57.9417 78.685 57.6481 78.7019 57.3545C76.3047 58.5396 74.1745 60.213 72.5931 62.403C72.1654 62.9955 72.0297 63.1059 71.4617 63.2485C71.2746 63.073 70.6675 62.8652 68.479 62.971C67.041 63.04 55.1472 62.7663 50.9664 63.4639C50.7579 63.4984 50.6161 63.6962 50.6514 63.9047C50.6859 64.1132 50.8836 64.255 51.0921 64.2197C55.2039 63.5344 67.0172 63.8081 68.5158 63.7368C68.6852 63.7284 69.103 63.7245 69.5507 63.7291C69.2532 63.9698 68.998 64.2856 68.8171 64.6543C67.2664 67.8133 69.1812 72.6571 71.2133 73.544C71.4448 73.6452 71.7836 73.7349 72.1385 73.7541C68.154 75.5424 54.2258 80.1235 52.0879 80.6739C51.654 80.7858 51.7345 81.4281 52.1829 81.4281C52.7931 81.4281 71.4571 75.2864 73.4662 73.9281C73.7107 73.7625 73.6119 73.5172 73.5904 73.4014C73.6226 73.393 73.654 73.3854 73.687 73.3769C74.9556 73.0527 75.4891 73.9173 76.935 73.7456C78.0082 73.6176 79.076 73.2635 80.0894 72.8273C80.0273 72.5774 79.9675 72.326 79.9085 72.0738L79.9092 72.0746Z" fill="black"/>
<path d="M95.8169 60.1685C95.8675 61.3597 95.9503 62.2458 96.1128 63.3757C97.4995 63.0438 97.6137 61.8917 96.9468 61.0416C96.6823 60.705 96.2891 60.4161 95.8169 60.1685Z" fill="black"/>
<path d="M73.4954 70.5215C76.8989 69.7534 79.8531 67.2774 81.2061 64.0618C81.2705 63.9077 81.4269 63.8142 81.5932 63.8287C84.5981 64.0939 87.6842 63.6915 90.5197 62.6651C91.3537 62.3638 91.2471 62.0074 90.4484 61.6234C86.3221 59.6403 81.4499 59.29 77.0821 60.6606C76.8797 60.7242 76.6651 60.6115 76.6014 60.4099C76.5378 60.2083 76.6505 59.9929 76.8521 59.9293C81.4039 58.5012 86.48 58.8668 90.7795 60.9327C91.589 61.3213 91.9738 61.8748 91.8358 62.452C91.7086 62.987 91.205 63.2323 90.7803 63.3857C87.9272 64.4182 84.8311 64.8413 81.8009 64.6144C80.3077 67.9298 77.2147 70.467 73.6648 71.2689C73.165 71.3808 73.0063 70.6326 73.4954 70.5215Z" fill="black"/>
<path d="M125.118 10.789C116.003 8.50087 106.286 10.9554 97.7541 17.6995C85.4847 27.3986 78.3704 43.8886 78.2217 59.9563C78.4769 59.8965 78.733 59.8436 78.9898 59.7946C79.0503 55.2382 79.6827 50.6726 80.8157 46.2527C85.6679 45.2508 92.0502 46.6344 96.5369 49.6562C94.3737 58.3941 95.4338 66.8599 98.8258 72.6258C95.9091 77.1271 88.2819 78.7445 82.2484 78.3513C80.8686 74.8488 79.948 71.1932 79.4459 67.4708C79.2297 67.7046 79.0036 67.93 78.769 68.1454C79.3707 72.2663 80.4723 76.2739 82.1073 80.0377C87.9208 93.4117 98.6985 99.876 109.654 99.876C126.326 99.8745 142.708 84.9252 148.093 63.4671C153.667 41.2594 145.357 15.8682 125.118 10.789ZM136.917 18.1027C137.688 25.3144 134.196 30.9922 127.766 33.0121C125.026 29.6078 121.28 27.6869 117.035 27.8264C116.168 21.9845 112.605 16.3281 107.61 12.8326C118.374 8.59822 129.144 10.9285 136.916 18.1027H136.917ZM107.769 78.9063C98.5437 76.5904 93.8509 63.497 97.3088 49.719C99.9012 39.389 107.729 28.5784 117.443 28.5784C122.459 28.5784 127.591 31.7419 130.275 39.1529C134.419 50.5944 130.434 66.4712 121.378 74.5997C117.043 78.4908 112.211 80.0201 107.769 78.9063ZM130.576 90.9258C130.008 85.3461 126.961 79.5885 122.115 74.96C126.854 70.6006 129.991 64.4483 131.547 58.1741C137.305 60.1801 143.032 60.2108 148.468 57.613C146.412 71.5067 139.621 83.4396 130.576 90.9258Z" fill="black"/>
</svg>
