<svg width="154" height="154" viewBox="0 0 154 154" fill="none" xmlns="http://www.w3.org/2000/svg">
<path d="M114.604 92.1447C115.685 91.1865 116.773 90.1747 116.551 88.772C116.437 88.0227 116.033 87.3481 115.427 86.8935C114.82 86.439 114.06 86.241 113.309 86.3421L109.077 67.3551C109.392 67.7384 109.43 67.8763 109.637 67.8763C109.688 67.8764 109.739 67.8639 109.784 67.8398C109.83 67.8158 109.869 67.7809 109.897 67.7384C111.109 66.0467 112.195 64.2687 113.148 62.4186C114.88 59.6591 111.959 58.1414 110.35 60.8856C110.221 60.423 109.996 59.9928 109.689 59.623C109.383 59.2532 109.002 58.9521 108.571 58.7393C108.115 58.578 107.617 58.578 107.161 58.7393L96.2992 10.0416C95.8249 7.95144 94.5433 6.13367 92.7339 4.98486C90.9246 3.83604 88.7343 3.44942 86.6409 3.90935C57.3978 10.3942 38.6791 14.3725 36.7934 14.8094C32.3399 15.8519 29.1281 24.7743 30.1246 29.0899L39.3 70.1069C39.245 70.0614 39.1759 70.0366 39.1045 70.0366C39.0332 70.0366 38.964 70.0614 38.9091 70.1069C31.627 75.4267 26.5909 83.9045 24.1993 92.413C20.5353 105.314 23.2335 120.008 27.917 132.518C28.8949 135.309 30.3102 137.928 32.1099 140.275C32.2939 140.513 32.6772 140.221 32.5162 139.976C29.3887 135.224 27.9783 131.153 26.3073 125.297C23.3178 115.194 22.0914 104.417 24.5213 94.13C28.6222 77.4733 39.0087 71.1801 39.4073 70.5975L42.734 85.5372C39.6906 88.8821 37.2176 92.7043 35.4137 96.8512C35.268 97.1808 35.567 97.3264 35.7433 96.9662C38.604 91.0553 42.7001 85.8274 47.7548 81.6356C50.476 79.4203 53.4118 77.1973 56.7692 76.5918C58.1508 76.3324 59.5775 76.4679 60.8855 76.9827C66.1132 79.1137 64.4115 84.7783 61.56 89.6611C54.8452 101.159 54.186 102.355 53.2508 104.938C51.3575 110.702 53.2508 115.67 54.1707 121.434C56.3246 134.557 51.2655 138.949 50.223 140.444C49.8091 141.049 50.292 141.164 50.4837 141.003C52.0358 139.673 53.243 137.988 54.002 136.09L55.5888 143.226C55.8209 144.274 56.2574 145.266 56.8734 146.144C57.4894 147.023 58.2727 147.771 59.1785 148.347C60.0843 148.922 61.0947 149.313 62.1518 149.497C63.209 149.681 64.292 149.655 65.339 149.42L114.052 138.566C118.107 137.631 122.944 130.778 121.909 125.573C121.878 124.454 122.415 127.167 114.604 92.1447ZM45.5549 82.655L32.5239 24.2607C32.1229 22.4775 32.4072 20.6087 33.3203 19.0254C34.2333 17.4421 35.7084 16.26 37.4526 15.7139C37.7439 15.6143 86.273 4.68355 86.7866 4.56857C87.7344 4.3575 88.7146 4.33572 89.6709 4.50449C90.6272 4.67326 91.5408 5.02925 92.3591 5.55203C93.1775 6.0748 93.8845 6.75407 94.4396 7.55082C94.9948 8.34757 95.3871 9.24613 95.594 10.1949L106.502 59.1226C106.2 59.3663 105.97 59.6867 105.835 60.0501C104.93 62.0967 106.693 64.289 108.058 66.0826L112.603 86.48C112.107 86.6379 111.65 86.8992 111.262 87.2466C111.208 85.4146 110.457 83.7588 108.74 83.6515L107.36 77.4426C108.272 75.2963 108.648 74.6141 108.947 72.9201C109.034 72.4543 109.008 71.9744 108.87 71.5208C108.733 71.0672 108.489 70.6533 108.158 70.3137C107.828 69.9742 107.421 69.719 106.971 69.5696C106.521 69.4202 106.042 69.3811 105.574 69.4554L93.3097 14.2652C92.8873 12.4302 91.7567 10.8366 90.1644 9.83153C88.5721 8.82647 86.6471 8.49145 84.8089 8.89946L42.1591 18.3508C40.3252 18.7751 38.7329 19.906 37.7281 21.4978C36.7234 23.0896 36.3875 25.0135 36.7934 26.8516L48.667 80.1255C47.5249 80.9227 46.5284 81.7582 45.5549 82.655ZM59.0228 75.8253C55.3588 75.4343 52.124 77.5576 49.1959 79.6579L37.3837 26.706C37.0181 25.0423 37.3267 23.3015 38.2418 21.8648C39.157 20.4281 40.6042 19.4126 42.2665 19.0407C88.4499 8.7155 85.2995 9.37471 86.3343 9.36705C87.8013 9.3647 89.225 9.86459 90.3685 10.7836C91.512 11.7026 92.3065 12.9853 92.6199 14.4185L104.884 69.6087C102.845 70.1529 101.68 72.3835 101.412 74.2079C100.055 72.3299 97.5333 71.525 96.0462 73.3494C95.7083 73.9249 95.547 74.587 95.5824 75.2535C95.6179 75.9199 95.8485 76.5613 96.2455 77.0977C96.8199 77.9114 97.4554 78.6801 98.1465 79.3973L94.1069 80.5624C93.8233 76.5611 91.6924 69.3711 87.4688 63.5224C86.7365 62.395 85.7754 61.4339 84.6479 60.7016C86.0231 59.4332 87.1761 57.9434 88.059 56.2941C88.0947 56.2323 88.1088 56.1604 88.0992 56.0897C88.0895 56.019 88.0567 55.9535 88.0058 55.9035C87.9549 55.8535 87.8889 55.8218 87.818 55.8134C87.7472 55.805 87.6756 55.8204 87.6144 55.8571C87.4458 55.9644 87.2618 56.0641 87.0855 56.1561C87.3193 55.8009 87.5 55.4136 87.6221 55.0063C87.6338 54.9527 87.6313 54.897 87.6149 54.8447C87.5984 54.7924 87.5686 54.7452 87.5283 54.708C87.488 54.6708 87.4386 54.6448 87.3852 54.6326C87.3317 54.6204 87.2759 54.6224 87.2235 54.6383C86.4569 54.9526 85.8207 54.1401 85.6214 53.3276C85.0465 50.936 85.6214 49.9242 84.234 47.0114C85.4215 45.0384 86.1547 42.8258 86.3803 40.5342C86.5181 40.0285 86.494 39.4924 86.3113 39.0011C86.1829 38.7832 85.987 38.613 85.7533 38.5162C85.5196 38.4194 85.2608 38.4012 85.0159 38.4646C83.1749 38.7894 81.3924 39.3862 79.7268 40.2352C79.9721 38.2959 80.271 36.4639 80.3324 34.6242C81.6355 34.0493 85.2612 32.4013 84.5023 29.3122C84.1114 27.6948 81.9038 25.6635 80.1561 26.1771C80.2504 25.1561 79.9902 24.1338 79.4192 23.2822C78.8482 22.4306 78.0013 21.8017 77.021 21.5012C75.9166 21.2563 74.7623 21.3846 73.7386 21.8659C72.715 22.3472 71.8798 23.1544 71.364 24.1611C70.5841 23.2643 69.6396 22.5253 68.5815 21.9841C67.7832 21.6453 66.9111 21.5181 66.0494 21.6146C65.1876 21.7111 64.3653 22.0282 63.6619 22.5352C62.9584 23.0422 62.3975 23.722 62.0333 24.509C61.6692 25.2959 61.5141 26.1635 61.583 27.0279C59.0765 26.4607 56.271 28.147 56.4089 30.8606C56.4289 31.4797 56.6026 32.0841 56.9144 32.6194C57.2262 33.1547 57.6662 33.6039 58.195 33.9267C58.9092 34.2243 59.6513 34.4503 60.4102 34.6012C60.8313 34.7456 61.2118 34.9886 61.5198 35.3099C61.8279 35.6313 62.0546 36.0217 62.1809 36.4486C62.9574 38.5788 63.5724 40.7645 64.0206 42.9871C64.0206 43.0637 64.1509 42.8338 63.4687 43.562C62.9321 43.043 62.3497 42.5735 61.7287 42.1592C61.0465 41.5997 60.4256 41.1014 59.7893 40.6262C55.7037 37.4527 55.5581 43.7459 57.3518 47.7702C57.9275 49.1248 58.7026 50.3857 59.6514 51.5109C59.6054 51.7332 59.5747 51.9632 59.5441 52.1854C59.2068 52.0705 58.7775 52.6837 58.6932 53.0286C58.6786 53.0751 58.6752 53.1243 58.6834 53.1723C58.6917 53.2203 58.7112 53.2657 58.7404 53.3047C58.7696 53.3436 58.8077 53.375 58.8515 53.3964C58.8952 53.4177 58.9435 53.4283 58.9922 53.4272H59.4214C59.3168 54.4995 59.2809 55.5774 59.3141 56.6543C59.3678 57.8501 59.3141 60.6633 58.149 60.7629C58.0959 60.7614 58.0436 60.7761 57.9991 60.8051C57.9547 60.8342 57.9201 60.8761 57.9001 60.9252C57.8801 60.9744 57.8756 61.0285 57.8872 61.0804C57.8988 61.1322 57.9259 61.1792 57.965 61.2152C58.2675 61.4731 58.5994 61.6943 58.9538 61.8744H58.2486C58.201 61.8733 58.154 61.8857 58.1131 61.9101C58.0722 61.9345 58.039 61.97 58.0174 62.0125C57.9958 62.0549 57.9866 62.1026 57.9909 62.1501C57.9952 62.1975 58.0128 62.2428 58.0417 62.2807C60.1956 64.8639 63.4074 65.753 66.8261 66.1133C66.5501 67.4777 65.9446 69.647 64.9941 70.7815C64.6514 71.127 64.2488 71.4075 63.806 71.6093C61.744 72.1076 60.7398 74.6755 61.7823 76.7758C60.9408 76.2657 59.9999 75.9417 59.0228 75.8253ZM91.0561 91.4395C89.661 93.8387 88.4959 94.2067 85.7901 94.5593L68.9264 96.9585C67.0561 97.2958 60.3413 98.2923 60.8702 96.4909C61.4067 95.1495 64.4422 91.4242 65.2164 90.4737C64.7871 93.7391 66.0979 95.0728 69.2483 94.5209C86.112 91.4548 85.3455 91.9531 85.6751 91.3705C86.3036 91.4931 86.7712 90.8799 87.2081 90.3357C87.9389 89.2998 88.6046 88.2195 89.2011 87.1009C89.7298 86.2296 90.0839 85.2637 90.2436 84.2571C91.8344 83.9481 93.4636 83.8886 95.0727 84.0808C95.1348 84.1347 95.1837 84.2021 95.2156 84.2778C95.2475 84.3536 95.2616 84.4357 95.2567 84.5177C95.0957 84.924 95.6017 83.6132 91.0638 91.4395H91.0561ZM95.5097 85.4529C95.704 86.6219 95.4285 87.8205 94.7431 88.7873L92.1446 93.1795C91.5981 94.3378 90.8882 95.4116 90.0366 96.3683C89.4769 96.8246 88.7876 97.0928 88.0667 97.1348C87.4381 97.2268 65.7376 99.9403 65.7376 99.9403C62.7941 100.454 61.445 100.354 60.8472 97.5871C62.7788 98.7369 67.9069 97.5027 85.6904 95.1802C88.4116 94.8275 90.0213 94.5133 91.5237 91.8151L95.5097 85.4529ZM71.5479 82.632C71.7124 82.7456 71.864 82.8767 72.0002 83.023C71.5782 83.4035 71.2095 83.8393 70.904 84.3184C70.9 84.3385 70.9 84.3593 70.904 84.3794C70.908 84.3996 70.9159 84.4187 70.9273 84.4358C70.9387 84.4529 70.9533 84.4676 70.9704 84.479C70.9874 84.4904 71.0066 84.4984 71.0267 84.5024C71.0468 84.5064 71.0675 84.5064 71.0877 84.5024C71.1078 84.4985 71.127 84.4906 71.1441 84.4792C71.1612 84.4678 71.1758 84.4531 71.1872 84.4361C71.1987 84.419 71.2066 84.3999 71.2107 84.3797C71.5271 84.0096 71.876 83.6684 72.2531 83.3603C72.4153 83.6259 72.5587 83.9025 72.6824 84.1881C72.6211 84.2724 72.5827 84.3031 72.5827 84.3567C72.5807 84.3819 72.5835 84.4073 72.5913 84.4313C72.599 84.4554 72.6115 84.4777 72.6278 84.4969C72.6442 84.5161 72.6642 84.5319 72.6868 84.5434C72.7093 84.5549 72.7338 84.5618 72.759 84.5637C72.9277 84.5637 73.1806 84.0041 74.2921 83.0306C74.3688 83.1303 74.4148 83.2223 74.5451 83.2223C74.5732 83.2234 74.6013 83.2186 74.6274 83.2082C74.6536 83.1977 74.6772 83.1818 74.6968 83.1615C74.7164 83.1412 74.7314 83.117 74.7409 83.0905C74.7504 83.064 74.7542 83.0357 74.752 83.0076C74.7377 82.9086 74.7066 82.8127 74.66 82.724C74.9137 82.5029 75.1945 82.3148 75.4956 82.1645C75.6607 82.3663 75.8046 82.5846 75.9248 82.816C75.4516 83.2927 75.0159 83.8052 74.6217 84.3491C74.5983 84.3778 74.5861 84.414 74.5873 84.451C74.5886 84.488 74.6031 84.5233 74.6284 84.5504C74.6536 84.5775 74.6878 84.5945 74.7246 84.5984C74.7614 84.6022 74.7984 84.5927 74.8287 84.5714C74.936 84.5714 75.0433 84.2571 76.1471 83.2299C76.1882 83.3796 76.2737 83.5132 76.3924 83.6132C75.4956 84.5714 74.7367 85.5295 75.1046 86.871C75.1632 87.0984 75.2666 87.3118 75.4087 87.4987C75.5509 87.6857 75.729 87.8423 75.9325 87.9594C75.9979 88.3033 76.1944 88.6082 76.4804 88.8099C76.7665 89.0115 77.1197 89.0941 77.4655 89.0402C77.9246 88.9787 78.3643 88.8164 78.7533 88.565C79.7038 89.1936 80.5777 88.2584 81.1602 87.6912C81.9186 86.9326 82.6063 86.1064 83.2145 85.2229C83.5978 84.671 83.4675 84.809 83.5518 84.832C83.7664 84.8933 83.8354 84.5177 84.6173 83.6592C84.7137 83.8529 84.8348 84.0332 84.9775 84.1958C85.003 84.2374 85.0439 84.2673 85.0913 84.2788C85.1388 84.2903 85.1888 84.2825 85.2305 84.2571C85.2722 84.2317 85.3021 84.1908 85.3135 84.1433C85.3251 84.0959 85.3172 84.0458 85.2918 84.0041C85.1913 83.7712 85.0653 83.5501 84.9162 83.3449C85.1653 83.0618 85.4427 82.805 85.7441 82.5784C85.8945 82.8004 86.0277 83.0336 86.1427 83.2759C85.6292 83.7969 85.1813 84.3787 84.8089 85.0083C84.7323 85.2459 85.1079 85.2996 85.1079 85.0926C85.4709 84.5753 85.8843 84.0951 86.342 83.6592C86.5029 83.9735 86.6179 84.2878 86.8326 84.1958C86.8841 84.1672 86.9248 84.1224 86.9483 84.0684C86.9719 84.0143 86.977 83.954 86.9629 83.8968C86.9145 83.6826 86.8425 83.4743 86.7482 83.2759C87.2864 82.8247 87.8578 82.4147 88.4576 82.0495C86.6091 84.2447 85.5011 86.9676 85.2918 89.8298C85.3075 90.1652 85.2921 90.5013 85.2458 90.8339V90.8952C85.0542 91.3322 84.3337 91.3398 84.234 91.3552C83.9197 91.3552 85.1002 91.2019 69.6699 93.8617C67.9146 94.1607 66.2512 94.2067 65.9369 92.482C65.4617 89.1552 67.332 84.7707 71.5479 82.632ZM72.0232 82.4251C72.4572 82.2025 72.9185 82.0375 73.3953 81.9345C71.9235 82.7854 72.6211 82.908 72.0538 82.4251H72.0232ZM73.7555 82.3024C74.2078 82.8543 74.0698 82.3024 72.989 83.7358C72.9026 83.4876 72.7728 83.2566 72.6057 83.0536C72.957 82.7573 73.3431 82.5051 73.7555 82.3024ZM74.1848 82.0801C74.4892 81.9745 74.78 81.8329 75.051 81.6586C75.2119 81.8272 75.2196 81.6586 74.5067 82.2181C74.2998 82.3714 74.4531 82.3638 74.1848 82.0801ZM77.2509 82.2564C77.3199 82.4021 77.2509 82.3714 77.3582 82.4864C77.2279 82.655 76.8523 83.1226 76.7067 83.2529C76.6624 83.1117 76.6033 82.9755 76.5304 82.8467C76.653 82.7854 76.7603 82.6704 77.2816 82.2564H77.2509ZM76.2851 82.4481C76.2303 82.3405 76.1662 82.2379 76.0935 82.1415C76.0311 82.0638 75.9646 81.9896 75.8942 81.9192C76.1583 81.7799 76.4295 81.6545 76.7067 81.5436C76.8114 81.6355 76.9088 81.7355 76.998 81.8425C76.7606 82.0329 76.5329 82.235 76.3157 82.4481H76.2851ZM84.6249 82.9463C84.8309 82.5831 85.0127 82.2067 85.1692 81.8195L85.4605 82.2335C85.1476 82.4432 84.8707 82.702 84.6403 83L84.6249 82.9463ZM86.1043 82.3024C86.4416 82.0878 86.5106 82.0572 86.7482 81.8885C87.0855 81.8885 87.4304 81.8885 87.7754 81.9422C86.0813 82.954 86.8862 83.2836 86.135 82.3024H86.1043ZM88.9405 84.9776C88.8952 84.9114 88.8264 84.865 88.748 84.8478C88.6696 84.8307 88.5877 84.8443 88.5189 84.8856C88.3809 84.993 88.3809 85.0236 87.9823 85.5755C87.898 85.4835 87.8137 85.4069 87.7371 85.3149C87.7065 85.2747 87.6618 85.2475 87.612 85.239C87.5622 85.2304 87.511 85.2411 87.4688 85.2689C87.2388 85.4222 87.5148 85.7595 87.6834 86.0354C87.5454 86.2501 87.4074 86.4724 87.2925 86.687C87.2666 86.722 87.2516 86.7639 87.2493 86.8074C87.247 86.8509 87.2575 86.8941 87.2795 86.9316C87.3016 86.9692 87.3342 86.9994 87.3733 87.0186C87.4124 87.0378 87.4562 87.0451 87.4994 87.0396C87.4994 87.0396 87.6144 87.0396 87.6374 86.9859C88.243 86.3727 87.852 86.4034 88.4039 86.7866C88.4703 86.8278 88.549 86.8441 88.6262 86.8326C88.2583 87.5072 86.5336 90.6193 85.8284 90.9259C85.8471 87.7025 87.0439 84.5972 89.1935 82.1951C89.1946 82.2215 89.2022 82.2471 89.2155 82.2698C89.2289 82.2926 89.2476 82.3117 89.2701 82.3254C89.3468 82.4787 89.4234 82.632 89.4924 82.793C89.7573 84.0329 89.5233 85.3272 88.8409 86.3957C88.8409 86.2961 88.7872 86.2884 88.4116 86.0048C88.9175 85.4069 89.1321 85.2229 88.9712 84.9776H88.9405ZM89.3314 81.4056C89.2907 81.3779 89.2427 81.3631 89.1935 81.3631C89.1442 81.3631 89.0962 81.3779 89.0555 81.4056C87.8714 81.2246 86.6719 81.1656 85.4758 81.2293C87.6425 76.4452 88.063 71.0528 86.6639 65.9907C86.6533 65.9504 86.6349 65.9126 86.6098 65.8795C86.5846 65.8463 86.5531 65.8184 86.5172 65.7974C86.4813 65.7764 86.4415 65.7627 86.4003 65.7571C86.359 65.7514 86.3171 65.754 86.2768 65.7645C86.2365 65.7751 86.1988 65.7935 86.1656 65.8187C86.1325 65.8439 86.1046 65.8753 86.0836 65.9113C86.0626 65.9472 86.0489 65.9869 86.0432 66.0282C86.0376 66.0694 86.0401 66.1114 86.0507 66.1516C86.8377 69.1992 86.9906 72.3758 86.5002 75.4849C86.0097 78.5939 84.8862 81.5692 83.1992 84.2264C82.5077 85.245 81.7578 86.2227 80.9533 87.1546C80.5393 87.6375 80.1331 88.3197 79.0983 88.0591C79.0197 88.0162 78.9553 87.9512 78.9131 87.8722C78.8709 87.7933 78.8527 87.7037 78.8606 87.6145C78.9296 86.894 79.2669 86.848 79.4049 85.9588C79.4049 85.908 79.3847 85.8592 79.3487 85.8233C79.3128 85.7874 79.2641 85.7672 79.2132 85.7672C79.1624 85.7672 79.1137 85.7874 79.0777 85.8233C79.0418 85.8592 79.0216 85.908 79.0216 85.9588C78.8648 86.2876 78.6855 86.6052 78.485 86.9093C78.3774 87.0955 78.3102 87.3024 78.2877 87.5163C78.2653 87.7302 78.2881 87.9465 78.3547 88.1511L78.0021 88.3274C77.1743 88.7183 76.6224 88.427 76.4691 87.9288C76.1011 86.7407 77.5652 85.7365 77.5192 85.4682C77.5153 85.4346 77.5026 85.4026 77.4823 85.3755C77.462 85.3484 77.4349 85.3271 77.4038 85.3139C77.3726 85.3006 77.3385 85.2959 77.305 85.3001C77.2714 85.3043 77.2395 85.3174 77.2126 85.3379C76.5691 85.7746 76.1124 86.4363 75.9325 87.1929C75.166 86.2424 75.9325 84.947 76.699 84.2034C81.1526 79.9109 81.6891 73.1884 79.7651 67.3398C79.7268 67.1405 79.3895 67.1865 79.4279 67.3398C80.4627 72.1076 80.708 76.7374 78.3011 81.007C76.4786 80.9154 74.6519 81.0596 72.8664 81.4363C70.6587 82.0648 71.5863 82.4174 71.5709 81.099C71.927 78.0156 71.5676 74.8916 70.5208 71.9696C70.3905 71.6093 70.0609 71.7856 70.1375 72.0616C70.2959 72.5726 70.4339 73.1092 70.5514 73.6713C70.3891 74.3621 70.1869 75.0429 69.9459 75.7103C69.6508 76.5667 69.0739 77.2976 68.3094 77.7836C67.545 78.2695 66.6383 78.4817 65.7376 78.3855C65.8836 78.3463 66.0197 78.2769 66.1373 78.1819C66.2548 78.0868 66.351 77.9681 66.4198 77.8336C66.4789 77.8655 66.5444 77.8838 66.6115 77.8872C67.0561 77.8872 67.7613 77.1207 68.0295 76.8064C68.2411 76.4744 68.3483 76.0867 68.3373 75.6932C68.3264 75.2997 68.1978 74.9185 67.9682 74.5988C67.6521 73.8843 67.2643 73.2037 66.8108 72.5675C66.8284 72.5206 66.8284 72.4688 66.8108 72.4219C66.3821 71.9271 65.7985 71.592 65.1551 71.4714C66.4965 70.2986 67.2094 67.7843 67.4547 66.0597C73.242 66.4736 79.9798 64.8409 84.3183 61.0312C84.7262 61.3589 85.1128 61.7122 85.4758 62.089C87.99 64.6262 91.723 71.1418 93.1411 78.4161C93.2024 78.7227 93.5167 80.4244 93.647 80.7157C92.1139 81.1526 90.9488 81.4823 89.8143 81.9038C89.7024 81.7063 89.5479 81.5361 89.3621 81.4056H89.3314ZM60.3183 61.8591C60.2416 61.5295 59.774 61.7518 58.7085 61.0312C60.3642 60.0117 59.6437 55.9951 59.8583 53.3199C60.6249 53.3199 61.3914 53.2356 62.1579 53.1359C62.1662 53.7549 62.3188 54.3633 62.6036 54.9129C62.8884 55.4625 63.2974 55.938 63.7983 56.3017C63.4457 56.3017 63.0931 56.2327 62.7482 56.2251C62.4032 56.2174 61.3147 56.2251 61.2151 56.4627C61.2039 56.4867 61.1978 56.5128 61.1972 56.5392C61.1966 56.5657 61.2015 56.592 61.2116 56.6165C61.2217 56.641 61.2368 56.6631 61.2558 56.6815C61.2749 56.6999 61.2976 56.7141 61.3224 56.7233C62.233 56.7076 63.1438 56.7383 64.0513 56.8153C64.9821 56.939 65.902 57.1337 66.8031 57.3979C66.8478 57.3979 66.8907 57.3801 66.9223 57.3485C66.954 57.3168 66.9717 57.2739 66.9717 57.2292C66.9717 57.1845 66.954 57.1416 66.9223 57.11C66.8907 57.0784 66.8478 57.0606 66.8031 57.0606L66.6498 57.0069C67.6123 56.8886 68.4995 56.4261 69.1475 55.7047C69.7956 54.9834 70.1609 54.0519 70.1758 53.0823C70.2916 53.0744 70.4075 53.0954 70.5131 53.1436C70.6594 54.0402 71.1064 54.8603 71.7807 55.4691C72.455 56.0779 73.3163 56.4391 74.2231 56.4934C74.202 56.5104 74.1863 56.5333 74.1781 56.5592C74.17 56.5851 74.1696 56.6129 74.1771 56.639C74.2538 56.7846 74.4378 56.639 74.775 56.4857C75.7211 56.4175 76.6121 56.0154 77.2892 55.3512C78.9909 54.5847 79.8954 54.2474 81.0069 53.7108C81.2445 53.6572 81.0606 53.2739 80.8919 53.3659C75.6029 55.2362 78.9756 55.1366 78.4084 51.8328C81.3672 51.8328 82.3024 50.959 84.2953 48.8587C84.9086 51.2809 84.5636 54.2244 86.1197 55.1289C86.3325 55.2627 86.5816 55.327 86.8326 55.3129C86.5921 55.8359 86.2292 56.2934 85.7747 56.6467C85.716 56.6901 85.6737 56.7522 85.655 56.8228C85.6362 56.8934 85.642 56.9683 85.6714 57.0352C85.7008 57.1021 85.7521 57.157 85.8169 57.1908C85.8816 57.2247 85.956 57.2355 86.0277 57.2216C86.351 57.1313 86.6684 57.0212 86.9782 56.8919C85.8631 58.687 84.4105 60.2489 82.7009 61.4911C74.0621 67.4547 62.0889 65.9753 58.8235 62.3113C59.2613 62.3075 59.6977 62.2613 60.1266 62.1733C60.1937 62.157 60.2515 62.1147 60.2874 62.0558C60.3233 61.9969 60.3344 61.9261 60.3183 61.8591ZM68.5891 22.766C69.5822 23.3888 70.4569 24.183 71.1723 25.1116C71.2179 25.1584 71.2749 25.1925 71.3377 25.2105C71.4005 25.2285 71.4669 25.2299 71.5304 25.2144C71.5938 25.1989 71.6522 25.1672 71.6996 25.1222C71.7471 25.0773 71.782 25.0208 71.8009 24.9583C72.1817 23.9896 72.8909 23.1855 73.8045 22.6867C74.718 22.1879 75.7779 22.026 76.7987 22.2294C77.7271 22.5033 78.5094 23.1335 78.9747 23.9823C79.4401 24.8311 79.5506 25.8296 79.2822 26.7596C79.2605 26.8397 79.2653 26.9248 79.296 27.0019C79.3267 27.079 79.3817 27.1441 79.4525 27.1873C79.5234 27.2306 79.6064 27.2496 79.6891 27.2416C79.7717 27.2336 79.8495 27.1989 79.9108 27.1429C80.7923 26.3764 82.0647 27.2885 82.4327 27.5798C82.8359 27.8571 83.1728 28.2201 83.4193 28.6428C83.6657 29.0656 83.8157 29.5376 83.8584 30.025C83.8584 32.2556 81.4055 33.3211 79.7728 34.034C79.7147 34.0666 79.6667 34.1146 79.6342 34.1728C79.6017 34.231 79.586 34.297 79.5888 34.3636C79.5352 36.4102 79.2056 38.5335 78.9603 40.6032C78.1937 40.9941 77.8948 41.1627 77.8948 41.1627C77.8229 41.1424 77.7535 41.1141 77.6878 41.0784C77.7798 40.4345 78.3087 36.9085 78.2857 36.2569C78.2706 36.2109 78.2413 36.1709 78.2021 36.1425C78.1629 36.1141 78.1157 36.0988 78.0673 36.0988C78.0188 36.0988 77.9716 36.1141 77.9324 36.1425C77.8932 36.1709 77.8639 36.2109 77.8488 36.2569C77.7032 36.7858 77.3352 40.8561 77.3276 40.9021C76.3399 40.4504 75.2869 40.158 74.2078 40.0359C74.2691 39.4227 74.3994 30.071 74.3994 29.7414C74.3994 29.6188 74.2768 29.6265 74.2001 29.6265C74.1709 29.6264 74.1428 29.6374 74.1214 29.6574C74.1001 29.6773 74.0871 29.7046 74.0851 29.7338C73.7095 33.7427 73.6252 38.7405 73.6789 39.9823H73.4489C71.5717 39.738 69.6632 39.9591 67.8916 40.6262C67.7996 39.7217 67.125 36.2263 66.6421 34.08C66.6421 33.9037 66.3279 33.8424 66.3279 34.08C66.3245 34.0977 66.3245 34.1159 66.3279 34.1336C66.9104 37.3531 67.2324 40.0513 67.3857 40.8255C66.2744 41.3187 65.2414 41.9721 64.3195 42.7648C64.0132 41.01 63.614 39.2726 63.1238 37.56C61.9433 33.4898 60.5865 34.172 58.8772 33.5664C58.4358 33.3797 58.0444 33.0921 57.7342 32.7268C57.4241 32.3614 57.2039 31.9285 57.0914 31.4626C56.9788 30.9968 56.9771 30.5111 57.0862 30.0444C57.1953 29.5778 57.4123 29.1432 57.7197 28.7756C58.2229 28.2007 58.8965 27.8014 59.6424 27.6359C60.3883 27.4705 61.1676 27.5475 61.8666 27.8558C62.1196 27.9554 62.3342 27.7025 62.3036 27.4418C62.146 26.6376 62.2191 25.8053 62.5143 25.0408C62.8095 24.2764 63.3148 23.6109 63.9719 23.1213C64.629 22.6317 65.4112 22.3378 66.2281 22.2736C67.0451 22.2093 67.8636 22.3774 68.5891 22.7583V22.766ZM77.4196 41.3927L77.2203 41.4923C77.1748 41.5312 77.145 41.5854 77.1367 41.6446C77.1283 41.7038 77.1419 41.7641 77.1749 41.814C77.2079 41.8639 77.2579 41.9001 77.3157 41.9157C77.3735 41.9313 77.4349 41.9252 77.4885 41.8986C79.4591 40.7991 81.5436 39.9175 83.7051 39.2694C84.28 39.1161 85.5754 38.6255 85.8744 39.2004C85.8787 39.2693 85.8787 39.3385 85.8744 39.4074C85.0421 39.4328 84.2383 39.7168 83.5748 40.2199L79.5352 42.5195C79.2209 42.7035 79.7345 43.0331 79.7728 42.7495C79.7728 42.6728 79.5888 42.8108 84.5713 40.1586C84.6863 40.0973 85.7517 39.576 85.905 40.0283C85.3455 44.6811 83.9734 45.9612 83.2605 47.3946C83.2296 47.4515 83.2209 47.5178 83.2361 47.5807C83.2514 47.6436 83.2895 47.6986 83.3431 47.7349C83.3966 47.7712 83.4618 47.7863 83.5259 47.7773C83.59 47.7682 83.6484 47.7357 83.6898 47.6859C83.7358 47.6323 83.7664 47.5709 83.8124 47.5173C83.9053 47.7118 83.9872 47.9114 84.0577 48.1152C80.6083 51.7025 81.1985 50.5221 78.3164 51.4879C78.0691 50.5365 77.4802 49.7095 76.6621 49.1646C75.844 48.6196 74.8539 48.3949 73.8807 48.5332C72.9075 48.6716 72.0192 49.1633 71.3854 49.9147C70.7516 50.6661 70.4165 51.6244 70.4441 52.607C70.3405 52.5585 70.2287 52.5299 70.1145 52.5227C69.9875 51.5626 69.5159 50.6814 68.7876 50.0431C68.0593 49.4048 67.1238 49.0529 66.1554 49.0529C65.1869 49.0529 64.2515 49.4048 63.5231 50.0431C62.7948 50.6814 62.3233 51.5626 62.1963 52.5227C61.4297 52.63 60.6632 52.6607 59.8967 52.699C60.1945 50.2488 61.0266 47.8937 62.3342 45.8002C67.5926 37.3991 77.3276 41.3927 77.4196 41.3927ZM76.814 55.1059C75.2809 55.8725 75.2809 56.0028 74.5144 56.0028C73.6942 56.0125 72.8966 55.734 72.2606 55.216C71.6246 54.6979 71.1906 53.9731 71.0342 53.1679C70.8778 52.3627 71.0089 51.5281 71.4048 50.8096C71.8006 50.0912 72.436 49.5344 73.2002 49.2363C73.9644 48.9383 74.809 48.9179 75.5867 49.1787C76.3644 49.4394 77.0259 49.9649 77.456 50.6634C77.886 51.3619 78.0573 52.1892 77.94 53.001C77.8227 53.8128 77.4242 54.5578 76.814 55.1059ZM69.6623 53.4349C69.5643 54.3213 69.1305 55.1364 68.45 55.7128C67.7696 56.2893 66.8942 56.5831 66.0037 56.5341C65.1133 56.485 64.2755 56.0967 63.6625 55.449C63.0495 54.8013 62.708 53.9434 62.708 53.0516C62.708 52.1599 63.0495 51.302 63.6625 50.6543C64.2755 50.0066 65.1133 49.6183 66.0037 49.5692C66.8942 49.5201 67.7696 49.814 68.45 50.3904C69.1305 50.9668 69.5643 51.782 69.6623 52.6684C69.1563 53.0516 69.21 53.7262 69.6469 53.4656L69.6623 53.4349ZM62.0889 45.5626C61.4144 44.4128 60.0116 42.7188 59.3984 41.8833C58.7852 41.0478 58.4556 40.5418 57.6431 40.6262C57.4591 40.6262 57.4361 40.7871 57.5051 40.8638C57.7197 41.1167 57.9343 40.4575 58.8388 41.7683C59.5532 42.651 60.2185 43.5722 60.8318 44.5278C61.974 46.1835 62.0276 45.6316 61.6827 46.1835C61.3251 45.6282 60.8475 45.1601 60.285 44.8139C59.7225 44.4676 59.0895 44.252 58.4326 44.1829C58.3823 44.1817 58.3332 44.1983 58.2939 44.2297C58.2546 44.2611 58.2275 44.3053 58.2175 44.3546C58.2074 44.4039 58.215 44.4552 58.2389 44.4994C58.2628 44.5437 58.3015 44.5782 58.3483 44.5968C59.6047 44.8083 60.7277 45.5047 61.4757 46.5361L61.3071 46.8274C60.9782 46.5014 60.5635 46.2754 60.1113 46.1758C59.6048 46.0747 59.093 46.0031 58.5782 45.9612C58.5307 45.9571 58.4833 45.9702 58.4446 45.9981C58.4059 46.026 58.3784 46.0669 58.3673 46.1133C58.3562 46.1597 58.3621 46.2085 58.3839 46.2509C58.4057 46.2934 58.442 46.3266 58.4862 46.3445C59.3754 46.6818 60.3106 46.4135 61.1538 47.203C61.0311 47.4253 60.9161 47.6553 60.8165 47.8852C60.445 47.9249 60.0866 48.0453 59.7663 48.2378C59.1761 48.5214 59.4291 48.9124 59.6974 48.7744C59.964 48.6105 60.2533 48.4865 60.5559 48.4065C60.2271 49.2178 59.9706 50.0566 59.7893 50.913C57.0912 47.5709 56.3476 43.2937 57.0912 40.9098C57.1429 40.6746 57.2833 40.4685 57.4832 40.3343C57.6831 40.2 57.9271 40.1481 58.1643 40.1892C58.6162 40.3384 59.0315 40.5814 59.3831 40.9021C62.1886 43.1327 61.8666 43.0944 63.1467 43.9146C62.7298 44.4199 62.3747 44.9731 62.0889 45.5626ZM62.5029 77.1054C62.5186 77.0503 62.5186 76.9918 62.5029 76.9367C60.9698 73.1884 63.8213 70.8735 66.1745 72.5445C66.1209 72.7591 66.5042 73.357 66.6345 73.5333C67.9759 75.8866 67.9069 76.1012 66.7648 77.09C66.6191 77.2127 66.5731 77.2357 66.5425 77.2127C66.4545 77.1188 66.3844 77.0097 66.3355 76.8907C65.684 75.7103 65.569 75.3577 65.3467 75.4497C65.3183 75.4592 65.2928 75.4758 65.2726 75.4979C65.2524 75.5201 65.2382 75.547 65.2313 75.5761C65.2244 75.6053 65.225 75.6357 65.2332 75.6645C65.2413 75.6934 65.2566 75.7197 65.2777 75.7409C65.3544 75.8099 65.1551 75.5953 65.753 77.021C66.0826 77.7876 66.1439 77.412 65.753 77.6726C65.1474 78.0022 64.6798 78.0329 64.2199 76.2162C64.2021 76.1675 64.1684 76.1262 64.1241 76.099C64.0799 76.0719 64.0278 76.0605 63.9763 76.0667C63.9248 76.073 63.8769 76.0964 63.8404 76.1333C63.8039 76.1702 63.781 76.2183 63.7753 76.2698C63.7161 76.8113 63.8549 77.3559 64.1662 77.8029C63.9908 77.938 63.7859 78.0299 63.5683 78.0712C63.2805 77.682 62.9183 77.3538 62.5029 77.1054ZM63.9593 78.6384C64.1266 78.5914 64.2847 78.5162 64.4269 78.4161C67.3703 79.7882 70.0072 77.9409 70.8274 75.1967C71.1276 77.1029 71.1946 79.0386 71.0267 80.961C70.9476 81.3634 70.9476 81.7774 71.0267 82.1798C68.9972 83.2368 67.3509 84.9046 66.3202 86.9476C65.2818 87.212 64.2582 87.5318 63.2541 87.9058C64.7105 84.9546 65.707 81.4056 63.9593 78.6308V78.6384ZM62.8555 88.703C66.5118 87.4535 65.1551 87.8598 66.0749 87.5455C65.7726 88.233 65.5414 88.9496 65.385 89.6841C63.5756 91.6152 61.9582 93.7178 60.5559 95.962C60.4168 96.1537 60.3417 96.3844 60.3412 96.6212C60.3377 96.6297 60.3358 96.6388 60.3358 96.6481C60.3358 96.6573 60.3377 96.6664 60.3412 96.6749C60.3206 97.8341 60.6696 98.9698 61.3377 99.9173C61.6588 100.206 62.0371 100.423 62.4479 100.555C62.8587 100.687 63.2927 100.731 63.7216 100.684C64.5572 100.684 62.1886 100.898 87.921 97.8094C90.2206 97.702 91.1175 96.4526 92.2289 94.4213C92.9265 93.1412 95.456 88.9253 95.5097 88.8486C95.9222 88.182 96.175 87.4289 96.2481 86.6483C96.3213 85.8677 96.2128 85.0808 95.9313 84.3491C95.9375 84.2268 95.919 84.1044 95.8768 83.9894C95.8347 83.8744 95.7699 83.7691 95.6862 83.6796C95.6025 83.5902 95.5017 83.5186 95.3897 83.469C95.2777 83.4194 95.1569 83.3928 95.0344 83.3909C93.459 83.202 91.8639 83.2563 90.3049 83.5519C90.3033 83.0702 90.2069 82.5936 90.0213 82.1491C91.9836 81.6662 92.6275 81.4363 98.5988 79.7806C100.187 81.3734 101.869 82.8708 103.635 84.2648C103.665 84.3045 103.704 84.3366 103.748 84.3588C103.793 84.381 103.842 84.3925 103.892 84.3925C103.941 84.3925 103.991 84.381 104.035 84.3588C104.08 84.3366 104.118 84.3045 104.148 84.2648C105.153 82.2718 106.08 80.3248 106.908 78.4545L108.065 83.6439C107.675 83.7245 107.308 83.8973 106.998 84.148C106.687 84.3987 106.441 84.7199 106.279 85.0849C105.582 86.434 105.766 88.1511 105.927 89.6458C105.927 89.9294 106.417 94.9425 106.617 96.7975C106.621 96.8897 106.661 96.9766 106.728 97.0397C106.795 97.1028 106.885 97.1369 106.977 97.1348C108.24 96.5528 109.457 95.8763 110.618 95.1112L114.88 114.236C115.245 115.9 114.937 117.641 114.022 119.077C113.107 120.514 111.659 121.529 109.997 121.901L67.3473 131.406C65.6831 131.765 63.9443 131.453 62.509 130.537C61.0737 129.622 60.0578 128.177 59.682 126.516L54.5923 103.673C55.8647 100.469 61.0771 92.022 62.8555 88.703ZM121.158 126.002C121.143 127.65 120.568 129.243 119.527 130.521C118.486 131.798 117.042 132.684 115.432 133.031L66.6881 143.893C64.7922 144.305 62.8103 143.953 61.1727 142.912C59.5351 141.872 58.3742 140.227 57.942 138.336C55.949 129.452 55.4968 127.16 55.4968 127.16C55.5361 126.027 55.4745 124.893 55.3128 123.772C54.5999 116.712 51.9017 111.507 54.1094 104.907L59.0228 126.723C59.4267 128.557 60.5404 130.157 62.1204 131.173C63.7004 132.188 65.6183 132.537 67.4547 132.142L110.135 122.645C111.97 122.222 113.564 121.092 114.569 119.5C115.574 117.907 115.909 115.982 115.501 114.144L111.185 94.7816C112.143 94.13 113.063 93.4248 113.952 92.6813C121.924 128.294 121.173 124.454 121.15 126.002H121.158Z" fill="black"/>
<path d="M89.6841 128.777C89.0417 129.387 88.5758 130.159 88.3357 131.012C88.0955 131.864 88.09 132.766 88.3196 133.622C88.5321 134.557 89.0543 135.393 89.8015 135.994C90.5487 136.595 91.477 136.926 92.4359 136.933C93.3798 136.939 94.2929 136.597 95.0002 135.972C95.7074 135.347 96.1591 134.483 96.2686 133.545C96.3798 132.684 96.2803 131.808 95.9785 130.994C95.6768 130.179 95.1818 129.45 94.5362 128.869C93.8748 128.271 93.0192 127.932 92.1273 127.915C91.2355 127.898 90.3677 128.204 89.6841 128.777ZM93.5167 136.189C89.6841 137.439 87.5454 132.809 89.6841 129.735C90.172 129.161 90.8544 128.786 91.6009 128.683C92.3475 128.58 93.1059 128.755 93.7313 129.176C95.9926 130.785 96.5138 135.193 93.5167 136.205V136.189ZM80.8919 43.6002C81.7044 43.019 82.6241 42.6047 83.5978 42.3814C84.1267 42.2895 84.3107 42.2511 84.3643 42.0978C84.3668 42.0486 84.3509 42.0002 84.3198 41.9619C84.2886 41.9237 84.2444 41.8984 84.1957 41.8909C82.9324 41.9464 81.7306 42.4522 80.8076 43.3166C80.7863 43.3381 80.7712 43.3649 80.7638 43.3943C80.7564 43.4236 80.7571 43.4544 80.7657 43.4834C80.7743 43.5124 80.7906 43.5386 80.8128 43.5591C80.835 43.5797 80.8624 43.5939 80.8919 43.6002ZM84.2034 43.6922C83.6536 43.5388 83.0765 43.5101 82.5142 43.6082C81.9519 43.7064 81.4186 43.9288 80.9533 44.2594C80.9241 44.2825 80.9033 44.3146 80.8943 44.3508C80.8852 44.3869 80.8884 44.425 80.9033 44.4591C80.9182 44.4932 80.9439 44.5215 80.9765 44.5395C81.0091 44.5574 81.0468 44.5641 81.0836 44.5584C81.763 44.1801 82.5289 43.9846 83.3065 43.9912C83.8661 43.9912 84.234 44.1675 84.3107 43.9222C84.3257 43.8774 84.323 43.8285 84.303 43.7857C84.283 43.7429 84.2474 43.7094 84.2034 43.6922ZM81.2982 44.9187C81.2715 44.9131 81.2438 44.9136 81.2172 44.9201C81.1907 44.9266 81.1659 44.9389 81.1447 44.9561C81.1235 44.9734 81.1064 44.9951 81.0947 45.0198C81.083 45.0445 81.0769 45.0715 81.0769 45.0988C81.0769 45.1261 81.083 45.1531 81.0947 45.1778C81.1064 45.2025 81.1235 45.2242 81.1447 45.2415C81.1659 45.2587 81.1907 45.271 81.2172 45.2775C81.2438 45.284 81.2715 45.2845 81.2982 45.2789C81.7849 45.3253 82.2493 45.5058 82.6396 45.8002C82.6643 45.8232 82.6956 45.8378 82.7291 45.8421C82.7626 45.8464 82.7965 45.84 82.8262 45.8239C82.8558 45.8078 82.8797 45.7828 82.8944 45.7524C82.909 45.722 82.9138 45.6878 82.9079 45.6545C82.7097 45.4217 82.4628 45.2352 82.1847 45.108C81.9066 44.9809 81.604 44.9163 81.2982 44.9187ZM74.798 57.2828C76.6684 56.2173 78.1478 56.2097 79.5505 55.8034C79.7805 55.8034 79.7268 55.3895 79.5505 55.4201C77.8129 55.5535 76.1329 56.103 74.6524 57.0222C74.4148 57.1295 74.5681 57.4284 74.798 57.2828ZM60.8702 58.5552C62.7457 57.946 64.7349 57.7704 66.6881 58.0417C66.9028 58.0417 66.9411 57.7197 66.6498 57.6584C64.6801 57.2008 62.616 57.3806 60.7552 58.172C60.5559 58.2103 60.6785 58.5552 60.8702 58.5552Z" fill="black"/>
<path d="M62.9782 60.1879C64.0655 59.5907 65.2358 59.1592 66.4506 58.9078C66.7021 59.3511 67.0736 59.7144 67.5225 59.9558C67.9714 60.1971 68.4793 60.3068 68.9878 60.2722C69.1183 60.6861 69.3692 61.0517 69.7083 61.3224C69.9943 61.5786 70.3455 61.7509 70.7232 61.8202C71.1008 61.8896 71.4903 61.8532 71.8487 61.7153C72.207 61.5774 72.5203 61.3431 72.754 61.0385C72.9877 60.7338 73.1327 60.3705 73.1731 59.9886C73.7044 59.9446 74.2119 59.7484 74.6346 59.4235C75.0574 59.0986 75.3776 58.6587 75.557 58.1566C79.198 58.0186 79.6272 58.0493 81.2523 57.8653C81.5052 57.8653 81.4822 57.4744 81.2523 57.4437C79.3846 57.4283 77.5179 57.5358 75.6643 57.7657C75.6841 57.7056 75.6995 57.6441 75.7103 57.5817C75.7264 57.5418 75.7338 57.499 75.7319 57.456C75.7299 57.413 75.7187 57.3709 75.699 57.3327C75.6794 57.2944 75.6517 57.2609 75.6178 57.2343C75.584 57.2077 75.5448 57.1888 75.503 57.1787C75.4611 57.1687 75.4176 57.1678 75.3754 57.1761C75.3332 57.1844 75.2933 57.2018 75.2584 57.2269C75.2235 57.2521 75.1944 57.2845 75.1732 57.3219C75.152 57.3593 75.1391 57.4009 75.1354 57.4437C75.1202 57.5797 75.0893 57.7135 75.0434 57.8423C74.8518 57.8423 74.5605 57.8423 74.5758 58.0493C74.5911 58.2563 74.7674 58.1873 74.9054 58.1873C74.7617 58.4751 74.5592 58.7296 74.3109 58.9342C74.0627 59.1389 73.7743 59.2892 73.4643 59.3754C72.4985 59.59 71.755 58.9998 71.1647 57.5894C72.0769 56.3476 71.6553 55.88 71.1647 56.0563C71.0038 56.11 71.1647 56.0946 70.3369 56.0946C69.509 56.0946 69.4171 56.8228 70.0533 57.3977L70.4135 57.6967C70.2449 58.7008 69.8693 59.7663 68.8192 59.7893C68.4563 59.7814 68.1001 59.691 67.7773 59.525C67.4546 59.359 67.1739 59.1217 66.9565 58.8312L67.2554 58.7775C67.4547 58.7775 67.5697 58.4096 67.1251 58.4096C65.5631 58.4043 64.0384 58.8867 62.7636 59.7893C62.7374 59.8034 62.7143 59.8225 62.6955 59.8456C62.6767 59.8686 62.6626 59.8951 62.6541 59.9236C62.6455 59.9521 62.6427 59.9819 62.6457 60.0115C62.6487 60.0411 62.6575 60.0698 62.6716 60.0959C62.6857 60.1221 62.7048 60.1452 62.7278 60.164C62.7509 60.1828 62.7774 60.1969 62.8058 60.2054C62.8343 60.214 62.8642 60.2168 62.8938 60.2138C62.9233 60.2108 62.952 60.202 62.9782 60.1879ZM70.8428 58.1796C70.9813 58.5842 71.2109 58.9515 71.514 59.2532C71.817 59.5549 72.1853 59.7829 72.5905 59.9196C72.5905 60.0346 72.5905 60.1496 72.5445 60.2569C72.452 60.4943 72.3034 60.7059 72.1114 60.8734C71.9194 61.0409 71.6897 61.1595 71.4419 61.219C71.1941 61.2785 70.9356 61.2772 70.6884 61.2151C70.4413 61.153 70.2129 61.032 70.0226 60.8625C69.7889 60.6679 69.6005 60.4246 69.4707 60.1496C69.8434 59.9589 70.1635 59.6795 70.4028 59.336C70.6421 58.9924 70.7932 58.5953 70.8428 58.1796ZM63.1545 48.9966C63.4151 48.9966 63.4688 48.5597 64.243 48.0767C64.625 47.8755 65.0255 47.7113 65.4388 47.5862C65.7607 47.3869 65.6227 46.8196 64.8715 46.9883L64.5036 47.1262C63.8257 47.4376 63.2818 47.9814 62.9705 48.6593C62.9545 48.6932 62.9467 48.7303 62.9478 48.7678C62.9489 48.8052 62.9588 48.8419 62.9767 48.8747C62.9946 48.9076 63.0201 48.9358 63.051 48.957C63.0819 48.9781 63.1174 48.9917 63.1545 48.9966ZM75.4496 46.375C75.6431 46.3712 75.8363 46.3918 76.0245 46.4364C76.4378 46.5478 76.8366 46.7073 77.2127 46.9116C77.9792 46.9116 76.8831 45.7542 75.511 45.7235C75.2388 45.6965 74.9661 45.7701 74.7444 45.9305C74.3535 46.329 74.9131 46.5054 75.4496 46.375ZM68.1676 91.7307C68.2377 91.7193 68.3015 91.6834 68.3475 91.6293C68.3936 91.5752 68.4188 91.5066 68.4188 91.4355C68.4188 91.3645 68.3936 91.2958 68.3475 91.2418C68.3015 91.1877 68.2377 91.1518 68.1676 91.1404C68.0975 91.1518 68.0337 91.1877 67.9877 91.2418C67.9417 91.2958 67.9164 91.3645 67.9164 91.4355C67.9164 91.5066 67.9417 91.5752 67.9877 91.6293C68.0337 91.6834 68.0975 91.7193 68.1676 91.7307ZM70.3369 92.1446C70.407 92.1332 70.4708 92.0973 70.5168 92.0433C70.5628 91.9892 70.5881 91.9205 70.5881 91.8495C70.5881 91.7785 70.5628 91.7098 70.5168 91.6557C70.4708 91.6016 70.407 91.5657 70.3369 91.5544C70.2296 91.5544 70.0073 91.6847 70.0533 91.907C70.0682 91.972 70.104 92.0305 70.1552 92.0734C70.2064 92.1163 70.2702 92.1413 70.3369 92.1446ZM72.6365 90.8951C72.7008 90.8843 72.7592 90.851 72.8014 90.8012C72.8435 90.7514 72.8666 90.6883 72.8666 90.623C72.8666 90.5578 72.8435 90.4946 72.8014 90.4448C72.7592 90.395 72.7008 90.3617 72.6365 90.3509C72.5721 90.3617 72.5137 90.395 72.4716 90.4448C72.4295 90.4946 72.4064 90.5578 72.4064 90.623C72.4064 90.6883 72.4295 90.7514 72.4716 90.8012C72.5137 90.851 72.5721 90.8843 72.6365 90.8951ZM73.725 92.3745C73.7941 92.3745 73.8604 92.3471 73.9092 92.2982C73.9581 92.2493 73.9856 92.183 73.9856 92.1139C73.9856 92.0448 73.9581 91.9785 73.9092 91.9296C73.8604 91.8808 73.7941 91.8533 73.725 91.8533C73.6558 91.8533 73.5895 91.8808 73.5407 91.9296C73.4918 91.9785 73.4643 92.0448 73.4643 92.1139C73.4643 92.183 73.4918 92.2493 73.5407 92.2982C73.5895 92.3471 73.6558 92.3745 73.725 92.3745ZM76.5535 90.2129C76.5535 90.1458 76.5268 90.0815 76.4794 90.0341C76.4319 89.9866 76.3676 89.96 76.3005 89.96C76.2334 89.96 76.1691 89.9866 76.1216 90.0341C76.0742 90.0815 76.0475 90.1458 76.0475 90.2129C76.0475 90.28 76.0742 90.3444 76.1216 90.3918C76.1691 90.4392 76.2334 90.4659 76.3005 90.4659C76.3676 90.4659 76.4319 90.4392 76.4794 90.3918C76.5268 90.3444 76.5535 90.28 76.5535 90.2129ZM78.6001 91.9836C78.6491 91.9706 78.6925 91.9418 78.7234 91.9016C78.7544 91.8614 78.7712 91.812 78.7712 91.7613C78.7712 91.7106 78.7544 91.6613 78.7234 91.6211C78.6925 91.5809 78.6491 91.552 78.6001 91.539C78.5656 91.5389 78.5315 91.5468 78.5006 91.5621C78.4696 91.5774 78.4427 91.5997 78.4219 91.6272C78.401 91.6547 78.3869 91.6867 78.3806 91.7206C78.3743 91.7545 78.3759 91.7895 78.3855 91.8226C78.3976 91.8699 78.4255 91.9115 78.4645 91.9408C78.5035 91.9701 78.5514 91.9852 78.6001 91.9836ZM83.1839 91.2554C83.2913 91.2554 83.4522 91.1481 83.4062 90.9718C83.3602 90.7955 83.2529 90.7802 83.1839 90.8032C83.1311 90.8129 83.0834 90.8409 83.049 90.8822C83.0146 90.9235 82.9958 90.9755 82.9958 91.0293C82.9958 91.083 83.0146 91.1351 83.049 91.1764C83.0834 91.2177 83.1311 91.2456 83.1839 91.2554ZM84.1651 89.4004C84.2342 89.4004 84.3005 89.3729 84.3494 89.3241C84.3983 89.2752 84.4257 89.2089 84.4257 89.1398C84.4257 89.0707 84.3983 89.0044 84.3494 88.9555C84.3005 88.9066 84.2342 88.8792 84.1651 88.8792C84.096 88.8792 84.0297 88.9066 83.9808 88.9555C83.9319 89.0044 83.9045 89.0707 83.9045 89.1398C83.9045 89.2089 83.9319 89.2752 83.9808 89.3241C84.0297 89.3729 84.096 89.4004 84.1651 89.4004ZM80.7847 90.4506C80.8538 90.4506 80.9201 90.4231 80.969 90.3742C81.0179 90.3253 81.0453 90.2591 81.0453 90.1899C81.0453 90.1208 81.0179 90.0545 80.969 90.0056C80.9201 89.9568 80.8538 89.9293 80.7847 89.9293C80.7156 89.9293 80.6493 89.9568 80.6004 90.0056C80.5515 90.0545 80.5241 90.1208 80.5241 90.1899C80.5241 90.2591 80.5515 90.3253 80.6004 90.3742C80.6493 90.4231 80.7156 90.4506 80.7847 90.4506ZM67.0561 93.3404C67.0975 93.3403 67.1384 93.3308 67.1756 93.3128C67.2129 93.2948 67.2456 93.2686 67.2713 93.2362C67.2971 93.2038 67.3152 93.166 67.3244 93.1257C67.3336 93.0853 67.3336 93.0434 67.3244 93.0031C67.3196 92.9526 67.2986 92.9049 67.2647 92.8672C67.2308 92.8294 67.1857 92.8035 67.136 92.7932C67.0863 92.7829 67.0347 92.7888 66.9886 92.81C66.9425 92.8313 66.9044 92.8667 66.8798 92.9111C66.8553 92.9495 66.8404 92.9931 66.8364 93.0385C66.8323 93.0838 66.8392 93.1294 66.8565 93.1715C66.8738 93.2136 66.901 93.2509 66.9357 93.2803C66.9705 93.3097 67.0118 93.3303 67.0561 93.3404ZM80.0412 119.701L67.884 122.239C67.1204 122.399 66.4468 122.845 66.0006 123.486C65.5544 124.126 65.3691 124.912 65.4824 125.684C65.5958 126.456 65.9993 127.156 66.6108 127.641C67.2222 128.126 67.9955 128.36 68.7732 128.294C69.1104 128.294 68.1216 128.363 81.2446 125.68C81.6723 125.64 82.0867 125.51 82.461 125.299C82.8353 125.088 83.1611 124.801 83.4174 124.456C83.6736 124.111 83.8544 123.717 83.9483 123.297C84.0421 122.878 84.0468 122.444 83.962 122.023C83.8772 121.602 83.7049 121.203 83.4562 120.853C83.2075 120.502 82.8879 120.208 82.5182 119.989C82.1486 119.771 81.737 119.632 81.3103 119.582C80.8836 119.533 80.4512 119.573 80.0412 119.701ZM81.1066 124.975L68.9878 127.512C68.4073 127.594 67.8174 127.452 67.3386 127.114C66.8598 126.775 66.5283 126.267 66.4118 125.692C66.2953 125.118 66.4027 124.52 66.712 124.022C67.0212 123.524 67.509 123.163 68.0756 123.013C77.1743 121.089 79.6579 120.552 80.3401 120.43C80.9247 120.357 81.5154 120.505 81.9961 120.845C82.4769 121.186 82.8131 121.694 82.9387 122.269C83.0486 122.867 82.9176 123.483 82.5744 123.985C82.2311 124.486 81.7035 124.831 81.1066 124.944V124.975Z" fill="black"/>
<path d="M79.4893 122.438C78.5388 122.561 74.8058 124.078 69.0645 124.914C68.8422 124.914 68.8652 125.274 69.0645 125.274C70.8965 125.274 78.0329 123.741 79.6503 122.86C79.689 122.828 79.7168 122.785 79.7297 122.737C79.7426 122.688 79.74 122.637 79.7221 122.591C79.7043 122.544 79.6722 122.504 79.6304 122.477C79.5886 122.449 79.5392 122.436 79.4893 122.438ZM104.248 114.78C101.412 115.777 101.335 119.824 104.202 120.391C104.586 120.454 104.978 120.437 105.354 120.342C105.731 120.247 106.084 120.076 106.391 119.838C106.699 119.601 106.955 119.303 107.142 118.963C107.33 118.623 107.446 118.248 107.483 117.862C108.027 116.137 105.996 114.297 104.248 114.78ZM104.838 119.931C104.53 119.958 104.219 119.917 103.928 119.811C103.636 119.705 103.372 119.537 103.153 119.318C102.934 119.098 102.765 118.834 102.659 118.543C102.553 118.251 102.512 117.941 102.539 117.632C102.7 116.206 103.98 114.918 105.344 115.332C108.219 116.359 106.893 119.763 104.869 119.931H104.838Z" fill="black"/>
<path d="M104.133 116.75C103.917 116.766 103.713 116.858 103.558 117.011C103.267 117.448 103.489 117.777 103.919 117.777C103.857 118.383 103.788 119.119 104.325 119.15C104.509 119.15 105.306 118.996 105.735 118.904C105.786 118.909 105.837 118.902 105.885 118.886C105.934 118.869 105.978 118.843 106.015 118.808C106.053 118.773 106.083 118.731 106.103 118.685C106.124 118.638 106.134 118.587 106.134 118.536C106.134 118.276 106.134 118.705 106.05 117.617C106.264 117.617 106.364 117.517 106.371 117.341L106.326 116.873C106.325 116.84 106.317 116.807 106.303 116.777C106.29 116.746 106.27 116.719 106.246 116.696C106.222 116.674 106.193 116.656 106.162 116.644C106.131 116.632 106.098 116.627 106.065 116.628C105.858 116.628 105.551 116.666 105.551 116.666C105.551 116.666 105.889 116.559 105.935 116.321C105.95 116.264 105.95 116.203 105.933 116.146C105.917 116.089 105.886 116.037 105.843 115.996C105.799 115.955 105.746 115.927 105.688 115.914C105.63 115.901 105.569 115.904 105.513 115.922C105.384 115.993 105.27 116.088 105.178 116.202C105.086 116.317 105.017 116.448 104.976 116.589C104.424 115.585 103.566 116.206 104.133 116.75ZM105.536 117.632C105.536 117.984 105.59 118.13 105.62 118.398C105.337 118.398 104.624 118.613 104.356 118.651C104.347 118.608 104.347 118.564 104.356 118.521V117.754C104.745 117.682 105.14 117.641 105.536 117.632ZM97.8323 115.654C95.5327 115.401 93.9997 117.731 94.6359 119.839C94.8762 120.436 95.2957 120.944 95.8366 121.293C96.3775 121.642 97.0131 121.814 97.656 121.786C101.182 121.556 101.489 116.007 97.8323 115.654ZM99.3654 120.453C98.8945 120.949 98.2457 121.239 97.5617 121.257C96.8776 121.276 96.214 121.022 95.7167 120.552C95.3142 120.145 95.0572 119.615 94.9856 119.047C94.914 118.478 95.0317 117.902 95.3206 117.407C95.6095 116.913 96.0534 116.527 96.5837 116.31C97.1139 116.092 97.7009 116.056 98.2539 116.206C98.6708 116.34 99.0467 116.578 99.3464 116.898C99.646 117.217 99.8595 117.607 99.9668 118.032C100.074 118.457 100.072 118.902 99.9598 119.325C99.8479 119.748 99.6302 120.137 99.3271 120.453H99.3654ZM109.338 115.907L110.526 116.444C110.166 117.065 109.836 117.685 109.545 118.276C109.51 118.332 109.499 118.399 109.515 118.463C109.53 118.527 109.57 118.582 109.625 118.617C109.681 118.651 109.749 118.662 109.813 118.647C109.877 118.632 109.932 118.592 109.967 118.536C110.327 117.992 110.733 117.402 111.124 116.712C111.53 116.919 111.668 116.965 112.427 117.279C112.589 117.382 112.783 117.42 112.971 117.387C113.009 117.375 113.044 117.355 113.073 117.328C113.102 117.301 113.124 117.267 113.137 117.23C113.151 117.192 113.155 117.153 113.15 117.113C113.145 117.074 113.131 117.036 113.109 117.003C112.933 116.781 112.918 116.812 111.423 116.237C111.799 115.585 112.527 114.635 112.013 114.474C111.638 114.359 111.247 115.24 110.81 116.007L109.53 115.486C109.231 115.317 109.062 115.792 109.338 115.907ZM80.8767 109.507C79.3896 109.714 76.9137 110.396 72.3759 111.285C65.8374 112.573 66.0443 112.396 63.8674 112.987C63.8202 112.999 63.7785 113.027 63.7488 113.066C63.719 113.105 63.7029 113.152 63.7029 113.201C63.7029 113.25 63.719 113.298 63.7488 113.336C63.7785 113.375 63.8202 113.403 63.8674 113.416C65.2778 113.416 78.3165 110.817 80.984 110.059C81.0491 110.037 81.1041 109.992 81.1386 109.932C81.1732 109.873 81.185 109.803 81.1719 109.736C81.1588 109.668 81.1216 109.608 81.0673 109.566C81.013 109.524 80.9453 109.503 80.8767 109.507ZM87.6911 103.888C89.9907 103.459 92.482 103.121 94.7892 102.57C95.0805 102.57 95.0575 102.056 94.7892 102.087C90.3587 102.531 63.1852 108.004 62.7789 108.686C62.2653 109.522 68.7962 107.314 87.6911 103.888ZM100.454 104.348C99.5034 103.727 98.3996 104.294 97.7863 105.191C96.7132 107.115 97.0965 108.916 97.863 110.994C97.7863 110.994 64.3196 117.647 64.266 117.762C64.2123 117.877 64.266 118.053 64.4193 118.053C66.5732 118.053 95.3948 112.297 98.07 111.523C98.2913 112.1 98.5472 112.663 98.8365 113.209C98.8666 113.26 98.9092 113.302 98.9602 113.331C99.0112 113.361 99.0689 113.377 99.1278 113.378C99.4957 113.378 102.715 111.162 103.466 110.626C104.555 109.859 105.674 109.016 105.843 107.667C106.134 105.291 103.006 104.739 101.45 106.134C101.365 105.431 101.007 104.79 100.454 104.348ZM45.486 21.3173C45.0277 21.048 44.505 20.9079 43.9735 20.9118C43.442 20.9156 42.9214 21.0634 42.4671 21.3392C42.0128 21.6151 41.6416 22.0089 41.3931 22.4788C41.1445 22.9486 41.0279 23.477 41.0554 24.0078C41.0305 24.041 41.0171 24.0813 41.0171 24.1228C41.0171 24.1642 41.0305 24.2046 41.0554 24.2377C41.4217 24.6874 41.9014 25.0312 42.445 25.2335C42.9885 25.4358 43.5762 25.4893 44.1474 25.3885C44.7186 25.2877 45.2525 25.0362 45.6939 24.6601C46.1354 24.284 46.4685 23.7968 46.6588 23.2489C46.8657 23.0803 46.7431 22.8657 46.7124 22.766C46.5086 22.1414 46.0684 21.6214 45.486 21.3173ZM41.3927 24.0614C41.4155 23.5563 41.5791 23.0676 41.8648 22.6504C42.1506 22.2333 42.5473 21.9043 43.0101 21.7005C41.9983 22.4671 42.3125 24.621 43.5236 24.8356C42.7415 24.8532 41.9812 24.577 41.3927 24.0614ZM44.2748 24.713C44.5522 24.5053 44.7693 24.2276 44.904 23.9084C45.0387 23.5892 45.0861 23.2399 45.0414 22.8963C45.0169 22.5844 44.9066 22.2854 44.7226 22.0324C44.5385 21.7794 44.2881 21.5823 43.9989 21.4629C44.446 21.465 44.8827 21.5973 45.2557 21.8437C45.6288 22.0901 45.9219 22.4399 46.0992 22.8503C45.9704 23.2813 45.7404 23.6753 45.4284 23.9993C45.1163 24.3233 44.7313 24.568 44.3055 24.713H44.2748ZM49.4029 20.2901C49.3886 20.2266 49.3522 20.1703 49.3003 20.131C49.2484 20.0917 49.1843 20.0721 49.1193 20.0755C48.6364 20.0755 49.0043 20.658 48.3528 22.4441C48.339 22.4884 48.3404 22.536 48.3569 22.5794C48.3735 22.6228 48.4041 22.6593 48.4439 22.6832C48.4837 22.7071 48.5303 22.7169 48.5764 22.711C48.6224 22.7052 48.6651 22.6841 48.6977 22.651C48.8667 22.3641 49.0006 22.0578 49.0963 21.7389C49.2343 22.4517 49.3799 23.1416 49.5256 23.8008C49.5346 23.8401 49.5513 23.8772 49.5747 23.91C49.5981 23.9428 49.6278 23.9707 49.6619 23.992C49.6961 24.0134 49.7341 24.0278 49.7739 24.0344C49.8136 24.0411 49.8543 24.0398 49.8935 24.0308C49.9328 24.0217 49.9699 24.005 50.0027 23.9816C50.0355 23.9582 50.0633 23.9286 50.0847 23.8944C50.106 23.8603 50.1205 23.8222 50.1271 23.7825C50.1338 23.7428 50.1325 23.7021 50.1235 23.6628C49.9088 22.559 49.6636 21.4629 49.4029 20.2901ZM54.1861 22.3827C53.4885 22.5054 53.0516 22.5897 52.5074 22.7353C53.0556 22.0352 53.367 21.1789 53.3966 20.2901C53.3759 20.0438 53.2804 19.8097 53.1228 19.6192C52.9652 19.4287 52.7532 19.291 52.5151 19.2246C52.2929 19.1443 52.0515 19.1338 51.8232 19.1946C51.595 19.2554 51.3908 19.3846 51.2381 19.5648C51.0854 19.7451 50.9915 19.9677 50.969 20.2029C50.9465 20.438 50.9965 20.6744 51.1123 20.8803C51.166 21.1026 51.5416 20.8803 51.4879 20.75C51.4205 20.5647 51.4195 20.3617 51.4853 20.1757C51.551 19.9897 51.6793 19.8324 51.8482 19.7305C52.0206 19.6595 52.2131 19.6538 52.3895 19.7145C52.5659 19.7751 52.7141 19.898 52.8063 20.0602C52.868 20.3218 52.874 20.5936 52.8238 20.8577C52.7736 21.1218 52.6684 21.3724 52.5151 21.5932C51.8022 23.0036 51.2886 23.1263 51.5952 23.4482C51.6286 23.4844 51.6713 23.5106 51.7186 23.5242C51.7659 23.5377 51.8161 23.5379 51.8635 23.5249C52.7055 23.4086 53.5381 23.2319 54.3547 22.996C54.4169 22.9591 54.4653 22.9028 54.4924 22.8358C54.5195 22.7688 54.5238 22.6947 54.5046 22.625C54.4854 22.5552 54.4439 22.4938 54.3863 22.45C54.3287 22.4062 54.2584 22.3826 54.1861 22.3827ZM57.5512 21.5932C57.6617 21.2729 57.6679 20.9258 57.5687 20.6017C57.4695 20.2777 57.2702 19.9934 56.9993 19.7898C56.7284 19.5862 56.3999 19.4738 56.0611 19.4687C55.7223 19.4635 55.3905 19.5659 55.1136 19.7612C55.0642 19.5331 54.9705 19.3169 54.8376 19.125C55.4261 19.0516 56 18.8887 56.5393 18.6421C56.6108 18.6284 56.6771 18.5955 56.7311 18.5468C56.7852 18.4982 56.8249 18.4357 56.846 18.3661C56.8582 18.3078 56.8523 18.2472 56.829 18.1923C56.8057 18.1375 56.7661 18.0912 56.7156 18.0595C56.501 17.9292 56.2481 18.1055 56.0794 18.1745C53.0133 19.3473 54.715 18.4428 54.6537 20.3438C54.6551 20.4025 54.6752 20.4592 54.7111 20.5056C54.747 20.5521 54.7968 20.5859 54.8532 20.6022C54.9096 20.6184 54.9698 20.6162 55.0249 20.596C55.08 20.5757 55.1272 20.5384 55.1596 20.4894C55.1785 20.4704 55.1917 20.4465 55.1979 20.4204C55.3505 20.2105 55.5774 20.0667 55.8323 20.0183C56.0873 19.9698 56.3511 20.0205 56.57 20.1598C56.718 20.2682 56.8355 20.4129 56.9112 20.58C56.9868 20.7471 57.0181 20.9308 57.0019 21.1135C56.9857 21.2962 56.9226 21.4717 56.8188 21.6229C56.7149 21.774 56.5738 21.8958 56.409 21.9765C56.0179 22.1233 55.5965 22.1708 55.1826 22.1145C54.9526 22.1145 54.8453 22.3521 54.9986 22.4901C55.2152 22.642 55.4648 22.7401 55.7269 22.7762C55.9889 22.8124 56.2558 22.7855 56.5054 22.6978C56.755 22.6101 56.9801 22.4641 57.1619 22.272C57.3438 22.0799 57.4772 21.8472 57.5512 21.5932ZM58.356 20.4511C58.8418 20.3947 59.3216 20.2947 59.7894 20.1521C59.8004 20.6726 59.8856 21.1888 60.0424 21.6852C60.073 21.7292 60.1151 21.7638 60.1641 21.7854C60.2131 21.807 60.2671 21.8146 60.3202 21.8075C60.3733 21.8004 60.4234 21.7787 60.465 21.745C60.5066 21.7112 60.538 21.6667 60.556 21.6162C60.6004 21.0632 60.5406 20.5068 60.3797 19.9758C60.6641 19.9356 60.9306 19.8131 61.1462 19.6232C61.1746 19.587 61.1933 19.5441 61.2003 19.4986C61.2073 19.453 61.2025 19.4065 61.1864 19.3634C61.1702 19.3202 61.1432 19.282 61.108 19.2523C61.0727 19.2227 61.0305 19.2026 60.9852 19.194C60.05 19.0713 60.349 19.7995 60.1037 18.5961C60.1037 18.5331 60.0787 18.4726 60.0341 18.4281C59.9895 18.3835 59.9291 18.3585 59.8661 18.3585C59.8031 18.3585 59.7426 18.3835 59.6981 18.4281C59.6535 18.4726 59.6285 18.5331 59.6285 18.5961C59.6285 18.7187 59.6285 18.6651 59.6821 19.4546C59.4062 19.5312 59.1609 19.6232 58.9156 19.7229C58.6703 19.8225 59.0995 18.8874 59.1915 17.6839C59.1922 17.644 59.1787 17.6052 59.1534 17.5743C59.1282 17.5434 59.0928 17.5225 59.0536 17.5153C58.7776 17.4616 58.7699 17.7529 58.218 20.0832C58.1891 20.1504 58.1873 20.2263 58.213 20.2949C58.2387 20.3635 58.29 20.4194 58.356 20.4511Z" fill="black"/>
<path d="M62.8555 20.6274C64.5342 20.6274 64.9174 17.8449 63.2924 16.6645C62.4722 16.0742 61.6597 16.2199 61.2917 17.178C60.8318 18.4735 61.5217 20.6274 62.8555 20.6274ZM63.2617 17.5613C63.9133 18.3892 63.7446 19.7306 63.0011 20.0065C62.2576 20.2825 61.629 19.079 61.6903 17.9982C61.79 16.5188 62.7098 16.7948 63.2847 17.5307L63.2617 17.5613Z" fill="black"/>
<path d="M66.1056 19.9298C67.9836 19.9298 68.4052 16.787 66.7495 15.6985C66.5976 15.5822 66.4213 15.5016 66.234 15.4628C66.0466 15.424 65.8529 15.4279 65.6672 15.4743C65.4816 15.5207 65.3088 15.6084 65.1617 15.7308C65.0147 15.8533 64.8971 16.0073 64.8178 16.1814C64.6129 16.4844 64.4913 16.836 64.4652 17.2009C64.1739 18.3967 64.8485 19.9298 66.1056 19.9298ZM65.0708 16.6337C65.1141 16.5103 65.1829 16.3973 65.2726 16.3021C65.3623 16.2069 65.471 16.1316 65.5916 16.081C65.7123 16.0305 65.8422 16.0058 65.973 16.0085C66.1037 16.0113 66.2325 16.0415 66.3509 16.0971C67.5543 16.8636 67.3167 19.7151 65.6303 19.1632C65.3877 18.9925 65.1941 18.761 65.069 18.492C64.9439 18.223 64.8916 17.9258 64.9175 17.6302C64.9121 17.2918 64.9639 16.9548 65.0708 16.6337ZM68.5125 18.619C68.6581 18.619 68.3439 18.619 69.3787 18.4657C69.9306 18.3814 69.8463 18.3967 70.6358 18.2357C70.911 18.2243 71.1772 18.1338 71.4023 17.9751C71.4655 17.9106 71.5009 17.8239 71.5009 17.7337C71.5009 17.6434 71.4655 17.5567 71.4023 17.4922C71.2183 17.3082 70.7584 17.3772 70.5208 17.4922C69.6853 17.6762 69.8003 17.6455 69.279 17.7911C69.6732 17.172 69.9343 16.4777 70.0456 15.7522C70.1452 14.9856 69.5013 14.3034 68.8728 14.5181C68.7465 14.5543 68.6344 14.6284 68.5514 14.7302C68.4684 14.8321 68.4186 14.9569 68.4086 15.0878C68.3986 15.2188 68.4289 15.3497 68.4954 15.463C68.5619 15.5763 68.6615 15.6665 68.7808 15.7215C69.2024 15.9055 69.2254 15.3919 69.0567 15.3689C69.019 15.3584 68.9861 15.335 68.9637 15.3028C68.9413 15.2706 68.9309 15.2317 68.9341 15.1926C68.9341 14.9243 69.1947 14.9397 69.3403 15.07C69.9612 15.6755 68.9417 17.4079 68.2979 18.1361C68.269 18.1801 68.2517 18.2306 68.2474 18.283C68.2432 18.3354 68.2521 18.388 68.2735 18.4361C68.2948 18.4841 68.3279 18.5261 68.3697 18.558C68.4114 18.59 68.4605 18.6109 68.5125 18.619ZM72.1075 16.5877C72.3758 16.5877 72.2992 16.4344 72.6671 15.162C73.2037 17.4615 73.2343 17.6072 73.5103 17.7375C73.5519 17.7698 73.6032 17.7874 73.6559 17.7874C73.7086 17.7874 73.7599 17.7698 73.8016 17.7375C74.0009 17.4692 73.9165 17.3466 73.403 15.5376C72.9737 14.0428 72.9737 13.9662 72.6824 13.9585C72.6282 13.9613 72.5765 13.9826 72.5361 14.0189C72.4956 14.0551 72.4688 14.1042 72.4601 14.1578C72.3145 14.8707 72.1229 15.5682 71.9006 16.3424C71.9014 16.4009 71.9224 16.4573 71.9602 16.5021C71.9979 16.5468 72.05 16.5771 72.1075 16.5877ZM96.2379 99.465L97.2421 100.431C97.4797 100.73 98.0699 101.328 98.4455 101.328C98.8211 101.328 99.212 100.799 99.488 100.385C100.189 99.5824 100.726 98.65 101.067 97.6406C101.412 95.8546 99.1584 94.4672 98.0469 96.8741C97.2114 95.5557 94.0456 95.9466 94.7048 97.6406C95.0684 98.3588 95.5931 98.9832 96.2379 99.465ZM122.2 47.6935C121.946 47.5275 121.646 47.4483 121.343 47.4676C121.04 47.487 120.752 47.6039 120.522 47.8008C119.971 48.3644 119.577 49.062 119.379 49.8245C118.963 50.7877 118.6 51.7729 118.291 52.7756C118.145 53.3965 118.49 53.3965 118.628 53.2815C119.993 53.3888 124.531 52.3464 124.431 50.8133C124.353 50.4525 124.139 50.1355 123.834 49.9285C123.528 49.7214 123.154 49.6402 122.791 49.7018C122.903 49.3463 122.906 48.9655 122.801 48.6078C122.696 48.2502 122.487 47.9319 122.2 47.6935ZM122.024 73.2266C123.112 71.7472 124.101 69.9919 123.894 67.9836C123.874 67.4553 123.737 66.9381 123.493 66.469C123.249 65.9999 122.904 65.5905 122.484 65.2701C121.518 64.6952 120.422 65.523 119.686 66.0826C115.961 68.8881 114.803 73.6636 113.761 77.7568C113.546 78.623 113.316 79.5122 113.186 80.386C112.703 82.0494 114.006 82.3944 115.118 82.4863C118.406 82.7393 123.22 80.8766 126.547 79.9415C128.156 79.4892 130.854 78.7303 130.808 76.3848C130.778 73.8015 126.179 71.41 122.024 73.2266ZM117.731 46.6434C117.76 46.6814 117.797 46.7123 117.84 46.7336C117.882 46.7549 117.929 46.766 117.977 46.766C118.024 46.766 118.071 46.7549 118.114 46.7336C118.156 46.7123 118.193 46.6814 118.222 46.6434C120.461 43.3554 122.464 39.9127 124.216 36.3412C125.634 33.2751 123.91 29.3274 120.683 30.025C119.364 30.3316 118.222 31.3511 117.295 33.0528C116.979 31.9854 116.269 31.0781 115.309 30.5156C112.128 28.7219 108.502 32.1713 110.258 35.3524C112.298 39.3958 114.806 43.1855 117.731 46.6434ZM65.9216 52.3387C65.9274 52.5531 65.9557 52.7664 66.0059 52.9749C66.0519 53.4348 66.1133 53.9254 66.5732 53.9254C66.6336 53.9234 66.693 53.9096 66.748 53.8846C66.8031 53.8596 66.8527 53.8241 66.894 53.7799C66.9353 53.7358 66.9674 53.6839 66.9887 53.6274C67.0099 53.5708 67.0198 53.5106 67.0178 53.4502C66.9454 53.0347 66.835 52.6267 66.6882 52.2314C66.6508 52.1537 66.5898 52.09 66.5138 52.0493C66.4379 52.0086 66.351 51.9932 66.2657 52.0051C66.1804 52.017 66.1011 52.0558 66.0392 52.1158C65.9774 52.1757 65.9362 52.2538 65.9216 52.3387ZM74.7137 51.0969C74.6311 51.0345 74.5284 51.0047 74.4252 51.0132C74.322 51.0217 74.2255 51.0679 74.1542 51.1429C73.8245 51.2962 73.7709 53.0899 74.4991 53.0899C74.6102 53.0933 74.7188 53.0563 74.8047 52.9859C74.8907 52.9154 74.9482 52.8162 74.9667 52.7066C74.9667 52.3617 74.9207 52.4 74.9207 52.17C74.9207 51.3575 74.8594 51.2119 74.7137 51.0969ZM99.0511 117.57C98.7061 116.934 97.8016 117.134 97.518 117.793C97.4451 117.699 97.3537 117.621 97.2495 117.563C97.1453 117.506 97.0305 117.47 96.9121 117.459C96.7936 117.447 96.6741 117.46 96.5608 117.496C96.4476 117.533 96.3429 117.592 96.2532 117.67C96.1247 117.786 96.0229 117.929 95.9546 118.088C95.8863 118.247 95.8532 118.42 95.8576 118.593C95.8619 118.766 95.9037 118.936 95.9799 119.092C96.0561 119.247 96.165 119.385 96.2992 119.494C96.7591 119.822 97.2494 120.104 97.7633 120.338C97.8433 120.391 97.9357 120.422 98.0316 120.43C98.2462 120.43 98.3382 120.085 98.4225 119.924C98.9438 118.858 99.2887 118.299 99.0511 117.57ZM89.3315 119.632C89.4618 120.399 89.5768 121.257 89.6304 121.51L91.0868 121.173C91.1941 121.173 91.2018 121.227 90.8185 119.356C90.315 119.399 89.8168 119.492 89.3315 119.632Z" fill="black"/>
<path d="M89.4082 117.617C88.8531 117.835 88.3676 118.2 88.0032 118.672C87.6388 119.145 87.4091 119.707 87.3385 120.299C87.2741 120.674 87.2918 121.058 87.3904 121.425C87.4891 121.792 87.6663 122.133 87.9098 122.424C88.1533 122.716 88.4573 122.951 88.8007 123.114C89.1442 123.276 89.5188 123.362 89.8987 123.365C90.4879 123.34 91.0605 123.162 91.5612 122.851C92.062 122.539 92.4741 122.104 92.7579 121.587C93.6164 119.579 91.7154 116.973 89.4082 117.617ZM91.7078 121.281V121.388C91.5391 121.802 91.2938 121.84 89.9371 122.078L89.7224 122.116C89.6419 122.142 89.5568 122.152 89.4724 122.144C89.388 122.136 89.3062 122.111 89.2319 122.07C89.1715 122.03 89.1213 121.977 89.0854 121.915C89.0494 121.852 89.0287 121.782 89.0249 121.71C89.0249 121.633 89.0249 121.411 88.9636 121.127C88.8765 120.621 88.8278 120.108 88.8179 119.594C88.7873 119.497 88.7873 119.393 88.8179 119.295C88.8443 119.235 88.8844 119.181 88.9349 119.138C88.9854 119.096 89.0451 119.066 89.1092 119.05C89.6784 118.9 90.2572 118.79 90.8416 118.72C90.9434 118.719 91.0431 118.75 91.1259 118.809C91.2087 118.869 91.2703 118.953 91.3015 119.05C91.4471 119.77 91.5314 120.223 91.5928 120.522C91.675 120.766 91.7139 121.023 91.7078 121.281Z" fill="black"/>
</svg>
