<svg width="154" height="154" viewBox="0 0 154 154" fill="none" xmlns="http://www.w3.org/2000/svg">
<path d="M104.286 23.3717C104.282 23.3617 104.276 23.3532 104.267 23.3472C104.258 23.3412 104.247 23.338 104.237 23.338C104.226 23.338 104.215 23.3412 104.207 23.3472C104.198 23.3532 104.191 23.3617 104.187 23.3717C104.187 23.8469 103.497 24.1382 103.689 24.6748C103.773 24.9048 104.087 25.0657 104.263 24.8358C104.27 24.8244 104.273 24.8118 104.274 24.7989C104.274 24.786 104.272 24.7731 104.267 24.7612C104.262 24.7493 104.254 24.7388 104.244 24.7305C104.234 24.7222 104.222 24.7162 104.21 24.7131H104.125C103.758 24.7131 103.758 24.4525 104.171 23.9466C104.234 23.8664 104.277 23.7726 104.297 23.6728C104.317 23.573 104.314 23.4698 104.286 23.3717ZM105.911 22.5975C105.957 22.7201 106.157 22.6818 106.18 22.5592C106.18 22.3004 106.146 22.0428 106.08 21.7926C106.08 21.7642 106.069 21.7369 106.049 21.7168C106.029 21.6966 106.001 21.6853 105.973 21.6853C105.944 21.6853 105.917 21.6966 105.897 21.7168C105.877 21.7369 105.865 21.7642 105.865 21.7926C105.815 22.0607 105.831 22.3369 105.911 22.5975ZM102.416 22.0073C102.416 22.2449 102.416 22.7125 102.654 22.8581C102.665 22.8644 102.678 22.8679 102.691 22.8685C102.704 22.8691 102.716 22.8667 102.728 22.8616C102.74 22.8564 102.751 22.8485 102.759 22.8386C102.767 22.8287 102.773 22.817 102.776 22.8045C102.738 22.5453 102.682 22.2891 102.608 22.0379C102.592 21.8923 102.416 21.8846 102.416 22.0073ZM101.68 21.0798C101.666 21.1031 101.662 21.1312 101.668 21.1578C101.675 21.1844 101.691 21.2073 101.715 21.2216C101.738 21.2358 101.766 21.2402 101.793 21.2337C101.819 21.2272 101.842 21.2105 101.857 21.1871C101.972 21.0338 102.623 20.5815 102.7 20.4206C102.71 20.4085 102.716 20.3938 102.718 20.3783C102.72 20.3627 102.718 20.3469 102.712 20.3326C102.705 20.3182 102.695 20.306 102.682 20.2971C102.669 20.2883 102.654 20.2833 102.638 20.2826C102.217 20.2749 101.849 20.7502 101.68 21.0798ZM105.988 20.0756C106.371 20.1216 106.571 20.4282 106.755 20.7195C106.767 20.7418 106.787 20.7591 106.811 20.7688C106.835 20.7785 106.861 20.7799 106.886 20.7728C106.911 20.7658 106.932 20.7506 106.947 20.7299C106.963 20.7091 106.97 20.6838 106.969 20.6582C106.969 20.1599 106.425 19.8533 105.973 19.8457C105.835 19.838 105.842 20.0603 105.988 20.0756ZM113.653 45.992C115.301 45.8924 116.919 45.4248 118.567 45.2791C118.697 45.2791 118.697 45.0568 118.567 45.0722C116.904 45.219 115.257 45.514 113.646 45.9537L113.653 45.992ZM105.72 46.3216C105.842 46.3216 105.789 46.1147 105.666 46.13C103.957 46.3983 102.24 46.7049 100.538 47.0268C100.492 47.0268 100.538 47.1111 100.538 47.1111C102.278 46.8735 104.01 46.6206 105.72 46.3216ZM80.4397 90.0139L68.2212 81.5054L65.9062 85.361L82.1797 96.1231L95.8086 70.8966L91.884 69.0569L80.4397 90.0139Z" fill="black"/>
<path d="M101.128 59.8508C100.921 59.3296 100.822 59.3985 100.27 59.2836C99.3576 59.0843 98.4378 58.908 97.518 58.724C94.6665 58.1491 91.8686 57.1909 89.0861 56.4244C86.2726 55.6698 83.5226 54.6959 80.8613 53.5116C80.0947 53.1743 79.3895 52.8447 78.6843 52.4461C78.2627 52.2008 77.3889 51.4343 76.9213 51.465C76.653 51.465 76.7833 51.465 76.4767 51.7256C75.9018 52.2622 75.3422 52.7911 74.7367 53.2586C72.3681 55.1039 69.8474 56.745 67.2017 58.1644C63.1335 60.6308 58.8969 62.808 54.5233 64.6799C54.4928 64.6882 54.4659 64.7062 54.4466 64.731C54.4272 64.7559 54.4165 64.7864 54.4159 64.8179C54.0234 69.3691 54.4492 73.9538 55.673 78.3549C56.8156 82.7929 58.1895 87.1681 59.7893 91.4625C62.6408 99.2581 66.8951 106.502 73.1883 111.952C79.7574 117.647 85.4528 118.644 85.5064 118.59C87.8111 116.836 89.9232 114.842 91.8073 112.642C96.1736 107.771 99.5758 102.116 101.834 95.9774C103.21 92.1529 104.074 88.1629 104.401 84.1115C104.831 78.7458 104.064 73.4491 103.137 68.137C102.766 65.311 102.092 62.533 101.128 59.8508ZM103.152 90.512C102.114 95.5603 100.146 100.372 97.3493 104.701C90.3049 115.079 85.4834 118.291 85.4068 118.345C78.2886 115.932 72.0746 111.408 67.5926 105.375C65.4756 102.591 63.6566 99.5931 62.1656 96.4296C60.5223 92.74 59.1117 88.951 57.942 85.085C56.6692 81.395 55.6826 77.6125 54.9908 73.771C54.655 71.7292 54.4986 69.6619 54.5233 67.5928C54.5233 67.1022 54.6152 64.9712 54.6076 64.9789C54.6842 64.8486 60.3182 62.4417 62.6945 61.0926C65.9216 59.2222 69.2636 57.4899 72.3604 55.3743C73.7168 54.4775 74.9985 53.4726 76.1931 52.3695C76.6223 51.9709 76.791 51.7639 77.3735 52.0015C77.7798 52.1625 80.1867 53.5346 81.0299 53.8795C84.4164 55.3073 87.9065 56.4758 91.47 57.3749C93.3327 57.9038 95.1954 58.5094 97.0887 58.908C98.288 59.0952 99.4755 59.3512 100.645 59.6745C101.082 59.9505 101.956 63.4382 102.178 64.358C102.592 66.259 102.899 68.1907 103.229 70.0917C104.386 76.9291 104.7 83.6976 103.152 90.5274V90.512ZM50.3227 28.3157C50.3112 28.3285 50.3035 28.3442 50.3004 28.3612C50.2974 28.3781 50.2992 28.3955 50.3056 28.4115C50.312 28.4274 50.3227 28.4413 50.3366 28.4515C50.3504 28.4616 50.3669 28.4677 50.384 28.469C50.5242 28.4514 50.6546 28.3876 50.7545 28.2877C50.8545 28.1877 50.9183 28.0574 50.9359 27.9171C50.9359 27.7868 50.4683 27.2119 50.3917 26.9513C50.3869 26.9378 50.3781 26.9261 50.3665 26.9178C50.3548 26.9095 50.3408 26.905 50.3265 26.905C50.3122 26.905 50.2982 26.9095 50.2865 26.9178C50.2749 26.9261 50.2661 26.9378 50.2613 26.9513C50.1924 27.1736 50.7136 27.8022 50.6829 27.9708C50.6523 28.1394 50.4376 28.2008 50.3227 28.3157ZM51.7331 25.8322C51.6602 26.0808 51.6291 26.3399 51.6411 26.5987C51.6411 26.821 51.986 26.821 51.9937 26.5987C52.0284 26.3401 51.9995 26.077 51.9094 25.8322C51.9009 25.8161 51.8882 25.8027 51.8727 25.7933C51.8572 25.7839 51.8394 25.779 51.8212 25.779C51.8031 25.779 51.7853 25.7839 51.7698 25.7933C51.7542 25.8027 51.7415 25.8161 51.7331 25.8322ZM48.6133 25.8092C48.5421 26.0597 48.5421 26.3252 48.6133 26.5757C48.6133 26.7367 48.9199 26.7137 48.9046 26.5757C48.8893 26.4377 48.8509 26.1005 48.8203 25.8628C48.8274 25.8354 48.8233 25.8062 48.8089 25.7818C48.7946 25.7574 48.7711 25.7396 48.7436 25.7325C48.7162 25.7254 48.687 25.7295 48.6626 25.7439C48.6381 25.7582 48.6204 25.7817 48.6133 25.8092ZM47.9618 25.5946C48.0844 25.4336 48.7283 24.9277 48.8203 24.782C48.8359 24.7669 48.8462 24.747 48.8495 24.7254C48.8528 24.7039 48.8489 24.6818 48.8384 24.6627C48.828 24.6436 48.8116 24.6284 48.7917 24.6195C48.7718 24.6106 48.7495 24.6084 48.7283 24.6134C48.3194 24.7638 47.9771 25.0544 47.7625 25.4336C47.6781 25.5562 47.8698 25.7019 47.9618 25.5946ZM51.5798 24.7054C51.8584 24.8456 52.1164 25.0235 52.3463 25.2343C52.3613 25.2496 52.3806 25.2601 52.4016 25.2644C52.4226 25.2686 52.4445 25.2665 52.4643 25.2582C52.4841 25.25 52.5009 25.236 52.5127 25.2181C52.5245 25.2001 52.5306 25.1791 52.5303 25.1576C52.5303 24.9583 51.7637 24.5137 51.5568 24.5291C51.538 24.5368 51.5223 24.5505 51.5122 24.568C51.502 24.5855 51.4979 24.606 51.5005 24.6261C51.5031 24.6462 51.5123 24.6649 51.5267 24.6792C51.541 24.6935 51.5597 24.7027 51.5798 24.7054ZM48.0077 29.5345H47.9388C47.9388 30.0251 49.0272 31.0216 50.476 30.4007C50.545 30.4007 50.476 30.2551 50.4223 30.2781C49.9963 30.4552 49.5218 30.4779 49.0808 30.3421C48.6399 30.2063 48.2603 29.9206 48.0077 29.5345ZM18.642 94.2834C16.1047 94.5363 13.5062 94.1377 10.9767 94.452C10.9767 94.452 10.923 94.498 10.923 94.521C10.7224 96.6114 10.7635 98.7179 11.0456 100.799C11.0472 100.818 11.0535 100.836 11.0639 100.852C11.0743 100.868 11.0885 100.881 11.1052 100.89C11.1219 100.899 11.1406 100.904 11.1597 100.904C11.1787 100.904 11.1975 100.9 11.2143 100.891C13.6825 101.021 16.2657 100.937 18.7416 100.822C18.8106 100.822 18.8413 100.669 18.8413 100.653C18.9155 98.5599 18.8746 96.4641 18.7186 94.3753C18.7197 94.3643 18.7185 94.3531 18.7152 94.3425C18.7119 94.3318 18.7066 94.3219 18.6995 94.3134C18.6923 94.3048 18.6836 94.2978 18.6737 94.2926C18.6638 94.2875 18.6531 94.2843 18.642 94.2834ZM11.2066 96.4986C11.2066 95.8547 11.2066 95.2109 11.1606 94.5593C13.5869 94.6838 16.0185 94.6659 18.4427 94.5057C18.3826 95.2527 18.3646 96.0025 18.389 96.7516C16.0008 96.5451 13.6031 96.4683 11.2066 96.5216V96.4986ZM11.3676 100.63C11.2526 99.3501 11.2373 98.0777 11.2219 96.7976C12.3564 96.7976 13.5215 96.8436 14.6253 96.8742C14.5331 98.079 14.6028 99.2907 14.8323 100.477C13.6744 100.428 12.5145 100.487 11.3676 100.653V100.63ZM15.2002 100.5C15.2002 99.8177 15.0239 97.3801 14.9243 96.8512C16.0664 96.8512 18.3813 97.0429 18.389 97.0429C18.389 98.208 18.504 99.3808 18.527 100.531C17.4615 100.607 16.3347 100.554 15.2232 100.523L15.2002 100.5Z" fill="black"/>
<path d="M148.952 99.419C148.794 98.3638 148.274 97.3963 147.48 96.6825C146.522 95.9543 145.25 96.077 144.123 96.1153C142.437 96.169 138.964 96.4986 138.964 96.4909C138.382 94.8582 137.868 93.1871 137.194 91.6004C136.73 90.2496 135.764 89.1295 134.495 88.473C133.254 87.9364 127.428 88.3503 124.73 88.5956C126.761 81.8808 126.868 72.5981 126.868 70.8045C127.15 70.615 127.392 70.373 127.581 70.0916C128.187 69.0874 127.765 67.539 127.673 66.4582C127.413 63.5224 127.252 60.5406 126.838 57.6201C127.621 56.8234 128.305 55.9356 128.877 54.9756C130.732 51.8558 130.739 48.3834 129.881 44.9264C129.022 41.4693 126.6 38.7941 123.879 36.4486C121.176 33.9938 117.818 32.3773 114.213 31.7957C113.842 31.1478 113.414 30.5346 112.933 29.9637L112.258 30.3546C112.258 29.3198 111.829 24.8893 111.829 24.8893C112.458 24.7206 113.7 22.904 113.891 21.5702C113.983 20.2707 113.756 18.9684 113.229 17.7768C112.703 16.5851 111.893 15.5401 110.871 14.7327C108.035 12.4331 102.439 13.514 101.205 14.4491C100.866 14.7167 100.474 14.9097 100.056 15.0153C99.6369 15.121 99.2005 15.137 98.7751 15.0623C98.7751 15.0623 99.8023 16.0895 99.1737 16.2811C98.5452 16.4728 98.1159 15.4303 98.1159 15.4303C97.9703 17.5152 98.8058 18.0365 98.8058 18.0365C101.558 20.9953 103.635 18.6267 103.635 18.6267C103.635 18.6267 103.919 17.7069 106.877 18.3738C107.258 18.4281 107.624 18.5625 107.949 18.768C108.274 18.9735 108.553 19.2456 108.766 19.5663C108.978 19.887 109.121 20.2491 109.184 20.6288C109.247 21.0085 109.229 21.3973 109.131 21.7695L109.507 21.9228C109.648 21.7175 109.807 21.5252 109.982 21.3479C111.653 20.1904 112.082 21.9458 112.082 21.9458C112.419 23.3715 110.664 23.7855 110.664 23.7855C110.71 25.7631 110.35 26.0851 110.35 26.0851C108.924 27.7944 107.475 25.9394 107.475 25.9394C107.155 25.5707 106.752 25.2838 106.298 25.1024C105.845 24.9211 105.355 24.8507 104.869 24.8969C103.06 24.9736 103.336 25.5485 102.569 26.1081C102.087 26.4607 101.596 26.0621 101.297 25.7325C101.297 25.0809 101.036 22.5284 100.891 21.8998V19.6692C100.354 19.5123 99.8642 19.2253 99.465 18.8337C98.6985 21.1333 100.331 21.8385 100.783 21.9995C100.837 22.697 100.584 28.0091 101.55 30.002C101.808 30.5562 102.2 31.0379 102.689 31.4043C103.179 31.7707 103.751 32.0105 104.355 32.1023C104.271 32.5546 104.187 33.3058 104.172 33.5127C102.286 33.7887 100.76 34.9998 99.2964 36.1419C97.5397 37.4842 95.9104 38.9852 94.4289 40.6261C91.7599 43.5226 90.0239 47.1549 89.4465 51.051L86.8173 50.2844C86.8553 50.1159 86.8733 49.9436 86.8709 49.7709C86.8686 49.4624 86.7733 49.1618 86.5974 48.9084C86.4216 48.655 86.1733 48.4605 85.8852 48.3504C85.5971 48.2403 85.2824 48.2197 84.9824 48.2912C84.6824 48.3627 84.4109 48.5231 84.2034 48.7514C84.0522 48.961 83.9429 49.1978 83.8815 49.4489C83.8815 49.4489 79.4816 47.5019 77.2816 46.5591C76.8146 46.2567 76.2467 46.1519 75.7026 46.2678C74.8606 46.7184 74.1136 47.3275 73.5026 48.0615V48.0155C72.7361 47.0727 71.0497 47.1493 70.8045 48.5214C70.7567 48.9218 70.8204 49.3276 70.9884 49.6942C70.6051 49.9778 70.2219 50.2768 69.7773 50.568C68.7042 47.9159 67.6847 45.1487 65.9446 42.9027C64.4986 40.9798 62.7545 39.3003 60.7782 37.928C58.0673 35.9965 54.7997 35.0033 51.4725 35.0995L51.2732 34.6165C51.2732 34.3023 51.2119 33.988 51.1736 33.6814C53.6648 33.8883 54.9603 30.14 54.9603 30.14C55.048 30.7875 54.9824 31.4465 54.7686 32.064C54.7686 32.064 57.2982 28.4306 55.8034 22.398C54.3087 16.3654 48.9047 17.6302 48.9047 17.6302C42.4888 13.9126 39.1544 20.5737 39.1544 20.5737C35.2451 30.0327 42.2205 33.988 42.2205 33.988C41.546 33.4821 41.7606 32.3476 41.7606 32.3476C42.1105 32.842 42.5685 33.2501 43.0998 33.541C43.6311 33.8319 44.2217 33.9979 44.8267 34.0263C44.8267 34.2639 44.7424 34.5246 44.7194 34.7928L44.5584 35.3601C37.882 37.7133 32.0027 42.0442 29.7107 48.989C28.6223 52.2774 28.5533 55.6961 30.209 58.8159C31.6 61.348 33.8933 63.2636 36.6325 64.1816C36.5994 64.6306 36.6699 65.0812 36.8387 65.4985C37.0075 65.9159 37.2701 66.2888 37.606 66.5885C37.0848 66.8262 35.7433 67.792 34.9768 71.6246C34.6625 73.2037 34.08 75.9632 33.4437 78.9603C30.094 76.3388 25.1729 72.3375 25.0962 72.3988C17.9062 78.1861 3.871 90.3893 3.871 90.4046C3.85572 90.4172 3.8445 90.4339 3.83877 90.4528C3.83303 90.4717 3.83304 90.4919 3.83879 90.5108C3.84454 90.5296 3.85577 90.5464 3.87106 90.5589C3.88634 90.5714 3.905 90.5791 3.92465 90.5809C5.08211 90.6806 6.22424 90.7496 7.41237 90.7879C7.41237 97.909 8.01026 112.251 8.04092 112.251H5.36573C5.31213 113.453 5.35828 114.658 5.50371 115.853C10.7928 115.853 30.7149 115.715 37.8053 115.578C38.0353 118.958 38.3189 123.021 38.3189 123.021C37.8513 123.204 35.843 124.4 35.2144 124.676C34.3712 125.044 33.6814 125.496 33.7887 126.516C33.8245 126.556 33.8691 126.588 33.919 126.608C36.6818 126.815 39.4592 126.707 42.1975 126.286C42.2582 126.266 42.3098 126.225 42.3432 126.171C42.5616 125.397 42.5616 124.577 42.3432 123.802L45.7696 109.545C46.2755 107.529 48.1381 99.488 48.5981 97.5027C50.5296 97.4909 52.459 97.3732 54.3777 97.1501C55.1442 99.4957 57.2905 108.464 58.149 110.38C59.0075 112.297 59.0995 113.086 59.1149 113.094C61.2995 113.707 63.1085 114.481 65.73 112.327C65.7534 112.304 65.7851 112.291 65.8182 112.291C65.8512 112.291 65.8829 112.304 65.9063 112.327C65.9297 112.351 65.9428 112.382 65.9428 112.416C65.9428 112.449 65.9297 112.48 65.9063 112.504C64.3273 114.198 60.9929 114.42 59.0919 113.148L62.4263 122.952C62.2169 123.932 62.2169 124.945 62.4263 125.926C62.4263 125.987 67.4394 125.926 69.8999 125.857C69.9766 125.857 70.0379 125.703 70.0379 125.688C70.0601 125.307 69.9676 124.928 69.7722 124.6C69.5768 124.272 69.2875 124.01 68.9418 123.848C68.4972 123.595 66.4965 122.637 65.96 122.369V110.994C66.917 112.254 67.9703 113.438 69.1104 114.535C71.7318 116.916 74.5527 119.068 77.5423 120.966C80.2251 122.768 83.0536 124.554 86.1734 125.481C86.2347 125.481 94.4213 120.223 98.7675 113.745V116.697C99.1131 117.053 99.5427 117.317 100.017 117.463C100.079 118.099 100.176 118.731 100.308 119.357C99.1891 120.123 97.4644 121.288 97.1731 122.683C97.1367 122.811 97.1274 122.946 97.1459 123.078C97.1644 123.21 97.2102 123.336 97.2804 123.45C96.8818 125.358 101.182 124.983 102.102 124.86C103.298 124.699 107.468 124.462 106.762 122.323C106.762 122.323 106.985 119.64 106.233 119.173C106.302 118.554 106.302 117.929 106.233 117.31C107.307 117.08 108.058 116.85 108.058 116.85L109.008 93.0875C110.779 102.209 117.984 117.555 117.984 117.555C118.538 117.636 119.096 117.677 119.655 117.678C119.872 118.207 120.128 118.72 120.422 119.211C119.832 119.77 116.812 122.653 118.437 123.641C118.789 125.527 121.756 124.477 122.852 124.009C123.542 123.718 127.727 121.71 126.401 120.614C126.401 120.614 125.412 118.23 125.075 118.099C125.009 117.472 124.87 116.855 124.661 116.26C125.057 116.011 125.424 115.721 125.757 115.394C125.757 115.394 124.99 110.971 124.224 106.525C128.241 106.641 132.26 106.402 136.235 105.812C136.289 105.812 136.327 105.735 136.335 105.682C136.335 104.654 136.404 103.566 137.201 102.815C137.915 102.233 138.769 101.85 139.677 101.703C142.099 101.182 143.142 102.807 143.755 104.854C143.755 104.907 147.549 104.677 149.389 104.746C149.489 104.746 149.527 104.532 149.527 104.509C149.516 102.797 149.324 101.09 148.952 99.419ZM104.248 18.1591C103.221 18.7494 101.91 17.8678 101.596 16.8637C101.596 16.81 101.657 16.7717 101.688 16.8254C101.933 17.27 102.914 18.4044 104.187 17.9368C104.248 17.8985 104.332 18.1055 104.248 18.1591ZM122.545 35.7127C125.228 37.7517 128.049 40.3579 129.214 43.5926C130.379 46.8274 130.701 50.8517 129.099 54.0481C127.549 56.9373 125.101 59.2433 122.124 60.6173C118.716 62.1848 115.005 62.9855 111.254 62.9628C111.235 62.9552 111.213 62.9552 111.193 62.9628C110.476 61.5081 109.635 60.118 108.679 58.8083C112.98 56.0621 117.425 53.5469 121.993 51.2733C122.011 51.2625 122.025 51.2463 122.034 51.227C122.042 51.2078 122.044 51.1864 122.039 51.1659C121.572 49.5882 121.261 47.968 121.112 46.3291C121.112 46.2601 120.997 46.2525 120.997 46.3291C121.033 47.6394 121.207 48.9421 121.518 50.2154C121.671 50.8747 122.039 50.982 121.472 51.3116C120.368 51.8865 113.171 55.7115 110.741 57.1985C110.633 55.8954 110.273 49.8398 110.288 49.8245C111.339 48.0692 115.317 40.8331 116.421 39.0931C116.429 39.0845 116.436 39.0744 116.441 39.0632C116.445 39.052 116.448 39.04 116.448 39.0279C116.448 39.0158 116.445 39.0038 116.441 38.9927C116.436 38.9815 116.429 38.9713 116.421 38.9628C115.956 38.2054 115.397 37.51 114.757 36.8931C115.611 36.2276 116.537 35.6595 117.517 35.1991C117.601 35.1991 117.701 35.1301 117.639 35.0381C117.012 34.0289 116.277 33.0908 115.447 32.2403C118.021 32.8934 120.431 34.076 122.522 35.7127H122.545ZM106.908 62.342C105.459 63.6374 105.375 62.8939 105.337 62.6562C105.874 62.3705 106.372 62.0148 106.816 61.5984C106.816 61.5984 106.77 61.4758 106.732 61.5064C106.417 61.7211 104.662 63.2005 104.662 62.319C105.233 61.6111 105.892 60.9799 106.624 60.441C106.517 60.234 106.134 60.441 106.034 59.1609C106.517 59.5266 107.107 59.7232 107.713 59.7204C108.076 59.7391 108.437 59.6483 108.748 59.4598C109.027 60.0421 109.345 60.6055 109.698 61.1462C109.215 61.6103 108.703 62.0431 108.165 62.4416C107.682 62.7789 106.632 63.6144 106.019 63.2081C106.372 62.9749 106.71 62.7188 107.031 62.4416C107.046 62.3956 106.931 62.3036 106.885 62.342H106.908ZM115.248 32.1943C115.532 32.6619 117.072 34.5629 117.463 35.0995C116.403 35.4438 115.452 36.0595 114.704 36.8855L116.313 38.9934C114.274 42.4965 111.875 45.8922 110.281 49.6559C110.839 43.7472 112.052 37.9189 113.899 32.2786L114.175 31.9873L115.248 32.1943ZM112.895 30.14C113.209 30.7379 113.661 31.2438 113.991 31.857C112.964 32.9302 111.829 33.8653 110.748 34.9232C110.343 33.9917 109.828 33.1117 109.215 32.3016C110.522 31.7342 111.757 31.0137 112.895 30.1553V30.14ZM108.617 31.8494C111.032 31.3205 111.638 28.239 111.791 26.3533C111.791 26.7366 111.944 29.4195 112.059 30.3853C112.055 30.4029 112.055 30.4213 112.059 30.439L109.077 32.1943C108.747 32.7997 108.465 33.4302 108.234 34.08C107.976 33.3969 107.668 32.7334 107.314 32.0947C107.751 32.041 108.173 31.9643 108.617 31.8647V31.8494ZM108.134 34.4249C108.131 34.441 108.132 34.4576 108.135 34.4736C108.138 34.4896 108.145 34.5048 108.154 34.5184C108.163 34.5319 108.175 34.5435 108.189 34.5524C108.203 34.5614 108.218 34.5675 108.234 34.5706C108.25 34.5736 108.267 34.5734 108.283 34.57C108.299 34.5666 108.314 34.5601 108.328 34.5509C108.341 34.5416 108.353 34.5298 108.362 34.5161C108.371 34.5024 108.377 34.487 108.38 34.4709C108.61 33.7734 108.947 33.0988 109.146 32.4013C109.572 33.3367 110.086 34.2299 110.679 35.0688C111.738 34.3078 112.735 33.4645 113.661 32.5469C111.139 38.1196 110.189 46.0915 110.043 48.713C109.43 46.4135 106.693 37.0464 105.682 34.7699C105.939 34.9307 106.23 35.0304 106.532 35.0611C106.724 34.7315 107.084 32.7079 107.299 32.1483C107.314 32.2633 107.958 33.988 108.134 34.4402V34.4249ZM104.585 27.7868C104.752 27.8358 104.926 27.8496 105.098 27.8271C105.27 27.8045 105.436 27.7463 105.584 27.656C105.732 27.5658 105.859 27.4455 105.958 27.303C106.057 27.1605 106.124 26.9989 106.157 26.8286C106.157 26.7289 106.364 26.7826 106.348 26.8823C106.126 28.285 104.815 28.1777 104.562 27.8404C104.547 27.8327 104.562 27.8021 104.585 27.8021V27.7868ZM104.539 32.1253C105.411 32.2512 106.297 32.2512 107.169 32.1253C106.818 33.0027 106.541 33.9078 106.341 34.8312C106.111 34.6779 104.762 33.896 104.348 33.6201C104.355 33.6047 104.509 32.6772 104.539 32.1407V32.1253ZM104.248 33.7274C104.608 34.0641 105.004 34.3598 105.429 34.6089C106.096 37.1614 109.261 46.8274 109.882 49.173C108.924 47.8085 103.811 42.2742 102.531 40.6338C102.901 39.8091 103.219 38.9616 103.482 38.0966C102.811 37.8364 102.114 37.6463 101.404 37.5294C102.173 36.4346 102.785 35.2374 103.221 33.9727C103.535 33.8653 104.248 33.7274 104.248 33.7274ZM89.6151 51.0663C90.2922 47.2371 92.0137 43.6693 94.5899 40.7565C95.8255 39.3669 97.1769 38.0847 98.6295 36.9238C99.93 35.7194 101.422 34.7401 103.045 34.0263C102.378 35.1684 101.742 36.5329 101.013 37.652C100.952 37.7517 102.6 38.0659 103.259 38.2959C103.114 38.5412 102.454 40.2429 102.263 40.7028C102.263 40.7565 108.855 48.1381 110.058 49.8322C109.959 51.0126 110.641 57.2829 110.649 57.2905C109.936 57.7274 109.177 58.2257 108.495 58.7009C108.433 58.7009 108.663 59.1072 108.732 59.2528C108.448 59.3944 108.137 59.4728 107.82 59.4828C107.905 57.8501 107.759 55.9568 106.364 54.8836C105.751 54.4432 105.031 54.1782 104.279 54.1171C103.06 53.9638 101.841 53.8948 100.622 53.7185C100.101 53.6418 99.5723 53.5499 99.0511 53.4502V53.4042C98.6276 51.0608 98.4631 48.6779 98.5605 46.2985C98.5605 46.2372 98.4609 46.2142 98.4455 46.2985C98.1628 48.6745 98.2768 51.0809 98.7828 53.4195C95.663 52.8293 92.6506 51.9401 89.5844 51.0586L89.6151 51.0663ZM84.0578 49.5332C84.1303 49.1708 84.3353 48.8483 84.6327 48.6287C84.865 48.4797 85.1387 48.4083 85.4142 48.4249C85.6897 48.4414 85.9529 48.545 86.1657 48.7207C86.3992 48.9207 86.5671 49.1862 86.6478 49.4828C86.7284 49.7794 86.718 50.0934 86.618 50.3841C86.5107 50.7444 85.9358 51.8098 85.4758 50.959C85.5034 50.8969 85.5265 50.8328 85.5448 50.7673C85.6196 50.436 85.6759 50.1008 85.7135 49.7632C85.6215 50.0698 85.5678 50.3994 85.4605 50.6984C85.4366 50.7932 85.3928 50.8819 85.332 50.9586C85.2712 51.0352 85.1948 51.0981 85.1079 51.1429C84.8626 51.2273 84.6786 51.0356 84.5867 50.8287C84.7347 50.369 84.8248 49.8926 84.8549 49.4106C84.811 49.9161 84.6759 50.4095 84.4564 50.867C84.3031 51.1429 84.0118 51.1736 83.9121 50.867C83.8931 50.7631 83.8931 50.6566 83.9121 50.5527C83.9228 50.206 83.9716 49.8616 84.0578 49.5256V49.5332ZM73.1884 48.0002C73.2573 48.0692 73.3187 48.1458 73.3877 48.2301C73.3883 48.2418 73.3922 48.253 73.399 48.2625C73.4058 48.2721 73.4151 48.2794 73.426 48.2838C73.5863 48.4887 73.7108 48.7194 73.7939 48.966C73.8936 49.2726 74.1005 50.0315 73.4643 49.7325C73.2723 49.461 73.0596 49.2047 72.8281 48.966C72.7821 48.966 72.8281 48.966 72.8281 48.966C72.9661 49.2113 74.0622 50.7214 72.8281 50.3841C72.7104 50.0285 72.5228 49.7001 72.2762 49.4183C72.2626 49.4087 72.2463 49.4038 72.2297 49.4043C72.2131 49.4048 72.1971 49.4107 72.1841 49.421C72.1712 49.4314 72.1619 49.4457 72.1578 49.4618C72.1537 49.4779 72.1549 49.4949 72.1612 49.5102C72.3145 49.8628 73.173 51.1813 72.1612 50.8287C71.585 50.4887 71.1622 49.9395 70.9808 49.2956C70.8631 49.0077 70.853 48.687 70.9523 48.3922C71.0516 48.0975 71.2536 47.8483 71.5215 47.6902C71.7893 47.5321 72.1051 47.4756 72.4112 47.5311C72.7172 47.5866 72.9931 47.7504 73.1884 47.9925V48.0002ZM43.424 31.0445C43.7936 31.0434 44.1596 31.1175 44.4996 31.2625C44.8396 31.4075 45.1465 31.6202 45.4016 31.8877C45.2636 30.7839 43.5926 29.2125 43.5926 29.2125C41.638 29.2585 42.0595 27.3268 42.0595 27.3268C42.1478 27.1233 42.2839 26.944 42.4562 26.8042C42.6285 26.6644 42.832 26.5683 43.0494 26.5239C43.2668 26.4795 43.4917 26.4882 43.705 26.5493C43.9184 26.6103 44.1138 26.7219 44.2748 26.8746C44.2748 27.1122 44.6888 28.2007 45.2866 28.2467C45.8845 28.2927 45.6699 28.9212 45.6699 28.9212C45.6699 28.9212 46.1145 28.3463 45.6699 28.0244C45.2253 27.7024 45.187 26.8669 45.187 26.8669C47.7012 26.637 49.4719 20.589 49.4719 20.589C50.1158 23.9388 53.7491 24.0001 53.7491 24.0001C53.7551 25.9882 53.6373 27.9748 53.3965 29.9484C53.2922 30.546 52.9911 31.0916 52.5411 31.4986C52.0911 31.9055 51.5181 32.1504 50.913 32.1943C50.913 32.1943 50.913 34.2026 51.0203 34.7622C50.1851 35.4829 49.1187 35.8795 48.0155 35.8795C46.9123 35.8795 45.8459 35.4829 45.0107 34.7622V33.9957C45.3665 34.0204 45.7239 34.005 46.0762 33.9497C43.9299 33.5281 43.424 31.0445 43.424 31.0445ZM44.6044 35.5287C45.371 36.9545 49.7172 37.8283 51.5032 35.2374C52.3482 35.2429 53.1914 35.3147 54.0251 35.4521C53.4349 41.5307 44.4435 41.7453 42.3048 36.5405C43.0484 36.1879 43.8226 35.8583 44.6044 35.5287ZM31.1442 59.7894C27.0432 53.8411 30.0787 45.8309 34.8695 41.247C36.9824 39.3137 39.4119 37.758 42.0519 36.6479C42.9257 39.4304 46.3981 40.8254 49.1346 40.4805C50.4347 40.3583 51.6542 39.7965 52.5921 38.8879C53.5299 37.9794 54.13 36.7782 54.2934 35.4827C56.4869 35.8657 58.5758 36.7039 60.4256 37.9433C62.3724 39.2572 64.096 40.8746 65.5307 42.7341C67.3857 45.0874 68.4359 47.9388 69.5397 50.706C67.6923 51.9861 65.5231 53.3276 63.3001 54.5847C62.9169 54.2934 62.043 53.5192 61.8667 53.3582C61.9251 51.0875 61.4416 48.8356 60.4563 46.7891H60.3796C61.9587 50.6907 61.5218 53.9561 61.5907 55.4892C57.5435 57.6661 53.6342 59.4061 51.6258 59.8354C51.6258 59.8354 51.6258 59.7204 51.5645 59.7051C48.3528 58.6396 38.7788 55.2286 38.7635 55.2286C38.9617 53.946 39.0922 52.6539 39.1544 51.3576C39.1544 51.3576 39.0931 51.3576 39.0931 51.4036C38.7635 52.6683 38.7175 54.0404 38.5105 55.3359C38.5066 55.3593 38.5096 55.3834 38.5191 55.4052C38.5287 55.4269 38.5443 55.4455 38.5642 55.4585C42.7341 57.2599 47.134 58.5246 51.4572 59.8967C51.5587 61.3585 51.4919 62.8271 51.2579 64.2736C44.4588 64.8945 35.6667 66.3432 31.1442 59.7894ZM63.0625 54.7226C62.6332 54.9679 62.1963 55.2056 61.7671 55.4355C61.813 54.8606 61.8437 54.2551 61.8514 53.6342C62.2159 54.0384 62.6218 54.4032 63.0625 54.7226ZM51.7102 60.9852C51.9648 61.0931 52.2385 61.1488 52.515 61.1488C52.7916 61.1488 53.0653 61.0931 53.3199 60.9852C53.8871 60.6862 54.1707 60.0654 54.6843 59.6898C54.718 60.1088 54.6041 60.5264 54.3624 60.8702C54.3087 60.9392 54.3624 61.0235 54.4697 61.0159C54.9909 61.0925 56.0717 60.8856 56.4473 61.1922C56.9762 61.6138 55.0906 61.7977 54.6077 61.859C54.531 61.859 54.554 61.9817 54.6077 61.9894C55.2039 61.9858 55.796 61.8901 56.363 61.7057C56.8153 62.8555 54.9066 62.5949 54.5463 62.7252C54.531 62.7303 54.5176 62.74 54.5082 62.7531C54.4987 62.7662 54.4936 62.7819 54.4936 62.798C54.4936 62.8142 54.4987 62.8299 54.5082 62.843C54.5176 62.8561 54.531 62.8658 54.5463 62.8709C54.993 62.9014 55.4418 62.8705 55.8801 62.7789C56.2864 63.737 52.538 64.4882 51.5952 63.2158C51.6996 62.4771 51.7381 61.7307 51.7102 60.9852ZM40.0052 75.12C40.0052 75.074 40.1049 75.12 40.0972 75.12C39.9056 78.0328 38.0659 89.8834 37.5064 92.8805C37.5064 92.9649 37.3684 92.9265 37.3837 92.8805C37.7823 89.9217 39.4227 78.0635 40.0052 75.12ZM33.9113 94.5362C34.7122 94.9378 35.5365 95.291 36.3796 95.5941C36.3796 95.8164 36.4255 96.123 36.4485 96.4679C34.5475 96.2839 32.7385 96.6595 30.8452 96.5292C30.8452 95.847 30.7915 94.5899 30.7915 94.5899C31.3051 94.5746 32.7539 94.5439 33.9113 94.5592V94.5362ZM34.4709 96.7439H36.4102C36.4792 97.6714 36.5559 98.9438 36.6325 100.308C35.9521 100.212 35.2635 100.189 34.5782 100.239C34.615 99.0811 34.5869 97.9218 34.4939 96.7668L34.4709 96.7439ZM34.2793 100.232C34.1949 100.232 31.9797 100.232 30.9755 100.278C30.9755 99.3577 30.8452 97.0275 30.8452 96.7822C31.9784 96.8583 33.1154 96.8583 34.2486 96.7822C34.1125 97.9363 34.1229 99.103 34.2793 100.255V100.232ZM4.47655 90.3893C11.3753 84.3644 18.0595 78.6461 25.1116 72.7591C27.7254 75.0587 30.6076 77.113 33.4131 79.2056C32.5469 83.2299 31.5964 87.6375 31.0445 90.1747C23.9848 90.2973 8.79212 90.4506 4.47655 90.3893ZM5.77966 115.631C5.82844 114.559 5.76162 113.485 5.58036 112.427C8.14824 112.734 31.2285 112.473 37.56 112.373C37.606 113.14 37.6827 114.175 37.7593 115.309C30.6612 115.309 11.0074 115.493 5.77966 115.631ZM23.3179 105.314C24.7205 105.204 26.1288 105.186 27.5338 105.26C27.5338 105.26 27.5338 110.994 27.6564 112.235L23.4635 112.304C23.4022 109.905 23.4635 107.698 23.3179 105.314ZM42.1285 126.01C37.8666 126.738 35.3447 126.317 34.0033 126.401C33.9497 126.056 34.5169 125.266 34.7698 125.075C35.0228 124.883 38.3265 123.304 38.3265 123.304C39.3614 125.182 41.5 124.278 42.1592 123.948C42.3321 124.635 42.3321 125.354 42.1592 126.041L42.1285 126.01ZM44.8191 112.542C42.1822 113.7 39.5683 112.971 37.4757 111.093L37.537 112.044L27.9401 112.197C28.0534 109.804 27.9842 107.405 27.7331 105.022C27.7331 105.022 24.483 104.585 23.0343 104.969C22.9883 104.969 23.0726 109.875 23.1339 112.274L8.56983 112.22C8.56983 112.22 8.30921 97.8783 7.90295 90.7572C11.1684 90.8569 24.345 90.6039 31.0062 90.466L30.5999 92.3286C31.429 93.0996 32.357 93.7569 33.3594 94.2833C32.4536 94.1879 31.5381 94.2502 30.6536 94.4673C30.6487 94.4848 30.6487 94.5034 30.6536 94.5209C30.4927 96.5122 30.5235 98.5144 30.7456 100.5C30.7456 100.5 30.7992 100.592 30.8375 100.592C31.788 100.653 35.613 100.477 36.7322 100.638C36.9085 103.804 37.1154 107.383 37.3147 108.61C37.3147 108.61 37.537 111.009 37.5753 111.032C38.6562 111.799 41.3237 113.937 44.7807 112.412C44.8497 112.358 44.9187 112.534 44.8191 112.573V112.542ZM45.4706 109.568C42.1592 110.38 38.4799 108.97 37.56 108.556C37.2534 106.318 37.0694 97.679 36.6018 95.686C40.3677 96.9479 44.3202 97.5621 48.2914 97.5027C47.6935 99.419 45.8922 107.521 45.4706 109.614V109.568ZM44.3361 83.5059C44.3415 83.4887 44.3522 83.4737 44.3667 83.4631C44.3812 83.4524 44.3987 83.4467 44.4166 83.4467C44.4346 83.4467 44.4521 83.4524 44.4666 83.4631C44.4811 83.4737 44.4918 83.4887 44.4971 83.5059C44.4971 86.1427 44.5814 88.7873 44.4971 91.4241C44.4971 91.5008 44.3745 91.5008 44.3668 91.4241C44.2518 88.8256 44.3285 86.1811 44.3361 83.5519V83.5059ZM50.1848 67.1634C48.4677 67.2554 40.2199 67.6387 37.8513 66.4736H37.813C37.2096 65.8525 36.8457 65.0378 36.7858 64.174C37.1078 64.2889 37.445 64.3886 37.7746 64.4806C41.9062 65.5614 46.2065 64.9252 50.3687 64.5496C50.2511 65.4288 50.1896 66.3147 50.1848 67.2018V67.1634ZM58.4403 110.465C57.6738 108.265 55.4355 99.2121 54.508 97.0888C55.2745 96.9968 56.9072 96.7132 57.4821 96.6135C58.2487 98.2156 59.1685 99.764 60.0117 101.32C60.8549 102.876 61.7517 104.547 62.6792 106.119C63.4458 107.383 64.2123 108.625 65.0631 109.821C62.4953 111.622 59.4521 110.84 58.4403 110.503V110.465ZM69.5627 125.512C67.1328 125.565 65.2011 125.757 62.6639 125.619C62.4837 124.78 62.4551 123.916 62.5796 123.067C64.9558 125.036 65.9063 122.476 65.9063 122.476C66.4352 122.967 69.5397 124.4 69.5627 125.55V125.512ZM100.132 117.463C101.857 117.969 104.287 117.639 105.988 117.287C105.912 117.923 106.41 120.215 103.597 120.537C100.086 120.989 100.285 118.099 100.132 117.501V117.463ZM102.493 124.446C101.519 124.607 97.656 125.213 97.3877 123.58C97.6787 123.775 98.0188 123.884 98.3689 123.894C99.7027 124.002 106.119 122.837 106.479 122.407C106.885 124.101 103.543 124.316 102.493 124.485V124.446ZM106.479 122.239C106.073 122.614 100.799 123.549 99.7103 123.634C98.6218 123.718 96.7055 123.887 97.5104 122.223C97.6796 121.889 97.8937 121.58 98.1466 121.303C98.4634 121.617 98.7987 121.911 99.1507 122.185C99.2427 122.246 99.3347 122.139 99.2887 122.047C99.0482 121.66 98.7026 121.349 98.2922 121.15C98.5145 120.92 98.7675 120.69 99.0204 120.476C99.1737 120.598 99.718 121.196 99.8866 121.296C99.9039 121.306 99.9239 121.311 99.9438 121.309C99.9638 121.308 99.9829 121.3 99.9987 121.288C100.014 121.276 100.026 121.259 100.032 121.24C100.038 121.22 100.038 121.2 100.032 121.181C99.8623 120.809 99.5702 120.506 99.2044 120.322L99.764 119.87C100.17 120.131 100.531 120.453 100.929 120.729C100.983 120.729 101.052 120.729 101.013 120.652C100.711 120.274 100.329 119.968 99.8943 119.755C100.046 119.631 100.205 119.516 100.37 119.41C100.709 119.853 101.146 120.211 101.647 120.455C102.148 120.7 102.7 120.825 103.257 120.819C103.815 120.814 104.364 120.679 104.861 120.425C105.357 120.172 105.788 119.806 106.119 119.357C106.67 119.939 106.479 121.779 106.479 122.277V122.239ZM107.82 91.4165C107.238 98.7522 98.6985 112.987 98.6985 112.987V113.171C94.2833 119.579 88.4193 123.411 86.1427 125.243C82.9386 124.285 80.0565 122.423 77.3046 120.568C74.3435 118.671 71.5598 116.511 68.9878 114.113C66.5404 111.611 64.4417 108.791 62.7482 105.728C60.9699 102.661 59.4675 99.4574 57.6125 96.4602C56.8459 94.8199 50.8133 81.007 50.499 67.1864C50.5691 66.3195 50.5819 65.4489 50.5374 64.5802L51.2579 64.5189C51.3055 64.4887 51.3409 64.4425 51.3576 64.3886C51.4438 64.0762 51.5104 63.7588 51.5569 63.4381C51.9658 63.7236 52.4333 63.9143 52.9252 63.9965C53.4171 64.0787 53.9211 64.0503 54.4007 63.9133C54.9603 63.7907 56.34 63.5301 56.0564 62.6792C56.1434 62.6465 56.2259 62.6027 56.3017 62.5489C56.3817 62.508 56.4505 62.4482 56.5022 62.3747C56.5538 62.3012 56.5868 62.2162 56.5981 62.127C56.6094 62.0379 56.5988 61.9473 56.5672 61.8632C56.5356 61.7791 56.4839 61.704 56.4167 61.6444C56.6926 61.5064 56.8153 61.3148 56.6006 61.0465C56.4856 60.9509 56.3519 60.8803 56.208 60.8394C56.0641 60.7985 55.9133 60.7881 55.7651 60.8089C55.355 60.8036 54.945 60.8293 54.5387 60.8856C54.8146 60.5023 54.9603 59.1839 54.5847 59.4138C54.2409 59.6797 53.9408 59.9979 53.6955 60.3566C53.1206 61.0159 52.4537 60.9469 51.6718 60.8242C51.6718 60.5559 51.6718 60.2877 51.6029 60.0577C53.146 59.8622 54.6429 59.3978 56.0257 58.6856C57.8194 57.9191 66.5195 53.9101 71.0574 49.9548C71.1762 50.2229 71.3492 50.4634 71.5656 50.6613C71.7819 50.8592 72.0369 51.0102 72.3145 51.1046C72.8204 51.2196 72.9124 50.9283 72.8358 50.5604C72.8904 50.5999 72.9537 50.6258 73.0204 50.6358C73.0871 50.6458 73.1552 50.6396 73.2191 50.6179C73.2829 50.5961 73.3406 50.5593 73.3872 50.5106C73.4339 50.4619 73.4682 50.4028 73.4873 50.3381C73.5447 50.1796 73.5447 50.006 73.4873 49.8475C73.7633 49.9931 73.9626 50.0161 74.0469 49.6865C74.075 49.4193 74.0487 49.149 73.9697 48.8922C73.8906 48.6353 73.7604 48.3971 73.587 48.1918C74.1312 47.7625 74.6371 47.295 75.1737 46.858C76.2698 45.9842 77.6112 47.0037 78.7074 47.4713C80.3784 48.1918 83.7971 49.6559 83.8201 49.6252C83.7714 49.8297 83.7356 50.0371 83.7128 50.2461C83.7128 50.5297 83.5519 51.074 83.9198 51.2196C84.1574 51.3116 84.3337 51.1736 84.4564 50.9436C84.4786 51.02 84.5182 51.0901 84.5721 51.1485C84.626 51.2069 84.6927 51.252 84.7671 51.2803C84.8414 51.3085 84.9212 51.3191 85.0003 51.3112C85.0794 51.3034 85.1556 51.2772 85.2229 51.2349C85.2809 51.1973 85.3326 51.1507 85.3762 51.097C85.5832 51.4342 85.9664 51.6182 86.2807 51.3116C86.5297 51.0724 86.7098 50.7705 86.8019 50.4377C90.6992 51.7999 94.6906 52.8759 98.7445 53.6572C100.668 54.0174 102.631 54.0864 104.555 54.4237C107.146 54.8606 107.705 57.1985 107.621 59.4828C107.434 59.4728 107.249 59.4419 107.069 59.3908C106.672 59.268 106.283 59.1221 105.904 58.9539C105.904 58.9539 105.858 58.9539 105.858 58.9999C105.781 59.3033 105.805 59.6237 105.927 59.9121C105.996 60.1369 106.146 60.3281 106.348 60.4486C105.894 60.6853 105.491 61.0081 105.16 61.3991C104.938 61.6291 104.317 62.1657 104.394 62.5489C104.47 62.9322 104.869 62.8249 105.16 62.7406C105.129 62.809 105.116 62.8842 105.122 62.9592C105.128 63.0341 105.152 63.1063 105.194 63.1691C105.235 63.2319 105.292 63.2832 105.358 63.3182C105.425 63.3531 105.499 63.3707 105.574 63.3691H105.812C106.287 63.9057 106.977 63.4611 107.46 63.1468L108.096 62.7406C108.096 64.5726 108.38 66.4122 108.548 68.2366C108.671 69.6393 108.732 71.0651 108.916 72.4678C109.284 83 108.395 84.1344 107.82 91.4548V91.4165ZM109.177 72.4142C109.077 70.8811 108.863 69.348 108.732 67.815C108.579 66.075 108.518 64.2966 108.242 62.5719C108.834 62.1929 109.377 61.7424 109.859 61.2305C110.25 61.8514 110.664 62.4569 111.032 63.0472C111.136 63.1108 111.25 63.155 111.369 63.1775C111.231 64.7105 111.975 70.6052 112.251 72.7055C110.764 72.6595 109.66 72.5215 109.177 72.4525V72.4142ZM112.396 72.7208C112.235 70.5898 111.822 64.7105 111.63 63.1775C117.042 63.0932 122.791 61.5984 126.692 57.7274C126.777 60.119 127.52 67.2784 127.558 68.4589C127.614 68.8243 127.576 69.1978 127.448 69.5448C127.321 69.8917 127.109 70.2011 126.83 70.4442C122.001 72.8204 116.083 72.9661 112.396 72.7591V72.7208ZM123.128 123.511C121.894 124.071 119.41 125.159 118.582 123.603C119.015 123.641 119.452 123.599 119.87 123.48C122.163 123.038 124.33 122.096 126.217 120.721C127.052 121.633 123.611 123.312 123.09 123.549L123.128 123.511ZM126.14 120.529C124.366 121.854 122.313 122.758 120.138 123.174C119.456 123.312 118.36 123.58 118.222 122.668C118.244 122.33 118.367 122.007 118.575 121.74C118.659 121.587 118.759 121.441 118.858 121.296C119.135 121.443 119.376 121.65 119.563 121.901C119.648 121.963 119.724 121.848 119.694 121.771C119.523 121.492 119.268 121.274 118.966 121.15C119.111 120.951 119.265 120.759 119.418 120.568C119.962 120.79 120.108 121.219 120.269 121.334C120.43 121.449 120.407 121.334 120.384 121.25C120.19 120.897 119.897 120.609 119.54 120.422L119.931 119.947C120.514 120.307 120.698 120.775 120.867 120.936C120.936 120.989 121.074 120.936 121.035 120.836C120.831 120.395 120.504 120.022 120.092 119.763L120.499 119.257C121.403 120.79 124.883 120.023 125.013 118.26C125.451 118.992 125.815 119.765 126.102 120.568L126.14 120.529ZM124.454 116.267C124.607 116.835 125.719 119.249 122.752 119.786C120.69 120.161 119.901 117.701 119.855 117.601C121.461 117.569 123.032 117.122 124.416 116.306L124.454 116.267ZM144.108 104.539C143.747 104.379 143.747 104.072 143.617 103.773C143.445 103.276 143.216 102.8 142.935 102.355C141.67 100.668 139.102 101.128 137.47 102.048C137.063 102.292 136.719 102.626 136.464 103.025C136.208 103.424 136.049 103.877 135.998 104.348C135.989 104.553 135.968 104.758 135.937 104.961C135.791 105.475 135.676 105.459 135.124 105.528C134.411 105.62 127.957 106.065 124.308 106.172C123.733 102.815 123.166 99.488 122.921 98.1313C122.557 96.6044 122.497 95.0208 122.745 93.4708C123.674 92.0793 124.381 90.5507 124.837 88.9406C127.221 88.7796 132.502 88.3197 133.852 88.6723C135.53 89.1322 136.427 90.558 137.048 92.0757C137.669 93.5934 138.144 95.2798 138.681 96.7898C138.681 96.8512 138.842 96.8818 138.865 96.8818C140.198 96.8818 141.563 96.6902 142.897 96.6289C144.23 96.5676 146.024 96.0616 147.159 96.9048C147.989 97.6802 148.507 98.7326 148.615 99.8636C148.88 101.343 149.009 102.844 148.998 104.348C147.649 104.302 144.322 104.639 144.108 104.539Z" fill="black"/>
<path d="M141.938 108.464C142.198 108.257 142.412 108 142.569 107.708C142.726 107.415 142.822 107.094 142.851 106.763C142.879 106.433 142.84 106.1 142.736 105.785C142.632 105.47 142.465 105.179 142.245 104.931C141.772 104.339 141.114 103.925 140.377 103.754C139.64 103.583 138.867 103.665 138.182 103.988C136.603 104.923 137.078 106.893 137.799 107.889C138.627 109.024 140.804 109.231 141.938 108.464ZM138.305 104.248C138.766 104.024 139.28 103.93 139.791 103.977C140.302 104.025 140.79 104.211 141.202 104.517C142.276 105.214 142.95 106.87 141.969 107.928C141.202 108.748 139.347 108.694 138.497 108.043C136.856 106.809 137.454 104.662 138.305 104.248Z" fill="black"/>
<path d="M140.275 106.548C140.416 106.405 140.494 106.212 140.494 106.011C140.494 105.811 140.416 105.618 140.275 105.475C140.133 105.341 139.945 105.267 139.75 105.267C139.555 105.267 139.367 105.341 139.225 105.475C139.153 105.535 139.095 105.609 139.053 105.693C139.011 105.776 138.987 105.868 138.982 105.961C138.976 106.055 138.991 106.148 139.023 106.236C139.056 106.324 139.106 106.404 139.171 106.471C139.238 106.551 139.319 106.616 139.411 106.663C139.503 106.71 139.604 106.738 139.707 106.745C139.81 106.752 139.914 106.738 140.011 106.704C140.109 106.671 140.199 106.617 140.275 106.548ZM139.961 105.636C140.019 105.658 140.07 105.694 140.112 105.74C140.153 105.786 140.182 105.841 140.198 105.901C140.214 105.961 140.215 106.024 140.202 106.084C140.189 106.145 140.161 106.201 140.122 106.249C139.348 107.069 138.895 105.283 139.946 105.62L139.961 105.636ZM133.215 91.3092C131.682 90.1288 128.785 90.9413 127.152 91.4319C127.135 91.4338 127.12 91.4418 127.108 91.4546C127.097 91.4673 127.091 91.4838 127.091 91.5008C127.229 93.3022 127.65 95.2185 127.934 97.0045C127.934 97.0045 132.74 96.399 135.124 96.4066C135.185 96.4066 135.3 96.4066 135.293 96.3223C135.07 94.6053 134.679 92.4437 133.215 91.3092ZM128.149 96.6749C127.896 95.0192 127.788 93.3099 127.459 91.6618C129.076 91.3552 131.759 90.489 133.146 91.7385C134.358 92.8193 134.633 94.567 134.863 96.0924C133.744 96.0924 129.268 96.5063 128.149 96.6903V96.6749ZM140.996 111.5C138.773 110.158 135.691 110.61 133.33 111.5C132.089 111.953 130.924 112.591 129.873 113.393C129.053 114.029 128.287 114.773 128.455 115.884C128.455 116.053 129.72 120.077 129.743 120.085C131.79 121.396 134.825 121.311 137.094 120.767C138.355 120.469 139.563 119.978 140.674 119.311C141.667 118.693 142.481 117.826 143.035 116.796C143.035 116.796 142.835 114.244 142.828 114.182C142.762 113.62 142.561 113.083 142.242 112.615C141.923 112.148 141.495 111.765 140.996 111.5ZM129.306 114.328C130.263 113.323 131.427 112.539 132.717 112.029C135.185 110.932 138.711 110.564 140.758 111.768C142.084 112.534 142.973 114.152 142 115.601C141.183 116.573 140.126 117.316 138.934 117.755C136.519 118.835 133.169 119.702 130.724 118.268C129.413 117.502 128.149 115.746 129.306 114.328ZM140.168 119.196C139.18 119.739 138.123 120.143 137.025 120.399C134.732 121.003 132.303 120.819 130.126 119.878C130.126 119.878 129.551 118.161 129.268 117.318C129.796 117.95 130.461 118.454 131.213 118.793C131.964 119.131 132.783 119.295 133.606 119.272C136.298 119.203 138.909 118.339 141.111 116.789C141.706 116.408 142.178 115.862 142.467 115.217C142.536 115.708 142.598 116.712 142.598 116.75C142.025 117.771 141.185 118.616 140.168 119.196Z" fill="black"/>
<path d="M134.288 117.463L134.058 117.87C133.974 118.023 134.212 118.161 134.296 118.008L134.557 117.555C134.815 117.633 135.088 117.65 135.354 117.605C135.62 117.56 135.872 117.454 136.09 117.295C136.22 117.195 136.09 116.996 135.921 117.072C135.555 117.277 135.129 117.345 134.718 117.264C135.162 116.498 135.637 115.8 136.12 115.095C136.297 115.095 136.473 115.095 136.657 115.141C137.002 115.195 137.356 115.141 137.669 114.986C137.982 114.831 138.239 114.582 138.405 114.275C138.51 113.997 138.525 113.694 138.448 113.408C138.371 113.122 138.205 112.867 137.975 112.68L137.86 112.604L138.121 112.205C138.126 112.199 138.129 112.193 138.131 112.186C138.133 112.179 138.134 112.172 138.133 112.165C138.132 112.158 138.13 112.151 138.127 112.145C138.123 112.138 138.119 112.133 138.113 112.128C138.108 112.124 138.101 112.12 138.095 112.118C138.088 112.116 138.081 112.116 138.073 112.116C138.066 112.117 138.059 112.119 138.053 112.122C138.047 112.126 138.041 112.13 138.037 112.136C137.914 112.259 137.791 112.381 137.676 112.512C137.268 112.395 136.838 112.371 136.419 112.441C136 112.512 135.602 112.674 135.254 112.918C135.185 112.964 135.254 113.086 135.316 113.056C135.706 112.879 136.118 112.758 136.542 112.696C136.848 112.659 137.157 112.682 137.454 112.765C136.899 113.413 136.387 114.096 135.921 114.811C135.116 114.727 134.189 114.665 133.621 115.409C133.494 115.578 133.409 115.776 133.374 115.985C133.339 116.194 133.355 116.408 133.42 116.61C133.486 116.811 133.599 116.994 133.75 117.143C133.901 117.291 134.086 117.401 134.288 117.463ZM137.699 112.81C137.894 112.876 138.057 113.01 138.157 113.189C138.258 113.367 138.288 113.577 138.244 113.776C138.044 114.803 137.155 114.888 136.327 114.819C136.787 114.152 137.247 113.485 137.699 112.81ZM134.909 115.018C135.164 114.99 135.421 114.99 135.676 115.018C135.224 115.716 134.802 116.436 134.396 117.141C133.001 116.513 133.813 115.148 134.909 115.018ZM49.878 132.311C49.6167 131.618 49.1916 130.998 48.6391 130.504C48.0866 130.01 47.4229 129.657 46.7046 129.475C44.5694 128.929 42.3189 129.044 40.2504 129.804C38.4567 130.372 35.6512 131.958 36.2184 134.273C36.2874 134.764 37.2303 138.29 37.2839 138.29C39.1083 140.16 42.205 140.107 44.589 139.823C46.7046 139.539 49.7094 138.765 50.5372 136.496C50.3989 135.111 50.1839 133.734 49.8933 132.372C49.8975 132.368 49.9004 132.362 49.9019 132.356C49.9034 132.35 49.9033 132.344 49.9018 132.338C49.9003 132.332 49.8974 132.326 49.8932 132.321C49.8891 132.317 49.8838 132.313 49.878 132.311ZM36.7014 132.61C37.4551 131.403 38.6339 130.522 40.0051 130.142C42.1275 129.335 44.4448 129.19 46.6509 129.728C48.138 130.073 50.0237 131.537 49.717 133.269C49.4564 134.871 48.184 135.569 46.8119 136.098C44.3119 137.194 41.4956 137.33 38.9013 136.481C37.2916 135.852 35.7049 134.442 36.7014 132.61ZM44.2134 139.562C43.0176 139.72 41.8064 139.72 40.6107 139.562C39.4603 139.35 38.3681 138.895 37.4066 138.229C37.4066 138.229 36.9926 136.282 36.755 135.354C37.9355 136.818 40.488 137.209 42.1591 137.209C43.5642 137.207 44.9588 136.966 46.283 136.496C47.4137 136.201 48.4521 135.626 49.3031 134.825C49.5536 134.541 49.7462 134.21 49.8703 133.852C49.9777 134.718 50.3073 136.427 50.3073 136.427C48.8662 138.512 46.6433 139.24 44.2134 139.509V139.562Z" fill="black"/>
<path d="M41.6532 135.599L41.4769 135.875C41.4232 135.96 41.5535 136.067 41.6149 135.983L41.8372 135.684C42.1487 135.817 42.4865 135.879 42.8251 135.863C43.1637 135.847 43.4942 135.754 43.7918 135.592C43.9068 135.523 43.8378 135.323 43.6998 135.369C43.1563 135.581 42.5584 135.608 41.9981 135.446C42.4504 134.764 43.4545 132.963 43.5695 132.794C44.2594 132.871 44.9953 132.894 45.4245 132.25C45.5289 132.139 45.6043 132.004 45.6437 131.857C45.6832 131.71 45.6855 131.555 45.6506 131.407C45.6156 131.259 45.5445 131.122 45.4435 131.008C45.3425 130.894 45.2148 130.807 45.0719 130.755L45.2176 130.548C45.2712 130.479 45.1639 130.41 45.1026 130.464L44.8803 130.678C44.5629 130.556 44.2212 130.51 43.8829 130.545C43.5446 130.58 43.2193 130.694 42.9333 130.878C42.872 130.931 42.9333 131.008 43.0176 130.977C43.4045 130.813 43.8247 130.742 44.2441 130.77C44.4014 130.781 44.5563 130.815 44.704 130.87C44.2291 131.383 43.8078 131.943 43.4469 132.541C43.0925 132.461 42.7288 132.43 42.3661 132.449C42.02 132.486 41.6907 132.617 41.4137 132.828C41.1367 133.039 40.9227 133.321 40.7947 133.645C40.6556 134.018 40.6675 134.431 40.8278 134.796C40.988 135.161 41.2841 135.449 41.6532 135.599ZM44.9109 131C45.5778 131.422 45.3862 132.38 44.2901 132.587C44.1019 132.614 43.9109 132.614 43.7228 132.587C44.0984 132.027 44.5047 131.506 44.9109 130.977V131ZM43.3089 132.794C42.7877 133.645 42.3277 134.534 41.7758 135.377C41.6042 135.286 41.4539 135.16 41.3349 135.007C41.216 134.854 41.1311 134.677 41.086 134.488C40.7257 133.001 42.1591 132.656 43.3089 132.771V132.794ZM28.0243 119.288C26.0344 118.241 23.749 117.898 21.5394 118.314C19.6921 118.521 16.6336 119.548 16.7716 121.901C16.7716 122.377 16.9556 125.995 17.0016 126.01C18.389 128.156 21.3171 128.754 23.678 128.946C25.8397 129.122 29.0438 129.023 30.3469 126.915L30.5538 122.722C30.4335 121.99 30.1416 121.297 29.7019 120.701C29.2622 120.104 28.6873 119.619 28.0243 119.288ZM30.1399 126.853C28.3385 128.54 26.0773 128.831 23.678 128.639C22.4687 128.571 21.2733 128.347 20.1213 127.972C18.9946 127.529 17.9774 126.846 17.1395 125.972C17.1395 125.972 17.1395 123.986 17.0859 123.036C17.9674 124.761 20.4893 125.673 22.191 126.002C23.5254 126.258 24.8928 126.291 26.2383 126.102C27.3852 126.033 28.4982 125.686 29.4807 125.09C29.7889 124.859 30.0492 124.57 30.2472 124.239C30.1629 125.106 30.1399 126.853 30.1399 126.853ZM30.3085 123.343C29.8563 124.952 28.4535 125.443 26.9741 125.734C24.3071 126.331 21.5139 125.936 19.1172 124.623C17.6914 123.779 16.2734 122.193 17.4308 120.522C17.8723 119.976 18.4184 119.524 19.0371 119.192C19.6558 118.86 20.3346 118.656 21.0335 118.59C23.3687 118.11 25.7975 118.426 27.9323 119.487C29.1817 120.115 30.7531 121.786 30.3085 123.343Z" fill="black"/>
<path d="M26.2154 120.154L26.3458 120.039C26.4071 119.985 26.3458 119.885 26.2538 119.924L26.0698 120.046C25.7635 119.885 25.4275 119.787 25.0822 119.759C24.7369 119.732 24.3897 119.775 24.0615 119.885C24.047 119.893 24.0355 119.905 24.029 119.92C24.0226 119.934 24.0215 119.951 24.0261 119.967C24.0307 119.982 24.0406 119.996 24.054 120.005C24.0675 120.014 24.0837 120.018 24.0998 120.016C24.6833 119.92 25.2818 119.984 25.8322 120.2C25.302 120.576 24.8091 121.002 24.3604 121.472L23.9235 121.411C23.5612 121.3 23.1784 121.273 22.804 121.331C22.4296 121.39 22.0733 121.532 21.7619 121.748C21.5648 121.895 21.406 122.087 21.2987 122.309C21.1915 122.53 21.1391 122.774 21.1458 123.019C21.1526 123.265 21.2184 123.506 21.3376 123.721C21.4568 123.936 21.626 124.119 21.8309 124.255L21.6009 124.492C21.5166 124.569 21.6393 124.684 21.7312 124.615L21.9919 124.377C22.263 124.585 22.5816 124.722 22.9189 124.775C23.2561 124.829 23.6014 124.797 23.9235 124.684C23.9483 124.67 23.9676 124.649 23.9784 124.623C23.9891 124.597 23.9905 124.568 23.9824 124.541C23.9743 124.514 23.9572 124.491 23.9339 124.475C23.9106 124.459 23.8826 124.452 23.8545 124.454C23.2976 124.52 22.7333 124.425 22.2295 124.178C22.8504 123.572 24.2761 121.924 24.4371 121.771C24.9254 121.871 25.4305 121.849 25.9088 121.71C26.129 121.652 26.3181 121.511 26.4367 121.317C26.5553 121.122 26.5941 120.89 26.5451 120.667C26.4963 120.464 26.3801 120.283 26.2154 120.154ZM22.0225 124.055C21.885 123.978 21.7645 123.875 21.668 123.75C21.5715 123.625 21.5012 123.483 21.4611 123.33C21.421 123.178 21.4121 123.019 21.4348 122.863C21.4575 122.707 21.5114 122.557 21.5933 122.423C22.0149 121.572 22.858 121.533 23.6782 121.656L24.1228 121.725C23.4023 122.476 22.7431 123.296 22.0225 124.055ZM25.3799 121.518C25.148 121.541 24.9143 121.541 24.6824 121.518C25.1193 121.112 25.5792 120.752 26.0315 120.33C26.1138 120.394 26.1792 120.477 26.2219 120.572C26.2647 120.666 26.2835 120.77 26.2768 120.874C26.2691 121.395 25.7785 121.487 25.3799 121.518Z" fill="black"/>
</svg>
