<svg width="154" height="154" viewBox="0 0 154 154" fill="none" xmlns="http://www.w3.org/2000/svg">
<path fill-rule="evenodd" clip-rule="evenodd" d="M137.597 56.0846C140.265 58.6633 142.399 61.7755 144 65.1544H144C148.356 75.2269 145.136 87.3782 140.177 97.1671C140.082 97.4032 139.862 97.4139 139.704 97.3051C139.639 97.4323 139.573 97.5588 139.508 97.6853C138.449 97.2115 137.361 96.7301 136.291 96.2572H136.29L136.289 96.2564L136.284 96.2541C134.044 95.263 131.88 94.3063 130.217 93.5214H130.216C129.497 93.1818 128.705 92.8989 127.815 92.81C127.663 92.81 127.516 92.8207 127.373 92.8407L124.081 91.1198V91.1205C123.487 90.725 122.94 90.8016 122.302 91.1205C122.024 91.2662 121.753 91.4225 121.49 91.5889L119.278 90.0527V90.0535C118.745 89.6978 118.3 89.1643 118.3 88.4529C117.233 84.5405 114.743 81.0726 111.275 78.8488C110.024 77.9313 108.656 77.1701 107.216 76.5659C107.417 64.8342 107.158 53.0259 105.585 41.6788C87.1775 39.1002 68.0589 38.2109 49.8296 42.1234C48.5101 51.9343 47.8568 64.5951 48.4908 77.479C47.6914 77.9113 46.9203 78.3973 46.1831 78.9377C42.7153 81.1607 40.2255 84.6286 39.1585 88.5411C39.1585 88.8968 38.9806 89.2524 38.8028 89.5192L38.7399 89.5821C38.6903 89.6327 38.6492 89.674 38.6069 89.7139C38.4062 89.9033 38.1764 90.0619 36.858 90.9741L36.8545 90.9764L36.8502 90.9795C36.5879 91.1604 36.2828 91.372 35.9265 91.6188C35.6487 91.4417 35.3624 91.2761 35.0682 91.1213V91.1205C34.5622 90.784 33.9475 90.7419 33.3787 91.1205L30.0888 92.8399C29.9451 92.82 29.7973 92.8092 29.644 92.8092C28.7549 92.8982 27.9622 93.181 27.2432 93.5206C25.7162 94.2411 23.3968 95.5167 20.8988 96.9241C21.6546 91.7483 22.1966 87.6097 20.8402 81.4283C19.6344 75.9313 16.9316 70.5785 13.4599 66.489C12.2365 65.0479 11.0284 63.5761 9.99201 62.043C5.95842 56.0762 6.70197 48.1707 9.81417 41.9464C14.4993 32.576 24.8094 25.0807 33.8233 22.4721C36.8737 21.591 39.6556 21.3045 42.4995 21.0115C46.8379 20.5645 51.3207 20.1027 57.121 17.4926C61.5105 15.4197 63.8027 13.7651 66.0617 12.1344C67.4198 11.154 68.766 10.1822 70.5487 9.13341C74.5493 6.88282 80.9186 5.42867 85.3101 4.86526C92.5126 3.79822 99.9819 3.17578 107.096 4.95418C117.227 7.52059 125.819 15.1792 126.393 25.4954C126.475 27.3931 126.194 29.2525 125.914 31.1092C125.589 33.2544 125.265 35.3959 125.503 37.5885C126.18 44.1306 130.864 49.0199 135.251 53.5999C136.052 54.4357 136.842 55.2612 137.597 56.0846ZM119.724 106.059C120.969 107.506 123.811 110.694 126.865 113.993C122.244 117.655 116.771 120.025 110.195 120.53C110.922 119.907 111.272 119.196 111.098 118.154V118.153C110.243 112.6 108.2 106.437 105.676 101.388C99.7849 99.4391 92.3494 97.7673 86.3228 96.6627C93.5513 96.4473 100.087 96.4718 106.563 96.9003L106.596 96.0655C106.633 95.1066 106.671 94.1453 106.708 93.181V93.1818C107.191 93.7552 107.67 94.3255 108.163 94.8544C108.875 95.6547 109.764 96.2771 110.653 96.8106C111.149 97.108 111.562 97.1295 112.001 97.151C112.348 97.1686 112.71 97.187 113.143 97.3441C113.185 97.3648 113.232 97.3863 113.282 97.4085C113.442 97.4798 113.63 97.5641 113.765 97.6998C114.561 98.2962 115.384 98.9209 116.188 99.5572C116.137 99.8837 116.1 100.213 116.078 100.546C116.078 101.163 116.104 101.75 116.7 102.147C117.488 102.995 118.318 103.802 119.189 104.541C119.188 105.317 119.306 105.479 119.546 105.807C119.599 105.88 119.658 105.961 119.724 106.059ZM25.2506 119.794C26.0814 120.443 26.991 120.997 27.9538 121.444C32.1917 123.339 36.708 122.666 40.8299 122.035C40.707 121.6 40.7813 121.109 41.1147 120.554C43.3385 115.485 46.095 110.773 49.4739 106.415C49.6185 106.222 49.7385 106.055 49.8445 105.908L49.8456 105.907L49.8462 105.906L49.8464 105.905C50.4951 105.002 50.6146 104.836 52.6007 104.004C58.0113 101.709 64.5976 99.2843 70.4004 97.3863C67.6571 97.5381 64.7959 97.7037 61.795 97.8769H61.7945H61.7922L61.7853 97.8777H61.7827H61.7746L61.7682 97.8784C58.3109 98.0777 54.6684 98.2885 50.8077 98.5009C50.5423 97.0375 50.2998 95.5573 50.0792 94.0641C49.8202 94.3653 49.5598 94.6605 49.2953 94.9441C48.584 95.7444 47.6948 96.3668 46.8056 96.9003C46.3093 97.1977 45.8961 97.2192 45.4579 97.2407C45.1108 97.2583 44.7481 97.2767 44.3158 97.4338C44.2738 97.4545 44.2269 97.476 44.1774 97.4982C44.017 97.5695 43.8292 97.6538 43.6934 97.7895C42.8337 98.3959 42.0028 99.0313 41.2006 99.6798C41.2423 99.9658 41.2731 100.256 41.2925 100.547C41.2925 101.206 41.2619 101.625 40.759 102.147C39.984 102.951 39.1906 103.736 38.359 104.457V104.458C38.3761 105.382 38.2624 105.538 38.0034 105.894L38.003 105.895L38.0026 105.896C37.9497 105.969 37.8907 106.049 37.8254 106.147C35.8319 108.462 29.7455 115.242 25.2506 119.794ZM107.138 80.2715L107.137 80.3129C107.243 80.3865 107.348 80.4617 107.453 80.5383C107.349 80.4479 107.244 80.3597 107.138 80.2715ZM59.9665 26.2949C60.3582 26.6866 65.4588 34.3215 65.7095 34.8151V34.8144C66.3833 36.1413 65.3507 36.1336 64.6877 35.5395C63.8613 34.799 59.0773 28.4282 58.5438 27.0952C58.277 26.206 59.344 25.7614 59.9665 26.2949ZM79.1739 34.4763C79.6484 30.9954 79.8776 23.9876 79.6185 22.5603C79.4407 21.8489 78.2725 21.8474 78.1958 22.5603C78.1751 22.7496 78.4357 33.1103 78.5515 34.3874C78.4626 34.832 79.085 34.9209 79.1739 34.4763ZM97.9368 29.585C97.3833 30.6926 94.5202 34.6197 92.7955 36.2516C92.2145 36.8013 91.8258 36.2861 92.1899 35.702C93.0354 34.3468 96.3853 29.6509 96.9586 28.9625C97.3143 28.6958 98.1146 28.9625 97.9368 29.585Z" fill="black"/>
<path d="M86.1101 141.006C84.7939 142.058 84.2903 142.012 82.9979 142.873C82.8147 143.057 82.9044 143.345 83.4157 143.184C84.2374 142.925 85.5099 142.305 86.4658 141.54C86.7578 141.394 86.5923 140.765 86.1101 141.006Z" fill="black"/>
<path d="M86.0561 143.177C83.7404 144.722 83.4016 144.721 82.8435 144.952C82.7416 144.994 82.7837 145.566 83.2475 145.49C84.6395 145.264 85.8629 144.253 86.3474 143.929C87.7004 143.027 86.9032 142.329 86.0554 143.176L86.0561 143.177Z" fill="black"/>
<path d="M81.0875 98.6127C80.9986 104.484 80.9541 109.528 81.5765 115.308C81.5765 115.664 82.5163 115.603 82.4274 115.159C81.8939 109.29 82.0012 104.452 81.9567 98.5828C81.9514 97.8316 81.1005 97.7412 81.0875 98.6127Z" fill="black"/>
<path fill-rule="evenodd" clip-rule="evenodd" d="M69.3371 97.4461C62.5161 99.7994 52.6764 103.638 50.5749 104.547C50.126 104.741 50.0105 104.911 49.8768 105.107C49.8522 105.142 49.8271 105.179 49.7992 105.217C46.1343 109.693 43.4276 114.799 40.9371 120.021C40.5094 120.919 40.0479 121.888 40.7593 122.778C41.4706 123.489 42.2709 124.022 43.249 124.378C43.249 124.378 48.6616 127.128 49.7248 127.656C50.0537 130.199 50.4284 131.797 50.7159 133.023C50.781 133.3 50.8415 133.558 50.8961 133.804C50.985 134.694 51.5186 135.494 52.141 136.027C53.208 136.65 54.2751 137.183 55.3421 137.628C56.2421 138.063 57.1003 138.478 57.9249 138.877C66.1518 142.857 71.0399 145.221 80.8629 149.455C81.1097 149.537 81.2806 149.391 81.3749 149.158C88.73 145.783 95.5208 141.376 101.849 136.295C102.121 136.076 102.395 135.858 102.671 135.639C103.9 134.662 105.151 133.668 106.295 132.559C107.485 131.407 107.536 129.739 107.586 128.144C107.596 127.802 107.607 127.464 107.628 127.135C107.654 126.754 107.68 126.373 107.707 125.991C107.779 124.942 107.852 123.889 107.895 122.831C108.587 122.349 109.27 121.858 109.94 121.356C110.741 120.911 111.363 120.2 111.63 119.31C111.719 118.332 111.63 117.265 111.363 116.287L111.365 116.286C110.423 111.318 108.931 106.375 106.479 101.869C106.085 101.145 105.822 100.903 105.363 100.772C101.094 99.5603 93.6382 97.8118 87.3885 96.6328C86.1934 96.665 84.98 96.7033 83.7451 96.7486C83.8516 96.7693 83.9582 96.79 84.0647 96.8114C91.5838 98.0647 97.9194 99.3732 105.237 101.51C99.0263 106.028 92.4715 109.945 85.4875 113.262C84.1506 113.902 82.5117 114.454 80.941 114.984C80.2374 115.221 79.5475 115.454 78.9043 115.688C78.5141 115.393 70.8557 112.672 65.4519 110.753C64.6621 110.472 63.9205 110.208 63.2567 109.972C62.4233 109.676 61.5794 109.386 60.7312 109.095C57.4021 107.954 54.0059 106.789 50.9069 105.072C58.7539 101.886 61.9768 100.772 65.5221 99.5465C67.1267 98.9923 68.7974 98.4143 70.9928 97.6117H70.9935C71.2814 97.5067 71.5704 97.4047 71.8602 97.3066C71.0302 97.3518 70.1893 97.3978 69.3371 97.4461ZM41.2039 121.176C40.8482 122.51 41.9236 123.026 42.8933 123.488C46.0191 124.979 48.6382 126.281 50.9359 127.424C55.3841 129.637 58.6278 131.251 62.0119 132.47C62.4036 132.611 62.7977 132.77 63.1885 132.927C63.8532 133.194 64.5081 133.458 65.1241 133.626C65.3495 133.687 65.5891 133.768 65.8364 133.85C66.6619 134.128 67.5725 134.433 68.3252 134.159C69.102 133.876 69.4862 133.089 69.8341 132.376C69.9243 132.192 70.012 132.012 70.1036 131.847C70.8266 130.281 72.2706 127.672 73.9011 124.725C75.3767 122.059 77.0048 119.116 78.39 116.421C78.0489 116.228 71.399 113.781 60.767 110.061C60.182 109.857 59.5919 109.656 58.9998 109.454C56.0315 108.444 53.0129 107.417 50.3319 105.813C47.3462 109.613 44.6894 113.681 42.6266 118.064C42.0931 119.042 41.5595 120.109 41.2039 121.176ZM53.9722 136.142C54.1696 136.222 54.3625 136.3 54.5426 136.382L54.5599 136.391C63.1526 140.556 71.746 144.722 80.5041 148.392C79.3765 139.754 78.656 128.573 78.8254 117.38C77.6288 119.634 76.4015 121.871 75.1738 124.109C73.7951 126.622 72.4165 129.135 71.0824 131.67C70.6378 132.737 70.1043 133.626 69.393 134.426C68.6816 135.048 67.6146 135.226 66.7254 134.96C61.5673 133.373 55.2026 130.357 50.3963 127.986C50.6309 129.441 51.2441 133.145 51.7861 134.515C52.1332 135.392 53.0976 135.785 53.9722 136.142ZM106.687 127.705C106.714 126.967 106.744 126.117 106.83 125.089C106.865 124.562 106.895 124.033 106.921 123.503C106.126 124.046 105.323 124.582 104.519 125.118L104.429 125.178C97.5545 129.761 89.7993 133.082 86.5553 133.893C85.755 134.07 84.9547 133.537 84.7769 132.737C84.7217 132.571 84.6075 132.13 84.4396 131.486C83.6914 128.606 81.8877 121.662 79.6218 117.12C79.6394 117.342 79.6364 117.923 79.631 118.828C79.6065 122.978 79.5413 133.942 81.3075 148.281C89.8323 144.516 96.9803 139.554 104.162 133.27C104.962 132.737 105.674 132.025 106.207 131.225C106.6 130.146 106.636 129.134 106.687 127.705ZM104.873 123.845C106.652 122.689 108.367 121.563 109.942 120.199V120.198C110.762 119.488 110.68 118.604 110.591 117.649C110.582 117.551 110.573 117.452 110.564 117.353C110.335 114.597 108.555 108.099 105.651 102.275C103.425 104.003 96.272 108.952 90.1948 112.142C87.1716 113.813 83.6339 115.215 80.2481 116.319C82.6274 120.138 85.1295 130.428 85.4851 131.892C85.512 132 85.5265 132.06 85.5281 132.065C85.7818 132.782 86.0217 133.181 86.7331 133.003C87.2666 132.914 87.7112 132.737 88.1558 132.559C94.2131 130.357 100.239 127.053 104.873 123.845Z" fill="black"/>
<path fill-rule="evenodd" clip-rule="evenodd" d="M40.3138 84.7188C42.1141 81.428 45.0852 78.7873 48.4698 77.0396C48.4811 77.2818 48.493 77.524 48.5052 77.7662C44.6439 79.8727 41.5216 82.9895 39.8692 87.1197C39.7653 87.4056 39.6917 87.7138 39.6175 88.025C39.4377 88.7793 39.2538 89.5504 38.6243 90.054C37.819 90.6734 37.0136 91.2499 36.1782 91.7834C36.0308 91.6837 35.8808 91.5879 35.7285 91.4952C36.8618 90.6519 37.1669 90.4442 37.4027 90.2832C37.5729 90.1667 37.7071 90.0755 38.0908 89.7873C38.4465 89.5205 38.7132 89.0759 38.8022 88.6313C39.1578 87.2975 39.6024 85.9637 40.3138 84.7188ZM41.2615 100.172C41.7755 99.7501 42.2872 99.3347 42.8043 98.9468C43.2489 98.5022 43.7824 98.1465 44.3159 97.8798C44.6716 97.7609 45.0273 97.7218 45.383 97.682C45.5608 97.662 45.7387 97.6429 45.9165 97.613C46.9835 97.3462 47.8727 96.8127 48.673 96.0124C49.1738 95.5119 49.6746 95.0106 50.1436 94.4939C50.099 94.1988 50.0553 93.9021 50.0123 93.6055C48.2547 95.5686 47.0464 96.9016 44.9384 96.9016C43.8713 97.1684 42.8932 97.7019 42.093 98.5022C41.7639 98.749 41.4434 98.9958 41.1287 99.245C41.1857 99.5508 41.23 99.8605 41.2615 100.172Z" fill="black"/>
<path fill-rule="evenodd" clip-rule="evenodd" d="M112.234 97.2972C109.998 97.2972 108.208 95.341 106.695 93.5097L106.731 92.5876C106.974 92.8635 107.189 93.1157 107.392 93.3526C108.207 94.31 108.822 95.0321 110.297 96.0999C110.656 96.3605 111.186 96.5445 111.719 96.6334C113.443 96.6334 114.578 97.6084 116.273 99.0856C116.227 99.3163 116.187 99.5486 116.155 99.7832C115.481 99.2266 114.791 98.6793 114.101 98.1864C113.567 97.7418 112.945 97.3862 112.234 97.2972ZM121.781 91.4109C121.402 91.1257 120.798 90.6704 119.793 89.9169V89.9161C119.437 89.7383 119.081 89.3826 118.814 89.0269C118.548 88.4045 118.37 87.782 118.281 87.0707C117.784 85.3345 115.757 81.8689 112.768 79.4236C111.232 78.1435 109.283 76.9561 107.224 76.0691L107.215 76.6093C112.061 78.7337 116.365 82.8386 117.767 87.7414C117.856 88.3639 118.122 88.9863 118.478 89.5198C119.011 89.9644 119.545 90.409 120.167 90.7647C120.586 91.0782 121.004 91.3611 121.422 91.6317C121.54 91.5558 121.66 91.483 121.781 91.4109ZM107.362 80.5389C107.286 80.4883 107.211 80.4385 107.135 80.3894C107.142 80.1058 107.149 79.8222 107.156 79.5378C107.345 79.6896 107.533 79.846 107.718 80.0054C108.074 80.2722 107.718 80.7168 107.362 80.5389Z" fill="black"/>
<path d="M87.4443 68.1777C87.3722 67.464 86.9108 66.755 86.2883 66.3993C85.577 66.1325 84.8656 66.1325 84.1543 66.3104C81.1755 66.9581 75.4992 66.8669 73.0385 66.3978C72.3272 66.131 71.5269 66.0421 70.7266 66.131C68.6171 66.735 68.5741 69.3927 70.3709 70.2213C70.4599 70.2213 70.4598 70.3102 70.5488 70.3102C71.5652 70.6912 72.8507 69.8189 73.3053 72.0886C73.5054 72.5884 75.2615 78.1137 75.5168 78.7783C75.6187 79.0443 76.2189 78.7285 76.1867 78.4977C76.015 77.2797 74.7334 74.3798 74.3723 73.0675C74.1263 72.1722 73.8388 71.2891 73.3942 70.3999C72.9496 69.7775 72.2382 69.4218 71.438 69.5107C70.5488 69.5107 69.6596 68.8883 69.9263 67.9102C70.282 66.7542 71.438 66.932 72.4161 67.1099C75.2891 67.8588 81.1923 67.8603 84.0653 67.1107C84.9545 66.9328 86.1994 66.755 86.5551 67.9109C86.8219 68.889 85.9327 69.5115 85.0435 69.5115C84.3321 69.4226 83.6208 69.7782 83.1762 70.3118C82.1651 72.3347 81.1241 77.0965 80.5814 78.3866C80.3499 78.9362 81.1778 78.8542 81.2789 78.5874C81.9512 76.8113 82.7668 73.4692 83.5318 71.5566C83.6208 71.112 83.8875 70.7564 84.2432 70.5785C84.6878 70.4896 85.0435 70.4896 85.4881 70.4896C86.644 70.4007 87.5608 69.3306 87.4443 68.1777Z" fill="black"/>
<path d="M41.4705 99.9235C41.0972 96.5614 38.7362 92.6872 34.8904 90.7647C34.5347 90.5869 34.179 90.498 33.8234 90.5869C33.3788 90.7647 32.9342 91.0315 32.4896 91.2982C31.641 91.6899 30.8407 92.1299 30.0535 92.6175C26.9443 92.2664 22.5152 96.0263 9.90317 102.859C9.81425 102.948 9.99056 103.21 10.1699 103.125C15.6561 100.511 21.1983 96.9002 26.3541 94.3223C27.3322 93.6998 28.4882 93.3442 29.6441 93.1663C31.0669 93.3442 32.4007 93.9666 33.4677 94.9447C35.6907 96.7231 37.1134 99.2129 37.6469 101.97C37.8248 102.593 37.9137 103.304 37.9137 104.015C38.0026 104.371 38.0026 104.727 37.9137 105.171C37.8248 105.438 37.6469 105.705 37.3802 105.972C37.0245 106.416 36.6688 106.861 36.2242 107.216C29.3835 114.791 25.8037 118.737 20.7514 123.401C20.3068 123.756 20.9292 124.29 21.2849 123.934C24.0958 121.593 25.7501 119.647 28.6653 116.732C32.8069 112.456 35.2576 109.556 37.824 106.594C38.1797 106.238 38.3575 105.883 38.5353 105.438C38.5606 105.233 38.579 105.027 38.5898 104.822C39.8078 103.726 40.3015 103.165 41.114 102.236C41.5586 101.525 41.7365 100.725 41.4697 99.9242L41.4705 99.9235ZM39.0696 103.48C38.9094 103.623 38.7492 103.758 38.589 103.889C38.4158 100.767 37.1364 97.9174 35.1572 95.6553C33.7597 94.1176 31.7951 93.0299 30.7265 92.7447C32.7111 91.8195 32.8644 91.4132 34.0894 91.2093C34.6229 91.2982 35.1564 91.4761 35.601 91.8318C39.1655 94.1375 40.8588 97.7089 40.9362 100.813C40.963 101.88 39.8691 102.769 39.0689 103.48H39.0696Z" fill="black"/>
<path d="M144.977 100.101C139.998 97.3953 130.597 93.328 129.416 92.8988C128.778 92.6535 128.087 92.5707 127.4 92.6351C126.243 91.9191 124.414 90.8927 124.042 90.7149C123.72 90.56 123.395 90.4604 123.102 90.4972C122.302 90.675 121.502 91.1196 120.879 91.6531C119.024 92.9769 117.683 94.5392 116.611 96.9883C116.345 97.6997 116.078 98.4999 115.989 99.3002C115.811 100.101 115.811 100.901 115.989 101.612C116.433 102.501 117.145 103.213 117.856 103.835C119.011 105.133 118.691 104.254 118.834 105.258C119.101 105.88 119.546 106.503 119.99 106.947C120.285 107.242 131.688 120.371 136.085 123.754C136.441 124.11 137.064 123.487 136.619 123.22C134.485 121.353 132.491 119.35 130.572 117.263C128.246 114.732 123.085 109.398 120.524 106.325C119.99 105.702 119.457 105.258 119.457 104.369C119.457 103.035 119.723 101.79 120.079 100.545C120.791 98.1443 122.302 96.0102 124.347 94.4985C125.325 93.6093 126.659 93.1648 127.993 92.9869C129.149 93.1648 130.305 93.5204 131.283 94.1429C135.818 96.0991 140.354 98.1443 144.8 100.189C145.066 100.456 145.244 100.189 144.977 100.1V100.101ZM119.101 101.613C118.945 102.701 118.947 101.994 118.793 103.749C118.622 103.606 118.457 103.459 118.301 103.302C117.589 102.591 116.406 101.79 116.433 100.635C116.478 98.7659 117.056 96.9891 118.034 95.4767C119.353 93.1011 121.943 91.3618 123.297 91.1365C123.775 91.2047 125.756 92.2717 126.65 92.7646C123.387 93.5902 119.976 97.2336 119.101 101.612V101.613Z" fill="black"/>
<path d="M94.0244 53.4168C89.0986 40.2828 68.9061 39.53 63.0788 52.3498C60.3223 58.3074 62.4564 65.2439 65.6575 70.6681C67.534 73.8232 69.6543 76.733 71.2372 79.9464C70.7198 80.0315 70.3511 80.1633 70.1924 80.716C69.9256 82.2276 69.7478 83.7393 69.8367 85.2517C69.7478 86.9411 69.8367 88.6306 69.9256 90.3201C69.9256 90.4979 70.0145 90.6758 70.1924 90.6758C73.0524 91.2675 81.2445 91.9161 86.3765 90.8536C86.5544 90.7647 86.6433 90.6758 86.6433 90.4979C86.7943 87.6211 86.8771 83.7308 86.3765 80.8946C86.2033 80.2898 85.7794 80.1886 85.2658 80.102C89.6873 71.581 92.0789 70.7163 94.2904 62.7542C95.1796 59.642 95.0907 56.4409 94.0236 53.4168H94.0244ZM85.7549 81.7838C86.0117 84.528 86.1029 87.3551 85.9496 90.1055C82.2126 90.8682 74.5786 90.7363 70.6193 89.9276C70.5565 88.8483 70.5212 87.7567 70.5205 86.6637C75.0945 86.6897 82.4449 86.8806 84.9538 86.9411C85.1317 86.9411 85.2206 86.7633 85.2206 86.5855C85.2206 86.4965 85.1317 86.4076 84.9538 86.3187C84.0462 86.3072 72.1593 86.0634 70.5243 86.0772C70.535 85.1804 70.5711 84.2843 70.6377 83.392C72.9796 83.382 75.3306 83.1904 77.759 83.1904C84.3345 83.1904 83.2099 83.3039 85.0427 83.3039C85.3984 83.3039 85.3984 82.7703 85.0427 82.7703C79.8747 82.4009 74.9051 82.6094 70.6738 82.9421C70.7129 82.4952 70.7596 82.049 70.8148 81.606C70.8148 80.6401 70.9137 80.5389 72.0597 80.5389C77.1718 79.8996 83.6507 80.3457 85.4873 80.8057C85.6652 80.9835 85.6652 81.4281 85.7541 81.7838H85.7549ZM89.8452 70.9348C88.0177 73.8945 85.5862 76.7284 84.5667 80.0161C78.3807 79.2795 77.2423 79.2572 71.9516 79.8575C70.371 74.9784 66.086 71.9329 63.3463 63.4655C61.4207 57.5133 62.8887 51.0428 68.3258 47.0146C76.4628 41.0976 89.1875 43.8595 93.0463 53.1501C95.5361 59.1077 92.9574 65.7775 89.8452 70.9348Z" fill="black"/>
<path d="M34.2419 93.5572C34.6283 93.5572 34.9417 93.2437 34.9417 92.8573C34.9417 92.471 34.6283 92.1575 34.2419 92.1575C33.8554 92.1575 33.542 92.471 33.542 92.8573C33.542 93.2437 33.8554 93.5572 34.2419 93.5572Z" fill="black"/>
<path d="M122.782 93.6861C123.169 93.6861 123.482 93.3726 123.482 92.9862C123.482 92.5999 123.169 92.2864 122.782 92.2864C122.396 92.2864 122.083 92.5999 122.083 92.9862C122.083 93.3726 122.396 93.6861 122.782 93.6861Z" fill="black"/>
<path d="M56.321 81.5163C56.2321 80.716 55.6112 80.5251 54.9872 80.4492C54.1003 80.3419 53.2088 80.3603 52.3196 80.4492C48.7682 80.6179 44.7331 82.0713 41.8263 84.8063C41.5595 84.8952 41.7374 85.162 42.0041 85.0731C43.6047 83.9171 45.367 82.9896 47.2504 82.2276C50.0322 81.1023 52.302 81.1606 54.4529 81.1606C54.9864 81.1606 55.6978 81.2495 55.2532 81.872C53.1735 83.9508 50.5496 85.5031 47.4282 86.4958C47.2504 86.5847 47.1615 86.6736 47.1615 86.8515C47.1615 89.4646 46.1052 91.8034 44.405 93.7872C43.8715 94.4096 43.1601 94.9432 42.5377 95.4767C42.1812 95.6553 42.5852 96.3084 42.9823 96.0991C43.7925 95.6722 44.4939 95.0313 45.0274 94.3207C46.7997 92.2947 47.8828 90.0618 47.9579 87.1259C50.5205 86.3179 52.837 85.014 54.9864 83.2939C55.5199 82.8493 56.4091 82.3158 56.3202 81.5155L56.321 81.5163Z" fill="black"/>
<path fill-rule="evenodd" clip-rule="evenodd" d="M106.118 41.5009C106.118 41.2341 105.941 41.0563 105.674 41.0563C86.6918 38.509 68.6104 37.8337 49.8299 41.5898C49.4627 41.6419 49.3669 42.0114 49.4781 42.269C48.6256 47.5605 48.1021 56.8395 47.9626 62.3986C47.818 68.6841 47.9065 75.1138 48.3442 81.5064C48.6776 81.4098 49.0138 81.3224 49.3526 81.2442C48.3502 67.5174 49.2199 56.1404 50.0003 45.9328C50.0903 44.7553 50.1791 43.5934 50.2638 42.4453C60.7394 40.371 68.7185 39.885 77.7936 39.9271C77.7875 40.5415 77.8281 41.4139 77.8895 42.7047C78.0328 45.7367 78.285 51.0763 78.285 60.7972C78.5081 79.2987 78.1478 85.3659 77.5897 94.7638C77.5568 95.3181 77.5238 95.8838 77.4893 96.464C68.2885 96.9332 57.8109 97.6062 52.9088 97.9212L52.908 97.922L52.8808 97.9236C52.3159 97.9596 51.8258 97.991 51.4213 98.0171C50.6949 93.8171 50.1562 89.8181 49.7677 85.9968C49.4331 86.1409 49.0941 86.2774 48.7512 86.4054C49.1518 90.488 49.7086 94.5362 50.4523 98.5015C50.5413 98.6794 50.6302 98.7683 50.808 98.7683C58.0994 98.3237 65.3027 97.968 72.5941 97.6123L73.7737 97.5541C85.5035 96.9738 95.7823 96.4656 106.563 97.1677C106.83 97.1677 107.003 96.9899 107.008 96.7231C107.055 94.1353 107.169 91.1917 107.294 87.9584V87.9576C107.32 87.2708 107.348 86.5702 107.375 85.8573C107.153 85.7569 106.933 85.6526 106.716 85.5445C106.649 87.6165 106.515 89.7008 106.381 91.7827V91.7835C106.286 93.2721 106.19 94.76 106.119 96.2402C96.9221 95.7113 87.7251 95.9574 78.5518 96.4096C79.7131 81.4519 78.9189 44.7089 78.5518 39.9317C84.4427 39.9823 92.306 40.3066 105.171 41.9577C106.752 54.7885 107.05 68.0194 106.819 80.9966C107.061 81.0342 107.303 81.0771 107.543 81.1238C107.91 69.6971 108.023 55.7816 106.118 41.5016V41.5009Z" fill="black"/>
<path d="M115.633 84.7181C113.143 82.1394 109.408 80.8056 105.94 80.45C105.05 80.361 104.072 80.2721 103.183 80.3611C102.561 80.3611 101.76 80.45 101.405 80.9835C101.049 81.517 101.583 82.3173 102.027 82.673C104.184 84.6568 106.759 86.1385 109.59 87.0377C109.639 88.8054 110.126 90.5048 110.919 92.0103C111.703 93.4959 113.079 95.318 114.565 96.1006C114.74 96.1934 114.921 96.1895 115.01 96.0117C115.098 95.8339 115.098 95.656 114.921 95.5671C114.298 94.9447 113.676 94.5001 113.053 93.8776C111.302 91.834 110.432 89.5037 110.297 86.9419C110.297 86.764 110.208 86.5862 110.03 86.5862C108.074 85.9638 106.206 85.0746 104.517 83.9186C104.072 83.6518 103.628 83.2962 103.272 82.9405C102.828 82.6737 102.472 82.3181 102.205 81.9624C101.76 81.3399 102.561 81.251 103.005 81.251C107.651 81.251 111.167 82.0674 115.454 85.1635C115.632 85.1635 115.81 84.8967 115.632 84.7189L115.633 84.7181Z" fill="black"/>
</svg>
