<svg width="154" height="154" viewBox="0 0 154 154" fill="none" xmlns="http://www.w3.org/2000/svg">
<path d="M82.4251 92.8346C82.2246 90.4435 82.1504 88.0434 82.2028 85.6445C82.2028 85.4452 81.9115 85.3916 81.8885 85.6445C81.638 88.049 81.6637 90.4743 81.9652 92.8729C81.9703 92.9339 81.9994 92.9904 82.0461 93.0299C82.0928 93.0694 82.1533 93.0888 82.2143 93.0837C82.2753 93.0786 82.3318 93.0495 82.3713 93.0028C82.4108 92.9561 82.4302 92.8956 82.4251 92.8346ZM78.9527 91.9377C78.9666 91.9688 78.9892 91.9952 79.0178 92.0137C79.0463 92.0323 79.0796 92.0421 79.1137 92.0421C79.1477 92.0421 79.1811 92.0323 79.2096 92.0137C79.2382 91.9952 79.2608 91.9688 79.2747 91.9377C79.1673 89.5232 79.0677 87.1009 78.9604 84.6787C78.9604 84.638 78.9442 84.599 78.9155 84.5703C78.8867 84.5415 78.8477 84.5254 78.8071 84.5254C78.7664 84.5254 78.7274 84.5415 78.6987 84.5703C78.6699 84.599 78.6538 84.638 78.6538 84.6787C78.5516 86.5075 78.572 88.341 78.7151 90.167C78.7201 90.7649 78.8 91.3597 78.9527 91.9377ZM99.0435 92.2443C99.1186 93.4284 98.9863 94.6165 98.6526 95.7551C98.6526 95.9314 99.1661 96.9049 99.4881 94.107C99.6899 92.2173 99.2959 90.3118 98.3613 88.657C98.2616 88.473 98.001 88.657 98.0853 88.818C98.6158 89.8903 98.9408 91.0524 99.0435 92.2443ZM89.7531 36.8319C89.7478 37.4087 89.9429 37.9695 90.305 38.4186C90.765 38.8325 91.4778 37.2228 93.6164 36.9698V34.9002C92.1243 35.0094 90.7358 35.7037 89.7531 36.8319ZM109.905 92.1984C109.905 90.6193 109.767 89.0479 109.737 87.4689C109.737 87.2542 109.407 87.3002 109.407 87.5149C109.407 89.1476 109.407 90.7956 109.476 92.436C109.507 93.5168 109.928 93.1182 109.905 92.1984ZM95.0499 34.8619L95.0959 36.9315C97.7404 37.0235 98.5069 39.0165 98.7905 38.3956C98.9132 38.112 99.4114 36.6939 99.1431 36.4486C98.0178 35.4383 96.5621 34.874 95.0499 34.8619ZM40.036 22.4211C39.6374 22.6357 40.036 23.5785 40.3502 23.3716C40.6645 23.1646 40.4729 22.1681 40.036 22.4211ZM39.5301 20.1138C38.9935 20.1675 38.9782 20.7194 39.5301 20.7884C39.9299 20.8194 40.3176 20.9399 40.6645 21.141C40.8715 21.2789 41.0938 21.003 40.9711 20.8114C40.8132 20.5789 40.5969 20.3921 40.344 20.2697C40.091 20.1472 39.8103 20.0935 39.5301 20.1138ZM38.158 22.812C38.3631 23.3501 38.5246 23.9037 38.6409 24.4677C38.7712 25.1269 38.7635 25.3032 38.7329 25.3416C38.6091 25.3456 38.4859 25.3609 38.3649 25.3875C38.1426 25.4642 38.1426 25.7478 38.4876 25.9088C38.5811 25.9561 38.6868 25.974 38.7907 25.9604C38.8946 25.9467 38.992 25.902 39.0701 25.8321C39.4687 25.4489 39.3001 24.3681 38.5796 22.6204C38.5541 22.5645 38.5076 22.5209 38.4501 22.4994C38.3926 22.4778 38.3288 22.48 38.2729 22.5054C38.217 22.5308 38.1735 22.5774 38.1519 22.6349C38.1304 22.6924 38.1325 22.7561 38.158 22.812Z" fill="black"/>
<path d="M149.259 115.148H138.382C139.386 109.782 133.422 106.003 129.712 107.981C129.331 106.122 128.285 104.466 126.769 103.324C125.253 102.182 123.372 101.633 121.48 101.78C121.278 100.463 120.78 99.2086 120.023 98.1119C119.266 97.0152 118.27 96.1045 117.111 95.4484C116.75 91.1558 116.911 86.7866 116.919 82.5477C117.57 82.5937 119.134 82.7393 118.881 82.1184C118.115 80.2174 116.804 77.044 115.815 75.2196C116.214 75.2196 116.666 75.2196 116.666 74.8134C116.789 67.4547 117.026 52.0167 117.026 52.0167C117.149 42.8797 117.455 32.3782 111.04 24.8586C110.84 24.6209 110.564 24.5366 110.388 24.7819C107.778 28.4771 106.062 32.7281 105.375 37.1997C105.114 32.8305 104.769 27.894 104.095 23.0112C102.945 14.725 100.17 9.16001 95.663 5.85627C95.2337 5.54199 94.6052 5.03608 94.3215 5.23538C87.2848 10.2178 85.2152 18.9103 84.7246 25.3261C84.5483 28.055 84.4946 30.8222 84.5636 33.5664C83.6208 30.048 80.386 23.1799 79.1979 24.8356C73.6636 32.7615 74.1311 43.0023 74.5987 52.0397C75.3652 69.256 75.5952 73.6942 75.6949 74.8517C75.6949 75.2273 75.6949 75.4802 76.7527 75.3653C74.5221 81.2752 74.0621 82.264 74.2614 82.4327C74.4607 82.6013 75.2503 82.5477 75.6335 82.5247C75.5799 85.1079 76.1931 97.6636 76.1088 98.3305C75.5523 99.0082 75.1048 99.7685 74.7827 100.584C73.476 100.94 72.2633 101.578 71.2302 102.453C70.1971 103.329 69.3688 104.42 68.8037 105.651C67.784 105.551 66.756 105.72 65.8219 106.141C64.9021 95.9389 63.0164 80.5163 60.7092 70.2448C64.6568 70.7584 66.5425 68.9877 67.4547 67.4547C69.7542 63.4457 68.2212 56.7846 65.3697 53.0975C62.9561 47.9629 59.4165 43.4382 55.0139 39.8596C55.4814 38.9704 54.2473 34.9308 51.1122 33.2674C49.7708 32.5545 47.9848 32.5009 47.1646 31.7343C45.4092 30.0173 46.5897 25.4488 42.9333 24.253C42.6968 22.3637 42.3046 20.4973 41.7606 18.6727C46.3597 16.695 46.1221 11.3446 43.4086 9.8269C40.879 8.41648 39.484 10.4171 37.8206 10.9767C35.521 11.7432 33.5663 10.0875 30.5462 10.0875C24.8509 10.0875 23.5018 15.8212 23.2028 16.1048C22.9039 16.3884 22.7889 18.0058 20.2517 19.0023C17.5535 20.0524 14.1195 20.1137 12.6554 23.2872C11.4136 26.062 13.7975 29.4501 12.1571 32.018C11.199 33.551 7.75725 33.643 5.25836 37.652C2.58317 41.9215 3.48001 47.7165 7.16702 50.1234C3.99359 57.2521 4.13923 64.8331 7.54262 69.9382C10.6547 74.5911 15.7292 76.3388 21.2405 76.1931C20.9646 89.1781 21.0796 102.125 20.3897 115.194C17.8985 115.194 15.3996 115.248 12.9543 115.294C12.8852 115.294 12.8189 115.321 12.77 115.37C12.7212 115.419 12.6937 115.485 12.6937 115.554C12.6937 115.624 12.7212 115.69 12.77 115.739C12.8189 115.788 12.8852 115.815 12.9543 115.815C15.1389 115.861 17.7222 115.907 20.3437 115.907C19.9221 123.519 19.3549 131.238 18.6573 138.803C18.5883 139.57 20.382 139.524 21.1409 139.57C20.9313 140.635 20.8515 141.721 20.9033 142.805C20.3207 143.318 19.4698 146.829 19.5158 147.48C19.5158 147.618 19.5772 147.703 19.6691 147.718C20.5123 147.856 33.2521 148.485 33.8423 147.787C33.857 147.76 33.8648 147.73 33.8648 147.699C33.8648 147.668 33.857 147.638 33.8423 147.611C32.9914 145.311 30.0096 143.372 27.5721 142.743L28.2313 139.807C28.7372 139.807 29.7643 139.884 29.91 139.616C33.3364 131.889 36.4562 123.91 39.1773 115.915H50.3227C52.446 122.73 54.3202 129.621 55.9414 136.573C56.5929 139.378 56.1407 139.225 57.9497 139.309C57.9412 140.402 58.0726 141.492 58.3406 142.552C57.7527 143.935 57.3979 145.406 57.2905 146.906C57.2757 146.931 57.2679 146.96 57.2679 146.99C57.2679 147.019 57.2757 147.049 57.2905 147.074C57.7734 147.687 71.5326 148.201 72.4754 147.641C73.242 147.151 69.0414 143.081 65.316 142.329C65.3698 141.35 65.3467 140.369 65.247 139.394C65.8986 139.394 67.401 139.57 67.401 138.926C67.401 131.69 67.1557 123.94 66.6345 115.93H149.282C149.385 115.927 149.484 115.883 149.555 115.807C149.626 115.732 149.664 115.631 149.661 115.528C149.658 115.424 149.614 115.326 149.539 115.255C149.463 115.183 149.362 115.145 149.259 115.148ZM45.4322 101.473C47.3409 106.724 48.3604 109.989 50.0851 115.217H39.4073C41.27 109.706 43.8455 101.42 45.5395 94.4519C46.1144 92.1523 47.2719 93.1258 46.8503 94.9961C46.3597 97.3034 45.4092 101.42 45.4322 101.473ZM64.7718 142.406C63.461 143.004 60.1726 142.966 58.8925 142.598C58.8082 141.502 58.5859 140.405 58.5706 139.309L64.5955 139.378C64.6491 140.39 64.7105 141.394 64.7718 142.406ZM21.8461 76.1855C28.2849 75.8635 35.9426 72.92 42.3508 68.2979C42.4888 68.1982 42.6114 68.1752 42.6497 68.0449C42.6881 67.9146 42.6497 67.8073 42.4198 67.4777C44.2199 66.6349 46.11 65.9997 48.0538 65.5843C48.8203 65.4464 51.0662 65.0171 51.4725 63.7983L53.1435 63.7523C54.7532 67.0867 57.3135 69.4017 60.1803 70.1222L61.7133 79.2363C49.0503 83.5978 37.491 84.5253 21.8921 82.402C21.9457 80.34 21.9534 78.2474 21.8691 76.1855H21.8461ZM41.9369 29.4654C40.8637 32.2479 38.6254 32.3629 38.9857 33.0221V33.2597C39.1314 34.4785 39.415 36.9851 37.4526 38.7558C34.1412 37.4373 32.0869 35.9196 30.5539 33.712C30.8758 33.1524 30.5539 30.7072 30.5539 30.6842C30.0786 28.1853 27.9017 27.6794 28.3923 25.4181C28.4612 25.0885 28.5609 24.8969 28.6912 24.8356C29.1205 24.6439 30.2243 26.1233 30.4542 24.4063C30.8145 21.9534 31.5044 20.0601 33.9343 19.3702C36.1879 18.734 38.3648 19.8225 41.2776 18.8183C41.9369 21.5471 43.0713 26.4836 41.9369 29.4654ZM37.5676 39.4303C38.8937 39.1007 40.0282 35.8429 39.7522 34.0186C41.821 34.3108 43.8584 34.7932 45.8385 35.4597C53.0439 38.0276 59.2988 43.5159 63.5224 50.9666C60.6402 48.2071 56.8689 46.651 53.4578 46.8657C52.3703 45.0834 51.1206 43.4052 49.7248 41.8525C49.704 41.8295 49.6785 41.8111 49.6501 41.7985C49.6218 41.7859 49.591 41.7794 49.56 41.7794C49.5289 41.7794 49.4982 41.7859 49.4698 41.7985C49.4415 41.8111 49.416 41.8295 49.3952 41.8525C49.3732 41.874 49.3557 41.8996 49.3437 41.9279C49.3318 41.9562 49.3256 41.9866 49.3256 42.0173C49.3256 42.0481 49.3318 42.0785 49.3437 42.1068C49.3557 42.1351 49.3732 42.1607 49.3952 42.1822C50.6199 43.7051 51.7488 45.3025 52.7756 46.9653C51.7597 47.1186 50.7803 47.4563 49.8858 47.9618C49.7409 47.976 49.5974 48.0016 49.4565 48.0384C49.0356 48.1336 48.6074 48.1926 48.1764 48.2148C46.3827 48.2148 46.3137 47.4482 45.6699 47.5325C44.3898 47.6628 44.7654 50.1924 47.7088 50.729C47.1799 52.2084 46.9423 55.4661 47.9311 56.8612C46.7507 56.8612 45.9918 56.6159 45.9458 57.8194C45.9304 58.0363 45.9304 58.254 45.9458 58.4709C45.5658 58.2264 45.1356 58.0704 44.6871 58.0147C44.2386 57.959 43.7833 58.0049 43.3549 58.149C42.5501 58.4556 41.017 60.0577 40.2428 60.7245C40.2428 60.4026 40.2428 59.912 39.9592 59.8814C35.0917 59.4751 27.6947 59.3601 23.2642 59.4827C23.0213 56.3555 23.0623 53.2126 23.3868 50.0928C23.4 50.0287 23.3873 49.962 23.3513 49.9074C23.3154 49.8528 23.2592 49.8147 23.1952 49.8015C23.1311 49.7883 23.0645 49.801 23.0098 49.837C22.9552 49.8729 22.9171 49.9291 22.9039 49.9931C22.6586 51.3729 22.1834 56.9992 22.6816 59.5057L16.4037 59.9197C16.3574 59.9241 16.3134 59.9424 16.2777 59.9723C16.242 60.0022 16.2162 60.0422 16.2038 60.0871C16.1913 60.1319 16.1928 60.1795 16.2079 60.2235C16.2231 60.2676 16.2513 60.3059 16.2887 60.3336C16.3103 60.3529 16.3361 60.3671 16.3639 60.3751C16.3918 60.3831 16.4211 60.3846 16.4497 60.3796C24.1888 59.9056 31.9511 59.9568 39.6833 60.5329C39.7189 63.1229 40.4985 65.648 41.9292 67.8073C31.7037 75.1736 14.8783 79.9874 8.01021 69.5473C3.06609 62.089 5.51898 49.0579 14.6867 41.1013C19.0656 37.3469 24.3934 34.87 30.0863 33.9419C31.4737 36.5865 36.5635 39.6603 37.56 39.415L37.5676 39.4303ZM48.9276 48.7207C48.537 49.1331 48.2091 49.6005 47.9541 50.1081C46.5207 49.8935 45.7082 49.1423 45.5702 48.5214C45.4629 48.0921 45.7159 47.9158 46.2448 48.2761C47.0768 48.682 48.0091 48.8365 48.9276 48.7207ZM52.653 52.9442C52.6141 52.9889 52.5911 53.0452 52.5875 53.1043C52.584 53.1634 52.6001 53.222 52.6333 53.271C52.6666 53.32 52.7151 53.3566 52.7713 53.3752C52.8276 53.3937 52.8884 53.3931 52.9442 53.3735C53.5651 53.1282 53.8564 53.1819 53.9024 53.2968C53.9484 53.4118 53.7031 53.9791 53.2049 54.2243C52.8829 54.3853 52.262 54.531 51.7868 53.6648C51.3958 52.9596 52.0627 52.1854 51.7868 52.0244C51.5108 51.8634 50.729 53.0516 51.3958 54.094C51.2581 54.195 51.0933 54.2526 50.9226 54.2594C50.7519 54.2663 50.5831 54.222 50.4377 54.1324C50.1004 53.8717 49.8704 53.1435 50.2614 51.8328C50.407 51.3269 49.5485 51.1966 49.4412 53.3658C49.3952 53.6648 49.0656 55.5045 48.9659 56.1253C48.8663 56.7462 48.7283 56.7922 48.713 56.7999C48.6977 56.8076 48.6287 56.7999 48.5673 56.7156C48.0231 56.1023 47.3716 52.9826 48.414 50.5833C48.7381 49.7742 49.2918 49.0775 50.0068 48.579C50.7218 48.0805 51.567 47.8021 52.4383 47.7778C52.9507 47.768 53.4579 47.8822 53.9168 48.1105C54.3756 48.3389 54.7724 48.6748 55.0735 49.0895C55.3746 49.5043 55.571 49.9856 55.646 50.4926C55.7211 50.9996 55.6725 51.5172 55.5044 52.0014C55.4219 52.2591 55.2816 52.4945 55.0943 52.6898C54.907 52.885 54.6776 53.035 54.4236 53.1282C54.3361 52.9786 54.2146 52.8516 54.0688 52.7577C53.9231 52.6638 53.7573 52.6055 53.5849 52.5876C53.4125 52.5697 53.2382 52.5926 53.0763 52.6546C52.9144 52.7166 52.7694 52.8158 52.653 52.9442ZM47.0113 59.4368C46.9174 59.1725 46.7362 58.9481 46.4977 58.8005L46.5897 57.5588H50.223C50.223 57.9727 50.338 59.1915 50.338 59.1915C49.2248 59.1963 48.1132 59.2783 47.0113 59.4368ZM49.3875 56.8689C49.5899 56.0313 49.7359 55.1811 49.8245 54.324C50.0736 54.5954 50.4121 54.768 50.7781 54.8102C51.1441 54.8525 51.513 54.7615 51.8174 54.554L51.9401 54.6383C51.6122 56.1347 51.5705 57.6796 51.8174 59.1915H51.0509C51.0718 58.466 50.9918 57.741 50.8133 57.0375C50.591 56.8382 49.7248 56.8689 49.3875 56.8689ZM43.4852 58.7239C43.999 58.5955 44.5376 58.6051 45.0464 58.7519C45.5552 58.8986 46.0162 59.1772 46.3827 59.5594C46.5207 59.7894 46.4977 59.866 46.49 59.889C46.4824 59.912 46.0301 59.9733 45.7235 59.958C45.2705 59.8849 44.806 59.949 44.3898 60.142C43.7578 60.649 43.3437 61.3785 43.2323 62.1809C43.1173 64.1356 48.7666 63.8903 50.6983 63.829C49.2725 65.2854 45.026 64.9558 42.1515 66.9641C41.147 65.2314 40.5079 63.3115 40.2735 61.3224C40.7794 61.0925 42.6727 59.0765 43.4852 58.7239ZM67.4547 66.0136C65.7989 70.8504 60.6095 69.6086 60.3949 69.555C56.7769 68.6428 54.6842 65.2701 53.8947 63.7063C54.7532 63.507 54.5079 62.6639 54.4236 61.8513L61.1078 61.698C61.6444 62.7175 62.9168 62.3802 62.8555 61.3608C62.8633 61.1389 62.7933 60.9213 62.6576 60.7457C62.5218 60.5701 62.3288 60.4475 62.1122 60.3993C61.8955 60.351 61.6688 60.3801 61.4713 60.4815C61.2739 60.583 61.1181 60.7503 61.0311 60.9545C60.073 60.8702 55.3588 61.0005 54.37 61.1078C54.255 59.0535 54.37 59.1991 52.4766 59.2068C52.3003 57.766 52.3003 56.3091 52.4766 54.8682C52.8782 54.9431 53.2934 54.8744 53.6493 54.674C54.0053 54.4735 54.2794 54.1543 54.4236 53.7721C55.6961 53.6111 56.9762 51.4035 55.8494 49.0426C55.6385 48.6463 55.3477 48.2979 54.9954 48.0196C54.6432 47.7412 54.2371 47.5388 53.8027 47.4252C59.6514 47.2719 64.9481 51.9861 67.0637 57.5971C67.171 57.5971 67.24 57.5204 67.0637 57.5971C68.1528 60.2753 68.2907 63.2459 67.4547 66.0136ZM27.5951 139.792C27.3513 140.758 27.1721 141.739 27.0585 142.728C25.194 142.921 23.3157 142.941 21.4475 142.789C21.5701 141.724 21.6851 140.666 21.8001 139.601L27.5951 139.792ZM129.774 108.433C131.445 107.061 138.834 108.809 137.73 115.171H66.5885L65.9216 106.678C69.8079 105.329 72.6594 107.383 73.6636 109.882C73.8399 110.35 74.8287 109.951 73.2879 108.027C72.3089 106.817 70.9263 106.001 69.394 105.728C73.104 98.5835 83.6055 99.7256 85.6444 107.406C85.7517 107.813 86.3573 107.613 86.25 107.207C85.6349 104.942 84.1887 102.992 82.1996 101.746C80.2106 100.5 77.825 100.05 75.5186 100.484C76.1684 99.1779 77.1302 98.0515 78.3188 97.2048C79.5075 96.3582 80.8863 95.8174 82.3336 95.6303C83.7809 95.4431 85.2519 95.6153 86.6168 96.1317C87.9817 96.6482 89.1984 97.4928 90.1593 98.5911C90.8645 99.3577 93.2254 103.85 93.9919 104.378C93.3618 105.459 92.9673 106.661 92.8345 107.904C91.8868 108.252 91.0252 108.799 90.3082 109.509C89.5913 110.22 89.0359 111.076 88.6799 112.021C88.6545 112.079 88.6531 112.144 88.6761 112.203C88.6991 112.262 88.7446 112.31 88.8025 112.335C88.8605 112.36 88.9261 112.362 88.9851 112.339C89.044 112.316 89.0914 112.27 89.1168 112.212C89.5805 111.138 90.3163 110.203 91.2516 109.5C92.1869 108.797 93.2893 108.35 94.4501 108.203C95.611 108.056 96.7901 108.214 97.8711 108.662C98.9522 109.109 99.8978 109.831 100.615 110.756C100.666 110.827 100.743 110.875 100.829 110.89C100.915 110.904 101.004 110.883 101.075 110.833C101.146 110.782 101.194 110.705 101.208 110.619C101.223 110.532 101.202 110.444 101.151 110.373C100.268 109.203 99.055 108.326 97.6681 107.853C96.2812 107.38 94.7844 107.334 93.371 107.721C93.5963 106.5 94.0663 105.338 94.7526 104.304C95.439 103.269 96.3275 102.385 97.3647 101.703C98.6188 100.899 100.057 100.427 101.543 100.331C103.03 100.235 104.516 100.518 105.864 101.154C107.211 101.79 108.374 102.758 109.245 103.967C110.115 105.176 110.664 106.586 110.84 108.065C110.857 108.142 110.901 108.21 110.964 108.256C111.026 108.303 111.104 108.325 111.182 108.318C111.26 108.311 111.333 108.277 111.387 108.22C111.441 108.164 111.473 108.09 111.477 108.012C111.273 106.325 110.621 104.723 109.586 103.374C108.552 102.026 107.174 100.98 105.597 100.347C106.109 98.9969 106.958 97.8011 108.064 96.8737C109.17 95.9463 110.495 95.3183 111.913 95.0498C116.39 94.3599 120.23 97.8016 120.798 101.857C119.625 102.051 118.511 102.508 117.541 103.195C116.57 103.881 115.768 104.778 115.194 105.82C115.056 106.08 115.478 106.31 115.623 106.057C116.46 104.643 117.739 103.542 119.262 102.924C120.785 102.307 122.469 102.206 124.055 102.638C125.581 103.124 126.909 104.091 127.84 105.394C128.771 106.697 129.256 108.266 129.222 109.867C129.222 110.074 129.498 110.334 129.705 110.189C129.789 110.135 130.034 109.959 129.781 108.433H129.774ZM85.4298 25.7401C90.6882 24.8202 96.1612 24.6593 103.712 25.2188C104.923 35.636 105.099 45.4476 105.291 55.926C103.819 52.676 102.324 47.9311 102.347 44.658C102.34 40.8505 101.414 37.1009 99.6489 33.7273C97.5486 29.7184 94.7048 26.8822 91.608 30.2089C87.3155 34.8081 87.6221 40.3578 87.7064 46.5131C87.422 49.2503 86.8332 51.9472 85.951 54.554C85.6827 41.7759 84.9392 32.3629 85.4298 25.7401ZM116.152 74.5987C115.589 74.5105 115.014 74.5105 114.451 74.5987L114.527 68.5585C114.55 68.4216 114.541 68.2815 114.501 68.1486C114.461 68.0158 114.391 67.8938 114.297 67.7919C112.542 66.3202 107.629 61.583 106.003 57.3595C106.003 52.9136 105.934 48.4064 105.758 43.9605C109.645 43.8455 113.278 43.8915 116.336 43.9605C116.643 51.4342 116.068 64.4959 116.152 74.5987ZM85.5371 95.1034C83.9853 94.7585 82.3714 94.8109 80.8452 95.2557C79.319 95.7006 77.9298 96.5235 76.8063 97.6483C76.7527 96.0003 76.4154 85.7594 76.3004 82.54L85.0082 82.3714C84.9852 83.9274 85.3915 93.601 85.5371 95.1034ZM102.508 49.9471C103.911 55.7498 106.425 61.951 113.86 68.2595C113.86 70.3292 113.623 75.5646 113.761 77.5575C113.607 77.5575 102.324 77.6342 101.496 77.7032C102.354 68.4775 102.692 59.2108 102.508 49.9471ZM87.875 50.0621C88.3886 59.4521 89.3314 68.7961 90.6882 77.8718C88.8102 77.8258 80.0028 77.5575 78.7226 77.6189C78.7226 76.3618 78.4084 69.1257 78.3777 68.4205C83.2599 63.3537 86.5601 56.9743 87.875 50.0621ZM85.5754 82.356C86.1273 82.356 87.3461 82.4863 87.2771 81.9421C86.9326 80.7436 86.4624 79.5848 85.8744 78.485L90.7648 78.554C90.8798 79.2592 90.9871 79.9644 91.0945 80.6697C90.3739 81.4362 88.9175 85.8821 88.7182 86.6869C88.7029 86.7404 88.7005 86.7968 88.7111 86.8514C88.7218 86.906 88.7452 86.9574 88.7795 87.0012C88.9635 87.2312 89.4464 87.2618 89.96 87.2618C87.7294 90.7955 88.9405 95.1647 89.7914 97.3187C88.7305 96.3887 87.488 95.6891 86.1427 95.2644C86.319 93.8616 85.6751 83.6438 85.5831 82.356H85.5754ZM89.5001 90.6652C89.6624 89.482 90.0473 88.3402 90.6345 87.3001C94.1705 87.4419 97.7113 87.4035 101.243 87.1852C101.665 88.8485 105.505 93.2101 100.737 99.7639C99.4435 99.9393 98.2009 100.385 97.0903 101.071C95.9797 101.758 95.026 102.671 94.2909 103.75C91.5774 99.649 88.8102 95.6017 89.5077 90.6652H89.5001ZM101.834 58.3023C101.719 66.0289 101.243 72.7974 100.676 80.2021L91.654 80.4397C89.9523 68.6581 89.2241 60.2263 88.5879 50.545C88.4116 47.8008 88.2353 44.957 88.2966 42.1745C88.3963 37.399 89.3698 33.9956 91.3627 31.4431C94.1836 27.848 96.4678 29.4501 98.7061 33.4284C99.9915 35.7248 100.875 38.2238 101.32 40.8177C102.01 44.727 101.872 56.0717 101.841 58.3023H101.834ZM105.053 100.147C103.95 99.79 102.792 99.6342 101.634 99.6873C102.924 97.8651 103.642 95.7004 103.698 93.4687C103.754 91.237 103.145 89.0391 101.949 87.1545C102.447 87.1545 103.773 87.1545 103.62 86.6869C103.359 85.8131 102.623 83.9964 102.033 82.5323C101.65 81.5665 101.266 80.731 101.266 80.5087C101.312 80.1024 101.496 78.2934 101.496 78.2934C102.209 78.4084 105.62 78.2934 106.778 78.2934C105.804 81.3595 105.934 80.9763 105.728 81.5052C105.574 81.9114 105.498 82.1107 105.597 82.2717C105.697 82.4327 106.103 82.425 107.13 82.448C107.13 86.8709 107.506 91.9837 107.698 96.3912C106.456 97.3445 105.535 98.6553 105.061 100.147H105.053ZM107.621 82.4403L116.352 82.5247C116.074 86.6982 116.089 90.8861 116.398 95.0574C115.082 94.4803 113.639 94.254 112.21 94.4004C110.78 94.5468 109.413 95.0611 108.242 95.893C108.081 91.4088 107.958 86.8019 107.629 82.4403H107.621ZM85.4681 25.1652C85.997 18.9639 88.036 10.6624 94.6665 5.89459C101.044 10.2715 102.784 17.7452 103.627 24.5136C98.1925 24.115 90.5426 24.1687 85.4758 25.1652H85.4681ZM75.12 44.9647C76.906 44.9647 83.5518 44.8727 85.0849 44.865C85.2228 48.5444 85.3634 52.2288 85.5064 55.9184C84.0884 59.5977 80.9073 65.2547 77.9255 68.0296C77.7722 68.7961 77.9715 73.7326 78.0098 74.6217C77.4502 74.6754 76.8906 74.729 76.3694 74.8057C76.0628 64.4882 75.12 51.1582 75.12 44.9647Z" fill="black"/>
<path d="M38.0123 27.6334C35.935 27.4724 35.4061 25.9624 34.9462 26.1003C34.8236 26.1003 34.7699 26.2613 34.7393 26.3456C34.0877 27.7637 34.9156 29.5267 36.3643 29.5267C36.8099 29.479 37.2343 29.3112 37.592 29.0412C37.9497 28.7712 38.2275 28.4091 38.3956 27.9937C38.4209 27.9408 38.4288 27.8813 38.418 27.8237C38.4073 27.7661 38.3785 27.7135 38.3358 27.6733C38.2931 27.6332 38.2387 27.6077 38.1806 27.6005C38.1224 27.5934 38.0635 27.6049 38.0123 27.6334ZM37.6444 28.1623C36.6096 29.5421 34.9692 28.9288 35.1302 27.0355C35.4482 27.3875 35.8359 27.6694 36.2688 27.8634C36.7016 28.0574 37.1701 28.1592 37.6444 28.1623ZM95.8164 61.1461C95.8041 61.0644 95.763 60.9899 95.7004 60.936C95.6378 60.8821 95.5579 60.8525 95.4753 60.8525C95.3927 60.8525 95.3129 60.8821 95.2503 60.936C95.1877 60.9899 95.1465 61.0644 95.1342 61.1461C95.1342 62.3036 95.5175 76.5841 95.7321 78.1324C95.7321 78.2056 95.7612 78.2758 95.8129 78.3276C95.8647 78.3793 95.9349 78.4084 96.0081 78.4084C96.0812 78.4084 96.1514 78.3793 96.2032 78.3276C96.2549 78.2758 96.284 78.2056 96.284 78.1324C96.6289 73.2573 95.9774 66.1976 95.8164 61.1461ZM35.2605 24.023C35.5058 24.023 35.5824 23.7624 35.5288 23.4941C35.4215 22.9576 34.9922 22.9269 34.8849 23.2335C34.7776 23.5401 34.9309 24.023 35.2605 24.023ZM34.448 20.7806C34.1029 20.8492 33.7918 21.0344 33.5671 21.3052C33.3424 21.576 33.2177 21.9158 33.2139 22.2677C33.2752 22.6663 33.6048 22.6663 33.6585 22.375C33.8194 21.5548 34.1644 21.6085 34.5936 21.3479C34.6555 21.3177 34.705 21.267 34.7339 21.2046C34.7627 21.1421 34.7691 21.0715 34.752 21.0049C34.7349 20.9382 34.6953 20.8795 34.6399 20.8386C34.5845 20.7978 34.5167 20.7773 34.448 20.7806ZM112.741 92.8345C112.741 92.9801 113.025 92.9342 113.056 92.7885C113.178 92.2673 112.611 86.3267 112.703 84.7169C112.703 84.51 112.396 84.5176 112.381 84.7169C112.24 87.4281 112.36 90.1466 112.741 92.8345ZM95.1112 99.0664C95.2645 99.1814 95.5021 98.9974 95.4025 98.8288C95.1112 98.3152 94.6973 97.9166 94.2604 97.1271C93.5897 95.8759 93.2029 94.4924 93.1274 93.0749C93.0519 91.6573 93.2895 90.2405 93.8234 88.9252C93.9078 88.7336 93.6011 88.6186 93.5092 88.8179C92.8576 90.3135 92.5926 91.9489 92.7386 93.5737C92.8846 95.1985 93.4369 96.7605 94.3447 98.1159C94.5497 98.4704 94.8082 98.791 95.1112 99.0664Z" fill="black"/>
</svg>
