<svg width="154" height="154" viewBox="0 0 154 154" fill="none" xmlns="http://www.w3.org/2000/svg">
<path fill-rule="evenodd" clip-rule="evenodd" d="M121.736 26.4154C121.007 18.313 120.103 12.5408 119.076 10.5555C118.309 9.09904 116.37 7.89555 113.518 6.96036C107.67 5.02865 97.9803 4.13179 87.4556 3.89416C74.3288 3.64197 61.1989 4.19236 48.1392 5.54224C42.9727 6.13249 39.3852 6.77639 38.4501 7.35897C38.1588 7.53527 33.6745 9.03771 30.7846 17.6921C27.5957 27.3276 30.9302 119.099 31.8424 128.29C32.6856 136.783 38.8333 141.705 39.7072 142.946C41.087 144.893 44.1379 146.342 48.2926 147.369C54.1797 148.818 62.2821 149.439 70.9288 149.477C84.8187 149.539 100.104 148.121 109.793 146.342C114.515 145.476 117.918 144.51 119.221 143.598C119.666 143.212 119.999 142.715 120.187 142.157C120.634 140.972 120.97 139.748 121.191 138.5C122.893 129.815 123.713 111.066 123.821 90.4837C123.951 67.5868 123.169 42.4286 121.736 26.4154ZM120.793 137.082C120.492 138.62 120.04 140.125 119.444 141.574C119.311 142.147 119.031 142.676 118.631 143.107C117.366 143.997 114.323 144.64 109.716 145.499C100.058 147.3 84.811 148.672 70.9518 148.665C62.3358 148.665 54.2563 148.098 48.3845 146.679C41.3476 144.978 40.4354 142.54 40.3588 142.356C32.195 114.339 36.0278 15.6377 36.7943 11.6746C37.5609 7.71158 38.5574 8.00287 38.657 7.94154C39.6229 7.3743 43.0877 6.69207 48.2006 6.13249C61.2433 4.841 74.3524 4.34183 87.4556 4.63771C97.9037 4.91367 107.248 5.72621 113.066 7.65792C115.734 8.54712 117.596 9.5283 118.302 10.9004C119.191 12.6328 120.256 17.2091 120.916 23.8015C122.203 36.7102 123.016 56.9394 123.215 77.1304C123.414 101.545 122.648 125.875 120.793 137.082Z" fill="black"/>
<path fill-rule="evenodd" clip-rule="evenodd" d="M111.341 56.7249C111.663 56.6482 111.978 56.5716 112.269 56.4873C114.668 55.8204 114.683 55.7667 114.653 55.6441C114.65 55.628 114.644 55.6126 114.635 55.5991C114.626 55.5855 114.614 55.574 114.601 55.5653C114.587 55.5566 114.571 55.5509 114.555 55.5486C114.539 55.5463 114.523 55.5475 114.507 55.5521L113.557 55.7054C112.292 55.92 112.024 55.966 111.203 56.1576C109.169 56.5792 107.16 57.114 105.186 57.7597C105.155 57.7671 105.127 57.7864 105.11 57.8137C105.093 57.841 105.087 57.8739 105.094 57.9054C105.117 57.9667 104.918 58.3193 111.341 56.7249ZM86.7581 58.7716C86.9727 59.1932 87.1643 59.5381 87.2793 59.7758L87.0494 59.9444C86.6124 60.2664 86.0375 60.711 86.0375 60.711C86.0175 60.7345 86.0066 60.7644 86.0066 60.7953C86.0066 60.8262 86.0175 60.856 86.0375 60.8796C86.0611 60.8996 86.0909 60.9106 86.1218 60.9106C86.1527 60.9106 86.1826 60.8996 86.2062 60.8796C86.2062 60.8796 86.8731 60.5576 87.356 60.3047L87.8389 60.0441C87.8988 60.0047 87.9421 59.9446 87.9605 59.8753C87.9789 59.806 87.9711 59.7323 87.9386 59.6684C87.305 58.2753 86.5617 56.9347 85.7156 55.6594C85.7091 55.6448 85.6996 55.6317 85.6878 55.621C85.676 55.6103 85.662 55.6022 85.6469 55.5971C85.6317 55.5921 85.6157 55.5902 85.5998 55.5917C85.5839 55.5932 85.5685 55.598 85.5546 55.6057C85.5266 55.6205 85.5054 55.6455 85.4954 55.6754C85.4854 55.7054 85.4874 55.7381 85.5009 55.7667C85.8457 56.7978 86.2659 57.8022 86.7581 58.7716ZM84.4048 66.6134C84.4373 66.6134 84.4685 66.6005 84.4915 66.5775C84.5145 66.5545 84.5274 66.5233 84.5274 66.4907C84.5238 66.4602 84.5096 66.4319 84.4871 66.4108C84.4647 66.3898 84.4355 66.3774 84.4048 66.3758C83.6842 66.3221 83.1323 65.3103 82.8257 64.6587C84.2974 65.0956 86.1755 64.0608 86.2598 64.0378C86.2903 64.0246 86.3143 63.9998 86.3265 63.9689C86.3387 63.938 86.3382 63.9035 86.325 63.873C86.3118 63.8425 86.287 63.8185 86.2561 63.8063C86.2251 63.794 86.1907 63.7946 86.1602 63.8078C85.1177 64.0071 83.1783 64.5744 82.4271 63.7465C82.3803 63.6955 82.3174 63.6622 82.2489 63.6524C82.1804 63.6427 82.1106 63.6569 82.0515 63.6928C81.9916 63.7267 81.9457 63.7808 81.9218 63.8453C81.8979 63.9098 81.8977 63.9808 81.9211 64.0454C81.9748 64.1451 82.9023 66.7667 84.4048 66.6134ZM80.8786 53.1298C80.7343 53.072 80.5857 53.0259 80.434 52.9918C80.11 52.9426 79.7786 52.9889 79.4805 53.1251C79.1824 53.2612 78.9303 53.4813 78.7553 53.7583C78.6934 53.8591 78.6445 53.9673 78.6096 54.0803C78.6016 54.0944 78.5964 54.1099 78.5943 54.126C78.5923 54.1421 78.5934 54.1585 78.5977 54.1741C78.602 54.1898 78.6093 54.2045 78.6192 54.2173C78.6292 54.2301 78.6415 54.2409 78.6556 54.2489C78.6697 54.257 78.6853 54.2622 78.7014 54.2642C78.7175 54.2663 78.7338 54.2651 78.7495 54.2609C78.7651 54.2566 78.7798 54.2493 78.7926 54.2393C78.8055 54.2294 78.8162 54.217 78.8243 54.2029C79.4242 53.7824 80.12 53.5188 80.848 53.4364C80.8886 53.4405 80.9292 53.4282 80.9609 53.4023C80.9925 53.3765 81.0125 53.3391 81.0166 53.2984C81.0207 53.2578 81.0084 53.2171 80.9825 53.1855C80.9567 53.1539 80.9193 53.1338 80.8786 53.1298ZM86.5664 52.5395C86.5892 52.5611 86.6194 52.5731 86.6508 52.5731C86.6821 52.5731 86.7123 52.5611 86.7351 52.5395C88.6668 51.3667 88.7281 52.0336 88.8584 51.773C88.8726 51.7453 88.8757 51.7133 88.8672 51.6834C88.8586 51.6535 88.8391 51.628 88.8124 51.612C88.6958 51.5026 88.5609 51.4144 88.4138 51.3514C88.082 51.2685 87.732 51.2989 87.4195 51.4378C87.107 51.5767 86.8499 51.8161 86.6891 52.1179C86.6308 52.2098 86.582 52.3074 86.5434 52.4092C86.5344 52.4309 86.5318 52.4546 86.5359 52.4777C86.5399 52.5008 86.5505 52.5223 86.5664 52.5395ZM51.0675 26.8294C51.0586 26.2102 50.9273 25.5989 50.6813 25.0306C50.4353 24.4623 50.0794 23.9482 49.6341 23.5179C48.7296 22.6846 47.5447 22.2219 46.3149 22.2219C45.085 22.2219 43.9002 22.6846 42.9957 23.5179C42.548 23.9468 42.19 24.4604 41.9426 25.0289C41.6952 25.5975 41.5633 26.2095 41.5546 26.8294C41.5289 27.4701 41.6329 28.1094 41.8603 28.7089C42.0877 29.3084 42.434 29.8558 42.8782 30.3182C43.3224 30.7806 43.8554 31.1485 44.4453 31.3999C45.0353 31.6512 45.6699 31.7807 46.3111 31.7807C46.9523 31.7807 47.5869 31.6512 48.1768 31.3999C48.7667 31.1485 49.2997 30.7806 49.7439 30.3182C50.1882 29.8558 50.5344 29.3084 50.7618 28.7089C50.9893 28.1094 51.0932 27.4701 51.0675 26.8294ZM48.3769 27.7876C48.3769 28.1096 48.2543 28.2552 47.8403 28.3855C47.8206 28.6028 47.7472 28.8118 47.6268 28.9938C47.5064 29.1757 47.3427 29.3249 47.1504 29.428L47.3804 30.8768C46.6697 31.066 45.9218 31.066 45.2111 30.8768L45.303 29.3437C44.9316 29.0782 44.6614 28.6944 44.5365 28.2552C44.5365 28.2552 43.8696 28.3472 43.9233 27.7646C43.9769 27.1821 44.4598 27.596 44.4598 27.596C44.9594 26.9767 45.3013 26.2454 45.4564 25.465C45.4564 25.465 46.9895 27.3507 47.9323 27.412C47.9323 27.4427 48.3922 27.5423 48.3769 27.803V27.7876ZM48.0473 25.557C47.2807 24.8671 46.7518 24.1695 45.3184 24.9667C43.8849 25.7639 44.0459 25.2274 43.379 26.3772C42.7121 27.527 42.3672 27.4963 42.6125 28.3625C42.6836 28.5698 42.7199 28.7873 42.7198 29.0064C42.3175 28.3513 42.1027 27.5983 42.0989 26.8294C42.0811 25.7054 42.5082 24.6199 43.287 23.8092C43.8778 23.2047 44.6365 22.7913 45.4648 22.6226C46.2931 22.4539 47.1529 22.5376 47.9331 22.8629C48.7134 23.1882 49.378 23.7401 49.8411 24.4472C50.3043 25.1544 50.5446 25.9842 50.5309 26.8294C50.5315 27.0688 50.5084 27.3076 50.4619 27.5423C50.223 27.5298 49.9936 27.4446 49.8045 27.298C49.6154 27.1514 49.4757 26.9504 49.4041 26.7221C48.9518 25.695 48.8445 26.2545 48.0473 25.5723V25.557Z" fill="black"/>
<path fill-rule="evenodd" clip-rule="evenodd" d="M46.6981 28.3624C46.4709 28.4483 46.2201 28.4483 45.9929 28.3624C45.9815 28.3516 45.9664 28.3456 45.9507 28.3456C45.9351 28.3456 45.92 28.3516 45.9086 28.3624C45.7476 28.5157 46.4988 29.0829 46.7978 28.462C46.811 28.4488 46.8184 28.4309 46.8184 28.4122C46.8184 28.3935 46.811 28.3756 46.7978 28.3624C46.7846 28.3491 46.7666 28.3417 46.748 28.3417C46.7293 28.3417 46.7113 28.3491 46.6981 28.3624ZM46.7595 27.5958C46.6806 27.403 46.5632 27.2282 46.4145 27.0822C46.4031 27.0714 46.388 27.0654 46.3723 27.0654C46.3567 27.0654 46.3416 27.0714 46.3302 27.0822C46.3251 27.0872 46.321 27.0932 46.3183 27.0998C46.3155 27.1063 46.3141 27.1134 46.3141 27.1206C46.3141 27.1277 46.3155 27.1348 46.3183 27.1413C46.321 27.1479 46.3251 27.1539 46.3302 27.1589C46.3529 27.4058 46.4315 27.6444 46.5601 27.8564L46.3992 27.9331C46.3829 27.9331 46.3673 27.9396 46.3558 27.9511C46.3443 27.9626 46.3378 27.9782 46.3378 27.9944C46.3378 28.0107 46.3443 28.0263 46.3558 28.0378C46.3673 28.0493 46.3829 28.0557 46.3992 28.0557H46.6138C46.9664 28.0711 46.9281 27.9408 46.7595 27.5958Z" fill="black"/>
<path fill-rule="evenodd" clip-rule="evenodd" d="M118.225 88.0459C118.225 73.8494 117.343 20.0069 117.343 20.0069C117.342 19.9461 117.319 19.8879 117.278 19.8429C117.237 19.7978 117.182 19.769 117.121 19.7616C104.084 18.3055 90.9767 17.5685 77.8585 17.554C64.7397 17.4491 51.6257 18.0941 38.5805 19.4857C38.5538 19.4872 38.5285 19.498 38.5089 19.5162C38.4893 19.5344 38.4767 19.5588 38.4732 19.5853C36.7944 31.5588 36.7101 48.2006 37.2927 65.0647C37.7909 79.4682 38.8258 94.0327 39.784 105.968C41.1024 121.897 42.3979 133.165 42.3979 133.165C42.4055 133.226 42.4328 133.283 42.4757 133.327C42.5185 133.372 42.5747 133.401 42.6355 133.41C52.4742 134.993 62.4203 135.816 72.3853 135.871C87.3222 136.026 102.255 135.296 117.106 133.686C117.175 133.678 117.238 133.645 117.286 133.595C117.333 133.545 117.362 133.479 117.366 133.41C117.458 131.949 117.543 130.372 117.619 128.681C117.784 127.192 117.843 125.693 117.796 124.196C118.133 114.124 118.24 101.261 118.225 88.0459ZM116.845 20.2369C116.845 21.3331 116.976 26.2083 117.106 33.8508C113.514 34.4357 109.864 34.5876 106.236 34.3031C102.627 33.9003 99.0953 32.9786 95.7498 31.5665C93.0818 30.4341 90.5554 28.9934 88.2223 27.2738C84.721 24.7399 81.7191 21.5795 79.3686 17.9526C91.8923 18.0556 104.402 18.8181 116.845 20.2369ZM111.633 37.7909C111.893 38.0741 112.031 38.4489 112.016 38.8334C112.012 39.2081 111.86 39.566 111.594 39.8299C111.333 40.088 110.981 40.2338 110.613 40.2362C110.431 40.2423 110.248 40.2123 110.077 40.1478C109.906 40.0833 109.75 39.9857 109.617 39.8606C109.347 39.6039 109.19 39.2513 109.18 38.8794C109.154 38.4964 109.28 38.1187 109.532 37.8292C109.796 37.5221 110.171 37.332 110.575 37.3003C110.978 37.3181 111.358 37.4944 111.633 37.7909ZM38.7031 19.7156C51.7085 18.3865 64.7785 17.7927 77.8508 17.9372H78.7784C77.4285 20.2196 75.8572 22.3635 74.0871 24.3379L54.632 24.2306C54.5527 24.2306 54.4767 24.2621 54.4206 24.3182C54.3646 24.3742 54.3331 24.4503 54.3331 24.5296V27.2738C54.3331 27.3131 54.3408 27.352 54.3558 27.3882C54.3709 27.4245 54.3929 27.4574 54.4206 27.4852C54.4484 27.513 54.4814 27.535 54.5176 27.55C54.5539 27.565 54.5928 27.5728 54.632 27.5728C54.632 27.5728 69.5874 27.5728 70.8139 27.5268C67.9225 30.0044 64.6373 31.9812 61.0941 33.3756C57.3552 34.8246 53.4144 35.6857 49.4118 35.9282C45.4244 36.2152 41.4165 35.9182 37.515 35.0466C37.7219 29.4355 38.0976 24.2383 38.7031 19.7156ZM74.5393 24.7212H79.0927V27.0209C78.4181 27.0209 75.7888 27.0668 72.2704 27.0209C73.0318 26.3156 73.7881 25.5491 74.5393 24.7212ZM71.3888 27.0209C69.986 27.0209 56.2418 26.9672 54.931 26.9672V24.8362L73.7345 24.7289C72.9679 25.5567 72.186 26.3259 71.3888 27.0362V27.0209ZM56.2035 38.6264C56.332 38.7682 56.4313 38.9339 56.4958 39.1141C56.5602 39.2943 56.5885 39.4855 56.5791 39.6766C56.5604 40.0361 56.4072 40.3754 56.1498 40.6271C55.8883 40.8878 55.5341 41.0343 55.1648 41.0343C54.7955 41.0343 54.4413 40.8878 54.1798 40.6271C53.9131 40.3686 53.7566 40.0171 53.7428 39.6459C53.7296 39.2622 53.8609 38.8874 54.1108 38.5958C54.2493 38.4463 54.4162 38.3259 54.6018 38.2416C54.7874 38.1574 54.9879 38.111 55.1916 38.1052C55.5833 38.1426 55.9456 38.3293 56.2035 38.6264ZM45.2955 39.2473C45.5456 39.5307 45.6778 39.899 45.665 40.2767C45.6522 40.6545 45.4953 41.013 45.2265 41.2787C44.965 41.5394 44.6107 41.6858 44.2415 41.6858C43.8722 41.6858 43.518 41.5394 43.2564 41.2787C42.988 41.0183 42.8313 40.6637 42.8195 40.2898C42.8082 39.9087 42.9394 39.537 43.1874 39.2473C43.3121 39.0866 43.4719 38.9565 43.6546 38.8669C43.8373 38.7774 44.038 38.7309 44.2415 38.7309C44.4449 38.7309 44.6456 38.7774 44.8283 38.8669C45.011 38.9565 45.1708 39.0866 45.2955 39.2473ZM37.6989 65.0571C37.308 54.7086 37.1777 44.4445 37.4996 35.2996C39.631 35.8186 41.8034 36.1521 43.9923 36.2961C43.8311 37.0217 43.8735 37.7778 44.115 38.4808C43.6694 38.4875 43.2415 38.6565 42.9115 38.956C42.7229 39.1246 42.5705 39.3297 42.4638 39.559C42.357 39.7884 42.2981 40.037 42.2906 40.2898C42.2865 40.5501 42.3343 40.8086 42.4311 41.0502C42.5279 41.2919 42.6718 41.5118 42.8544 41.6973C43.037 41.8828 43.2547 42.0301 43.4948 42.1306C43.7349 42.2311 43.9926 42.2829 44.253 42.2829C44.7776 42.2774 45.2788 42.0653 45.6481 41.6926C45.8294 41.5074 45.9722 41.288 46.0682 41.0472C46.1643 40.8064 46.2117 40.549 46.2077 40.2898C46.1969 39.8239 46.0111 39.379 45.6872 39.0438C45.3634 38.7086 44.9252 38.5076 44.4599 38.4808C44.6205 37.7643 44.586 37.0178 44.3603 36.3191C46.0631 36.42 47.7704 36.42 49.4732 36.3191C51.3049 36.2237 53.1283 36.006 54.931 35.6675C54.78 36.3868 54.825 37.1333 55.0613 37.8292C54.6157 37.836 54.1878 38.0049 53.8578 38.3045C53.667 38.4759 53.5134 38.6845 53.4063 38.9176C53.2992 39.1506 53.241 39.4031 53.2353 39.6595C53.2296 39.9159 53.2764 40.1708 53.3729 40.4084C53.4694 40.646 53.6136 40.8613 53.7965 41.0411C53.9782 41.2293 54.1962 41.3787 54.4373 41.4802C54.6785 41.5816 54.9377 41.633 55.1993 41.6313C55.4589 41.6324 55.7161 41.5815 55.9557 41.4817C56.1954 41.382 56.4126 41.2353 56.5948 41.0503C56.7769 40.8653 56.9202 40.6458 57.0162 40.4046C57.1123 40.1634 57.1591 39.9055 57.154 39.6459C57.1472 39.3926 57.0893 39.1432 56.984 38.9128C56.8786 38.6823 56.7279 38.4754 56.5408 38.3045C56.2173 38.014 55.8024 37.8459 55.3679 37.8292C55.5321 37.0915 55.4924 36.323 55.2529 35.6062C57.3225 35.2071 59.3537 34.63 61.324 33.8815C62.0906 33.5902 62.8571 33.2682 63.6237 32.9156C63.6376 33.5397 63.7839 34.1537 64.0529 34.717C64.0701 34.757 64.0906 34.7955 64.1143 34.832C63.6779 34.9138 63.2859 35.1507 63.0104 35.4989C62.8518 35.6962 62.7348 35.9235 62.6663 36.1672C62.5978 36.4109 62.5793 36.666 62.6118 36.917C62.6486 37.1787 62.7382 37.4302 62.8753 37.6562C63.0124 37.8821 63.1941 38.0778 63.4092 38.2313C63.6244 38.3847 63.8685 38.4928 64.1268 38.5489C64.3851 38.605 64.6521 38.6079 64.9115 38.5574C65.1698 38.516 65.4171 38.423 65.6386 38.2839C65.8602 38.1448 66.0514 37.9625 66.201 37.7479C66.3505 37.5333 66.4553 37.2907 66.509 37.0347C66.5627 36.7786 66.5642 36.5144 66.5136 36.2578C66.4649 36.0093 66.3664 35.7733 66.2241 35.5638C66.0819 35.3543 65.8987 35.1758 65.6857 35.039C65.3186 34.8073 64.8817 34.7123 64.4515 34.7707C64.4558 34.7197 64.4558 34.6684 64.4515 34.6174C64.4606 33.9826 64.327 33.3539 64.0606 32.7776C64.0633 32.7573 64.0633 32.7367 64.0606 32.7163C66.8369 31.3599 69.4157 29.6321 71.7261 27.5804C71.7253 28.2616 71.8911 28.9327 72.209 29.5351C71.7745 29.6169 71.3832 29.8506 71.1052 30.1944C70.9481 30.3939 70.8326 30.6228 70.7655 30.8677C70.6983 31.1126 70.6809 31.3684 70.7143 31.6202C70.7497 31.8762 70.8357 32.1225 70.9673 32.345C71.0989 32.5674 71.2735 32.7614 71.4808 32.9156C71.9091 33.2214 72.4409 33.3454 72.9603 33.2606C73.3456 33.2042 73.7046 33.0317 73.9895 32.7661C74.2743 32.5006 74.4715 32.1545 74.5548 31.7741C74.638 31.3936 74.6034 30.9968 74.4555 30.6365C74.3075 30.2763 74.0534 29.9696 73.7268 29.7574C73.3599 29.525 72.9236 29.4274 72.4927 29.4815C72.5252 28.7953 72.391 28.1115 72.1017 27.4885C76.2411 27.4885 79.4759 27.3965 79.4759 27.3965C79.4961 27.3965 79.516 27.3925 79.5346 27.3848C79.5532 27.3771 79.5701 27.3658 79.5843 27.3516C79.5986 27.3373 79.6099 27.3204 79.6176 27.3018C79.6253 27.2832 79.6292 27.2633 79.6292 27.2432V24.4989C79.6292 24.4664 79.6163 24.4352 79.5933 24.4122C79.5703 24.3892 79.5391 24.3763 79.5066 24.3763L74.9609 24.3149C76.5295 22.5265 77.9401 20.6055 79.177 18.5735C81.5109 22.123 84.4568 25.2298 87.8773 27.7491C88.2223 27.9944 88.5672 28.2473 88.9275 28.5156C88.7288 29.1472 88.679 29.8163 88.7818 30.4703V30.6006C88.3401 30.5529 87.896 30.6673 87.5324 30.9226C87.3274 31.0688 87.1538 31.2548 87.0222 31.4695C86.8905 31.6841 86.8033 31.9231 86.7658 32.1721C86.7292 32.4291 86.7442 32.6908 86.8098 32.942C86.8755 33.1932 86.9906 33.4288 87.1483 33.635C87.306 33.8412 87.5032 34.014 87.7284 34.1432C87.9536 34.2724 88.2023 34.3554 88.4599 34.3874C88.7175 34.4205 88.9791 34.402 89.2294 34.3329C89.4797 34.2638 89.7138 34.1455 89.9179 33.9849C90.122 33.8244 90.292 33.6247 90.4181 33.3977C90.5442 33.1707 90.6238 32.9208 90.6522 32.6627C90.6742 32.4111 90.6462 32.1576 90.5699 31.9169C90.4936 31.6762 90.3705 31.4529 90.2076 31.2599C89.9261 30.9272 89.5343 30.7068 89.1038 30.639C89.1038 30.639 89.1038 30.5547 89.1575 30.501C89.3183 29.9464 89.378 29.3674 89.3338 28.7916C91.2911 30.0855 93.3676 31.1893 95.5351 32.0878C96.6007 32.5247 97.7198 32.931 98.8926 33.2836C98.6495 33.9802 98.5965 34.729 98.7393 35.4529C98.2985 35.4029 97.8546 35.5146 97.4899 35.7672C97.2857 35.9144 97.1129 36.1006 96.9813 36.3151C96.8497 36.5296 96.762 36.768 96.7233 37.0167C96.686 37.2734 96.7 37.535 96.7645 37.7863C96.829 38.0377 96.9426 38.2737 97.0989 38.4808C97.2566 38.6893 97.4546 38.864 97.681 38.9946C97.9075 39.1253 98.1578 39.2092 98.4173 39.2413C98.6767 39.2735 98.94 39.2533 99.1915 39.1819C99.443 39.1105 99.6776 38.9894 99.8815 38.8257C100.084 38.6697 100.254 38.4741 100.378 38.2506C100.503 38.0272 100.581 37.7806 100.608 37.526C100.635 37.2714 100.609 37.0141 100.533 36.7697C100.457 36.5253 100.332 36.299 100.165 36.1045C99.8828 35.7741 99.4909 35.5564 99.0613 35.4912C99.3044 34.8192 99.3704 34.0958 99.2529 33.3909C101.522 34.0499 103.847 34.4965 106.198 34.7247C107.516 34.855 108.881 34.924 110.299 34.924C110.157 35.6377 110.21 36.3765 110.452 37.0627C110.008 37.0727 109.583 37.2444 109.256 37.5456C109.07 37.7171 108.92 37.9241 108.814 38.1544C108.709 38.3848 108.651 38.6339 108.643 38.8871C108.642 39.1472 108.692 39.405 108.791 39.6457C108.89 39.8864 109.035 40.1053 109.218 40.2898C109.496 40.5645 109.849 40.7501 110.233 40.8228C110.616 40.8956 111.013 40.8522 111.372 40.6983C111.731 40.5444 112.035 40.2869 112.247 39.9588C112.459 39.6306 112.568 39.2468 112.56 38.8564C112.55 38.6032 112.49 38.3547 112.382 38.1255C112.274 37.8963 112.121 37.6913 111.932 37.5226C111.609 37.2325 111.193 37.0691 110.759 37.0627C110.922 36.3536 110.885 35.6132 110.652 34.924C112.815 34.8981 114.974 34.7239 117.114 34.4027C117.175 38.1588 117.52 63.5316 117.581 72.4926L117.466 72.2856C116.095 69.7623 114.59 67.3136 112.959 64.9498C112.959 64.8731 115.312 55.5595 115.312 55.5595C115.327 55.5174 115.327 55.4713 115.312 55.4292L111.387 45.5637C111.366 45.508 111.326 45.4612 111.275 45.4306C111.223 45.4001 111.163 45.3876 111.104 45.3951L100.587 46.8515C100.523 46.8608 100.464 46.8904 100.418 46.936C100.373 46.9816 100.343 47.0407 100.334 47.1045L100.188 48.101C100.173 48.1484 100.173 48.1992 100.188 48.2466L104.251 58.3344L101.346 67.3261C101.327 67.3657 101.318 67.4088 101.318 67.4525C101.318 67.4962 101.327 67.5394 101.346 67.579L101.944 68.4912C102.15 68.8055 102.442 68.4912 105.539 67.8856C105.67 68.0158 105.83 68.114 106.005 68.1725C106.181 68.231 106.367 68.2482 106.55 68.2229C107.462 68.1287 108.354 67.8961 109.195 67.533C109.716 68.9818 110.245 70.7295 110.629 72.1323C110.399 72.3045 110.213 72.5275 110.084 72.7839C109.971 72.5758 109.812 72.3959 109.62 72.2576C109.427 72.1192 109.206 72.026 108.973 71.9848C108.739 71.9435 108.499 71.9554 108.271 72.0194C108.043 72.0834 107.832 72.198 107.654 72.3546C107.072 72.9142 107.118 73.9874 107.769 75.0299C108.425 75.8995 109.283 76.5966 110.268 77.0612C110.713 76.7804 111.134 76.4624 111.525 76.1107C112.19 81.2096 112.527 86.3457 112.537 91.4877C110.869 89.5026 108.793 87.9 106.451 86.7888C107.171 85.5699 107.44 83.3929 106.175 82.4041C105.858 82.1714 105.492 82.0156 105.105 81.9491C104.718 81.8825 104.32 81.9071 103.944 82.0208C103.286 82.2355 102.736 82.6971 102.411 83.3086C102.033 82.7218 101.437 82.3084 100.755 82.1588C100.37 82.0769 99.9717 82.0863 99.591 82.1861C99.2103 82.2859 98.8582 82.4735 98.563 82.7337C98.4919 82.6712 98.4177 82.6124 98.3407 82.5574C97.886 82.266 97.3433 82.1439 96.8076 82.2125C96.8634 81.9604 96.8967 81.7039 96.9073 81.4459C96.9763 78.4564 95.3742 77.5748 92.7679 75.3825C90.5909 73.5504 90.6446 70.5686 90.7135 69.6487C90.9432 69.335 91.1531 69.0073 91.3421 68.6675C91.8673 67.6898 92.2494 66.6417 92.4766 65.5553C92.814 63.9381 92.93 62.2825 92.8216 60.6341C92.7526 59.4056 92.5808 58.1851 92.308 56.9853C92.134 56.188 91.9112 55.4021 91.6411 54.632C91.3079 53.6764 90.9109 52.7442 90.4529 51.8417C90.0047 50.9256 89.4762 50.0509 88.8738 49.2278C88.8626 49.2099 88.8467 49.1953 88.8277 49.1859C88.8088 49.1764 88.7876 49.1724 88.7665 49.1742C83.623 41.294 73.9261 43.6933 73.9261 43.6933C58.5491 45.3031 58.5951 66.3295 58.0202 69.8787C57.4453 73.4278 53.9268 74.156 51.9951 77.7051C50.8453 79.8285 51.6118 81.4459 52.6543 82.749C46.5603 84.4354 41.7617 90.1922 39.462 95.4354C38.7491 85.9379 38.0899 75.4515 37.6989 65.0571ZM64.2216 35.0466C64.6256 35.009 65.028 35.133 65.3407 35.3916C65.4899 35.5105 65.614 35.6578 65.7061 35.8248C65.7982 35.9919 65.8564 36.1755 65.8773 36.3651C65.9306 36.7333 65.837 37.1078 65.6167 37.4076C65.509 37.5563 65.3729 37.6823 65.2164 37.7783C65.0599 37.8744 64.8859 37.9385 64.7045 37.9672C64.3403 38.0256 63.9677 37.9397 63.6657 37.7279C63.3638 37.5161 63.1562 37.195 63.0871 36.8327C63.0011 36.4574 63.0672 36.0632 63.2711 35.7365C63.4868 35.3924 63.8275 35.1451 64.2216 35.0466ZM72.2934 29.7881C72.6974 29.7505 73.0998 29.8745 73.4125 30.1331C73.5616 30.252 73.6858 30.3992 73.7779 30.5663C73.87 30.7334 73.9282 30.917 73.9491 31.1066C73.9776 31.2889 73.9692 31.4752 73.9244 31.6542C73.8797 31.8333 73.7994 32.0016 73.6885 32.1491C73.5258 32.3729 73.3009 32.5439 73.0417 32.6408C72.7826 32.7378 72.5006 32.7564 72.231 32.6943C71.9614 32.6322 71.716 32.4921 71.5253 32.2916C71.3347 32.0911 71.2073 31.8389 71.1589 31.5665C71.0764 31.1926 71.1453 30.8013 71.3505 30.478C71.5614 30.1326 71.9003 29.8846 72.2934 29.7881ZM89.924 31.4898C90.0329 31.6455 90.1099 31.8211 90.1507 32.0065C90.1915 32.192 90.1952 32.3838 90.1616 32.5707C90.1065 32.9372 89.9108 33.2678 89.616 33.4924C89.3212 33.7171 88.9505 33.8181 88.5825 33.7742C88.217 33.7231 87.8851 33.5338 87.655 33.2452C87.4266 32.9539 87.3171 32.5869 87.3484 32.2181C87.3836 31.8352 87.5615 31.4795 87.8466 31.2216C87.9886 31.0762 88.1623 30.9659 88.3542 30.8993C88.5461 30.8326 88.7508 30.8114 88.9523 30.8375C89.1537 30.8635 89.3463 30.936 89.515 31.0492C89.6836 31.1624 89.8236 31.3132 89.924 31.4898ZM99.8892 36.3344C99.9986 36.4912 100.076 36.6681 100.117 36.8549C100.158 37.0418 100.161 37.2348 100.127 37.4229C100.072 37.7906 99.8734 38.1214 99.5749 38.3428C99.2812 38.5661 98.9115 38.6648 98.5456 38.6175C98.1797 38.5701 97.8473 38.3806 97.6202 38.0898C97.3875 37.8008 97.2774 37.432 97.3135 37.0627C97.343 36.6803 97.522 36.325 97.8118 36.0738C97.9549 35.9437 98.1245 35.8463 98.309 35.7883C98.4934 35.7303 98.6883 35.7131 98.8801 35.7379C99.0719 35.7627 99.256 35.8289 99.4196 35.9319C99.5833 36.0349 99.7225 36.1723 99.8278 36.3344H99.8892ZM109.977 64.1909C109.344 63.6576 108.664 63.1829 107.946 62.7728C106.512 62.0062 105.822 62.8494 106.757 64.0912C107.279 64.7205 107.868 65.2911 108.513 65.793L105.554 67.3261L102.396 68.0083L101.982 67.3797C105.048 57.9205 104.964 58.4111 104.887 58.1811L100.832 48.0473L100.932 47.3498L111.012 45.9086L114.952 55.4752L112.844 64.5435C112.297 63.3625 111.675 62.2179 110.981 61.117C109.525 59.1776 109.348 61.324 109.916 64.1909H109.977ZM112.093 94.2013C112.114 94.1987 112.134 94.1911 112.151 94.1791C112.168 94.1671 112.183 94.151 112.192 94.1323C112.306 93.9091 112.465 93.7128 112.661 93.5567C112.857 93.4007 113.084 93.2885 113.327 93.2278C113.559 93.1675 113.802 93.1624 114.036 93.213C114.27 93.2636 114.489 93.3684 114.676 93.5191C114.815 93.6493 114.926 93.8058 115.004 93.9795C115.081 94.1532 115.124 94.3407 115.128 94.5309C115.258 96.2863 113.725 97.6738 112.284 98.6396C110.751 97.8041 109.111 96.5469 109.095 94.8069C109.081 94.6177 109.106 94.4276 109.168 94.2483C109.229 94.069 109.328 93.9043 109.456 93.7644C109.627 93.5981 109.835 93.4741 110.062 93.4023C110.29 93.3304 110.531 93.3126 110.767 93.3504C111.013 93.3838 111.249 93.4695 111.459 93.6017C111.669 93.7339 111.849 93.9096 111.985 94.117C111.987 94.1334 111.992 94.1493 112 94.1638C112.008 94.1783 112.018 94.1911 112.031 94.2013H112.093ZM102.472 83.6996C102.494 83.6994 102.515 83.6928 102.533 83.6805C102.551 83.6682 102.564 83.6508 102.572 83.6306C102.72 83.3242 102.935 83.0546 103.2 82.8412C103.465 82.6278 103.774 82.4759 104.105 82.3964C104.422 82.3112 104.754 82.3015 105.075 82.3681C105.395 82.4346 105.696 82.5756 105.953 82.7797C106.964 83.6382 106.619 85.3246 106.014 86.5435C105.184 87.8481 104.061 88.9402 102.733 89.7323C96.7923 86.4898 97.8731 82.0668 100.74 82.5344C101.074 82.5933 101.392 82.7229 101.673 82.9146C101.953 83.1062 102.189 83.3556 102.365 83.6459C102.375 83.6677 102.391 83.6863 102.411 83.6996H102.472ZM39.5693 95.9644C40.3192 94.5109 41.183 93.1191 42.1526 91.802C44.8662 88.0152 48.4766 84.5734 52.8843 83.025C53.5435 83.7915 54.2641 84.4661 54.678 85.0564C55.7895 86.6661 55.2146 87.2104 54.0188 88.6515C53.2788 89.6612 52.8187 90.8486 52.685 92.0933C52.3529 92.1654 52.0585 92.3561 51.8571 92.6299C51.6195 92.1429 51.2977 91.7017 50.9066 91.3267C49.998 90.4582 48.7828 89.9842 47.5261 90.0083C46.4736 89.9867 45.4445 90.3204 44.6049 90.9555C43.7653 91.5906 43.1642 92.49 42.8984 93.5087C42.6327 94.5273 42.7179 95.6058 43.1403 96.5701C43.5626 97.5343 44.2976 98.3282 45.2265 98.8236L44.9198 99.0766C43.1672 100.57 41.551 102.217 40.0906 103.998C39.9296 101.422 39.715 98.7393 39.508 95.9644H39.5693ZM50.5923 91.5874C50.9839 91.994 51.2906 92.4746 51.4946 93.001C51.6986 93.5274 51.7958 94.0892 51.7805 94.6536C51.7805 95.7717 51.3363 96.8441 50.5456 97.6347C49.755 98.4254 48.6826 98.8696 47.5644 98.8696C46.4463 98.8696 45.3739 98.4254 44.5833 97.6347C43.7926 96.8441 43.3484 95.7717 43.3484 94.6536C43.3331 94.0892 43.4303 93.5274 43.6343 93.001C43.8383 92.4746 44.145 91.994 44.5366 91.5874C44.9202 91.1669 45.3872 90.8311 45.9079 90.6013C46.4286 90.3715 46.9915 90.2528 47.5606 90.2528C48.1298 90.2528 48.6926 90.3715 49.2133 90.6013C49.734 90.8311 50.2011 91.1669 50.5847 91.5874H50.5923ZM41.9533 123.552C41.4857 118.953 40.2286 104.872 40.1826 104.343C41.9861 102.805 43.6721 101.134 45.2265 99.3449L45.5484 98.9616C46.2753 99.299 47.0758 99.4471 47.8753 99.3921C48.6748 99.3371 49.4474 99.0808 50.1213 98.6471C50.7952 98.2134 51.3485 97.6163 51.7297 96.9114C52.1109 96.2065 52.3077 95.4166 52.3017 94.6152C52.2898 94.0785 52.1888 93.5474 52.0028 93.0438C52.363 92.9365 70.0934 76.7776 70.0934 76.7776C70.0934 76.7776 66.6899 75.9421 65.7087 74.5929C64.7275 73.2438 66.4752 69.9017 67.9164 68.9205C69.0738 68.1539 69.4878 68.6675 69.6181 68.9205C69.7484 69.1734 69.4648 69.3804 69.3345 69.5414C68.8153 69.9846 68.3634 70.5011 67.993 71.0745C67.6499 71.7038 67.5156 72.4259 67.6097 73.1365C67.617 73.1782 67.636 73.2169 67.6645 73.2481C67.6931 73.2793 67.7299 73.3018 67.7707 73.3128C67.8112 73.3241 67.8541 73.3228 67.8938 73.3091C67.9335 73.2954 67.9681 73.27 67.993 73.2362C68.4066 72.7023 68.8915 72.2277 69.4341 71.8257C69.7944 71.5804 70.2007 71.4041 70.469 71.5727C71.2355 72.002 70.423 73.6271 70.3923 73.7421C70.3697 73.8092 70.3738 73.8825 70.4038 73.9468C70.4338 74.011 70.4873 74.0612 70.5533 74.087C70.6188 74.1143 70.6921 74.116 70.7588 74.0919C70.8254 74.0678 70.8807 74.0195 70.9136 73.9567C71.0899 73.5504 71.4731 72.3853 72.0481 72.002C72.0938 71.9657 72.1475 71.9405 72.2047 71.9285C72.2619 71.9165 72.3212 71.9181 72.3777 71.933C72.669 72.0327 72.8069 72.1247 72.8453 72.2933C72.9296 72.7302 72.4313 73.9107 72.7763 74.9532C73.1212 75.9957 74.1407 76.724 74.3784 77.6132C74.4726 77.9788 74.4647 78.3632 74.3554 78.7247C73.8418 80.48 73.0829 88.0689 72.2704 92.0933L55.8815 91.986C55.8035 91.9859 55.7286 92.0164 55.6728 92.0708C55.6169 92.1252 55.5846 92.1993 55.5826 92.2773V95.0522C55.5826 95.0914 55.5903 95.1303 55.6053 95.1666C55.6203 95.2028 55.6424 95.2358 55.6701 95.2636C55.6979 95.2913 55.7308 95.3133 55.7671 95.3284C55.8034 95.3434 55.8423 95.3511 55.8815 95.3511C55.8815 95.3511 70.1777 95.3511 71.4425 95.2975C70.6146 97.6661 69.6641 100.955 69.1428 102.917H56.2418C56.1625 102.917 56.0865 102.948 56.0304 103.005C55.9743 103.061 55.9428 103.137 55.9428 103.216V105.968C55.9428 106.047 55.9743 106.123 56.0304 106.179C56.0865 106.235 56.1625 106.267 56.2418 106.267H67.924C67.7324 106.65 64.6355 113.442 64.4132 113.932H56.1115C56.0322 113.932 55.9562 113.964 55.9001 114.02C55.844 114.076 55.8125 114.152 55.8125 114.231V116.976C55.8125 117.055 55.844 117.131 55.9001 117.187C55.9562 117.243 56.0322 117.274 56.1115 117.274H62.4279C61.1477 118.907 59.8522 120.624 57.7596 123.008L41.9533 123.552ZM69.8251 69.1274C69.986 68.9128 70.538 68.1539 71.0132 67.4717L71.6571 66.5288L73.3819 67.4564C73.2132 67.6787 72.3087 68.9895 72.1171 69.2884C71.9254 69.5874 70.9979 71.0668 70.8752 71.2661C70.8256 71.2268 70.7716 71.1934 70.7143 71.1665C70.5145 71.0806 70.2965 71.0454 70.0799 71.0641C69.8632 71.0828 69.6545 71.1549 69.4724 71.2738C68.906 71.6325 68.4034 72.0833 67.9853 72.6076C67.985 72.1495 68.0927 71.6978 68.2996 71.2891C68.8515 70.1546 69.8634 69.6794 69.8174 69.1198L69.8251 69.1274ZM76.655 62.8571C76.6001 62.8148 76.5327 62.7919 76.4634 62.7919C76.3941 62.7919 76.3267 62.8148 76.2717 62.8571C75.8185 63.2147 75.2967 63.4756 74.7386 63.6236C74.6083 63.6236 74.4397 63.7003 74.4704 63.6236C74.4938 63.3803 74.5559 63.1422 74.6543 62.9184C74.7167 62.7622 74.7504 62.596 74.754 62.4278C74.7605 62.3386 74.7425 62.2493 74.702 62.1696C74.6615 62.0899 74.5999 62.0228 74.524 61.9755C74.3876 61.9153 74.2401 61.8843 74.0909 61.8843C73.9418 61.8843 73.7943 61.9153 73.6578 61.9755C73.4999 62.0487 73.3251 62.0779 73.1519 62.0599C73.1028 62.0525 73.0562 62.0333 73.0161 62.0039C72.9761 61.9745 72.9437 61.9359 72.9219 61.8912C72.9219 61.8452 72.9909 61.7916 73.0292 61.7379C73.2136 61.498 73.4443 61.2977 73.7077 61.1489C73.9711 61.0001 74.2617 60.9058 74.5623 60.8717C75.2726 60.746 76.0039 60.8258 76.6704 61.1017C76.9901 61.208 77.2774 61.394 77.5054 61.6421C77.7334 61.8902 77.8945 62.1923 77.9735 62.5198C78.0741 63.0784 77.9501 63.6542 77.6285 64.1219C77.4517 64.2681 77.2557 64.3893 77.046 64.4822C75.2676 65.31 77.1303 63.202 76.655 62.8571ZM74.2481 62.4125C74.1101 62.9644 73.7575 63.4703 73.9568 63.9456C74.2481 64.5895 75.2216 64.1679 75.8578 63.8842C75.7951 64.0778 75.759 64.2789 75.7505 64.4822C75.7505 65.0724 76.0878 65.3944 76.9003 65.0494C76.4751 65.4479 76.0188 65.8118 75.5359 66.1379C75.0913 66.4445 74.5777 66.7741 74.0028 67.1191L71.7644 65.9233C72.531 63.202 72.3853 63.0027 72.7763 62.1902C72.8192 62.2417 72.8681 62.2881 72.9219 62.3281C73.3819 62.6348 74.4014 62.1978 74.2634 62.3895L74.2481 62.4125ZM56.1805 94.7532V92.5992L78.8397 92.5226V94.8222C78.1345 94.7839 57.4376 94.7456 56.1805 94.7532ZM78.4104 103.385C82.1665 103.385 84.8724 103.507 85.4933 103.5V105.592C84.7268 105.592 58.0125 105.631 56.5637 105.631V103.484C57.5603 103.484 76.1798 103.408 78.4411 103.385H78.4104ZM68.223 114.461L96.202 114.392L96.3017 116.592H56.3874V114.446C57.6292 114.477 62.3972 114.477 68.223 114.461ZM90.4529 131.456C87.9156 131.509 50.0711 133.924 47.5261 129.769C46.5526 128.182 47.5721 126.335 51.8188 125.936C55.3373 125.607 87.8467 125.07 90.3993 125.3C92.9519 125.53 94.8529 125.867 95.2899 128.014C95.7268 130.16 93.0209 131.402 90.4913 131.456H90.4529ZM112.246 128.144C111.602 129.516 109.854 130.934 108.413 131.885C106.88 131.065 105.002 129.8 104.243 128.497C103.162 126.749 103.086 124.971 104.052 124.035C104.349 123.775 104.701 123.584 105.082 123.478C105.463 123.371 105.863 123.352 106.252 123.421C106.642 123.49 107.011 123.646 107.331 123.877C107.652 124.108 107.917 124.409 108.107 124.756C108.264 124.394 108.502 124.072 108.801 123.814C109.1 123.557 109.454 123.37 109.835 123.267C110.217 123.165 110.617 123.15 111.005 123.223C111.393 123.296 111.759 123.456 112.077 123.69C113.143 124.534 113.219 126.32 112.284 128.144H112.246ZM117.244 121.245C116.431 121.184 113.994 121.192 110.452 121.245C110.652 119.88 110.731 118.5 110.69 117.121C111.424 116.516 112.033 115.774 112.484 114.936C113.411 113.112 113.334 111.326 112.292 110.475C111.968 110.23 111.591 110.066 111.19 109.997C110.79 109.927 110.38 109.955 109.992 110.077L109.946 109.801C109.824 109.095 109.693 108.474 109.578 107.938C109.333 106.788 109.141 106.09 109.141 106.09C109.134 106.059 109.115 106.032 109.087 106.015C109.06 105.997 109.027 105.992 108.996 105.999C108.965 106.007 108.939 106.027 108.922 106.054C108.905 106.081 108.899 106.113 108.904 106.144C108.904 106.144 109.456 110.153 109.479 110.299C108.978 110.588 108.575 111.021 108.321 111.541C108.132 111.194 107.868 110.895 107.547 110.664C107.226 110.434 106.858 110.279 106.469 110.21C106.08 110.142 105.681 110.162 105.301 110.269C104.921 110.376 104.57 110.567 104.274 110.828C103.308 111.763 103.385 113.541 104.465 115.289C105.232 116.592 107.087 117.849 108.635 118.677C109.126 118.355 109.647 117.987 110.169 117.581C110.23 118.804 110.23 120.03 110.169 121.253C98.2334 121.483 74.3937 122.318 58.2195 122.916C60.0799 121.32 61.6132 119.378 62.7345 117.198L96.5087 117.044C96.5275 117.045 96.546 117.041 96.5633 117.033C96.5806 117.026 96.5961 117.015 96.6091 117.001C96.622 116.988 96.632 116.972 96.6384 116.954C96.6449 116.936 96.6477 116.918 96.6466 116.899V114.216C96.6429 114.182 96.6267 114.151 96.6012 114.128C96.5757 114.105 96.5428 114.093 96.5087 114.093L64.7045 113.925C66.2309 111.549 67.4105 108.968 68.2076 106.259L85.7923 106.121C85.8317 106.121 85.8695 106.106 85.8981 106.079C85.9266 106.052 85.9436 106.015 85.9456 105.976V103.224C85.9456 103.191 85.9327 103.16 85.9097 103.137C85.8867 103.114 85.8555 103.101 85.823 103.101L74.3247 102.986C75.0913 102.135 78.0042 98.7776 76.0188 97.2905C74.847 96.4476 73.5549 95.7861 72.186 95.3281C76.0648 95.3281 79.085 95.2438 79.085 95.2438C79.1256 95.2438 79.1646 95.2277 79.1934 95.1989C79.2221 95.1702 79.2383 95.1312 79.2383 95.0905V92.3386C79.2383 92.3081 79.2262 92.2788 79.2046 92.2573C79.1831 92.2357 79.1538 92.2236 79.1233 92.2236L72.4773 92.1316C72.9756 90.0773 73.1749 88.9274 73.5582 86.6508C76.4251 89.6633 80.5414 90.4375 83.462 86.8347C83.4836 86.812 83.4956 86.7818 83.4956 86.7504C83.4956 86.7191 83.4836 86.6889 83.462 86.6661C83.4512 86.6545 83.4382 86.6452 83.4237 86.6389C83.4092 86.6326 83.3935 86.6293 83.3777 86.6293C83.3618 86.6293 83.3462 86.6326 83.3317 86.6389C83.3172 86.6452 83.3041 86.6545 83.2934 86.6661C80.2271 89.6097 76.7623 88.9658 73.6195 86.2982C73.7191 85.7233 74.294 82.0668 74.4627 81.0626C74.8766 78.5483 75.1449 78.349 74.9303 77.5135C74.5087 75.8731 73.0369 75.7044 73.2592 73.6808C73.3651 73.1976 73.4115 72.7034 73.3972 72.209C73.3282 71.8717 73.1136 71.5957 72.531 71.4424C72.3297 71.3918 72.1179 71.4012 71.9218 71.4693C71.7257 71.5373 71.5538 71.6612 71.4272 71.8257L71.2892 71.979C71.2546 71.7905 71.1729 71.6138 71.0515 71.4654L72.531 69.6104L73.1442 68.7902C73.6578 68.0926 74.0411 67.533 74.0411 67.533C74.0648 67.5031 74.0818 67.4685 74.0911 67.4315C74.1003 67.3945 74.1016 67.3559 74.0947 67.3184C74.6532 67.0573 75.1982 66.7682 75.7275 66.4522C76.3549 66.088 76.9388 65.6534 77.4676 65.1567C77.8674 64.8406 78.1771 64.4249 78.3655 63.9513C78.5538 63.4777 78.6143 62.9628 78.5407 62.4585C78.4743 62.1099 78.3312 61.7805 78.1217 61.4941C77.9122 61.2078 77.6416 60.9716 77.3296 60.8027C76.4538 60.297 75.4245 60.1254 74.432 60.3198C74.0652 60.3736 73.713 60.5012 73.3968 60.6948C73.0806 60.8885 72.8069 61.1443 72.5923 61.4466C71.9637 62.3588 72.0711 63.1024 71.5038 65.8619C71.4643 65.8685 71.4267 65.8835 71.3936 65.906C71.3606 65.9285 71.3328 65.9579 71.3122 65.9923C71.3122 65.9923 70.9672 66.5518 70.5993 67.1957C70.3923 67.5484 70.1777 67.9623 70.0014 68.2536L69.5261 67.7553C67.5637 67.3874 63.3937 67.395 69.9477 63.0487C77.5136 58.0431 74.731 44.1303 74.731 44.1303C80.1505 49.1282 87.3561 49.3351 88.6515 49.3275C89.1907 50.1731 89.6624 51.0599 90.062 51.9797C90.4681 52.8939 90.8213 53.8306 91.1198 54.7853C91.3421 55.5059 91.5568 56.3184 91.7254 57.0849C91.9808 58.2556 92.1398 59.4451 92.2007 60.6417C92.3027 62.238 92.197 63.8407 91.8864 65.4097C91.6797 66.4502 91.3342 67.4583 90.8592 68.4069C90.1118 70.0242 88.8243 71.3306 87.2181 72.1017C87.199 72.1089 87.1824 72.1213 87.1702 72.1376C87.158 72.1539 87.1507 72.1733 87.1491 72.1936C86.327 72.5834 85.4697 72.8939 84.5888 73.1212C83.1324 76.425 84.1672 79.7212 83.4926 83.278C82.8181 86.8348 84.1212 88.0996 85.7923 90.7212C87.4634 93.3428 88.2989 94.5539 87.1951 99.1532C86.0913 103.753 87.9616 105.998 92.147 107.064C94.9832 107.792 96.9073 106.236 97.9651 103.76C98.0133 103.814 98.0672 103.863 98.1261 103.906C98.7211 104.39 99.3631 104.814 100.042 105.171C100.089 105.199 100.142 105.214 100.196 105.214C100.25 105.214 100.303 105.199 100.349 105.171C102.012 104.082 103.768 102.472 103.53 100.41C103.513 100.158 103.444 99.9113 103.326 99.687C103.209 99.4626 103.046 99.2652 102.848 99.1072C102.604 98.9264 102.32 98.8058 102.021 98.7552C101.721 98.7046 101.413 98.7254 101.123 98.8159C100.629 98.9748 100.213 99.3142 99.9581 99.7664C99.7047 99.4094 99.3453 99.1412 98.931 98.9999C99.0229 95.4968 97.5512 95.5504 95.3128 91.94C93.0745 88.3295 96.0794 85.1943 96.7233 82.3964C97.1321 82.7895 97.6459 83.0557 98.2027 83.163C97.1602 84.6961 97.7658 87.8619 102.495 90.3915C102.54 90.4194 102.592 90.4341 102.645 90.4341C102.698 90.4341 102.749 90.4194 102.794 90.3915C104.181 89.5633 105.371 88.4439 106.282 87.1107C107.585 88.0842 112.415 92.032 112.476 92.0243V93.2968C112.274 93.468 112.102 93.6728 111.97 93.9023C111.684 93.4701 111.242 93.1652 110.736 93.0515C110.439 92.9852 110.131 92.9903 109.836 93.0663C109.542 93.1422 109.27 93.2869 109.042 93.4884C108.86 93.6639 108.715 93.8749 108.618 94.1082C108.52 94.3415 108.472 94.5923 108.475 94.8452C108.413 96.9149 110.261 98.356 112.054 99.3142C112.1 99.3427 112.153 99.3578 112.208 99.3578C112.262 99.3578 112.315 99.3427 112.361 99.3142L112.484 99.2375C112.557 103.21 113.048 107.164 113.948 111.035C113.953 111.066 113.971 111.094 113.997 111.112C114.022 111.131 114.054 111.139 114.086 111.134C114.117 111.129 114.145 111.111 114.163 111.085C114.182 111.06 114.19 111.028 114.185 110.996C114.185 110.996 112.829 99.7741 112.744 99.0536C114.277 97.9497 115.764 96.4626 115.542 94.5539C115.523 94.3017 115.453 94.0559 115.336 93.8318C115.218 93.6077 115.056 93.41 114.86 93.2508C114.616 93.069 114.332 92.9483 114.032 92.899C113.732 92.8496 113.424 92.873 113.135 92.9671C112.997 93.0088 112.863 93.0654 112.737 93.1358C113.089 87.3171 112.832 81.4775 111.97 75.7121C112.183 75.4826 112.364 75.2246 112.507 74.9456C113.066 73.8494 113.02 72.7762 112.392 72.2703C112.206 72.1296 111.991 72.033 111.762 71.9878C111.534 71.9426 111.298 71.9501 111.073 72.0097C110.628 70.3955 110.083 68.8107 109.44 67.2647C109.43 67.2378 109.413 67.2135 109.392 67.1937C109.371 67.1738 109.345 67.1588 109.318 67.1497C109.291 67.1384 109.262 67.1325 109.233 67.1325C109.204 67.1325 109.176 67.1384 109.149 67.1497C108.325 67.5336 107.45 67.7945 106.55 67.924C106.302 67.9661 106.046 67.9171 105.83 67.786L109.072 66.0766C109.11 66.0533 109.142 66.0206 109.164 65.9817C109.186 65.9428 109.197 65.8989 109.197 65.8543C109.197 65.8097 109.186 65.7658 109.164 65.7269C109.142 65.6879 109.11 65.6553 109.072 65.632C108.443 65.1712 107.853 64.6584 107.309 64.0989C106.328 63.018 106.543 62.5658 108.022 63.3937C108.743 63.8542 109.43 64.3666 110.077 64.9268C110.111 64.9523 110.153 64.966 110.195 64.966C110.238 64.966 110.28 64.9523 110.314 64.9268C110.352 64.9048 110.381 64.8712 110.398 64.8311C110.414 64.7909 110.417 64.7465 110.406 64.7045C110.368 64.1909 108.98 58.7484 110.935 61.7762C111.518 62.6808 112.154 63.9302 112.468 64.5818C112.123 64.9574 116.715 72.025 117.535 73.1672C117.612 78.0731 117.558 111.686 117.282 121.253L117.244 121.245ZM99.9888 100.127C100.011 100.124 100.032 100.117 100.05 100.105C100.069 100.093 100.085 100.077 100.096 100.058C100.208 99.8336 100.368 99.6366 100.564 99.4804C100.76 99.3242 100.987 99.2125 101.231 99.1532C101.463 99.0929 101.706 99.0879 101.94 99.1384C102.174 99.189 102.393 99.2939 102.58 99.4445C102.719 99.5744 102.831 99.7309 102.908 99.9047C102.986 100.078 103.028 100.266 103.032 100.456C103.162 102.212 101.629 103.599 100.188 104.565C99.5987 104.246 99.0394 103.874 98.517 103.454C97.2829 102.434 96.4933 100.556 97.3519 99.6745C97.5239 99.5071 97.7328 99.3824 97.9618 99.3105C98.1908 99.2386 98.4335 99.2215 98.6703 99.2605C98.9197 99.2983 99.1578 99.3899 99.3683 99.5289C99.5787 99.6679 99.7565 99.8509 99.8892 100.065C99.9008 100.091 99.9208 100.112 99.9459 100.124C99.9711 100.137 99.9997 100.14 100.027 100.134L99.9888 100.127Z" fill="black"/>
<path fill-rule="evenodd" clip-rule="evenodd" d="M51.2592 102.181C50.3523 101.353 49.1684 100.893 47.94 100.893C46.7117 100.893 45.5278 101.353 44.6209 102.181C43.9473 102.838 43.4853 103.681 43.2941 104.602C43.103 105.524 43.1914 106.481 43.5481 107.352C43.9048 108.222 44.5134 108.967 45.2959 109.489C46.0784 110.011 46.9992 110.288 47.94 110.284C48.5667 110.284 49.1873 110.16 49.7659 109.919C50.3445 109.678 50.8698 109.325 51.3115 108.881C51.7532 108.436 52.1027 107.909 52.3397 107.328C52.5767 106.748 52.6967 106.127 52.6926 105.5C52.6834 104.88 52.5521 104.268 52.3062 103.698C52.0602 103.129 51.7044 102.613 51.2592 102.181ZM52.1254 105.5C52.1254 106.618 51.6812 107.691 50.8905 108.481C50.0999 109.272 49.0275 109.716 47.9094 109.716C46.7912 109.716 45.7188 109.272 44.9282 108.481C44.1375 107.691 43.6933 106.618 43.6933 105.5C43.6769 104.374 44.1036 103.287 44.8815 102.472C45.4712 101.863 46.2308 101.446 47.0612 101.275C47.8916 101.105 48.7542 101.188 49.5364 101.515C50.3185 101.842 50.984 102.397 51.4459 103.108C51.9077 103.819 52.1445 104.653 52.1254 105.5ZM51.1135 113.173C50.2066 112.345 49.0227 111.886 47.7944 111.886C46.566 111.886 45.3821 112.345 44.4752 113.173C44.0241 113.606 43.6642 114.125 43.4167 114.699C43.1692 115.273 43.0391 115.891 43.0341 116.516C43.0188 117.305 43.2001 118.086 43.5615 118.787C43.923 119.489 44.4534 120.09 45.1049 120.536C45.7564 120.982 46.5085 121.259 47.2936 121.342C48.0787 121.425 48.8721 121.311 49.6024 121.011C50.3326 120.711 50.9768 120.234 51.4769 119.623C51.977 119.012 52.3173 118.287 52.4672 117.512C52.6171 116.736 52.5718 115.936 52.3355 115.183C52.0992 114.43 51.6793 113.747 51.1135 113.196V113.173ZM52.0104 116.516C52.0006 117.628 51.5515 118.692 50.7609 119.474C50.1705 120.054 49.4229 120.448 48.6108 120.606C47.7987 120.765 46.9579 120.681 46.1929 120.366C45.4278 120.051 44.7722 119.518 44.3074 118.833C43.8426 118.149 43.5891 117.343 43.5783 116.516C43.5643 115.951 43.6621 115.39 43.866 114.864C44.0699 114.337 44.376 113.857 44.7665 113.449C45.36 112.842 46.1229 112.427 46.9557 112.26C47.7885 112.092 48.6524 112.18 49.4347 112.511C50.2169 112.842 50.8812 113.401 51.3407 114.116C51.8002 114.83 52.0336 115.666 52.0104 116.516ZM69.802 12.4028C69.8274 12.4673 69.8769 12.5195 69.94 12.5484C70.2612 12.6651 70.5962 12.7398 70.9365 12.7707C72.186 12.9394 74.4013 13.085 76.8313 13.1693C78.1191 13.2153 79.4682 13.2383 80.7714 13.246C82.7107 13.246 84.5428 13.246 85.8766 13.1387C86.5537 13.1224 87.2282 13.048 87.8926 12.9164C87.9963 12.8882 88.0929 12.8386 88.1762 12.7707C88.2119 12.7344 88.2398 12.6912 88.2582 12.6438C88.2767 12.5963 88.2853 12.5456 88.2835 12.4948C88.2755 12.4181 88.249 12.3446 88.2063 12.2805C88.1636 12.2164 88.1059 12.1637 88.0382 12.1268C87.799 11.9946 87.5403 11.9015 87.2717 11.8509C84.517 11.4643 81.7358 11.2977 78.9546 11.3526C77.2069 11.3526 75.4668 11.4139 73.9874 11.5059C72.8769 11.5534 71.7707 11.6738 70.6759 11.8662C70.4079 11.9023 70.1484 11.9853 69.9093 12.1115C69.8616 12.1412 69.8252 12.186 69.8057 12.2387C69.7863 12.2915 69.785 12.3492 69.802 12.4028ZM70.055 12.3338L70.1316 12.2878C70.3221 12.2165 70.5202 12.1676 70.7219 12.1421C71.807 11.9955 72.9001 11.9161 73.9951 11.9045C75.4745 11.8585 77.2069 11.9045 78.9393 11.9045C81.6754 11.8903 84.409 12.0748 87.1184 12.4564L86.7274 12.4948C85.2557 12.6251 82.6341 12.6787 79.8898 12.6941H75.2905C73.6595 12.707 72.0291 12.6251 70.4076 12.4488C70.2904 12.4344 70.1749 12.4088 70.0627 12.3721L70.055 12.3338ZM98.218 13.8362C98.4575 13.8365 98.6947 13.7892 98.9157 13.6971C99.1368 13.605 99.3374 13.4699 99.5058 13.2996C99.6706 13.1303 99.8002 12.93 99.8871 12.7103C99.9739 12.4905 100.016 12.2557 100.012 12.0195C100.004 11.7875 99.9501 11.5594 99.8527 11.3487C99.7552 11.138 99.6164 10.949 99.4445 10.793C99.2781 10.6456 99.0838 10.533 98.8732 10.4619C98.6625 10.3908 98.4398 10.3626 98.218 10.3791C97.9918 10.3656 97.7651 10.3978 97.5515 10.4735C97.3379 10.5492 97.1416 10.6671 96.9743 10.8201C96.8071 10.973 96.6722 11.158 96.5777 11.364C96.4833 11.5701 96.4311 11.7929 96.4243 12.0195C96.4213 12.257 96.4654 12.4927 96.5542 12.713C96.643 12.9333 96.7746 13.1337 96.9415 13.3027C97.1083 13.4718 97.3071 13.6059 97.5263 13.6975C97.7454 13.7891 97.9805 13.8362 98.218 13.8362ZM98.218 10.77C98.3857 10.7567 98.5543 10.7782 98.7133 10.8332C98.8722 10.8882 99.018 10.9756 99.1416 11.0897C99.2651 11.2038 99.3638 11.3423 99.4312 11.4963C99.4986 11.6504 99.5334 11.8168 99.5334 11.985C99.5334 12.1532 99.4986 12.3196 99.4312 12.4737C99.3638 12.6277 99.2651 12.7662 99.1416 12.8803C99.018 12.9945 98.8722 13.0818 98.7133 13.1368C98.5543 13.1918 98.3857 13.2133 98.218 13.2C98.0414 13.2348 97.8592 13.23 97.6847 13.1861C97.5101 13.1421 97.3474 13.06 97.2083 12.9456C97.0693 12.8313 96.9573 12.6876 96.8804 12.5248C96.8035 12.362 96.7636 12.1842 96.7636 12.0042C96.7636 11.8241 96.8035 11.6463 96.8804 11.4836C96.9573 11.3208 97.0693 11.177 97.2083 11.0627C97.3474 10.9484 97.5101 10.8663 97.6847 10.8223C97.8592 10.7783 98.0414 10.7735 98.218 10.8084V10.77ZM112.53 27.7031C112.415 27.4042 112.269 27.0362 112.116 26.6759C112.024 26.446 111.916 26.216 111.824 26.0014C111.571 25.4341 111.364 24.9972 111.364 24.9972C111.346 24.9584 111.317 24.926 111.28 24.9041C111.243 24.8823 111.2 24.872 111.157 24.8745C111.116 24.8747 111.076 24.8871 111.042 24.9104C111.007 24.9336 110.981 24.9665 110.966 25.0049C110.966 25.0049 110.391 26.423 110.284 26.7296C110.176 27.0362 110.061 27.3352 109.969 27.6035L109.678 28.485C109.67 28.5064 109.67 28.5301 109.679 28.5514C109.687 28.5726 109.703 28.59 109.724 28.6C109.746 28.6075 109.771 28.6061 109.792 28.5961C109.814 28.5862 109.83 28.5683 109.839 28.5463L110.245 27.7184C110.376 27.4578 110.506 27.1665 110.644 26.8752C110.782 26.584 110.897 26.285 111.012 26.0244C111.127 25.7637 111.127 25.7484 111.173 25.6258L111.763 26.8292C111.939 27.1819 112.123 27.5191 112.277 27.8028C112.43 28.0864 112.637 28.4543 112.637 28.4543C112.652 28.4689 112.673 28.477 112.694 28.477C112.716 28.477 112.736 28.4689 112.752 28.4543C112.76 28.4471 112.767 28.4383 112.771 28.4284C112.775 28.4185 112.778 28.4077 112.778 28.3968C112.778 28.386 112.775 28.3752 112.771 28.3653C112.767 28.3554 112.76 28.3465 112.752 28.3393C112.752 28.3393 112.683 28.1094 112.53 27.7031ZM111.15 24.5833C111.232 24.5837 111.314 24.5677 111.391 24.5361C111.467 24.5045 111.536 24.458 111.594 24.3993C111.651 24.3429 111.694 24.2754 111.723 24.2009C111.751 24.1265 111.764 24.047 111.759 23.9674C111.755 23.8879 111.734 23.8101 111.698 23.7393C111.661 23.6684 111.61 23.606 111.548 23.5561C111.432 23.4888 111.3 23.4534 111.165 23.4534C111.031 23.4534 110.898 23.4888 110.782 23.5561C110.719 23.6052 110.667 23.6674 110.63 23.7383C110.593 23.8092 110.571 23.8873 110.567 23.9672C110.562 24.0471 110.575 24.1271 110.604 24.2016C110.634 24.2761 110.678 24.3435 110.736 24.3993C110.846 24.5105 110.994 24.5762 111.15 24.5833ZM111.15 23.6251C111.198 23.6375 111.242 23.6621 111.278 23.6965C111.315 23.731 111.341 23.7742 111.356 23.8219C111.37 23.8696 111.373 23.9202 111.362 23.969C111.351 24.0177 111.328 24.063 111.295 24.1003C111.027 24.3686 110.759 23.7094 111.15 23.6251Z" fill="black"/>
<path fill-rule="evenodd" clip-rule="evenodd" d="M109.195 26.6991C109.212 26.7142 109.234 26.7226 109.256 26.7226C109.279 26.7226 109.301 26.7142 109.317 26.6991C109.327 26.692 109.335 26.6827 109.34 26.6721C109.345 26.6614 109.348 26.6497 109.348 26.6378C109.348 26.6259 109.345 26.6142 109.34 26.6035C109.335 26.5929 109.327 26.5836 109.317 26.5765C108.943 26.2039 108.688 25.7286 108.584 25.2108C108.48 24.693 108.532 24.156 108.734 23.6678C108.935 23.1797 109.277 22.7623 109.716 22.4687C110.155 22.175 110.671 22.0182 111.199 22.0182C111.727 22.0182 112.244 22.175 112.683 22.4687C113.122 22.7623 113.464 23.1797 113.665 23.6678C113.867 24.156 113.919 24.693 113.815 25.2108C113.711 25.7286 113.456 26.2039 113.081 26.5765C113.073 26.5844 113.066 26.5939 113.062 26.6044C113.057 26.615 113.055 26.6263 113.055 26.6378C113.055 26.6493 113.057 26.6606 113.062 26.6712C113.066 26.6817 113.073 26.6912 113.081 26.6991C113.098 26.7142 113.12 26.7226 113.143 26.7226C113.165 26.7226 113.187 26.7142 113.204 26.6991C113.64 26.2965 113.945 25.7716 114.079 25.1929C114.212 24.6142 114.168 24.0087 113.952 23.4556C113.736 22.9024 113.358 22.4274 112.868 22.0925C112.377 21.7575 111.797 21.5784 111.203 21.5784C110.609 21.5784 110.029 21.7575 109.539 22.0925C109.048 22.4274 108.67 22.9024 108.454 23.4556C108.238 24.0087 108.194 24.6142 108.327 25.1929C108.461 25.7716 108.766 26.2965 109.202 26.6991H109.195Z" fill="black"/>
<path fill-rule="evenodd" clip-rule="evenodd" d="M111.234 22.23C110.761 22.2219 110.296 22.3603 109.904 22.626C109.513 22.8917 109.212 23.2719 109.045 23.7147C108.877 24.1574 108.85 24.6412 108.967 25.0998C109.085 25.5585 109.341 25.9697 109.701 26.2773C109.717 26.2936 109.739 26.3027 109.762 26.3027C109.785 26.3027 109.807 26.2936 109.824 26.2773C109.84 26.2611 109.849 26.239 109.849 26.216C109.849 26.193 109.84 26.171 109.824 26.1547C109.54 25.8687 109.348 25.5054 109.271 25.1104C109.194 24.7154 109.236 24.3065 109.39 23.935C109.545 23.5636 109.807 23.2463 110.142 23.0231C110.476 22.8 110.87 22.6809 111.272 22.6809C111.675 22.6809 112.068 22.8 112.403 23.0231C112.738 23.2463 112.999 23.5636 113.154 23.935C113.309 24.3065 113.351 24.7154 113.274 25.1104C113.197 25.5054 113.004 25.8687 112.721 26.1547C112.704 26.1699 112.693 26.1914 112.692 26.2144C112.69 26.2374 112.698 26.2601 112.713 26.2773C112.729 26.2946 112.75 26.3051 112.773 26.3066C112.796 26.308 112.819 26.3003 112.836 26.285C113.205 25.9745 113.466 25.5562 113.584 25.0891C113.702 24.6219 113.67 24.1295 113.493 23.6815C113.316 23.2334 113.003 22.8522 112.597 22.5918C112.192 22.3313 111.715 22.2048 111.234 22.23ZM92.8751 141.812C92.2143 141.335 91.4671 140.991 90.6751 140.8C88.1262 140.186 85.508 139.908 82.887 139.972C80.2736 139.909 77.6632 140.188 75.1218 140.8C74.3222 140.99 73.5672 141.334 72.8988 141.812C72.7288 141.93 72.5875 142.086 72.4854 142.266C72.3833 142.446 72.3228 142.647 72.3086 142.854C72.3208 143.063 72.3794 143.266 72.4802 143.449C72.581 143.632 72.7214 143.79 72.8912 143.912C73.5591 144.403 74.3171 144.757 75.1218 144.955C77.6648 145.626 80.2881 145.943 82.9176 145.897C85.5504 145.945 88.1768 145.625 90.7211 144.947C91.5151 144.741 92.262 144.385 92.9211 143.897C93.0893 143.776 93.2282 143.619 93.3277 143.437C93.4272 143.255 93.4847 143.053 93.496 142.847C93.48 142.638 93.4155 142.435 93.3077 142.256C93.2 142.076 93.0519 141.924 92.8751 141.812ZM92.2926 143.651C91.4112 144.142 90.4559 144.487 89.464 144.671C87.3007 145.117 85.0956 145.328 82.887 145.3C80.6808 145.322 78.4786 145.108 76.3176 144.663C75.3249 144.486 74.3689 144.144 73.4891 143.651C73.0981 143.398 72.8528 143.138 72.8528 142.847C72.8528 142.555 73.0905 142.295 73.4814 142.026C74.3567 141.518 75.3098 141.158 76.3023 140.961C78.4738 140.567 80.6819 140.413 82.887 140.501C85.098 140.443 87.3087 140.628 89.4793 141.053C90.465 141.227 91.4171 141.555 92.3002 142.026C92.6912 142.287 92.9288 142.555 92.9288 142.847C92.9288 143.138 92.6835 143.398 92.2926 143.651ZM80.1581 56.9163C80.1428 56.7775 80.0761 56.6493 79.9711 56.5571C79.8662 56.4649 79.7305 56.4153 79.5908 56.4181C79.5242 56.4244 79.4597 56.4445 79.4013 56.4771C79.3429 56.5097 79.2919 56.5541 79.2516 56.6074C79.2112 56.6607 79.1824 56.7219 79.1669 56.7869C79.1514 56.852 79.1496 56.9195 79.1615 56.9853C79.2075 57.3609 79.2612 57.7519 79.3379 58.0892C79.3623 58.2274 79.4386 58.3512 79.5511 58.4352C79.6636 58.5192 79.8039 58.5572 79.9434 58.5414C80.0094 58.5289 80.0722 58.5029 80.1278 58.4652C80.1833 58.4274 80.2305 58.3786 80.2665 58.3218C80.3024 58.265 80.3263 58.2015 80.3367 58.1351C80.347 58.0687 80.3436 58.0009 80.3267 57.9359C80.2577 57.5986 80.2041 57.2613 80.1581 56.9163ZM88.2528 54.5094C88.1863 54.5157 88.1217 54.5358 88.0633 54.5684C88.0049 54.601 87.9539 54.6454 87.9136 54.6987C87.8732 54.752 87.8444 54.8132 87.8289 54.8782C87.8134 54.9433 87.8116 55.0108 87.8236 55.0766C87.8696 55.4522 87.9232 55.8432 87.9999 56.1805C88.0243 56.3187 88.1006 56.4425 88.2131 56.5265C88.3256 56.6105 88.4659 56.6485 88.6054 56.6327C88.6715 56.6202 88.7342 56.5942 88.7898 56.5564C88.8453 56.5187 88.8926 56.4699 88.9285 56.4131C88.9644 56.3563 88.9883 56.2928 88.9987 56.2264C89.009 56.16 89.0056 56.0922 88.9887 56.0271C88.9197 55.6899 88.8661 55.3526 88.8201 55.0076C88.8048 54.8688 88.7381 54.7406 88.6331 54.6484C88.5282 54.5562 88.3925 54.5066 88.2528 54.5094Z" fill="black"/>
</svg>
