<svg width="154" height="154" viewBox="0 0 154 154" fill="none" xmlns="http://www.w3.org/2000/svg">
<path d="M149.55 89.5921L122.499 84.1666C122.866 79.9668 122.193 76.5994 120.344 73.6214C118.174 70.632 118.166 70.7554 117.682 70.3146C117.632 70.0105 117.503 69.7247 117.309 69.4852C117.058 69.0282 116.713 68.63 116.296 68.317C115.809 68.0733 115.518 67.9867 115.518 67.6157C115.518 67.3857 115.751 67.2263 115.829 66.9925C115.87 66.8647 115.884 66.7299 115.87 66.5965C115.857 66.463 115.816 66.3338 115.75 66.2169C115.684 66.1 115.595 65.9979 115.488 65.917C115.381 65.8361 115.259 65.7782 115.128 65.7469C114.817 65.5936 114.349 65.4349 114.271 65.0455C114.258 64.8348 114.284 64.6235 114.348 64.4223C114.348 63.2541 112.323 62.8647 111.388 62.9429C110.475 63.2043 109.276 63.829 108.974 64.7343C108.883 65.6404 108.674 66.5306 108.351 67.3819C108.106 67.7053 107.818 67.9936 107.494 68.2389C107.333 68.3561 107.201 68.5079 107.106 68.6831C107.012 68.8584 106.958 69.0526 106.949 69.2514C106.949 69.7183 107.494 70.0302 107.416 70.4978C107.416 71.1831 105.553 72.1466 105.954 73.252C105.625 73.8724 105.337 74.5141 105.094 75.1729C105.007 75.5158 104.888 75.8496 104.737 76.1694C104.431 76.7826 103.619 77.4188 100.976 80.7969L88.7389 85.912C85.8782 76.8248 84.7529 63.747 76.3977 54.0726L77.5728 52.354C79.8045 54.3699 81.7945 56.6382 83.5027 59.1133C85.6536 62.1863 86.6371 64.2613 87.238 66.9925C86.703 69.0618 86.6576 71.2272 87.1054 73.3171C87.3665 74.3621 87.9136 75.3137 88.6852 76.0651C89.9592 77.3084 92.1768 77.8174 94.7807 76.8524C99.4274 75.041 102.779 70.3591 105.555 66.1125C113.343 54.1761 110.589 47.8752 110.248 47.193C108.322 43.4232 103.568 45.374 100.029 47.7181C98.0874 48.2294 96.0915 48.5061 94.0839 48.5421C87.147 48.8243 80.3006 46.8896 74.5374 43.0185C73.8589 42.8928 73.1578 43.0085 72.5557 43.3457C71.9537 43.6828 71.4886 44.2201 71.2413 44.8643C70.3276 46.7622 71.2321 48.0477 71.8384 48.4624C71.8384 48.4624 72.2715 48.6594 72.4585 48.7521L71.3854 50.3243C68.7019 48.3156 65.8358 46.5633 62.8248 45.0904L62.9635 44.3239C64.2019 44.4859 65.4601 44.2616 66.5662 43.6815C67.1041 44.6455 67.3127 45.7586 67.1603 46.8519C67.1515 46.9272 67.1652 47.0034 67.1998 47.0709C67.2343 47.1384 67.2881 47.1942 67.3543 47.2311C67.4205 47.268 67.4962 47.2845 67.5718 47.2784C67.6474 47.2723 67.7194 47.2439 67.7789 47.1968C73.974 42.2987 79.3872 32.842 76.6331 23.6643C74.138 14.7665 64.9941 11.9747 57.2498 13.816C51.5652 15.1689 47.5248 20.6197 46.4433 28.39C46.1796 30.373 45.9458 34.0539 47.3501 36.4248C48.3572 38.1017 49.6417 39.5955 51.149 40.8423C51.08 41.0447 51.0118 41.2478 50.9405 41.4471C45.7235 40.6346 20.3429 37.6328 14.9902 55.0446C13.3031 60.7172 13.2409 66.7494 14.8108 72.4555C12.1384 87.1478 11.8003 102.17 13.809 116.967C13.8218 117.051 13.8623 117.129 13.924 117.187L3.68311 121.469C3.60154 121.503 3.53433 121.565 3.49289 121.643C3.45145 121.721 3.43833 121.811 3.45575 121.898C3.47317 121.985 3.52006 122.063 3.58846 122.119C3.65687 122.175 3.74258 122.206 3.83105 122.206C3.9491 122.206 -0.498322 124.045 99.3691 82.2963C99.2846 82.6641 99.3366 83.0501 99.5156 83.3823C99.6945 83.7146 99.9882 83.9704 100.342 84.1022C101.219 84.3322 101.738 83.3249 102.089 82.4925C103.031 82.2113 103.949 81.8553 104.834 81.4278C105.526 81.6324 106.234 81.7763 106.95 81.8578C105.775 85.633 105.824 87.5608 105.578 91.0562C91.1136 92.4903 80.1622 98.966 80.1622 106.718C80.1622 115.518 94.274 122.677 111.621 122.677C128.967 122.677 143.079 115.518 143.079 106.718C143.079 99.0143 132.265 92.5685 117.937 91.0807C117.918 87.652 118.204 86.1672 118.156 84.0746L120.145 84.4847C120.361 85.1317 120.341 85.0496 120.295 85.1823C118.757 89.6281 124.077 88.148 122.568 84.9669L149.397 90.3479C149.496 90.3682 149.6 90.3482 149.685 90.2921C149.77 90.236 149.829 90.1486 149.849 90.049C149.869 89.9493 149.849 89.8457 149.793 89.7609C149.737 89.6761 149.65 89.617 149.55 89.5967V89.5921ZM121.714 84.4663C121.473 84.4995 121.234 84.5469 120.999 84.6081C119.88 81.0169 117.776 78.0665 116.01 74.831C115.961 74.7418 115.879 74.6755 115.781 74.6468C115.684 74.6182 115.579 74.6294 115.49 74.6781C115.4 74.7268 115.334 74.8089 115.305 74.9065C115.277 75.004 115.288 75.1089 115.337 75.1982C115.902 76.233 116.464 77.1789 117.028 78.1394C115.207 79.4425 112.933 79.3658 110.718 79.0715C109.869 79.017 109.061 78.6849 108.419 78.1263C109.032 76.5526 107.606 76.1855 107.594 74.3987C108.088 74.3144 107.999 74.8379 107.999 74.9245C107.999 75.3691 108.237 75.3906 108.664 75.248C109.382 75.1047 110.126 74.2837 109.677 73.5348C109.523 73.2236 109.053 73.068 108.898 72.756C108.828 72.6392 108.8 72.5014 108.821 72.3666C108.898 72.2133 109.132 72.1328 109.289 72.0554C109.34 72.0148 109.383 71.9642 109.415 71.9068C109.447 71.8493 109.467 71.7861 109.474 71.7208C109.481 71.6555 109.475 71.5894 109.457 71.5265C109.438 71.4635 109.407 71.4049 109.365 71.354L109.132 71.1202C108.877 70.7638 109.189 70.507 109.5 70.2633C109.796 70.1194 110.104 70.0029 110.42 69.9153C110.746 70.1591 111.142 70.2898 111.549 70.2876C111.956 70.2854 112.351 70.1504 112.674 69.903C112.597 69.9957 112.54 70.1032 112.506 70.2188C112.472 70.3344 112.463 70.4557 112.478 70.5752C112.69 71.2107 113.126 71.223 113.568 71.666C113.681 71.7574 113.758 71.8854 113.786 72.0277C113.814 72.17 113.791 72.3176 113.722 72.4448C113.534 72.6607 113.292 72.8219 113.021 72.9116C112.911 72.9453 112.81 73.0055 112.729 73.0871C112.647 73.1686 112.587 73.2689 112.553 73.3792C112.457 73.4861 112.402 73.6245 112.4 73.7686C112.4 73.9219 112.553 74.0024 112.634 74.0798C112.864 74.2331 113.179 74.2331 113.49 74.3918C113.801 74.5505 113.958 74.8586 113.802 75.0924C113.591 75.4097 113.179 75.3285 113.179 75.4818C113.179 75.7118 113.979 76.1073 114.892 75.7156C115.675 75.1944 114.251 74.3358 114.892 73.9242C115.035 73.8389 115.194 73.7865 115.36 73.7709C115.82 73.7837 116.267 73.6159 116.605 73.3033C116.756 73.1311 116.84 72.9097 116.84 72.6805C116.84 72.4513 116.756 72.23 116.605 72.0577C116.452 71.9811 116.294 71.8278 116.375 71.6683L116.452 71.5917C116.857 71.4299 117.419 71.781 117.652 71.3809C118.253 72.0447 119.179 73.324 119.709 74.0522C121.5 76.9436 122.139 80.2611 121.712 84.4663H121.714ZM111.077 65.5131C111.446 65.8197 112.621 66.4889 112.323 67.3819C112.31 67.5033 112.326 67.6261 112.368 67.7406C112.604 68.6842 112.577 68.6604 112.707 68.767C112.632 68.9214 112.527 69.0595 112.398 69.1734C112.27 69.2873 112.12 69.3747 111.957 69.4307C111.795 69.4866 111.623 69.51 111.452 69.4995C111.28 69.489 111.113 69.4448 110.958 69.3695C110.94 69.3545 110.92 69.3414 110.899 69.3304C110.92 69.2315 110.915 69.3856 110.915 68.7057C110.915 68.604 110.874 68.5065 110.802 68.4347C110.73 68.3628 110.633 68.3224 110.531 68.3224C110.302 68.31 110.084 68.222 109.91 68.0722C109.736 67.9224 109.617 67.7193 109.571 67.4946C109.449 66.9486 109.451 66.3824 109.577 65.8373C109.703 65.2923 109.949 64.7824 110.298 64.3449C110.408 64.8154 110.685 65.2301 111.077 65.5131ZM104.728 77.4663C105.709 76.4852 105.564 75.7156 106.497 73.8782C106.605 73.9432 106.719 73.9986 106.837 74.0438C106.807 75.0879 107.108 76.1147 107.697 76.9773C108.062 77.7086 107.327 78.0765 107.677 78.4644C107.719 78.5111 107.773 78.5464 107.819 78.5916C106.146 79.9785 104.219 81.0267 102.146 81.6777C102.061 81.4469 101.905 81.2491 101.7 81.1127C102.715 79.8142 103.716 78.6138 104.728 77.4663ZM15.8257 73.2236C18.2403 81.3235 23.225 87.7877 26.8078 90.2797C31.2468 93.3949 36.1534 94.0962 41.6018 92.3823C53.5183 88.6439 64.5778 74.0798 68.0824 64.9681C68.0243 64.1641 67.6629 63.4123 67.0714 62.8647C66.1649 62.1512 65.03 61.7914 63.878 61.8521C59.1255 65.2793 56.7132 66.6046 49.0027 68.2389C33.4375 71.5004 33.2398 76.4645 32.2578 75.4818C32.2209 75.4467 32.1916 75.4044 32.1715 75.3575C32.1514 75.3107 32.1411 75.2603 32.1411 75.2093C32.1411 75.1583 32.1514 75.1079 32.1715 75.0611C32.1916 75.0142 32.2209 74.972 32.2578 74.9368C33.715 73.273 35.4776 71.9041 37.4503 70.9041C36.88 66.5587 35.916 62.274 34.5705 58.103C34.4394 57.7106 35.3554 57.2959 35.6091 57.8041C36.8479 61.9891 37.785 66.2576 38.4131 70.5768C41.752 69.1731 45.2216 68.1034 48.7712 67.3834C57.0743 65.6028 58.5261 64.3418 63.8519 60.7859C63.9479 60.7941 64.0434 60.7654 64.119 60.7055C64.1945 60.6457 64.2443 60.5593 64.2582 60.4639C64.3687 59.6568 64.5303 58.8575 64.7419 58.0708C65.2024 56.7011 66.0305 55.4842 67.1357 54.5532C67.3635 54.3418 67.6471 54.2 67.9529 54.1447C68.0572 54.1356 68.1622 54.1497 68.2604 54.1861C68.3586 54.2224 68.4475 54.28 68.5209 54.3547C68.5056 54.4878 68.45 54.6129 68.3614 54.7134C67.8272 55.2838 67.3913 55.9389 67.0714 56.652C67.035 56.7063 67.0135 56.7692 67.009 56.8344C67.0044 56.8996 67.0169 56.9649 67.0453 57.0237C67.122 57.9643 68.6588 59.5334 70.904 59.7066C71.7986 59.7733 72.6739 59.1401 73.4382 57.8723C73.8329 57.2154 74.3956 57.6109 74.0514 58.3491C73.7056 59.1466 73.138 59.8281 72.4162 60.3126C71.6944 60.797 70.8487 61.064 69.9796 61.0818C69.879 61.0808 69.7818 61.1181 69.7076 61.1859C69.6334 61.2537 69.5876 61.3472 69.5795 61.4474C69.5772 61.4977 69.5848 61.5479 69.602 61.5952C69.6191 61.6426 69.6454 61.686 69.6794 61.7232C69.7133 61.7603 69.7543 61.7904 69.7999 61.8118C69.8455 61.8331 69.8948 61.8453 69.9451 61.8475C71.242 61.8586 72.4918 61.3614 73.4267 60.4624C74.2085 59.7541 74.2361 60.48 73.9042 60.9614C73.3808 61.6284 72.7032 62.1583 71.9297 62.5055C71.1562 62.8527 70.3099 63.0067 69.4637 62.9544C69.3646 62.9455 69.2659 62.9754 69.1885 63.0379C69.1111 63.1004 69.061 63.1906 69.0489 63.2893C69.0367 63.3881 69.0635 63.4877 69.1234 63.5671C69.1834 63.6465 69.2719 63.6995 69.3702 63.7148C70.648 63.8303 71.927 63.5058 72.9951 62.795C73.7095 62.565 73.9234 63.4917 72.3589 64.1808C71.3482 64.56 70.2807 64.7655 69.2015 64.7887C69.1376 64.7898 69.075 64.8069 69.0194 64.8384C68.9638 64.8699 68.9169 64.9149 68.8831 64.9691C68.8493 65.0234 68.8295 65.0852 68.8257 65.149C68.8219 65.2128 68.8341 65.2766 68.8612 65.3345C64.3325 76.4936 53.539 89.9102 42.0058 93.4271C36.8386 95.1487 30.6757 94.6658 26.0911 91.3574C22.5168 88.8478 17.9176 83.6086 15.3727 75.7853C15.365 75.7823 15.7813 73.1339 15.8257 73.2236ZM72.8556 65.6097C72.8556 64.929 74.0966 65.1014 73.8575 65.8159C71.4291 83.9995 70.3728 84.3107 69.6208 87.5087C69.5782 87.6297 69.4893 87.7289 69.3736 87.7844C69.2579 87.8399 69.1248 87.8471 69.0038 87.8046C68.8827 87.762 68.7835 87.673 68.728 87.5573C68.6726 87.4416 68.6653 87.3086 68.7079 87.1875C71.042 79.5459 71.7687 74.2722 72.8518 65.6097H72.8556ZM68.7163 89.2334C69.4024 89.2226 70.0486 92.6414 70.2241 93.6532L65.2754 95.7228C65.9001 94.2104 68.0265 89.2449 68.7094 89.2334H68.7163ZM107.834 45.9826C108.216 46.1058 108.569 46.3079 108.868 46.5758C109.168 46.8437 109.408 47.1715 109.572 47.5379C109.892 48.1765 112.476 54.1148 104.922 65.6924C102.211 69.8394 98.9429 74.4079 94.517 76.1349C92.4359 76.906 90.4429 76.6945 89.2279 75.5217C88.5587 74.8726 88.0838 74.0496 87.8566 73.1454C86.7444 68.3209 89.0792 63.0502 91.5398 58.7431C92.8383 59.5962 94.7592 60.027 95.8094 58.891C96.0971 58.5115 96.2433 58.0433 96.2226 57.5675C96.2019 57.0916 96.0156 56.6379 95.6959 56.2848C95.1453 55.7403 94.5248 55.2712 93.8509 54.8897C96.6112 50.7834 103.841 44.7593 107.827 45.9826H107.834ZM93.4293 55.5298C94.0517 55.8781 94.6248 56.3081 95.1333 56.8084C95.3294 57.0224 95.4452 57.2979 95.4608 57.5879C95.4765 57.8778 95.3911 58.1642 95.2191 58.3981C94.4319 59.2459 92.7747 58.6404 91.9192 58.0701C92.2051 57.5795 93.2101 55.8801 93.4293 55.5298ZM71.9457 45.1717C72.1222 44.7002 72.4542 44.3031 72.887 44.0461C73.3198 43.7891 73.8274 43.6875 74.3258 43.7582C80.169 47.6527 87.0961 49.5953 94.1123 49.3071C95.5553 49.2681 96.9935 49.1238 98.4156 48.8755C95.8713 50.893 93.7387 53.3808 92.1338 56.2036C90.3126 59.364 88.6001 62.2645 87.6389 65.4732C85.7226 58.9155 77.674 49.9893 72.2462 47.8078C72.0599 47.6583 71.1539 46.8197 71.9457 45.1717ZM76.9926 51.8466L73.5999 56.8084C73.4256 56.8599 73.2633 56.9453 73.1221 57.0598C72.981 57.1742 72.8638 57.3154 72.7774 57.4752C72.3566 58.1751 71.7043 59.0022 70.9584 58.9408C70.302 58.9385 69.6594 58.7519 69.1038 58.4022C68.5481 58.0526 68.1018 57.554 67.8157 56.9632C67.8088 56.8865 67.4968 57.381 73.1415 49.1139C74.5091 49.9003 75.7987 50.8154 76.9926 51.8466ZM53.559 42.5555C53.6255 42.595 53.7025 42.6134 53.7797 42.6083C53.8569 42.6032 53.9308 42.5749 53.9916 42.527C54.0524 42.4791 54.0972 42.414 54.1203 42.3401C54.1434 42.2663 54.1436 42.1872 54.1208 42.1132C53.5222 40.1647 53.838 37.9739 54.1254 36.0292C54.168 35.9263 54.1887 35.8157 54.1862 35.7044C54.1838 35.5931 54.1582 35.4835 54.1111 35.3826C54.0641 35.2817 53.9965 35.1917 53.9128 35.1182C53.8291 35.0448 53.7311 34.9896 53.6249 34.9561C51.7522 33.9527 50.9367 32.1031 51.3253 29.7552C51.4487 29.0814 51.9538 28.1048 52.6943 28.0428C53.4126 27.9814 53.933 28.6859 53.9974 29.4286C54.1461 30.4658 53.8334 31.4799 53.9974 32.553C54.2726 34.2034 54.8161 34.569 55.2239 34.5851C55.3151 34.5891 55.4062 34.5748 55.4918 34.5429C55.5774 34.5111 55.6557 34.4623 55.7221 34.3996C55.7621 34.8036 55.9164 35.1878 56.1671 35.5071C56.4177 35.8265 56.7542 36.0677 57.1371 36.2025C57.5127 36.3305 57.968 36.1113 57.9527 35.4359C57.8684 31.7144 58.7959 30.0779 59.6981 28.6522C59.9135 29.6379 60.9736 29.8671 61.7907 29.0454C61.8712 28.9764 61.944 28.9059 62.0207 28.8338C62.001 29.1399 62.085 29.4437 62.2591 29.6963C62.4332 29.9488 62.6873 30.1354 62.9804 30.2258C63.5026 30.2883 64.0296 30.1568 64.4613 29.8564C64.4695 30.0187 64.49 30.1801 64.5226 30.3393C64.6085 30.6026 64.7663 30.8365 64.9782 31.0148C65.1901 31.193 65.4477 31.3083 65.7218 31.3477C65.9959 31.3872 66.2755 31.3491 66.5291 31.2377C66.7826 31.1264 66.9999 30.9464 67.1564 30.718C67.1721 31.0476 67.2814 31.3661 67.4714 31.6359C67.6615 31.9058 67.9245 32.116 68.2296 32.2418C68.5288 32.3143 68.8428 32.2955 69.1313 32.1879C69.4197 32.0802 69.6692 31.8886 69.8477 31.6378C70.1467 32.8895 71.262 32.9409 71.7219 32.399C71.6538 33.9731 71.3479 35.5279 70.8143 37.0104C69.4729 40.5472 66.6528 44.4787 62.7144 43.552C62.5611 43.552 62.2476 43.6286 62.2476 43.7819L61.78 46.3521C61.7033 46.8197 62.4806 47.0535 62.5588 46.5821L62.6883 45.8715C63.6427 46.336 64.6047 46.8573 65.5743 47.4168C65.5678 47.4245 65.562 47.4327 65.5567 47.4413C63.5062 52.1363 58.5253 52.942 54.2235 50.6033C52.5208 49.683 51.0238 48.4247 49.8245 46.9055C48.6252 45.3863 47.7488 43.6382 47.2489 41.7683C49.8551 42.0089 50.722 42.2167 50.9512 42.2121C50.998 42.2502 51.0532 42.2766 51.1122 42.2889C51.1712 42.3013 51.2324 42.2993 51.2905 42.2832C51.3486 42.267 51.402 42.2372 51.4462 42.1961C51.4904 42.1551 51.5241 42.104 51.5445 42.0473C51.6281 41.8173 51.7032 41.5874 51.7829 41.3574C52.3516 41.7903 52.9445 42.1904 53.559 42.5555ZM100.74 83.2859C100.392 83.6293 99.8835 82.6642 100.176 82.3721C100.474 82.109 100.796 81.8739 101.138 81.67C101.426 81.8087 101.445 81.9812 101.436 82.0755C101.295 82.5247 101.057 82.9377 100.74 83.2859ZM105.888 80.8705C106.51 80.5159 107.109 80.1221 107.681 79.6916C107.521 80.1224 107.349 80.6222 107.186 81.1219L105.888 80.8705ZM142.314 106.713C142.314 115.091 128.546 121.906 111.622 121.906C94.6987 121.906 80.9302 115.091 80.9302 106.713C80.9302 99.3677 91.5153 93.2224 105.531 91.8212C105.498 92.3823 105.471 92.9449 105.47 93.5198C95.1862 94.77 87.5623 99.1983 87.5623 104.454C87.5623 110.678 98.2508 115.741 111.388 115.741C124.526 115.741 135.214 110.682 135.214 104.454C135.214 99.3094 127.901 94.9609 117.947 93.6064V91.8434C131.849 93.2914 142.314 99.4075 142.314 106.713ZM113.178 93.2025C111.79 93.1534 111.152 93.1672 110.555 93.1772C110.765 92.1715 110.632 92.7502 110.946 91.5284C111.396 91.523 111.574 91.5084 112.91 91.536C112.954 91.7897 113.063 92.3669 113.178 93.2025ZM105.494 94.2833C105.517 94.8911 105.555 95.7236 105.627 96.3828C99.8375 97.4268 95.8155 100.051 95.8155 103.209C95.8155 107.31 102.586 110.523 111.23 110.523C119.875 110.523 126.645 107.31 126.645 103.209C126.645 100.26 123.136 97.7779 117.958 96.6112C117.963 95.8646 117.963 95.118 117.958 94.3714C127.481 95.6661 134.446 99.695 134.446 104.454C134.446 110.255 124.098 114.974 111.387 114.974C98.6754 114.974 88.3273 110.255 88.3273 104.454C88.3288 99.5823 95.6262 95.4752 105.494 94.2833ZM117.165 99.5225C117.208 99.8874 117.258 100.252 117.318 100.612C117.303 100.902 116.511 101.104 116.26 100.633C116.26 100.633 116.001 99.79 115.988 99.744C116.392 99.7704 116.797 99.6942 117.165 99.5225ZM114.815 99.0802C114.833 99.1972 114.887 99.3059 114.968 99.3922C115.158 99.5823 114.963 99.0542 115.537 100.908L115.545 100.92C115.75 101.435 115.829 101.991 115.775 102.543C115.672 102.875 115.672 103.231 115.775 103.564C115.858 103.76 115.997 103.927 116.176 104.043C116.354 104.159 116.563 104.219 116.776 104.214C117.414 105.132 118.361 105.789 119.444 106.064C120.309 106.349 120.845 105.689 120.646 105.074C120.613 104.824 120.494 104.593 120.308 104.422C119.338 103.257 118.581 101.929 118.073 100.499C117.987 99.9725 117.924 99.4305 117.866 98.8932C117.953 98.7644 117.932 98.5965 117.948 97.3954C122.652 98.4862 125.88 100.68 125.88 103.209C125.88 106.819 119.309 109.756 111.232 109.756C103.155 109.756 96.5828 106.819 96.5828 103.209C96.5828 100.481 100.339 98.1389 105.652 97.1532C105.592 97.7305 105.689 98.3136 105.935 98.8395C106.012 98.9162 106.002 98.7123 106.019 100.476C106.012 100.764 105.921 101.044 105.757 101.281C104.007 102.855 102.791 102.771 102.585 103.615C102.482 104.025 102.685 104.404 103.495 104.441C104.508 104.494 105.519 104.321 106.456 103.933C106.49 103.993 106.538 104.043 106.597 104.077C106.656 104.112 106.723 104.13 106.791 104.13C107.077 104.142 107.363 104.114 107.642 104.048C107.785 104.032 107.918 103.966 108.017 103.862C108.116 103.757 108.176 103.622 108.185 103.478C108.289 102.151 108.526 100.837 108.893 99.5578C109.032 99.4338 109.117 99.2596 109.128 99.0733C109.342 98.2577 109.554 97.4682 109.756 96.6863C111.165 96.622 112.577 96.6509 113.982 96.773C114.228 97.561 114.499 98.3336 114.815 99.0802ZM107.847 100.606C107.605 100.881 106.787 100.872 106.787 100.478L106.766 99.4282C107.159 99.6538 107.608 99.7618 108.06 99.7394L107.847 100.606ZM113.74 95.9949C112.478 95.8918 111.21 95.868 109.945 95.9236C110.278 94.5753 110.115 95.2867 110.396 93.9452C111.293 93.9276 112.057 93.9261 113.294 93.9728C113.413 94.6512 113.556 95.3273 113.74 95.9949ZM111.147 90.7572C111.558 89.169 111.966 87.5815 112.249 85.994C112.154 87.4136 112.374 88.381 112.786 90.7657C111.434 90.7434 111.546 90.7572 111.147 90.7572ZM118.122 83.2782C118.098 82.9371 118.063 82.596 118.011 82.2556C117.947 81.8724 117.297 79.7767 117.163 78.9787C117.25 78.9243 117.335 78.863 117.42 78.8032C118.357 80.3449 119.167 81.9599 119.843 83.6323L118.122 83.2782ZM120.841 86.9982C120.731 86.4532 120.799 85.8871 121.035 85.3838C121.299 85.3157 121.567 85.2644 121.837 85.2305C122.636 86.8134 121.065 87.5777 120.838 87.0012L120.841 86.9982Z" fill="black"/>
<path d="M66.796 37.9348C66.8916 37.9262 66.9804 37.882 67.045 37.8111C67.1095 37.7401 67.1452 37.6475 67.1448 37.5515C67.1448 36.0185 67.1448 34.4264 67.0681 32.8596C67.0618 32.7584 67.0162 32.6637 66.941 32.5957C66.8658 32.5277 66.767 32.4917 66.6657 32.4955C66.6154 32.4981 66.5661 32.5105 66.5206 32.5321C66.4752 32.5537 66.4344 32.5841 66.4006 32.6214C66.3669 32.6588 66.3408 32.7025 66.324 32.7499C66.3071 32.7974 66.2998 32.8477 66.3024 32.8979C66.3736 34.3229 66.379 35.774 66.379 37.1905C65.7328 37.2198 65.0969 37.0212 64.5823 36.6294C64.5017 36.572 64.4021 36.548 64.3042 36.5623C64.2064 36.5767 64.1179 36.6283 64.0572 36.7064C63.9965 36.7845 63.9684 36.883 63.9786 36.9814C63.9889 37.0798 64.0368 37.1703 64.1124 37.2342C64.8843 37.8026 65.8448 38.0534 66.796 37.9348Z" fill="black"/>
<path d="M63.2962 40.8936C63.3973 40.9038 63.4983 40.8734 63.5771 40.809C63.6558 40.7447 63.7057 40.6517 63.7158 40.5506C63.726 40.4495 63.6956 40.3484 63.6313 40.2697C63.5669 40.191 63.474 40.1411 63.3728 40.1309C63.0615 40.1013 62.7655 39.9821 62.5206 39.7877C62.2757 39.5933 62.0925 39.332 61.9931 39.0356C61.8948 38.5289 61.9388 38.0048 62.1203 37.5217C62.8438 38.2226 63.662 38.8186 64.551 39.2923C64.5954 39.318 64.6445 39.3346 64.6954 39.3409C64.7464 39.3473 64.798 39.3433 64.8474 39.3293C64.8968 39.3154 64.9428 39.2916 64.9828 39.2595C65.0228 39.2274 65.056 39.1875 65.0803 39.1423C65.1047 39.0972 65.1197 39.0476 65.1245 38.9965C65.1293 38.9454 65.1238 38.8939 65.1083 38.8449C65.0928 38.796 65.0677 38.7507 65.0344 38.7117C65.001 38.6727 64.9602 38.6407 64.9143 38.6178C63.9313 38.0969 63.044 37.4126 62.2905 36.5942C62.2495 36.5491 62.1984 36.5145 62.1414 36.4932C62.0844 36.4719 62.0232 36.4644 61.9627 36.4714C61.9022 36.4785 61.8443 36.4998 61.7938 36.5337C61.7432 36.5676 61.7014 36.613 61.6719 36.6662C61.2258 37.4384 61.076 38.3465 61.2503 39.2211C61.3898 39.6697 61.6581 40.0675 62.0218 40.3649C62.3856 40.6622 62.8287 40.8461 63.2962 40.8936Z" fill="black"/>
<path d="M100.952 20.8863H103.399C103.381 21.5609 103.35 22.2362 103.288 22.9108C103.299 23.0067 103.344 23.0955 103.416 23.1599C103.488 23.2244 103.581 23.2601 103.678 23.2601C103.774 23.2601 103.867 23.2244 103.939 23.1599C104.011 23.0955 104.057 23.0067 104.067 22.9108C104.128 22.2362 104.16 21.5609 104.177 20.8863H106.793C106.896 20.8863 106.995 20.8453 107.068 20.7723C107.141 20.6993 107.182 20.6002 107.182 20.4969C107.182 20.3937 107.141 20.2946 107.068 20.2216C106.995 20.1486 106.896 20.1076 106.793 20.1076H104.193C104.193 19.3288 104.163 18.55 104.145 17.7704C104.135 17.3036 103.356 17.3036 103.366 17.7704C103.384 18.55 103.418 19.3288 103.414 20.1076H100.952C100.849 20.1076 100.75 20.1486 100.677 20.2216C100.604 20.2946 100.562 20.3937 100.562 20.4969C100.562 20.6002 100.604 20.6993 100.677 20.7723C100.75 20.8453 100.849 20.8863 100.952 20.8863Z" fill="black"/>
<path d="M129.068 36.151C132.151 33.728 129.63 28.9763 126.246 29.9321C125.601 30.1246 125.018 30.4841 124.556 30.9744C124.094 31.4646 123.77 32.0681 123.616 32.7238C122.919 35.5999 126.483 37.7017 129.068 36.151ZM126.809 30.6994L126.822 30.6918C127.413 30.6242 128.01 30.7676 128.506 31.0967C129.003 31.4258 129.367 31.9195 129.535 32.4908C129.705 32.9706 129.73 33.4894 129.609 33.9836C129.488 34.4778 129.225 34.926 128.853 35.2731C128.481 35.6203 128.016 35.8514 127.515 35.9382C127.013 36.025 126.498 35.9636 126.031 35.7616C125.528 35.5902 125.091 35.2647 124.783 34.8313C124.476 34.3979 124.312 33.8785 124.317 33.347C124.356 32.6836 124.627 32.0551 125.083 31.5712C125.539 31.0873 126.15 30.7787 126.809 30.6994Z" fill="black"/>
<path d="M135.139 21.0419C135.231 21.077 135.33 21.0861 135.426 21.0683C135.522 21.0504 135.612 21.0063 135.684 20.9407C137.064 20.8587 138.436 20.7192 139.812 20.5743C140.254 20.5743 140.268 20.0293 140.124 20.0293L137.943 15.8233C137.88 15.7436 137.794 15.6858 137.696 15.6583C137.598 15.6307 137.494 15.6349 137.398 15.67C137.231 15.67 135.76 18.1689 134.984 20.4992C134.935 20.5924 134.924 20.7006 134.953 20.8016C134.982 20.9025 135.049 20.9886 135.139 21.0419ZM137.642 16.8336L139.201 19.8415C138.147 19.9113 137.093 20.0078 136.039 20.1182C136.486 18.9822 137.023 17.8838 137.645 16.8336H137.642Z" fill="black"/>
<path d="M33.8951 129.538H31.3295L31.5503 127.233C31.5553 127.182 31.5504 127.132 31.5359 127.084C31.5214 127.035 31.4975 126.991 31.4657 126.952C31.4014 126.873 31.3084 126.823 31.2073 126.813C31.1061 126.803 31.0051 126.833 30.9264 126.897C30.8477 126.962 30.7978 127.055 30.7876 127.156L30.5576 129.532H28.521C28.4193 129.532 28.3218 129.572 28.25 129.644C28.1781 129.716 28.1377 129.814 28.1377 129.915C28.1377 130.017 28.1781 130.114 28.25 130.186C28.3218 130.258 28.4193 130.299 28.521 130.299H30.4856L30.2426 132.839C30.2362 132.938 30.2687 133.036 30.3333 133.112C30.3979 133.188 30.4895 133.236 30.5886 133.245C30.6878 133.255 30.7867 133.225 30.8645 133.163C30.9423 133.101 30.9928 133.011 31.0053 132.912L31.2559 130.299H33.8951C33.9968 130.299 34.0942 130.258 34.1661 130.186C34.238 130.114 34.2784 130.017 34.2784 129.915C34.2784 129.814 34.238 129.716 34.1661 129.644C34.0942 129.572 33.9968 129.532 33.8951 129.532V129.538Z" fill="black"/>
<path d="M48.0085 134.082C47.4386 134.287 46.9421 134.655 46.5815 135.142C46.2208 135.628 46.0123 136.21 45.9821 136.815C45.9519 137.42 46.1014 138.02 46.4118 138.54C46.7222 139.06 47.1795 139.476 47.7261 139.736C48.2728 139.997 48.8843 140.089 49.4835 140.003C50.0827 139.916 50.6429 139.654 51.0933 139.249C51.5437 138.844 51.8643 138.316 52.0146 137.729C52.1648 137.143 52.1381 136.525 51.9377 135.953C51.5752 134.853 49.6404 133.492 48.0085 134.082ZM49.8175 139.141C49.5328 139.243 49.2309 139.288 48.929 139.273C48.6271 139.258 48.331 139.183 48.0578 139.054C47.7846 138.925 47.5395 138.743 47.3366 138.519C47.1337 138.295 46.9769 138.033 46.8752 137.748C46.7735 137.463 46.7288 137.162 46.7438 136.86C46.7587 136.558 46.833 136.262 46.9624 135.988C47.0918 135.715 47.2737 135.47 47.4978 135.267C47.7218 135.064 47.9837 134.908 48.2684 134.806C48.8485 134.654 49.4636 134.714 50.004 134.974C50.5444 135.233 50.9749 135.677 51.2187 136.225C51.323 136.508 51.3693 136.809 51.355 137.11C51.3406 137.411 51.2659 137.706 51.1352 137.978C51.0045 138.25 50.8205 138.493 50.5941 138.692C50.3678 138.891 50.1037 139.043 49.8175 139.138V139.141Z" fill="black"/>
<path d="M63.0929 32.3522C63.4654 32.0203 63.559 30.8713 62.9066 30.695C62.2543 30.5187 61.7568 31.8448 62.078 32.3108C62.3471 32.6933 62.7196 32.6834 63.0929 32.3522Z" fill="black"/>
<path d="M69.4016 34.2991C69.7742 33.9672 69.8669 32.8182 69.2146 32.6419C68.5623 32.4656 68.0648 33.7917 68.3868 34.2577C68.6558 34.6402 69.0283 34.6303 69.4016 34.2991Z" fill="black"/>
</svg>
