<svg width="154" height="154" viewBox="0 0 154 154" fill="none" xmlns="http://www.w3.org/2000/svg">
<path d="M88.5339 101.902C88.5379 101.888 88.539 101.873 88.5372 101.858C88.5353 101.843 88.5305 101.828 88.523 101.815C88.5155 101.802 88.5055 101.79 88.4936 101.781C88.4817 101.772 88.468 101.765 88.4534 101.761C88.4388 101.757 88.4236 101.756 88.4085 101.757C88.3935 101.759 88.379 101.764 88.3658 101.772C88.3527 101.779 88.3411 101.789 88.3318 101.801C88.3225 101.813 88.3156 101.827 88.3116 101.841C87.8966 103.514 88.0282 105.277 88.6872 106.87C88.7332 106.969 88.8865 106.87 88.8635 106.793C88.3482 105.216 88.2349 103.535 88.5339 101.902ZM93.6926 101.672C93.7923 101.764 93.9686 101.672 93.8919 101.519C93.4831 100.996 92.9294 100.604 92.2998 100.393C91.6702 100.182 90.9923 100.16 90.3506 100.331C90.2586 100.331 90.3122 100.523 90.4042 100.507C91.0047 100.441 91.6126 100.511 92.1821 100.713C92.7516 100.914 93.2681 101.243 93.6926 101.672Z" fill="black"/>
<path d="M89.8833 99.5033C89.5502 99.1813 89.118 98.9814 88.6569 98.9361C88.7585 97.3399 89.0836 95.766 89.6227 94.2602C89.684 94.1376 89.4617 94.0379 89.4004 94.1606C88.7403 95.6549 88.4033 97.2718 88.4116 98.9054C88.4116 98.9054 87.2388 98.9897 86.8785 99.4266C86.7336 99.6234 86.663 99.8651 86.6792 100.109C85.6261 99.582 84.4503 99.3489 83.2758 99.4343C83.2433 99.4343 83.2121 99.4472 83.1891 99.4702C83.1661 99.4932 83.1532 99.5244 83.1532 99.557C83.1532 99.5895 83.1661 99.6207 83.1891 99.6437C83.2121 99.6667 83.2433 99.6796 83.2758 99.6796C84.4566 99.7021 85.6231 99.9411 86.7176 100.385C86.8015 100.712 86.9771 101.009 87.2238 101.241C87.4704 101.472 87.7779 101.628 88.1102 101.691C88.4425 101.754 88.7858 101.72 89.0999 101.595C89.4139 101.469 89.6857 101.257 89.8833 100.983C89.8833 100.983 90.4506 100.078 89.8833 99.5033ZM87.1085 99.6489C87.2695 99.2733 87.8137 99.1814 88.22 99.1737C88.7026 99.1536 89.1787 99.2908 89.5767 99.5646C89.753 99.7026 89.9677 99.8866 89.9293 100.109C89.5231 102.401 86.4033 101.351 87.1085 99.6489ZM20.6963 101.581C20.5327 102.724 20.7142 103.891 21.2175 104.93C21.2788 105.022 21.4398 104.93 21.4015 104.854C20.9839 103.814 20.8285 102.687 20.9492 101.573C21.0182 101.573 22.7812 101.45 22.7736 99.8176C23.6488 99.579 24.5679 99.5501 25.4564 99.7332C25.4813 99.7388 25.5074 99.7346 25.5292 99.7215C25.5511 99.7084 25.5671 99.6874 25.574 99.6628C25.5809 99.6383 25.5781 99.6121 25.5662 99.5895C25.5543 99.567 25.5342 99.5498 25.5101 99.5416C24.6061 99.2537 23.6315 99.278 22.7429 99.6106C22.6739 99.4266 22.1144 98.6524 20.589 98.8441C20.2717 98.2244 20.1901 97.5107 20.3592 96.8355C20.5284 96.1602 20.9369 95.5693 21.5088 95.1724C21.6238 95.0804 21.5088 94.9041 21.4015 94.9808C20.7615 95.3759 20.2945 95.9984 20.094 96.7233C19.8936 97.4483 19.9746 98.2223 20.3207 98.8901C19.1096 99.1813 19.0022 99.7792 18.9409 99.9862C17.9096 99.924 16.8775 100.094 15.9208 100.484C15.8974 100.499 15.8806 100.522 15.8742 100.548C15.8677 100.575 15.8721 100.603 15.8863 100.626C15.9005 100.65 15.9235 100.666 15.9501 100.673C15.9767 100.679 16.0047 100.675 16.0281 100.661C16.9639 100.408 17.9261 100.267 18.8949 100.239C18.9178 100.449 18.9836 100.651 19.0883 100.834C19.193 101.017 19.3343 101.177 19.5033 101.302C19.6723 101.428 19.8655 101.518 20.0708 101.566C20.2761 101.614 20.489 101.619 20.6963 101.581ZM19.3778 99.7332C20.1444 98.7674 22.5666 98.8364 22.5666 99.9095C22.49 101.266 20.5736 101.604 19.6078 101.006C19.4113 100.866 19.2745 100.658 19.2248 100.422C19.175 100.186 19.216 99.9402 19.3395 99.7332H19.3778ZM63.8903 33.9956C63.8881 33.9755 63.8815 33.9562 63.871 33.939C63.8605 33.9217 63.8464 33.907 63.8296 33.8958C63.8128 33.8846 63.7938 33.8773 63.7739 33.8742C63.7539 33.8712 63.7335 33.8726 63.7142 33.8783C63.6948 33.884 63.677 33.8938 63.6618 33.9072C63.6467 33.9205 63.6347 33.937 63.6266 33.9555C63.6186 33.974 63.6147 33.9941 63.6152 34.0142C63.6157 34.0344 63.6207 34.0542 63.6297 34.0722C63.6757 34.2102 63.9209 34.8924 63.9439 34.9384C63.9619 34.9603 63.9865 34.9758 64.014 34.9824C64.0416 34.9891 64.0705 34.9866 64.0965 34.9754C64.1225 34.9641 64.1441 34.9447 64.1581 34.92C64.172 34.8954 64.1776 34.8669 64.1739 34.8388C64.1662 34.7928 63.9439 34.1336 63.8903 33.9956ZM60.2109 35.2604C60.2039 35.2321 60.1877 35.207 60.1647 35.1891C60.1418 35.1712 60.1136 35.1614 60.0845 35.1614C60.0554 35.1614 60.0271 35.1712 60.0042 35.1891C59.9812 35.207 59.965 35.2321 59.958 35.2604C59.9234 35.4389 59.9252 35.6226 59.9634 35.8005C60.0016 35.9783 60.0754 36.1466 60.1803 36.2952C60.1962 36.3056 60.2145 36.3119 60.2335 36.3136C60.2525 36.3152 60.2716 36.312 60.2891 36.3044C60.3066 36.2968 60.3219 36.285 60.3337 36.27C60.3455 36.255 60.3533 36.2373 60.3566 36.2185C60.2575 35.9089 60.2084 35.5854 60.2109 35.2604ZM37.7746 64.3885C39.8059 64.5878 41.8372 64.8101 43.8685 65.0094C43.9682 65.0094 44.0218 64.9098 44.0065 64.8331C42.3048 56.8075 42.688 55.6347 42.3278 55.6347C40.1334 55.8348 37.9214 55.703 35.7663 55.2438C35.745 55.2373 35.7223 55.2366 35.7006 55.242C35.679 55.2474 35.6592 55.2585 35.6435 55.2743C35.6277 55.2901 35.6165 55.3098 35.6111 55.3315C35.6058 55.3531 35.6064 55.3758 35.613 55.3971C36.4791 58.2563 37.6213 64.3425 37.7746 64.3885ZM35.9196 55.5198C37.9879 55.9497 40.1075 56.0787 42.2128 55.903C42.5884 58.8465 43.0943 61.767 43.6922 64.6798L37.8129 64.0589C37.3741 61.1733 36.7415 58.3205 35.9196 55.5198ZM50.0161 61.3224C50.1464 61.3224 50.1081 61.1154 50.0161 61.1078C49.3262 61.1078 46.5284 61.0388 45.8232 60.9391C45.6928 60.9391 45.6315 61.1231 45.7695 61.1461C47.1774 61.3257 48.5981 61.3847 50.0161 61.3224ZM45.2942 58.6779C45.1563 58.6779 45.1639 58.8772 45.2942 58.8925C46.947 59.0135 48.6051 59.0468 50.2614 58.9921C50.3917 58.9921 50.3457 58.7852 50.2614 58.7775C49.8244 58.7392 46.1144 58.7392 45.2942 58.6779ZM45.1179 56.7845C46.6837 56.9834 48.2616 57.0705 49.8398 57.0452C49.8662 57.0384 49.8895 57.0231 49.9062 57.0015C49.9229 56.98 49.932 56.9536 49.932 56.9263C49.932 56.8991 49.9229 56.8727 49.9062 56.8511C49.8895 56.8296 49.8662 56.8143 49.8398 56.8075C49.0732 56.8075 45.5319 56.5929 45.1486 56.5852C45.1355 56.5832 45.1222 56.5838 45.1093 56.587C45.0964 56.5901 45.0843 56.5958 45.0737 56.6036C45.063 56.6114 45.0539 56.6213 45.0471 56.6326C45.0402 56.6439 45.0356 56.6565 45.0336 56.6696C45.0316 56.6826 45.0322 56.696 45.0353 56.7089C45.0385 56.7217 45.0441 56.7338 45.052 56.7445C45.0598 56.7552 45.0697 56.7642 45.081 56.7711C45.0923 56.778 45.1049 56.7825 45.1179 56.7845ZM52.308 62.0353C54.3924 62.13 56.4811 62.0324 58.5476 61.744C58.5871 61.7405 58.6241 61.7233 58.6521 61.6952C58.6802 61.6672 58.6974 61.6302 58.7009 61.5907C58.5092 56.6619 59.0765 56.0027 58.6012 56.0717C56.5162 56.3782 54.3993 56.4014 52.308 56.1407C52.2543 56.1407 52.0934 56.2173 52.0934 56.271C52.0397 58.1413 52.0934 60.004 52.147 61.8743C52.147 61.917 52.164 61.9579 52.1942 61.9881C52.2244 62.0183 52.2653 62.0353 52.308 62.0353ZM58.4786 56.4013C58.3559 58.0822 58.3252 59.7685 58.3866 61.4527C56.4224 61.7068 54.4404 61.7965 52.4613 61.721C52.4077 59.9656 52.3157 58.2103 52.285 56.4549C54.3482 56.5828 56.4179 56.5648 58.4786 56.4013ZM46.4977 65.3007C48.2224 65.408 55.949 65.3544 56.7845 65.2394C56.8919 65.2394 56.8612 65.0554 56.7845 65.0554C55.9337 65.0171 48.2377 65.1474 46.5207 65.1321C46.3904 65.1551 46.3904 65.293 46.4977 65.3007ZM56.087 68.0219C56.1134 68.0219 56.1388 68.0114 56.1575 67.9927C56.1762 67.974 56.1866 67.9487 56.1866 67.9222C56.1866 67.8958 56.1762 67.8704 56.1575 67.8518C56.1388 67.8331 56.1134 67.8226 56.087 67.8226C51.3115 67.8226 39.0854 67.24 37.7516 67.125C37.6443 67.125 37.6443 67.2783 37.7516 67.2937C42.5041 67.7766 54.7456 68.0679 56.087 68.0219ZM53.9484 71.7855C54.0864 71.7855 54.1247 71.5632 53.9867 71.5403C48.9197 70.9115 43.8226 70.5558 38.7174 70.4748C38.691 70.4748 38.6656 70.4853 38.647 70.504C38.6283 70.5226 38.6178 70.548 38.6178 70.5744C38.6178 70.6009 38.6283 70.6262 38.647 70.6449C38.6656 70.6636 38.691 70.6741 38.7174 70.6741C42.6804 70.8274 44.7807 70.9194 53.9484 71.7855ZM52.3157 75.028C52.3401 75.028 52.3635 75.0183 52.3807 75.001C52.398 74.9838 52.4077 74.9604 52.4077 74.936C52.4077 74.9116 52.398 74.8882 52.3807 74.8709C52.3635 74.8537 52.3401 74.844 52.3157 74.844C51.4572 74.752 39.9822 74.4991 39.001 74.4914C38.8937 74.4914 38.8937 74.66 39.001 74.66C42.4581 74.8057 51.3575 75.1199 52.3157 75.028ZM49.9471 78.9986C50.1081 78.9986 50.1004 78.7686 49.9471 78.7456C48.2301 78.5233 41.3083 77.9791 39.5836 77.9331C39.4916 77.9331 39.4686 78.0864 39.5836 78.0941C41.2623 78.3317 48.1994 78.9526 49.9471 78.9986ZM49.4105 82.3713C49.4332 82.3651 49.4532 82.3516 49.4674 82.3329C49.4817 82.3142 49.4894 82.2914 49.4894 82.2678C49.4894 82.2443 49.4817 82.2215 49.4674 82.2028C49.4532 82.1841 49.4332 82.1706 49.4105 82.1644C48.7513 81.9727 41.3236 81.3059 40.9787 81.3442C40.9624 81.3442 40.9468 81.3506 40.9353 81.3621C40.9238 81.3736 40.9174 81.3892 40.9174 81.4055C40.9174 81.4218 40.9238 81.4374 40.9353 81.4489C40.9468 81.4604 40.9624 81.4668 40.9787 81.4668C41.293 81.5741 48.7053 82.425 49.4105 82.3713ZM50.6983 85.6061C50.338 85.4988 42.9027 84.8396 41.3236 84.7399C41.224 84.7399 41.2316 84.8856 41.3236 84.8932C42.8567 85.0849 50.2614 85.8667 50.6676 85.8361C50.6981 85.8401 50.729 85.8319 50.7534 85.8132C50.7779 85.7945 50.7939 85.7669 50.7979 85.7364C50.802 85.7059 50.7938 85.675 50.7751 85.6506C50.7564 85.6262 50.7288 85.6102 50.6983 85.6061ZM52.0321 77.3122C52.2007 80.1791 52.331 83.0612 52.561 85.928C52.5456 85.9478 52.5359 85.9714 52.5329 85.9962C52.5299 86.0211 52.5338 86.0463 52.544 86.0691C52.5543 86.0919 52.5705 86.1116 52.5911 86.1259C52.6116 86.1402 52.6356 86.1486 52.6606 86.1503C54.5616 86.3213 56.4707 86.3853 58.3789 86.342C58.3977 86.343 58.4164 86.3402 58.4341 86.3337C58.4517 86.3273 58.4678 86.3173 58.4815 86.3044C58.4951 86.2914 58.506 86.2759 58.5134 86.2586C58.5208 86.2414 58.5246 86.2228 58.5246 86.204L58.0876 77.5575C58.0857 77.5182 58.0687 77.4811 58.0401 77.454C58.0116 77.4269 57.9737 77.4118 57.9343 77.4119L52.1777 77.1666C52.1583 77.1655 52.1388 77.1685 52.1207 77.1754C52.1025 77.1823 52.086 77.193 52.0722 77.2068C52.0585 77.2205 52.0478 77.237 52.0409 77.2552C52.0339 77.2734 52.0309 77.2928 52.0321 77.3122ZM57.7964 77.6955C57.942 80.4857 58.08 83.2758 58.2256 86.066C56.3967 86.1043 54.5671 86.0429 52.7449 85.882C52.6529 83.0765 52.4613 80.271 52.331 77.4502L57.7964 77.6955ZM21.5011 67.8072C19.8916 67.8822 18.299 68.1683 16.764 68.6581C16.4037 68.7731 15.1619 69.003 15.0699 69.486C14.978 69.9689 15.5835 69.9535 15.9055 69.9305C17.8206 69.7975 19.7084 69.4029 21.5165 68.7577C21.6926 68.7081 21.8552 68.619 21.9917 68.4971C22.0596 68.434 22.1053 68.3507 22.1218 68.2595C22.1384 68.1683 22.125 68.0742 22.0837 67.9912C21.9687 67.8149 21.7158 67.7996 21.5011 67.8072Z" fill="black"/>
<path d="M141.639 44.3131C139.7 39.254 127.888 7.02141 126.769 4.02427C126.697 3.9279 126.594 3.85999 126.477 3.83264C124.277 3.83264 110.794 4.14692 109.56 4.2389C109.407 4.2389 97.8245 41.8832 97.1499 44.3208C97.1499 44.3974 97.2726 46.2754 97.3262 46.4364C97.3799 46.5974 97.5485 46.5667 97.5715 46.4364C97.5945 46.3061 97.4719 44.7194 97.4642 44.6427C97.9778 44.6964 98.499 44.7424 98.9973 44.7807C98.854 45.5739 98.9093 46.3903 99.1582 47.157C99.1715 47.1809 99.1923 47.1997 99.2175 47.2104C99.2427 47.2212 99.2707 47.2232 99.2972 47.2161C99.3236 47.2091 99.3469 47.1934 99.3634 47.1715C99.3799 47.1497 99.3886 47.123 99.3882 47.0956C99.2 46.3445 99.1429 45.5666 99.2196 44.796C100.04 44.8727 100.868 44.934 101.695 44.9953C101.593 45.9056 101.705 46.8273 102.025 47.6859C102.038 47.7081 102.058 47.7255 102.082 47.7352C102.105 47.7448 102.132 47.7462 102.156 47.7392C102.181 47.7321 102.203 47.717 102.218 47.6962C102.233 47.6754 102.241 47.6502 102.24 47.6245C102.014 46.7724 101.913 45.8918 101.941 45.0107C102.799 45.072 103.665 45.1256 104.532 45.1716V47.5862C104.541 47.6133 104.559 47.6367 104.582 47.6533C104.605 47.6699 104.633 47.6788 104.662 47.6788C104.691 47.6788 104.719 47.6699 104.742 47.6533C104.765 47.6367 104.783 47.6133 104.792 47.5862V45.187L107.222 45.3096C107.222 45.6852 107.222 47.4866 107.276 47.6092C107.285 47.6327 107.3 47.6529 107.321 47.6672C107.341 47.6815 107.366 47.6892 107.391 47.6892C107.416 47.6892 107.44 47.6815 107.461 47.6672C107.481 47.6529 107.497 47.6327 107.506 47.6092C107.526 46.8421 107.505 46.0745 107.444 45.3096C108.403 45.3479 109.353 45.3863 110.311 45.4093C110.328 46.1787 110.389 46.9466 110.495 47.7089C110.495 47.8392 110.718 47.8008 110.725 47.7089C110.717 46.9401 110.666 46.1723 110.572 45.4093C111.591 45.4093 112.611 45.4553 113.638 45.4629C113.638 45.4629 113.546 47.2796 113.569 47.6245C113.569 47.7472 113.776 47.7932 113.791 47.6245C113.845 47.2796 113.906 45.4553 113.891 45.4323H116.405V47.3792C116.414 47.4027 116.43 47.423 116.45 47.4373C116.471 47.4515 116.495 47.4592 116.52 47.4592C116.545 47.4592 116.57 47.4515 116.59 47.4373C116.611 47.423 116.626 47.4027 116.635 47.3792C116.67 46.7307 116.67 46.0808 116.635 45.4323H116.934C116.827 50.8746 116.581 60.9008 116.581 61.8437C116.237 61.8437 96.2914 61.79 94.766 61.8437C92.8727 57.1832 89.7299 52.2544 85.5676 49.5792C81.7244 47.2098 77.289 45.9767 72.7743 46.0225C72.7743 46.0225 71.5095 42.4045 71.3792 41.9139C71.732 40.6449 71.9504 39.3423 72.0307 38.0276C72.2723 35.5389 72.3772 33.0388 72.345 30.5386C72.345 28.239 72.3987 26.315 70.0454 25.2802C69.9641 25.1363 69.9214 24.974 69.9214 24.8088C69.9214 24.6436 69.9641 24.4812 70.0454 24.3373C69.4585 24.3634 68.8883 24.5403 68.3897 24.8509C68.2734 24.2987 67.9906 23.7954 67.5794 23.4089C67.1682 23.0224 66.6484 22.7712 66.0901 22.6893C66.2959 22.8135 66.4612 22.9948 66.566 23.2112C66.6707 23.4275 66.7105 23.6696 66.6803 23.9081C62.3954 21.3019 61.3146 26.4836 59.2067 26.2077C58.6993 26.0735 58.2646 25.7461 57.9955 25.2955C57.797 25.6243 57.6986 26.0038 57.7122 26.3877C57.7258 26.7716 57.8509 27.1432 58.0722 27.4571C57.8504 27.3965 57.643 27.2918 57.4626 27.1493C57.2822 27.0067 57.1324 26.8292 57.0222 26.6274C56.912 26.4256 56.8436 26.2036 56.8212 25.9747C56.7988 25.7459 56.8228 25.5149 56.8917 25.2955C56.3236 25.565 55.8539 26.0056 55.5488 26.5554C55.2436 27.1053 55.1182 27.7369 55.19 28.3616C55.2727 28.8518 55.4699 29.3156 55.7656 29.7152C56.0613 30.1147 56.4471 30.4389 56.8917 30.6612C56.348 30.7762 55.7813 30.7061 55.282 30.4619C55.7932 31.3085 56.5691 31.9632 57.4896 32.3246C57.5788 34.376 57.9874 36.401 58.7008 38.3265C58.3283 39.5066 58.2597 40.7616 58.5015 41.9752C59.0227 46.0608 62.8553 47.6399 66.688 46.3214C66.4044 46.973 65.6532 47.019 65.0016 47.1646C64.0778 47.3665 63.1666 47.6225 62.2728 47.9311C60.4999 48.6452 58.8255 49.5828 57.2903 50.7213C42.4656 51.1123 34.992 50.6523 32.861 50.4914C34.4477 49.3952 36.1801 47.5632 35.5975 45.7159C35.2931 44.8207 34.8223 43.9911 34.2101 43.2706C31.5809 40.0589 27.2423 39.6296 23.701 38.1885C23.3177 38.0276 19.5924 36.1802 19.1784 34.5935C19.1079 34.3684 19.1083 34.127 19.1796 33.9021C19.2509 33.6772 19.3896 33.4797 19.577 33.3364C19.692 33.2674 19.6614 33.0451 19.508 33.0605C18.6983 33.1373 17.9285 33.4484 17.2928 33.9558C16.657 34.4632 16.1829 35.1448 15.9284 35.9173C15.6739 36.6898 15.6499 37.5198 15.8596 38.3057C16.0692 39.0916 16.5033 39.7994 17.1088 40.3425C18.3046 41.4923 19.8913 42.0595 21.2864 42.9027C22.6815 43.7459 24.0766 44.9877 24.0076 46.7354C23.9386 48.4831 22.4209 49.9395 20.8801 50.6677C19.1938 51.4342 17.3234 51.7331 15.5987 52.4307C12.41 53.7261 11.5285 56.2633 12.0037 57.9037C12.2566 58.64 12.7725 59.2569 13.4525 59.6361C14.9855 60.5636 17.2085 60.4026 18.3736 61.9357C18.6665 62.276 18.8294 62.7089 18.8336 63.1579C18.8379 63.6069 18.683 64.0428 18.3966 64.3886C17.8447 65.0784 15.5834 66.4505 15.3305 66.6882C15.2461 66.7878 15.3841 66.9334 15.4761 66.8338C16.545 66.3235 17.6987 66.0142 18.8795 65.9216C20.7498 65.6073 25.9316 63.7217 26.8207 62.135C26.995 61.8651 27.0558 61.5374 26.9898 61.2231C26.9237 60.9087 26.7363 60.6331 26.4681 60.4563C26.1155 60.2033 24.7588 60.3413 24.1072 59.3678C22.8348 57.4821 24.4905 55.3512 26.0159 54.2167C27.3333 53.3312 28.7383 52.5838 30.2088 51.9861C31.8645 56.5853 35.0993 67.7843 35.3292 68.6658C34.762 68.7425 30.4004 69.371 29.7872 69.4323C29.174 69.4937 26.7824 68.8804 26.3762 69.1564C25.4796 68.7258 24.4635 68.6123 23.494 68.8344C23.3014 68.1377 23.0448 67.4603 22.7275 66.8108C17.8063 66.8108 14.8399 68.4052 13.5904 69.371C13.5444 69.371 13.5904 69.5396 13.5904 69.5626C14.0274 71.2413 16.1353 78.761 16.4343 79.5965C16.4343 79.6425 21.6237 81.3596 25.6326 77.6572C25.6326 77.6572 25.4487 76.4997 25.418 75.9632C26.0931 75.8991 26.725 75.6028 27.2059 75.1247C27.6868 74.6466 27.9869 74.0163 28.0549 73.3416C31.0385 73.6428 33.9905 74.2019 36.8776 75.0127C37.2992 76.86 38.8016 84.7783 39.1772 86.8709C38.4243 86.8724 37.6857 87.0763 37.0386 87.4611C36.9543 87.5148 18.067 88.404 16.3423 89.2855C14.8456 89.9433 13.6161 91.089 12.8546 92.5356C12.199 94.0363 11.9607 95.6861 12.1647 97.3111C12.5786 101.144 14.8399 104.44 16.6642 107.744C18.113 110.38 17.8063 115.202 17.883 116.29C16.166 115.378 11.8887 115.899 11.8657 115.915C11.7547 116.016 11.6871 116.156 11.6771 116.306C11.6671 116.456 11.7154 116.604 11.8121 116.72C13.6509 119.076 15.8075 121.165 18.2203 122.929C18.3353 126.186 18.2893 134.871 18.2203 135.96C18.2203 136.465 17.9826 138.397 18.0286 138.857C18.0541 139.223 18.1713 139.576 18.3697 139.884C18.568 140.192 18.8409 140.445 19.1631 140.62C20.2439 141.157 20.2286 140.973 42.343 140.52C42.343 140.896 42.389 141.287 42.4043 141.632H44.221V144.568C44.1673 144.522 43.6997 144.299 43.5234 144.368C42.5842 144.74 41.6811 145.196 40.8253 145.733C38.3034 147.266 37.9738 148.554 37.9738 148.577C37.9555 148.721 37.9928 148.867 38.0782 148.985C38.1636 149.104 38.2907 149.185 38.4337 149.213C40.7333 149.657 48.4982 149.351 49.2648 149.213C49.7093 149.121 49.7553 148.707 49.7323 148.262C49.7253 148.135 49.6752 148.014 49.5902 147.92C49.5052 147.825 49.3904 147.762 49.2648 147.741C49.7093 146.798 49.0885 145.648 48.4982 144.805C47.908 143.962 48.1533 142.007 48.161 141.839C48.8815 141.892 49.602 141.946 50.3302 142.015C50.3689 141.444 50.4561 140.877 50.5909 140.321C55.2094 140.241 59.8181 139.865 64.3884 139.194C64.3884 139.194 64.9556 136.128 65.1549 134.595C66.3354 134.595 75.6564 134.595 79.1365 134.534C79.2361 135.423 79.857 140.666 79.903 140.666C83.2527 142.084 87.5683 142.414 91.1786 142.306C91.3243 142.306 98.729 141.854 103.213 141.095C105.337 140.776 107.482 140.617 109.629 140.62C108.495 141.341 104.263 143.809 103.359 144.414C103.328 144.46 103.312 144.513 103.312 144.568C103.312 144.622 103.328 144.676 103.359 144.721C107.513 147.067 114.336 146.844 119.579 146.844C121.763 146.844 124.753 146.99 128.263 145.457C129.03 145.127 130.709 144.307 130.371 143.533C130.318 143.441 122.652 139.263 121.219 138.397C120.514 132.755 120.023 127.236 121.165 120.545C121.495 118.613 123.02 112.596 126.991 104.447C129.16 100.025 128.654 94.9731 126.447 91.7537C126.067 91.1688 125.593 90.6508 125.044 90.2206C124.242 89.8237 123.379 89.5646 122.491 89.4541C123.925 83.3219 125.059 76.5687 124.952 70.2908C125.033 68.3938 124.621 66.5081 123.756 64.8178C122.867 63.2848 121.204 62.0047 119.364 62.1503C119.41 57.4975 119.471 46.6817 119.471 45.4246H119.87V47.5479C119.879 47.5731 119.896 47.595 119.918 47.6104C119.94 47.6259 119.966 47.6342 119.993 47.6342C120.019 47.6342 120.046 47.6259 120.068 47.6104C120.089 47.595 120.106 47.5731 120.115 47.5479C120.154 47.3639 120.161 45.7465 120.115 45.4169H122.277C122.284 46.0653 122.328 46.7127 122.407 47.3563C122.413 47.3789 122.427 47.3989 122.446 47.4132C122.464 47.4274 122.487 47.4351 122.511 47.4351C122.534 47.4351 122.557 47.4274 122.576 47.4132C122.594 47.3989 122.608 47.3789 122.614 47.3563C122.604 46.7168 122.547 46.079 122.445 45.4476L124.745 45.3786C124.66 46.074 124.785 46.779 125.105 47.4022C125.159 47.4712 125.297 47.4636 125.289 47.3563C125.087 46.7173 124.996 46.0483 125.021 45.3786L128.01 45.2253C128.01 45.2253 127.957 46.881 128.01 47.042C128.02 47.069 128.037 47.0925 128.061 47.1091C128.084 47.1257 128.112 47.1346 128.141 47.1346C128.169 47.1346 128.197 47.1257 128.221 47.1091C128.244 47.0925 128.262 47.069 128.271 47.042V45.2176L130.502 45.1256C130.302 45.8724 130.364 46.6651 130.678 47.3716C130.739 47.5019 130.939 47.3716 130.9 47.2796C130.674 46.5796 130.621 45.8351 130.747 45.1103L133.499 44.9723C133.46 45.6566 133.46 46.3424 133.499 47.0266C133.505 47.0493 133.519 47.0693 133.537 47.0836C133.556 47.0978 133.579 47.1055 133.602 47.1055C133.626 47.1055 133.649 47.0978 133.667 47.0836C133.686 47.0693 133.7 47.0493 133.706 47.0266C133.744 46.3373 133.744 45.6463 133.706 44.957L136.059 44.8344C136.059 45.1333 136.059 46.5667 136.136 46.72C136.142 46.7427 136.155 46.7627 136.174 46.7769C136.193 46.7912 136.216 46.7989 136.239 46.7989C136.263 46.7989 136.286 46.7912 136.304 46.7769C136.323 46.7627 136.336 46.7427 136.343 46.72C136.351 46.0856 136.328 45.4511 136.274 44.819L138.704 44.6734C138.704 44.9647 138.834 46.2065 138.903 46.4901C138.91 46.5165 138.925 46.5398 138.946 46.5565C138.968 46.5732 138.994 46.5823 139.022 46.5823C139.049 46.5823 139.075 46.5732 139.097 46.5565C139.118 46.5398 139.134 46.5165 139.14 46.4901C139.14 46.1758 138.972 44.957 138.926 44.6964L141.356 44.5431C141.091 45.0671 141.031 45.6711 141.187 46.2371C141.187 46.3138 141.402 46.2984 141.379 46.2371C141.284 45.584 141.375 44.9175 141.639 44.3131ZM104.792 44.9493C102.339 44.819 99.8941 44.6427 97.4489 44.4358C97.5409 44.2825 109.713 4.32322 109.713 4.39987H112.925C111.975 9.6736 105.467 42.0059 104.792 44.9493ZM105.191 44.9493C106.318 39.7063 113.17 4.32322 113.163 4.32322H116.811C116.589 7.02141 115.11 42.2358 114.979 45.2253C112.35 45.2253 105.85 45.003 105.191 44.9723V44.9493ZM116.689 62.1963V64.0666C115.914 65.4826 115.225 66.9442 114.627 68.4435C112.45 73.6789 111.338 81.8425 112.596 89.4311C90.9334 89.5001 92.6121 89.4848 92.6197 89.4311C92.6811 88.6646 92.5047 84.648 92.4971 84.6326C93.5422 83.6274 94.3715 82.4199 94.9346 81.0836C96.7743 76.699 95.6015 71.8852 94.4517 67.4164C95.065 67.1404 95.6705 66.8415 96.2607 66.5118C96.3527 66.4582 96.3527 66.2206 96.3374 66.1669C95.971 64.8673 95.536 63.5879 95.0343 62.3343C97.7938 62.2576 116.666 62.2499 116.689 62.2193V62.1963ZM116.758 64.5802L116.344 89.4235H113.002C112.087 84.3072 112.193 79.0603 113.316 73.9855C114.167 69.8309 114.979 68.1292 116.758 64.6032V64.5802ZM78.2779 123.779C72.1457 123.779 55.9182 123.618 53.8946 123.595C54.6611 118.927 56.1022 107.751 55.9719 106.732C57.505 106.732 65.3082 106.64 67.6845 106.647C71.4565 107.074 75.2666 107.035 79.0291 106.532C78.2933 110.097 77.6724 113.155 78.2779 123.802V123.779ZM63.3153 85.2689C63.0087 83.7358 62.0582 78.577 61.9662 77.6035C62.3096 77.5771 62.6546 77.6281 62.9757 77.7528C63.2967 77.8775 63.5857 78.0727 63.8212 78.3241C64.6644 78.9373 73.5791 84.2724 74.4606 84.7476C76.2588 85.7197 78.1584 86.4908 80.1253 87.0472C84.8394 88.3656 88.6261 88.174 92.2441 84.8703C92.2441 85.1385 92.3438 89.3545 92.4434 89.4694H90.1438C88.7414 89.5736 87.381 89.9957 86.1659 90.7035C84.9507 91.4114 83.9125 92.3865 83.1301 93.5551C80.2633 91.769 70.3597 87.2695 63.3153 85.2689ZM63.8595 89.96H63.093C63.047 89.7914 61.2073 82.1337 60.8854 80.3937C60.7091 79.4815 60.5788 78.5617 60.3871 77.6495C60.8236 77.6763 61.2614 77.6763 61.6979 77.6495C62.0198 81.0146 63.6219 89.2088 63.8595 89.96ZM88.1509 87.0089C84.6555 88.2507 79.8723 86.9246 76.4843 85.4375C74.7519 84.671 73.2342 83.5442 71.5708 82.6473C66.9716 80.1868 63.3076 77.6342 62.932 77.4809C61.7056 76.9827 60.5481 78.2474 57.436 76.0552C57.3593 76.0015 57.1984 75.9018 57.2214 75.7945C57.2443 75.6872 57.528 75.7102 57.6353 75.7255C58.1254 75.8029 58.6026 75.9474 59.0534 76.1548C59.1837 76.2085 59.3063 76.0168 59.1683 75.9555C58.3808 75.5724 57.627 75.1237 56.9147 74.6141C56.7998 74.4378 56.9147 74.2768 57.1064 74.2921C57.1754 74.2921 58.8157 75.0587 59.2373 75.2273C59.3676 75.2886 59.4749 75.1047 59.3523 75.0357C58.5197 74.6562 57.7085 74.2314 56.9224 73.7632C56.5851 73.4336 56.7384 73.081 57.0067 73.081C57.068 73.127 58.5398 73.7172 59.2067 73.9395C59.3983 74.0085 59.4749 73.7096 59.291 73.6406C58.8081 73.4643 57.436 72.9814 57.2597 72.8741C57.0834 72.7667 56.9531 72.5215 57.2597 72.4448C57.5663 72.3681 59.5593 72.5598 60.0958 72.5981C60.1205 72.5993 60.1451 72.5944 60.1675 72.584C60.1899 72.5736 60.2094 72.558 60.2245 72.5384C60.2395 72.5189 60.2496 72.496 60.2539 72.4716C60.2582 72.4473 60.2566 72.4223 60.2491 72.3988C60.1116 72.1268 60.0659 71.8175 60.1188 71.5173C60.2108 71.2413 60.3488 71.4253 60.4714 71.5939C60.7321 71.9389 61.9125 73.7786 62.9703 74.0545C67.0176 75.12 71.2872 75.2273 75.1198 75.6719C76.0703 75.7792 78.7992 76.2545 79.2131 76.3694C79.4967 76.4538 80.4089 76.7374 80.3936 76.4384C80.3246 75.4803 79.673 71.6246 79.5734 70.6358C81.413 70.5438 92.5277 68.8268 94.1988 67.5697C95.1876 71.3487 96.1841 75.327 95.2643 79.2286C94.8327 81.0209 93.9538 82.6746 92.7099 84.0351C91.4659 85.3957 89.8974 86.4188 88.1509 87.0089ZM64.6337 39.6373C64.2658 40.5648 63.1006 40.2735 62.7864 40.0895C62.7599 40.0733 62.741 40.0472 62.7339 40.017C62.7267 39.9868 62.7318 39.955 62.748 39.9286C62.7643 39.9021 62.7904 39.8833 62.8206 39.8761C62.8508 39.8689 62.8826 39.874 62.909 39.8902C63.1313 40.0129 64.0971 40.1892 64.4421 39.5146C64.5187 39.4227 64.6644 39.5606 64.6337 39.6373ZM63.9132 36.9544C63.8434 37.1525 63.727 37.3309 63.5739 37.4747C63.4208 37.6184 63.2353 37.7232 63.0332 37.7803C62.8311 37.8374 62.6182 37.8451 62.4125 37.8028C62.2068 37.7604 62.0143 37.6693 61.8512 37.537C62.0462 36.4176 61.9939 35.269 61.6979 34.1719C61.6979 34.034 61.4679 34.0953 61.4909 34.2332C61.6593 35.2718 61.7132 36.3257 61.6519 37.376C61.1685 37.4523 60.72 37.6745 60.3665 38.0129C60.013 38.3513 59.7715 38.7897 59.6742 39.2694C59.6742 39.2694 58.6548 38.2345 58.1795 35.682C57.9802 34.5935 57.7579 33.505 57.6659 32.4012C60.0345 33.1678 63.3306 32.156 66.3047 29.6954C66.6774 30.2566 67.1728 30.7258 67.7535 31.0675C68.1434 30.8785 68.5923 30.8516 69.002 30.9924C69.4118 31.1333 69.7492 31.4305 69.9405 31.8193C70.1319 32.2081 70.1616 32.6567 70.0233 33.0674C69.885 33.478 69.5898 33.8172 69.2022 34.011C69.3632 35.1454 69.3095 37.33 67.9451 37.6673C66.8643 37.9356 66.0901 37.2457 63.9132 36.9544ZM66.9793 46.1528C68.8272 45.4194 70.3542 44.0528 71.2872 42.2971C71.3945 42.6881 72.575 46.2141 72.6899 46.4134C72.5079 47.1265 72.1574 47.7855 71.6679 48.335C71.1784 48.8846 70.5641 49.3086 69.8768 49.5715C65.8755 51.3729 64.2734 48.9276 65.4232 47.4099C65.4309 47.4022 66.8106 47.1953 67.0023 46.1911L66.9793 46.1528ZM65.0476 47.4252C64.2811 48.3221 64.8177 50.0698 66.5807 50.4454C68.3437 50.821 72.4293 49.4412 72.9889 46.4058C72.9889 46.3368 81.3441 47.111 84.7858 49.4719C93.003 55.0369 95.5172 64.8025 95.9465 66.2512C91.0177 69.463 78.8988 70.2832 77.5497 70.3675C76.7895 66.896 76.5698 63.3279 76.8982 59.7894C76.8982 59.6974 76.7679 59.7051 76.7602 59.7894C76.3309 63.3858 76.5071 67.0286 77.2814 70.5668C77.2909 70.5986 77.31 70.6268 77.336 70.6474C77.3621 70.668 77.3939 70.68 77.4271 70.6818C78.0403 70.6818 78.6612 70.6818 79.2744 70.6358C79.3281 71.5863 79.9643 75.3499 80.041 76.2928C78.5129 75.8723 76.9548 75.5699 75.3805 75.3883C64.4651 74.2308 62.4414 74.1695 61.3453 72.4141C61.4219 69.555 62.1808 62.6562 65.8601 50.4914C65.8658 50.4685 65.8664 50.4447 65.8618 50.4216C65.8573 50.3985 65.8477 50.3767 65.8339 50.3577C65.82 50.3387 65.8021 50.323 65.7815 50.3116C65.7608 50.3003 65.738 50.2936 65.7145 50.2921C63.0163 50.4607 60.3156 50.6038 57.6123 50.7213C57.9496 50.591 61.8129 48.0385 65.0706 47.4636L65.0476 47.4252ZM65.5535 50.591C61.4756 64.3886 61.1536 70.6588 61.1843 72.1152C61.1307 72.0385 60.7167 70.9424 60.1802 71.0114C60.4254 66.0289 61.3836 61.4987 63.7215 52.1317C63.7215 52.0398 63.6755 51.9171 63.5682 51.9324C53.2692 52.9322 42.8969 52.9193 32.6004 51.8941C32.4262 51.5892 32.2701 51.2744 32.1328 50.9513C32.2325 50.89 32.3321 50.8363 32.4318 50.7673C36.64 51.1582 49.0578 51.5108 65.5535 50.591ZM32.2325 51.8941L30.799 51.6948C31.0213 51.5875 31.7342 51.2119 31.8722 51.1352C31.9872 51.3575 32.1021 51.6488 32.2325 51.8941ZM27.158 53.0669C25.556 53.9637 23.793 55.3128 23.3944 57.2138C23.2972 57.6596 23.2991 58.1213 23.3997 58.5663C23.5004 59.0113 23.6974 59.4288 23.9769 59.7894C24.7434 60.7782 25.51 60.1803 26.2765 60.7705C27.043 61.3608 26.5525 62.089 26.0619 62.5412C24.3289 63.7247 22.416 64.6203 20.3972 65.1934C19.0021 65.6073 17.607 65.822 16.3269 66.2436C17.4231 65.523 18.7952 64.9865 19.0865 63.6144C19.1491 63.2416 19.119 62.8592 18.9987 62.5009C18.8783 62.1425 18.6715 61.8194 18.3966 61.5601C17.7518 60.96 16.9575 60.5444 16.097 60.3566C14.5103 59.8737 12.3563 59.3601 12.1647 57.3671C12.1405 56.5227 12.3549 55.6885 12.7834 54.9604C13.2118 54.2323 13.8369 53.6398 14.5869 53.2509C17.5381 51.5492 21.8766 51.8405 23.7393 48.5367C24.1346 47.8877 24.3121 47.1293 24.2459 46.3722C24.1797 45.6151 23.8733 44.8991 23.3714 44.3285C21.2557 41.7069 16.7715 41.454 16.0663 38.0352C15.8568 37.0304 16.0526 35.9834 16.611 35.1222C17.1694 34.2609 18.0453 33.6549 19.0481 33.4361C18.8939 33.7001 18.8126 34.0003 18.8126 34.3061C18.8126 34.6118 18.8939 34.9121 19.0481 35.1761C19.5492 35.9697 20.2225 36.6404 21.0181 37.1384C25.4793 40.2428 32.1635 39.4916 34.8923 44.957C35.7202 46.6127 35.4059 47.042 34.4554 48.529C33.1676 50.6293 29.4499 51.7868 27.158 53.0669ZM25.2954 75.7332C25.2779 75.7337 25.2609 75.7382 25.2454 75.7463C25.23 75.7544 25.2166 75.7659 25.2063 75.7799C25.1959 75.794 25.1889 75.8102 25.1858 75.8273C25.1826 75.8444 25.1834 75.8621 25.188 75.8789C25.3413 76.4154 25.3183 76.998 25.4563 77.5422C24.2383 78.5321 22.8026 79.2185 21.2673 79.545C19.7321 79.8715 18.1413 79.8288 16.6259 79.4202L13.897 69.4553C16.5566 67.8341 19.6294 67.0193 22.7428 67.1097C22.8617 67.7906 23.0624 68.4547 23.3407 69.0874C24.2566 68.8755 25.2149 68.9422 26.0925 69.279C25.7071 69.6256 25.3671 70.0197 25.0807 70.4518C24.6668 70.3828 24.1915 70.1375 23.77 70.3062C23.3484 70.4748 23.379 70.9424 23.5553 71.3027C24.0603 72.3587 24.3892 73.4902 24.5288 74.6524C24.5288 74.8057 24.7894 74.8057 24.7741 74.6524C24.7778 74.5886 24.7778 74.5246 24.7741 74.4608C25.3011 74.5359 25.8381 74.4968 26.3487 74.346C26.8592 74.1952 27.3313 73.9363 27.7329 73.5869C27.6219 74.1642 27.3223 74.6883 26.8811 75.0768C26.4399 75.4653 25.8821 75.6962 25.2954 75.7332ZM27.7023 73.242C26.8667 74.4684 25.1267 74.3075 24.7741 74.2768C24.5918 73.215 24.2642 72.1832 23.8006 71.2107C23.678 70.9961 23.5707 70.6818 23.8543 70.5515C24.1379 70.4212 24.6208 70.6434 24.9811 70.6281C24.8814 70.8121 24.7434 71.088 24.8661 71.2797C25.1574 71.7319 26.2075 71.0574 26.5985 70.6818C26.6571 70.6804 26.7152 70.6938 26.7674 70.7205C26.8196 70.7473 26.8643 70.7867 26.8974 70.8351C27.273 71.4023 26.3302 71.9082 25.9469 72.0385C25.9286 72.0385 25.9111 72.0458 25.8981 72.0587C25.8852 72.0717 25.8779 72.0892 25.8779 72.1075C25.8779 72.1258 25.8852 72.1434 25.8981 72.1563C25.9111 72.1692 25.9286 72.1765 25.9469 72.1765C26.1809 72.1345 26.4037 72.0447 26.6015 71.9129C26.7993 71.781 26.9679 71.6098 27.0967 71.41C27.1716 71.454 27.2368 71.5127 27.2884 71.5825C27.34 71.6524 27.3769 71.7319 27.397 71.8165C27.417 71.9009 27.4198 71.9886 27.405 72.0742C27.3903 72.1598 27.3584 72.2415 27.3113 72.3145C27.1523 72.5107 26.9545 72.6718 26.7303 72.7879C26.506 72.904 26.2602 72.9725 26.0082 72.989C25.9009 72.989 25.9469 73.173 26.0542 73.1577C26.3406 73.1452 26.6208 73.0701 26.8751 72.9376C27.1294 72.8052 27.3515 72.6187 27.526 72.3911C27.5981 72.4315 27.6604 72.4873 27.7084 72.5546C27.7565 72.6219 27.789 72.699 27.8036 72.7803C27.8183 72.8617 27.8147 72.9453 27.7932 73.0251C27.7717 73.1049 27.7328 73.179 27.6793 73.242H27.7023ZM28.0242 73.0734C28.0242 73.0734 28.1852 72.4141 27.6563 72.2148C27.7196 72.0062 27.7004 71.7812 27.6026 71.5863C27.5089 71.4289 27.37 71.3034 27.204 71.226C27.2215 71.1237 27.2154 71.0187 27.1862 70.9191C27.157 70.8194 27.1054 70.7278 27.0354 70.6511C26.7901 70.3828 26.7211 70.5975 26.8821 70.3598C26.9664 70.2449 26.7824 70.1069 26.6904 70.2065C26.3943 70.4866 26.0764 70.7429 25.7399 70.9731C25.625 71.042 25.0807 71.3333 25.0807 71.0727C25.272 70.594 25.5385 70.1489 25.8702 69.7543C26.0641 69.5513 26.3199 69.4185 26.5974 69.3769C26.875 69.3353 27.1585 69.3871 27.4033 69.5243C27.8394 69.6768 28.2981 69.7546 28.7601 69.7543C29.7949 69.7543 34.854 68.9877 35.4059 68.8881C35.9169 70.8351 36.3922 72.7897 36.8316 74.7521C33.9266 74.0064 30.9772 73.4457 28.0012 73.0734H28.0242ZM30.5844 51.8864C34.716 52.5303 46.3673 53.9867 63.3919 52.2927C60.0958 64.2429 59.9042 71.1877 59.9119 71.2107C59.8258 71.3721 59.7757 71.5502 59.7651 71.7329C59.7545 71.9155 59.7837 72.0982 59.8506 72.2685C59.245 72.2225 57.045 71.8239 56.7844 72.3911C56.739 72.4758 56.7198 72.572 56.7294 72.6676C56.7389 72.7632 56.7768 72.8538 56.8381 72.9277C56.4088 73.012 56.5085 73.5256 56.6618 73.7556C56.7475 73.8783 56.857 73.9825 56.9837 74.0622C56.9045 74.0608 56.827 74.0855 56.7632 74.1327C56.6995 74.1798 56.653 74.2466 56.6311 74.3228C56.4701 74.8057 57.2367 75.189 57.8192 75.5263C57.8192 75.5263 57.0527 75.3959 56.9914 75.7102C56.9301 76.0245 57.2597 76.2238 57.459 76.3618C58.2964 76.9203 59.2213 77.3348 60.1955 77.5882C60.8192 81.7517 61.7076 85.8712 62.8553 89.9217C59.406 89.7837 40.9479 89.5461 39.5758 87.7141C39.2692 85.6291 37.6748 72.8587 30.5614 51.8864H30.5844ZM39.0929 107.491C39.8594 107.422 40.626 107.368 41.3388 107.314C41.3388 107.468 41.4921 121.94 41.5075 123.519C31.9335 123.442 33.1676 123.519 31.4123 123.519C31.3663 118.981 31.3279 114.849 31.3126 113.899C34.0847 111.989 36.6877 109.845 39.0929 107.491ZM36.3947 87.9287C35.7585 88.5036 30.5078 95.7243 29.0743 98.0853C27.181 89.3621 20.8265 88.9482 20.6425 88.8869C25.2187 88.7336 35.7125 87.9747 36.3717 87.9287H36.3947ZM17.3464 108.38C16.3346 106.027 14.5639 103.482 13.4141 100.668C12.2413 97.6943 11.8811 93.7697 14.1807 91.2248C16.166 89.0095 19.9756 88.381 23.2717 90.3816C26.2152 92.1676 27.8709 95.3104 28.7831 98.5452C28.5301 98.9668 20.4585 110.902 19.7917 111.867C19.7917 111.906 21.1867 113.286 21.57 113.646C21.2097 114.175 19.6997 116.329 19.2704 116.873C18.9333 116.692 18.5821 116.538 18.2203 116.413C18.2203 116.413 18.3276 110.641 17.3464 108.38ZM19.4007 117.019C19.8147 116.474 21.386 114.351 21.7386 113.822C22.6968 114.727 23.6473 115.631 24.5825 116.559C23.8676 117.186 23.2155 117.882 22.6355 118.636C21.8306 119.901 22.3902 121.48 20.6578 122.691C20.5352 122.584 19.5617 121.679 19.2704 121.365C19.1916 121.28 19.1389 121.174 19.1185 121.06C19.0981 120.946 19.111 120.828 19.1554 120.721C19.3241 120.345 20.1519 118.498 19.4007 117.019ZM19.6997 140.49C19.3062 140.377 18.9597 140.14 18.7124 139.814C18.465 139.488 18.33 139.09 18.3276 138.681C18.2586 137.194 18.9715 137.063 18.5422 123.166C19.1861 123.626 19.8223 124.04 20.4355 124.408C20.5384 124.475 20.6602 124.508 20.783 124.501C20.9058 124.494 21.0231 124.448 21.1178 124.37C21.237 124.267 21.3473 124.154 21.4474 124.032C21.4935 123.968 21.5263 123.895 21.5436 123.817C21.5609 123.74 21.5624 123.66 21.5481 123.582C21.5338 123.504 21.504 123.43 21.4603 123.364C21.4167 123.297 21.3601 123.241 21.2941 123.197L20.7958 122.806C22.5205 121.694 22.0759 120.062 22.7811 118.881C23.3598 118.095 24.0287 117.38 24.7741 116.75L25.6326 117.624C25.6326 117.624 27.9859 116.168 30.9983 114.067C31.052 116.543 31.3203 139.363 31.4276 140.451C29.381 140.49 20.4585 140.712 19.6997 140.49ZM31.3893 123.626C35.5669 123.703 36.6477 123.733 41.4845 123.772C41.5305 128.049 41.5841 131.008 41.8524 134.58C41.8524 134.58 34.9536 134.787 31.5119 134.986C31.4736 132.311 31.4276 127.804 31.4276 123.626H31.3893ZM31.6192 140.451C31.6192 139.501 31.5349 136.006 31.5196 135.216C34.969 135.052 38.4209 134.93 41.8754 134.848C41.8754 135.262 42.251 138.872 42.343 140.26L31.6192 140.451ZM48.9735 147.764C48.1589 147.806 47.3428 147.806 46.5282 147.764C46.4169 147.751 46.3119 147.705 46.2261 147.633C46.1403 147.561 46.0774 147.465 46.0453 147.358C45.7492 146.366 45.1777 145.478 44.3973 144.798C44.451 143.962 44.4816 141.9 44.4816 141.731C45.6212 141.762 46.7633 141.816 47.908 141.892C47.8626 142.775 47.9218 143.66 48.0843 144.529C48.4292 145.503 49.5867 146.622 48.9735 147.764ZM48.8048 98.8824C45.6237 98.8824 41.9751 102.148 41.3465 107L39.3612 107.153C40.1222 106.368 40.8146 105.519 41.4308 104.616C42.4733 100.868 46.0683 98.2232 49.0961 98.1696C50.6749 98.2189 52.1783 98.8558 53.312 99.9556C54.3463 100.956 55.1676 102.156 55.7266 103.482C57.7579 104.601 61.5446 105.574 65.7528 106.318C64.3884 106.318 57.8269 106.379 55.9259 106.417C55.236 102.025 51.848 98.9438 48.8048 98.8824ZM64.2581 138.957C60.0115 139.601 50.9205 140.045 50.6598 140.053C51.0508 138.29 51.4264 136.496 51.8173 134.687C56.207 134.656 60.5966 134.639 64.9863 134.633C64.741 136.09 64.5034 137.539 64.2581 138.987V138.957ZM51.8786 134.357C52.5685 130.992 53.8486 123.871 53.8563 123.825L78.2933 124.078C78.4542 127.459 78.7762 130.839 79.1518 134.204C74.5219 134.327 54.7531 134.388 51.8786 134.419V134.357ZM80.2862 140.49C79.5964 134.503 78.9908 129.13 78.7532 123.089C78.3469 112.987 79.2974 109.56 79.3664 106.862C79.5121 100.661 82.4325 91.6234 88.3578 90.0903C89.3806 89.7735 90.4608 89.6869 91.521 89.8366C92.5811 89.9864 93.5951 90.3688 94.4901 90.9565C95.146 91.5172 95.7167 92.1705 96.1841 92.8958C97.1763 94.4089 97.8214 96.1227 98.0732 97.9144C98.325 99.7062 98.1772 101.531 97.6405 103.259C96.644 106.494 94.0915 110.012 92.6887 113.669C90.0212 120.652 90.2818 136.718 91.5543 142.03C87.7422 142.177 83.9328 141.679 80.2862 140.559V140.49ZM91.8685 141.984C90.9334 138.075 90.964 133.169 91.0023 129.084C90.9506 124.606 91.4214 120.138 92.4051 115.769C93.8845 109.851 98.4914 105.758 98.5373 99.718C98.5772 96.9837 97.7062 94.3139 96.0614 92.1293C95.2745 90.9711 94.1004 90.1313 92.75 89.7607H116.344C116.29 93.1718 115.861 136.596 115.861 136.603L110.212 140.336C104.003 140.421 98.0468 141.808 91.8685 142.053V141.984ZM125.757 91.4471C127.972 94.2449 128.861 98.5835 126.838 103.919C125.144 108.418 117.708 118.774 121.089 138.274C121.035 138.274 119.157 137.048 118.253 136.542C118.253 136.542 119.019 93.7927 119.096 89.7837C124.032 89.4848 125.335 90.9872 125.757 91.5161V91.4471ZM123.457 64.7335C124.371 66.3936 124.804 68.2757 124.707 70.1682C124.806 76.5457 123.672 83.1992 122.231 89.4158C121.618 89.3468 119.517 89.3161 119.088 89.3391C119.088 87.6068 119.402 63.5914 119.418 62.3419C120.245 62.3764 121.051 62.6201 121.758 63.0505C122.466 63.4808 123.053 64.0836 123.465 64.8025L123.457 64.7335ZM117.862 136.542C117.823 136.887 129.735 143.579 130.126 143.747C129.237 145.158 124.76 146.315 123.02 146.484C121.947 146.591 112.166 146.484 110.043 146.292C107.814 146.11 105.635 145.529 103.612 144.575C104.432 144.161 116.137 136.841 116.145 136.542C116.275 130.893 117.179 48.8433 117.21 45.4169H119.303C119.257 52.2161 117.954 135.921 117.869 136.611L117.862 136.542ZM115.278 45.2253C115.455 39.9132 117.003 4.28489 116.972 4.26956L120.154 4.20824C120.498 6.82978 125.519 45.049 125.519 45.072C125.067 45.095 116.85 45.2253 115.278 45.2253ZM125.803 45.0567C125.803 45.0567 120.882 7.18238 120.345 4.21591L123.687 4.15458C124.346 6.80678 133.936 41.6763 134.718 44.6351C134.725 44.6351 128.777 44.9723 125.803 45.072V45.0567ZM135.047 44.6121C135.047 44.6121 124.316 5.58033 123.887 4.13159L126.523 4.0856C128.348 9.50497 140.191 41.4846 141.241 44.1981C139.181 44.3719 137.117 44.515 135.047 44.6274V44.6121Z" fill="black"/>
</svg>
