<svg width="1200" height="630" viewBox="0 0 1200 630" fill="none" xmlns="http://www.w3.org/2000/svg">
<rect width="1200" height="630" fill="white"/>
<path d="M305.297 252.219H172.582C165.822 252.219 159.339 254.904 154.559 259.684C149.779 264.464 147.094 270.947 147.094 277.707V347.141C147.094 353.667 149.687 359.927 154.302 364.542C158.917 369.157 165.176 371.75 171.703 371.75H175.219V389.187C175.219 393.887 177.086 398.394 180.408 401.717C183.731 405.039 188.238 406.906 192.938 406.906H284.062C288.762 406.906 293.269 405.039 296.592 401.717C299.914 398.394 301.781 393.887 301.781 389.187V371.75H305.297C311.824 371.75 318.083 369.157 322.698 364.542C327.313 359.927 329.906 353.667 329.906 347.141V276.828C329.906 270.301 327.313 264.042 322.698 259.427C318.083 254.812 311.824 252.219 305.297 252.219ZM287.719 389.187C287.715 390.156 287.329 391.084 286.644 391.769C285.959 392.454 285.031 392.84 284.062 392.844H192.938C191.969 392.84 191.041 392.454 190.356 391.769C189.671 391.084 189.285 390.156 189.281 389.187V319.156C189.285 318.188 189.671 317.26 190.356 316.575C191.041 315.89 191.969 315.503 192.938 315.5H284.062C285.031 315.503 285.959 315.89 286.644 316.575C287.329 317.26 287.715 318.188 287.719 319.156V389.187ZM299.145 294.371C296.993 294.544 294.841 294.053 292.978 292.964C291.115 291.875 289.63 290.241 288.725 288.282C287.82 286.323 287.538 284.133 287.916 282.008C288.295 279.884 289.316 277.926 290.842 276.4C292.368 274.874 294.325 273.853 296.45 273.475C298.574 273.096 300.764 273.379 302.723 274.284C304.682 275.189 306.316 276.673 307.405 278.536C308.494 280.4 308.985 282.552 308.812 284.703C308.612 287.2 307.529 289.544 305.757 291.316C303.986 293.087 301.642 294.17 299.145 294.371ZM277.172 224.094H199.828C193.913 224.103 188.199 226.238 183.727 230.111C179.256 233.983 176.327 239.334 175.474 245.188H301.526C300.673 239.334 297.744 233.983 293.273 230.111C288.801 226.238 283.087 224.103 277.172 224.094Z" fill="black"/>
<path d="M556.06 380H524.92L495.04 331.4L465.16 380H436L478.66 313.76L438.7 251.48H468.76L496.48 297.74L523.66 251.48H553L512.68 315.2L556.06 380ZM610.599 279.92C619.719 279.92 627.519 281.66 633.999 285.14C640.599 288.62 645.699 293.66 649.299 300.26C652.899 306.86 654.699 314.96 654.699 324.56V337.52H591.339C591.579 345.08 593.799 351.02 597.999 355.34C602.319 359.66 608.259 361.82 615.819 361.82C622.179 361.82 627.939 361.22 633.099 360.02C638.259 358.7 643.599 356.72 649.119 354.08V374.78C644.319 377.18 639.219 378.92 633.819 380C628.539 381.2 622.119 381.8 614.559 381.8C604.719 381.8 596.019 380 588.459 376.4C580.899 372.68 574.959 367.1 570.639 359.66C566.319 352.22 564.159 342.86 564.159 331.58C564.159 320.06 566.079 310.52 569.919 302.96C573.879 295.28 579.339 289.52 586.299 285.68C593.259 281.84 601.359 279.92 610.599 279.92ZM610.779 299C605.619 299 601.299 300.68 597.819 304.04C594.459 307.4 592.479 312.62 591.879 319.7H629.499C629.499 315.74 628.779 312.2 627.339 309.08C626.019 305.96 623.979 303.5 621.219 301.7C618.459 299.9 614.979 299 610.779 299ZM731.346 279.92C732.666 279.92 734.226 279.98 736.026 280.1C737.826 280.22 739.266 280.4 740.346 280.64L738.366 305.84C737.526 305.6 736.266 305.42 734.586 305.3C733.026 305.06 731.646 304.94 730.446 304.94C726.966 304.94 723.606 305.42 720.366 306.38C717.126 307.22 714.186 308.6 711.546 310.52C709.026 312.44 706.986 315.02 705.426 318.26C703.986 321.38 703.266 325.28 703.266 329.96V380H676.446V281.72H696.786L700.746 298.28H702.006C703.926 294.92 706.326 291.86 709.206 289.1C712.086 286.34 715.386 284.12 719.106 282.44C722.946 280.76 727.026 279.92 731.346 279.92ZM843.949 330.68C843.949 338.84 842.809 346.1 840.529 352.46C838.369 358.82 835.189 364.22 830.989 368.66C826.909 372.98 821.929 376.28 816.049 378.56C810.169 380.72 803.509 381.8 796.069 381.8C789.229 381.8 782.869 380.72 776.989 378.56C771.229 376.28 766.249 372.98 762.049 368.66C757.849 364.22 754.549 358.82 752.149 352.46C749.869 346.1 748.729 338.84 748.729 330.68C748.729 319.76 750.649 310.58 754.489 303.14C758.329 295.58 763.849 289.82 771.049 285.86C778.249 281.9 786.769 279.92 796.609 279.92C805.849 279.92 814.009 281.9 821.089 285.86C828.169 289.82 833.749 295.58 837.829 303.14C841.909 310.58 843.949 319.76 843.949 330.68ZM776.089 330.68C776.089 337.16 776.749 342.62 778.069 347.06C779.509 351.38 781.729 354.68 784.729 356.96C787.729 359.12 791.629 360.2 796.429 360.2C801.229 360.2 805.069 359.12 807.949 356.96C810.949 354.68 813.109 351.38 814.429 347.06C815.869 342.62 816.589 337.16 816.589 330.68C816.589 324.2 815.869 318.8 814.429 314.48C813.109 310.16 810.949 306.92 807.949 304.76C804.949 302.6 801.049 301.52 796.249 301.52C789.169 301.52 784.009 303.98 780.769 308.9C777.649 313.7 776.089 320.96 776.089 330.68ZM882.759 329.78L851.079 281.72H881.499L900.579 313.04L919.839 281.72H950.259L918.219 329.78L951.699 380H921.279L900.579 346.34L879.879 380H849.459L882.759 329.78ZM1085.46 315.56C1085.46 325.16 1084.32 333.92 1082.04 341.84C1079.76 349.76 1076.28 356.66 1071.6 362.54C1066.92 368.3 1060.98 372.8 1053.78 376.04L1084.74 410.6H1049.82L1026.24 381.8C1025.88 381.8 1025.52 381.8 1025.16 381.8C1024.92 381.8 1024.62 381.8 1024.26 381.8C1013.82 381.8 1004.7 380.24 996.901 377.12C989.221 373.88 982.861 369.38 977.821 363.62C972.901 357.74 969.181 350.72 966.661 342.56C964.261 334.4 963.061 325.34 963.061 315.38C963.061 302.06 965.221 290.48 969.541 280.64C973.981 270.8 980.701 263.18 989.701 257.78C998.821 252.26 1010.4 249.5 1024.44 249.5C1038.36 249.5 1049.82 252.26 1058.82 257.78C1067.82 263.18 1074.48 270.86 1078.8 280.82C1083.24 290.66 1085.46 302.24 1085.46 315.56ZM991.681 315.56C991.681 324.56 992.821 332.3 995.101 338.78C997.381 345.26 1000.92 350.24 1005.72 353.72C1010.52 357.2 1016.7 358.94 1024.26 358.94C1032.06 358.94 1038.3 357.2 1042.98 353.72C1047.78 350.24 1051.26 345.26 1053.42 338.78C1055.7 332.3 1056.84 324.56 1056.84 315.56C1056.84 302 1054.32 291.38 1049.28 283.7C1044.24 276.02 1035.96 272.18 1024.44 272.18C1016.76 272.18 1010.52 273.92 1005.72 277.4C1000.92 280.88 997.381 285.86 995.101 292.34C992.821 298.82 991.681 306.56 991.681 315.56Z" fill="black"/>
</svg>
