<svg width="154" height="154" viewBox="0 0 154 154" fill="none" xmlns="http://www.w3.org/2000/svg">
<path d="M88.197 31.06C89.5001 31.0217 89.7301 29.4273 88.9635 28.5535C88.8104 28.4092 88.6292 28.298 88.4312 28.2267C88.2332 28.1555 88.0227 28.1258 87.8127 28.1395C87.6028 28.1531 87.3979 28.2099 87.2108 28.3062C87.0237 28.4024 86.8584 28.5362 86.7253 28.6991C85.7978 29.7952 86.411 31.428 88.197 31.06ZM88.5956 29.0977C89.0402 29.6649 89.0172 30.6308 88.1664 30.7994C87.4841 30.7994 86.9016 30.5694 86.9016 29.8872C86.9092 28.9367 88.0054 28.3618 88.5956 29.1284V29.0977ZM94.5899 30.922C95.893 30.8837 96.1229 29.2893 95.3564 28.4155C95.2067 28.2646 95.0264 28.1475 94.8276 28.0722C94.6288 27.9969 94.4162 27.965 94.2041 27.9788C93.992 27.9926 93.7853 28.0518 93.598 28.1522C93.4107 28.2527 93.247 28.3921 93.1181 28.5611C92.1983 29.6496 92.7962 31.29 94.5899 30.922ZM94.9885 28.9597C95.4331 29.527 95.4024 30.4928 94.5592 30.6614C93.877 30.6614 93.2944 30.4315 93.2944 29.7493C93.2944 28.7988 94.3982 28.2009 94.9885 28.9597Z" fill="black"/>
<path d="M99.0664 39.1393C121.012 37.3456 114.305 14.1274 94.8888 14.6103C73.0734 15.2159 66.5195 41.8068 99.0664 39.1393ZM80.8766 20.6966C87.0855 14.5643 99.465 13.1233 106.939 18.8569C115.317 25.2498 114.382 37.6216 99.0128 38.871C90.6652 39.5456 84.9469 38.1582 81.4592 35.8509C75.7179 32.0489 76.0628 25.4721 80.8766 20.6966Z" fill="black"/>
<path d="M100.515 30.6613C101.818 30.6613 102.086 29.0286 101.282 28.1547C101.128 28.0105 100.947 27.8992 100.749 27.828C100.551 27.7568 100.341 27.7271 100.131 27.7408C99.9209 27.7544 99.716 27.8112 99.5289 27.9074C99.3418 28.0037 99.1765 28.1375 99.0434 28.3004C98.1159 29.4042 98.7444 31.0292 100.515 30.6613ZM100.914 28.699C101.358 29.2662 101.328 30.232 100.484 30.4083C99.8099 30.4083 99.2197 30.1707 99.2197 29.4885C99.2273 28.5457 100.323 27.9401 100.914 28.699ZM74.568 83.3909C75.0203 83.1533 76.0091 82.1262 75.8558 81.6432C76.1471 80.8767 80.662 66.4583 81.9037 61.8054C82.0914 61.3167 82.18 60.7956 82.1644 60.2724C82.08 60.1037 81.9421 60.0884 81.7734 60.0807L67.1634 60.3107C66.9257 49.2803 65.8449 18.2972 64.6185 8.10996C64.8331 8.10996 65.0707 8.10996 65.1397 7.84934C65.4003 6.89884 65.6226 5.20481 64.8868 4.56093C63.0931 2.98954 5.48064 4.40762 4.74478 4.67591C4.00891 4.94419 3.97824 7.09814 4.11622 8.01798C4.11622 8.24027 4.49182 8.32459 4.70645 8.37825C3.32669 17.1857 4.63746 78.2858 5.84858 83.5596C5.9099 83.8202 5.99422 84.0731 6.21651 84.1268C6.72059 84.2472 7.23308 84.3292 7.74958 84.3721C8.57743 90.8186 14.2344 92.0374 20.7346 91.0026C26.8368 89.9692 32.6394 87.6146 37.7363 84.1038C42.5424 83.9352 37.5063 84.1498 46.467 84.1881C49.1576 84.1728 73.2803 84.0885 74.568 83.3909ZM38.4108 79.198C39.9439 79.198 41.8908 79.3973 43.01 80.5394C43.2246 80.7617 43.7765 81.4286 43.5082 81.5666C42.803 81.9422 39.2693 81.8119 38.3111 81.8272L38.4108 79.198ZM38.2652 82.0802L39.369 82.1951C39.3811 82.6151 39.5027 83.0246 39.7216 83.3833L38.1885 83.4369L38.2652 82.0802ZM81.5051 60.7399C80.9839 63.1315 76.0474 79.198 75.3729 81.2906C69.4783 81.0453 60.6632 81.3826 48.7436 81.7122C49.2725 79.9262 54.2703 62.8556 54.8759 61.1922C54.9142 61.1156 81.4285 60.7399 81.5051 60.7399ZM4.41517 7.95666C4.22353 6.67655 4.53015 5.03618 4.83676 4.89054C5.27368 4.72956 61.7517 3.86338 64.4728 5.04384C64.6623 5.30616 64.7569 5.62514 64.7411 5.94835C64.7621 6.46493 64.7052 6.98173 64.5725 7.48141C64.5035 7.48141 21.3862 8.53156 16.2811 8.52389C14.978 8.52389 5.36567 8.55455 4.41517 7.95666ZM7.80323 26.4377C7.75724 26.0315 7.71125 24.7897 7.67292 23.1416C9.2903 23.7012 18.0977 23.7165 19.8148 23.7165C21.0642 23.7165 42.941 23.2259 46.4977 23.0803C47.7471 23.0343 60.2952 22.4058 61.5754 22.2525C61.5993 23.3111 61.5686 24.3704 61.4834 25.4259C61.4374 25.4259 28.0703 26.7213 23.7701 26.8056C22.2293 26.8286 9.15233 27.1276 7.80323 26.4377ZM61.5064 18.2205C24.2376 19.0637 8.97602 19.5773 7.61926 18.987V14.8631C10.6854 15.6296 38.4261 14.9704 40.8407 14.9091C43.4469 14.8324 59.7203 14.1426 61.3837 14.0276C61.422 15.3997 61.4757 16.8637 61.5064 18.2205ZM7.61926 19.2936C10.1948 20.1445 39.2003 19.4163 40.9403 19.3626C43.5619 19.2936 60.1036 18.5578 61.514 18.4888C61.514 19.7382 61.5677 20.934 61.5754 21.9918C36.7934 22.6204 9.67357 23.7625 7.66526 22.8657C7.66526 21.7925 7.66526 20.5738 7.61926 19.2936ZM61.3224 13.7976C34.6165 14.4032 9.19832 15.162 7.57327 14.6255V11.1378C10.5397 11.9503 38.7251 11.2527 40.8254 11.1914C43.3319 11.1224 58.4556 10.4249 61.1078 10.3252C61.2381 11.3064 61.3224 12.5022 61.3224 13.7976ZM61.1231 10.057C29.0361 10.8235 9.04501 11.406 7.6116 10.8771C7.6116 10.2716 7.6116 9.34408 7.70358 8.72319C18.6113 9.39007 42.8183 8.6542 60.9698 8.23261C61.0618 8.73852 61.1154 9.52804 61.1538 10.0493L61.1231 10.057ZM6.47713 83.5519C5.31201 79.8879 3.66397 17.4233 4.94407 8.43191C5.77444 8.56424 6.61106 8.65378 7.45063 8.70019C7.19001 11.6667 7.19001 25.2956 7.36631 26.5527C7.37979 26.6116 7.40599 26.6668 7.44306 26.7144C7.48014 26.7621 7.5272 26.8011 7.58094 26.8286C8.24741 27.0482 8.94164 27.172 9.64291 27.1966C9.46786 29.8652 9.54228 32.5444 9.8652 35.1992C7.40464 35.4904 7.17468 39.2848 10.4938 38.6945C12.8777 38.5949 12.3564 35.2222 10.1565 35.1838C10.3289 32.5271 10.2442 29.86 9.90353 27.2196C12.7167 27.4265 17.8295 27.4572 23.7854 27.3805C28.0856 27.3192 60.8318 26.1234 61.399 26.0774C61.698 26.0774 61.9893 26.0774 62.0659 25.8015C62.5488 24.0231 61.8743 10.1796 61.6367 8.20961L64.0512 8.14829C65.247 18.3202 66.2665 48.4908 66.5195 60.3337C64.1049 60.372 55.1978 60.4947 54.6459 60.6403C54.4926 60.6863 54.4389 60.8013 54.3623 61.0006C54.094 61.7134 53.5038 63.7601 53.2892 64.4959C49.7159 61.6194 45.6444 59.4239 41.2776 58.0188C41.3545 57.582 41.4543 57.1496 41.5766 56.7233C42.4896 56.69 43.378 56.4176 44.1528 55.9333C44.9276 55.4491 45.5617 54.77 45.9918 53.9638C46.9193 52.4308 47.5248 50.0162 47.4635 46.2219C47.5269 46.2408 47.5941 46.2429 47.6586 46.2281C47.7231 46.2134 47.7826 46.1822 47.8315 46.1375C48.1299 45.8987 48.3886 45.6142 48.598 45.2944C48.9735 43.8786 48.8629 42.3778 48.2837 41.0325C47.6858 39.2694 47.4175 38.0583 45.9841 36.5099C44.8703 35.2793 43.3842 34.4474 41.7529 34.1413C40.3119 34.0137 38.8597 34.1198 37.4526 34.4556C36.8204 34.6438 36.2299 34.9508 35.7126 35.3601C35.3988 35.6252 35.1386 35.9478 34.9461 36.3106C34.5705 36.8319 33.689 36.8702 33.0068 37.1998C31.6186 38.0986 30.5882 39.4543 30.0939 41.0325C29.7497 42.0186 29.5685 43.0542 29.5574 44.0986C28.9901 43.47 28.0933 42.7341 27.3344 43.1021C26.5756 43.47 25.8627 45.9919 25.8704 47.2184C25.878 48.4448 26.3456 48.4371 27.4647 48.4371C26.9548 48.8643 26.5308 49.3845 26.2153 49.9702C25.6941 50.7904 25.7171 50.844 24.8585 51.1966C24.4216 51.3806 24.023 51.4573 24.023 51.7869C24.0217 51.8533 24.041 51.9185 24.0783 51.9735C24.1155 52.0285 24.1688 52.0707 24.231 52.0942C24.2931 52.1177 24.361 52.1214 24.4253 52.1048C24.4896 52.0882 24.5472 52.0521 24.5903 52.0015L25.1038 51.7945C25.4724 51.6866 25.8123 51.4977 26.0987 51.2418C26.3852 50.9859 26.6109 50.6693 26.7595 50.3151C27.4034 49.3033 27.848 48.6824 29.0591 48.4295C28.4166 48.8704 27.8877 49.4574 27.5159 50.1422C27.1442 50.8271 26.9401 51.5904 26.9205 52.3694C25.786 53.182 24.1073 54.5847 23.5171 55.8418C22.9269 57.0989 22.5513 58.9846 23.6091 59.6208C18.2209 62.2145 13.9113 66.6136 11.4289 72.0539C9.32863 75.4267 7.39697 79.7959 7.68059 83.7895C7.27515 83.7338 6.87331 83.6545 6.47713 83.5519ZM10.0798 35.7971C10.4163 35.7901 10.7442 35.9037 11.0043 36.1174C11.2644 36.3311 11.4394 36.6307 11.4979 36.9622C11.7355 38.0047 10.831 38.7865 9.42061 38.3036C8.0102 37.8207 8.63875 35.8737 10.0798 35.82V35.7971ZM29.4807 45.1564C29.6367 45.9142 29.9762 46.6223 30.4695 47.2184C30.4767 47.2948 30.4767 47.3718 30.4695 47.4483C29.2141 47.7393 27.9206 47.8298 26.6369 47.7166C26.5281 47.4279 26.5041 47.114 26.5679 46.8121C26.6454 45.7169 26.962 44.652 27.4954 43.6923C28.055 43.4087 29.1281 44.6122 29.4807 45.1564ZM30.9065 58.2564C33.3057 58.3484 33.3824 55.4126 33.8653 55.1903C34.422 54.8468 34.8595 54.3404 35.1187 53.7399C35.3779 53.1393 35.446 52.4735 35.314 51.8329C35.314 51.6949 34.4095 49.8169 34.3022 49.4873C33.9726 48.5061 33.0374 47.548 33.9343 46.6435C34.4938 45.9919 35.0151 46.7584 35.383 47.525C35.4037 47.5791 35.4378 47.6272 35.482 47.6647C35.5262 47.7022 35.5792 47.728 35.636 47.7396C36.1495 47.8316 36.8088 46.6741 37.33 46.4212C38.2515 46.0616 39.1026 45.5426 39.8442 44.8881C40.4038 44.3362 40.787 43.2094 41.4233 42.8951C42.6042 42.4263 43.8187 42.047 45.0566 41.7607C45.3249 42.6192 44.8803 42.7188 46.8426 45.3633C46.9576 45.5167 47.0419 45.7466 47.1492 45.9306C47.1527 45.9944 47.1527 46.0584 47.1492 46.1222C47.2642 49.8935 46.536 52.2545 45.6162 53.7875C45.1976 54.5354 44.5834 55.1553 43.8393 55.5806C43.0952 56.006 42.2495 56.2208 41.3926 56.2021C41.3356 56.1977 41.2789 56.2128 41.2315 56.2448C41.1842 56.2768 41.1491 56.3239 41.132 56.3784C41.132 56.3784 40.8637 57.3059 40.764 57.8425C40.6414 58.494 40.764 58.448 41.4079 58.6856C43.01 59.218 44.5681 59.874 46.0684 60.648C45.2829 62.9329 44.1336 65.0761 42.665 66.9948C42.3431 67.3858 41.4386 68.9725 40.8254 68.7732C39.3766 68.2826 31.374 60.9699 29.3274 58.6243L29.1281 58.402C29.7176 58.319 30.3114 58.2704 30.9065 58.2564ZM13.5982 69.3021C13.5757 69.3092 13.5517 69.3092 13.5292 69.3021C13.5481 69.3198 13.5724 69.3306 13.5982 69.3328V69.3021ZM20.6273 90.3434C16.7027 90.9566 11.5592 90.9413 9.45894 87.5762C6.30083 82.5477 9.57392 75.0817 12.9696 70.2143C13.1153 69.9996 13.4909 69.4477 13.6595 69.2791C17.0642 63.9738 22.3397 60.1431 28.4382 58.5477C29.519 60.0807 38.8477 68.7809 40.6491 69.3864C41.7605 69.7543 42.6191 68.0986 43.1786 67.3934C44.689 65.4177 45.8623 63.2058 46.651 60.8473C48.9588 61.9967 51.1356 63.3923 53.1435 65.0095C52.2665 68.0376 51.4156 71.0732 50.591 74.1159C50.4147 72.906 50.0554 71.73 49.5255 70.6282C49.512 70.5988 49.4881 70.5754 49.4584 70.5626C49.4286 70.5499 49.3952 70.5486 49.3646 70.5591C49.334 70.5697 49.3084 70.5912 49.2928 70.6195C49.2772 70.6479 49.2727 70.681 49.2802 70.7125C49.3622 71.6642 49.5447 72.6046 49.8244 73.518C49.9598 73.9876 50.1368 74.4443 50.3533 74.8824C49.3952 78.3165 48.5903 81.214 48.4447 81.7276C43.4929 81.8732 43.9835 81.8885 44.0295 81.8119C44.3437 81.2906 43.7995 80.5778 43.3779 80.1485C42.8774 79.6966 42.2909 79.3503 41.6534 79.1303C41.0159 78.9103 40.3406 78.8213 39.6679 78.8684C39.2528 78.8691 38.8382 78.8947 38.4261 78.9451L38.4721 78.0405C38.4758 77.9758 38.4583 77.9117 38.4224 77.8578C38.3864 77.8039 38.334 77.7631 38.2728 77.7416C34.6318 76.4615 28.9288 75.304 24.5289 75.5723C25.2185 73.5066 25.6385 71.3604 25.7784 69.1871C25.781 69.1555 25.7721 69.124 25.7531 69.0985C25.7342 69.073 25.7066 69.0553 25.6756 69.0487C25.6445 69.0421 25.6121 69.0471 25.5845 69.0627C25.5568 69.0783 25.5358 69.1035 25.5254 69.1335C24.8488 71.2277 24.4192 73.3937 24.2453 75.5876C21.9754 75.6637 19.774 76.3842 17.8984 77.6649C17.8866 77.6764 17.8772 77.6901 17.8708 77.7052C17.8644 77.7204 17.8611 77.7366 17.8611 77.7531C17.8611 77.7695 17.8644 77.7858 17.8708 77.801C17.8772 77.8161 17.8866 77.8298 17.8984 77.8412C18.2051 78.2552 19.4315 75.8406 25.924 75.9479C29.9864 76.1431 34.0001 76.9175 37.8436 78.2475L37.5599 83.4216C32.4971 86.9587 26.7149 89.3328 20.6273 90.374V90.3434Z" fill="black"/>
<path d="M64.0818 73.319C65.7073 73.4379 67.3392 73.4379 68.9646 73.319C69.0087 73.316 69.0515 73.3032 69.09 73.2817C69.1285 73.2602 69.1618 73.2304 69.1874 73.1945C69.2131 73.1586 69.2304 73.1175 69.2383 73.074C69.2462 73.0306 69.2443 72.986 69.2329 72.9434C69.1716 72.2382 67.7459 70.1532 67.2246 69.609C66.964 69.333 66.8873 69.3407 66.6191 69.609C65.6342 70.5738 64.7671 71.6519 64.0358 72.8207C63.9439 73.02 63.9132 73.2117 64.0818 73.319ZM66.9027 69.609C67.2572 70.0052 67.5586 70.4458 67.7995 70.9197C68.1711 71.5482 68.494 72.2042 68.7653 72.8821C68.0755 72.8821 65.27 72.9664 64.4958 72.8821C65.2251 71.7392 66.0292 70.6458 66.9027 69.609ZM72.8203 42.5888C74.0526 42.4857 75.2266 42.0188 76.193 41.2473C77.1813 40.5647 78.0469 39.7198 78.7532 38.7484C78.9219 38.4878 78.5463 38.4265 78.5386 38.6258C77.3153 39.6745 76.0192 40.6351 74.66 41.5003C74.0797 41.8724 73.4501 42.1614 72.7896 42.3588C72.7699 42.3725 72.7543 42.3913 72.7446 42.4132C72.7349 42.4352 72.7315 42.4594 72.7346 42.4832C72.7378 42.5069 72.7475 42.5294 72.7626 42.548C72.7777 42.5666 72.7977 42.5807 72.8203 42.5888ZM78.5309 38.6411C78.5378 38.6831 78.5595 38.7212 78.5923 38.7484C78.5715 38.7394 78.5538 38.7243 78.5415 38.7052C78.5292 38.6861 78.5229 38.6638 78.5233 38.6411H78.5309ZM42.412 51.8561C42.4023 51.8886 42.4057 51.9237 42.4215 51.9537C42.4372 51.9838 42.4641 52.0065 42.4963 52.0171C42.6803 52.1091 42.9486 52.2624 43.2629 52.3774C43.8378 52.6073 44.4127 52.5997 44.5966 52.0094C44.6927 51.4077 44.6927 50.7945 44.5966 50.1927C44.5295 49.6153 44.3983 49.0472 44.2057 48.4987C44.1996 48.4642 44.18 48.4334 44.1513 48.4133C44.1225 48.3932 44.087 48.3853 44.0524 48.3914C44.0178 48.3975 43.9871 48.4171 43.967 48.4458C43.9469 48.4746 43.939 48.5101 43.9451 48.5447V49.7405C44.0079 50.4392 44.0079 51.1421 43.9451 51.8408C43.9451 51.9098 43.8684 51.9251 43.8071 51.9328C43.1326 52.0018 42.4887 51.6185 42.412 51.8561ZM41.9751 48.744C41.9785 48.6015 41.9991 48.46 42.0364 48.3224C42.0571 48.2852 42.0702 48.2442 42.075 48.2019C42.0798 48.1596 42.0762 48.1168 42.0645 48.0758C42.0527 48.0349 42.033 47.9967 42.0065 47.9634C41.98 47.9301 41.9472 47.9023 41.9099 47.8817C41.8727 47.861 41.8318 47.8479 41.7894 47.8431C41.7471 47.8383 41.7043 47.8419 41.6634 47.8536C41.6224 47.8654 41.5842 47.885 41.5509 47.9116C41.5176 47.9381 41.4898 47.9709 41.4692 48.0081C41.369 48.2511 41.3194 48.5119 41.3235 48.7747C41.3387 48.8524 41.3813 48.922 41.4435 48.9709C41.5057 49.0198 41.5835 49.0446 41.6626 49.0409C41.7416 49.0372 41.8167 49.0051 41.8741 48.9506C41.9315 48.8961 41.9673 48.8228 41.9751 48.744ZM46.237 48.7363C46.2447 48.6783 46.2361 48.6192 46.212 48.5658C46.1879 48.5123 46.1494 48.4667 46.1008 48.434C46.0522 48.4013 45.9954 48.3829 45.9368 48.3808C45.8783 48.3787 45.8203 48.393 45.7694 48.4221C45.4858 48.5677 45.6085 48.9586 45.6085 49.1886C45.6085 49.274 45.6424 49.3559 45.7027 49.4162C45.7631 49.4766 45.845 49.5105 45.9304 49.5105C46.0158 49.5105 46.0977 49.4766 46.158 49.4162C46.2184 49.3559 46.2523 49.274 46.2523 49.1886C46.2396 49.0382 46.2345 48.8873 46.237 48.7363ZM41.0016 46.3141C41.3373 46.2735 41.6775 46.2943 42.0058 46.3754C42.7723 46.5211 42.7723 46.6437 42.8413 46.5211C42.9103 46.3984 42.435 45.9385 42.1974 45.8235C41.7902 45.6551 41.3432 45.6072 40.9096 45.6855C40.4497 45.7699 39.7828 46.1915 39.8748 46.3678C39.9668 46.5441 39.9668 46.3984 41.0016 46.3141ZM45.9457 47.004L46.191 47.0883C46.2677 47.0883 46.7506 47.2109 46.8042 47.142C46.8579 47.073 46.6049 46.6207 46.398 46.4981C45.7464 46.1148 45.1179 46.5671 45.2175 46.774C45.4557 46.8644 45.6988 46.9412 45.9457 47.004ZM42.6573 53.9947C42.4653 53.9618 42.2809 53.8943 42.1131 53.7954C41.9061 53.6932 41.7151 53.5615 41.5458 53.4045C41.2469 53.1516 40.9403 52.9139 40.879 52.8449C40.8608 52.82 40.8344 52.8023 40.8044 52.7949C40.7745 52.7876 40.7428 52.7912 40.7152 52.805C40.6876 52.8188 40.6658 52.8419 40.6537 52.8703C40.6416 52.8987 40.6399 52.9304 40.649 52.9599C40.8176 53.9794 41.8984 54.6923 42.7186 54.2477C42.9256 54.217 42.8259 53.9564 42.6573 53.9947ZM146.561 72.8207C146.768 72.8207 147.013 72.8207 147.082 72.5601C147.342 71.6173 147.565 69.9156 146.829 69.2717C145.012 67.6926 87.415 69.1107 86.6868 69.379C85.9586 69.6473 85.9203 71.7936 86.0583 72.7134C86.0583 72.9357 86.4339 73.0277 86.6485 73.0813C85.5294 80.2331 86.2882 115.662 86.5029 123.427C84.5942 122.116 79.1825 118.613 76.9059 118.245C76.4843 118.184 76.9059 116.505 75.8098 115.946C75.6525 115.866 75.4706 115.85 75.3019 115.902C75.1333 115.953 74.9911 116.068 74.9053 116.222C74.6607 116.627 74.4627 117.059 74.315 117.509C74.1387 117.663 73.4948 117.609 73.2649 117.586C71.5938 117.41 69.8078 116.82 69.3326 117.701C69.2468 117.885 69.2192 118.091 69.2534 118.291C69.2876 118.491 69.3821 118.675 69.5242 118.82C70.3444 119.587 73.6635 120.522 74.5373 120.89C75.3038 122.369 79.6347 133.867 87.0548 138.834C87.1008 139.854 87.4534 148.102 87.9669 148.707C88.6491 149.474 99.7638 149.267 100.699 149.351C106.831 149.865 132.993 148.209 148.27 147.818C148.416 147.818 148.623 147.703 148.745 147.366C150.401 142.644 147.802 83.1842 146.561 72.8207ZM86.3496 72.6521C86.1656 71.372 86.4645 69.7316 86.7711 69.586C87.0778 69.4403 143.494 68.5435 146.407 69.7393C146.598 70.0008 146.693 70.3204 146.676 70.6438C146.696 71.1599 146.642 71.6762 146.515 72.1768C146.446 72.1768 103.328 73.227 98.2231 73.2193C97.0656 73.25 87.2617 73.2807 86.3496 72.6828V72.6521ZM139.593 128.525C141.126 131.269 143.165 137.723 144.054 140.751C141.386 140.988 131.207 141.985 129.544 142.345C129.467 142.345 129.544 142.475 129.237 140.812C129.068 139.884 128.332 136.88 128.294 136.726C127.919 135.278 127.75 134.848 127.528 134.036C127.517 134.006 127.496 133.981 127.469 133.965C127.441 133.95 127.408 133.945 127.377 133.951C127.346 133.958 127.319 133.975 127.3 134.001C127.281 134.026 127.272 134.058 127.275 134.09C127.367 134.856 127.466 135.745 127.62 136.527C127.62 136.604 130.187 147.81 130.21 147.887C127.788 148.002 102.385 149.29 100.139 148.73C100.362 146.254 100.653 144.07 100.952 142.23C100.952 142.153 103.842 127.29 103.88 127.114C103.888 127.083 103.883 127.049 103.867 127.021C103.852 126.993 103.826 126.971 103.796 126.961C103.765 126.95 103.732 126.951 103.702 126.964C103.672 126.977 103.648 127 103.635 127.03C102.64 129.617 102.071 132.348 101.948 135.117C100.929 133.99 92.5278 124.684 91.9836 123.695C94.8728 121.177 98.1103 119.088 101.596 117.494C104.853 115.971 108.339 114.992 111.913 114.597C111.491 114.871 111.139 115.242 110.886 115.677C110.603 116.314 111.3 117.28 111.975 117.525C116.459 119.165 120.123 118.046 122.154 115.754C122.599 115.256 122.576 115.149 122.591 114.857C130.026 116.919 135.522 121.112 139.593 128.555V128.525ZM130.77 147.626C130.387 146.093 130.249 145.02 129.842 142.974C130.088 142.935 142.713 141.441 144.192 141.264C144.805 143.187 145.261 145.155 145.556 147.151C143.556 147.251 132.748 147.895 130.77 147.626ZM111.99 105.981C112.658 103.623 113.692 101.386 115.056 99.3504C116.351 99.7183 117.724 99.7183 119.019 99.3504C118.912 99.8563 119.441 100.117 119.939 100.286C119.825 100.465 119.749 100.665 119.713 100.874C119.678 101.083 119.684 101.298 119.732 101.504C119.765 101.698 119.842 101.881 119.958 102.039C120.074 102.197 120.225 102.327 120.399 102.416C120.654 102.542 120.929 102.622 121.211 102.654C121.066 102.917 120.99 103.212 120.99 103.513C120.99 103.813 121.066 104.108 121.211 104.371C121.35 104.589 121.536 104.772 121.756 104.908C121.625 105.03 121.511 105.169 121.418 105.322C120.943 106.257 120.69 107.836 121.694 108.181C121.864 108.231 122.047 108.213 122.203 108.13C122.359 108.046 122.477 107.905 122.53 107.736C122.844 107.069 123.404 106.839 123.687 107.491C124.055 108.326 122.583 109.131 122.193 109.79C122.009 110.089 121.648 110.457 121.863 110.894C121.947 111.071 121.917 110.894 121.924 111.293C122.001 115.225 122.124 114.85 121.687 115.34C119.816 117.425 116.405 118.468 112.189 116.919C112 116.834 111.833 116.707 111.7 116.548C111.567 116.388 111.472 116.201 111.423 115.999C111.423 115.938 111.461 115.884 111.515 115.815C111.999 115.299 112.551 114.85 113.155 114.482C113.393 114.305 113.446 114.19 113.577 113.715C113.707 113.24 113.753 112.795 113.845 112.519C114.274 111.239 110.725 111.285 111.99 105.981ZM119.525 91.0642C119.155 90.8543 118.735 90.7511 118.31 90.766C117.885 90.7809 117.472 90.9133 117.118 91.1485C114.872 91.2328 91.7153 92.1833 89.7453 91.1485C89.6916 90.7422 89.6456 89.5081 89.615 87.8524C91.2324 88.4196 100.04 88.4273 101.757 88.435C102.999 88.435 124.875 87.9444 128.44 87.7987C130.026 87.7298 143.165 87.0322 143.517 86.9632C143.54 88.022 143.507 89.0813 143.418 90.1367C143.418 90.1367 130.348 90.6656 119.525 91.0642ZM143.448 82.9543C106.801 83.7821 90.9257 84.3034 89.5536 83.7208V79.5969C92.6198 80.3634 120.361 79.7118 122.783 79.6429C125.389 79.5662 141.655 78.8763 143.318 78.769C143.341 80.1334 143.41 81.5668 143.448 82.9543ZM89.5613 84.0274C92.1292 84.8706 121.119 84.1424 122.875 84.0964C125.504 84.0197 142.038 83.2839 143.456 83.2149C143.456 84.4643 143.51 85.6678 143.517 86.7179C121.112 87.3158 91.6309 88.5193 89.6073 87.5918C89.5843 86.5263 89.569 85.2999 89.5613 84.0274ZM143.295 78.5161C113.899 79.1829 91.171 79.8805 89.5383 79.3516V75.8639C92.4971 76.6764 120.682 75.9712 122.79 75.9098C124.776 75.8562 141.187 75.197 143.073 75.059C143.172 76.0478 143.241 77.2359 143.295 78.5161ZM143.096 74.7754C113.508 75.4499 91.079 76.1475 89.5843 75.5956C89.5843 74.99 89.5843 74.0625 89.6763 73.4416C100.576 74.1085 124.86 73.3726 142.935 72.951C142.996 73.4799 143.057 74.2541 143.096 74.7754ZM86.9015 73.1657C87.732 73.2954 88.5686 73.3824 89.408 73.4263C89.1244 76.4081 89.1321 90.014 89.3084 91.2788C89.3178 91.3392 89.3424 91.3963 89.38 91.4445C89.4175 91.4928 89.4667 91.5307 89.523 91.5547C90.1863 91.7775 90.8781 91.904 91.5773 91.9303C91.3912 94.5964 91.4682 97.2743 91.8072 99.9253C89.3467 100.224 89.1091 104.011 92.4281 103.428C94.8044 103.321 94.3138 99.9482 92.0909 99.9099C92.2677 97.2533 92.183 94.5857 91.8379 91.9457C97.3493 92.3519 107.682 92.0683 113.209 91.892C112.841 92.1192 112.515 92.4068 112.243 92.7429C110.971 94.2146 112.09 96.8591 113.385 98.2849C113.722 98.6539 114.129 98.9534 114.581 99.1664C112.281 102.547 109.499 108.319 112.281 111.331C112.637 111.629 112.965 111.957 113.262 112.312C113.14 112.711 113.017 113.554 112.864 113.922C112.657 114.068 112.711 114.045 112.603 114.052C108.711 114.414 104.913 115.465 101.389 117.157C97.8522 118.8 94.5813 120.962 91.6846 123.573C91.585 123.672 91.608 123.772 92.7348 125.106L90.5271 126.57C89.4533 125.539 88.2886 124.608 87.0471 123.787C86.7865 115.9 85.8513 80.417 86.9015 73.1657ZM92.0219 100.554C92.3522 100.546 92.6744 100.656 92.9313 100.864C93.1882 101.072 93.363 101.364 93.4246 101.688C93.6699 102.731 92.7654 103.52 91.355 103.03C89.9446 102.539 90.5808 100.6 92.0219 100.554ZM79.6501 129.636C77.9314 126.781 76.4299 123.801 75.1582 120.721C75.0356 120.468 75.0202 120.415 74.522 120.231C73.0197 119.785 71.556 119.218 70.1451 118.537C70.0603 118.483 69.983 118.419 69.9151 118.345C69.8078 118.023 69.9151 117.977 70.1374 117.931C71.1416 117.755 73.2036 118.445 74.246 118.222C74.4092 118.212 74.565 118.15 74.6905 118.046C74.816 117.941 74.9046 117.799 74.9436 117.64C74.9972 117.502 75.3498 116.429 75.5415 116.521C76.3617 116.935 75.7254 118.69 76.8216 118.859C79.4354 119.234 88.8791 125.19 90.3662 126.922C90.3948 126.951 90.4334 126.966 90.4735 126.966C90.5136 126.966 90.5521 126.951 90.5808 126.922L92.8804 125.32C94.9883 127.881 99.7255 133.262 101.879 135.692C101.711 136.274 97.6022 140.206 95.5403 140.521C88.7258 141.571 83.2834 135.538 79.6501 129.636ZM88.4192 148.309C88.0513 147.182 87.7063 140.444 87.6527 139.248C90.0078 140.783 92.8474 141.392 95.6246 140.958C97.4336 140.651 100.469 137.892 101.695 136.435C100.7 140.466 100.003 144.566 99.6105 148.7C94.1682 148.799 90.1592 148.707 88.4192 148.309ZM148.117 147.228L146.208 147.282C146.338 145.266 142.268 132.104 140.152 128.249C135.998 120.698 130.394 116.367 122.591 114.275C122.591 113.669 122.591 113.041 122.491 111.347C122.628 111.347 122.764 111.318 122.888 111.261C123.012 111.204 123.123 111.121 123.212 111.017C123.47 111.217 123.772 111.351 124.094 111.408C125.282 111.615 127.206 110.442 127.06 109.43C127.675 109.447 128.28 109.273 128.792 108.932C129.674 108.38 130.701 107.2 130.571 106.226C130.44 105.253 130.134 105.82 130.885 105.337C131.62 104.824 132.139 104.056 132.341 103.183C132.433 102.619 132.413 102.042 132.281 101.485C132.15 100.929 131.91 100.404 131.575 99.9406C131.456 99.7776 131.297 99.649 131.112 99.5682C130.928 99.4874 130.725 99.4572 130.525 99.4807C130.448 99.4807 130.463 99.5343 130.709 99.0591C130.785 98.9311 130.84 98.7912 130.87 98.6451C130.906 98.1304 130.827 97.614 130.64 97.133C130.454 96.652 130.163 96.2182 129.789 95.8626C129.562 95.6269 129.271 95.4639 128.951 95.3943C128.632 95.3247 128.299 95.3516 127.995 95.4717C127.995 95.4717 127.658 95.6174 127.551 95.648C127.551 95.3721 127.589 94.9888 127.551 94.8815C127.496 94.4692 127.347 94.0753 127.114 93.7308C126.881 93.3862 126.571 93.1005 126.209 92.8962C125.337 92.5672 124.375 92.5672 123.503 92.8962C123.277 92.321 122.853 91.8454 122.308 91.5547C122.806 91.5547 143.157 90.7882 143.663 90.7882C143.731 90.7845 143.797 90.7597 143.85 90.7171C143.904 90.6745 143.943 90.6163 143.962 90.5506C144.414 88.9102 143.839 75.4806 143.54 72.9204L145.955 72.8591C147.388 84.7633 149.573 142.736 148.117 147.228Z" fill="black"/>
<path d="M114.29 103.152L114.642 102.654C114.691 102.584 114.71 102.497 114.695 102.413C114.68 102.329 114.632 102.255 114.562 102.206C114.492 102.157 114.405 102.138 114.321 102.153C114.237 102.168 114.162 102.216 114.113 102.286L113.753 102.784C113.704 102.856 113.686 102.943 113.701 103.028C113.717 103.113 113.766 103.188 113.837 103.237C113.908 103.286 113.996 103.304 114.081 103.288C114.166 103.272 114.241 103.224 114.29 103.152ZM114.757 106.655C114.895 106.755 115.041 106.54 114.895 106.441C114.428 106.019 114.19 105.805 114.083 105.674C113.975 105.544 114.037 105.575 114.083 105.49C114.228 105.145 114.849 104.394 115.792 102.961C115.814 102.934 115.825 102.9 115.822 102.866C115.82 102.831 115.803 102.799 115.777 102.777C115.75 102.754 115.716 102.744 115.681 102.746C115.647 102.749 115.615 102.766 115.593 102.792C115.063 103.212 114.582 103.69 114.159 104.218C112.925 105.782 113.324 105.981 114.757 106.655ZM117.003 104.754C117.072 104.586 117.21 104.364 117.294 104.18C117.312 104.141 117.322 104.099 117.323 104.056C117.325 104.014 117.318 103.971 117.303 103.932C117.288 103.892 117.265 103.855 117.236 103.824C117.207 103.793 117.172 103.768 117.133 103.75C117.095 103.733 117.053 103.723 117.01 103.721C116.968 103.72 116.925 103.727 116.885 103.742C116.846 103.757 116.809 103.78 116.778 103.809C116.747 103.838 116.722 103.873 116.704 103.911C116.627 104.08 116.497 104.287 116.405 104.509C116.389 104.548 116.381 104.59 116.381 104.633C116.381 104.675 116.39 104.717 116.406 104.756C116.422 104.796 116.446 104.831 116.476 104.861C116.507 104.891 116.542 104.915 116.581 104.931C116.621 104.947 116.663 104.955 116.705 104.955C116.748 104.955 116.79 104.946 116.829 104.93C116.868 104.914 116.904 104.89 116.933 104.86C116.963 104.829 116.987 104.794 117.003 104.754ZM114.428 109.323C114.665 109.361 114.908 109.343 115.137 109.269C115.366 109.196 115.575 109.07 115.746 108.901C115.901 108.723 116.004 108.506 116.045 108.273C116.058 108.258 116.068 108.241 116.073 108.222C116.079 108.203 116.08 108.183 116.076 108.164C116.073 108.145 116.066 108.126 116.054 108.11C116.043 108.094 116.028 108.081 116.011 108.072C115.994 108.062 115.975 108.057 115.955 108.056C115.936 108.055 115.916 108.058 115.898 108.065C115.88 108.073 115.864 108.085 115.851 108.099C115.838 108.114 115.828 108.131 115.823 108.15C115.556 108.363 115.259 108.533 114.941 108.656C114.608 108.742 114.265 108.781 113.922 108.771C113.906 108.761 113.888 108.755 113.869 108.753C113.85 108.751 113.832 108.753 113.814 108.758C113.796 108.764 113.779 108.774 113.766 108.786C113.752 108.799 113.741 108.815 113.734 108.832C113.726 108.849 113.723 108.868 113.724 108.887C113.724 108.905 113.729 108.924 113.737 108.941C113.746 108.957 113.758 108.972 113.772 108.984C113.787 108.996 113.804 109.004 113.822 109.009C113.995 109.162 114.203 109.27 114.428 109.323ZM118.628 129.613C116.949 128.31 115.11 128.808 113.669 130.38C112.496 127.957 110.327 127.214 107.697 129.253C103.734 132.319 110.61 140.904 111.53 141.203C111.609 141.234 111.696 141.234 111.775 141.203C112.105 141.027 119.839 136.872 120.207 132.817C120.254 132.191 120.132 131.563 119.855 131C119.577 130.436 119.153 129.958 118.628 129.613Z" fill="black"/>
</svg>
