<svg width="154" height="154" viewBox="0 0 154 154" fill="none" xmlns="http://www.w3.org/2000/svg">
<path fill-rule="evenodd" clip-rule="evenodd" d="M67.8548 10.3561C67.8548 10.3561 70.3691 11.3526 71.2276 13.338C71.2276 13.338 71.5419 9.81186 70.0778 8.2251L67.8548 10.3561ZM104.435 12.2648C104.438 12.2531 104.438 12.2409 104.434 12.2292C104.431 12.2176 104.425 12.2069 104.417 12.1984C104.408 12.1899 104.397 12.1837 104.386 12.1806C104.374 12.1774 104.362 12.1774 104.35 12.1805C103.242 12.4298 102.093 12.4298 100.985 12.1805C100.012 11.9199 99.9272 11.6209 99.7509 11.7972C99.7285 11.8285 99.7164 11.866 99.7164 11.9045C99.7164 11.943 99.7285 11.9806 99.7509 12.0119C100.617 13.3993 102.25 15.2007 103.867 15.469C103.909 15.4757 103.951 15.4658 103.986 15.4414C104.02 15.4171 104.044 15.3802 104.051 15.3387L104.435 12.2648ZM100.379 12.3261C101.146 13.407 102.442 14.7561 103.745 15.1011C103.791 14.8328 104.228 12.5944 104.274 12.3568C103.013 12.7214 101.674 12.7134 100.418 12.3338L100.379 12.3261ZM36.9781 12.9624C36.9883 12.9692 37 12.9732 37.0122 12.9739C37.0244 12.9747 37.0365 12.9722 37.0474 12.9668C37.0583 12.9613 37.0676 12.9531 37.0743 12.9429C37.081 12.9327 37.0848 12.9209 37.0855 12.9087C37.224 12.0889 37.5292 11.3062 37.9823 10.6091C38.4269 9.97283 38.6646 10.0342 38.5649 9.84252C38.5501 9.80702 38.5242 9.77731 38.4909 9.75794C38.4577 9.73857 38.4191 9.73058 38.3809 9.7352C37.1928 9.91151 35.6213 10.5018 35.0158 11.5519C34.9949 11.5869 34.988 11.6285 34.9965 11.6683C35.005 11.7081 35.0284 11.7432 35.0618 11.7666L36.9781 12.9624ZM37.8903 10.1798C36.9247 10.3642 36.0435 10.8531 35.3761 11.5749L36.9551 12.7631C37.0214 11.832 37.3452 10.9376 37.8903 10.1798ZM104.074 37.0091C104.078 36.9977 104.08 36.9854 104.078 36.9734C104.076 36.9614 104.07 36.9502 104.063 36.9408C104.055 36.9315 104.045 36.9244 104.033 36.9202C104.022 36.916 104.01 36.915 103.998 36.9171C103.45 36.9394 102.903 36.8535 102.388 36.6641C101.813 36.4418 101.782 36.1965 101.621 36.3268C101.592 36.3518 101.571 36.3846 101.56 36.4213C101.549 36.458 101.549 36.497 101.56 36.5338C101.644 36.7331 102.327 38.3812 103.453 38.7415C103.493 38.7568 103.537 38.7568 103.576 38.7415C103.645 38.6878 103.607 38.7568 104.074 37.0091ZM102.104 36.9017C102.393 37.4969 102.835 38.0048 103.384 38.3735C103.446 38.2202 103.829 37.2237 103.89 37.078C103.29 37.1779 102.674 37.1171 102.104 36.9017ZM146.143 16.0976C146.129 16.0964 146.116 16.0988 146.104 16.1044C146.092 16.1099 146.081 16.1186 146.074 16.1294C146.066 16.1402 146.061 16.1529 146.06 16.1661C146.058 16.1793 146.061 16.1927 146.066 16.2049C146.418 17.1279 146.64 18.0953 146.725 19.0794C146.855 20.7965 146.35 21.0035 146.595 21.1875C146.626 21.2099 146.664 21.222 146.702 21.222C146.741 21.222 146.778 21.2099 146.809 21.1875C148.128 20.1833 149.523 18.4279 149.477 16.7261C149.477 16.688 149.463 16.6512 149.438 16.6228C149.412 16.5945 149.377 16.5766 149.339 16.5728L146.143 16.0976ZM146.258 16.2739C146.91 17.6022 147.175 19.0869 147.024 20.5589C148.044 19.6314 149.124 18.2592 149.17 16.8641L146.258 16.2739ZM50.2701 35.3763C50.2701 35.4606 50.4311 35.4376 50.4234 35.3763V33C50.3045 32.6265 50.0921 32.2896 49.8063 32.0212C49.5205 31.7529 49.1709 31.5621 48.7907 31.4669C48.4046 31.4462 48.0184 31.5035 47.6549 31.6352C47.2915 31.7669 46.9582 31.9703 46.675 32.2334C46.6459 32.2647 46.6297 32.3058 46.6297 32.3484C46.6297 32.3911 46.6459 32.4322 46.675 32.4634L47.4415 33.5519C47.4574 33.5712 47.4773 33.5867 47.4998 33.5973C47.5223 33.608 47.5469 33.6135 47.5719 33.6135C47.5968 33.6135 47.6214 33.608 47.6439 33.5973C47.6665 33.5867 47.6864 33.5712 47.7022 33.5519C48.5837 32.701 49.2353 33.0613 49.8408 34.1651C50.0239 34.5536 50.1677 34.9593 50.2701 35.3763ZM50.1398 33.0767C49.3733 31.6125 48.2541 31.4592 47.0736 32.3791L47.6179 33.1456C47.82 32.9358 48.0888 32.8028 48.3783 32.7692C48.6677 32.7357 48.9598 32.8037 49.2046 32.9617C50.3698 33.7282 50.3238 36.2195 50.1398 33.0767ZM6.66875 52.2557C6.66094 52.2669 6.65663 52.2802 6.65637 52.2939C6.65612 52.3076 6.65993 52.321 6.66732 52.3325C6.67471 52.344 6.68535 52.353 6.69789 52.3585C6.71043 52.3639 6.7243 52.3655 6.73774 52.363C8.27084 52.1254 8.3475 52.1714 8.40882 52.0948C9.6353 50.5617 8.86875 49.2585 7.12868 48.3387C6.55157 48.038 5.94545 47.7965 5.31963 47.6181C5.29663 47.6082 5.27185 47.6031 5.2468 47.6031C5.22176 47.6031 5.19698 47.6082 5.17398 47.6181C3.83252 48.5456 3.83252 48.492 3.83252 48.6453C3.83882 48.6783 3.85444 48.7089 3.87753 48.7333C3.90062 48.7577 3.93021 48.7751 3.96283 48.7833C4.97954 48.9916 5.89867 49.5307 6.57677 50.3164C6.76267 50.6024 6.86916 50.9328 6.88532 51.2736C6.90149 51.6144 6.82675 51.9533 6.66875 52.2557ZM5.29663 47.986L4.4151 48.561C4.81701 48.6869 5.20489 48.8538 5.57259 49.0592C7.0597 49.9024 7.38165 51.1136 6.86806 52.1867L8.24785 51.9031C8.51751 51.6204 8.67849 51.2514 8.70234 50.8614C8.72619 50.4714 8.61136 50.0856 8.37816 49.7721C7.5455 48.8911 6.47502 48.2706 5.29663 47.986ZM143.621 82.9331C143.63 82.9278 143.638 82.92 143.644 82.9106C143.649 82.9011 143.652 82.8904 143.652 82.8794C143.652 82.8684 143.649 82.8577 143.644 82.8483C143.638 82.8388 143.63 82.8311 143.621 82.8258L142.386 82.4885C142.376 82.4831 142.364 82.4803 142.352 82.4803C142.34 82.4803 142.328 82.4831 142.317 82.4885C140.892 83.1784 140.677 84.3282 141.49 85.6543C141.772 86.1053 142.112 86.5176 142.501 86.8808C142.519 86.8896 142.539 86.8942 142.559 86.8942C142.579 86.8942 142.599 86.8896 142.616 86.8808C143.958 86.6508 143.958 86.6815 143.996 86.5665C144.035 86.4515 143.759 86.3595 143.23 85.639C143.005 85.3737 142.859 85.0505 142.808 84.7062C142.758 84.3619 142.806 84.0104 142.946 83.6919C143.106 83.3882 143.338 83.1278 143.621 82.9331ZM142.356 82.6724C141.114 83.3547 140.991 84.3435 141.712 85.5163C141.974 85.922 142.279 86.2974 142.624 86.6355L143.567 86.4745C142.187 85.0487 142.379 83.7073 143.452 82.9101L142.356 82.6724ZM69.2269 69.6564C69.2404 69.6517 69.2522 69.6429 69.2605 69.6312C69.2688 69.6196 69.2732 69.6056 69.2732 69.5913C69.2732 69.5769 69.2688 69.563 69.2605 69.5513C69.2522 69.5396 69.2404 69.5308 69.2269 69.5261L68.1461 69.1812C68.1184 69.174 68.0894 69.174 68.0617 69.1812C66.7509 69.7561 66.6896 70.8599 67.4562 72.0557C67.719 72.4441 68.0279 72.7993 68.376 73.1135C68.4142 73.1464 68.4638 73.1629 68.514 73.1596C69.6332 72.9909 69.6945 73.0216 69.7405 72.8759C69.7503 72.844 69.7511 72.81 69.743 72.7776C69.7349 72.7451 69.7181 72.7156 69.6945 72.692C69.3605 72.4085 69.0756 72.0718 68.8513 71.6954C68.6322 71.3748 68.5488 70.9805 68.6191 70.5986C68.6895 70.2166 68.9079 69.878 69.2269 69.6564ZM68.1077 69.4188C67.0652 70.0014 67.1189 70.8676 67.7858 71.8411C68.0108 72.1766 68.2675 72.4897 68.5523 72.7763L69.2039 72.6843C67.9774 71.3811 68.1844 70.2697 68.9816 69.6181L68.1077 69.4188ZM130.198 15.699C130.198 15.699 131.624 12.9164 126.45 11.9275L127.83 10.931C127.83 10.931 134.23 12.0195 132.038 15.285L130.198 15.699ZM11.314 14.0126C11.314 14.0126 9.50499 15.1624 11.728 17.2244L10.6471 17.3777C10.6471 17.3777 7.83391 14.9017 10.2179 13.7136L11.314 14.0126ZM48.5377 59.331C48.7751 58.7673 49.0624 58.226 49.3963 57.7136C49.4115 57.7024 49.4217 57.6856 49.4246 57.6669C49.4274 57.6482 49.4228 57.6292 49.4116 57.6139C49.4004 57.5987 49.3836 57.5885 49.3649 57.5856C49.3462 57.5827 49.3272 57.5874 49.3119 57.5986C49.1492 57.6729 49.003 57.779 48.8819 57.9106C48.7608 58.0423 48.6672 58.1968 48.6067 58.3651C48.4442 58.6653 48.3723 59.0061 48.3997 59.3463C48.4007 59.3554 48.4035 59.3641 48.4079 59.3721C48.4123 59.3801 48.4182 59.3872 48.4254 59.3929C48.4325 59.3986 48.4407 59.4028 48.4494 59.4053C48.4582 59.4079 48.4673 59.4087 48.4764 59.4076C48.4855 59.4066 48.4942 59.4039 48.5022 59.3995C48.5102 59.3951 48.5172 59.3891 48.5229 59.382C48.5286 59.3749 48.5329 59.3667 48.5354 59.358C48.5379 59.3492 48.5387 59.34 48.5377 59.331ZM49.3196 66.9965C49.5245 67.6302 49.8413 68.2221 50.2548 68.7442C51.0213 69.5874 51.4583 69.0125 51.5349 69.2042C51.5468 69.218 51.5533 69.2357 51.5533 69.254C51.5533 69.2723 51.5468 69.2899 51.5349 69.3038C49.7872 70.1317 48.8443 66.5366 48.9746 67.0042C48.962 66.9661 48.9626 66.9248 48.9766 66.8872C48.9905 66.8496 49.0169 66.8178 49.0513 66.7972C50.1551 66.1533 51.5119 65.4864 51.4276 65.5324C51.4439 65.5222 51.4635 65.5189 51.4822 65.5232C51.5009 65.5275 51.5171 65.5391 51.5273 65.5554C51.5374 65.5716 51.5407 65.5913 51.5364 65.61C51.5321 65.6286 51.5205 65.6449 51.5043 65.655C51.5043 65.655 50.5231 66.2836 49.3196 66.9965ZM71.2429 32.1951C71.2429 32.1951 71.3119 29.8955 71.9022 29.9721C72.4924 30.0488 73.1286 32.1951 73.1286 32.1951C75.068 28.9449 76.1488 29.9875 74.6081 33.023C74.6081 33.023 77.1837 31.8502 77.3677 32.6397C77.5516 33.4293 75.6123 34.6021 75.6123 34.6021C76.3476 34.7549 77.0409 35.0662 77.6436 35.5143C78.2799 36.1199 75.6736 36.5798 75.6736 36.5798C75.6736 36.5798 76.8924 38.1129 76.3941 38.9484C75.9802 39.6077 74.2785 38.8564 74.2785 38.8564C74.2785 38.8564 74.5698 40.6348 73.6422 40.8571C73.0443 40.9951 72.1551 38.7721 72.1551 38.7721C72.1551 38.7721 71.3886 40.1979 70.76 40.4432C70.1314 40.6885 70.2004 38.5038 70.2004 38.5038C70.2004 38.5038 68.8973 39.9909 68.1001 39.6536C67.3029 39.3164 68.4833 36.8327 68.4833 36.8327C68.4833 36.8327 66.8813 37.331 66.6896 36.6564C66.498 35.9819 68.1614 35.016 68.1614 35.016C68.1614 35.016 66.7356 33.6286 67.0499 33.0843C67.4408 32.3868 69.3495 33.2146 69.3495 33.2146C69.3495 33.2146 68.4833 31.4516 68.859 31.0606C69.2346 30.6697 70.3077 30.7693 71.2429 32.1951ZM71.1739 33.8202C71.2276 33.5212 71.4039 32.6397 71.6952 32.5631C72.1704 32.4404 72.2394 33.3296 72.2548 33.8585C72.983 32.4787 73.3586 32.77 73.4123 34.2725C73.8339 34.0578 74.8764 33.5596 75.045 33.9965C75.2137 34.4334 74.7767 34.7631 74.4931 34.9624C74.9147 34.9624 75.4053 35.1233 75.2597 35.5219C75.114 35.9205 74.5391 36.1199 74.1558 36.2272C74.3652 36.4853 74.5215 36.7823 74.6157 37.101C74.7461 37.607 73.9335 37.7219 73.4046 37.7296L73.052 38.3658C73.0327 38.4174 73.0019 38.4638 72.9619 38.5015C72.9219 38.5393 72.8738 38.5674 72.8212 38.5836C72.7687 38.5999 72.7131 38.604 72.6588 38.5954C72.6044 38.5869 72.5528 38.5661 72.5077 38.5345C72.2419 38.3268 72.0226 38.0656 71.8638 37.7679C70.9056 38.7568 70.6297 38.4885 70.668 37.6146C69.1349 38.3812 69.1349 37.8599 69.8018 36.3651C69.6679 36.3931 69.5321 36.411 69.3955 36.4188C68.629 36.4188 68.4144 36.0969 69.3955 35.3226C69.24 35.2439 69.1075 35.1263 69.0108 34.9812C68.9141 34.8362 68.8565 34.6686 68.8436 34.4948C68.8973 34.0272 69.5489 34.1345 70.0011 34.2648C69.7635 33.9352 69.6792 33.5672 70.0011 33.3603C70.3231 33.1533 70.875 33.4523 71.1739 33.8279V33.8202ZM69.6408 37.7526C70.0396 37.6885 70.4222 37.5479 70.7677 37.3387C70.7875 37.3269 70.8103 37.321 70.8335 37.3216C70.8565 37.3222 70.879 37.3293 70.8982 37.3421C70.9174 37.3549 70.9327 37.3729 70.9421 37.394C70.9516 37.4151 70.9549 37.4384 70.9516 37.4613C70.8932 37.7005 70.8932 37.9503 70.9516 38.1895C70.9976 38.1895 71.2736 37.9902 71.3119 37.9596C71.7642 37.5916 71.7488 37.4613 71.8715 37.4766C71.8904 37.4795 71.9084 37.4865 71.9243 37.4971C71.9402 37.5077 71.9536 37.5216 71.9635 37.538C72.2088 37.9902 72.5614 38.3888 72.73 38.3505C72.8987 38.3122 72.822 38.2509 73.1056 37.7526C73.2053 37.5763 73.2436 37.492 73.3279 37.492C73.6192 37.492 74.4471 37.4307 74.3781 37.147C74.3298 36.978 74.2602 36.8157 74.1712 36.6641C73.8952 36.1965 73.7955 36.2348 73.8339 36.1122C73.8722 35.9895 74.1788 36.0509 74.6924 35.7749C74.8462 35.7117 74.9716 35.5945 75.045 35.4453C75.045 35.3303 74.976 35.2766 74.861 35.2383C74.4318 35.085 74.0945 35.2383 74.0945 35.0773C74.0945 34.9164 74.3551 34.901 74.7154 34.4564C74.884 34.2495 74.9684 33.9965 74.7154 33.9888C74.2433 34.0706 73.7877 34.2285 73.3663 34.4564C73.355 34.463 73.3422 34.4666 73.3292 34.4668C73.3161 34.467 73.3032 34.4639 73.2917 34.4578C73.2802 34.4516 73.2704 34.4427 73.2634 34.4317C73.2563 34.4207 73.2521 34.4081 73.2513 34.3951C73.2513 33.4983 73.1056 33.161 73.0213 33.092C72.937 33.023 72.7377 33.2606 72.6687 33.3526C72.2701 33.8815 72.2778 34.1192 72.1858 34.1192C72.1817 34.1122 72.1796 34.1042 72.1796 34.0962C72.1796 34.0881 72.1817 34.0802 72.1858 34.0732C72.182 33.6954 72.1199 33.3205 72.0018 32.9617C71.9175 32.724 71.7642 32.6167 71.6339 32.816C71.4639 33.202 71.3478 33.6095 71.2889 34.0272C71.2826 34.0401 71.2728 34.0511 71.2606 34.0587C71.2484 34.0664 71.2343 34.0704 71.2199 34.0704C71.2055 34.0704 71.1914 34.0664 71.1792 34.0587C71.167 34.0511 71.1572 34.0401 71.1509 34.0272C70.9943 33.8025 70.7934 33.6121 70.5607 33.4676C70.4925 33.4263 70.4143 33.4045 70.3346 33.4045C70.2548 33.4045 70.1766 33.4263 70.1084 33.4676C69.6485 33.7665 70.5224 34.5101 70.3614 34.3491C70.3838 34.3634 70.3996 34.3859 70.4053 34.4118C70.4111 34.4376 70.4063 34.4647 70.3921 34.4871C70.3778 34.5095 70.3553 34.5253 70.3294 34.531C70.3035 34.5368 70.2764 34.532 70.2541 34.5178C69.909 34.3694 69.5311 34.314 69.1579 34.3568C68.9816 34.4181 69.0506 34.6787 69.1579 34.8397C69.4032 35.1923 69.6868 35.1847 69.7022 35.3303C69.7175 35.476 69.4569 35.4989 69.1043 35.9359C69.1043 35.9359 68.9739 36.1045 68.9816 36.1505C69.1382 36.1848 69.3003 36.1848 69.4569 36.1505C69.8938 36.1505 69.9858 35.9665 70.0778 36.0739C70.1698 36.1812 69.9781 36.2962 69.6792 37.1854C69.6261 37.3721 69.6104 37.5675 69.6332 37.7603L69.6408 37.7526ZM71.8332 34.8397C71.9711 34.2571 72.1781 34.3338 72.3698 34.8397C72.5001 34.7017 72.6764 34.5638 72.7914 34.7171C72.8272 34.7602 72.8528 34.8109 72.8661 34.8653C72.8794 34.9198 72.88 34.9766 72.868 35.0314C73.0903 35.0314 73.3586 35.085 73.3433 35.2996C73.3279 35.5143 73.1286 35.5909 72.9523 35.6446C73.0163 35.7332 73.0751 35.8253 73.1286 35.9205C73.2513 36.1199 73.0367 36.2578 72.799 36.3422C72.799 36.4648 72.7454 36.6411 72.707 36.8174C72.6687 36.9937 72.4694 37.1087 72.1475 36.8174L71.8868 37.078C71.8682 37.0963 71.8453 37.1095 71.8202 37.1164C71.7951 37.1233 71.7686 37.1238 71.7433 37.1176C71.718 37.1115 71.6947 37.099 71.6755 37.0813C71.6564 37.0637 71.642 37.0414 71.6339 37.0167C71.5978 36.9365 71.5745 36.8512 71.5649 36.7638C71.1739 37.124 70.9516 37.078 71.0513 36.4571C70.9133 36.5261 70.6374 36.6564 70.53 36.5338C70.4227 36.4111 70.6297 36.0969 70.7447 35.9282C70.4074 35.7979 70.2847 35.3993 70.8597 35.3303C70.6144 35.0697 70.9286 34.7401 71.2812 34.901C71.3579 34.2878 71.6339 34.2878 71.8255 34.8474L71.8332 34.8397ZM72.0708 34.5408C71.9558 34.6251 71.8638 35.1157 71.8868 35.0237C71.8868 35.0237 71.8102 35.0697 71.8025 35.0237C71.7948 34.9777 71.6185 34.4871 71.5112 34.5638C71.4039 34.6404 71.4039 35.131 71.4039 35.0543C71.4033 35.0665 71.3994 35.0783 71.3927 35.0885C71.386 35.0987 71.3768 35.107 71.3659 35.1124C71.3549 35.1179 71.3428 35.1203 71.3306 35.1196C71.3185 35.1188 71.3067 35.1148 71.2966 35.108C71.2387 35.071 71.1732 35.0474 71.1049 35.039C70.9976 35.039 70.875 35.1387 70.9593 35.2383C71.01 35.2898 71.0697 35.3314 71.1356 35.361C71.1515 35.3712 71.1639 35.3861 71.171 35.4035C71.1782 35.421 71.1797 35.4403 71.1756 35.4587C71.1714 35.4771 71.1616 35.4938 71.1476 35.5065C71.1336 35.5192 71.116 35.5273 71.0973 35.5296C70.99 35.5296 70.645 35.5296 70.6527 35.6369C70.6603 35.7442 70.967 35.7749 71.0053 35.8669C71.0436 35.9589 70.7983 36.2348 70.7217 36.4035L70.8443 36.3575C71.1279 36.2348 71.1663 36.1275 71.2659 36.1965C71.3656 36.2655 71.2659 36.4648 71.2659 36.7868C71.4729 36.6641 71.5955 36.4341 71.7105 36.4725C71.8255 36.5108 71.7105 36.6488 71.8255 36.9017L71.8945 36.8251L72.0555 36.6411C72.1858 36.5031 72.2854 36.7944 72.4771 36.8251C72.5239 36.6434 72.5597 36.4591 72.5844 36.2732C72.5844 36.1735 72.684 36.1965 72.8373 36.1275C72.8767 36.1111 72.911 36.0846 72.937 36.0509L72.822 35.8516C72.7224 35.7059 72.661 35.6523 72.684 35.5756C72.707 35.4989 72.799 35.5756 73.0137 35.4376C73.2283 35.2996 73.2053 35.2843 73.0137 35.246C72.9245 35.2367 72.8346 35.2367 72.7454 35.246C72.7321 35.2471 72.7188 35.2448 72.7067 35.2392C72.6946 35.2336 72.6842 35.225 72.6765 35.2142C72.6687 35.2033 72.6639 35.1907 72.6626 35.1774C72.6612 35.1642 72.6633 35.1508 72.6687 35.1387C72.6755 35.0904 72.6755 35.0413 72.6687 34.993C72.6687 34.9394 72.6687 34.8474 72.5997 34.8627C72.5687 34.8719 72.54 34.8876 72.5154 34.9087C72.4539 34.9566 72.3974 35.0105 72.3468 35.0697C72.3424 35.0814 72.3346 35.0915 72.3243 35.0987C72.314 35.1058 72.3018 35.1097 72.2893 35.1097C72.2767 35.1097 72.2645 35.1058 72.2543 35.0987C72.244 35.0915 72.2361 35.0814 72.2318 35.0697C72.2471 34.924 72.1475 34.5868 72.0555 34.5484L72.0708 34.5408ZM50.5921 60.8488C50.5154 60.6801 50.4464 60.5038 50.3774 60.3275C50.3716 60.2882 50.3573 60.2505 50.3356 60.2172C50.3138 60.1839 50.2852 60.1557 50.2515 60.1345C50.2178 60.1133 50.18 60.0997 50.1406 60.0945C50.1011 60.0893 50.0611 60.0926 50.023 60.1044C49.985 60.1161 49.95 60.1359 49.9204 60.1625C49.8908 60.189 49.8672 60.2216 49.8514 60.2581C49.8355 60.2946 49.8277 60.334 49.8286 60.3738C49.8294 60.4136 49.8388 60.4527 49.8562 60.4885C49.9252 60.6801 50.0018 60.8717 50.0861 61.0557C50.0959 61.094 50.1137 61.1297 50.1385 61.1604C50.1632 61.1912 50.1942 61.2163 50.2295 61.234C50.2647 61.2518 50.3033 61.2617 50.3428 61.2633C50.3822 61.2648 50.4215 61.2579 50.458 61.243C50.4946 61.228 50.5275 61.2054 50.5545 61.1767C50.5815 61.1479 50.6021 61.1137 50.6148 61.0764C50.6275 61.039 50.6321 60.9994 50.6281 60.9601C50.6242 60.9208 50.6119 60.8829 50.5921 60.8488ZM40.282 67.1575C40.3631 67.1529 40.4438 67.1727 40.5136 67.2145C40.5834 67.2562 40.639 67.318 40.6733 67.3917C40.7076 67.4654 40.719 67.5477 40.706 67.628C40.693 67.7082 40.6563 67.7827 40.6005 67.8419C40.5447 67.901 40.4724 67.9421 40.3931 67.9597C40.3137 67.9773 40.2309 67.9707 40.1553 67.9408C40.0797 67.9108 40.0148 67.8589 39.9691 67.7917C39.9234 67.7244 39.8988 67.645 39.8987 67.5637C39.8966 67.4593 39.9356 67.3582 40.0073 67.2822C40.079 67.2063 40.1776 67.1615 40.282 67.1575ZM110.92 48.4153C111.096 48.1853 111.686 47.4265 111.939 47.6028C112.192 47.7791 112.108 48.193 112.062 48.4383C112.016 48.6836 111.939 48.8139 112.016 48.8522C112.022 48.859 112.03 48.8643 112.038 48.868C112.047 48.8716 112.056 48.8735 112.066 48.8735C112.075 48.8735 112.084 48.8716 112.093 48.868C112.101 48.8643 112.109 48.859 112.115 48.8522C112.951 47.6564 111.954 46.5909 111.127 47.7331C110.988 47.9329 110.875 48.1492 110.789 48.377C110.792 48.3907 110.798 48.4034 110.808 48.4138C110.817 48.4241 110.829 48.4316 110.843 48.4356C110.856 48.4395 110.87 48.4397 110.884 48.4362C110.898 48.4326 110.91 48.4254 110.92 48.4153ZM115.435 49.7108C115.643 49.3905 115.902 49.1058 116.201 48.8676C116.546 48.6606 116.853 48.8676 116.883 49.3122C116.892 49.5709 116.861 49.8295 116.791 50.0787C116.787 50.0873 116.785 50.0965 116.785 50.106C116.784 50.1154 116.786 50.1249 116.789 50.1338C116.792 50.1427 116.797 50.1509 116.803 50.1579C116.81 50.1648 116.817 50.1705 116.826 50.1745C116.834 50.1786 116.844 50.1809 116.853 50.1813C116.863 50.1818 116.872 50.1803 116.881 50.1771C116.89 50.1739 116.898 50.169 116.905 50.1627C116.912 50.1563 116.918 50.1486 116.922 50.1401C117.688 48.9366 116.784 48.0244 116.009 48.5456C115.658 48.8239 115.392 49.1959 115.243 49.6188C115.231 49.6442 115.229 49.6734 115.238 49.7C115.248 49.7266 115.267 49.7484 115.293 49.7606C115.318 49.7728 115.347 49.7744 115.374 49.7651C115.401 49.7557 115.422 49.7362 115.435 49.7108ZM111.786 50.6383C112.261 50.9296 113.012 51.4049 112.928 51.4049C112.935 51.4089 112.941 51.4143 112.946 51.4207C112.951 51.4271 112.955 51.4344 112.957 51.4423C112.959 51.4501 112.96 51.4583 112.959 51.4663C112.958 51.4744 112.955 51.4821 112.951 51.4892C112.947 51.4962 112.942 51.5024 112.935 51.5074C112.929 51.5123 112.921 51.516 112.914 51.5181C112.906 51.5203 112.898 51.5208 112.889 51.5198C112.881 51.5188 112.874 51.5162 112.867 51.5122L112.031 51.1136L111.487 50.8376C111.467 50.8277 111.451 50.8135 111.437 50.7962C111.424 50.7789 111.415 50.7588 111.411 50.7375C111.406 50.7162 111.407 50.6941 111.412 50.673C111.417 50.6518 111.427 50.6321 111.441 50.6153C112.183 49.6255 112.99 48.6857 113.855 47.8021C113.909 47.7407 114.009 47.8021 113.955 47.8864C113.097 49.0592 112.499 49.7414 111.786 50.6383ZM115.358 53.1603C114.978 53.3592 114.561 53.4763 114.133 53.5041C113.705 53.5318 113.276 53.4695 112.874 53.3212C112.863 53.3121 112.855 53.2997 112.851 53.2857C112.847 53.2717 112.848 53.2569 112.853 53.2433C112.858 53.2297 112.867 53.2181 112.879 53.2101C112.891 53.202 112.906 53.198 112.92 53.1986C113.383 53.3033 113.863 53.3068 114.328 53.2089C114.792 53.111 115.23 52.914 115.611 52.6313C115.636 52.6086 115.669 52.5951 115.703 52.5929C115.737 52.5908 115.771 52.6002 115.8 52.6196C115.828 52.639 115.849 52.6673 115.859 52.7C115.869 52.7327 115.868 52.7679 115.856 52.8C115.704 53.3532 115.378 53.8431 114.927 54.1977C114.476 54.5523 113.923 54.7529 113.35 54.77C113.336 54.7653 113.324 54.7565 113.316 54.7448C113.308 54.7332 113.303 54.7192 113.303 54.7049C113.303 54.6905 113.308 54.6766 113.316 54.6649C113.324 54.6532 113.336 54.6444 113.35 54.6397C113.78 54.5767 114.188 54.4088 114.538 54.1508C114.889 53.8928 115.17 53.5526 115.358 53.1603Z" fill="black"/>
<path d="M148.289 100.349C148.282 100.311 148.267 100.274 148.244 100.242C148.222 100.21 148.193 100.184 148.158 100.165C147.867 100.035 131.992 98.9309 131.915 98.9232C133.908 91.1044 136.024 77.7894 137.457 68.6675C137.511 68.3609 136.752 68.4605 126.58 67.3873C125.591 66.9351 124.487 66.5058 123.468 66.1302C123.169 62.926 122.517 58.6333 122.195 57.0542C124.495 56.9929 127.829 53.9037 128.611 50.9218C128.911 51.999 129.043 53.116 129.002 54.2333C128.949 57.9128 130.359 62.8724 135.825 61.2779C141.29 59.6835 139.956 53.7351 139.956 53.7351C139.956 53.7351 138.17 57.7595 135.28 57.6981C131.371 57.6291 135.004 50.6842 135.395 47.8786C135.786 45.0731 133.471 43.5706 129.892 44.0919C129.18 44.1823 128.501 44.4455 127.914 44.8584C127.735 44.5342 127.525 44.2286 127.285 43.9462C127.973 40.9527 128.473 37.9188 128.78 34.8626L128.895 34.9776C129.524 35.5985 129.271 33.5978 129.271 33.5978C129.271 33.5978 129.961 34.855 130.359 34.3644C130.758 33.8738 129.708 33.1225 129.708 33.1225C129.708 33.1225 131.31 33.7358 131.31 33.1225C131.31 32.5093 130.037 32.4327 130.037 32.4327C130.037 32.4327 131.471 31.9881 130.857 31.3212C130.244 30.6543 129.539 32.0187 129.539 32.0187C129.539 32.0187 129.807 30.3476 129.194 30.3246C128.581 30.3016 128.926 32.0034 128.734 32.034C128.542 32.0647 128.734 30.1713 128.067 30.5009C127.4 30.8306 128.351 32.126 128.351 32.126C128.351 32.126 127.101 30.6389 126.818 31.3135C126.534 31.9881 128.121 32.4633 128.121 32.4633C128.121 32.4633 126.733 32.333 126.542 33.1149C126.35 33.8968 127.898 33.2069 127.898 33.2069C125.185 35.2325 122.623 37.4537 120.233 39.8529C119.786 39.3659 119.217 39.0069 118.585 38.8128C117.953 38.6188 117.281 38.5968 116.638 38.749C114.131 39.5156 110.505 41.317 110.889 45.8243C109.526 48.1464 108.657 50.7246 108.336 53.3978C108.181 54.4822 108.339 55.5885 108.793 56.5856C109.247 57.5827 109.977 58.429 110.896 59.0243C111.467 59.3976 112.089 59.6843 112.744 59.8751L111.977 61.8912C111.364 61.3316 94.5536 47.7253 93.7947 47.1121C93.7947 46.2689 93.8483 42.9421 93.0971 42.5818C93.054 42.5569 93.0051 42.5438 92.9553 42.5438C92.9055 42.5438 92.8566 42.5569 92.8135 42.5818C93.0205 41.6313 94.1703 36.3191 94.3466 35.3685C94.3466 35.2689 84.4274 24.9665 84.3201 24.9588C77.8188 24.8638 71.3351 25.6581 65.049 27.3198L64.9187 27.4501C64.0065 31.8347 61.5842 43.8619 61.086 48.3079C61.0818 48.3431 61.0883 48.3788 61.1047 48.4103C61.1212 48.4417 61.1467 48.4675 61.178 48.4842C65.3971 50.5747 69.7505 52.3826 74.2093 53.896C74.5188 57.8811 75.3196 61.8126 76.5933 65.6013C78.525 71.3427 86.4818 78.2493 93.5417 79.7671C92.2386 84.8493 90.6288 92.3309 89.594 97.3978L68.9891 96.5162C66.6895 89.5253 61.6916 81.3692 57.1076 75.7044C57.4909 74.4626 57.6365 73.5811 57.8281 72.8298C58.0198 72.0786 57.5445 70.0166 57.0156 69.618C56.7396 69.4034 56.3487 69.5643 56.295 70.3845C56.1368 69.7688 55.8778 69.1834 55.5285 68.6521C55.5023 68.6312 55.4719 68.6163 55.4393 68.6084C55.4067 68.6005 55.3728 68.5998 55.34 68.6064C55.3071 68.613 55.2761 68.6266 55.2491 68.6465C55.222 68.6663 55.1997 68.6918 55.1835 68.7211C55.1023 69.0276 55.1023 69.3499 55.1835 69.6563C55.2372 70.0549 55.2602 69.8556 54.8539 69.2041C54.693 68.9511 54.4477 68.6138 54.187 68.7671C53.6351 69.0967 54.6776 71.0668 54.7619 71.8333C54.6637 72.361 54.4461 72.8592 54.1257 73.2898C54.0874 72.0633 54.1257 71.3197 53.8574 71.0898C53.0909 70.4842 51.7647 74.2096 53.5968 76.5016C53.6292 79.9107 53.8339 83.316 54.21 86.7044C51.2355 84.3731 47.9007 82.5426 44.3369 81.2849L44.2832 76.149C45.3703 76.2399 46.4638 76.0798 47.4792 75.681C48.4946 75.2823 49.4048 74.6556 50.1397 73.8493C51.6728 72.2013 52.9606 69.4187 53.2059 64.7274C53.6964 64.4898 54.6163 63.9608 54.7926 63.4473C55.0609 62.6807 49.1201 52.7156 49.0588 52.6696C49.1988 51.7515 49.2323 50.8204 49.1585 49.8947C48.7675 47.1274 41.9529 47.4494 40.7877 47.526C38.7181 45.395 30.9682 37.7218 28.6073 36.3191C28.408 36.1351 28.2623 36.0201 28.2623 36.0201C28.2623 36.0201 30.401 37.0166 30.1404 35.8821C29.8797 34.7476 28.3006 35.0159 28.3006 35.0159C28.3006 35.0159 30.5236 34.3337 30.1097 33.3525C29.6958 32.3713 27.9634 34.4947 27.9634 34.4947C27.9634 34.4947 29.2435 32.6396 28.3543 32.195C27.4651 31.7504 27.4038 34.3797 27.0818 34.3184C26.7599 34.257 27.2965 31.8117 26.4456 31.8501C25.5947 31.8884 25.9703 34.303 25.9703 34.303C25.9703 34.303 24.9968 32.333 24.1536 33.2912C23.3104 34.2494 25.2958 34.8933 25.2958 34.8933C25.2958 34.8933 22.9961 36.0278 23.6783 36.595C24.3606 37.1623 25.7327 35.8898 25.7327 35.8898C25.7327 35.8898 24.0846 37.4229 24.6365 38.1894C25.1884 38.956 26.3383 36.6563 26.3383 36.6563C26.3383 36.6563 25.794 40.0368 26.6679 39.1476C26.8063 39.0048 26.9296 38.8481 27.0358 38.68C27.5244 43.4616 28.3104 48.208 29.3891 52.8919C23.7627 56.579 15.4073 70.6682 13.9585 75.2521C13.3299 77.2298 17.109 79.4298 22.0149 80.9399C14.8094 86.1218 11.3216 93.7643 10.6317 102.511C10.2344 107.54 10.6538 112.601 11.8735 117.497C10.5243 118.478 9.86511 120.394 9.57382 121.866C8.64629 126.22 9.40518 134.131 20.3745 145.085L49.5034 144.418C49.5034 144.418 30.5696 104.205 12.2644 117.221C8.99891 103.561 11.0073 89.533 22.4135 81.0549C28.8832 83.0096 37.0546 83.7072 39.9062 81.2312C40.2199 80.9574 40.5097 80.6574 40.7724 80.3344C49.4191 82.7643 58.8937 88.4291 60.7564 97.4131C60.695 97.7657 59.9898 101.146 56.8316 105.416C55.0172 107.819 52.8875 109.967 50.4999 111.801C48.1148 112.453 45.6239 112.625 43.1717 112.307C34.8623 111.081 32.348 103.637 32.5243 95.1901C32.5243 95.0981 32.3864 95.0981 32.3787 95.1901C32.1104 103.791 34.6783 111.364 43.1104 112.644C45.6229 112.985 48.1784 112.813 50.6226 112.139C54.8965 114.464 59.5644 115.976 64.3898 116.6C68.1969 124.485 71.3752 132.659 73.895 141.045C74.7382 143.958 74.6156 143.935 74.7459 143.904C74.7551 143.903 74.7638 143.899 74.7715 143.894C74.7792 143.888 74.7858 143.882 74.7908 143.874C74.7958 143.866 74.7992 143.857 74.8007 143.848C74.8022 143.839 74.8018 143.829 74.7996 143.82C72.8219 134.913 68.3989 123.798 64.6964 116.638C68.4222 117.158 72.1954 117.248 75.9417 116.906L96.7382 119.313C96.7382 119.589 97.6274 143.245 97.6274 143.245C97.6325 143.26 97.6422 143.274 97.6553 143.283C97.6684 143.293 97.6841 143.298 97.7002 143.298C97.7164 143.298 97.7321 143.293 97.7452 143.283C97.7583 143.274 97.768 143.26 97.7731 143.245L97.0525 119.298C97.0525 119.298 147.223 100.794 147.867 100.548C148.005 101.422 148.166 124.135 148.158 124.219C148.163 124.235 148.173 124.248 148.186 124.258C148.199 124.267 148.215 124.272 148.231 124.272C148.247 124.272 148.263 124.267 148.276 124.258C148.289 124.248 148.299 124.235 148.304 124.219C148.319 122.985 148.71 101.851 148.289 100.349ZM27.1738 38.3734C27.3671 37.9587 27.4616 37.5047 27.4498 37.0473C27.4498 37.0473 28.3313 38.4117 29.0749 38.2431C28.9748 38.7068 28.7819 39.1455 28.5079 39.5328C28.2339 39.9201 27.8844 40.248 27.4804 40.4968C27.3654 39.7302 27.2581 39.0097 27.1815 38.3734H27.1738ZM27.5111 40.6731C28.0607 40.4646 28.5368 40.0991 28.8803 39.622C29.2238 39.145 29.4194 38.5775 29.4428 37.9901C29.5884 37.7525 29.4428 37.6222 29.4428 37.1776L31.7424 39.2856C32.0389 40.3168 32.031 41.4118 31.7195 42.4386C31.4081 43.4654 30.8064 44.3803 29.987 45.0731C29.5198 45.5159 29.0057 45.9066 28.4539 46.2382C28.362 45.9929 27.5188 40.6731 27.5188 40.6731H27.5111ZM28.4539 46.4145C31.1829 45.2034 32.9459 42.5205 31.9724 39.5156L34.9543 42.3135C35.6595 46.2919 34.0728 49.0591 30.585 50.5922C30.1527 50.7833 29.7069 50.9421 29.2512 51.0675C29.1898 50.7379 28.5919 47.2041 28.4616 46.4145H28.4539ZM31.4282 54.5706C31.0015 54.4484 30.6064 54.235 30.2702 53.9452C29.934 53.6553 29.6648 53.2959 29.4811 52.8919C29.5654 52.8919 29.5424 52.8919 29.2742 51.2438C31.3207 50.8877 33.1472 49.7462 34.364 48.0626C34.8825 47.2425 35.2222 46.3223 35.3609 45.362C35.4996 44.4018 35.4342 43.4231 35.1689 42.4898L38.6414 45.7553C38.8379 47.3126 38.5376 48.8922 37.7832 50.2688C37.0289 51.6453 35.8591 52.7484 34.4407 53.4208C33.5139 53.9272 32.5241 54.3087 31.4972 54.5553C31.4852 54.5527 31.4729 54.5527 31.461 54.5554C31.4491 54.558 31.4379 54.5632 31.4282 54.5706ZM31.6888 54.6396C33.7819 54.2911 35.7038 53.2682 37.162 51.7267C37.8522 50.9424 38.3579 50.0132 38.6418 49.0077C38.9256 48.0022 38.9805 46.9458 38.8024 45.9163C39.7069 46.7595 40.3355 47.365 40.5654 47.549C41.1327 52.5393 34.732 55.3218 31.7041 54.6396H31.6888ZM43.9536 76.011L44.0456 81.2082C42.6888 80.7176 41.6233 80.4417 40.8644 80.1964C44.4135 75.5971 41.1327 68.1002 41.1327 68.1002C36.7863 69.5797 36.9397 66.6284 37.001 66.1225C37.2386 64.2138 38.925 64.4821 42.1369 65.241C45.7626 66.0995 48.2693 57.9204 48.9668 52.9762C50.7989 56.3413 54.3327 62.4354 54.4093 63.3399C54.2637 63.7462 53.3055 64.2751 52.9146 64.4514C52.8855 64.4663 52.8605 64.488 52.8418 64.5147C52.8231 64.5415 52.8112 64.5724 52.8072 64.6048C52.5696 69.2654 51.1208 74.3093 46.6288 75.6354C45.8137 75.8882 44.9565 75.9767 44.1069 75.896C44.0898 75.8939 44.0724 75.8952 44.0558 75.8998C44.0391 75.9045 44.0236 75.9124 44.01 75.9231C43.9965 75.9338 43.9852 75.947 43.9768 75.9621C43.9684 75.9772 43.9632 75.9939 43.9613 76.011H43.9536ZM128.466 33.8968C128.426 34.0439 128.425 34.1988 128.463 34.3464C128.5 34.4941 128.575 34.6296 128.68 34.74C128.619 35.1922 128.535 35.7212 128.443 36.2731C128.159 36.1061 127.912 35.8846 127.715 35.6215C127.517 35.3584 127.374 35.0588 127.293 34.74C127.829 34.8473 128.466 33.8968 128.466 33.8968ZM127.147 33.9351C127.247 33.8124 127.247 33.8278 127.147 33.9351V33.9351ZM125.369 35.4682L127.04 34.0041V34.1651C127.004 34.2268 126.986 34.2969 126.986 34.3682C126.986 34.4395 127.004 34.5096 127.04 34.5713C127.06 34.9856 127.204 35.3844 127.452 35.7164C127.701 36.0484 128.043 36.2983 128.435 36.434L127.776 40.2668C125.875 39.209 124.802 37.5609 125.369 35.4452V35.4682ZM123.069 37.5532L125.223 35.6138C124.51 37.7908 125.859 39.5999 127.768 40.4124C127.669 40.9567 127.239 43.4096 127.193 43.6549L127.002 43.6013C126.126 42.7485 125.081 42.088 123.935 41.6619C123.495 41.0856 123.187 40.4194 123.033 39.7106C122.88 39.0018 122.884 38.2678 123.046 37.5609L123.069 37.5532ZM122.924 37.6835C122.735 38.3242 122.687 38.9977 122.78 39.6589C122.874 40.32 123.109 40.9533 123.468 41.5163C122.693 41.2415 121.902 41.0161 121.099 40.8417C120.887 40.54 120.649 40.2578 120.386 39.9985L122.924 37.6835ZM113.012 59.7908C113.018 59.7753 113.02 59.7586 113.019 59.742C113.018 59.7254 113.013 59.7093 113.005 59.6947C112.997 59.6801 112.986 59.6675 112.973 59.6576C112.959 59.6477 112.944 59.6409 112.928 59.6375C111.602 59.2487 110.438 58.4421 109.609 57.3379C108.16 55.2605 108.612 52.6006 109.363 50.1553C109.849 48.6433 110.464 47.1763 111.203 45.7706C113.041 44.0251 115.298 42.7841 117.757 42.1678C117.39 43.1905 117.259 44.2827 117.374 45.363C117.488 46.4434 117.844 47.4841 118.416 48.4076C120.348 51.8494 122.126 51.2438 122.77 51.8494C122.77 51.8494 124.472 50.6382 125.254 51.8494C126.036 53.0605 124.142 54.8159 122.126 54.356C120.11 53.8961 119.497 57.0236 122.05 57.0772C122.05 57.1462 122.402 61.3469 123.292 66.0842C118.754 64.4361 113.326 62.9797 112.169 62.0598L113.012 59.7908ZM92.9745 42.9267C93.4727 43.563 93.4497 46.3609 93.4267 47.1734C93.4252 47.2015 93.4306 47.2296 93.4427 47.255C93.4548 47.2804 93.473 47.3025 93.4957 47.3191C92.6832 46.6752 110.138 60.6877 111.847 62.2438C112.751 63.064 117.565 64.5434 119.689 65.218C120.135 67.1338 120.198 69.119 119.873 71.0591C119.58 72.7192 118.925 74.2946 117.955 75.6735C116.986 77.0525 115.725 78.2015 114.262 79.0389C110.82 77.9294 107.751 75.8923 105.393 73.1518C99.9211 66.3082 95.4104 58.7491 91.9856 50.6842C91.2804 48.9211 91.6713 49.4884 91.5104 49.3274C91.3494 49.1664 89.2107 47.0278 88.7354 45.9776C88.7354 45.9239 88.6511 45.7553 88.6741 45.7093C88.6971 45.6633 89.18 45.8396 89.3257 45.9469C90.2915 46.6445 90.3989 47.1504 90.6441 46.9588C90.8895 46.7671 90.4065 46.5372 89.7703 45.1497C89.571 44.7128 89.3257 43.9539 89.7243 44.1992C90.266 44.686 90.7244 45.2583 91.0811 45.8933C91.1075 45.9283 91.146 45.9522 91.1892 45.9603C91.2323 45.9684 91.2769 45.9602 91.3142 45.9372C91.3516 45.9142 91.379 45.8781 91.3912 45.836C91.4034 45.7938 91.3994 45.7487 91.38 45.7093C90.9228 44.9647 90.5791 44.156 90.3605 43.31V43.1107C90.3605 43.08 90.4755 43.1107 90.4985 43.1644C91.1146 43.7756 91.6319 44.479 92.0316 45.2494C92.0464 45.2784 92.0688 45.3027 92.0966 45.3197C92.1243 45.3367 92.1562 45.3457 92.1888 45.3457C92.2213 45.3457 92.2532 45.3367 92.2809 45.3197C92.3087 45.3027 92.3311 45.2784 92.3459 45.2494C92.4903 44.9083 92.5908 44.5503 92.6449 44.1839C92.6735 43.7476 92.7854 43.3209 92.9745 42.9267ZM86.5661 64.7197C83.5409 61.453 80.8971 57.8526 78.686 53.988C80.3724 53.7274 89.3717 52.3016 90.7208 52.064C90.8128 51.972 90.7208 52.2556 91.2727 49.703C91.3417 49.9253 91.472 50.2856 91.6713 50.7762C94.0674 56.3913 96.9962 61.7639 100.418 66.8201C96.0177 66.1915 88.4902 66.6898 86.5661 64.7121V64.7197ZM84.5731 48.4459C83.6379 48.5379 80.5947 48.8675 77.2142 49.2124C75.4358 48.2312 73.8337 47.3191 73.1362 46.8361C74.1173 46.7211 78.9313 46.1539 79.9048 46.2612C80.8783 46.3685 83.6532 47.94 84.5731 48.4459ZM80.2267 45.9929C80.9396 43.126 82.1738 37.1086 82.1891 37.032C82.2044 36.9553 82.0895 36.9476 86.6658 40.0982C85.8532 43.9232 85.0867 47.526 84.895 48.2926C83.4204 47.3707 81.8564 46.6002 80.2267 45.9929ZM87.1947 49.956C88.9347 50.9755 90.3222 51.8417 90.5215 51.9643L84.1361 52.9455C83.6302 52.6772 81.9285 51.788 79.9891 50.7455L87.1947 49.956ZM91.0274 43.1567L92.3306 44.0612C92.3023 44.2982 92.251 44.5318 92.1773 44.7588C91.845 44.1856 91.4573 43.6465 91.0198 43.149L91.0274 43.1567ZM91.1577 32.3407L94.1013 35.4069C94.0476 35.7595 93.1278 40.3664 92.7905 41.9762L89.64 39.4006C90.5138 35.3072 90.2992 36.2961 91.1501 32.333L91.1577 32.3407ZM90.4525 42.7734C90.3974 42.7572 90.339 42.755 90.2828 42.767C90.2266 42.7791 90.1742 42.805 90.1306 42.8424C89.8623 43.0724 89.9926 43.609 90.1306 43.9156C90.2685 44.2222 90.3069 44.2145 90.0003 43.9769C89.502 43.6013 89.1647 43.8696 89.1647 44.3065C89.2452 44.8514 89.4384 45.3736 89.732 45.8396C89.4684 45.5941 89.1465 45.42 88.7968 45.3337C88.4825 45.3337 88.2372 45.5483 88.3675 45.9546C88.6358 46.8361 90.5445 48.8215 91.1884 49.4731L90.6518 51.8724C90.6518 51.8724 89.226 50.9142 87.394 49.772C87.5626 49.0055 88.3215 45.4947 89.1111 41.8152L90.4525 42.7734ZM84.3201 25.3574C84.8337 25.848 88.2449 29.3435 88.7968 29.9107C88.7124 30.5316 88.0302 33.7971 87.2637 37.4229L82.787 33.7971C82.787 33.7971 84.3201 25.503 84.3201 25.3574ZM63.102 38.3274C64.6351 38.1358 66.1682 37.9595 67.9543 37.7372C68.0386 37.4842 68.1306 37.2543 68.1996 37.0856C67.594 37.2159 66.6665 37.3002 66.5438 36.7023C66.4212 36.1044 67.4177 35.3379 67.9389 34.9929L67.709 34.74C65.555 35.1232 64.1369 35.4452 63.6309 35.5678C64.3975 31.6278 65.0874 28.2703 65.2177 27.6417C68.0958 26.8414 71.0296 26.2572 73.9947 25.894C73.872 26.3692 73.3814 28.2856 72.7452 30.9072C72.9215 31.2905 73.0748 31.6738 73.1591 31.9421C73.4811 31.4285 74.286 30.2173 74.8839 30.087C75.1905 30.018 75.4051 30.2327 75.4588 30.5469C75.4469 31.3106 75.258 32.061 74.9069 32.7393C75.2789 32.5827 75.6604 32.4496 76.049 32.3407C76.8156 28.9219 77.4748 26.0856 77.6205 25.5184C81.1236 25.2424 83.6685 25.2731 84.1821 25.2807C84.1821 25.3497 82.4881 33.6745 82.4881 33.6745C79.8741 33.6745 79.4219 33.7281 76.8846 33.8661C76.6147 34.1109 76.3278 34.3364 76.026 34.5407C76.9766 34.809 78.479 35.4605 77.7048 36.0738C77.1709 36.3865 76.5834 36.5971 75.9724 36.6947C76.091 36.8665 76.1985 37.0458 76.2943 37.2313C79.6058 37.0779 81.1773 37.0473 81.8212 37.0396C79.9201 46.6751 80.1884 45.9699 79.9431 45.9393C77.5617 45.9999 75.1862 46.2047 72.8295 46.5525L74.1403 40.7574C73.3738 41.6466 72.6072 40.2438 72.132 39.163C71.833 39.6382 71.0128 40.857 70.5145 40.6041C70.0316 42.8577 69.587 45.0654 69.2651 47.0048L61.4463 48.1393C61.7452 45.5407 62.6191 40.857 63.102 38.3274ZM61.5689 48.2926L69.6254 47.3114L73.5884 49.6264L66.2065 50.4466C63.8762 49.4117 62.1285 48.5532 61.5382 48.2926H61.5689ZM69.6867 51.903L76.2407 51.1825L80.2267 53.5511L76.0184 54.172C73.8184 53.4744 71.6414 52.6696 69.656 51.8724L69.6867 51.903ZM80.0964 70.7295C77.6051 67.7859 76.9766 65.9232 76.0644 62.6654C75.2428 59.81 74.6709 56.8887 74.355 53.9344C74.7536 54.0647 75.8881 54.425 76.0031 54.4326L78.5327 54.0417C80.6304 58.0117 83.2468 61.685 86.3131 64.965C87.8846 66.5595 92.8978 66.6514 95.3814 66.7204C95.7287 67.5485 95.911 68.4364 95.918 69.3344C96.2323 73.3434 94.9675 76.2333 92.6142 79.2995C88.1069 77.9274 83.2239 74.4319 80.0658 70.6988L80.0964 70.7295ZM92.7522 79.3378C93.5522 78.5153 94.2427 77.5929 94.8065 76.5936C96.0179 74.3674 96.5131 71.8217 96.2246 69.3037C96.1315 68.4176 95.9094 67.5499 95.5654 66.7281C97.1982 66.7741 99.1375 66.8124 100.525 66.9811C101.943 69.0737 103.507 71.2048 105.216 73.2974C109.049 77.9964 115.312 79.9894 121.314 80.9629C121.332 80.9629 121.35 80.9557 121.363 80.9427C121.376 80.9298 121.383 80.9122 121.383 80.8939C121.383 80.8756 121.376 80.8581 121.363 80.8452C121.35 80.8322 121.332 80.825 121.314 80.825C118.969 80.4576 116.661 79.8882 114.415 79.1232C116.856 77.8594 118.731 75.7217 119.666 73.1365C120.534 70.601 120.596 67.8588 119.842 65.287C122.433 66.1455 127.508 67.8243 129.424 69.5337C130.101 70.0783 130.664 70.7515 131.079 71.5145C131.495 72.2776 131.756 73.1154 131.846 73.9797C132.061 75.8424 131.785 78.28 131.241 81.8905C130.213 87.6232 127.8 93.0178 124.211 97.6047L95.3354 96.5852C95.3354 96.5852 95.918 89.9239 98.0567 85.0256C96.8171 83.8094 96.0095 82.2211 95.757 80.503C95.918 78.0884 97.5661 75.3748 99.0915 73.8417C99.7814 73.1441 99.9347 73.2361 99.8581 73.1211C99.6281 72.6842 95.8874 76.1183 95.5194 79.8898C94.5803 79.8027 93.6528 79.6177 92.7522 79.3378ZM93.8253 79.8131C94.3883 79.9312 94.96 80.003 95.5347 80.0277V80.7943C93.856 87.9232 91.2267 96.4089 91.5027 96.4932C92.6525 96.8382 129.064 98.31 129.278 98.1337C130.206 97.3671 135.472 72.5615 135.288 70.3692C135.242 69.871 133.172 69.9706 130.229 69.733C129.312 68.8048 128.22 68.0674 127.017 67.5636C133.809 68.3302 135.188 68.3302 137.212 68.7288C136.085 75.827 133.249 92.7295 131.356 99.6744C131.241 99.6744 95.9947 98.241 89.8163 97.6891C92.3689 84.65 92.7522 84.0291 93.8177 79.8131H93.8253ZM95.4351 111.656C97.3312 111.824 99.236 111.873 101.138 111.801C101.138 112.231 101.322 113.334 101.391 113.787C99.1835 113.549 91.725 113.465 90.7898 113.472C90.7821 113.449 94.3619 112.1 95.4274 111.656H95.4351ZM101.284 111.809C104.419 110.49 130.359 100.625 131.325 100.265C131.371 100.688 131.371 101.114 131.325 101.537C130.604 101.867 102.319 113.465 101.544 113.802C101.468 113.219 101.33 112.376 101.276 111.809H101.284ZM89.7396 98.011C91.3954 98.1643 128.213 99.958 130.888 100.058C105.998 109.295 102.388 111.188 101.169 111.556C100.349 111.556 96.5159 111.495 95.8797 111.456C97.3438 110.69 104.503 106.895 104.695 106.857C105.606 106.917 106.52 106.917 107.432 106.857C109.563 106.796 108.673 106.596 109.448 106.987C109.67 107.102 110 107.248 110.176 107.072C110.352 106.895 110.229 106.734 110.115 106.55C110.217 106.533 110.317 106.505 110.413 106.466C110.659 106.581 110.988 106.719 111.18 106.581C111.212 106.556 111.239 106.526 111.258 106.49C111.278 106.455 111.29 106.416 111.295 106.376C111.299 106.336 111.295 106.296 111.283 106.257C111.271 106.218 111.252 106.183 111.226 106.152C113.073 105.6 123.736 102.411 125.377 101.491C125.53 101.414 125.698 101.292 125.66 101.131C125.622 100.97 125.522 100.978 125.407 100.955C124.02 100.671 90.7131 99.6208 89.7626 99.5441C89.686 99.5441 89.6936 99.5824 82.1431 101.767L78.4867 101.254C78.709 101.2 84.918 99.4904 85.4929 99.3218L89.7396 98.011ZM105.255 106.55C106.03 106.238 106.827 105.982 107.639 105.784C107.8 105.906 108.252 106.244 108.712 106.55C107.561 106.474 106.406 106.474 105.255 106.55ZM108.014 102.978C106.404 102.71 104.48 103.339 100.402 103.178C94.3543 102.94 88.6741 102.564 82.5187 101.79L89.7703 99.7741C99.3905 100.157 122.234 100.855 125.124 101.223C123.307 102.15 113.664 105.102 111.694 105.722C112.2 105.094 109.432 103.247 108.014 103.001V102.978ZM89.5403 97.5664C89.5403 97.7504 89.479 97.8117 89.5403 97.873C85.5236 98.9155 82.4651 99.7127 78.0421 101.162C75.3936 100.689 72.7183 100.381 70.0316 100.242C69.7664 99.0265 69.4363 97.8264 69.0428 96.6465C69.3417 96.6849 87.4706 97.5511 89.5403 97.5894V97.5664ZM54.4247 86.9344C53.8957 83.8682 53.8498 76.4633 53.7731 76.3713C53.2517 75.6949 52.9447 74.878 52.8916 74.0257C52.8466 73.1765 53.018 72.3298 53.3898 71.565C53.4425 71.4794 53.5131 71.4062 53.5968 71.3504C53.7116 72.1678 53.7552 72.9937 53.7271 73.8187C53.73 73.8522 53.7428 73.8841 53.7639 73.9102C53.785 73.9364 53.8134 73.9557 53.8455 73.9656C53.8777 73.9754 53.912 73.9755 53.9442 73.9657C53.9764 73.9559 54.0049 73.9368 54.0261 73.9107C53.9111 74.064 55.0839 72.5385 55.0149 71.8027C54.9612 71.2891 54.2943 69.7406 54.2484 69.1657C54.5017 69.4764 54.7083 69.8225 54.8616 70.1929C55.5055 71.5344 55.4365 71.772 55.6895 71.726C55.9424 71.68 55.6895 71.3964 55.4518 69.9093C55.4141 69.6808 55.3885 69.4506 55.3752 69.2194C55.7454 70.1026 56.0653 71.006 56.3334 71.9253C56.3505 71.9651 56.3811 71.9976 56.4199 72.0171C56.4586 72.0365 56.503 72.0416 56.5452 72.0316C56.5873 72.0215 56.6246 71.9968 56.6503 71.962C56.6761 71.9271 56.6887 71.8843 56.686 71.841C56.6247 71.4807 56.4713 70.1469 56.686 69.9323C57.211 70.7803 57.4502 71.7745 57.3682 72.7685C57.1459 73.65 57.0386 74.4166 56.6017 75.7197C56.5869 75.7454 56.5791 75.7744 56.5791 75.8041C56.5791 75.8337 56.5869 75.8627 56.6017 75.8884C56.6017 75.8884 58.8323 78.6096 61.5076 82.703C64.8727 87.8542 68.2456 94.2549 69.6254 100.28C65.8923 100.004 61.5842 97.7121 60.9327 97.4054C60.0258 93.2731 57.7286 89.5769 54.4247 86.9344ZM62.7571 98.5016C62.6727 98.8312 62.5731 99.1608 62.4734 99.4751C62.0128 99.0167 61.4656 98.6545 60.8637 98.4096C60.971 98.0417 61.0323 97.7657 61.0707 97.6431C61.6839 97.9497 62.2435 98.241 62.7571 98.5016ZM60.8024 98.6166C61.2722 99.0632 61.824 99.4146 62.4274 99.6514C62.2051 100.341 61.9828 100.97 61.7222 101.629C61.3113 101.183 60.8296 100.807 60.2964 100.518C59.9898 100.334 60.1738 100.686 60.8024 98.6166ZM60.0358 100.61C60.4931 101.09 61.0332 101.485 61.6302 101.775C61.3466 102.48 61.0247 103.17 60.7334 103.768C60.2756 103.348 59.7592 102.997 59.2003 102.725C58.886 102.587 59.024 102.932 60.0588 100.61H60.0358ZM58.9243 102.833C59.4304 103.297 60.0108 103.672 60.6414 103.944C60.1862 104.847 59.6742 105.72 59.1083 106.558C58.6118 106.017 58.0321 105.559 57.3912 105.201C57.9513 104.44 58.4707 103.649 58.9473 102.833H58.9243ZM57.2916 105.362C57.7918 105.905 58.3769 106.363 59.024 106.719C58.5314 107.431 57.9991 108.114 57.4295 108.766C56.9369 108.209 56.3601 107.733 55.7201 107.355C56.318 106.673 56.8546 105.983 57.3146 105.362H57.2916ZM55.5745 107.509C56.0697 108.063 56.6492 108.537 57.2916 108.911C56.7605 109.506 56.1976 110.072 55.6052 110.605C55.1623 110.051 54.6466 109.558 54.0721 109.141C54.6301 108.646 55.1407 108.099 55.5975 107.509H55.5745ZM53.8881 109.295C54.3254 109.85 54.842 110.338 55.4212 110.743C54.9322 111.182 54.4205 111.593 53.8881 111.978C53.4046 111.517 52.8508 111.137 52.2477 110.851C52.8362 110.37 53.3919 109.85 53.9111 109.295H53.8881ZM50.8219 112.008C51.2741 111.648 51.6574 111.334 52.0714 110.981C52.5706 111.441 53.1398 111.819 53.7578 112.1C53.3526 112.382 52.9301 112.638 52.493 112.867C51.9206 112.606 51.3604 112.32 50.8142 112.008H50.8219ZM52.6846 112.959C56.732 111.058 61.2316 105.952 62.9027 98.5706C67.9773 101.093 68.1152 99.8354 77.7124 101.384C77.7124 101.445 77.7968 101.422 77.8581 101.384C85.3194 102.558 92.8458 103.272 100.395 103.522C106.527 103.768 107.217 102.38 109.961 104.243C110.298 104.473 111.287 105.224 111.379 105.6C110.82 105.546 109.287 104.312 108.919 104.067C108.901 104.052 108.88 104.041 108.857 104.035C108.835 104.028 108.812 104.026 108.789 104.029C108.765 104.031 108.743 104.038 108.723 104.049C108.702 104.06 108.684 104.075 108.67 104.094C108.655 104.112 108.644 104.133 108.638 104.155C108.631 104.177 108.629 104.201 108.631 104.224C108.634 104.247 108.641 104.269 108.652 104.29C108.663 104.31 108.678 104.328 108.696 104.343C109.491 104.908 110.225 105.552 110.889 106.267C110.538 106.134 110.204 105.962 109.892 105.753C108.244 104.711 108.114 104.32 107.915 104.557C107.883 104.59 107.865 104.634 107.865 104.68C107.865 104.726 107.883 104.77 107.915 104.803C108.601 105.398 109.234 106.052 109.808 106.757C109.086 106.391 108.402 105.951 107.769 105.447C107.524 105.255 104.411 106.489 104.12 106.665C84.3738 118.815 65.6393 118.984 52.6769 112.959H52.6846ZM96.8992 118.991L76.9689 116.814C81.5105 116.356 85.9733 115.31 90.2456 113.702C95.5424 113.955 100.08 113.879 101.453 113.94C101.461 113.96 101.477 113.976 101.497 113.984C101.517 113.993 101.539 113.994 101.56 113.986C133.655 100.732 131.716 101.828 131.724 101.675C131.784 101.108 131.765 100.535 131.67 99.9734C131.67 99.9734 131.885 99.2068 131.9 99.1455C132.429 99.1915 146.909 100.349 147.438 100.418L96.8992 118.991Z" fill="black"/>
</svg>
