<svg width="154" height="154" viewBox="0 0 154 154" fill="none" xmlns="http://www.w3.org/2000/svg">
<path fill-rule="evenodd" clip-rule="evenodd" d="M94.5286 40.5804C94.8163 40.6875 95.1226 40.7359 95.4294 40.7227C95.7361 40.7096 96.0371 40.6351 96.3146 40.5038C96.1328 40.915 95.809 41.247 95.4024 41.4389C95.3934 41.4414 95.3849 41.4457 95.3775 41.4515C95.3701 41.4573 95.3639 41.4645 95.3593 41.4727C95.3546 41.4809 95.3517 41.4899 95.3505 41.4992C95.3494 41.5086 95.3501 41.518 95.3526 41.5271C95.3551 41.5361 95.3594 41.5446 95.3652 41.552C95.371 41.5594 95.3782 41.5656 95.3864 41.5702C95.3946 41.5749 95.4036 41.5778 95.4129 41.579C95.4222 41.5801 95.4317 41.5794 95.4408 41.5769C96.5446 41.3546 96.8205 40.1512 96.8818 40.0438C96.8913 40.0051 96.8874 39.9643 96.8706 39.9281C96.8539 39.8919 96.8255 39.8625 96.7899 39.8445C96.4296 39.6376 96.7899 40.4041 94.5746 40.4271C94.5645 40.4241 94.554 40.4231 94.5435 40.4241C94.533 40.4252 94.5229 40.4283 94.5136 40.4333C94.5044 40.4383 94.4962 40.445 94.4896 40.4532C94.4829 40.4613 94.478 40.4707 94.4749 40.4808C94.4719 40.4908 94.4709 40.5014 94.472 40.5118C94.473 40.5223 94.4761 40.5324 94.4811 40.5417C94.4861 40.551 94.4929 40.5591 94.501 40.5658C94.5092 40.5724 94.5185 40.5774 94.5286 40.5804ZM48.1075 43.2863C48.1218 43.3003 48.1411 43.3082 48.1612 43.3082C48.1812 43.3082 48.2005 43.3003 48.2148 43.2863C48.3145 43.1176 47.9005 43.3706 47.9389 41.8988C48.243 42.1304 48.6078 42.2689 48.989 42.2974C48.9996 42.3009 49.0108 42.302 49.0219 42.3007C49.0329 42.2994 49.0436 42.2957 49.0531 42.2899C49.0625 42.284 49.0706 42.2762 49.0768 42.2669C49.0829 42.2576 49.087 42.2471 49.0887 42.2361C49.0909 42.2149 49.0851 42.1936 49.0723 42.1765C49.0595 42.1595 49.0407 42.1479 49.0197 42.1441C48.8831 42.0882 48.75 42.0242 48.6211 41.9525C48.3342 41.8085 48.1025 41.5742 47.9619 41.2856C47.9469 41.246 47.9192 41.2125 47.8831 41.1903C47.8471 41.1682 47.8047 41.1585 47.7626 41.163C47.41 41.163 47.4023 42.9797 48.1075 43.2863ZM48.7974 37.292C49.1238 37.1982 49.4131 37.0053 49.6252 36.7401C49.6453 36.7316 49.6612 36.7157 49.6698 36.6957C49.6784 36.6757 49.6789 36.6531 49.6712 36.6328C49.6573 36.6209 49.6397 36.6144 49.6214 36.6144C49.6031 36.6144 49.5855 36.6209 49.5716 36.6328C49.4048 36.6211 49.2381 36.6574 49.0914 36.7376C48.9446 36.8178 48.824 36.9383 48.7437 37.085C48.7209 37.1263 48.7029 37.17 48.6901 37.2153C48.6134 37.2613 48.7284 37.3687 48.7974 37.292Z" fill="black"/>
<path fill-rule="evenodd" clip-rule="evenodd" d="M135.392 75.0205C135.231 65.5538 134.166 5.80275 134.166 5.80275C134.166 5.77492 134.159 5.74747 134.147 5.72232C134.135 5.69717 134.118 5.67492 134.097 5.65711C134.077 5.63789 134.052 5.62371 134.026 5.61571C133.999 5.60772 133.971 5.60614 133.944 5.61112L71.2873 13.8896C71.2106 13.8896 71.249 13.9586 71.249 14.0353V55.5812C70.0762 55.5812 50.4913 56.2635 50.4913 56.2635C50.471 56.2635 50.4515 56.2715 50.4371 56.2859C50.4227 56.3003 50.4147 56.3198 50.4147 56.3401C50.4146 56.3509 50.4168 56.3615 50.4211 56.3713C50.4255 56.3812 50.4318 56.39 50.4398 56.3972C50.4477 56.4044 50.4571 56.4099 50.4673 56.4133C50.4775 56.4166 50.4883 56.4178 50.499 56.4168L61.2304 56.1945C61.2304 56.5011 61.7593 68.6812 61.7977 69.2255C61.859 70.2373 62.1043 73.4567 62.1196 73.5947C62.0176 73.5598 61.9178 73.5189 61.8206 73.4721C59.3688 72.4234 56.8457 71.5499 54.2703 70.8582C53.5038 70.6666 52.8062 70.5056 52.124 70.3753C52.0345 66.2527 51.565 62.1471 50.7213 58.1108C50.0621 55.1673 49.0809 52.3312 47.6552 50.4455C46.8615 49.377 45.9542 48.3978 44.9493 47.525L45.003 45.5014C45.5204 45.6465 46.0528 45.7314 46.5897 45.7543C47.5148 45.8312 48.4394 45.5993 49.2189 45.0951C50.1081 44.4666 50.7519 43.2861 50.7059 41.1628C51.1505 41.1628 51.6258 41.2854 51.6258 40.9788C51.6258 40.4499 50.0237 37.2228 49.9854 35.7741C50.0932 35.7436 50.2035 35.7231 50.315 35.7128C50.9742 35.7128 54.7226 34.8466 54.9602 34.494C55.096 34.319 55.1665 34.1021 55.1595 33.8808L49.9088 34.6473C48.3757 30.6153 47.6782 29.7875 46.0761 29.4809C43.6002 29.0133 39.1773 29.7645 37.8206 31.8495C37.054 32.9609 37.054 35.1839 37.054 36.6403C37.0373 37.0687 37.0656 37.4978 37.1384 37.9204V38.089C37.1924 38.3517 37.2719 38.6084 37.376 38.8555C37.5084 39.1831 37.6782 39.4943 37.8819 39.7831C38.1567 40.1745 38.4933 40.5188 38.8784 40.8025C38.7941 41.0018 38.2192 42.3356 38.1119 42.5656C38.0045 42.7955 37.4603 44.1753 37.3913 44.3516C34.4938 44.4589 31.512 46.1069 29.1281 50.5911C27.3961 54.0282 26.2731 57.7395 25.809 61.5602C25.4136 64.4024 25.2113 67.2681 25.2035 70.1377C25.1281 73.0321 25.2768 75.928 25.6481 78.7995C25.6481 78.7995 25.7554 82.7164 25.9317 85.3839C25.6097 85.3839 25.3414 85.8899 25.2495 86.2808C25.1621 86.6419 25.126 87.0135 25.1422 87.3846C24.9018 86.9952 24.6047 86.6438 24.2606 86.3421C23.7394 85.9129 22.9422 85.5296 22.352 86.0892C21.5854 86.8557 21.0795 88.91 20.8649 89.9678C19.9987 88.1205 18.435 87.7602 17.4462 90.512C16.0894 87.7372 14.7863 87.9595 14.449 89.5539C14.0198 88.5497 13.2303 87.7602 12.6707 88.6264C12.4745 88.9799 12.3373 89.3631 12.2644 89.7608C11.5362 88.3274 10.3788 88.565 10.0952 89.2933C9.97694 89.7066 9.97694 90.1447 10.0952 90.558C10.0952 90.5784 10.1032 90.5979 10.1176 90.6122C10.132 90.6266 10.1515 90.6347 10.1718 90.6347C10.1921 90.6347 10.2116 90.6266 10.226 90.6122C10.2404 90.5979 10.2485 90.5784 10.2485 90.558C10.1435 90.182 10.1435 89.7843 10.2485 89.4082C10.3032 89.2943 10.3853 89.1956 10.4874 89.1211C10.5894 89.0466 10.7084 88.9984 10.8336 88.981C10.9588 88.9635 11.0863 88.9773 11.2049 89.0211C11.3235 89.0649 11.4294 89.1373 11.5132 89.2319C12.0958 89.7455 12.0728 90.4354 12.2798 90.4201C12.3116 90.4158 12.3413 90.4017 12.3647 90.3797C12.3881 90.3577 12.4039 90.3289 12.4101 90.2974C12.4791 90.2208 12.7627 87.4613 13.8128 89.2166C14.0277 89.6003 14.1926 90.0098 14.3034 90.4354C14.3143 90.4781 14.3408 90.5152 14.3777 90.5393C14.4146 90.5634 14.4592 90.5728 14.5027 90.5657C14.5455 90.5589 14.5848 90.5377 14.614 90.5057C14.6432 90.4736 14.6608 90.4327 14.6637 90.3894C14.6637 90.3127 14.8323 87.5302 16.3424 89.5385C16.7023 90.0415 17.0032 90.5842 17.2392 91.1559C17.2542 91.1955 17.2819 91.229 17.318 91.2512C17.354 91.2734 17.3964 91.283 17.4385 91.2786C17.4791 91.2774 17.518 91.2623 17.5488 91.2358C17.5795 91.2092 17.6001 91.1729 17.6072 91.1329C17.7451 90.8953 18.5193 87.7755 20.0064 89.4542C20.3249 89.8414 20.5597 90.2903 20.6963 90.7727C20.7054 90.8159 20.7298 90.8544 20.765 90.8812C20.8002 90.9079 20.8438 90.9211 20.8879 90.9183C20.9321 90.9157 20.9742 90.8985 21.0075 90.8693C21.0408 90.8402 21.0634 90.8008 21.0719 90.7573C21.0719 90.6807 21.7924 86.0585 22.9805 86.1581C23.3654 86.2014 23.7285 86.3589 24.023 86.6104C24.4853 87.0022 24.8657 87.4815 25.1422 88.0208C25.1513 88.0503 25.1718 88.0749 25.1991 88.0893C25.2264 88.1037 25.2583 88.1066 25.2878 88.0975C25.3173 88.0883 25.3419 88.0678 25.3563 88.0405C25.3707 88.0132 25.3736 87.9813 25.3644 87.9518C25.2806 87.4288 25.2806 86.8958 25.3644 86.3728C25.3838 86.2136 25.4403 86.0613 25.5296 85.9281C25.6188 85.7949 25.7382 85.6846 25.878 85.6062C26.9052 100.561 30.2702 127.413 31.5887 137.654L2.58316 145.365C2.56283 145.371 2.54575 145.385 2.53569 145.404C2.52563 145.422 2.5234 145.444 2.5295 145.465C2.5356 145.485 2.54952 145.502 2.56821 145.512C2.5869 145.522 2.60882 145.524 2.62915 145.518L31.6807 137.976C31.9873 140.329 32.1712 141.709 32.1712 141.709H32.5775C32.1176 146.109 32.5162 145.748 33.8729 145.595C35.3722 145.388 36.8589 145.099 38.3265 144.729C39.3238 144.513 40.2989 144.205 41.2393 143.809C41.4147 143.727 41.5794 143.624 41.7299 143.502C41.8148 143.436 41.8809 143.349 41.9215 143.249C42.3814 142.008 37.7669 142.314 36.4408 142.414V141.41H36.8931L37.468 136.435L41.9522 135.247C43.5312 142.322 44.7347 147.634 44.7347 147.634H45.2712C45.2176 148.147 45.1333 149.167 45.1333 149.972C45.1333 151.451 45.2866 151.359 46.5973 151.214C48.1014 151.026 49.5934 150.752 51.0662 150.393C56.9455 148.991 55.4124 147.603 49.1729 148.094V147.657H50.4683C50.4683 143.464 50.5296 138.405 50.6216 132.947L71.6399 127.244C71.6595 127.241 71.6772 127.23 71.6898 127.215C71.7025 127.199 71.7092 127.18 71.7089 127.16C71.7089 127.16 71.5709 75.5954 71.5632 75.1738L73.5026 74.9285C73.5026 75.488 73.2649 127.16 73.2649 127.16C73.2649 127.182 73.2738 127.204 73.2896 127.219C73.3055 127.235 73.3269 127.244 73.3493 127.244C73.3703 127.242 73.3898 127.233 73.404 127.217C73.4182 127.201 73.426 127.181 73.4259 127.16C73.4259 127.16 73.6635 75.4267 73.6635 74.9055L75.3422 74.6908C75.3422 75.5494 75.2503 127.773 75.2503 127.773C75.2499 127.799 75.256 127.824 75.2681 127.847C75.2801 127.87 75.2977 127.889 75.3193 127.903C75.342 127.914 75.3669 127.92 75.3921 127.92C75.4173 127.92 75.4422 127.914 75.4649 127.903L90.2053 123.649C90.6345 126.401 91.1174 129.107 91.677 131.713L91.792 131.859C92.0147 131.94 92.2426 132.007 92.4742 132.058L92.4129 133.1C92.4135 133.141 92.43 133.179 92.4589 133.208V133.729L91.907 133.99C91.723 134.082 91.5084 134.197 91.2861 134.327L90.9641 134.534C90.8108 134.641 90.6652 134.756 90.5042 134.879C90.4923 134.893 90.4858 134.91 90.4858 134.929C90.4858 134.947 90.4923 134.965 90.5042 134.978C90.0213 135.193 87.2771 136.512 87.6757 137.899C88.266 139.984 97.334 136.082 97.334 136.082V135.316C97.3524 135.312 97.3691 135.303 97.3816 135.289C97.3941 135.275 97.4016 135.258 97.403 135.239C97.4332 135.149 97.4562 135.057 97.472 134.963C97.4795 134.866 97.4795 134.769 97.472 134.672V133.767C97.4618 133.695 97.4464 133.623 97.426 133.553C97.4057 133.459 97.3775 133.366 97.3417 133.277C97.3289 133.235 97.3135 133.194 97.2957 133.154C97.3057 133.122 97.3057 133.087 97.2957 133.054L97.219 131.682C97.3647 131.613 97.518 131.544 97.6636 131.46C97.6895 131.448 97.7122 131.43 97.7295 131.407C97.7469 131.385 97.7585 131.358 97.7633 131.33C97.7633 131.33 99.2963 121.426 99.3423 121.104C99.488 121.104 100.875 120.759 101.374 120.629C101.65 120.56 105.306 119.525 105.643 119.426L107.59 118.782C109.123 122.085 110.863 125.535 112.91 129.115L113.079 129.206C113.079 129.206 113.523 129.207 114.175 129.161C114.627 130.425 114.627 130.448 114.727 130.479C114.773 130.663 114.811 130.786 114.865 130.97C114.688 131.153 113.332 132.702 113.5 132.878C113.14 133.261 111.109 135.523 111.967 136.657C113.309 138.359 120.207 131.291 120.207 131.291L119.908 130.571C120.115 130.456 119.609 129.191 119.004 128.57C119.007 128.545 119.007 128.519 119.004 128.494L118.628 127.857C118.958 127.597 119.471 126.953 119.395 126.7C119.395 126.7 117.77 121.756 116.589 116.221L118.889 115.578C118.889 115.578 118.996 115.532 118.996 115.493V21.6776C118.996 21.5933 118.996 21.509 118.889 21.5013L80.8919 16.1892L129.95 10.8235C129.95 12.6479 132.326 142.59 132.326 142.59C132.328 142.61 132.336 142.628 132.351 142.642C132.365 142.656 132.383 142.665 132.403 142.667C132.414 142.667 132.424 142.665 132.434 142.66C132.444 142.656 132.453 142.65 132.46 142.642C132.467 142.634 132.473 142.624 132.476 142.614C132.479 142.604 132.481 142.593 132.479 142.582L130.31 10.6012C130.31 10.5741 130.305 10.5471 130.295 10.5221C130.284 10.497 130.268 10.4744 130.249 10.4556C130.229 10.4364 130.204 10.4222 130.178 10.4142C130.151 10.4062 130.123 10.4046 130.096 10.4096L75.7255 16.4422C75.6489 16.4422 75.4649 16.5112 75.4649 16.5878V55.4816L73.8705 55.5199V15.6603L131.36 8.45494C131.406 10.8082 134.196 143.418 134.196 143.418C134.198 143.439 134.208 143.459 134.224 143.473C134.239 143.487 134.26 143.495 134.281 143.495C134.292 143.495 134.302 143.492 134.312 143.488C134.322 143.484 134.331 143.477 134.338 143.47C134.345 143.462 134.351 143.452 134.354 143.442C134.357 143.432 134.359 143.421 134.357 143.41L131.751 8.24798C131.751 8.22015 131.745 8.19271 131.733 8.16756C131.721 8.14241 131.704 8.12015 131.682 8.10234C131.639 8.06782 131.584 8.05134 131.529 8.05635L73.8245 15.3844C73.7479 15.3844 73.6405 15.461 73.6405 15.5377V55.5276L71.4866 55.5812V14.1886L133.783 6.02504C133.821 8.14833 136.358 144.238 136.358 144.238C136.363 144.255 136.374 144.27 136.389 144.281C136.403 144.292 136.421 144.297 136.439 144.297C136.457 144.297 136.474 144.292 136.489 144.281C136.503 144.27 136.514 144.255 136.519 144.238C136.519 144.238 135.507 82.0189 135.392 75.0205ZM51.6028 65.6611C51.8787 68.3286 51.8941 69.6471 51.9401 70.3676C50.9637 70.1524 49.9574 70.1083 48.9659 70.2373C48.9558 70.2391 48.9461 70.243 48.9374 70.2486C48.9288 70.2543 48.9214 70.2616 48.9157 70.2702C48.9099 70.2788 48.906 70.2885 48.9041 70.2986C48.9022 70.3088 48.9024 70.3192 48.9046 70.3293C48.9064 70.3395 48.9103 70.3491 48.9159 70.3578C48.9216 70.3664 48.9289 70.3738 48.9375 70.3795C48.9461 70.3853 48.9558 70.3892 48.9659 70.3911C48.9761 70.393 48.9865 70.3928 48.9966 70.3906C50.154 70.1683 52.124 70.5363 54.186 71.0958C56.7374 71.8128 59.2348 72.7093 61.6597 73.7787C62.4292 74.0939 63.2445 74.2829 64.0742 74.3382C65.2948 74.4492 66.5213 74.4799 67.7459 74.4302H67.8379C68.5304 73.9908 69.2648 73.6211 70.0302 73.3264C70.076 73.3208 70.1223 73.3208 70.1682 73.3264C69.651 74.0639 69.0575 74.7448 68.3975 75.3577C68.3683 75.3854 68.3485 75.4215 68.341 75.461C68.3334 75.5004 68.3385 75.5413 68.3554 75.5777C68.3724 75.6142 68.4004 75.6444 68.4354 75.6641C68.4705 75.6837 68.5108 75.6919 68.5508 75.6873L69.9919 75.5264C69.707 76.0779 69.3253 76.5739 68.8651 76.9904C67.4393 78.1862 66.0749 76.5382 62.1656 76.9291C60.6325 77.0824 56.4319 78.6921 52.3847 79.2287C49.9854 79.566 47.6398 79.5353 45.9535 78.5618C44.4204 77.7033 43.2936 75.971 42.4198 74.0546C41.2919 71.406 40.4963 68.6279 40.0512 65.7838C40.902 65.7838 51.0816 65.6841 51.6105 65.6688L51.6028 65.6611ZM69.5396 75.1201L69.0414 75.1738L69.486 74.7062C69.4775 74.8463 69.4957 74.9868 69.5396 75.1201ZM52.1854 79.589C56.2096 79.0907 60.7092 77.3967 62.1962 77.2894C64.6261 77.0441 65.9522 77.6113 67.562 77.803C69.3326 78.0176 70.4211 75.4191 70.4901 75.3424L71.4099 75.2274C71.4099 75.6797 71.341 89.025 71.341 89.5079C70.0915 86.3728 68.0832 86.3958 67.8073 88.7413C67.5313 87.9748 66.9334 86.5491 66.1515 86.3574C65.3697 86.1658 64.9941 86.7944 64.7641 87.4842C64.4115 86.9247 63.8136 86.1888 63.1544 86.1198C62.4952 86.0508 61.7363 87.2773 61.4067 87.9518C61.3492 87.6384 61.2432 87.3358 61.0924 87.055C61.0312 86.9156 60.94 86.7914 60.8252 86.6914C60.7105 86.5913 60.5751 86.5178 60.4287 86.476C60.2822 86.4343 60.1284 86.4254 59.9781 86.4499C59.8279 86.4745 59.6849 86.5319 59.5594 86.6181C59.2888 86.887 59.0796 87.2112 58.9462 87.5686C58.7613 88.0297 58.6101 88.5036 58.4939 88.9866C58.4249 88.3658 58.2639 87.7679 57.6277 87.7525C57.3564 87.7724 57.0937 87.8565 56.8612 87.9978C56.695 87.7473 56.4846 87.5291 56.2403 87.3539C55.5581 86.8864 54.5079 86.779 54.3623 87.7909C53.91 86.9783 52.3157 85.5679 51.8864 86.3344C52.078 78.6231 52.2084 80.0719 52.1854 79.612V79.589ZM51.5875 65.4848C51.0662 65.4848 39.0547 65.3698 38.5028 65.3698C38.4534 64.6732 38.4534 63.9739 38.5028 63.2772C38.7557 63.2772 41.0017 63.3539 41.6149 63.3692C42.2281 63.3845 47.7471 63.3692 48.1841 63.3692L51.3575 63.2619C51.4265 64.0361 51.5108 64.7796 51.5875 65.4848ZM38.2345 39.5761C38.0457 39.3105 37.8815 39.0283 37.7439 38.7329C37.6466 38.5184 37.5621 38.2983 37.491 38.0737C40.4796 37.9957 43.4486 37.566 46.3367 36.7936C45.7312 39.2925 45.5242 38.1657 45.1333 40.7412H44.4894C44.4281 40.5266 44.865 38.3036 43.2016 38.0737C43.0134 38.0457 42.8215 38.0559 42.6373 38.1036C42.4532 38.1514 42.2805 38.2357 42.1296 38.3516C41.9787 38.4674 41.8526 38.6125 41.7589 38.7781C41.6652 38.9437 41.6058 39.1264 41.5842 39.3155C41.5198 39.7204 41.6131 40.1347 41.8449 40.4729C42.0498 40.7424 42.3382 40.9365 42.665 41.0248C42.45 41.368 42.1716 41.6671 41.8449 41.9063C41.1933 42.4199 39.7676 41.8603 39.024 41.4771C39.2157 41.0708 39.3383 40.7949 39.3383 40.7949C39.3586 40.7506 39.3621 40.7005 39.3479 40.6539C39.3338 40.6073 39.3031 40.5674 39.2616 40.5419C38.8644 40.2838 38.5165 39.9567 38.2345 39.5761ZM38.955 41.6764C39.4792 41.9844 40.0444 42.2167 40.6337 42.3663C41.0198 42.4792 41.4319 42.4658 41.8097 42.3278C42.1876 42.1899 42.5115 41.9348 42.734 41.5997C42.9717 41.3314 43.2629 40.8332 42.918 40.7872C42.7636 40.7685 42.6148 40.7176 42.4813 40.6378C42.3477 40.558 42.2325 40.4511 42.1429 40.3239C42.0533 40.1968 41.9914 40.0522 41.9612 39.8996C41.931 39.747 41.9331 39.5898 41.9675 39.4381C41.9834 39.3005 42.0269 39.1676 42.0955 39.0473C42.164 38.927 42.2562 38.8218 42.3665 38.738C42.4768 38.6542 42.6028 38.5936 42.7371 38.5598C42.8714 38.526 43.0112 38.5197 43.148 38.5413C43.4292 38.5965 43.6808 38.7522 43.8557 38.9793C44.0306 39.2064 44.1169 39.4893 44.0985 39.7754C44.1751 40.4806 43.9222 41.2318 44.3054 41.2165L45.3019 41.1475C45.3456 41.146 45.3874 41.129 45.4197 41.0995C45.452 41.07 45.4728 41.0299 45.4782 40.9865C45.4782 40.9865 45.5549 40.2966 45.6852 39.6834C45.9458 38.4723 46.1451 39.0778 46.5667 36.7782C48.0538 36.395 49.1959 36.0117 49.8244 35.8584C49.8244 37.2305 50.9052 39.875 51.2042 40.8332C50.7826 40.8715 50.292 40.7105 50.3074 41.0325C50.4223 43.0945 49.8321 44.2289 48.9966 44.8651C48.2851 45.3197 47.4478 45.5371 46.605 45.486C46.0333 45.4762 45.4647 45.399 44.911 45.2561C44.543 45.1411 44.8343 46.0993 44.7807 47.456C42.7647 45.7697 40.2428 44.4512 37.6289 44.4282C38.1578 43.3551 38.9167 41.7607 38.955 41.6764ZM41.086 143.456C40.1687 143.836 39.2196 144.133 38.2498 144.345C36.7168 144.729 34.9384 145.051 33.8269 145.196C33.4967 145.244 33.164 145.272 32.8305 145.281C32.5468 144.56 32.7308 141.908 32.7308 141.655L36.3105 141.433L36.2415 142.529C36.234 142.556 36.234 142.586 36.2415 142.613C36.2548 142.619 36.2692 142.622 36.2837 142.622C36.2982 142.622 36.3125 142.619 36.3258 142.613C38.4568 142.659 43.033 142.575 41.086 143.456ZM37.5599 135.99L38.8477 124.753C34.8234 106.356 34.8234 101.573 34.8234 101.573C35.6896 106.739 39.2846 123.097 41.9062 134.84L37.5599 135.99ZM45.5779 150.915C45.5779 150.915 45.5472 150.93 45.5549 150.915H45.5779ZM53.8564 149.106C52.124 149.933 46.582 151.007 45.5702 150.93C45.4037 149.834 45.3677 148.723 45.4629 147.619H49.0579C49.0579 147.994 48.9813 148.17 49.0579 148.247C49.085 148.258 49.1151 148.258 49.1422 148.247C51.1735 148.308 55.7881 148.178 53.8334 149.106H53.8564ZM50.292 80.6391C48.8969 80.7924 47.4942 80.9074 46.0914 80.9917C44.6887 81.076 43.4546 81.1144 42.1361 81.122C40.8177 81.1297 39.4533 81.122 38.1119 81.0224C30.9065 80.6238 26.8362 79.1367 26.2613 78.9298C25.901 78.8071 25.8627 78.7841 25.786 78.7535C25.5163 75.8796 25.4011 72.9932 25.4411 70.107C25.4906 67.2514 25.721 64.4019 26.131 61.5755C26.6127 57.8035 27.7325 54.1409 29.4424 50.7444C31.9489 46.1452 35.0764 44.5585 38.1272 44.7808C41.6916 45.0414 45.1409 47.7013 47.3256 50.6601C48.7283 52.5304 49.7018 55.3206 50.3917 58.2104C50.7826 59.8508 51.0662 61.5295 51.2885 63.0932L46.8273 62.9936C46.1834 62.9936 38.7251 63.0932 38.4721 63.1086C38.4721 62.2271 38.5718 61.2612 38.6408 60.3951C38.7634 58.862 38.8937 57.6049 38.8937 57.6049C38.8937 57.6049 38.8937 57.5206 38.8247 57.5206C38.8141 57.5184 38.8031 57.5184 38.7925 57.5208C38.7818 57.5232 38.7719 57.5278 38.7632 57.5343C38.7545 57.5408 38.7472 57.5491 38.742 57.5586C38.7368 57.5682 38.7336 57.5787 38.7327 57.5896C38.7327 57.5896 38.5794 58.6244 38.4108 59.9658C38.3265 60.7323 38.2345 61.5525 38.1655 62.3574C38.0532 63.4353 38.0532 64.5219 38.1655 65.5998C38.1728 65.6431 38.1954 65.6824 38.2291 65.7105C38.2629 65.7386 38.3056 65.7537 38.3495 65.7531H39.8825C40.2973 68.6331 41.0698 71.4502 42.1821 74.1389C43.0636 76.1243 44.2518 77.9179 45.8002 78.8224C47.3282 79.5889 49.0443 79.9002 50.7443 79.7193C51.1173 79.7193 51.4929 79.6886 51.8711 79.6273C51.7815 79.875 51.7815 80.1462 51.8711 80.3938L50.292 80.6391ZM64.6951 128.877L50.6523 132.526C50.9359 116.237 51.8251 86.779 51.8251 86.779C51.8461 86.7771 51.8656 86.7674 51.8798 86.7518C51.894 86.7362 51.9018 86.7158 51.9017 86.6947C51.9017 86.6947 51.9017 86.2808 52.2007 86.2731C52.5343 86.3238 52.8431 86.4795 53.0822 86.7177C53.4306 86.9815 53.7313 87.303 53.9714 87.6682C54.1164 87.8945 54.2299 88.1395 54.3086 88.3964C54.3356 88.5725 54.374 88.7466 54.4236 88.9177C54.4337 88.9479 54.4533 88.9741 54.4796 88.9921C54.5059 89.01 54.5374 89.0189 54.5693 89.0173C54.6017 89.0118 54.6312 88.9949 54.6523 88.9696C54.6734 88.9443 54.6847 88.9123 54.6842 88.8793C54.6768 88.7336 54.651 88.5894 54.6076 88.4501C54.574 88.1931 54.5949 87.9319 54.6689 87.6835C54.7009 87.5762 54.7703 87.4839 54.8645 87.4234C54.9588 87.3629 55.0716 87.3383 55.1825 87.3539C55.4897 87.366 55.7861 87.4702 56.0333 87.6529C56.2813 87.8335 56.4835 88.0698 56.6236 88.3428C56.635 88.3655 56.6511 88.3855 56.671 88.4013C56.6908 88.4172 56.7139 88.4286 56.7385 88.4347C56.7604 88.444 56.7838 88.4488 56.8075 88.4488C56.8312 88.4488 56.8547 88.444 56.8765 88.4347C57.101 88.2737 57.3671 88.1805 57.6431 88.1665C57.7149 88.1663 57.7853 88.1864 57.8463 88.2243C57.9073 88.2623 57.9564 88.3166 57.988 88.3811C58.1162 88.7083 58.1812 89.0568 58.1796 89.4082C58.1988 89.9657 58.1834 90.5237 58.1336 91.0793C58.1401 91.111 58.1549 91.1405 58.1764 91.1648C58.1979 91.189 58.2255 91.2071 58.2563 91.2172C58.2805 91.2205 58.305 91.2188 58.3286 91.2125C58.3522 91.2061 58.3742 91.1951 58.3935 91.1801C58.4127 91.1651 58.4288 91.1465 58.4408 91.1252C58.4528 91.1039 58.4604 91.0805 58.4632 91.0563C58.5945 90.0788 58.8099 89.1145 59.1071 88.1741C59.2326 87.7512 59.4325 87.3541 59.6974 87.0013C59.7398 86.9426 59.7949 86.8943 59.8586 86.8598C59.9223 86.8253 59.9929 86.8055 60.0653 86.802C60.2104 86.8082 60.3511 86.8534 60.4726 86.9331C60.594 87.0127 60.6917 87.1237 60.7552 87.2543C60.973 87.701 61.0882 88.1907 61.0924 88.6877C61.0915 88.7325 61.1064 88.7763 61.1344 88.8113C61.1624 88.8463 61.2018 88.8704 61.2458 88.8793C61.2913 88.8879 61.3384 88.8804 61.379 88.858C61.4195 88.8356 61.451 88.7998 61.468 88.7567C61.696 88.1901 61.9811 87.6482 62.3189 87.1393C62.4529 86.9517 62.61 86.7817 62.7865 86.6334C62.88 86.5577 62.9958 86.5146 63.1161 86.5107C63.3965 86.5625 63.6507 86.7085 63.8366 86.9247C64.1601 87.2639 64.4361 87.6456 64.6568 88.0591C64.6755 88.0945 64.7048 88.123 64.7405 88.1409C64.7762 88.1588 64.8166 88.165 64.8561 88.1588C64.8947 88.1512 64.9304 88.1327 64.9589 88.1056C64.9874 88.0784 65.0076 88.0437 65.0171 88.0055C65.0806 87.6133 65.2384 87.2424 65.477 86.9247C65.5458 86.8377 65.6374 86.7715 65.7417 86.7336C65.8459 86.6957 65.9586 86.6876 66.0672 86.7101C66.2217 86.7583 66.3596 86.8486 66.4658 86.9707C66.6514 87.1768 66.8134 87.4031 66.9487 87.6452C67.2859 88.2771 67.5631 88.9392 67.7766 89.6229C67.7873 89.6595 67.8114 89.6908 67.844 89.7106C67.8766 89.7305 67.9154 89.7374 67.9529 89.7302C67.9711 89.7283 67.9887 89.7228 68.0047 89.714C68.0207 89.7053 68.0348 89.6934 68.0462 89.6791C68.0576 89.6649 68.0661 89.6485 68.0711 89.6309C68.0762 89.6134 68.0777 89.595 68.0755 89.5769C68.0311 89.0079 68.1069 88.436 68.2978 87.8982C68.3538 87.7349 68.456 87.5914 68.5922 87.4852C68.7283 87.379 68.8923 87.3148 69.0644 87.3003C69.2814 87.3153 69.4928 87.3765 69.6845 87.4795C69.8761 87.5826 70.0436 87.7253 70.1758 87.8982C70.6165 88.4283 70.9732 89.0229 71.2336 89.6612C71.2371 89.6708 71.2424 89.6797 71.2493 89.6872C71.2561 89.6948 71.2645 89.7009 71.2738 89.7052C71.2831 89.7095 71.2931 89.7119 71.3033 89.7122C71.3136 89.7125 71.3237 89.7108 71.3333 89.7072C71.3333 89.7072 71.5403 126.723 71.5479 127.129C71.134 127.244 68.5891 127.873 64.6951 128.877ZM70.4671 75.1201C70.3598 74.9745 70.1988 75.0741 69.8539 75.1201C69.9039 74.8802 69.888 74.6312 69.8079 74.3996C70.0072 74.1696 70.1912 73.9396 70.3291 73.748C70.4574 73.5884 70.5419 73.3982 70.5744 73.1961C70.5756 73.1367 70.5576 73.0785 70.5231 73.0302C70.4886 72.9819 70.4394 72.946 70.3828 72.9278C70.1538 72.8897 69.9187 72.9218 69.7082 73.0198C69.7082 72.7745 69.6623 68.5663 69.6469 68.0527C69.6469 67.3322 69.2407 58.8543 69.2253 58.609L71.5249 58.4787C71.5249 58.8007 71.6552 68.3593 71.6782 69.2102C71.6782 69.7927 71.9235 74.7598 71.9389 74.9745L70.4671 75.1201ZM82.8619 125.527L75.5952 127.535C75.5952 126.846 75.5032 75.465 75.4956 74.6449L77.5575 74.3842C77.7185 74.3842 77.7108 74.6449 77.7108 69.2868C81.2369 68.137 85.3761 65.4542 87.1468 61.9741V69.0185C83.5901 69.1335 83.9427 69.4018 82.3943 68.4436C82.0957 68.2378 81.7709 68.0728 81.4285 67.953C81.3616 67.9266 81.2888 67.9188 81.2178 67.9304C81.1468 67.942 81.0802 67.9726 81.0252 68.019C80.9702 68.0654 80.9288 68.1258 80.9053 68.1938C80.8818 68.2618 80.8772 68.3349 80.8919 68.4053C80.9379 68.8959 81.6585 69.6164 81.4362 70.13C80.9419 71.1728 80.2403 72.1039 79.3742 72.8665C79.0446 73.1118 78.8989 73.0275 78.8683 73.2191C78.8633 73.2603 78.8718 73.302 78.8925 73.3379C78.9133 73.3739 78.9451 73.4021 78.9833 73.4184C79.6808 73.5411 80.9686 74.4302 82.7163 72.9202C83.0267 72.6641 83.307 72.3735 83.5518 72.054L87.1621 72.6825C87.1621 79.4893 87.2235 85.7979 87.4304 91.9378C87.5454 95.4485 87.737 99.3118 88.013 103.367C88.3273 107.966 88.7795 112.803 89.3698 117.617C89.615 119.594 89.8987 121.557 90.1976 123.511L82.8619 125.527ZM77.7108 69.1182V60.464C78.1707 59.9045 78.393 59.6975 80.0104 57.6049C80.9379 57.7199 85.4911 58.4787 87.0855 61.7518C87.0732 61.7471 87.0595 61.7471 87.0472 61.7518C85.2075 65.0326 81.1449 67.6848 77.7108 69.1335V69.1182ZM91.1328 36.027C91.8993 35.2145 91.0178 34.2027 91.8227 33.4285C91.9909 33.234 92.1961 33.0748 92.4264 32.9603C92.6567 32.8458 92.9074 32.7783 93.1641 32.7616C92.4465 33.7199 91.9801 34.8424 91.8073 36.027H91.1328ZM91.769 36.234C91.6326 37.0704 91.5608 37.9161 91.5544 38.7636H91.1251C91.1251 38.5183 90.8951 36.464 90.8645 36.2493L90.9565 36.1804L91.769 36.234ZM93.3864 32.6773C94.0124 32.4101 94.6836 32.2644 95.364 32.2481C96.0156 31.7421 97.4183 30.8453 97.4183 30.8453C96.8691 31.2693 96.3562 31.7385 95.8853 32.2481C95.8086 32.409 96.1919 32.3707 96.6518 32.3017C96.891 32.4553 97.1012 32.6499 97.2727 32.8766C98.2155 34.1337 96.8434 34.9846 97.8859 35.9964H95.5863C95.5665 35.9894 95.5448 35.9894 95.525 35.9964C95.5203 36.0045 95.5178 36.0138 95.5178 36.0232C95.5178 36.0326 95.5203 36.0419 95.525 36.05V37.0312C95.3941 36.9218 95.2329 36.8551 95.063 36.84C94.8931 36.8249 94.7226 36.8622 94.5745 36.9469C94.6971 35.7051 95.2261 35.9274 92.0909 35.9504C92.2519 34.9462 92.6582 33.3595 93.3174 32.7156C93.332 32.712 93.3457 32.7054 93.3576 32.6961C93.3695 32.6869 93.3793 32.6753 93.3864 32.662V32.6773ZM99.12 36.8626C99.0323 37.5076 98.9095 38.1473 98.7521 38.7789H95.9619C95.9619 38.5336 95.7166 36.395 95.6936 36.188L98.3152 36.326C98.6601 36.51 98.9744 36.6019 99.12 36.8472V36.8626ZM94.3522 36.349L94.0226 38.7789H91.9146C91.9218 37.9377 91.9833 37.0979 92.0986 36.2647L94.3522 36.349ZM91.9146 39.0932H94.2142C94.5055 39.0932 94.3675 38.7329 94.6128 37.2535H94.8811C94.7431 37.5908 94.1912 39.2311 94.5515 39.2925H95.3717C95.3906 39.2932 95.4092 39.2875 95.4245 39.2764C95.4398 39.2653 95.4509 39.2493 95.456 39.2311C95.4583 39.2119 95.4533 39.1926 95.4419 39.177C95.4305 39.1613 95.4137 39.1506 95.3947 39.1468C95.318 39.1468 95.0651 39.0318 94.7891 38.9629C94.9308 38.3877 95.013 37.7995 95.0344 37.2075C95.1553 37.2071 95.2752 37.2305 95.387 37.2765C95.4668 37.305 95.5438 37.341 95.617 37.3838C95.617 37.5294 95.5633 36.8319 95.686 38.9169C95.686 39.1085 95.6476 39.0855 98.8211 39.1238C99.0434 39.8904 100.277 40.4269 99.7869 41.1475C99.4343 41.6687 98.2998 42.2896 98.8594 42.9795C99.2373 43.3207 99.6807 43.5815 100.163 43.746C100.116 43.8509 100.045 43.943 99.9555 44.0143C99.051 44.8958 99.1124 46.3139 100.63 45.6087C100.64 45.5954 100.645 45.5793 100.645 45.5627C100.645 45.5461 100.64 45.53 100.63 45.5167C100.616 45.5048 100.599 45.4983 100.58 45.4983C100.562 45.4983 100.544 45.5048 100.53 45.5167C99.1354 46.0456 99.4803 44.8115 100.109 44.2519C101.481 43.0255 97.8093 43.4854 99.4956 41.9523C99.7018 41.7805 99.8871 41.5849 100.048 41.3698C100.477 40.7335 100.048 40.174 99.5033 39.6067C99.3459 39.459 99.2229 39.2784 99.143 39.0778C99.169 39.0507 99.1852 39.0156 99.189 38.9782C99.373 37.6214 99.7256 37.4451 99.4726 36.7936C99.5263 36.2263 99.5876 36.165 99.4726 36.027C99.458 36.0084 99.4394 35.9933 99.4182 35.9827C99.397 35.9721 99.3737 35.9663 99.35 35.9657H98.4072C96.7821 35.0382 98.9667 33.6661 96.8358 32.2251L97.3877 32.1177C97.8859 32.0334 98.4302 32.2404 98.4072 32.6773C98.3305 34.0571 99.6719 32.8919 99.5416 34.31C99.4726 35.0076 99.7562 34.8083 100.163 35.2835C100.569 35.7588 100.477 35.7971 100.293 36.3873C100.109 36.9775 100.392 37.0619 100.668 37.3225C101.075 37.7287 99.9785 38.6179 101.205 39.0778C101.565 39.1545 101.611 38.8862 101.91 38.7099C102.546 38.3496 102.876 38.5413 103.037 39.1468C103.089 39.3267 103.102 39.5158 103.074 39.7011C103.047 39.8863 102.979 40.0634 102.876 40.22C102.516 40.6908 102.026 41.0454 101.466 41.2395C101.426 41.2534 101.392 41.2812 101.371 41.3178C101.35 41.3543 101.343 41.3973 101.351 41.4388C101.535 42.5042 101.527 42.6039 102.033 44.9495C98.2692 47.3027 96.3605 45.716 95.9543 45.2867V43.9606C95.9599 43.9473 95.9629 43.933 95.9629 43.9185C95.9629 43.904 95.9599 43.8896 95.9543 43.8763C95.9272 43.8656 95.897 43.8656 95.8699 43.8763C95.2924 43.8727 94.7224 43.7446 94.1989 43.5007C93.6761 43.2635 93.2184 42.9031 92.8651 42.4506C92.1874 41.4666 91.8532 40.2864 91.9146 39.0932ZM101.113 66.3203C101.727 64.9053 102.439 63.535 103.244 62.2194C103.244 62.2194 109.108 63.2159 111.607 66.6729C111.607 66.6729 107.146 72.6979 104.662 73.4414C102.178 74.1849 94.6971 73.2421 87.2005 72.6212C87.2028 72.602 87.1977 72.5827 87.1864 72.567C87.175 72.5514 87.1581 72.5406 87.1392 72.5369C83.4291 71.7704 83.4291 71.6401 83.3065 71.7704C83.0459 71.9543 81.9037 73.9933 79.4738 73.2268C80.431 72.4128 81.1999 71.4006 81.7274 70.2603C81.9881 69.4938 81.0606 68.5279 81.1909 68.298C81.2658 68.2975 81.3396 68.316 81.4055 68.3516C82.9386 68.9495 82.54 69.5398 85.0082 69.3788C86.0047 69.3098 87.0855 69.1795 87.0855 69.1795C87.0956 69.1785 87.1054 69.1756 87.1143 69.1708C87.1233 69.1661 87.1312 69.1596 87.1376 69.1517C87.144 69.1439 87.1488 69.1348 87.1517 69.1251C87.1546 69.1154 87.1555 69.1053 87.1545 69.0952C89.1537 68.9085 91.1418 68.6169 93.1104 68.2213C94.4289 67.8457 100.071 66.282 101.136 66.328L101.113 66.3203ZM97.1347 135.254C97.1293 135.265 97.1265 135.277 97.1265 135.289C97.1265 135.301 97.1293 135.313 97.1347 135.323C96.5368 135.967 92.1216 137.324 92.1216 137.324C91.8449 136.403 91.2775 135.596 90.5042 135.024L90.9948 134.833L91.3474 134.68C91.585 134.572 91.792 134.457 91.9683 134.365L92.5892 134.028C92.6188 134.015 92.6439 133.993 92.6616 133.966C92.6793 133.939 92.6887 133.907 92.6888 133.875V133.277H96.9124V133.76C96.9124 133.852 96.9124 134.059 96.9584 134.22C97.0044 134.381 96.9584 134.519 97.0044 134.68C97.0504 134.84 97.0044 134.84 97.0044 134.917C97.0044 134.994 97.1424 135.139 97.1577 135.262L97.1347 135.254ZM93.1947 132.756C93.1911 132.791 93.1911 132.827 93.1947 132.863V132.947H92.6428L92.5969 132.104C92.7941 132.148 92.9937 132.182 93.1947 132.204V132.303C93.1905 132.347 93.1905 132.39 93.1947 132.434V132.572C93.197 132.636 93.2046 132.7 93.2177 132.763L93.1947 132.756ZM93.578 132.457V132.265C93.9175 132.285 94.258 132.285 94.5975 132.265V132.694C94.5938 132.73 94.5938 132.766 94.5975 132.802V132.848H93.578V132.779C93.5817 132.743 93.5817 132.707 93.578 132.671C93.5818 132.618 93.5818 132.564 93.578 132.51V132.457ZM95.9772 132.625C95.9832 132.717 96.0012 132.807 96.0309 132.894H94.9041C94.9078 132.858 94.9078 132.822 94.9041 132.786C94.9079 132.733 94.9079 132.679 94.9041 132.625V132.296C95.2786 132.262 95.6501 132.2 96.0156 132.112V132.61L95.9772 132.625ZM96.3605 132.296C96.3647 132.245 96.3647 132.193 96.3605 132.142C96.3649 132.094 96.3649 132.045 96.3605 131.997C96.5721 131.936 96.7795 131.862 96.9814 131.774L96.9201 132.901H96.3605C96.3658 132.853 96.3658 132.804 96.3605 132.756C96.368 132.715 96.368 132.673 96.3605 132.633C96.3643 132.572 96.3643 132.51 96.3605 132.449C96.3912 132.403 96.3835 132.349 96.3835 132.303L96.3605 132.296ZM106.548 118.851C106.233 118.927 105.865 119.012 105.467 119.119C105.068 119.226 101.473 120.23 101.197 120.315L99.2963 120.943C99.7249 118.242 100.172 115.544 100.638 112.849C101.021 110.267 101.546 107.708 102.209 105.183C102.539 106.218 102.899 107.291 103.282 108.395C104.003 110.427 104.815 112.565 105.751 114.796C106.272 116.045 106.839 117.325 107.437 118.628L106.548 118.851ZM113.117 128.816C110.486 124.233 108.136 119.495 106.08 114.627C105.145 112.412 104.325 110.281 103.597 108.257C102.313 104.682 101.213 101.044 100.3 97.3572C99.3386 93.6802 98.6873 89.9288 98.3535 86.1428C98.3535 86.1321 98.3513 86.1214 98.347 86.1116C98.3427 86.1018 98.3364 86.0929 98.3284 86.0857C98.3205 86.0785 98.3111 86.073 98.3009 86.0696C98.2907 86.0663 98.2799 86.0651 98.2692 86.0662C98.2482 86.0681 98.2286 86.0778 98.2144 86.0934C98.2003 86.109 98.1924 86.1294 98.1925 86.1505C98.4923 89.952 99.1129 93.7214 100.048 97.4185C100.576 99.6491 101.259 102.171 102.132 104.923C101.388 107.509 100.814 110.141 100.415 112.803C99.8789 115.716 97.4413 130.556 97.3493 131.199C96.5352 131.609 95.6454 131.846 94.7355 131.897C93.8304 131.956 92.9224 131.842 92.0603 131.56C90.558 124.124 89.4881 116.607 88.8562 109.047C88.4269 104.264 88.128 99.6108 87.921 95.3565C87.7294 91.5239 87.3461 75.2657 87.3385 74.6602C95.729 75.954 104.291 75.6078 112.55 73.6407C112.55 73.8783 112.665 97.4032 112.672 99.0742C112.732 102.028 112.96 104.976 113.354 107.905C113.584 109.775 113.876 111.737 114.228 113.746C114.489 115.187 114.78 116.651 115.102 118.084C115.922 121.717 118.076 127.773 118.076 127.773C116.796 128.563 114.573 128.831 113.109 128.854L113.117 128.816ZM117.816 128.816L116.804 129.237V129.145C116.762 129.022 116.703 128.906 116.628 128.8C116.975 128.708 117.315 128.593 117.647 128.455C117.667 128.59 117.723 128.717 117.808 128.823L117.816 128.816ZM116.482 129.375L115.539 129.781C115.492 129.523 115.39 129.277 115.24 129.061C115.577 129.007 115.93 128.946 116.283 128.862V129.046C116.342 129.169 116.419 129.283 116.513 129.383L116.482 129.375ZM114.78 130.142C114.65 129.866 114.428 129.436 114.297 129.184L114.926 129.115C114.978 129.394 115.097 129.657 115.271 129.881L114.78 130.142ZM119.563 130.257C119.632 130.389 119.717 130.513 119.816 130.625C119.51 131.452 115.938 134.388 115.938 134.388C115.334 133.636 114.503 133.098 113.569 132.855C115.508 131.016 115.232 131.046 114.88 130.448C115.6 130.165 116.551 129.766 117.256 129.459C117.961 129.153 118.176 129.053 118.789 128.747C119.008 129.27 119.272 129.772 119.579 130.249L119.563 130.257ZM118.644 128.524L118.115 128.716C118.096 128.564 118.035 128.421 117.938 128.302C118.106 128.22 118.268 128.125 118.421 128.018L118.644 128.524ZM118.743 127.183C118.59 127.387 118.404 127.563 118.191 127.704C116.978 124.572 116.04 121.34 115.386 118.046C115.079 116.612 114.803 115.156 114.558 113.707C114.221 111.722 113.937 109.752 113.707 107.889C113.324 104.975 113.096 102.043 113.025 99.1048C113.025 97.2345 112.749 78.4775 112.68 73.633L113.446 73.4337C113.446 74.2003 113.546 97.3955 113.554 99.1048C113.606 101.98 113.806 104.851 114.152 107.705C114.359 109.522 114.619 111.446 114.918 113.393C115.164 114.803 115.432 116.221 115.738 117.617C116.418 120.901 117.406 124.115 118.69 127.214L118.743 127.183ZM118.935 126.807C118.911 126.879 118.88 126.948 118.843 127.014C118.148 125.29 117.565 123.524 117.095 121.725C116.368 118.946 115.783 116.132 115.34 113.293C115.026 111.354 114.765 109.461 114.573 107.621C114.19 104.202 113.998 101.159 113.983 99.0665C113.983 97.3495 113.661 74.0393 113.646 73.3571L114.412 73.1425C114.412 74.5145 114.903 104.785 114.903 107.038C114.97 109.745 115.288 112.439 115.853 115.087C116.664 119.044 117.69 122.954 118.927 126.8L118.935 126.807ZM117.279 66.466C117.502 66.6808 117.655 66.9583 117.718 67.2618C117.78 67.5652 117.749 67.8805 117.629 68.166C117.508 68.4515 117.304 68.6939 117.044 68.8611C116.783 69.0283 116.477 69.1126 116.168 69.1028C114.198 69.1028 114.106 66.0367 116.168 65.9447C116.378 65.9534 116.585 66.004 116.776 66.0935C116.967 66.183 117.138 66.3096 117.279 66.466ZM116.658 69.4171C116.551 74.7062 116.543 75.6413 115.493 75.6567C114.658 75.6567 114.727 74.6449 114.727 74.5682C114.728 74.5503 114.723 74.5324 114.714 74.5172C114.704 74.5021 114.69 74.4904 114.673 74.4839C114.673 73.7174 114.612 68.6429 114.612 68.6429C114.827 68.9684 115.138 69.2182 115.503 69.3571C115.867 69.496 116.266 69.517 116.643 69.4171H116.658ZM75.8175 16.7258L80.1867 16.2582L118.628 21.8386C118.628 23.3256 118.72 114.589 118.72 115.463L116.474 116.106C116.405 115.754 116.329 115.394 116.26 115.041C115.696 112.416 115.376 109.745 115.301 107.061C115.301 104.808 114.734 77.7416 114.665 75.4804C114.995 76.1549 116.313 76.3312 116.697 74.9898C117.08 73.6484 116.927 70.8199 116.812 69.3635C117.066 69.2659 117.299 69.1172 117.494 68.9265C117.667 68.7507 117.803 68.5423 117.895 68.3132C117.987 68.0842 118.033 67.8392 118.029 67.5924C118.026 67.3457 117.973 67.1021 117.875 66.8758C117.776 66.6495 117.634 66.4451 117.455 66.2743C117.251 66.0883 117.008 65.9484 116.745 65.8641C116.481 65.7798 116.203 65.7531 115.928 65.7858C115.653 65.8185 115.389 65.9098 115.152 66.0536C114.916 66.1974 114.713 66.3903 114.558 66.6193V62.9629C114.558 62.9629 116.129 57.1143 114.006 53.113C110.94 47.3334 103.443 45.2944 102.247 45.0031C102.194 44.5202 101.972 42.8108 101.765 41.5537C102.348 41.3289 102.854 40.9402 103.221 40.4346C103.353 40.2375 103.438 40.0124 103.469 39.777C103.499 39.5415 103.475 39.3022 103.397 39.0778L103.351 38.9552C104.242 37.4591 104.517 35.6753 104.118 33.9804C105.582 33.7428 105.283 32.7003 105.735 31.8418C106.187 30.9833 107.146 30.0788 106.417 28.7757C105.689 27.4726 105.061 27.7409 104.417 27.2886C103.773 26.8363 103.259 26.89 102.27 27.1353C101.282 27.3806 101.657 27.3423 100.852 26.959C100.048 26.5757 99.3883 26.7367 98.4991 27.9708C97.61 29.2049 98.7904 30.4084 98.7904 30.4084C95.1877 30.1784 93.5857 32.2787 93.3174 32.6696C93.2407 32.6696 92.6582 32.363 91.6157 33.2675C90.5732 34.172 91.6157 35.3448 90.6499 35.9811C90.2819 36.234 89.8833 36.464 89.6227 36.6939C89.3789 36.8688 89.1751 37.0935 89.0248 37.3531C88.2583 38.8019 91.4394 38.457 88.6722 40.5649C87.3998 41.5384 88.6186 41.8603 88.6722 42.5426C88.6722 42.8108 88.4653 42.9105 88.2966 42.8032C88.2814 42.792 88.2623 42.7873 88.2436 42.7902C88.2249 42.7931 88.2081 42.8033 88.197 42.8185C88.1858 42.8338 88.1811 42.8528 88.184 42.8715C88.1869 42.8902 88.1971 42.907 88.2123 42.9182C88.6339 43.2248 89.2394 42.7189 88.5419 41.7837C87.9977 41.0172 88.9098 40.9635 89.6994 40.1663C90.144 39.7141 90.2743 39.3998 90.1976 39.0548C89.8987 37.8131 88.0743 38.181 90.6882 36.3873C90.8032 39.5071 90.5502 39.1008 91.5314 39.1315C91.4777 41.0478 92.1753 43.0331 94.0303 43.815C94.5664 44.0397 95.143 44.1518 95.7243 44.1446L95.8163 45.2254C87.944 47.6093 84.1267 51.9326 79.5275 57.6279C78.8736 58.4076 78.2719 59.2296 77.7262 60.0884V55.6196C77.7268 55.5935 77.7216 55.5675 77.711 55.5437C77.7004 55.5198 77.6846 55.4986 77.6648 55.4816C77.6263 55.4427 77.5739 55.4206 77.5192 55.4203L75.8098 55.4663L75.8175 16.7258ZM73.9318 55.9032L77.3352 55.8189C77.3352 56.9073 77.3812 73.6714 77.3812 74.1389L72.1305 74.9055C72.1305 74.6755 72.0615 67.4931 72.0385 66.6423C72.0385 65.9371 71.7396 58.7777 71.7242 58.4634L73.8552 58.3178C73.8959 58.3141 73.9339 58.2957 73.9621 58.2661C73.9903 58.2365 74.0068 58.1976 74.0085 58.1568L73.9318 55.9032ZM66.3815 56.2328L66.6038 58.5324C66.6076 58.5764 66.6279 58.6174 66.6606 58.6472C66.6932 58.6771 66.7359 58.6935 66.7801 58.6934L69.0797 58.5937C69.0797 58.8773 69.141 63.3155 69.1563 63.9594C69.1717 64.6033 69.5549 72.8205 69.5703 73.0581C68.9278 73.3432 68.3077 73.6763 67.7153 74.0546C66.5241 74.101 65.3313 74.0754 64.1432 73.978C63.5126 73.9331 62.8883 73.8226 62.2806 73.6484C62.2806 73.6484 62.0046 65.7301 61.9586 64.8409C61.9203 64.0744 61.4297 56.5164 61.4067 56.2021L73.7939 55.9262L73.7172 58.0035L66.9487 58.3714L66.7724 56.3018L66.3815 56.2328Z" fill="black"/>
<path fill-rule="evenodd" clip-rule="evenodd" d="M116.183 72.7211L115.838 71.5407C116.329 71.487 116.268 70.8968 115.792 70.8968C115.698 70.8882 115.604 70.9172 115.531 70.9775C115.458 71.0377 115.411 71.1244 115.401 71.2187C115.407 71.3049 115.445 71.3857 115.507 71.4453C115.57 71.5049 115.652 71.539 115.739 71.5407L115.401 72.6598L116.183 72.7211ZM137.385 56.6087C137.354 56.7509 137.355 56.8984 137.388 57.0403C137.421 57.1822 137.486 57.3149 137.577 57.4285C137.668 57.5421 137.784 57.6338 137.915 57.6968C138.046 57.7598 138.19 57.7925 138.336 57.7925C138.482 57.7925 138.626 57.7598 138.757 57.6968C138.888 57.6338 139.004 57.5421 139.095 57.4285C139.186 57.3149 139.251 57.1822 139.284 57.0403C139.317 56.8984 139.318 56.7509 139.286 56.6087C139.304 56.4737 139.292 56.3366 139.252 56.2066C139.212 56.0765 139.145 55.9565 139.055 55.8544C138.965 55.7523 138.854 55.6705 138.73 55.6145C138.606 55.5585 138.472 55.5295 138.336 55.5295C138.2 55.5295 138.065 55.5585 137.941 55.6145C137.817 55.6705 137.707 55.7523 137.617 55.8544C137.527 55.9565 137.46 56.0765 137.42 56.2066C137.38 56.3366 137.368 56.4737 137.385 56.6087ZM137.746 56.6087C137.7 55.4129 138.98 55.4205 138.934 56.6087C138.896 57.6435 137.784 57.6588 137.746 56.6087Z" fill="black"/>
<path fill-rule="evenodd" clip-rule="evenodd" d="M141.647 59.9199C141.647 59.4907 141.44 55.0448 141.394 54.217C141.318 53.0978 141.249 52.316 141.249 52.316C141.25 52.2911 141.243 52.2664 141.229 52.2457C141.216 52.2249 141.195 52.2093 141.172 52.201L140.275 51.9404C140.268 51.9212 140.257 51.9037 140.242 51.8892C140.227 51.8747 140.21 51.8634 140.191 51.856H140.114L136.481 52.0707C136.462 52.0721 136.445 52.0796 136.431 52.0921C136.417 52.1046 136.407 52.1213 136.404 52.1397C136.404 52.9062 136.35 54.4393 136.358 56.0336C136.358 57.0148 136.458 61.8593 136.458 61.8593C136.462 61.9081 136.483 61.9539 136.518 61.9878C136.554 62.0218 136.6 62.0415 136.649 62.0432H140.382C140.433 62.043 140.483 62.0239 140.52 61.9896L140.559 61.9359H141.578C141.608 61.9471 141.641 61.9471 141.67 61.9359C141.694 61.9111 141.708 61.8783 141.709 61.8439C141.709 61.8439 141.678 61.0467 141.647 59.9199ZM136.81 61.637C136.81 61.1771 136.519 52.8142 136.534 52.2087L139.976 52.1167C139.976 52.2776 140.129 60.8704 140.152 61.637H136.81ZM140.543 61.752C140.543 61.2154 140.267 52.2853 140.26 52.1243L141.026 52.4003V54.2323C141.026 55.1445 141.249 59.506 141.279 59.9353C141.333 60.7938 141.387 61.4683 141.41 61.7136L140.543 61.752ZM49.3033 38.1581C49.2648 38.1548 49.2261 38.1597 49.1897 38.1727C49.1534 38.1856 49.1202 38.2063 49.0926 38.2332C49.0649 38.2601 49.0434 38.2927 49.0295 38.3287C49.0156 38.3647 49.0096 38.4032 49.012 38.4418V39.0856C49.0158 39.165 49.0496 39.24 49.1065 39.2954C49.1634 39.3509 49.2392 39.3828 49.3186 39.3846C49.3561 39.3847 49.3933 39.377 49.4279 39.3622C49.4624 39.3474 49.4935 39.3257 49.5193 39.2984C49.5452 39.2712 49.5652 39.2389 49.5781 39.2036C49.591 39.1684 49.5966 39.1308 49.5945 39.0933C49.5715 38.6794 49.6789 38.1811 49.3033 38.1581ZM92.5279 37.2C92.5279 37.5756 92.4129 38.0585 92.7655 38.0738C93.1181 38.0892 93.0185 37.6292 93.0492 37.269C93.0537 37.2347 93.0514 37.2 93.0425 37.1666C93.0336 37.1333 93.0182 37.102 92.9972 37.0746C92.9762 37.0472 92.95 37.0242 92.9201 37.0069C92.8903 36.9896 92.8573 36.9784 92.823 36.9739C92.7888 36.9693 92.754 36.9716 92.7207 36.9805C92.6873 36.9894 92.656 37.0048 92.6286 37.0258C92.6012 37.0468 92.5782 37.073 92.561 37.1029C92.5437 37.1328 92.5324 37.1658 92.5279 37.2ZM96.8665 36.9624C96.832 36.9592 96.7973 36.9631 96.7644 36.974C96.7315 36.9848 96.7012 37.0022 96.6753 37.0252C96.6495 37.0482 96.6286 37.0762 96.614 37.1076C96.5994 37.139 96.5914 37.1731 96.5905 37.2076V37.7902C96.5905 37.8593 96.618 37.9256 96.6669 37.9745C96.7157 38.0234 96.782 38.0508 96.8512 38.0508C96.9203 38.0508 96.9866 38.0234 97.0354 37.9745C97.0843 37.9256 97.1118 37.8593 97.1118 37.7902V37.2536C97.1127 37.1837 97.0883 37.1158 97.0433 37.0624C96.9983 37.0089 96.9355 36.9734 96.8665 36.9624Z" fill="black"/>
</svg>
