<svg width="154" height="154" viewBox="0 0 154 154" fill="none" xmlns="http://www.w3.org/2000/svg">
<path d="M11.5843 78.094C11.7997 77.8104 12.0411 77.5382 12.3018 77.2799C11.9484 71.3552 11.9752 65.3095 12.3823 59.2844H14.3347C14.8919 64.5736 14.9724 70.0628 14.5777 75.6418C14.8391 75.5076 15.105 75.3881 15.371 75.2838C15.4147 74.6261 15.4523 73.9699 15.483 73.3153L21.3831 73.3429C21.1784 73.1252 20.9991 72.9037 20.8342 72.6484L15.5136 72.6039C15.5274 72.259 15.5389 71.9141 15.5489 71.5691L20.3406 71.54C20.277 71.2947 20.2425 71.0486 20.2333 70.8049L15.568 70.8294C15.6171 68.5573 15.5857 66.3044 15.4745 64.0799L26.3503 64.1251C26.9505 63.886 27.5707 63.6805 28.2062 63.5096C28.2598 62.1014 28.3342 60.6925 28.4292 59.2851H30.3816C30.5119 60.5193 30.6154 61.7649 30.6936 63.0198C30.9466 62.9876 31.2011 62.96 31.4563 62.937C31.4418 62.7078 31.4272 62.4794 31.4111 62.2509L44.2477 62.2241C44.2278 62.6549 44.2094 63.0857 44.1933 63.5165L38.3576 63.4996C41.4008 64.2938 38.7324 64.1573 44.1703 64.1673C44.1473 64.8672 44.1297 65.567 44.1159 66.2653C44.2424 66.365 44.3673 66.4669 44.4892 66.5704C44.5352 65.984 44.6824 65.4091 44.9162 64.858C44.9691 63.0014 45.0588 61.1417 45.1837 59.2844H47.1361C47.225 60.1268 47.3009 60.9746 47.3653 61.8263C47.5983 61.6499 47.8421 61.4836 48.0951 61.3272C48.033 60.5599 47.9617 59.7957 47.8804 59.036C47.8482 58.7409 47.5861 58.5178 47.2703 58.5178H45.0419C44.7199 58.5178 44.4516 58.7547 44.4302 59.0575C44.375 59.8624 44.3267 60.6672 44.2845 61.4721L31.3567 61.5181C31.2915 60.6864 31.2149 59.8585 31.1267 59.036C31.0945 58.7409 30.8324 58.5178 30.5165 58.5178H28.2882C27.9662 58.5178 27.6979 58.7547 27.6765 59.0575C27.6197 59.883 27.5699 60.7086 27.5278 61.535L15.3174 61.5955C15.2507 60.7378 15.1725 59.8846 15.0813 59.036C15.0491 58.7409 14.7869 58.5178 14.4711 58.5178H12.2427C11.9208 58.5178 11.6525 58.7547 11.631 59.0575C11.5728 59.9106 11.5214 60.7638 11.4785 61.617C8.48972 61.6346 7.75 61.5603 7.75 62.1528V63.515C7.75 64.0853 8.42686 64.0301 11.375 64.0538C11.2976 66.3251 11.2738 68.5941 11.3045 70.8531C8.46826 70.87 7.75077 70.8064 7.75077 71.3874V72.7496C7.75077 73.3207 8.41613 73.2647 11.3582 73.2885C11.4072 74.8975 11.4839 76.4996 11.5873 78.0932L11.5843 78.094ZM27.4902 62.2632C27.4718 62.6603 27.4549 63.0573 27.4396 63.4552C22.6625 63.4314 18.5791 63.403 15.4354 63.3709C15.4155 63.0213 15.3925 62.6733 15.3687 62.326C18.53 62.3007 22.6556 62.2793 27.4902 62.2632ZM8.51348 63.2275V62.4418C8.75111 62.4134 9.76679 62.3881 11.4394 62.3651C11.4248 62.6833 11.411 63.0006 11.3988 63.318C9.79209 63.2904 8.79404 63.2597 8.51348 63.2275ZM8.51348 72.4621V71.6764C8.72505 71.6519 9.69704 71.6297 11.3129 71.609C11.3191 71.9233 11.3252 72.2368 11.3336 72.5503C9.75683 72.5235 8.78101 72.4936 8.51348 72.4621Z" fill="black"/>
<path d="M149.861 63.5165V62.1536C149.861 61.5817 149.178 61.6362 146.28 61.6193C146.213 60.7539 146.134 59.893 146.042 59.0375C146.011 58.7417 145.749 58.5186 145.433 58.5186H143.205C142.882 58.5186 142.614 58.7562 142.593 59.0582C142.535 59.9045 142.484 60.7508 142.441 61.5978L129.757 61.5357C129.691 60.6979 129.614 59.8647 129.526 59.0368C129.493 58.7417 129.231 58.5186 128.915 58.5186H126.687C126.365 58.5186 126.097 58.7555 126.075 59.0582C126.019 59.8784 125.97 60.6987 125.927 61.5189L113.706 61.4752C113.642 60.658 113.566 59.8447 113.479 59.036C113.447 58.7409 113.185 58.5178 112.87 58.5178H110.642C110.32 58.5178 110.051 58.7547 110.03 59.0575C109.975 59.8593 109.926 60.6619 109.885 61.4652L96.9503 61.4368C96.8866 60.632 96.8115 59.8317 96.7264 59.036C96.6942 58.7409 96.4321 58.5178 96.1163 58.5178H93.8879C93.566 58.5178 93.2977 58.7547 93.2762 59.0575C93.2218 59.8486 93.1742 60.6396 93.1329 61.4315L80.9033 61.4223C80.8397 60.6235 80.7653 59.8279 80.6802 59.0375C80.6488 58.7409 80.3874 58.5178 80.0708 58.5178H77.8425C77.5205 58.5178 77.2522 58.7547 77.2308 59.0575C77.1763 59.8455 77.1288 60.6343 77.0874 61.4223L64.1504 61.4315C64.0867 60.6289 64.0116 59.8302 63.9265 59.036C63.8943 58.7409 63.6322 58.5178 63.3164 58.5178H61.088C60.766 58.5178 60.4977 58.7547 60.4763 59.0575C60.4219 59.8501 60.3743 60.6435 60.3329 61.4368L59.4077 61.4384C60.0095 61.7979 60.5598 62.2111 61.0412 62.6725C61.0911 61.5434 61.1531 60.4135 61.2298 59.2851H63.1822C63.5141 62.4387 63.6774 65.6621 63.6713 68.9329C63.9181 68.8954 64.1749 68.857 64.4378 68.821C64.4386 67.2665 64.4018 65.7219 64.3274 64.1903L69.832 64.1934C70.1363 63.9519 70.466 63.7403 70.814 63.5556L64.2945 63.551C64.2692 63.1026 64.2408 62.6541 64.2094 62.208H77.0499C77.043 62.3621 77.0361 62.5154 77.0292 62.6695C77.2867 62.7032 77.5412 62.7446 77.7911 62.7929C77.8417 61.6239 77.9061 60.4549 77.9851 59.2859H79.9375C80.0869 60.704 80.2019 62.1359 80.2824 63.5809C80.6458 63.7587 80.9769 63.9649 81.2774 64.1964L93.0163 64.1926C92.9964 64.8043 92.9803 65.416 92.968 66.0277C93.2333 66.1435 93.4862 66.2653 93.7277 66.3934C93.7699 64.027 93.871 61.6553 94.0312 59.2867H95.9836C96.3079 62.369 96.4712 65.5195 96.4727 68.7152C96.6444 68.9628 96.7916 69.2158 96.915 69.4734C97.0162 69.2672 97.1235 69.064 97.2385 68.8632C97.24 67.2941 97.2032 65.7349 97.1281 64.1895C104.714 64.1826 101.4 64.3528 104.41 63.5387L97.0944 63.5495C97.0699 63.1064 97.0415 62.6649 97.0108 62.2241L109.848 62.2433C109.834 62.5583 109.821 62.8726 109.808 63.1869C110.063 63.2244 110.317 63.2689 110.57 63.3233C110.622 61.978 110.694 60.6312 110.785 59.2859H112.737C112.909 60.9133 113.035 62.5591 113.116 64.221C113.388 64.3605 113.651 64.5107 113.904 64.6717C113.896 64.5038 113.889 64.3367 113.881 64.1696L125.819 64.1451C125.763 65.8169 125.736 67.488 125.738 69.1537C125.996 69.2112 126.252 69.2756 126.505 69.3461C126.496 66.0024 126.605 62.6411 126.831 59.2859H128.784C129.166 62.9148 129.323 66.6379 129.258 70.4193C129.884 70.7458 130.458 71.1145 130.956 71.5177C135.452 71.5338 139.298 71.553 142.28 71.5752C142.286 71.9202 142.294 72.2644 142.303 72.6093C139.57 72.6384 136.111 72.6637 132.094 72.686C132.255 72.9044 132.392 73.1298 132.507 73.3598L142.323 73.3176C142.379 75.1397 142.47 76.9541 142.597 78.757C142.618 79.0591 142.887 79.2952 143.208 79.2952H145.436C145.754 79.2952 146.016 79.0706 146.046 78.7731C146.233 76.9365 146.367 75.1083 146.452 73.2908C149.156 73.2678 149.865 73.3268 149.865 72.7527V71.3897C149.865 70.8187 149.152 70.8723 146.535 70.857C146.585 68.5673 146.554 66.2975 146.44 64.0562C149.381 64.0309 149.865 64.0699 149.865 63.5173L149.861 63.5165ZM93.0363 63.5525L81.0459 63.5579C81.0206 63.1072 80.9922 62.6572 80.9608 62.2088L93.093 62.218C93.0723 62.6626 93.0531 63.1072 93.037 63.5518L93.0363 63.5525ZM125.838 63.4782L113.843 63.518C113.819 63.0941 113.792 62.6718 113.762 62.2502L125.888 62.2808C125.87 62.6802 125.853 63.0796 125.838 63.4782H125.838ZM142.264 70.8324L130.014 70.7719C130.061 68.5366 130.03 66.3213 129.921 64.132L142.334 64.0814C142.257 66.3359 142.234 68.588 142.263 70.8317L142.264 70.8324ZM142.36 63.3716C139.13 63.4053 134.881 63.4352 129.886 63.4598C129.864 63.0704 129.839 62.681 129.812 62.2938C134.865 62.3115 139.158 62.3314 142.404 62.3536C142.388 62.6932 142.374 63.032 142.36 63.3716ZM145.295 78.5278H143.344C142.909 72.203 142.91 65.7318 143.344 59.2851H145.296C145.949 65.4858 145.948 71.9577 145.294 78.5278H145.295ZM146.51 71.6151C148.008 71.6343 148.903 71.655 149.093 71.678V72.4637C148.826 72.4959 147.924 72.525 146.479 72.5518C146.491 72.2391 146.502 71.9271 146.511 71.6151H146.51ZM146.395 63.3164C146.377 63.006 146.357 62.6955 146.335 62.3858C147.964 62.4035 148.924 62.4226 149.093 62.4418V63.2275C148.823 63.2597 147.891 63.2888 146.394 63.3157L146.395 63.3164Z" fill="black"/>
<path d="M63.2918 68.6024C63.2665 68.8669 63.2258 69.1306 63.1707 69.3928C64.6248 69.1843 66.8018 68.7527 68.0451 69.3851C68.3602 69.5445 68.7021 69.2302 68.5764 68.9052C68.213 67.9654 68.2889 66.8785 68.7803 65.9985C70.7526 62.4616 76.5255 62.434 79.7617 63.7663C81.6122 64.529 82.8026 66.0905 83.4013 68.5419C83.4925 68.9129 84.0245 68.9428 84.1402 68.5626C84.6814 66.7896 87.9186 64.8142 91.368 65.8505C94.2855 66.7282 96.0302 68.256 96.6979 69.9393C96.8274 69.638 96.9715 69.3414 97.131 69.0501C96.2333 67.4043 94.3982 65.9609 91.5896 65.1169C88.2972 64.1273 85.0524 65.6413 83.8666 67.389C83.1391 65.2335 81.8858 63.8115 80.0545 63.0572C76.4718 61.5816 70.3279 61.6521 68.1118 65.6244C67.6373 66.4737 67.4794 67.481 67.6527 68.433C66.3158 68.1088 64.6317 68.4024 63.2933 68.6024H63.2918Z" fill="black"/>
<path d="M78.0617 69.3176C78.2909 68.9542 78.4312 68.5357 78.4618 68.1011C78.4833 67.7998 78.1606 67.589 77.8915 67.74C77.6002 67.9041 77.3388 68.1256 77.125 68.3847C76.944 68.1095 76.6842 67.8864 76.3753 67.7638C76.1468 67.6733 75.8931 67.8197 75.8555 68.0627C75.8073 68.377 75.8724 68.7005 76.0227 68.978C75.6662 69.1106 75.3473 69.3459 75.1258 69.6595C74.9824 69.8626 75.0675 70.1401 75.2891 70.2336C75.5397 70.3402 75.8096 70.3846 76.0794 70.3701C76.0265 70.5111 75.9828 70.656 75.9483 70.8024C75.8801 71.0967 76.166 71.3558 76.4581 71.247C76.8015 71.1167 77.082 70.8637 77.2683 70.5525C77.4814 70.7457 77.7298 70.9473 78.0157 70.9618C78.8275 71.014 79.1111 69.6372 78.0617 69.3176Z" fill="black"/>
<path d="M80.9928 89.905C80.9844 90.9652 81.37 92.115 81.9226 92.673H83.5125C83.1782 92.5581 82.8601 92.4109 82.5719 92.2223C82.1035 91.9157 81.741 90.8425 81.7563 89.905H80.9928Z" fill="black"/>
<path d="M137.291 82.5476C135.855 80.6412 132.952 79.5581 130.228 79.7811C131.914 78.3063 133.385 76.603 133.242 74.6031C132.884 69.5661 121.888 66.45 117.836 69.8451C117.577 66.9199 114.97 64.1397 111.37 63.1255C104.326 61.1402 96.123 65.5409 95.5075 73.1474C92.196 70.3334 86.1449 69.8719 81.0665 73.0554C78.7714 74.4942 76.878 76.7326 77.8454 79.2192H78.6879C78.2885 78.4535 78.2555 77.5114 78.6342 76.6298C79.0803 75.5904 80.0362 74.6061 81.4743 73.7047C86.6615 70.453 92.8077 71.2755 95.5757 74.2719C95.8111 74.5272 96.2411 74.3601 96.2403 74.0105C96.2296 70.824 97.8225 67.7509 100.502 65.79C103.411 63.6606 107.696 62.8864 111.161 63.8629C114.818 64.8932 117.357 67.8628 117.067 70.7696C117.028 71.1567 117.527 71.3468 117.757 71.0363C120.693 67.0694 132.149 70.0605 132.477 74.6575C132.624 76.7172 130.576 78.5477 128.645 80.1031C128.323 80.3622 128.586 80.8804 128.986 80.7715C131.782 80.0103 135.16 80.9923 136.678 83.0091C138.156 84.9722 137.692 87.7586 135.621 89.353C134.344 90.3358 132.579 90.8685 131.183 91.2226C128.268 91.9624 122.794 92.8531 118.886 90.5105C118.477 90.2652 118.077 90.8463 118.453 91.1406C118.689 91.3269 117.923 91.8129 117.541 91.9447C111.558 94.0022 104.143 93.1705 99.095 89.8743C99.0313 89.8329 98.9585 89.8122 98.8857 89.8122C98.5499 89.8122 95.7168 91.8098 90.6575 92.673C93.6256 92.673 93.792 92.6653 93.9177 92.6852C95.6677 92.1663 97.3403 91.4802 98.8704 90.6416C104.081 93.9424 111.646 94.7817 117.79 92.6699C118.351 92.4775 118.985 92.059 119.197 91.5523C123.264 93.5514 128.509 92.6921 131.371 91.9654C132.838 91.5937 134.7 91.0287 136.089 89.9609C138.496 88.1074 139.025 84.8511 137.291 82.5484V82.5476Z" fill="black"/>
<path d="M72.6873 87.8842H74.4941C73.2201 87.4511 72.1285 86.7267 71.4379 85.5723H70.5686C71.0055 86.4799 71.7499 87.3039 72.6873 87.8842Z" fill="black"/>
<path d="M113.495 75.9069C113.313 75.5474 113.032 75.2492 112.696 75.0354C112.924 74.9196 113.143 74.7839 113.348 74.6299C113.593 74.4459 113.533 74.0626 113.244 73.9622C112.768 73.7951 112.243 73.8342 111.784 74.0281C111.766 73.8419 111.735 73.6571 111.692 73.4762C111.298 71.8389 109.151 73.1382 110.245 74.5034C109.664 74.6598 109.121 74.9702 108.704 75.4003C108.491 75.6187 108.609 75.9874 108.909 76.0442C109.381 76.1331 109.874 76.1185 110.345 76.0097C110.254 76.4635 110.313 76.9486 110.535 77.3587C110.653 77.5764 110.941 77.6262 111.125 77.4645C111.455 77.1755 111.659 76.7616 111.715 76.33C112.196 76.5354 112.743 76.5846 113.252 76.4512C113.488 76.3899 113.608 76.1254 113.497 75.9069H113.495Z" fill="black"/>
<path d="M124.787 84.152C124.601 83.6821 124.228 83.3104 123.781 83.0911C123.91 82.9554 124.03 82.8113 124.138 82.6603C125.12 81.292 122.731 80.5193 122.415 82.2379C121.917 81.9007 121.326 81.6937 120.728 81.6592C120.42 81.6431 120.223 81.9743 120.376 82.2349C120.617 82.6504 120.951 83.0137 121.341 83.2981C120.938 83.5265 120.61 83.8883 120.445 84.3245C120.358 84.5552 120.507 84.8051 120.751 84.8404C121.185 84.9002 121.631 84.7844 121.994 84.5437C122.153 85.0412 122.474 85.4874 122.908 85.7855C123.106 85.922 123.387 85.8438 123.48 85.6138C123.631 85.2413 123.674 84.8327 123.615 84.4395C123.853 84.5368 124.098 84.6135 124.349 84.6679C124.65 84.7323 124.898 84.4349 124.787 84.152Z" fill="black"/>
<path d="M98.983 79.1611C99.0412 78.5616 98.94 77.9445 98.684 77.4034C98.5537 77.1289 98.1689 77.1067 98.0102 77.3689C97.7611 77.7797 97.6016 78.2466 97.5388 78.7257C97.1456 78.4811 96.6726 78.3661 96.2081 78.4298C95.9628 78.4643 95.8156 78.7157 95.9022 78.9449C96.0578 79.355 96.3729 79.6923 96.7577 79.8954C96.3974 80.2741 96.159 80.7685 96.1046 81.2928C96.08 81.5335 96.2832 81.7405 96.5292 81.7129C96.9286 81.6677 97.3081 81.509 97.6254 81.2698C97.6538 81.5251 97.7044 81.7773 97.7764 82.0226C97.8638 82.3185 98.244 82.3936 98.438 82.1598C98.7614 81.7719 98.9094 81.2668 98.8879 80.7693C99.2551 80.8682 99.7449 80.964 100.071 80.8015C100.939 80.3684 100.361 78.708 98.983 79.1611Z" fill="black"/>
<path d="M71.2095 83.5517H72.728C73.7169 82.9231 74.6704 82.1588 75.3979 81.2397H74.3868C73.4869 82.191 72.3532 82.9323 71.2095 83.5517Z" fill="black"/>
<path d="M69.4255 92.673C70.6635 92.0245 71.7482 91.1039 72.2464 89.905H71.4002C70.675 91.2618 69.0047 92.1847 67.408 92.673H69.4255Z" fill="black"/>
<path d="M40.2608 92.6883C40.3888 92.5856 40.516 92.4798 40.644 92.3709C40.7054 92.4744 40.772 92.5748 40.8426 92.6729H41.8644C41.5355 92.3533 41.2787 91.9968 41.1162 91.609C41.0143 91.3644 40.7008 91.2962 40.506 91.4725C37.6123 94.0903 33.5841 95.733 30.1024 94.0236C29.5275 93.7423 29.0929 93.5085 28.7295 93.0692C28.6184 92.919 28.1792 92.1509 28.081 91.8688C28.15 91.5883 27.8879 91.3284 27.6019 91.4104C24.3441 92.3472 21.524 92.3387 19.2182 91.3867C16.3559 90.2047 16.4417 88.0867 18.7583 86.224C19.0526 85.9871 18.8602 85.5149 18.49 85.5433C16.4939 85.6889 13.6216 85.3049 12.087 83.7365C11.0077 82.6334 10.6382 81.4077 10.9893 80.0939C11.5933 77.8325 14.1337 75.9897 16.2164 75.4033C18.6371 74.7219 21.2756 74.9695 23.3031 75.26C23.7063 75.319 23.9087 74.7863 23.5699 74.5609C22.8194 74.0634 22.0429 73.5491 21.4711 72.8645C19.3884 70.3725 21.4726 67.3645 24.1793 65.6544C29.9921 61.981 39.1776 62.5337 44.2399 66.8624C44.4806 67.0671 44.847 66.91 44.8716 66.601C45.0954 63.7671 47.9324 61.1087 51.4708 60.4173C55.0138 59.7251 59.0006 60.9339 61.1692 63.3555C63.2496 65.6797 63.5271 68.9927 61.8575 71.5974C61.6598 71.9063 61.9694 72.2927 62.3167 72.1624C67.9723 70.0045 77.3226 74.2182 75.6646 79.22H76.4687C78.0386 73.6456 68.7879 69.6473 62.9813 71.1482C64.2814 68.4086 63.8291 65.1783 61.7395 62.8442C59.4 60.231 55.115 58.924 51.3236 59.6653C47.6802 60.3774 44.8049 62.917 44.2047 65.8483C38.8189 61.7189 29.6425 61.295 23.7692 65.0066C22.115 66.0522 20.2293 67.9203 19.8989 70.0298C19.6222 71.7967 20.4815 73.2056 21.8858 74.3133C20.0714 74.1339 17.9856 74.1086 16.0086 74.6651C13.6638 75.3244 10.9326 77.3327 10.248 79.8953C9.47227 82.8021 11.7796 86.2447 17.5073 86.3359C13.6691 90.4323 19.347 94.4145 27.4134 92.2582C27.6372 92.8324 28.1247 93.5414 28.1324 93.5506C28.8614 94.4329 30.8414 95.4885 33.1441 95.4885C35.0635 95.4885 37.2881 94.8423 39.5463 93.231C39.6858 92.9481 39.948 92.7442 40.2608 92.6883Z" fill="black"/>
<path d="M52.4022 92.673C53.1297 92.0215 53.7674 91.258 54.2826 90.4079C55.217 91.3293 56.3783 92.0928 57.6699 92.673C62.6763 92.673 58.2042 93.1583 54.8644 89.905H53.6892C53.0469 90.9997 52.186 91.9433 51.188 92.673H52.4022Z" fill="black"/>
<path d="M34.0832 70.6683C33.729 70.4767 33.3235 70.3901 32.9303 70.4069C33.0522 70.1816 33.1549 69.9455 33.2354 69.7025C33.3304 69.4142 33.069 69.1306 32.7701 69.2119C32.2833 69.346 31.874 69.6764 31.6072 70.0972C31.3619 69.8067 31.0139 69.4487 30.6544 69.3958C29.6863 69.2609 29.2279 70.9519 30.6115 71.3628C30.2221 71.822 29.953 72.3869 29.8549 72.9772C29.8051 73.2777 30.1109 73.5145 30.3892 73.3903C30.8277 73.1949 31.2255 72.902 31.5505 72.5448C31.7345 72.9703 32.058 73.3351 32.4742 73.5467C32.6934 73.6579 32.9602 73.536 33.0192 73.2976C33.1258 72.8721 33.0591 72.416 32.859 72.0289C33.3711 71.9232 33.8494 71.6533 34.1928 71.254C34.3538 71.0662 34.2963 70.781 34.084 70.6668L34.0832 70.6683Z" fill="black"/>
<path d="M55.0981 71.2585C54.678 70.9779 54.1591 70.8844 53.6677 70.958C53.6968 70.7733 53.7137 70.5862 53.7168 70.4C53.7428 68.7105 51.3405 69.4448 52.0587 71.0331C51.4562 71.0393 50.8529 71.2048 50.3424 71.5168C50.0833 71.6763 50.1025 72.0611 50.38 72.1906C50.8146 72.3945 51.296 72.5041 51.7789 72.5156C51.5773 72.9326 51.5129 73.4163 51.6256 73.8701C51.6847 74.1093 51.9522 74.2312 52.1706 74.12C52.5624 73.9223 52.8636 73.5735 53.0246 73.1695C53.4377 73.4861 53.9513 73.6708 54.4757 73.6708C54.7348 73.6685 54.908 73.4393 54.8566 73.2048C54.7693 72.8115 54.5715 72.452 54.2994 72.1615C54.55 72.1063 54.7953 72.0296 55.0322 71.9315C55.315 71.815 55.3526 71.4287 55.0981 71.2585Z" fill="black"/>
<path d="M24.3379 82.5201C24.0443 81.9942 23.6104 81.5442 23.0923 81.2445C22.8286 81.0912 22.4997 81.2959 22.5181 81.5994C22.5472 82.0793 22.6814 82.5538 22.9014 82.9838C22.4384 83.0061 21.9831 83.1816 21.6396 83.4974C21.458 83.663 21.4787 83.9558 21.681 84.0946C22.0421 84.3445 22.4943 84.4418 22.9251 84.3897C22.8447 84.9063 22.929 85.449 23.1827 85.9105C23.2992 86.1228 23.5844 86.1765 23.7706 86.0148C24.0742 85.7503 24.2957 85.4046 24.4207 85.0267C24.5886 85.2198 24.7733 85.3992 24.9734 85.5602C25.2118 85.7534 25.5682 85.6016 25.5958 85.2965C25.641 84.7937 25.4755 84.2939 25.175 83.8968C25.3513 83.8332 25.5237 83.7588 25.6878 83.673C27.1833 82.8857 25.3904 81.1318 24.3379 82.5201Z" fill="black"/>
<path d="M34.5691 18.198C35.4913 18.4778 36.4786 18.4586 37.3754 18.1466C36.786 17.0796 35.1877 17.0113 34.5691 18.198Z" fill="black"/>
<path d="M39.6168 22.1219C39.823 21.1683 38.5704 19.7955 37.695 19.2297C36.6456 19.6115 35.4613 19.6628 34.3015 19.2972C33.3954 19.8246 32.6534 20.6877 32.32 21.6674C32.1943 22.0384 32.2441 22.657 32.7492 22.8693C34.4533 23.5876 36.8411 23.4097 38.3688 23.0403C39.1039 22.8624 39.524 22.5535 39.6168 22.1219Z" fill="black"/>
<path d="M37.666 98.2274C36.3452 98.2274 36.3307 96.1217 37.666 96.1217H38.4525C37.9282 95.5591 38.1528 94.4184 39.3087 94.4184C39.0726 93.205 38.802 93.2931 37.9496 93.2931C38.3559 84.7147 38.3528 77.9177 37.9389 72.5641C37.9389 72.1149 37.7097 71.7531 37.3885 71.6182V37.6838C37.3885 37.4592 37.295 37.256 37.1432 37.1096C37.3234 33.4424 38.733 31.8794 39.0067 30.9895C39.5027 29.3797 39.9304 27.727 40.2761 26.0767C40.4969 25.0242 40.516 23.8889 40.3183 22.8357C40.2278 23.1071 40.0638 23.3546 39.8192 23.5677C39.7778 25.6206 38.7928 29.0815 38.2739 30.7641C38.162 31.1267 37.8714 31.418 37.4928 31.6165C37.7434 29.4602 38.0914 26.4906 38.4487 24.1917C38.1919 24.2515 37.9251 24.3044 37.6499 24.3496C37.2881 26.7336 36.9485 29.6664 36.6902 31.8726C36.3713 31.9193 36.0363 31.9093 35.7105 31.8373C35.3004 29.3751 34.9271 26.7827 34.4687 24.4546C34.1951 24.4248 33.9252 24.3826 33.6623 24.3282C34.1123 26.5581 34.4956 29.1651 34.8742 31.4816C34.6044 31.2961 34.366 31.0462 34.1851 30.722C32.8605 28.3426 32.258 25.6405 32.2526 23.8583C31.9077 23.6498 31.6846 23.3255 31.575 22.9652C31.1994 25.2526 32.222 28.7719 33.5151 31.0937C33.6646 31.362 35.3855 33.1374 35.8753 37.2882C35.6891 37.6094 35.7565 37.3825 35.7565 71.5936C35.3855 71.6895 35.108 72.0681 35.1088 72.5434C34.8206 78.0503 34.8175 84.6511 35.1011 93.2931H34.6688C34.2119 93.2931 33.8539 93.737 33.8578 94.2483C33.6661 95.5644 33.6654 96.5678 33.8555 97.2347C33.8785 97.7514 34.202 98.1523 34.619 98.183C35.8408 98.4551 37.0957 98.5018 38.3229 98.2282H37.666V98.2274Z" fill="black"/>
<path d="M133.827 18.2846C134.75 18.5644 135.737 18.5453 136.634 18.2333C136.044 17.1662 134.446 17.098 133.827 18.2846Z" fill="black"/>
<path d="M138.875 22.2086C139.081 21.255 137.829 19.8821 136.953 19.3164C135.904 19.6981 134.72 19.7495 133.56 19.3839C132.654 19.9112 131.912 20.7744 131.578 21.754C131.453 22.125 131.502 22.7437 132.008 22.956C133.712 23.6742 136.099 23.4964 137.627 23.1269C138.362 22.9491 138.782 22.6402 138.875 22.2086Z" fill="black"/>
<path d="M139.534 26.1633C139.755 25.1109 139.774 23.9756 139.577 22.9224C139.486 23.1937 139.322 23.4413 139.078 23.6544C139.036 25.7072 138.051 29.1682 137.532 30.8508C137.42 31.2134 137.13 31.5047 136.751 31.7032C137.002 29.5469 137.35 26.5773 137.707 24.2784C137.45 24.3382 137.183 24.3911 136.908 24.4363C136.546 26.8203 136.207 29.7531 135.948 31.9592C135.63 32.006 135.295 31.996 134.969 31.924C134.559 29.4618 134.185 26.8693 133.727 24.5413C133.453 24.5114 133.184 24.4693 132.921 24.4148C133.371 26.6447 133.754 29.2518 134.133 31.5683C133.863 31.3828 133.624 31.1329 133.443 30.8086C132.119 28.4293 131.516 25.7272 131.511 23.9449C131.166 23.7364 130.943 23.4122 130.833 23.0519C130.458 25.3393 131.48 28.8585 132.773 31.1804C132.923 31.4487 134.644 33.224 135.134 37.3749C134.947 37.6961 135.015 37.4692 135.015 71.6803C134.644 71.7761 134.366 72.1548 134.367 72.6301C134.079 78.1369 134.076 84.7377 134.359 93.3797H133.927C133.47 93.3797 133.112 93.8236 133.116 94.3349C132.924 95.651 132.924 96.6544 133.114 97.3213C133.137 97.838 133.46 98.2389 133.877 98.2696C135.164 98.5563 136.487 98.5923 137.775 98.2696C138.194 98.2358 138.516 97.8265 138.533 97.3037C138.743 96.2681 138.743 95.2999 138.533 94.3456C138.515 93.8013 138.164 93.3813 137.718 93.3813H137.207C137.613 84.8028 137.61 78.0058 137.196 72.6523C137.196 72.2031 136.967 71.8413 136.646 71.7064V37.7704C136.646 37.5458 136.553 37.3427 136.401 37.1963C136.581 33.5291 137.991 31.9661 138.264 31.0762C138.76 29.4664 139.188 27.8137 139.534 26.1633H139.534Z" fill="black"/>
<path d="M93.0224 88.2675C93.8442 88.2675 93.8342 89.5216 93.0224 89.5216H41.2335C40.4118 89.5216 40.4218 88.2675 41.2335 88.2675H93.0224ZM93.0224 87.501H41.2335C40.4724 87.501 39.8538 88.1203 39.8538 88.8808C39.8538 89.6688 40.4724 90.2882 41.2335 90.2882H93.0224C93.7828 90.2882 94.4022 89.6688 94.4022 88.9084C94.4022 88.1203 93.7836 87.501 93.0224 87.501Z" fill="black"/>
<path d="M96.593 95.7383C96.7631 94.9648 96.2856 94.035 95.1013 94.035C95.3197 93.1757 94.6873 92.2896 93.7636 92.2896H40.4354C39.5478 92.2896 38.8648 93.1282 39.1024 94.0373C38.378 94.0787 37.8016 94.6804 37.8016 95.4148C37.8016 95.8026 37.9349 95.7375 37.6667 95.7375C36.9062 95.7375 36.2869 96.3569 36.2869 97.1173C36.2869 98.1782 37.0573 98.6105 37.6667 98.6105H96.7907C97.5511 98.6105 98.1705 97.9911 98.1705 97.2307C98.1705 96.9946 98.146 95.7383 96.593 95.7383ZM40.4354 93.0561H93.7636C94.3355 93.0561 94.5056 93.6663 94.2803 94.035H39.9172C39.6934 93.6663 39.869 93.0561 40.4354 93.0561ZM39.1814 94.8015H95.2454C95.7957 94.8015 95.9736 95.3665 95.7858 95.7383H38.6394C38.4531 95.3665 38.6363 94.8015 39.1814 94.8015ZM97.4047 97.2307C97.4047 97.5695 97.1303 97.844 96.7915 97.844H37.6659C37.3271 97.844 37.0526 97.5695 37.0526 97.2307V97.118C37.0526 96.7792 37.3271 96.5048 37.6659 96.5048H96.7907C97.1295 96.5048 97.404 96.7792 97.404 97.118V97.2307H97.4047Z" fill="black"/>
<path d="M93.0224 79.6025C93.8426 79.6025 93.8357 80.8566 93.0224 80.8566H41.2335C40.4118 80.8566 40.4218 79.6025 41.2335 79.6025H93.0224ZM93.0224 78.8359H41.2335C40.4724 78.8359 39.8538 79.4553 39.8538 80.2157C39.8538 81.0037 40.4724 81.6231 41.2335 81.6231H93.0224C93.7828 81.6231 94.4022 81.0037 94.4022 80.2433C94.4022 79.4545 93.7836 78.8359 93.0224 78.8359Z" fill="black"/>
<path d="M93.0224 83.935C93.8442 83.935 93.8342 85.1891 93.0224 85.1891H41.2335C40.4118 85.1891 40.4218 83.935 41.2335 83.935H93.0224ZM93.0224 83.1685H41.2335C40.4724 83.1685 39.8538 83.7878 39.8538 84.5482C39.8538 85.3363 40.4724 85.9556 41.2335 85.9556H93.0224C93.7828 85.9556 94.4022 85.3363 94.4022 84.5758C94.4022 83.7878 93.7836 83.1685 93.0224 83.1685Z" fill="black"/>
<path d="M92.3556 100.09C92.2521 97.9331 91.9278 97.3934 90.6737 95.8442C89.9555 94.9566 88.0429 92.3626 87.7471 91.3454C87.373 90.0583 87.9203 81.6569 88.0882 79.7559C88.1257 79.3343 87.8138 78.9617 87.3921 78.9249C86.9736 78.8874 86.5988 79.1994 86.5612 79.621C86.2584 83.0429 86.1005 86.5184 86.0921 89.9518C86.0905 90.4784 86.089 91.133 86.2745 91.7739C86.6532 93.0762 88.6209 95.7469 89.4818 96.8086C90.5756 98.1577 90.7412 98.4083 90.824 100.163C90.8807 101.37 90.9206 102.586 90.942 103.802C89.7991 102.253 88.5864 100.719 87.1859 99.3635L87.225 98.2282H86.4562C86.3841 100.254 86.322 102.02 86.3144 102.25C86.3075 102.462 86.4738 102.639 86.6846 102.646C86.982 102.655 87.0763 102.391 87.0802 102.276C87.1001 101.659 87.1269 101.045 87.1468 100.428C88.5496 101.878 89.7822 103.506 90.9581 105.126C90.9666 106.223 90.9604 107.319 90.9397 108.408C90.9321 108.832 91.2686 109.182 91.6917 109.189C92.2935 109.199 92.469 108.65 92.4728 108.438C92.525 105.669 92.4851 102.861 92.3548 100.092L92.3556 100.09Z" fill="black"/>
<path d="M46.6812 98.2275H45.9216V98.761C44.7173 100.46 43.5384 102.203 42.4085 103.96C42.5434 95.9133 42.594 99.5191 46.4037 93.1935C47.1274 91.9901 47.2661 91.4328 47.2615 89.951C47.2523 86.5177 47.0944 83.0421 46.7924 79.6202C46.7556 79.1986 46.3838 78.8866 45.9614 78.9242C45.5398 78.9618 45.2279 79.3335 45.2654 79.7551C45.5644 83.1333 45.72 86.5644 45.7284 89.9549C45.7315 91.1652 45.6625 91.4504 45.0899 92.4025C42.2383 97.1374 41.1682 96.4529 40.998 100.089C40.8677 102.857 40.8271 105.665 40.8792 108.436C40.8869 108.854 41.2288 109.19 41.6458 109.188C42.2421 109.184 42.4169 108.649 42.4123 108.406C42.3939 107.414 42.387 106.416 42.3924 105.416C42.7527 104.868 43.5591 103.501 45.9323 100.097C45.943 100.881 45.9553 101.665 45.9829 102.446C46.0005 102.956 46.7663 102.926 46.7487 102.419C46.7004 101.026 46.6789 99.6272 46.682 98.2267L46.6812 98.2275Z" fill="black"/>
<path d="M19.2227 115.344C19.6703 114.629 19.0356 113.319 18.1595 112.942C17.3738 112.603 17.1423 113.349 17.4573 113.685C17.557 113.791 17.6888 113.825 17.8375 113.882C17.8942 113.903 17.7294 113.832 17.8061 113.87C18.128 114.028 18.2568 114.098 18.4669 114.347C18.4807 114.363 18.4998 114.38 18.5098 114.399C18.4653 114.313 18.4968 114.384 18.5129 114.407C18.6432 114.592 18.752 114.803 18.8072 115.023C18.8333 115.125 18.8823 115.212 18.9191 115.306C18.9705 115.436 19.1422 115.475 19.2227 115.346V115.344Z" fill="black"/>
<path d="M20.4945 115.077C20.2147 112.348 21.6412 111.184 20.9283 110.883C20.5619 110.729 20.3603 111.171 20.2561 111.434C19.7854 112.623 19.7057 113.884 19.9479 115.15C20.0062 115.455 20.5274 115.39 20.4952 115.076L20.4945 115.077Z" fill="black"/>
<path d="M21.4834 115.156C21.5585 114.767 21.6834 114.519 21.8912 114.228C21.8597 114.266 21.941 114.158 21.8912 114.228C22.3649 113.649 22.3971 113.825 22.4906 113.443C22.532 113.274 22.427 113.108 22.128 113.111C21.9494 113.112 21.7961 113.249 21.6259 113.423C21.2917 113.765 20.9813 114.382 20.9284 115.081C20.9176 115.221 21.0441 115.341 21.1737 115.359C21.3032 115.377 21.4573 115.295 21.4841 115.157L21.4834 115.156Z" fill="black"/>
<path d="M51.7235 110.188C51.8608 109.468 51.6814 108.764 51.3203 108.247C51.1548 108.01 50.8734 107.65 50.5469 107.746C50.3874 107.792 50.284 107.935 50.2778 108.099C50.2679 108.386 50.5699 108.513 50.8159 108.808C51.0881 109.135 51.2636 109.586 51.2291 110.121C51.2115 110.401 51.6699 110.468 51.7235 110.188Z" fill="black"/>
<path d="M52.7117 110.292C52.6963 109.524 52.8619 108.749 53.3157 107.881C53.4506 107.623 53.6177 107.385 53.7649 107.135C53.9619 106.802 53.4936 106.424 53.2214 106.716C52.3729 107.628 52.1368 109.112 52.3223 110.344C52.356 110.567 52.7147 110.511 52.7101 110.291L52.7117 110.292Z" fill="black"/>
<path d="M53.9796 110.367C54.1091 109.976 54.3268 109.721 54.6549 109.447C54.6871 109.42 54.5951 109.491 54.6442 109.456C54.7592 109.371 54.7576 109.391 54.924 109.256C54.9623 109.225 54.9385 109.25 54.914 109.264C55.39 109.001 55.0918 108.54 54.7799 108.633C54.1076 108.836 53.5986 109.522 53.4514 110.221C53.3732 110.593 53.87 110.698 53.9796 110.367Z" fill="black"/>
<path d="M86.913 117.018C87.2143 115.835 86.7613 114.585 85.7808 113.863C85.6091 113.737 85.3401 113.835 85.2404 114.005C85.1392 114.178 85.1691 114.389 85.416 114.571C85.1684 114.378 86.6149 115.331 86.4723 116.959C86.45 117.213 86.8517 117.26 86.913 117.018Z" fill="black"/>
<path d="M88.2889 116.792C88.6554 113.839 89.2793 113.643 89.2226 113.035C89.2034 112.831 89.0041 112.691 88.8102 112.799C88.4691 112.989 88.3526 113.383 88.2207 113.729C87.7355 115.004 87.7002 115.941 87.8566 116.85C87.9026 117.117 88.2614 117.015 88.2889 116.792Z" fill="black"/>
<path d="M89.185 116.933C89.4556 116.358 89.7062 116.09 90.1585 115.654C90.3049 115.512 90.4774 115.419 90.5617 115.148C90.6154 114.975 90.4705 114.813 90.3019 114.807C90.0405 114.798 89.8435 114.971 89.6595 115.135C89.323 115.434 88.9205 116.009 88.6837 116.722C88.6407 116.851 88.7228 116.995 88.8423 117.045C88.9581 117.094 89.1267 117.057 89.185 116.933Z" fill="black"/>
<path d="M110.979 106.403C111.231 105.742 111.143 104.932 110.652 104.19C110.506 103.967 110.254 103.617 109.972 103.579C109.619 103.53 109.45 103.804 109.518 104.032C109.639 104.445 110.024 104.372 110.459 105.559C110.533 105.762 110.595 106.002 110.634 106.357C110.656 106.554 110.906 106.593 110.979 106.403Z" fill="black"/>
<path d="M112.178 106.161C112.036 105.05 112.511 103.94 113.36 103.22C113.488 103.11 113.62 103.011 113.676 102.845C113.721 102.71 113.734 102.568 113.604 102.477C113.312 102.275 112.959 102.562 112.752 102.755C111.902 103.543 111.432 104.918 111.79 106.214C111.846 106.421 112.207 106.389 112.178 106.161Z" fill="black"/>
<path d="M114.001 104.838C114.053 104.795 113.953 104.873 113.99 104.847C114.536 104.452 114.667 104.376 114.694 104.198C114.769 103.673 114.004 103.601 113.305 104.532C113.035 104.891 112.566 105.827 113.004 105.927C113.417 106.021 113.188 105.505 114.002 104.837L114.001 104.838Z" fill="black"/>
<path d="M126.441 115.522C126.644 115.241 126.61 115.015 126.531 114.634C126.361 113.821 125.795 113.016 124.997 112.56C124.659 112.367 124.295 112.605 124.32 112.89C124.349 113.218 124.54 113.275 124.698 113.382C125.213 113.73 125.584 114.225 125.873 114.766C126.094 115.18 126.065 115.375 126.291 115.454L126.198 115.4C126.288 115.494 126.362 115.63 126.442 115.522H126.441Z" fill="black"/>
<path d="M127.512 115.382C127.889 113.696 128.044 112.263 128.435 111.566C128.594 111.283 128.979 110.973 128.988 110.639C128.997 110.322 128.37 110.137 127.817 111.052C127.177 112.112 127.131 113.963 127.036 115.317C127.017 115.589 127.453 115.647 127.513 115.381L127.512 115.382Z" fill="black"/>
<path d="M128.425 115.243C128.796 114.405 129.479 113.559 129.388 113.677C129.63 113.365 129.757 113.325 129.829 112.971C129.867 112.787 129.722 112.653 129.542 112.684C129.216 112.739 129.085 112.927 128.931 113.117C128.392 113.784 128.178 114.373 128.073 115.095C128.034 115.361 128.354 115.405 128.425 115.243Z" fill="black"/>
<path d="M148.388 135.815H3.83274C3.62117 135.815 3.44946 135.643 3.44946 135.432C3.44946 135.22 3.62117 135.049 3.83274 135.049H148.388C148.6 135.049 148.771 135.22 148.771 135.432C148.771 135.643 148.6 135.815 148.388 135.815Z" fill="black"/>
<path d="M20.3136 127.342H15.7143C15.5028 127.342 15.3311 127.171 15.3311 126.959C15.3311 126.748 15.5028 126.576 15.7143 126.576H20.3136C20.5252 126.576 20.6969 126.748 20.6969 126.959C20.6969 127.171 20.5252 127.342 20.3136 127.342Z" fill="black"/>
<path d="M126.248 127.342H117.42C117.209 127.342 117.037 127.171 117.037 126.959C117.037 126.748 117.209 126.576 117.42 126.576H126.248C126.459 126.576 126.631 126.748 126.631 126.959C126.631 127.171 126.459 127.342 126.248 127.342ZM108.592 127.342H99.7643C99.5527 127.342 99.381 127.171 99.381 126.959C99.381 126.748 99.5527 126.576 99.7643 126.576H108.592C108.803 126.576 108.975 126.748 108.975 126.959C108.975 127.171 108.803 127.342 108.592 127.342ZM90.9359 127.342H82.1075C81.896 127.342 81.7243 127.171 81.7243 126.959C81.7243 126.748 81.896 126.576 82.1075 126.576H90.9359C91.1475 126.576 91.3192 126.748 91.3192 126.959C91.3192 127.171 91.1475 127.342 90.9359 127.342ZM73.2799 127.342H64.4515C64.24 127.342 64.0682 127.171 64.0682 126.959C64.0682 126.748 64.24 126.576 64.4515 126.576H73.2799C73.4914 126.576 73.6632 126.748 73.6632 126.959C73.6632 127.171 73.4914 127.342 73.2799 127.342ZM55.6239 127.342H46.7956C46.584 127.342 46.4123 127.171 46.4123 126.959C46.4123 126.748 46.584 126.576 46.7956 126.576H55.6239C55.8355 126.576 56.0072 126.748 56.0072 126.959C56.0072 127.171 55.8355 127.342 55.6239 127.342ZM37.968 127.342H29.1396C28.9281 127.342 28.7563 127.171 28.7563 126.959C28.7563 126.748 28.9281 126.576 29.1396 126.576H37.968C38.1795 126.576 38.3513 126.748 38.3513 126.959C38.3513 127.171 38.1795 127.342 37.968 127.342Z" fill="black"/>
<path d="M139.675 127.342H135.076C134.865 127.342 134.693 127.171 134.693 126.959C134.693 126.748 134.865 126.576 135.076 126.576H139.675C139.887 126.576 140.059 126.748 140.059 126.959C140.059 127.171 139.887 127.342 139.675 127.342Z" fill="black"/>
<path d="M138.418 121.81H16.6533C16.4417 121.81 16.27 121.638 16.27 121.426C16.27 121.215 16.4417 121.043 16.6533 121.043H138.418C138.63 121.043 138.801 121.215 138.801 121.426C138.801 121.638 138.63 121.81 138.418 121.81Z" fill="black"/>
</svg>
