<svg width="154" height="154" viewBox="0 0 154 154" fill="none" xmlns="http://www.w3.org/2000/svg">
<path d="M99.4265 17.3086C99.0585 16.9789 97.9624 17.0479 97.7708 17.5922C98.029 17.4835 98.3037 17.4187 98.5833 17.4005C98.862 17.351 99.1437 17.3202 99.4265 17.3086ZM102.025 17.7225C102.454 17.8537 102.864 18.0419 103.244 18.282C103.213 18.1571 103.154 18.0407 103.072 17.9415C102.989 17.8424 102.886 17.763 102.769 17.7093C102.652 17.6555 102.524 17.6288 102.395 17.6311C102.267 17.6334 102.14 17.6646 102.025 17.7225ZM101.182 19.2479V21.4478C101.229 21.7557 101.167 22.0705 101.006 22.337C100.814 22.5516 100.239 22.7356 99.9707 22.5286C100.199 22.7335 100.492 22.8527 100.799 22.8659C102.385 22.8812 101.113 20.0451 101.182 19.2479ZM98.522 18.8876C98.2154 18.8876 98.1694 19.7691 98.4836 19.7691C98.7979 19.7691 98.8822 18.8876 98.522 18.8876ZM102.523 19.0639C102.186 19.0639 102.247 19.9301 102.523 19.9301C102.799 19.9301 102.807 19.0639 102.523 19.0639ZM97.9547 22.2833C97.7018 23.4485 99.0969 24.7056 100.208 24.0847C99.6967 24.0407 99.2097 23.8461 98.8086 23.5255C98.4075 23.2049 98.1104 22.7727 97.9547 22.2833ZM40.4726 41.3393C40.5085 41.4248 40.5521 41.5069 40.6029 41.5846C40.5727 41.4964 40.5287 41.4137 40.4726 41.3393ZM71.862 111.316C71.2411 110.848 70.4363 111.109 69.7387 111.201C43.738 114.436 22.5205 115.409 21.4473 115.992C20.0829 116.712 20.5275 119.119 22.2138 118.981C37.8357 117.686 53.4653 116.421 69.0489 114.497C69.905 114.472 70.7546 114.34 71.5784 114.106C71.8437 113.996 72.0741 113.815 72.2454 113.585C72.4167 113.354 72.5225 113.081 72.5516 112.795C72.5806 112.51 72.5319 112.221 72.4105 111.961C72.2891 111.7 72.0996 111.477 71.862 111.316ZM137.799 126.087C137.347 124.24 135.499 124.554 134.081 124.646L128.999 124.998C127.642 125.098 125.849 124.998 125.397 126.623C125.259 127.122 125.32 127.152 125.596 131.169C125.688 132.464 125.435 134.871 126.531 135.822C127.489 136.657 129.229 136.228 130.364 136.151C137.952 135.615 136.143 135.761 136.427 135.722C136.964 135.673 137.462 135.419 137.816 135.012C138.171 134.605 138.354 134.077 138.328 133.538C138.328 132.303 138.152 131.062 138.067 129.828C138.078 128.576 137.988 127.325 137.799 126.087ZM8.76123 62.3116C17.6292 62.1805 26.4714 61.3217 35.1989 59.7437C22.1602 61.1924 16.9018 61.637 8.76123 62.3116ZM17.9749 54.9835C24.1645 54.8422 30.3313 54.1807 36.41 53.0059C30.2624 53.5731 24.0995 54.24 17.9749 54.9835ZM105.221 52.615C114.144 51.8484 123.051 50.7446 131.927 49.5488C141.601 48.2687 140.099 48.422 130.118 49.4798C121.809 50.3767 113.492 51.3578 105.221 52.615ZM120.813 44.5357C127.911 43.9915 135.055 43.11 142.076 41.9065C137.584 42.2438 128.256 43.2633 120.813 44.5357ZM19.5846 20.6966C28.0417 20.37 36.467 19.4737 44.8035 18.0138C42.2203 18.2284 19.6613 20.6506 19.5846 20.6966Z" fill="black"/>
<path d="M141.954 100.661C141.072 90.8494 140.589 87.4843 138.336 69.6472C138.249 68.3415 137.992 67.0529 137.569 65.8145C137.175 64.7926 136.477 63.9158 135.57 63.302C134.663 62.6881 133.59 62.3665 132.495 62.3805C130.839 62.3115 110.472 63.8675 106.893 64.1282C106.525 64.0055 106.21 63.3616 105.95 62.9937C102.884 58.9847 96.1075 54.1939 91.7383 52.2623C92.2748 51.4957 92.1139 50.4456 92.2978 49.5564C92.7424 47.4484 94.996 46.061 96.805 42.0214C97.9472 39.4765 97.5716 39.7908 98.0775 39.6758C101.609 39.8639 105.149 39.8409 108.679 39.6068C122.859 38.4034 133.376 29.8949 135.676 24.0386C136.259 24.1316 136.851 24.1522 137.439 24.0999C137.913 24.0675 138.358 23.8598 138.688 23.5174C139.324 22.8428 139.654 21.6777 138.612 21.2178C139.041 21.1334 139.984 20.9342 139.784 20.2826C139.501 19.3858 137.109 19.7154 136.143 20.0066C134.61 20.4512 134.449 20.8498 134.005 20.8958C133.56 20.9418 134.212 20.7425 132.472 21.0108C130.287 21.3481 127.796 21.6624 125.504 22.038C115.478 23.686 115.048 25.8706 112.81 25.725C109.113 25.3035 105.381 25.2881 101.68 25.679C103.834 23.2874 104.049 17.4158 104.072 17.3391C104.171 16.9712 104.164 17.1015 104.585 17.0632C106.655 16.8485 108.51 15.4611 108.211 13.4298C108.094 12.6906 107.769 12 107.273 11.4393C106.778 10.8785 106.132 10.4708 105.413 10.264C106.701 9.66615 106.226 7.96445 105.321 7.28224C104.915 6.94097 104.428 6.71073 103.907 6.61399C103.386 6.51726 102.848 6.55735 102.347 6.73034C102.562 5.89482 101.833 5.35058 101.136 5.12829C100.714 4.99388 100.268 4.95237 99.829 5.00662C99.3897 5.06087 98.9674 5.20959 98.591 5.44257C99.1276 3.38827 94.0685 3.08165 94.1758 5.6342C91.516 4.36942 89.661 8.35538 90.2742 8.27107C89.1167 8.41671 87.8596 10.1031 88.8484 11.1149C88.466 11.2714 88.1186 11.5024 87.8264 11.7946C87.5343 12.0868 87.3032 12.4342 87.1467 12.8166C87.0771 12.9968 87.0453 13.1894 87.0532 13.3824C87.0611 13.5754 87.1085 13.7648 87.1926 13.9387C87.2767 14.1126 87.3956 14.2674 87.542 14.3935C87.6884 14.5196 87.8591 14.6142 88.0436 14.6716C87.2157 15.1928 87.1467 16.8562 88.2965 17.0555C88.1376 17.1988 88.0134 17.3763 87.9332 17.5747C87.8531 17.773 87.8191 17.987 87.8339 18.2005C87.8486 18.4139 87.9118 18.6212 88.0185 18.8066C88.1252 18.9921 88.2727 19.1508 88.4498 19.2708C88.6185 19.3934 88.9864 19.4777 88.9711 19.7537C88.9711 19.8457 88.6415 20.183 88.5955 20.3056C88.4959 20.5673 88.4959 20.8564 88.5955 21.1181C88.7948 21.601 89.1551 21.601 89.5613 21.785C89.661 21.8387 90.0826 22.0763 90.0749 22.4595C90.0215 22.9457 89.8054 23.3995 89.4617 23.7473C89.1704 23.9236 89.1397 23.7473 88.8714 23.5863C85.3786 21.1058 81.4452 19.3134 77.2815 18.305C70.8847 16.6831 64.1772 16.7434 57.8107 18.4801C51.4441 20.2168 45.6351 23.5708 40.9479 28.2162C40.8253 28.3388 40.3807 28.9827 40.1814 28.9827C39.9625 28.8769 39.7523 28.7539 39.5529 28.6148C39.2504 28.4761 38.9262 28.3905 38.5947 28.3618C38.7173 28.1319 39.2462 27.5953 39.1006 27.3807C39.1006 27.3347 32.9147 27.488 32.8917 27.5033C32.5468 27.649 32.4625 28.3158 32.3628 28.6608C31.3893 32.2175 32.3015 34.1951 32.3628 36.2264C32.421 38.0711 32.8159 39.8895 33.5279 41.5922C33.6966 41.9831 33.9802 42.9872 34.4094 43.1712C36.5418 43.2335 38.6743 43.0483 40.764 42.6193C41.0936 42.5043 41.0629 42.6193 41.0093 42.351C40.9187 42.0771 40.7869 41.8186 40.6183 41.5845C40.7257 41.8681 40.8406 42.2897 40.9096 42.42C39.2059 42.662 37.487 42.7824 35.7662 42.7803C35.4606 42.8148 35.152 42.8148 34.8464 42.7803C34.5934 42.8569 34.4478 42.7803 34.4018 42.512C33.3272 40.4152 32.6711 38.1293 32.4701 35.7819C32.9435 37.4536 33.7404 39.0162 34.8157 40.381C35.153 40.795 35.7815 41.7531 36.3488 41.9141C36.6953 41.9404 37.0437 41.9014 37.3759 41.7991C40.7103 41.3469 40.442 41.2932 40.5264 41.3699C40.8636 41.3162 41.2086 41.2932 41.5382 41.2242C42.0977 41.0939 41.9138 40.9866 41.5382 40.519C40.5029 39.202 39.6471 37.7534 38.9933 36.2111C39.6448 36.2111 40.3807 35 40.6337 34.793C40.8866 34.5861 40.8176 34.678 41.2086 34.8314C41.8506 35.0186 42.5176 35.1065 43.1862 35.092C45.6597 35.2327 48.1412 35.1171 50.5909 34.747C58.2562 33.6432 60.1879 30.4621 63.415 31.9952C61.5446 33.7812 59.4213 35.9275 58.5322 38.4187C58.1182 39.5685 58.5322 39.7985 58.5322 40.2967C58.5322 40.6187 58.5322 40.5573 58.2102 40.795C45.2252 50.5912 51.1735 61.108 53.1434 68.666C10.9843 72.1231 15.9131 71.1266 13.9354 72.0771C9.68116 74.1237 11.1452 79.5507 11.4595 83.2684C16.7026 145.894 15.6754 144.829 17.4538 147.381C18.9868 149.627 21.8613 149.612 24.3066 149.359C50.7902 146.668 135.132 141.931 140.198 140.927C143.088 140.367 144.422 138.129 144.537 135.331C144.698 131.33 142.314 104.724 141.954 100.661ZM137.86 23.7626C137.017 23.0804 137.201 22.7278 138.558 23.1724C138.388 23.4333 138.146 23.6386 137.86 23.7626ZM138.742 22.8811C138.609 22.8169 138.471 22.7655 138.328 22.7278C138.439 22.5868 138.532 22.4323 138.604 22.2679C138.644 22.1545 138.654 22.0326 138.632 21.9143C138.611 21.796 138.559 21.6854 138.481 21.5934C139.041 21.877 139.056 22.1836 138.819 22.7278L138.742 22.8811ZM137.117 20.1216C137.523 20.0833 139.148 19.907 139.363 20.3976C139.516 20.7502 138.596 20.8575 138.29 20.9342C137.722 21.0875 137.301 20.8422 136.718 20.9342C137.149 20.9887 137.556 21.1641 137.891 21.4401C138.435 21.946 138.474 22.2066 137.439 22.0686C137.286 22.0686 137.117 22.3829 137.01 22.4825C136.905 22.5995 136.777 22.6944 136.635 22.7615C136.493 22.8287 136.339 22.8667 136.182 22.8735C136.352 22.9278 136.533 22.9372 136.707 22.901C136.882 22.8647 137.044 22.7839 137.178 22.6665C136.596 23.0651 137.4 23.6247 137.738 23.7933C137.343 23.9362 136.916 23.968 136.504 23.8853C136.242 23.8795 135.983 23.8302 135.737 23.7397C135.66 23.6783 135.04 21.831 134.166 21.1258C135.069 20.6141 136.059 20.2737 137.086 20.1216H137.117ZM39.4455 28.7988C39.6346 28.9125 39.8164 29.0379 39.9898 29.1744C39.6316 29.5477 39.3549 29.9915 39.1773 30.4775C39.0163 30.8837 39.1159 30.9144 38.7403 30.9987C38.4797 31.06 38.1578 30.9987 37.8895 31.0677C37.9094 30.4059 38.0335 29.7514 38.2574 29.1284C38.5947 28.2392 38.4184 28.2009 39.4455 28.7988ZM39.2616 31.0217H38.9933C39.0776 30.8837 39.1619 30.7534 39.2539 30.6231C39.2391 30.7557 39.2417 30.8897 39.2616 31.0217ZM38.9856 36.4794C39.6198 38.0693 40.4767 39.561 41.5305 40.9099L37.4449 41.3929C37.147 41.4707 36.8406 41.5119 36.5327 41.5155C36.1341 41.4388 35.7662 40.8946 35.4826 40.5803C34.206 39.0829 33.2771 37.3212 32.7629 35.4219C32.2486 33.5226 32.1617 31.5329 32.5084 29.5959C32.5698 29.2663 32.6924 28.0629 32.9837 27.8253C33.0757 27.7639 32.7537 27.8866 38.9243 27.5493C38.2852 28.4536 37.8988 29.512 37.8052 30.6154C37.8052 31.0677 37.7515 30.9757 37.3376 31.083C37.1116 31.131 36.8961 31.2193 36.7014 31.3436C36.2874 31.6579 36.3104 32.0565 36.8547 32.2328C36.5332 32.2772 36.2262 32.3953 35.9578 32.5778C35.8658 32.6544 35.7509 32.8844 35.6512 32.9227C35.4627 32.9424 35.2726 32.9424 35.084 32.9227C34.7439 32.9514 34.4178 33.0712 34.1399 33.2695C33.8621 33.4678 33.6427 33.7372 33.5049 34.0495C32.7384 36.0731 36.5251 37.1999 37.4602 35.4139C37.5675 35.2146 37.5522 34.9157 37.6979 34.816C37.8098 34.8009 37.9232 34.8009 38.0351 34.816C38.725 34.7624 38.2957 35.1073 38.4107 35.5826C38.5257 36.0578 38.7403 35.8662 38.9856 36.4794ZM36.1341 34.5554C36.2185 34.8773 37.5369 35.115 37.5905 34.908C37.1689 36.7553 33.7579 36.2648 33.8499 34.4864C33.8959 33.5589 34.8464 33.1833 35.6282 33.0377C35.3753 33.0837 35.7202 33.5972 35.7739 33.6279C36.0771 33.7469 36.411 33.7631 36.7244 33.6739C36.4407 33.8195 36.0268 34.1951 36.1341 34.5554ZM38.4337 34.839C38.5151 34.8277 38.5976 34.8277 38.679 34.839C38.6092 34.9119 38.5545 34.9979 38.518 35.092C38.4874 34.9923 38.4567 34.9157 38.4337 34.839ZM40.1967 35.069C39.8518 35.4063 39.0776 36.3491 38.748 35.6822C38.472 35.138 39.024 35.1533 39.1236 34.7317C39.2233 34.3101 39.0163 34.5017 38.748 34.5094L37.7822 34.5554C37.4909 34.5554 36.5481 34.7777 36.5174 34.3408C36.4867 33.9039 37.6135 33.7046 37.8742 33.5742C38.3187 33.3596 38.2268 33.1986 37.8052 33.1527C37.0386 33.076 36.0038 33.6049 35.9962 33.1527C35.9885 32.7004 37.1766 32.6314 37.4142 32.5854C37.6519 32.5394 38.1808 32.4934 37.8588 32.1562C37.6595 31.9492 36.4407 32.2481 36.8393 31.6426C37.0233 31.3743 38.9626 30.968 39.2846 31.2133C39.3723 31.5345 39.4313 31.8629 39.4609 32.1945C39.6542 33.0578 40.078 33.8526 40.6873 34.4941C40.534 34.7087 40.3654 34.8927 40.1967 35.069ZM62.4261 31.3206C60.9279 31.2057 59.4291 31.5364 58.1182 32.2711C55.1518 33.7122 48.7742 34.9923 43.5541 34.5707C41.6685 34.4098 41.1702 34.3484 40.3117 32.7464C39.9431 32.1581 39.7466 31.4783 39.7445 30.7841C39.8926 30.1133 40.276 29.5178 40.8253 29.1054C53.8563 15.7677 74.5526 14.227 88.2122 23.3487C88.3228 23.4142 88.4279 23.4885 88.5265 23.571C88.5802 23.9236 88.6645 24.4679 88.6875 24.7285C88.8868 27.0741 90.3662 30.2552 92.5891 30.968C93.9689 31.4203 96.0385 30.5388 95.6552 28.7988C95.7549 30.7917 92.7271 31.6119 90.9411 29.251C89.7356 27.6008 88.9467 25.6837 88.6415 23.663C88.9558 23.8853 89.0554 24.1459 89.408 23.939C89.9062 23.6553 90.0059 22.5669 90.1362 22.4059C90.3815 22.0993 91.0637 22.6972 91.6693 22.1376C91.7981 21.9927 91.8948 21.8222 91.9529 21.6372C92.0111 21.4522 92.0293 21.257 92.0065 21.0645C91.9509 20.8426 91.9099 20.6172 91.8839 20.3899C91.8839 20.2213 92.0142 20.0986 92.0372 19.9453C92.0985 19.4701 91.7689 19.3551 91.4853 19.0178C91.2277 18.7055 91.0678 18.3243 91.0254 17.9217C90.9641 17.3621 91.102 16.2966 91.8839 16.3886C92.6658 16.4806 92.6504 17.5308 93.049 18.0367C93.1682 18.1615 93.3222 18.2475 93.491 18.2835C93.6598 18.3195 93.8355 18.3038 93.9952 18.2384C94.155 18.173 94.2913 18.061 94.3864 17.917C94.4815 17.773 94.531 17.6037 94.5284 17.4311C94.5284 16.4423 94.1528 15.3998 94.0915 14.365C95.7625 14.4876 96.0615 13.7518 96.5597 13.8667C96.897 13.9434 96.897 14.2807 98.3074 15.3078C99.9262 16.4176 101.827 17.045 103.788 17.1168C103.678 18.2803 103.491 19.4352 103.229 20.5739C102.868 22.2296 102.332 24.2072 101.059 25.4184C99.9785 26.4608 98.2538 26.4762 96.8893 26.0622C96.5618 25.9499 96.2418 25.8168 95.9312 25.6636C95.5403 25.495 95.5249 25.4567 95.3793 25.8936C95.1557 26.3591 95.0499 26.8724 95.0713 27.3883C95.0927 27.9043 95.2406 28.4071 95.5019 28.8524C94.6204 27.2427 96.2148 26.3995 97.6252 26.7138C98.2406 26.9229 98.8979 26.9777 99.5394 26.8734C100.181 26.7692 100.787 26.5091 101.305 26.1159C101.974 25.8946 102.678 25.7959 103.382 25.8246C105.738 25.6676 108.103 25.683 110.457 25.8706C111.883 26.0086 113.055 26.4532 114.435 25.8246C119.41 23.525 120.797 23.2721 132.295 21.4631C132.709 21.3941 133.491 21.1028 133.89 21.3404C134.097 21.4554 135.239 23.1954 135.185 23.847C135.049 24.4521 134.767 25.015 134.365 25.4873C130.494 31.1597 124.607 34.6857 118.13 37.1769C111.653 39.6682 104.639 40.0208 97.8782 39.4765C98.2916 38.5633 98.5928 37.6032 98.775 36.6174C98.3151 38.2347 95.9542 43.6005 94.8197 44.7273C94.5131 45.0339 94.6664 44.9112 94.2448 44.8192C92.7118 44.459 92.6428 46.8582 90.3432 44.206C88.1816 41.7148 86.2806 43.7768 85.0464 43.0946C84.1803 42.6193 84.1113 41.2472 83.59 40.4807C83.2262 39.978 82.748 39.5691 82.1948 39.2878C81.6417 39.0066 81.0295 38.8611 80.4089 38.8633C79.2361 38.7943 77.7951 39.0856 76.9136 38.0968C76.032 37.1079 75.8404 35.6285 74.7443 34.747C73.3875 33.6509 71.9541 34.5171 71.6168 32.4474C71.5862 32.4781 70.0071 32.0259 62.3878 31.3206H62.4261ZM95.3869 26.8518C95.4866 26.5452 95.5939 26.2385 95.7012 25.9319C96.9123 26.7368 97.0963 26.1389 95.3563 26.8288L95.3869 26.8518ZM59.7893 37.3379C60.9677 35.4052 62.3813 33.6261 63.9975 32.0412C64.1662 31.9109 69.4092 32.4091 69.4476 32.4321C69.6698 32.5394 69.6239 32.6391 69.6775 32.9227C69.7587 33.5005 69.9753 34.051 70.3096 34.5293C70.644 35.0075 71.0866 35.3999 71.6015 35.6745C73.1346 36.4411 73.1346 35.3143 74.499 38.0814C76.7373 42.535 80.0103 39.7142 81.712 41.4389C83.0305 42.7726 82.5399 45.6088 86.3802 45.1105C87.1467 45.0185 87.9593 44.7349 88.5802 45.2638C89.4387 46.0304 89.9906 48.0003 92.8191 47.2721C91.3933 49.3111 91.7613 49.817 91.286 51.4804C90.6345 53.9103 87.6373 56.0106 85.1998 56.8461C83.5642 57.3333 81.8326 57.4018 80.1637 57.0454C67.0866 54.8608 59.2374 40.9483 59.0074 39.5532C59.0149 38.7484 59.29 37.9691 59.7893 37.3379ZM78.6612 66.5427C74.706 66.8877 75.2502 66.949 75.0279 66.5964C74.8056 66.2438 74.7826 65.9065 74.3304 64.9943C77.0132 65.1553 77.4885 66.0061 78.6842 66.5427H78.6612ZM11.9041 82.2719C11.6511 78.8609 10.7006 73.9857 14.7556 72.5447C16.097 72.0541 52.9518 69.3866 53.0285 69.3942C53.4117 69.4402 53.3427 69.4479 53.4501 69.9308C56.0179 81.3061 50.7979 92.7581 42.0824 100.362C42.6803 100.998 43.2935 101.619 43.9221 102.232L43.3625 102.677C42.596 101.91 41.8295 101.144 41.0629 100.308C44.0946 97.7232 46.7086 94.6851 48.8125 91.3017C36.8189 92.3237 24.8099 93.2895 12.7856 94.1992L11.9041 82.2719ZM46.6049 104.808C45.7464 106.341 49.947 111.047 47.7394 111.07C46.8502 111.07 45.7618 109.714 45.2022 109.146C44.192 108.139 43.2521 107.063 42.389 105.927C42.0134 105.421 41.7298 105.023 42.1054 104.432C42.6536 103.819 43.2565 103.257 43.9067 102.754C44.2364 102.432 44.2364 102.562 44.5736 102.884C47.2795 105.49 46.5053 104.716 46.6049 104.808ZM137.01 140.482C98.4761 142.429 62.9397 144.813 24.8355 148.454C20.4892 148.868 17.4461 148.554 17.0475 144.185C16.4956 138.19 16.8559 141.578 14.0657 109.622C22.5895 108.779 32.0792 107.874 40.2657 107.123C40.9391 106.969 41.6298 106.904 42.32 106.931C42.757 107.031 43.2552 107.897 43.5925 108.257C44.479 109.289 45.4764 110.219 46.5666 111.032C47.5171 111.676 49.0348 111.852 48.7819 110.266C48.4829 108.388 46.2983 106.165 46.8349 105.046C49.3415 107.414 49.8474 106.471 52.6145 105.046C61.6058 100.429 68.7487 92.8778 72.8586 83.644C75.0126 78.7229 76.7679 72.8053 75.3115 67.4472C89.0477 66.3358 99.7408 65.1476 108.096 64.2201L128.026 62.7561C134.196 63.0167 136.734 64.8947 138.067 69.7085C140.022 84.3952 139.761 82.2796 139.899 83.8357C138.719 83.759 70.6663 89.4313 70.605 89.4697C66.1414 96.6039 59.7683 102.345 52.2083 106.042C64.9327 104.908 140.988 98.4611 141.064 98.4764C141.463 98.576 141.218 98.2311 141.402 98.76C141.402 98.8367 143.103 115.562 143.763 134.327C143.924 139.432 141.609 140.275 137.01 140.482Z" fill="black"/>
</svg>
