<svg width="154" height="154" viewBox="0 0 154 154" fill="none" xmlns="http://www.w3.org/2000/svg">
<path fill-rule="evenodd" clip-rule="evenodd" d="M69.5857 59.391C68.0526 58.9234 55.5045 60.5791 53.7798 61.5833C51.9478 69.0186 55.3129 99.0666 55.9261 101.742L73.4337 101.29C73.6023 97.135 72.6058 72.1614 70.7355 62.9631C70.1223 59.9199 69.6623 59.5597 69.5857 59.391ZM70.1529 59.1917C73.0887 63.7909 73.9396 97.2883 73.6713 101.42C73.6703 101.435 73.6664 101.45 73.6597 101.463C73.653 101.477 73.6437 101.489 73.6323 101.499C73.6209 101.509 73.6076 101.517 73.5933 101.521C73.5789 101.526 73.5638 101.528 73.5486 101.527L55.7728 102.186C55.5045 102.186 55.4585 101.964 55.1213 99.5955C54.1018 92.4438 51.4649 68.3594 53.2126 61.384C53.2583 61.2491 53.3508 61.1349 53.4732 61.0621C54.9066 60.1192 68.7348 58.1033 69.9613 58.9158C70.0125 58.9437 70.0564 58.9832 70.0897 59.0311C70.1229 59.079 70.1446 59.134 70.1529 59.1917ZM82.0188 73.0736C80.0182 78.5466 79.313 95.1573 79.5889 100.899L96.3836 101.144C96.9432 97.1427 98.1006 76.4233 96.077 72.6673C95.732 72.1001 82.6397 72.3531 82.0188 73.0736ZM96.6442 72.468C98.6909 76.569 97.5717 97.1503 96.8359 101.435C96.825 101.494 96.7936 101.547 96.7473 101.585C96.701 101.623 96.6427 101.643 96.5829 101.642L79.5046 101.136C79.336 101.136 79.3053 100.975 79.2593 99.3349C79.0983 93.2793 79.4356 78.5236 81.5052 72.8206C81.6202 72.5064 82.1721 72.3914 82.5247 72.3224C85.1923 71.7858 93.7084 71.5559 95.916 71.9775C96.2073 72.0541 96.5829 72.1614 96.6289 72.468H96.6442ZM144.874 65.9219C143.027 65.3776 132.441 65.6459 130.831 66.3511C128.662 72.3684 128.149 95.7552 128.34 102.163C133.859 102.693 139.411 102.78 144.943 102.424C145.411 99.0207 146.622 75.5955 145.426 67.9915C145.354 67.2766 145.168 66.5779 144.874 65.9219ZM145.457 65.7532C147.542 70.0228 146.07 98.5761 145.365 102.677C145.355 102.727 145.33 102.772 145.293 102.807C145.256 102.841 145.208 102.863 145.158 102.869C139.51 103.189 133.846 103.03 128.225 102.393C127.719 102.24 127.765 73.0736 130.31 66.1058C130.425 65.7839 130.977 65.6766 131.33 65.6076C133.967 65.071 142.498 64.8411 144.721 65.2626C145.058 65.3163 145.472 65.4389 145.488 65.7532H145.457ZM122.898 57.7966C121.365 57.1374 107.836 57.4057 105.889 58.2796C103.282 65.37 102.822 94.8431 103.175 102.194L122.691 102.386C123.312 98.0318 124.952 69.5399 123.58 60.3569C123.524 59.4668 123.292 58.5967 122.898 57.7966ZM123.496 57.6587C126.079 62.7868 123.856 98.2848 123.105 102.646C123.096 102.699 123.069 102.747 123.028 102.782C122.988 102.817 122.936 102.837 122.883 102.838L103.091 102.432C102.914 102.432 102.884 102.248 102.815 99.6645C102.623 91.9609 102.715 65.1707 105.367 58.0343C105.427 57.9031 105.534 57.7992 105.666 57.743C107.291 56.9228 122.124 56.3862 123.296 57.3597C123.352 57.3895 123.399 57.4323 123.433 57.4844C123.468 57.5365 123.49 57.5963 123.496 57.6587Z" fill="black"/>
<path fill-rule="evenodd" clip-rule="evenodd" d="M58.8774 64.9944C57.8267 64.8027 56.7444 64.8845 55.7346 65.2321C55.735 66.1589 55.8093 67.0842 55.9569 67.9992C56.9595 67.9714 57.9564 67.8378 58.931 67.6006C58.9862 67.2689 59.0119 66.9328 59.0077 66.5965C59.0197 66.1155 59.0018 65.6342 58.954 65.1554C58.9464 65.0328 58.954 65.0328 58.8774 64.9944ZM55.52 65.1554C55.52 65.1554 55.3973 66.6885 55.4356 67.5776C55.474 68.3442 55.474 68.5971 57.168 68.4132C57.885 68.3483 58.5923 68.2018 59.276 67.9762C59.4216 67.8843 59.4523 67.6773 59.4829 67.432C59.5366 66.9874 59.6209 64.9791 59.299 64.6648C58.6244 64.0363 55.5276 64.8028 55.52 65.1554ZM108.395 63.0245C108.319 63.9427 108.319 64.8657 108.395 65.784H108.786C109.64 65.7941 110.493 65.7403 111.339 65.623C111.508 64.8032 111.595 63.9688 111.599 63.1318C111.185 62.8558 108.847 62.7715 108.395 63.0245ZM108.158 62.9401C108.158 62.9401 107.882 64.4732 107.836 65.3394C107.79 66.2056 107.836 66.3895 109.499 66.3665C110.226 66.3756 110.952 66.2984 111.661 66.1366C111.814 66.0522 111.875 65.8606 111.929 65.5923C112.029 65.1401 112.305 63.1471 112.006 62.7945C111.392 62.0893 108.211 62.5415 108.158 62.9401ZM116.812 62.9938C116.735 63.912 116.735 64.8351 116.812 65.7533C116.942 65.7623 117.073 65.7623 117.203 65.7533C118.056 65.7635 118.91 65.7097 119.755 65.5923C119.928 64.7732 120.016 63.9383 120.016 63.1011C119.579 62.7868 117.279 62.7408 116.812 62.9938ZM116.582 62.9171C116.432 63.7108 116.322 64.5116 116.252 65.3164C116.252 66.0829 116.252 66.3589 117.916 66.3435C118.642 66.3453 119.367 66.2682 120.077 66.1136C120.238 66.0293 120.292 65.8376 120.345 65.5617C120.445 65.1094 120.721 63.1164 120.422 62.7638C119.809 62.0893 116.628 62.5185 116.582 62.9171ZM116.727 71.1497C116.655 72.0681 116.655 72.9908 116.727 73.9092H117.118C117.972 73.9206 118.825 73.8694 119.671 73.7559C119.843 72.9367 119.931 72.1018 119.932 71.2647C119.525 70.9427 117.21 70.8967 116.727 71.1497ZM116.497 71.0654C116.347 71.859 116.237 72.6598 116.168 73.4646C116.13 74.2311 116.168 74.5147 117.831 74.4918C118.558 74.4977 119.283 74.4206 119.993 74.2618C120.154 74.1775 120.207 73.9858 120.261 73.7176C120.361 73.2653 120.637 71.2723 120.338 70.9197C119.725 70.1992 116.513 70.6668 116.513 71.0654H116.497ZM116.283 79.9878C116.235 80.9082 116.261 81.8309 116.36 82.7473H116.75C117.604 82.726 118.454 82.6414 119.295 82.4943C119.438 81.6669 119.492 80.8266 119.456 79.9878C119.065 79.6658 116.758 79.7195 116.283 79.9878ZM116.045 79.9111C116.045 79.9111 115.831 81.4442 115.815 82.3257C115.8 83.2072 115.815 83.3682 117.517 83.2839C118.245 83.2615 118.967 83.1561 119.671 82.9696C119.824 82.8776 119.87 82.686 119.916 82.41C120.001 81.9578 120.192 79.9494 119.916 79.6122C119.242 78.953 116.084 79.5125 116.045 79.9111ZM108.081 88.7569C108.03 89.6773 108.055 90.6003 108.158 91.5164H108.549C109.402 91.4911 110.252 91.4065 111.093 91.2634C111.229 90.4352 111.283 89.5957 111.254 88.7569C110.84 88.4349 108.526 88.4809 108.081 88.7569ZM107.843 88.6802C107.725 89.4806 107.649 90.2865 107.613 91.0948C107.613 91.8613 107.613 92.1373 109.315 92.053C110.04 92.0312 110.76 91.9257 111.461 91.7387C111.615 91.6467 111.668 91.4551 111.714 91.1791C111.791 90.7269 111.99 88.7186 111.714 88.3813C111.017 87.6914 107.851 88.2816 107.82 88.6802H107.843ZM108.135 96.9434C108.087 97.8638 108.113 98.7866 108.211 99.7029C108.341 99.7107 108.472 99.7107 108.602 99.7029C109.456 99.6803 110.307 99.5932 111.147 99.4423C111.283 98.6166 111.336 97.7797 111.308 96.9434C110.917 96.6292 108.61 96.6751 108.135 96.9434ZM107.897 96.8744C107.897 96.8744 107.682 98.4075 107.667 99.2814C107.652 100.155 107.667 100.331 109.369 100.247C110.096 100.221 110.818 100.116 111.523 99.9329C111.676 99.8409 111.722 99.6416 111.768 99.3733C111.852 98.9211 112.044 96.9128 111.768 96.5755C111.093 95.878 107.935 96.4682 107.897 96.8744ZM116.168 88.4503C116.12 89.3707 116.146 90.2934 116.245 91.2098C116.375 91.2175 116.505 91.2175 116.635 91.2098C117.489 91.1872 118.34 91.1001 119.18 90.9492C119.323 90.1244 119.377 89.2866 119.341 88.4503C118.95 88.1513 116.643 88.1513 116.168 88.4503ZM115.93 88.3813C115.93 88.3813 115.716 89.9143 115.7 90.7882C115.685 91.662 115.7 91.8383 117.402 91.754C118.129 91.7279 118.852 91.6225 119.556 91.4397C119.709 91.3478 119.755 91.1561 119.801 90.8802C119.886 90.4279 120.077 88.4196 119.801 88.0823C119.127 87.3848 115.969 87.9827 115.93 88.3813ZM115.815 97.296C115.713 98.2122 115.688 99.1352 115.739 100.056H116.13C116.982 100.081 117.835 100.043 118.682 99.9406C118.868 99.1228 118.968 98.2879 118.981 97.4493C118.605 97.1274 116.298 97.0507 115.815 97.296ZM115.578 97.2117C115.578 97.2117 115.279 98.7448 115.217 99.6033C115.156 100.462 115.171 100.646 116.865 100.653C117.591 100.672 118.316 100.607 119.027 100.462C119.188 100.377 119.242 100.186 119.311 99.9176C119.41 99.4653 119.717 97.4723 119.426 97.1197C118.812 96.3915 115.639 96.8131 115.578 97.2117ZM108.311 70.9657C108.238 71.8841 108.238 72.8068 108.311 73.7252H108.702C109.555 73.7367 110.408 73.6854 111.254 73.5719C111.427 72.7527 111.514 71.9179 111.515 71.0807C111.147 70.7588 108.794 70.7128 108.311 70.9657ZM108.081 70.8814C108.081 70.8814 107.797 72.4145 107.751 73.2806C107.705 74.1468 107.751 74.3308 109.415 74.3078C110.142 74.3176 110.868 74.2404 111.576 74.0778C111.737 73.9935 111.791 73.8019 111.852 73.5336C111.944 73.0813 112.22 71.0884 111.929 70.7358C111.308 70.0152 108.127 70.5211 108.081 70.8814ZM107.782 79.8575C107.782 80.7792 107.857 81.6994 108.004 82.6093C108.134 82.6191 108.265 82.6191 108.395 82.6093C109.247 82.5448 110.093 82.4141 110.925 82.2184C111.006 81.3874 111.006 80.5505 110.925 79.7195C110.549 79.3975 108.242 79.5662 107.782 79.8575ZM107.544 79.7961C107.544 79.7961 107.406 81.3292 107.437 82.2184C107.468 83.1076 107.506 83.2609 109.192 83.0922C109.914 83.0292 110.626 82.8852 111.316 82.663C111.469 82.5633 111.507 82.3717 111.538 82.0957C111.599 81.6358 111.691 79.6275 111.362 79.3056C110.687 78.6463 107.56 79.3975 107.544 79.7961ZM83.506 76.7224C83.4331 77.6433 83.4331 78.5686 83.506 79.4895H83.8969C84.7513 79.4872 85.6043 79.4232 86.4495 79.2979C86.6056 78.4743 86.6801 77.6373 86.6718 76.799C86.3575 76.4924 84.0042 76.4541 83.506 76.7224ZM83.276 76.6457C83.276 76.6457 83.0154 78.1788 82.9771 79.0526C82.9388 79.9265 82.9771 80.0951 84.6558 80.0568C85.3839 80.0518 86.109 79.9643 86.8174 79.7961C86.9707 79.7118 87.0244 79.5125 87.078 79.2519C87.17 78.7997 87.423 76.7913 87.1164 76.4464C86.4878 75.7412 83.322 76.2548 83.276 76.6534V76.6457ZM90.926 76.4464C90.8532 77.3648 90.8532 78.2875 90.926 79.2059H91.3246C92.1766 79.2074 93.0274 79.1433 93.8695 79.0143C94.032 78.1915 94.1091 77.3541 94.0994 76.5154C93.7775 76.2164 91.4243 76.1781 90.926 76.4464ZM90.6884 76.3621C90.6884 76.3621 90.4354 77.8951 90.3971 78.769C90.3971 79.5355 90.3971 79.8191 92.0758 79.7731C92.8016 79.7724 93.5247 79.6849 94.2298 79.5125C94.3907 79.4282 94.4444 79.2289 94.498 78.9683C94.59 78.516 94.8353 76.5077 94.498 76.1628C93.9078 75.4576 90.7344 75.9712 90.6884 76.3621ZM90.949 84.5946C90.8799 85.5132 90.8799 86.4356 90.949 87.3541H91.3476C92.1996 87.356 93.0504 87.2919 93.8925 87.1625C94.0547 86.3422 94.1317 85.5074 94.1224 84.6713C93.8005 84.3647 91.4473 84.3187 90.949 84.5946ZM90.7114 84.518C90.7114 84.518 90.4584 86.051 90.4201 86.9172C90.3818 87.7834 90.4201 87.9674 92.0988 87.9214C92.8241 87.9194 93.5467 87.8345 94.2528 87.6684C94.4137 87.5764 94.4674 87.3848 94.521 87.1165C94.613 86.6719 94.8583 84.6636 94.521 84.3187C93.9308 83.6058 90.765 84.1194 90.7114 84.518ZM83.0997 84.9089C83.0269 85.8273 83.0269 86.75 83.0997 87.6684H83.4907C84.3452 87.6702 85.1985 87.6061 86.0432 87.4768C86.199 86.6557 86.2735 85.8213 86.2655 84.9856C85.9512 84.6789 83.598 84.6406 83.0997 84.9089ZM82.8698 84.8322C82.8698 84.8322 82.6092 86.3653 82.5708 87.2315C82.5325 88.0977 82.5708 88.2816 84.2495 88.2356C84.9773 88.2332 85.7025 88.1484 86.4111 87.9827C86.5645 87.8907 86.6181 87.6991 86.6718 87.4308C86.7637 86.9785 87.0167 84.9779 86.7101 84.633C86.0815 83.9201 82.9158 84.4337 82.8698 84.8322ZM83.2454 93.4404C83.1725 94.3588 83.1725 95.2815 83.2454 96.1999H83.6363C84.4908 96.2016 85.3442 96.1376 86.1889 96.0083C86.345 95.1846 86.4194 94.3476 86.4111 93.5094C86.0969 93.2104 83.7436 93.1721 83.2454 93.4404ZM83.0154 93.3561C83.0154 93.3561 82.7548 94.8891 82.7165 95.763C82.7165 96.5295 82.7165 96.8131 84.3952 96.7671C85.121 96.7664 85.8441 96.6789 86.5491 96.5065C86.7101 96.4222 86.7638 96.2229 86.8174 95.9623C86.9094 95.51 87.1623 93.5017 86.8174 93.1568C86.2272 92.4516 83.0614 92.9651 83.0154 93.3561ZM90.5274 93.0188C90.4546 93.9397 90.4546 94.865 90.5274 95.786C90.6576 95.7937 90.7882 95.7937 90.9183 95.786C91.7725 95.7849 92.6255 95.7235 93.4709 95.602C93.6267 94.7783 93.7011 93.9413 93.6932 93.1031C93.3789 92.7888 91.0257 92.7505 90.5274 93.0188ZM90.2975 92.9421C90.2975 92.9421 90.0368 94.4752 89.9985 95.349C89.9602 96.2229 89.9985 96.3915 91.6772 96.3532C92.4028 96.3487 93.1255 96.2613 93.8312 96.0926C93.9921 96.0083 94.0458 95.809 94.0994 95.5407C94.1914 95.0961 94.4444 93.0878 94.0994 92.7428C93.5169 92.0376 90.3434 92.5512 90.2975 92.9421ZM132.94 70.2452C132.867 71.1661 132.867 72.0914 132.94 73.0123C133.924 73.0342 134.909 72.9727 135.883 72.8284C136.044 72.0053 136.121 71.1681 136.113 70.3295C135.814 70.0229 133.438 69.9769 132.94 70.2452ZM132.702 70.1685C132.564 70.9653 132.467 71.7687 132.411 72.5754C132.411 73.342 132.411 73.6179 134.089 73.5796C134.815 73.5751 135.538 73.4876 136.243 73.319C136.404 73.2346 136.45 73.0353 136.504 72.7671C136.596 72.3148 136.849 70.3142 136.55 69.9692C135.921 69.2563 132.748 69.7546 132.702 70.1685ZM132.541 78.4317C132.464 79.35 132.464 80.273 132.541 81.1912C133.526 81.217 134.511 81.1555 135.484 81.0073C135.639 80.186 135.713 79.3517 135.707 78.516C135.423 78.1864 133.039 78.1864 132.541 78.4317ZM132.311 78.3551C132.311 78.3551 132.05 79.8881 132.012 80.7543C131.974 81.6205 132.012 81.8045 133.691 81.7585C134.416 81.7569 135.139 81.6721 135.845 81.5055C136.006 81.4135 136.059 81.2219 136.113 80.9536C136.205 80.5014 136.458 78.5007 136.151 78.1558C135.53 77.4199 132.349 77.9565 132.311 78.3551ZM132.188 86.4343C132.116 87.3553 132.116 88.2805 132.188 89.2015C133.175 89.2236 134.163 89.162 135.14 89.0175C135.294 88.1936 135.368 87.3568 135.362 86.5186C135.071 86.212 132.687 86.166 132.188 86.4343ZM131.951 86.3576C131.951 86.3576 131.698 87.8907 131.659 88.7646C131.621 89.6384 131.659 89.807 133.338 89.7687C134.064 89.7647 134.786 89.6772 135.492 89.5081C135.653 89.4238 135.707 89.2245 135.76 88.9638C135.852 88.5116 136.105 86.5033 135.76 86.1583C135.178 85.4531 131.997 85.9667 131.951 86.3576ZM132.135 93.908C132.058 94.8288 132.058 95.7543 132.135 96.6751C133.119 96.697 134.104 96.6355 135.078 96.4912C135.236 95.6679 135.311 94.8306 135.3 93.9923C135.017 93.6857 132.61 93.6397 132.135 93.908ZM131.905 93.8313C131.905 93.8313 131.644 95.3644 131.606 96.2382C131.567 97.1121 131.606 97.2807 133.285 97.2424C134.01 97.2383 134.733 97.1509 135.438 96.9818C135.599 96.8974 135.653 96.6981 135.707 96.4375C135.799 95.9776 136.052 93.977 135.745 93.632C135.124 92.9268 131.943 93.4404 131.905 93.8313ZM139.271 93.816C139.194 94.7342 139.194 95.6573 139.271 96.5755C140.256 96.5974 141.24 96.5358 142.215 96.3915C142.369 95.5703 142.443 94.7359 142.437 93.9003C142.153 93.5937 139.769 93.517 139.271 93.816ZM139.041 93.7393C139.041 93.7393 138.781 95.2724 138.742 96.1386C138.704 97.0048 138.742 97.1887 140.421 97.1427C141.146 97.1412 141.869 97.0563 142.575 96.8898C142.736 96.7978 142.789 96.6062 142.843 96.3379C142.935 95.8856 143.188 93.885 142.881 93.54C142.261 92.8272 139.079 93.3407 139.041 93.7393ZM139.447 86.005C139.375 86.9234 139.375 87.8462 139.447 88.7646C140.432 88.7864 141.417 88.7249 142.391 88.5806C142.552 87.7601 142.629 86.9254 142.621 86.0894C142.322 85.7827 139.946 85.7368 139.447 86.005ZM139.21 85.9284C139.072 86.7227 138.975 87.5235 138.918 88.3276C138.918 89.0942 138.918 89.3778 140.597 89.3318C141.322 89.3298 142.045 89.2449 142.751 89.0788C142.912 88.9868 142.958 88.7952 143.012 88.5269C143.104 88.0747 143.357 86.074 143.058 85.7291C142.429 85.0162 139.256 85.5298 139.21 85.9284ZM140.275 78.1174C140.202 79.0358 140.202 79.9586 140.275 80.877C141.26 80.8988 142.245 80.8373 143.219 80.693C143.38 79.87 143.457 79.0327 143.449 78.1941C143.18 77.8875 140.804 77.8415 140.275 78.1174ZM140.038 78.0331C139.9 78.83 139.803 79.6333 139.746 80.44C139.746 81.2066 139.746 81.4902 141.425 81.4442C142.15 81.4422 142.873 81.3573 143.579 81.1912C143.74 81.0992 143.786 80.8999 143.84 80.6393C143.932 80.1871 144.185 78.1864 143.886 77.8415C143.288 77.1286 140.114 77.6422 140.068 78.0331H140.038ZM140.352 69.9692C140.279 70.8876 140.279 71.8103 140.352 72.7287C141.337 72.7506 142.321 72.6891 143.295 72.5448C143.454 71.7214 143.528 70.8842 143.518 70.0459C143.234 69.7546 140.85 69.6933 140.352 69.9692ZM140.122 69.8849C140.122 69.8849 139.861 71.418 139.823 72.2918C139.785 73.1657 139.823 73.3343 141.502 73.296C142.23 73.2914 142.955 73.204 143.663 73.0353C143.817 72.951 143.87 72.7517 143.924 72.4911C144.016 72.0389 144.269 70.0305 143.962 69.6856C143.341 68.9881 140.16 69.494 140.122 69.8849ZM56.4398 73.1043C56.4144 74.0342 56.4631 74.9647 56.5854 75.8868C57.5878 75.8824 58.587 75.7745 59.5672 75.5649C59.6333 75.2343 59.6667 74.8979 59.6669 74.5607C59.6989 74.0502 59.6989 73.5382 59.6669 73.0277C59.6439 72.7211 56.9994 72.7364 56.4398 73.1043ZM56.2252 73.043C56.2252 73.043 56.0642 74.5761 56.0872 75.4576C56.1102 76.3391 56.0872 76.4771 57.7889 76.3391C58.509 76.2927 59.2214 76.1641 59.9122 75.9558C60.0578 75.8638 60.0961 75.6415 60.1268 75.4193C60.1958 74.9747 60.3261 72.9664 60.0195 72.6444C59.3603 71.9775 56.2405 72.6674 56.2252 73.043ZM59.7052 81.5285C58.699 81.464 57.6919 81.6427 56.7694 82.0497C56.8408 82.9722 56.9869 83.8874 57.2063 84.7863C58.2015 84.6786 59.1828 84.4679 60.1345 84.1577C60.1663 83.8237 60.1663 83.4875 60.1345 83.1535C60.1128 82.6828 60.059 82.2142 59.9735 81.7508C59.9505 81.5668 59.9505 81.5515 59.7052 81.5285ZM56.5471 82.0114C56.5471 82.0114 56.5471 83.5445 56.6621 84.426C56.7541 85.1925 56.7924 85.4378 58.4481 85.1235C59.1578 85.0008 59.8519 84.8003 60.5177 84.5256C60.6557 84.4183 60.671 84.2114 60.6787 83.9661C60.6787 83.5215 60.6251 81.5055 60.2801 81.2219C59.5596 80.624 56.5394 81.6358 56.5471 82.0191V82.0114ZM60.8473 90.4509C59.8359 90.353 58.8157 90.5002 57.8732 90.8802C57.9106 91.8055 58.026 92.7261 58.2181 93.632C59.2177 93.5548 60.2066 93.375 61.1693 93.0954C61.1971 92.7613 61.1971 92.4254 61.1693 92.0913C61.1601 91.6065 61.1217 91.1227 61.0543 90.6426C61.0773 90.5889 61.108 90.5199 60.8473 90.4509ZM57.6509 90.8419C57.6509 90.8419 57.6049 92.3749 57.6892 93.2564C57.7582 94.023 57.7736 94.2759 59.4523 94.023C60.1669 93.9229 60.8686 93.7456 61.5449 93.494C61.6752 93.3944 61.6982 93.1798 61.7212 92.9345C61.7212 92.4899 61.7212 90.4739 61.4069 90.1826C60.7017 89.5694 57.6509 90.4892 57.6509 90.8648V90.8419ZM64.1204 64.3889C64.1272 65.3107 64.2041 66.2306 64.3504 67.1407C65.3346 67.0836 66.3119 66.94 67.2709 66.7115C67.3553 65.8781 67.3553 65.0383 67.2709 64.2049C66.9413 63.9366 64.5957 64.0976 64.1204 64.3889ZM63.8828 64.3276C63.8828 64.3276 63.7525 65.8606 63.7908 66.7498C63.8292 67.639 63.8521 67.7923 65.5462 67.616C66.2681 67.5504 66.9803 67.4038 67.6695 67.179C67.8228 67.0794 67.8534 66.8724 67.8918 66.6042C67.9454 66.1519 68.0297 64.1359 67.6925 63.814C67.0103 63.1701 63.8981 63.952 63.8828 64.3429V64.3276ZM67.6848 72.2688C66.7353 72.1254 65.7657 72.1988 64.8486 72.4834C64.8292 73.4061 64.883 74.3288 65.0096 75.243H65.4005C66.2541 75.1998 67.1026 75.087 67.9378 74.9057C68.0452 74.1441 68.0734 73.3735 68.0221 72.6061C68.0067 72.3761 68.1064 72.3455 67.6848 72.2688ZM64.6187 72.4221C64.6187 72.4221 64.45 73.9552 64.4654 74.8367C64.4807 75.7182 64.5114 75.8792 66.1977 75.7412C66.9232 75.6979 67.641 75.5692 68.3364 75.3579C68.4897 75.2659 68.528 75.0667 68.574 74.7984C68.6353 74.3384 68.7733 72.3225 68.4513 72.0005C67.7691 71.326 64.6263 72.0542 64.6033 72.4221H64.6187ZM68.0527 80.9689C67.0937 80.881 66.1271 81.0094 65.2242 81.3445C65.2637 82.2664 65.3739 83.1838 65.5538 84.0887C66.5331 83.9918 67.5023 83.8123 68.4513 83.5521C68.517 82.7861 68.5016 82.0153 68.4053 81.2526C68.3747 81.0533 68.4743 81.0149 68.0527 80.9689ZM64.9866 81.2985C64.9866 81.2985 64.9023 82.8316 64.9866 83.7208C65.0709 84.61 65.0863 84.7633 66.7726 84.4873C67.4929 84.3988 68.2003 84.2264 68.8806 83.9737C69.0262 83.8741 69.0569 83.6748 69.0799 83.3988C69.1182 82.9389 69.1335 80.9229 68.7963 80.6163C68.0604 80.0108 64.9866 80.9076 64.9866 81.2985ZM66.0214 89.5694C65.9485 90.4904 65.9485 91.4156 66.0214 92.3366C66.958 92.3593 67.8946 92.2951 68.8193 92.145H68.9649C69.1165 91.3235 69.1859 90.4889 69.1719 89.6537C68.8499 89.3088 66.512 89.3011 66.0214 89.5694ZM65.7838 89.4928C65.7838 89.4928 65.5385 91.0258 65.5079 91.8997C65.4772 92.7735 65.5079 92.9498 67.1942 92.8962C67.9202 92.8847 68.6427 92.7922 69.3482 92.6202C69.5091 92.5282 69.5551 92.3366 69.6088 92.0683C69.7008 91.616 69.9307 89.6077 69.6088 89.2628C68.9879 88.5499 65.8298 89.1095 65.7838 89.4928Z" fill="black"/>
<path fill-rule="evenodd" clip-rule="evenodd" d="M149.32 46.5516C145.963 44.6353 119.372 29.642 117.747 28.8448C117.386 28.643 116.999 28.4909 116.597 28.3925C115.922 28.3925 108.165 32.4858 87.1545 43.5008C84.7859 41.1476 66.9028 24.2073 62.8555 20.4206C63.7364 19.1651 64.4695 17.8122 65.0401 16.3886C65.0542 16.3137 65.043 16.2361 65.0083 16.1682C64.9737 16.1002 64.9174 16.0456 64.8485 16.013C63.4687 15.0702 52.6683 13.1462 50.8516 14.4263C50.4147 14.7329 49.7938 16.174 49.3185 16.8256C48.552 17.8681 49.8398 21.716 50.2384 22.9578C50.0826 23.3796 50.0165 23.8291 50.0442 24.2779C50.0719 24.7266 50.1929 25.1646 50.3994 25.564C50.5422 25.9729 50.66 26.3902 50.752 26.8135C50.4683 26.7521 50.1847 26.6678 50.0391 26.8135C47.9925 29.3507 32.3322 42.9106 27.4954 45.4478C27.5211 44.7332 27.4852 44.0177 27.3881 43.3092C27.3881 43.1636 27.2578 43.1329 27.1428 43.0869C27.2885 42.535 27.4418 41.9448 27.5797 41.4465C28.3463 41.3162 28.8752 41.0479 29.6647 40.887C30.0844 40.7894 30.4755 40.5951 30.8069 40.3196C31.1383 40.0441 31.4007 39.6951 31.5734 39.3002C31.857 38.6027 31.627 38.0278 31.7343 37.3149C31.7343 37.1463 32.3706 36.7937 32.0409 36.0885C31.9113 35.7485 31.707 35.4421 31.4431 35.1916C31.2483 35.0404 31.0615 34.8793 30.8835 34.7087C31.3357 34.5401 31.65 34.2948 31.4967 33.8196C31.0287 32.9932 30.5169 32.1923 29.9636 31.4203C29.7424 31.0834 29.5912 30.7054 29.5191 30.3088C29.2738 29.3967 29.5651 29.5423 29.4577 28.7758C29.8597 28.5653 30.1785 28.2248 30.3622 27.81C30.3817 27.7666 30.3918 27.7195 30.3918 27.672C30.3918 27.6244 30.3817 27.5774 30.3622 27.534C30.5081 27.4821 30.6471 27.4126 30.7762 27.327C31.3664 26.9361 31.1671 26.4532 30.6612 25.9779C31.696 25.0198 29.3964 22.8045 24.6976 23.6784C24.2447 23.8261 23.8017 24.0027 23.3715 24.2073C22.914 24.0365 22.4252 23.9659 21.9381 24.0003C20.9546 24.1017 19.9997 24.3905 19.1249 24.8511C18.4657 25.2037 17.5229 26.3152 17.6838 27.1047C17.4331 27.1458 17.1932 27.237 16.9786 27.373C15.7062 28.3082 15.1236 30.0559 16.2121 31.2057C16.1536 31.3305 16.1099 31.4617 16.0818 31.5966C15.9248 32.0702 15.8826 32.5743 15.9586 33.0673C16.0345 33.5604 16.2265 34.0284 16.5187 34.4328C16.9206 34.9283 17.4211 35.3348 17.9886 35.6265C18.556 35.9181 19.1779 36.0885 19.8148 36.1268C19.7884 36.2242 19.7755 36.3248 19.7765 36.4258C19.7765 36.809 19.5848 37.6752 20.0754 37.9588L20.2517 38.0201C20.0524 38.7867 19.8378 39.6069 19.6615 40.3197C18.9946 40.0744 18.8949 39.9978 18.7876 40.1281C18.4362 40.4967 18.1532 40.925 17.9521 41.3929C15.5529 40.703 8.73075 49.2498 6.13221 58.7931C4.53017 64.7797 2.81314 82.226 4.59915 83.8663C4.87149 84.1158 5.17255 84.3319 5.49599 84.5102C5.05907 89.9219 6.96007 95.6173 9.65826 100.324C12.2645 104.908 17.8525 140.774 19.9298 142.575C20.1624 142.718 20.4244 142.807 20.6963 142.836C20.3923 144.17 20.464 145.563 20.9033 146.86C20.9876 147.12 21.3632 147.251 21.6698 147.335C23.5631 147.895 29.2738 148.217 31.2514 147.619C31.65 147.496 32.1023 147.274 32.0869 146.852C31.9873 144.208 27.2425 144.553 26.4759 144.238C26.4914 143.818 26.5453 143.4 26.6369 142.989C26.9274 142.982 27.2159 142.938 27.4954 142.859C29.8487 141.824 35.0228 102.294 35.6666 85.6677C36.4659 85.4927 37.2121 85.1301 37.8436 84.6099C39.2003 84.6099 41.247 83.9583 41.8142 82.7089C41.8907 82.4849 41.9076 82.2449 41.8632 82.0124C41.8189 81.7799 41.7148 81.5629 41.5613 81.3828C45.1486 79.3131 47.6092 76.247 47.7625 72.1078C47.8184 70.1601 47.4828 68.221 46.7758 66.4053C46.0687 64.5896 45.0045 62.9343 43.6462 61.5373C41.2837 59.3 38.2216 57.9463 34.9768 57.7046C34.7391 56.8308 34.4938 55.9876 34.2102 55.2058C37.5328 54.2708 40.543 52.4599 42.9257 49.9627C48.552 44.1447 53.2432 37.1846 55.0599 29.3353C55.7267 28.7145 56.5929 27.8483 57.4514 26.8825C61.5294 30.7151 83.1379 51.1508 85.1845 53.2128C85.3531 53.3737 85.5831 53.2128 85.7977 53.1361C86.2653 52.9215 115.133 37.9665 115.623 37.7595C119.663 38.7253 140.873 51.5571 145.748 54.2706C145.785 54.2858 145.824 54.2936 145.863 54.2936C145.903 54.2936 145.942 54.2858 145.978 54.2706C146.154 54.2169 145.978 54.5005 148.508 49.8707C148.914 49.5334 149.389 47.3412 149.481 46.8046C149.478 46.7522 149.462 46.7014 149.434 46.6571C149.405 46.6128 149.366 46.5765 149.32 46.5516ZM50.752 25.403C50.1771 23.7627 50.3917 22.6359 52.0781 22.2833C52.4776 22.1738 52.8903 22.1196 53.3045 22.1223C53.5115 22.1836 53.9637 22.3906 53.9331 22.4672C53.9165 22.5068 53.8867 22.5393 53.8487 22.5592C53.4415 22.789 53.0023 22.9569 52.5456 23.0575C52.4381 23.0649 52.3322 23.0881 52.2314 23.1265C51.8797 23.192 51.544 23.3247 51.2425 23.5174C50.8669 23.8623 51.0509 24.5062 51.4112 24.8588C52.0091 25.449 52.9442 25.0274 53.7108 24.7285C54.4773 24.4296 55.5504 23.962 55.8111 24.2379C56.0717 24.5139 54.7609 25.1808 54.4466 25.771C54.209 26.2156 54.4466 27.0971 54.3393 27.8943C53.4731 27.5953 51.9707 27.0817 51.0816 26.8288C51.0004 26.3474 50.8904 25.8712 50.752 25.403ZM55.3511 23.594C53.3428 24.1996 52.5533 24.8205 51.9477 24.6059C51.8361 24.5534 51.7399 24.4728 51.6687 24.3721C51.5975 24.2713 51.5537 24.1537 51.5415 24.031C51.4802 23.7167 52.0321 23.6554 52.4077 23.4791C52.7833 23.3028 53.1742 23.4791 53.8871 23.0651C54.09 22.9686 54.2488 22.7988 54.3317 22.5899C54.9021 22.353 55.492 22.1657 56.0947 22.0303L57.3595 22.3982L56.6772 23.1648L55.3511 23.594ZM30.6075 50.4993C30.5615 49.9474 30.2473 49.7327 29.841 49.886C29.4347 50.0393 28.7449 50.5682 28.7295 50.4839C28.7142 50.3996 28.7295 50.4839 28.7755 50.4839C28.3616 50.185 17.4309 42.5273 16.8636 42.0828C16.9735 41.8969 17.1438 41.7545 17.3461 41.6791C17.5484 41.6038 17.7705 41.6002 17.9751 41.6688C21.0217 42.6933 23.9228 44.1078 26.6062 45.8771C31.2591 48.9432 32.5469 51.0435 34.2026 56.9381C33.6047 56.1716 33.0144 55.3591 32.4012 54.6385C31.2131 53.2281 30.8682 53.1974 30.6612 52.6992C30.5744 51.9692 30.5565 51.2326 30.6075 50.4993ZM29.0745 30.4238C29.1536 30.8663 29.3204 31.2885 29.5651 31.6656C30.0403 32.4321 30.9678 33.6969 31.0368 33.9652C31.1058 34.2335 30.6152 34.2258 30.2703 34.4021C29.4577 34.2105 28.9672 34.7471 28.3386 34.8007C27.9323 34.8007 27.5721 34.7394 27.2195 34.7471C26.6216 34.7471 26.9359 34.885 26.2536 34.885C25.8014 34.885 25.2112 34.839 25.0732 34.885C24.8049 34.885 24.3756 35.0843 24 35.138C23.6244 35.1916 23.5708 35.092 23.4865 34.954C22.9806 34.0802 22.2753 30.8377 21.8921 30.5005L21.4628 30.1402C21.0937 29.8658 20.8245 29.4781 20.6963 29.0364C20.6963 28.8064 20.7959 28.6071 21.1715 28.5152C22.1374 28.2775 22.9882 28.6991 23.9464 28.8908C25.4794 29.2127 27.5414 29.527 29.0285 28.9444C29.0821 29.5193 28.8292 29.481 29.0668 30.4238H29.0745ZM20.1827 32.0642C20.5353 32.1102 20.9493 32.2635 21.0412 32.6084C21.0412 32.984 21.0412 33.8732 20.9952 34.2948C20.3744 34.2948 19.7841 33.5283 19.4622 32.915C19.1402 32.3018 19.6461 31.9875 20.1751 32.0642H20.1827ZM21.1486 36.4104L21.3172 36.3261C21.2712 37.1303 21.2712 37.9365 21.3172 38.7407C21.5395 39.9288 21.7005 40.45 23.1415 40.9636C24.3889 41.4404 25.7279 41.6291 27.0585 41.5155L26.6906 42.8799C26.4146 42.765 21.8768 41.0403 20.1291 40.3887C20.3514 39.3922 20.5737 38.4111 21.1409 36.4104H21.1486ZM18.9946 40.4194C19.2246 40.519 26.7749 43.4242 27.0048 43.4855C27.1504 44.2439 27.2325 45.0131 27.2501 45.7851C24.4514 43.9585 21.4193 42.5172 18.2357 41.5002C18.4314 41.1048 18.6846 40.7406 18.9869 40.4194H18.9946ZM26.3686 142.974C26.2541 143.377 26.1797 143.79 26.1463 144.208C24.3911 144.346 22.6278 144.346 20.8726 144.208C20.8578 143.744 20.8758 143.281 20.9263 142.82C22.7311 143.013 24.5482 143.064 26.361 142.974H26.3686ZM41.293 82.4176C40.8944 83.2991 39.5376 83.8127 38.5871 83.989C37.123 84.2726 35.7816 83.667 34.4555 82.9465L37.1001 80.6469C37.236 80.7998 37.3847 80.9408 37.5446 81.0685C37.8972 81.3215 38.2345 81.1528 38.5488 80.8539C39.139 80.2943 39.3153 79.5354 39.8672 79.7347C39.931 79.7582 39.9867 79.7997 40.0275 79.8541C40.0683 79.9085 40.0925 79.9735 40.0972 80.0414C39.7829 80.6469 38.8477 81.766 39.7216 82.1416C39.9777 82.2038 40.2452 82.2006 40.4997 82.1323C40.7542 82.064 40.9875 81.9328 41.178 81.7507C41.2517 81.8508 41.3 81.9672 41.3187 82.0901C41.3374 82.2129 41.3259 82.3385 41.2853 82.4559L41.293 82.4176ZM23.5248 77.4198C24.503 78.4674 25.7096 79.2753 27.0508 79.7807C29.611 81.3828 31.949 82.6476 33.0068 83.1995C26.108 83.0002 19.5925 80.3556 18.8796 73.3879C20.275 74.8986 21.8328 76.2507 23.5248 77.4198ZM29.8947 66.2208C30.7608 65.3853 32.1943 65.1553 33.3517 65.025C33.2981 66.972 33.3517 68.2444 33.459 70.2298L32.7768 70.0841C31.977 68.8841 31.0206 67.7963 29.933 66.8494C29.8947 66.7344 29.8947 66.5197 29.8947 66.2208ZM33.9726 70.8813C35.7356 71.2416 38.2575 71.7475 38.7481 73.3802C39.2387 75.0129 37.9816 76.0631 36.4485 76.6456C33.7273 70.866 34.1259 73.1119 34.0033 70.8813H33.9726ZM36.6631 77.0749C38.4721 76.4233 39.7906 75.0896 39.2463 73.2422C38.7021 71.3949 36.0269 70.751 33.9803 70.3371C33.8806 68.4897 33.7656 66.4048 33.689 64.9714C36.9314 64.7261 37.583 65.8145 37.7439 65.5386C37.7579 65.5141 37.7618 65.4852 37.7546 65.4579C37.7474 65.4307 37.7298 65.4073 37.7056 65.3929C36.459 64.7677 35.0628 64.5023 33.6737 64.6264C33.6737 63.9825 33.62 63.5303 33.62 63.3923C33.62 63.3638 33.6087 63.3365 33.5886 63.3164C33.5684 63.2963 33.5411 63.285 33.5127 63.285C33.4842 63.285 33.4569 63.2963 33.4368 63.3164C33.4167 63.3365 33.4054 63.3638 33.4054 63.3923C33.4054 63.7449 33.4054 64.1588 33.3594 64.6494C32.1523 64.6507 30.9682 64.9792 29.933 65.5999C29.933 64.5651 29.9943 63.009 29.933 61.1694C33.666 60.2725 38.1579 60.9547 41.017 63.7219C42.0647 64.7755 42.8902 66.0288 43.4446 67.4074C43.9989 68.786 44.2708 70.2619 44.2441 71.7475C44.1061 75.5112 41.2623 78.125 37.7593 79.5431C37.629 79.1522 37.2457 78.24 36.6938 77.0749H36.6631ZM47.5249 72.0541C47.3562 76.6533 44.1061 79.8267 39.9975 81.7047C39.8979 81.7047 39.8826 81.6511 39.9056 81.5591C39.9822 81.0992 40.6184 80.4016 40.5954 80.072C40.5839 79.9105 40.5268 79.7555 40.431 79.625C40.3351 79.4945 40.2042 79.3938 40.0536 79.3345C39.9029 79.2752 39.7385 79.2597 39.5794 79.2898C39.4203 79.32 39.2729 79.3945 39.1544 79.5048C38.8784 79.7347 38.3878 80.8309 37.9202 80.9075C37.7439 80.9075 37.5446 80.7236 37.307 80.5089C37.8742 80.026 37.8896 80.0337 37.9126 79.9264C41.5459 78.3933 44.3668 75.7181 44.5124 71.7475C44.5536 70.2241 44.2915 68.7077 43.7415 67.2865C43.1914 65.8653 42.3643 64.5677 41.3083 63.469C38.4032 60.5561 33.8346 59.7896 29.956 60.6635C29.956 59.8126 29.91 59.1304 29.864 58.3639C34.3942 57.5053 39.8289 58.4099 43.3396 61.8056C44.6913 63.1441 45.7587 64.7418 46.4779 66.5028C47.1971 68.2639 47.5532 70.1521 47.5249 72.0541ZM29.8947 57.812C29.8103 56.4629 29.6724 55.0525 29.4654 53.642C29.4654 53.6136 29.4541 53.5863 29.434 53.5662C29.4138 53.546 29.3866 53.5347 29.3581 53.5347C29.3296 53.5347 29.3023 53.546 29.2822 53.5662C29.2621 53.5863 29.2508 53.6136 29.2508 53.642C30.1629 60.6175 29.2508 66.7574 29.6724 67.1023C32.7385 69.6242 35.8736 76.0861 37.3837 79.7501L33.735 82.9082C29.657 80.8079 20.704 75.6721 18.3124 71.7168C16.8146 69.3273 15.6733 66.7321 14.9243 64.0132C13.6059 58.9618 14.5794 55.4817 14.0811 55.5047C14.0667 55.5045 14.0523 55.5075 14.0391 55.5135C14.0259 55.5194 14.0141 55.5281 14.0046 55.5391C13.9952 55.55 13.9882 55.5629 13.9842 55.5768C13.9802 55.5907 13.9793 55.6054 13.9815 55.6197C14.0428 57.3214 13.5906 60.1039 14.5794 64.1052C15.3656 67.1336 16.6421 70.0129 18.3584 72.629C18.642 79.0449 23.2948 82.3639 29.7107 83.3604C31.4578 83.6264 33.2279 83.7087 34.9921 83.6057C37.0081 84.7478 37.4986 84.3186 37.0081 84.5945C32.4089 87.1011 9.08336 87.6607 4.77545 83.6824C3.13508 82.2336 4.83678 65.1553 6.56914 58.9081C8.16352 53.1438 12.6017 44.8499 16.6873 42.2361C19.6155 44.5356 28.032 50.5069 28.4689 50.9055C28.9058 51.3041 29.5881 50.3919 30.002 50.3613C30.1783 50.3613 29.8563 52.1856 30.1016 52.8755C30.3469 53.5654 30.7608 53.5807 31.9336 54.9758C32.6312 55.796 33.2827 56.7158 33.9726 57.582C32.588 57.4913 31.1975 57.5737 29.8333 57.8273L29.8947 57.812ZM42.6957 49.6714C40.3779 52.1483 37.4405 53.9611 34.1872 54.9221C33.6619 53.0833 32.8579 51.3358 31.8033 49.7404C30.5931 48.2523 29.1607 46.9596 27.5567 45.9077V45.6701C32.5469 43.2555 47.8315 30.2782 50.453 27.1891C51.8994 27.5591 53.3225 28.0147 54.7149 28.5535C52.9366 36.6097 48.2914 43.6925 42.6344 49.6867L42.6957 49.6714ZM145.832 53.5884C141.417 51.0818 119.701 38.0125 115.723 37.1616C115.449 37.2003 115.187 37.2998 114.957 37.4529C113.998 37.9205 85.9204 52.5842 85.5218 52.7835C83.3602 50.7216 61.56 30.3165 57.4898 26.5452H57.3135C56.5469 27.4114 55.7804 28.1932 55.1442 28.8448C55.2285 28.4232 55.3282 28.3312 54.5923 28.0322C54.7686 27.2197 54.5923 26.2999 54.7686 25.9933C55.0292 25.564 55.9337 25.1578 56.225 24.6825C56.3075 24.5661 56.3438 24.4232 56.3268 24.2815C56.3098 24.1398 56.2407 24.0095 56.133 23.916C56.8995 23.6784 56.8995 23.6937 56.9609 23.617C57.0222 23.5404 57.7887 22.6129 57.896 22.4596C57.9203 22.4292 57.9369 22.3935 57.9447 22.3554C57.9524 22.3173 57.951 22.2779 57.9405 22.2405C57.93 22.203 57.9108 22.1686 57.8844 22.1401C57.858 22.1115 57.8252 22.0897 57.7887 22.0763C57.1941 21.9098 56.59 21.7792 55.9797 21.6854C54.186 22.2679 54.4466 22.3523 54.37 22.2679C54.1434 21.9543 53.8066 21.738 53.4272 21.6624C52.9257 21.6212 52.4211 21.6758 51.9401 21.8233C51.3794 21.9194 50.8625 22.1872 50.4607 22.5899C50.1387 21.5857 48.9889 17.8834 49.5945 17.0325C50.2001 16.1817 54.1094 16.5496 55.1748 16.6723C57.7999 16.9423 60.3943 17.4555 62.9245 18.2053C63.1433 18.2715 63.3521 18.3669 63.5454 18.4889C63.2924 19.2555 61.2458 21.7927 60.7092 22.4136C60.6703 22.4536 60.6486 22.5072 60.6486 22.5631C60.6486 22.6189 60.6703 22.6725 60.7092 22.7125C87.806 48.3913 86.0047 47.2875 86.4723 47.1495C87.6221 46.7739 113.623 32.7541 115.846 32.0642C117.977 32.6774 145.978 48.5983 147.871 49.6944L145.832 53.5884Z" fill="black"/>
<path fill-rule="evenodd" clip-rule="evenodd" d="M101.887 30.1326C103.484 28.5415 104.676 26.59 105.361 24.4423C106.047 22.2946 106.207 20.0137 105.827 17.7914C105.06 12.9316 101.718 8.81537 98.1617 7.129C96.1335 6.26269 93.9905 5.69467 91.7995 5.44264C90.0933 5.33162 88.3806 5.50782 86.7327 5.96388C82.0569 7.69624 79.3664 9.61256 77.1818 14.0891C76.3051 16.4262 75.9063 18.9155 76.009 21.4095C77.7567 34.3025 93.6008 38.1582 101.887 30.1326ZM77.6263 14.3037C79.7036 9.90384 82.3252 8.01051 86.8247 6.25516C88.4204 5.79772 90.08 5.60354 91.7382 5.68026C93.9015 5.93755 96.0117 6.52975 97.9931 7.43562C101.381 9.10665 104.555 13.1156 105.29 17.8758C105.641 20.01 105.475 22.197 104.809 24.2544C104.142 26.3118 102.993 28.1801 101.458 29.7033C93.5165 37.3916 78.2702 33.7276 76.5532 21.3405C76.4547 18.9477 76.819 16.5584 77.6263 14.3037Z" fill="black"/>
<path fill-rule="evenodd" clip-rule="evenodd" d="M100.017 28.362C101.339 27.0381 102.325 25.4168 102.891 23.6337C103.458 21.8506 103.589 19.9577 103.274 18.1135C102.968 16.2492 102.235 14.4809 101.133 12.9465C100.031 11.4121 98.5889 10.1531 96.9199 9.26769C95.2427 8.55559 93.4718 8.08834 91.6615 7.88027C90.2502 7.78519 88.8328 7.9277 87.4686 8.30186C83.636 9.71994 81.3824 11.3067 79.5657 15.0397C78.834 16.9795 78.5003 19.0467 78.5845 21.1183C80.0256 31.8344 93.1486 35.0461 100.017 28.362ZM80.0026 15.262C81.7196 11.6133 83.8813 10.0572 87.5836 8.61614C88.8944 8.23418 90.2593 8.07102 91.6232 8.13322C93.4053 8.349 95.1431 8.84033 96.7743 9.58963C98.364 10.473 99.7302 11.7089 100.768 13.2025C101.806 14.696 102.487 16.4074 102.761 18.2054C103.052 19.9598 102.922 21.7584 102.381 23.4525C101.84 25.1466 100.903 26.6875 99.6488 27.948C93.0566 34.3256 80.5775 31.2058 79.1671 21.0493C79.0717 19.0844 79.3554 17.1196 80.0026 15.262Z" fill="black"/>
<path fill-rule="evenodd" clip-rule="evenodd" d="M91.018 19.4165C91.2633 24.8895 91.3093 25.1425 91.4779 27.2121C90.8089 27.2054 90.1409 27.1593 89.4773 27.0742C88.6023 27.0245 87.756 26.7441 87.0244 26.2616C86.7963 26.1226 86.6024 25.934 86.4572 25.7097C86.3575 25.5334 85.8516 25.7097 86.8634 26.4763C87.6198 27.0113 88.5018 27.3414 89.4236 27.4344C90.1163 27.5476 90.8151 27.6192 91.5163 27.6491C91.5776 28.4156 91.6466 29.1055 91.6619 29.3661C91.6687 29.3925 91.684 29.4158 91.7055 29.4325C91.727 29.4492 91.7535 29.4583 91.7807 29.4583C91.808 29.4583 91.8344 29.4492 91.8559 29.4325C91.8774 29.4158 91.8928 29.3925 91.8995 29.3661V27.6567C94.8507 27.5647 97.6792 25.5334 96.9433 22.4673C96.3914 20.1677 93.8772 19.5162 91.5776 18.9489C91.4703 16.6493 91.3553 14.1045 91.2786 12.3874C91.9317 12.3166 92.5912 12.3295 93.241 12.4258C94.981 12.694 95.1726 13.3379 95.3413 13.0926C95.3527 13.0826 95.3618 13.0702 95.3681 13.0563C95.3744 13.0424 95.3776 13.0274 95.3776 13.0122C95.3776 12.9969 95.3744 12.9819 95.3681 12.968C95.3618 12.9541 95.3527 12.9417 95.3413 12.9317C94.133 12.1798 92.7101 11.8483 91.294 11.9888C91.294 11.2223 91.2327 10.6397 91.2403 10.4558C91.2403 10.4232 91.2274 10.3921 91.2044 10.3691C91.1814 10.3461 91.1502 10.3331 91.1177 10.3331C91.0851 10.3331 91.054 10.3461 91.031 10.3691C91.0079 10.3921 90.995 10.4232 90.995 10.4558C90.995 10.8927 90.995 11.4216 90.9414 11.9888C89.863 12.0233 88.8098 12.3235 87.8752 12.8627C86.5338 13.7519 85.6216 15.8521 86.6718 17.2932C87.5303 18.535 89.5693 19.0562 91.018 19.4165ZM96.3837 22.613C97.043 25.2498 94.4827 27.0435 91.8995 27.2121C91.8305 23.3795 91.8535 24.146 91.6466 19.5468C93.5936 20.0604 95.8702 20.6966 96.3454 22.613H96.3837ZM86.9554 14.9476C87.584 13.2076 89.0634 12.6481 90.9414 12.4564C90.88 14.917 91.0257 18.7496 91.0334 18.834C88.4885 18.1747 86.0356 17.3622 86.9171 14.917L86.9554 14.9476ZM26.8287 29.5347C25.8783 29.619 25.472 30.3549 25.633 30.4469C25.7939 30.5389 26.1849 30.125 26.8747 30.0636C27.3109 30.0262 27.7494 30.0262 28.1855 30.0636C28.6071 30.0023 27.7716 29.4504 26.8287 29.5347ZM28.1625 31.1061C28.1642 31.0356 28.1432 30.9664 28.1027 30.9087C28.0621 30.851 28.0041 30.8078 27.9372 30.7855C27.8703 30.7632 27.798 30.7629 27.7309 30.7847C27.6639 30.8066 27.6056 30.8494 27.5646 30.9068C27.4036 31.1444 27.6259 31.5047 27.6719 31.773C27.6719 31.8604 27.7067 31.9442 27.7685 32.0061C27.8303 32.0679 27.9141 32.1026 28.0015 32.1026C28.089 32.1026 28.1728 32.0679 28.2346 32.0061C28.2964 31.9442 28.3311 31.8604 28.3311 31.773C28.294 31.5463 28.2375 31.3232 28.1625 31.1061Z" fill="black"/>
</svg>
