<svg width="154" height="154" viewBox="0 0 154 154" fill="none" xmlns="http://www.w3.org/2000/svg">
<path d="M118.816 7.41255C115.527 7.28223 112.683 10.4787 113.158 13.5986C113.383 14.6859 113.939 15.6768 114.751 16.4347C115.562 17.1925 116.589 17.68 117.689 17.83C120.755 18.2286 124.097 15.6683 123.982 12.4641C123.886 11.1364 123.308 9.88968 122.356 8.95908C121.404 8.02847 120.145 7.47837 118.816 7.41255ZM120.87 15.5456L118.57 14.0125L115.573 15.8829L116.593 13.0544L114.921 11.9735L117.16 11.6056L118.57 9.34425L119.421 11.1303L122.027 11.0153L120.103 12.878L120.87 15.5456ZM86.7201 48.193C87.2337 48.0627 87.8622 47.6028 87.7932 47.0202C87.7243 46.4376 87.0957 46.1386 86.5898 46.1157C85.7772 46.1157 84.9647 46.8822 85.1027 47.4878C85.2406 48.0934 86.0532 48.354 86.7201 48.193ZM64.1222 132.23C64.8768 131.602 65.549 130.88 66.1229 130.084C67.1117 128.696 68.5605 126.68 68.0163 124.488C67.6713 123.077 66.3988 121.238 64.5744 121.176C62.7501 121.115 61.2783 123.047 60.8413 124.457C60.2358 126.381 61.1403 128.129 61.7459 129.286C62.3329 130.417 63.141 131.418 64.1222 132.23ZM62.8574 125.178C62.8574 124.874 62.9473 124.578 63.1157 124.326C63.2842 124.074 63.5236 123.877 63.8038 123.761C64.0839 123.645 64.3922 123.615 64.6896 123.674C64.987 123.733 65.2601 123.879 65.4745 124.094C65.6889 124.308 65.835 124.581 65.8941 124.879C65.9533 125.176 65.9229 125.484 65.8069 125.764C65.6908 126.044 65.4943 126.284 65.2422 126.452C64.9901 126.621 64.6937 126.711 64.3905 126.711C63.9839 126.711 63.5939 126.549 63.3064 126.262C63.0189 125.974 62.8574 125.584 62.8574 125.178ZM116.853 132.015C116.945 129.095 115.32 127.125 114.155 127.125C112.99 127.125 111.365 129.095 111.449 132.015H116.853ZM117.558 130.605L119.421 130.643C119.582 129.969 119.489 129.26 119.16 128.65C118.517 127.523 117.482 127.01 116.784 128.09C117.287 128.833 117.557 129.708 117.558 130.605ZM108.85 130.643L110.713 130.605C110.715 129.709 110.982 128.835 111.48 128.09C110.774 127.01 109.74 127.531 109.103 128.65C108.777 129.261 108.687 129.97 108.85 130.643ZM114.155 126.527C114.514 126.559 114.875 126.481 115.189 126.302C115.503 126.124 115.754 125.854 115.91 125.528C116.066 125.203 116.119 124.837 116.062 124.481C116.004 124.125 115.839 123.795 115.589 123.535C115.338 123.275 115.014 123.097 114.661 123.027C114.307 122.956 113.94 122.995 113.608 123.139C113.277 123.283 112.998 123.524 112.808 123.831C112.618 124.138 112.526 124.495 112.545 124.856C112.558 125.285 112.729 125.693 113.027 126.002C113.325 126.311 113.727 126.498 114.155 126.527ZM110.154 127.017C110.469 126.988 110.762 126.841 110.974 126.605C111.186 126.369 111.301 126.062 111.296 125.745C111.273 125.522 111.187 125.31 111.046 125.135C110.905 124.96 110.717 124.829 110.504 124.76C110.29 124.69 110.061 124.684 109.844 124.742C109.628 124.8 109.432 124.92 109.283 125.087C109.133 125.254 109.034 125.461 109 125.683C108.966 125.904 108.997 126.131 109.089 126.336C109.181 126.54 109.331 126.714 109.52 126.835C109.709 126.956 109.929 127.019 110.154 127.017ZM118.156 127.017C118.472 126.988 118.765 126.841 118.977 126.605C119.189 126.369 119.304 126.062 119.298 125.745C119.276 125.522 119.189 125.31 119.049 125.135C118.908 124.96 118.72 124.829 118.506 124.76C118.293 124.69 118.064 124.684 117.847 124.742C117.63 124.8 117.435 124.92 117.285 125.087C117.135 125.254 117.037 125.461 117.003 125.683C116.968 125.904 116.999 126.131 117.092 126.336C117.184 126.54 117.334 126.714 117.523 126.835C117.712 126.956 117.932 127.019 118.156 127.017ZM67.771 50.4007C67.2319 50.4421 66.694 50.3076 66.2379 50.0174C66.4413 49.3443 66.7776 48.7187 67.2267 48.1777C67.2602 48.1282 67.2751 48.0685 67.2688 48.0091C67.2625 47.9496 67.2354 47.8944 67.1922 47.8531C67.1491 47.8117 67.0927 47.787 67.033 47.7833C66.9734 47.7796 66.9144 47.7971 66.8664 47.8327C66.5981 48.1087 65.433 49.7951 65.6553 50.3393C65.8776 50.8836 67.6866 51.1825 68.0929 50.7916C68.1448 50.7489 68.1775 50.6874 68.184 50.6205C68.1904 50.5537 68.1701 50.487 68.1274 50.4352C68.0847 50.3833 68.0232 50.3506 67.9563 50.3441C67.8895 50.3376 67.8228 50.358 67.771 50.4007ZM72.2783 54.2794C73.9591 54.2246 75.5752 53.6185 76.8776 52.5547C76.8142 53.0804 76.6409 53.587 76.3688 54.0413C76.0968 54.4956 75.7321 54.8876 75.2985 55.1916C75.2477 55.2221 75.211 55.2715 75.1967 55.329C75.1823 55.3865 75.1913 55.4474 75.2218 55.4982C75.2523 55.5491 75.3018 55.5857 75.3593 55.6001C75.4168 55.6144 75.4776 55.6054 75.5284 55.5749C76.2038 55.2025 76.7566 54.6422 77.1199 53.9619C77.4832 53.2816 77.6413 52.5105 77.5751 51.7421C77.5713 51.6755 77.5482 51.6113 77.5087 51.5575C77.4691 51.5037 77.4148 51.4625 77.3523 51.439C77.2898 51.4154 77.2218 51.4105 77.1566 51.4249C77.0914 51.4393 77.0317 51.4722 76.9849 51.5198C75.7545 52.8427 74.0656 53.646 72.2629 53.7658C72.187 53.7698 72.1157 53.8033 72.0641 53.8591C72.0126 53.915 71.9849 53.9888 71.987 54.0648C72.0054 54.1275 72.0439 54.1824 72.0965 54.2212C72.1491 54.2599 72.2129 54.2804 72.2783 54.2794ZM72.6386 37.2927C72.5532 37.2927 72.4713 37.3266 72.4109 37.387C72.3505 37.4473 72.3166 37.5292 72.3166 37.6146C72.3166 37.7 72.3505 37.7819 72.4109 37.8423C72.4713 37.9026 72.5532 37.9366 72.6386 37.9366C73.2575 37.9668 73.8617 38.1354 74.4069 38.4299C74.9521 38.7244 75.4244 39.1373 75.7891 39.6383C75.8268 39.6833 75.8794 39.7132 75.9374 39.7227C75.9953 39.7322 76.0548 39.7206 76.1049 39.6899C76.155 39.6593 76.1924 39.6117 76.2105 39.5558C76.2285 39.5 76.2258 39.4395 76.203 39.3853C75.8443 38.7548 75.3263 38.2295 74.7007 37.8623C74.0751 37.495 73.364 37.2986 72.6386 37.2927ZM63.4783 37.8139C62.9683 38.2448 62.3128 38.4642 61.6462 38.4272C61.5775 38.4238 61.5099 38.4463 61.4569 38.4901C61.4039 38.534 61.3691 38.5961 61.3595 38.6643C61.3499 38.7325 61.3661 38.8018 61.405 38.8586C61.4439 38.9154 61.5026 38.9556 61.5696 38.9714C61.982 39.0579 62.4088 39.0483 62.8169 38.9433C63.225 38.8383 63.6034 38.6407 63.9229 38.3658C64.2295 38.0745 63.8232 37.561 63.4783 37.8139ZM62.7731 45.6557C62.7731 45.3108 62.5891 43.9003 62.5967 43.5707C62.5967 43.4996 62.5685 43.4313 62.5182 43.381C62.4678 43.3307 62.3996 43.3024 62.3285 43.3024C62.2586 43.3003 62.1906 43.3256 62.1391 43.3728C62.0875 43.4201 62.0565 43.4856 62.0525 43.5554C62.0108 44.283 62.0108 45.0124 62.0525 45.74C62.0637 45.8356 62.1124 45.9228 62.1878 45.9825C62.2252 46.012 62.268 46.0339 62.3139 46.0469C62.3597 46.0599 62.4076 46.0637 62.4549 46.0582C62.5022 46.0526 62.548 46.0378 62.5896 46.0146C62.6312 45.9914 62.6678 45.9602 62.6973 45.9228C62.7269 45.8855 62.7488 45.8426 62.7618 45.7968C62.7748 45.751 62.7786 45.703 62.7731 45.6557ZM73.5891 45.4718C73.5891 45.2188 73.4358 44.2069 73.4434 43.9387C73.4434 43.8675 73.4152 43.7993 73.3648 43.7489C73.3145 43.6986 73.2463 43.6704 73.1751 43.6704C73.104 43.6704 73.0357 43.6986 72.9854 43.7489C72.9351 43.7993 72.9068 43.8675 72.9068 43.9387C72.9068 44.2146 72.8302 45.2801 72.8609 45.5561C72.8623 45.6071 72.8743 45.6572 72.8961 45.7033C72.918 45.7494 72.9492 45.7905 72.9878 45.8239C73.0263 45.8573 73.0714 45.8823 73.1202 45.8974C73.1689 45.9124 73.2203 45.9171 73.271 45.9113C73.3217 45.9054 73.3706 45.8891 73.4146 45.8633C73.4586 45.8375 73.4968 45.8028 73.5267 45.7615C73.5566 45.7202 73.5776 45.6731 73.5884 45.6232C73.5991 45.5733 73.5993 45.5217 73.5891 45.4718Z" fill="black"/>
<path d="M37.7908 78.9548C37.7826 78.9797 37.7826 79.0065 37.7908 79.0314C41.1412 86.5791 46.601 92.998 53.5136 97.5156C60.4261 102.033 68.4968 104.457 76.7546 104.496C100.702 104.496 120.325 84.3436 119.321 59.676C118.96 50.8258 115.759 42.3271 110.191 35.4377C105.855 30.1084 100.3 25.9015 93.9943 23.1729C94.0753 22.8965 94.1368 22.6147 94.1782 22.3297C94.6075 19.5318 93.4117 17.6614 91.2883 15.768C90.2212 14.8484 89.1001 13.9935 87.9309 13.2078C86.7703 12.3381 85.4289 11.7408 84.0061 11.46C83.2488 11.3072 82.466 11.3352 81.7215 11.5416C80.977 11.7481 80.2916 12.1272 79.7211 12.6482C79.5065 12.8705 79.3225 13.2231 79.0925 13.3611C78.7573 13.4626 78.4034 13.4862 78.0577 13.4301C75.713 13.4297 73.3929 13.909 71.2402 14.8383C69.0875 15.7677 67.1477 17.1275 65.5399 18.8342C64.5768 18.9963 63.6674 19.39 62.8902 19.9816C62.113 20.5732 61.4913 21.3448 61.0786 22.2301C38.1588 31.7429 28.4083 56.7248 37.7908 78.9548ZM63.6772 85.3784C62.7835 82.432 62.3948 79.3556 62.5274 76.2795C62.6424 73.7192 62.8263 69.4419 65.5936 67.6481C66.4566 67.0491 67.3981 66.5719 68.3915 66.23C67.51 71.113 69.2194 76.0265 71.2891 80.4879C69.9783 80.9555 64.8807 84.6196 63.6772 85.3938V85.3784ZM69.8096 66.2147C69.7406 65.4481 69.388 63.1485 69.3344 62.7882C69.3239 62.6285 69.2725 62.4741 69.1853 62.3399C69.098 62.2057 68.9778 62.0961 68.8361 62.0217C68.5831 61.8914 67.4563 61.5081 67.1574 61.3548C63.6236 59.6224 60.9866 55.4983 61.3239 49.4809C62.2563 49.6166 63.2061 49.5724 64.1218 49.3506C65.3253 48.9903 66.0765 47.8558 66.3448 45.9854C66.5182 45.8269 66.7235 45.7072 66.9469 45.6345C67.1704 45.5618 67.4068 45.5377 67.6403 45.5638C68.1164 45.6045 68.5773 45.7512 68.9894 45.9931C69.0767 46.6017 69.3051 47.1814 69.6565 47.6858C70.0079 48.1903 70.4725 48.6055 71.0131 48.8983C72.2269 49.4847 73.6195 49.5826 74.9033 49.1718C76.1872 48.7609 77.2642 47.8728 77.9121 46.6907C78.2399 46.0359 78.4451 45.3266 78.5176 44.598C79.8222 44.6767 81.1313 44.5657 82.404 44.2684C82.404 44.6593 82.404 45.3645 82.657 45.5025C83.5002 45.9241 84.9566 42.536 87.0033 42.536C87.6447 42.5769 88.2494 42.8493 88.7051 43.3025C89.0581 43.5635 89.3457 43.903 89.5452 44.294C89.7447 44.6851 89.8507 45.1172 89.8549 45.5562C89.8068 45.9428 89.6824 46.316 89.489 46.6542C89.2956 46.9923 89.0369 47.2887 88.7281 47.5262C87.8126 48.3876 86.6119 48.8815 85.3552 48.9137C85.329 48.9167 85.3039 48.9261 85.2821 48.9411C85.2604 48.9561 85.2427 48.9763 85.2305 48.9998C85.2184 49.0232 85.2123 49.0494 85.2126 49.0758C85.213 49.1022 85.2198 49.1281 85.2326 49.1513C86.4869 51.2312 87.3689 53.514 87.8389 55.8969C87.4249 60.4119 87.2486 62.336 87.1643 63.2711C86.4591 71.7032 83.5539 78.7095 78.8779 85.7694C77.8301 87.2512 76.9508 88.8453 76.2563 90.522C73.673 82.4042 67.28 74.8001 68.8974 66.1764C69.0316 66.1218 69.1701 66.0782 69.3114 66.0461C69.3114 66.1636 69.3344 66.2632 69.3804 66.345C69.3859 66.3732 69.3969 66.4 69.4128 66.4239C69.4287 66.4479 69.4492 66.4684 69.473 66.4844C69.4969 66.5004 69.5236 66.5116 69.5518 66.5173C69.58 66.5229 69.609 66.523 69.6371 66.5175C69.6653 66.5119 69.6922 66.5009 69.7161 66.485C69.74 66.4691 69.7605 66.4487 69.7766 66.4248C69.7926 66.401 69.8037 66.3742 69.8094 66.346C69.8151 66.3179 69.8152 66.2889 69.8096 66.2607V66.2147ZM74.9302 34.1576C74.5294 33.8324 74.0791 33.5736 73.5964 33.391C76.6626 33.1074 79.0312 32.2335 81.1239 29.7729C81.3539 29.8956 82.657 30.5395 82.8563 30.6698C85.0793 34.1269 83.8605 35.5374 83.0479 39.7917C82.8026 41.0719 82.5573 42.4056 82.4194 43.5785C81.1493 43.9009 79.8433 44.0606 78.533 44.0537C78.5943 43.4482 78.6249 42.7966 78.7093 42.168C78.8668 42.1046 78.9989 41.9906 79.0847 41.844C79.1704 41.6974 79.2051 41.5264 79.1831 41.358C79.1612 41.1895 79.0839 41.0331 78.9635 40.9134C78.843 40.7936 78.6862 40.7172 78.5176 40.6962L69.319 40.4739C69.1799 40.4824 69.0458 40.5287 68.931 40.6077C68.8162 40.6868 68.7252 40.7956 68.6676 40.9225C68.6101 41.0494 68.5882 41.1896 68.6044 41.3281C68.6206 41.4665 68.6742 41.5979 68.7594 41.7081C68.7061 42.9025 68.7445 44.0993 68.8744 45.2879C68.4892 45.095 68.0663 44.9896 67.6356 44.979C67.205 44.9684 66.7773 45.0529 66.3831 45.2266C66.4478 44.1647 66.4067 43.0991 66.2605 42.0454C66.365 41.9487 66.4428 41.8267 66.4865 41.6912C66.5301 41.5557 66.538 41.4112 66.5095 41.2717C66.481 41.1323 66.417 41.0025 66.3237 40.895C66.2304 40.7874 66.1109 40.7058 65.9769 40.6579C65.9002 40.6579 66.0229 40.6579 61.1093 40.5353C61.1706 39.0022 61.1936 34.7478 61.8758 32.6705C65.7852 35.591 70.5455 36.5032 74.9072 34.4029C74.9358 34.3789 74.9542 34.3449 74.9585 34.3078C74.9627 34.2707 74.9526 34.2334 74.9302 34.2036V34.1576ZM78.2263 42.2293C78.027 43.4175 78.1114 44.667 77.6744 45.7785C77.2198 46.9146 76.3445 47.8315 75.2307 48.3384C74.117 48.8453 72.8506 48.9031 71.6953 48.4997C71.1297 48.3094 70.6302 47.9616 70.2555 47.4972C69.8807 47.0328 69.6462 46.4711 69.5797 45.8781C69.3905 44.6097 69.311 43.3274 69.342 42.0454C70.5838 42.1604 77.0612 42.2523 78.2263 42.2753V42.2293ZM65.7392 42.2293C65.9462 44.161 66.0535 47.5952 64.3364 48.5457C63.8262 48.7672 63.2753 48.8795 62.719 48.8753C62.2326 48.9176 61.7428 48.8944 61.2626 48.8063C60.7669 48.7243 60.3034 48.5069 59.9233 48.1782C59.5433 47.8496 59.2613 47.4223 59.1086 46.9436C58.7458 45.3375 58.5963 43.6906 58.664 42.0454L65.7392 42.2293ZM76.379 99.483C74.5622 96.5854 68.2229 86.7736 66.5518 84.3206C68.0375 83.0078 69.6865 81.8922 71.4577 81.0014C71.9713 81.9826 75.2905 88.7973 75.9727 91.5262C75.9902 91.5868 76.027 91.6401 76.0775 91.678C76.1279 91.7159 76.1893 91.7364 76.2525 91.7364C76.3156 91.7364 76.377 91.7159 76.4275 91.678C76.4779 91.6401 76.5147 91.5868 76.5323 91.5262C77.6054 87.3715 80.25 85.4934 83.3469 79.0391C85.0907 80.0142 86.6775 81.2469 88.0535 82.6955C86.6201 85.2175 78.9546 96.4858 76.379 99.5213V99.483ZM90.4528 83.83C86.0068 79.683 84.1901 78.7325 83.6305 78.5178C85.7859 74.0088 87.1621 69.1673 87.7009 64.1987C89.9239 65.9234 92.2235 67.6175 94.2779 69.4955C93.8333 71.5882 91.3957 80.9325 90.4528 83.83ZM93.864 23.6482C113.311 32.4635 123.759 53.4286 116.378 75.6969C112.598 74.0642 98.057 69.6258 94.7302 69.1123C93.795 68.2231 89.3643 64.7812 87.7775 63.5778C87.7775 63.2098 87.7162 64.283 88.3295 56.8398C88.3295 56.7555 90.0389 48.2544 90.7594 46.3994C91.1457 45.4183 91.615 44.472 92.1622 43.5708C93.0582 41.9504 93.3308 40.0584 92.9288 38.2509C92.779 37.6772 92.5186 37.1381 92.1622 36.6642C92.9403 35.9019 93.474 34.9252 93.6953 33.8586C93.9023 32.2412 93.0974 30.6698 92.3155 29.313C92.8913 28.4068 93.219 27.3654 93.2661 26.2928C93.2451 25.886 93.1296 25.4897 92.9288 25.1353C93.3301 24.7076 93.6381 24.2012 93.8333 23.6482H93.864ZM62.2208 21.6628C64.5204 18.405 69.1197 19.2252 73.0061 20.0071C77.7018 20.9646 82.2704 22.4643 86.6201 24.476C86.6689 24.5015 86.7257 24.5064 86.7782 24.4899C86.8307 24.4734 86.8744 24.4367 86.8998 24.3879C86.9253 24.3391 86.9302 24.2822 86.9137 24.2297C86.8972 24.1773 86.8605 24.1335 86.8117 24.1081C82.606 22.04 78.1627 20.4954 73.581 19.5088C71.3964 19.0412 68.7824 18.497 66.5135 18.7423C69.1268 16.2841 72.4517 14.7169 76.011 14.2656C78.441 13.959 79.1385 14.4572 79.7978 13.637C80.125 13.1838 80.5492 12.8093 81.0396 12.5409C82.3044 11.8816 84.1518 11.7743 86.3594 13.0315C87.551 13.7138 88.6911 14.4824 89.7706 15.3311C90.8525 16.114 91.8111 17.0545 92.6145 18.1213C93.3688 19.1175 93.7315 20.3558 93.634 21.6015C93.5977 22.6955 93.2107 23.749 92.5302 24.6064C92.2304 24.2602 91.9022 23.9397 91.549 23.6482C89.7246 22.1151 83.5922 17.7917 82.3504 17.0328C82.2985 17.0003 82.2359 16.9897 82.1762 17.0034C82.1166 17.017 82.0648 17.0538 82.0323 17.1057C81.9997 17.1575 81.9891 17.2202 82.0028 17.2798C82.0164 17.3395 82.0532 17.3913 82.1051 17.4238C83.8451 18.5123 89.211 22.529 90.5371 23.6558C91.3957 24.3687 92.2235 25.0126 92.4688 25.7715C92.8368 26.9443 92.1622 28.0712 91.7023 29.1597C91.6792 29.2108 91.6727 29.2678 91.6837 29.3228C91.6947 29.3778 91.7226 29.428 91.7636 29.4663C92.4535 30.7081 93.2507 32.4482 93.0284 33.8586C92.8142 34.7323 92.3602 35.5288 91.7176 36.1583C88.5748 32.4175 81.0856 28.2245 76.103 26.3464C70.2619 24.1158 62.8877 24.1081 60.8793 24.9436C61.0832 23.7657 61.5409 22.6462 62.2208 21.6628ZM60.6877 23.1269C60.4452 23.8439 60.2757 24.5836 60.1818 25.3346C59.5915 25.5799 59.0626 26.5764 58.6487 28.1785C58.1504 30.3095 57.7135 32.1492 58.779 33.9506C59.2602 34.7367 59.9327 35.388 60.7337 35.844C60.6417 36.6105 60.404 39.4084 60.427 40.5736L58.411 40.5276H58.3574C58.2077 40.5572 58.0703 40.6308 57.9627 40.739C57.8551 40.8472 57.7822 40.985 57.7534 41.1348C57.7246 41.2846 57.7411 41.4397 57.8009 41.58C57.8607 41.7204 57.9611 41.8397 58.0891 41.9227C58.0552 43.5708 58.1527 45.219 58.3804 46.8516C58.4968 47.4394 58.7731 47.9836 59.1788 48.4245C59.5845 48.8653 60.104 49.1858 60.68 49.3506C60.4667 52.1141 61.0267 54.8824 62.2974 57.3457C63.4868 59.6472 65.4854 61.4274 67.9086 62.3436C68.6751 62.5966 68.6751 62.5659 68.7518 62.9799C68.7518 62.9799 69.0737 64.9116 69.181 65.4941C66.918 65.8685 64.86 67.0305 63.3706 68.775C54.4605 70.4693 45.9427 73.8042 38.2508 78.6098C36.0602 73.4944 34.904 67.996 34.8488 62.4316C34.7937 56.8672 35.8406 51.3469 37.9292 46.1891C40.0179 41.0313 43.1069 36.3379 47.0182 32.3797C50.9295 28.4216 55.5857 25.2768 60.7183 23.1269H60.6877ZM36.7943 10.5555C37.2466 10.5095 37.1929 9.82728 36.7943 9.88093C35.0006 9.93459 28.1246 10.1646 26.2696 10.1492C26.2186 10.1588 26.1727 10.1859 26.1396 10.2258C26.1065 10.2657 26.0884 10.3159 26.0884 10.3677C26.0884 10.4195 26.1065 10.4697 26.1396 10.5096C26.1727 10.5495 26.2186 10.5766 26.2696 10.5862C27.9866 10.6705 35.0466 10.7318 36.7943 10.5555ZM36.0278 12.3646C35.3302 12.3646 27.979 12.9395 26.5072 12.9625C26.4483 12.9625 26.3917 12.9859 26.35 13.0276C26.3083 13.0693 26.2849 13.1258 26.2849 13.1848C26.2849 13.2437 26.3083 13.3003 26.35 13.342C26.3917 13.3836 26.4483 13.4071 26.5072 13.4071C27.703 13.4071 35.1922 13.2078 36.1044 13.0315C36.1862 13.0138 36.2585 12.9663 36.3073 12.8982C36.356 12.8302 36.3777 12.7464 36.3682 12.6633C36.3586 12.5801 36.3185 12.5035 36.2556 12.4483C36.1927 12.3931 36.1115 12.3632 36.0278 12.3646ZM37.2466 15.3924C37.2466 15.3924 27.841 15.745 26.9441 15.7527C26.8856 15.763 26.8325 15.7937 26.7942 15.8392C26.756 15.8848 26.735 15.9424 26.735 16.0018C26.735 16.0613 26.756 16.1189 26.7942 16.1645C26.8325 16.21 26.8856 16.2406 26.9441 16.251C30.3936 16.251 33.8431 16.3813 37.2696 16.1053C37.3549 16.0903 37.432 16.0449 37.4867 15.9776C37.5413 15.9103 37.5698 15.8256 37.5671 15.7389C37.5643 15.6523 37.5303 15.5695 37.4714 15.5059C37.4126 15.4422 37.3327 15.402 37.2466 15.3924ZM88.9197 129.716L88.3525 129.424C88.3326 129.413 88.3102 129.407 88.2873 129.407C88.2644 129.407 88.242 129.413 88.2221 129.424C87.4795 130.055 86.8831 130.84 86.4744 131.724C86.4631 131.752 86.4623 131.783 86.4722 131.811C86.4821 131.839 86.502 131.863 86.5281 131.877C87.0756 132.162 87.682 132.314 88.2988 132.322C90.3378 132.322 91.6256 130.574 92.7755 128.949C93.772 127.523 95.0214 125.753 94.4005 124.036C94.188 123.462 93.8188 122.96 93.335 122.587C93.3152 122.568 93.2892 122.558 93.2622 122.558C93.2352 122.558 93.2092 122.568 93.1894 122.587C92.3978 123.188 91.7703 123.979 91.365 124.886C91.3525 124.904 91.3458 124.926 91.3458 124.948C91.3458 124.97 91.3525 124.991 91.365 125.009L91.9859 125.599C91.2691 127.174 90.2236 128.578 88.9197 129.716ZM87.011 128.704C86.4886 129.295 86.0191 129.931 85.6082 130.605C85.4089 131.042 85.9915 131.256 86.1448 130.988C86.5733 130.327 87.0445 129.695 87.5553 129.095C87.7162 128.926 87.3866 128.451 87.011 128.704ZM90.8744 124.327C90.9226 124.328 90.9704 124.319 91.0143 124.299C91.0581 124.279 91.0968 124.249 91.1274 124.212C91.5584 123.553 92.0294 122.92 92.5378 122.318C92.7065 122.142 92.3769 121.675 91.9859 121.935C91.4687 122.524 91.0044 123.158 90.5985 123.829C90.569 123.878 90.5529 123.934 90.552 123.992C90.5511 124.05 90.5653 124.107 90.5933 124.157C90.6212 124.207 90.6618 124.25 90.7112 124.279C90.7605 124.309 90.8168 124.326 90.8744 124.327ZM113.741 114.515C113.789 114.516 113.838 114.505 113.882 114.484C113.925 114.462 113.964 114.431 113.994 114.392C114.023 114.354 114.044 114.309 114.053 114.261C114.062 114.213 114.06 114.163 114.047 114.116L114.224 108.751C114.224 108.337 114.262 107.823 113.787 107.555C113.311 107.286 38.2967 107.11 38.3811 107.11C38.3547 107.111 38.3291 107.119 38.3064 107.132C38.2836 107.146 38.2645 107.164 38.2508 107.187C38.015 109.222 37.9203 111.271 37.9671 113.319C38.0568 113.505 38.201 113.659 38.3805 113.76C38.5599 113.861 38.7661 113.905 38.9713 113.886C40.0215 113.886 113.741 114.515 113.741 114.515ZM113.587 108.766C113.587 108.942 113.587 108.835 113.449 113.863C109.862 113.756 39.2779 113.204 38.749 113.174C38.5114 113.089 38.5114 112.859 38.5267 112.499L38.6724 107.754C42.4361 107.861 113.104 108.045 113.396 108.068C113.687 108.091 113.61 108.406 113.587 108.766ZM45.0271 136.875C45.1165 136.875 45.2023 136.84 45.2656 136.776C45.3288 136.713 45.3643 136.627 45.3643 136.538C45.3643 136.449 45.3288 136.363 45.2656 136.299C45.2023 136.236 45.1165 136.201 45.0271 136.201C43.31 136.3 36.3574 136.492 34.5023 136.469C34.4514 136.479 34.4054 136.506 34.3723 136.546C34.3392 136.585 34.3211 136.636 34.3211 136.687C34.3211 136.739 34.3392 136.789 34.3723 136.829C34.4054 136.869 34.4514 136.896 34.5023 136.906C36.2117 136.99 43.2563 137.044 45.0271 136.875ZM44.2222 138.684C43.5323 138.684 36.1811 139.259 34.7016 139.282C34.6427 139.282 34.5861 139.306 34.5444 139.347C34.5027 139.389 34.4793 139.446 34.4793 139.505C34.4793 139.564 34.5027 139.62 34.5444 139.662C34.5861 139.703 34.6427 139.727 34.7016 139.727C36.0891 139.727 43.4173 139.52 44.2988 139.351C44.3806 139.334 44.453 139.286 44.5017 139.218C44.5505 139.15 44.5722 139.066 44.5626 138.983C44.553 138.9 44.5129 138.823 44.45 138.768C44.3871 138.713 44.3059 138.683 44.2222 138.684ZM45.464 141.72C45.464 141.72 36.0738 142.065 35.1539 142.072C35.0953 142.083 35.0422 142.113 35.004 142.159C34.9658 142.205 34.9448 142.262 34.9448 142.322C34.9448 142.381 34.9658 142.439 35.004 142.484C35.0422 142.53 35.0953 142.56 35.1539 142.571C38.588 142.571 42.0528 142.701 45.4717 142.425C45.518 142.425 45.5637 142.415 45.6063 142.397C45.6489 142.379 45.6875 142.352 45.7199 142.319C45.7523 142.286 45.7778 142.247 45.7951 142.204C45.8123 142.161 45.8209 142.115 45.8204 142.069C45.8199 142.022 45.8103 141.977 45.7921 141.934C45.7739 141.891 45.7475 141.853 45.7144 141.82C45.6813 141.788 45.6422 141.762 45.5992 141.745C45.5562 141.728 45.5103 141.719 45.464 141.72ZM69.4417 136.875C69.5311 136.875 69.6169 136.84 69.6802 136.776C69.7434 136.713 69.779 136.627 69.779 136.538C69.779 136.449 69.7434 136.363 69.6802 136.299C69.6169 136.236 69.5311 136.201 69.4417 136.201C67.7093 136.293 60.7643 136.492 58.9169 136.469C58.866 136.479 58.82 136.506 58.7869 136.546C58.7539 136.585 58.7357 136.636 58.7357 136.687C58.7357 136.739 58.7539 136.789 58.7869 136.829C58.82 136.869 58.866 136.896 58.9169 136.906C60.634 136.99 67.6633 137.044 69.4417 136.875ZM68.6368 138.684C67.9469 138.684 60.5957 139.259 59.1162 139.282C59.0573 139.282 59.0007 139.306 58.9591 139.347C58.9174 139.389 58.8939 139.446 58.8939 139.505C58.8939 139.564 58.9174 139.62 58.9591 139.662C59.0007 139.703 59.0573 139.727 59.1162 139.727C60.496 139.727 67.8242 139.52 68.7058 139.351C68.7869 139.334 68.8587 139.287 68.9074 139.22C68.9562 139.152 68.9784 139.069 68.9698 138.987C68.9613 138.904 68.9226 138.828 68.8611 138.772C68.7997 138.716 68.7198 138.685 68.6368 138.684ZM69.8863 141.72C69.8863 141.72 60.4884 142.065 59.5762 142.072C59.5176 142.083 59.4645 142.113 59.4263 142.159C59.388 142.205 59.3671 142.262 59.3671 142.322C59.3671 142.381 59.388 142.439 59.4263 142.484C59.4645 142.53 59.5176 142.56 59.5762 142.571C63.0103 142.571 66.4751 142.701 69.8939 142.425C69.9875 142.424 70.0767 142.386 70.1422 142.319C70.2076 142.252 70.2437 142.162 70.2427 142.069C70.2417 141.975 70.2036 141.886 70.1367 141.82C70.0699 141.755 69.9798 141.719 69.8863 141.72ZM94.6075 136.875C94.697 136.875 94.7828 136.84 94.846 136.776C94.9093 136.713 94.9448 136.627 94.9448 136.538C94.9448 136.449 94.9093 136.363 94.846 136.299C94.7828 136.236 94.697 136.201 94.6075 136.201C92.8751 136.3 85.9378 136.492 84.0751 136.469C84.0242 136.479 83.9782 136.506 83.9451 136.546C83.912 136.585 83.8939 136.636 83.8939 136.687C83.8939 136.739 83.912 136.789 83.9451 136.829C83.9782 136.869 84.0242 136.896 84.0751 136.906C85.7998 136.99 92.8291 137.044 94.6075 136.875ZM93.8026 138.684C93.1204 138.684 85.7615 139.259 84.2897 139.282C84.2308 139.282 84.1742 139.306 84.1326 139.347C84.0909 139.389 84.0674 139.446 84.0674 139.505C84.0674 139.564 84.0909 139.62 84.1326 139.662C84.1742 139.703 84.2308 139.727 84.2897 139.727C85.6695 139.727 92.9978 139.52 93.887 139.351C93.9697 139.334 94.0428 139.286 94.0918 139.217C94.1408 139.148 94.1621 139.063 94.1515 138.979C94.1409 138.895 94.0991 138.818 94.0345 138.764C93.9699 138.709 93.8871 138.681 93.8026 138.684ZM95.0521 141.72C95.0521 141.72 85.6542 142.065 84.742 142.072C84.6834 142.083 84.6304 142.113 84.5921 142.159C84.5539 142.205 84.5329 142.262 84.5329 142.322C84.5329 142.381 84.5539 142.439 84.5921 142.484C84.6304 142.53 84.6834 142.56 84.742 142.571C88.1762 142.571 91.641 142.701 95.0598 142.425C95.1533 142.424 95.2426 142.386 95.308 142.319C95.3734 142.252 95.4096 142.162 95.4086 142.069C95.4075 141.975 95.3694 141.886 95.3026 141.82C95.2357 141.755 95.1456 141.719 95.0521 141.72ZM119.083 136.875C119.173 136.875 119.259 136.84 119.322 136.776C119.385 136.713 119.421 136.627 119.421 136.538C119.421 136.449 119.385 136.363 119.322 136.299C119.259 136.236 119.173 136.201 119.083 136.201C117.366 136.293 110.414 136.492 108.551 136.469C108.5 136.479 108.454 136.506 108.421 136.546C108.388 136.585 108.37 136.636 108.37 136.687C108.37 136.739 108.388 136.789 108.421 136.829C108.454 136.869 108.5 136.896 108.551 136.906C110.276 136.99 117.282 137.044 119.083 136.875ZM118.279 138.684C117.596 138.684 110.237 139.259 108.766 139.282C108.707 139.282 108.65 139.306 108.608 139.347C108.567 139.389 108.543 139.446 108.543 139.505C108.543 139.564 108.567 139.62 108.608 139.662C108.65 139.703 108.707 139.727 108.766 139.727C110.145 139.727 117.474 139.52 118.363 139.351C118.446 139.334 118.519 139.286 118.568 139.217C118.617 139.148 118.638 139.063 118.627 138.979C118.617 138.895 118.575 138.818 118.51 138.764C118.446 138.709 118.363 138.681 118.279 138.684ZM119.528 141.72C119.528 141.72 110.13 142.065 109.218 142.072C109.159 142.083 109.106 142.113 109.068 142.159C109.03 142.205 109.009 142.262 109.009 142.322C109.009 142.381 109.03 142.439 109.068 142.484C109.106 142.53 109.159 142.56 109.218 142.571C112.644 142.571 116.117 142.701 119.536 142.425C119.629 142.424 119.719 142.386 119.784 142.319C119.849 142.252 119.886 142.162 119.884 142.069C119.883 141.975 119.845 141.886 119.779 141.82C119.712 141.755 119.622 141.719 119.528 141.72ZM46.6138 132.652L44.8354 132.613C44.8354 131.709 44.7741 129.378 44.7434 128.658C44.9744 128.465 45.1235 128.191 45.1605 127.892C45.1975 127.593 45.1197 127.292 44.9427 127.048C44.8737 126.948 44.9427 126.971 42.7734 127.048V125.515C42.9082 125.324 42.9988 125.105 43.0385 124.874C43.0783 124.643 43.0663 124.407 43.0034 124.181C42.9947 124.147 42.9748 124.118 42.9469 124.097C42.919 124.076 42.8849 124.065 42.8501 124.066L40.1211 124.151C40.0751 123.568 39.8758 121.475 39.7992 121.337C39.7469 121.238 39.6595 121.161 39.5539 121.123C40.5044 119.751 39.0096 119.268 39.3009 118.562C39.4236 118.263 38.979 118.056 38.8027 118.332C38.3716 118.91 38.04 119.555 37.8215 120.241C37.8282 120.445 37.8848 120.643 37.9864 120.82C38.088 120.996 38.2314 121.145 38.4041 121.253C38.2928 121.297 38.199 121.377 38.1368 121.479C38.0745 121.581 38.0473 121.701 38.0591 121.82V124.204L35.8744 124.273C35.8429 124.274 35.8124 124.284 35.7876 124.304C35.7627 124.323 35.7448 124.35 35.7365 124.381C35.6521 124.627 35.6318 124.89 35.6774 125.146C35.723 125.402 35.833 125.643 35.9971 125.845C35.9971 126.282 36.0508 126.879 36.0967 127.309C33.8891 127.401 33.9734 127.37 33.9044 127.447C33.3525 128.106 32.9999 129.248 33.6515 129.746V132.529H32.3637C32.3006 132.529 32.2402 132.554 32.1956 132.599C32.1511 132.643 32.126 132.704 32.126 132.767C32.126 132.83 32.1511 132.89 32.1956 132.935C32.2402 132.979 32.3006 133.004 32.3637 133.004C32.448 133.004 46.5142 133.173 46.6445 133.158C46.7116 133.153 46.7743 133.123 46.8189 133.073C46.8634 133.022 46.8862 132.956 46.8821 132.889C46.878 132.822 46.8475 132.759 46.7972 132.715C46.7469 132.67 46.6809 132.648 46.6138 132.652ZM39.5692 124.181H38.611V121.759C38.8595 121.684 39.1181 121.648 39.3776 121.652C39.3929 121.974 39.5309 123.683 39.5692 124.181ZM38.3887 120.195C38.5259 119.889 38.6874 119.594 38.8717 119.314C39.1246 119.804 39.4926 120.08 39.2779 120.563C39.1856 120.731 39.075 120.887 38.9483 121.031C38.611 120.793 38.3274 120.517 38.3887 120.18V120.195ZM38.2201 125.599C38.3233 125.817 38.4861 126.001 38.6896 126.13C38.8932 126.258 39.1291 126.327 39.3699 126.327C39.6108 126.327 39.8467 126.258 40.0502 126.13C40.2538 126.001 40.4166 125.817 40.5197 125.599C40.7269 125.798 40.9828 125.937 41.2615 126.005C41.5402 126.072 41.8317 126.064 42.1065 125.983V127.109L36.6333 127.324C36.6333 126.948 36.595 126.558 36.5643 126.205C36.8707 126.262 37.1869 126.235 37.4787 126.125C37.7706 126.016 38.0269 125.829 38.2201 125.584V125.599ZM34.2264 132.498V129.915C34.57 129.941 34.9152 129.892 35.2381 129.771C35.561 129.651 35.8539 129.462 36.0967 129.217C36.378 129.47 36.7424 129.609 37.1201 129.609C37.4978 129.609 37.8622 129.47 38.1434 129.217C39.0326 130.191 40.3664 129.739 41.1023 128.658C41.2478 128.864 41.4378 129.035 41.6584 129.157C41.8789 129.28 42.1243 129.351 42.3762 129.366C42.6281 129.381 42.8801 129.339 43.1134 129.243C43.3468 129.146 43.5554 128.999 43.7239 128.811C43.8863 128.854 44.0551 128.867 44.2222 128.849C44.2222 129.662 44.2222 131.716 44.2758 132.575C41.9225 132.56 35.7671 132.514 34.2264 132.514V132.498Z" fill="black"/>
<path d="M137.933 46.177C136.722 45.3185 137.58 45.4104 135.817 39.6077C135.219 37.6376 134.553 35.269 132.751 34.5101C132.751 28.7916 132.751 4.96727 132.79 4.15472C132.821 4.10333 132.838 4.04444 132.839 3.98416C132.84 3.92389 132.825 3.86444 132.795 3.812C132.766 3.75956 132.722 3.71606 132.67 3.68601C132.618 3.65596 132.559 3.64046 132.498 3.64113C118.01 3.64113 27.9485 4.04741 19.9611 4.13939C19.9128 4.14039 19.8654 4.15278 19.8228 4.17555C19.7802 4.19832 19.7436 4.23083 19.716 4.27043C19.6883 4.31003 19.6704 4.3556 19.6637 4.40343C19.657 4.45126 19.6617 4.49999 19.6774 4.54566C19.4858 14.6258 19.2098 69.6641 19.1408 90.6522C15.0733 94.2251 11.8792 98.6831 9.80426 103.684C6.0635 112.829 5.8412 119.781 9.15269 124.25C11.345 127.24 15.722 130.597 19.1945 129.056C19.0872 143.667 19.0565 147.937 19.1408 149.171C19.1792 149.746 19.2482 149.661 19.3325 149.661C19.4168 149.661 127.47 149.462 132.261 149.408C132.321 149.408 132.379 149.392 132.431 149.361C132.482 149.33 132.524 149.285 132.552 149.232C132.59 149.155 132.759 114.975 132.889 105.907C133.824 105.881 134.741 105.64 135.568 105.203C136.395 104.765 137.11 104.143 137.657 103.385C139.534 101.036 141.082 98.441 142.256 95.6731C143.989 91.1122 145.238 87.8237 145.967 82.7261C147.576 71.4961 145.162 59.2313 140.309 49.0592C139.443 47.2272 139.566 47.3345 137.933 46.177ZM16.8642 123.921C15.4231 123.254 14.1123 120.249 14.6412 117.658C15.0582 115.956 16.0026 114.429 17.3394 113.296C17.9501 112.691 18.6204 112.149 19.3401 111.679V114.323C18.7663 114.717 18.2503 115.189 17.807 115.726C17.7726 115.78 17.7595 115.846 17.7702 115.909C17.781 115.973 17.8148 116.03 17.8653 116.07C17.9158 116.11 17.9792 116.13 18.0435 116.126C18.1078 116.122 18.1682 116.094 18.2133 116.048C18.9666 115.305 19.8334 114.686 20.7813 114.216C21.4482 113.917 21.5861 114.055 21.4252 114.676C21.2866 115.423 20.9196 116.109 20.375 116.638C19.8313 117.076 19.2303 117.437 18.5889 117.711C18.2418 117.86 17.9127 118.048 17.6077 118.271C17.5672 118.312 17.5428 118.365 17.5388 118.423C17.5348 118.48 17.5517 118.536 17.5862 118.582C17.6208 118.628 17.6707 118.66 17.7267 118.671C17.7828 118.683 17.8413 118.674 17.8914 118.647C18.5046 118.24 20.4286 117.642 21.4865 116.899C22.253 116.37 22.322 116.769 22.0614 117.558C21.5248 119.145 19.6621 119.965 18.4279 120.962C18.3851 121.005 18.3586 121.062 18.3533 121.122C18.3479 121.183 18.3638 121.243 18.3984 121.293C18.433 121.343 18.484 121.38 18.5426 121.396C18.6012 121.413 18.6637 121.408 18.7192 121.383C19.0642 121.192 19.4091 120.954 19.8997 120.617C20.3903 120.279 21.7778 119.582 22.2837 119.85C22.3408 119.876 22.3893 119.919 22.4232 119.972C22.4572 120.025 22.4753 120.086 22.4753 120.149C22.552 120.701 22.0921 121.238 21.6245 121.835C19.4781 124.58 17.7074 124.327 16.8642 123.921ZM131.962 148.711C125.293 148.749 24.9283 149.002 19.7081 149.063C19.7694 146.879 19.7081 133.065 19.7464 124.342C20.7882 123.55 21.7486 122.657 22.6133 121.674C22.8279 121.376 23.4948 120.341 22.9736 119.528C22.8572 119.354 22.6914 119.218 22.4974 119.139C22.3034 119.06 22.0902 119.041 21.8851 119.084C22.4139 118.534 22.7478 117.825 22.8356 117.068C22.8356 116.83 22.9046 116.301 22.4523 116.079C22.294 116.027 22.1258 116.012 21.9609 116.036C21.796 116.06 21.6389 116.122 21.5018 116.217C21.5708 116.109 21.6245 116.002 21.6858 115.887C21.9617 115.343 22.345 114.093 22.0384 113.633C21.6168 113.012 20.5436 113.526 19.8997 113.909C19.9457 42.3136 20.3137 16.6878 20.2753 4.7373C27.6879 4.7373 127.523 4.33103 132.192 4.30037C132.13 8.55472 132.031 37.8293 132.031 37.8293C130.758 38.0386 129.539 38.497 128.443 39.1784C128.144 39.323 127.893 39.5522 127.723 39.8376C127.665 39.9377 127.629 40.049 127.617 40.1641C127.606 40.2791 127.619 40.3954 127.656 40.5049C127.693 40.6145 127.753 40.7149 127.832 40.7994C127.911 40.884 128.007 40.9507 128.114 40.9951C127.799 41.1842 127.536 41.4474 127.347 41.7617C127.27 42.0594 127.306 42.3749 127.448 42.6478C127.589 42.9208 127.826 43.132 128.114 43.2411C127.301 43.9693 127.462 45.2495 129.102 45.4871C130.101 45.6272 131.117 45.5831 132.1 45.3568C132.552 52.1254 131.885 144.38 131.962 148.711ZM132.882 46.9972C132.836 46.4376 132.782 45.8474 132.713 45.2188C133.204 45.0698 133.681 44.8774 134.139 44.6439C134.461 44.4829 134.2 44 133.878 44.161C132.658 44.7279 131.32 44.9909 129.976 44.9275C129.478 44.9275 128.642 44.9275 128.443 44.4446C128.244 43.9617 128.727 43.6014 129.056 43.5094C130.503 43.7258 131.98 43.4562 133.257 42.7428C133.318 42.7103 133.364 42.6549 133.384 42.5888C133.404 42.5226 133.397 42.4512 133.364 42.3902C133.332 42.3292 133.276 42.2837 133.21 42.2635C133.144 42.2434 133.073 42.2504 133.012 42.2829C131.859 42.8366 130.569 43.0392 129.302 42.8655C128.397 42.7428 127.976 42.4899 127.991 42.0989C127.991 41.915 128.757 41.3324 129.064 41.2021C130.422 41.3948 131.8 41.3948 133.157 41.2021C133.502 41.1561 133.456 40.6272 133.111 40.6732C132.084 40.8035 128.788 40.7192 128.474 40.4432C128.441 40.4216 128.413 40.3921 128.394 40.3573C128.376 40.3225 128.366 40.2835 128.366 40.2439C128.366 40.2043 128.376 40.1653 128.394 40.1305C128.413 40.0957 128.441 40.0662 128.474 40.0446C129.286 39.2014 132.184 38.3505 132.958 38.2279C133.019 38.2208 133.075 38.1897 133.113 38.1415C133.151 38.0934 133.168 38.0321 133.161 37.9711C133.154 37.9101 133.123 37.8544 133.075 37.8163C133.027 37.7782 132.965 37.7608 132.905 37.7679H132.774V35.154C134.154 35.9742 134.691 37.8523 135.12 39.37C137.052 46.108 135.948 45.6634 137.918 46.9895C138.232 47.1886 138.525 47.4198 138.792 47.6794C136.837 48.8906 134.622 48.446 132.882 47.0202V46.9972Z" fill="black"/>
<path d="M82.3661 84.0063C82.1887 84.0063 82.0153 84.0589 81.8678 84.1575C81.7203 84.256 81.6054 84.3961 81.5375 84.56C81.4696 84.7239 81.4518 84.9042 81.4864 85.0782C81.521 85.2522 81.6065 85.412 81.7319 85.5374C81.8573 85.6628 82.0171 85.7482 82.1911 85.7828C82.3651 85.8174 82.5454 85.7997 82.7093 85.7318C82.8732 85.6639 83.0132 85.549 83.1118 85.4015C83.2103 85.254 83.2629 85.0806 83.2629 84.9032C83.2629 84.6654 83.1684 84.4372 83.0002 84.269C82.832 84.1008 82.6039 84.0063 82.3661 84.0063ZM79.7215 88.391C79.5244 88.391 79.3317 88.4495 79.1678 88.559C79.004 88.6685 78.8762 88.8241 78.8008 89.0062C78.7254 89.1883 78.7056 89.3886 78.7441 89.5819C78.7826 89.7752 78.8775 89.9528 79.0168 90.0922C79.1562 90.2315 79.3338 90.3264 79.5271 90.3649C79.7204 90.4033 79.9207 90.3836 80.1028 90.3082C80.2849 90.2328 80.4405 90.105 80.55 89.9412C80.6595 89.7773 80.718 89.5846 80.718 89.3875C80.718 89.1232 80.613 88.8698 80.4261 88.6829C80.2392 88.496 79.9858 88.391 79.7215 88.391ZM77.3452 92.2391C77.1936 92.2391 77.0454 92.2841 76.9193 92.3683C76.7932 92.4525 76.695 92.5722 76.637 92.7123C76.5789 92.8524 76.5638 93.0065 76.5933 93.1552C76.6229 93.3039 76.6959 93.4405 76.8031 93.5477C76.9103 93.6549 77.0469 93.7279 77.1956 93.7575C77.3443 93.787 77.4984 93.7719 77.6385 93.7138C77.7786 93.6558 77.8983 93.5576 77.9825 93.4315C78.0668 93.3055 78.1117 93.1573 78.1117 93.0056C78.1117 92.8023 78.031 92.6074 77.8872 92.4636C77.7434 92.3199 77.5485 92.2391 77.3452 92.2391Z" fill="black"/>
</svg>
