<svg width="154" height="154" viewBox="0 0 154 154" fill="none" xmlns="http://www.w3.org/2000/svg">
<path d="M13.4974 121.072C10.4803 121.484 7.6172 121.957 4.97567 122.496C4.66445 122.56 4.36013 122.685 4.0673 122.814C3.87183 122.899 3.80974 123.053 3.83964 123.203C3.93546 123.692 8.04111 123.011 14.3552 122.197C14.0524 121.862 13.7649 121.485 13.4974 121.072Z" fill="black"/>
<path d="M148.839 121.024C148.455 120.99 136.607 120.156 119.56 119.412C119.523 119.866 119.48 120.298 119.427 120.709C131.976 121.238 142.359 121.764 148.908 121.908C149.73 121.925 149.62 121.095 148.839 121.024Z" fill="black"/>
<path d="M66.4544 38.3964C66.9918 38.4194 73.1234 31.1747 74.98 28.6183C75.6691 27.6685 75.6208 27.2461 74.5599 28.2181C72.1399 30.435 65.0631 38.3366 66.4544 38.3964Z" fill="black"/>
<path d="M23.7269 33.9245C23.4678 33.8517 23.1834 34.1069 23.4287 34.3507C23.4448 34.3668 33.4813 43.225 34.1727 43.2021C36.1558 43.1369 23.9347 33.9828 23.7269 33.9245Z" fill="black"/>
<path d="M46.2344 24.0152C46.2382 25.8994 46.9235 32.8183 47.5551 35.9627C47.7767 37.0665 48.4374 36.9853 48.4374 36.1681C48.5218 36.162 47.5214 27.4892 46.8706 24.4491C46.5755 23.0716 46.2328 23.1881 46.2344 24.0152Z" fill="black"/>
<path d="M28.6328 59.3946C24.3577 58.5867 21.5959 58.2118 20.2383 58.139C18.8593 58.0646 18.8792 58.6058 20.2858 59.0144C21.7193 59.4306 24.5915 59.7196 28.6811 60.3451C30.4342 60.6134 30.7393 59.7932 28.6328 59.3946Z" fill="black"/>
<path d="M146.72 110.831C146.686 107.21 144.742 102.883 143.924 101.599C143.744 101.316 142.002 98.6097 141.582 98.2027C140.97 97.6101 141.8 96.9616 141.209 96.0548C140.886 95.5581 141.56 95.4331 141.504 94.5179C141.432 93.3566 140.544 93.6724 140.701 93.2768C140.983 92.5647 141.231 92.6253 142.752 90.2321C143.242 89.4617 143.619 88.7879 143.019 88.2406C141.291 86.6623 141.199 87.5599 141.036 87.0501C140.324 84.8271 138.318 84.0882 136.837 84.9529C136.635 85.0709 136.614 84.8908 136.474 84.6018C135.974 83.5677 134.899 82.6954 133.672 82.6869C132.445 82.6785 132.32 83.3784 132.068 82.9851C130.665 80.7936 127.075 81.4191 126.662 84.4584C126.614 84.8164 126.534 84.7198 125.493 84.9552C124.206 85.2457 123.331 85.2626 123.628 86.1617C124.129 87.6825 124.684 89.2931 125.44 90.6031C125.611 90.899 125.233 90.8292 124.958 91.2577C124.397 92.1308 125.15 92.4497 124.719 92.6092C123.635 93.0093 124.058 93.703 123.761 93.8203C123.748 93.8257 122.561 94.4037 120.864 95.4469C120.717 102.961 120.378 109.62 119.909 114.703C119.62 117.829 119.621 120.26 119.175 122.141C119.553 122.397 119.933 122.628 120.311 122.833C123.786 124.718 128.215 125.471 132.169 125.477C137.524 125.486 140.43 124.817 144.197 120.461C145.718 118.703 146.396 116.075 146.649 113.732C146.874 111.656 146.737 112.684 146.719 110.829L146.72 110.831ZM139.573 86.1012C140.516 87.1207 140.438 88.1846 140.516 88.8968C140.555 89.2616 140.253 89.2287 139.299 89.3996C137.974 89.3023 137.337 88.9573 136.086 88.1831C135.897 88.0666 135.836 88.0076 135.912 87.7147C136.408 85.8129 138.343 84.7727 139.573 86.1012ZM131.955 85.2173C132.107 84.5397 132.513 84.0598 133.128 83.7632C134.733 82.9913 135.732 85.0464 135.963 85.3898C136.17 85.6972 135.568 85.7922 135.143 87.2065C135.082 87.4081 134.92 87.3338 134.484 87.0111C132.341 85.4289 131.826 85.7884 131.955 85.2173ZM127.725 84.0974C128.99 81.1247 131.903 83.3807 131.529 83.8743C131.023 84.5405 131.159 85.2373 130.744 85.1023C128.317 84.3136 127.271 85.1644 127.725 84.0974ZM132.521 117.999C132.084 118.003 132.513 118.473 131.891 119.527C131.6 120.023 130.949 120.011 130.68 119.507C130.507 119.184 130.363 118.847 130.491 118.466C130.888 117.289 129.572 118.442 127.264 115.927C126.644 115.252 127.187 114.293 127.959 114.613C128.492 114.834 128.915 115.561 130.418 116.157C131.935 116.758 134.28 116.449 135.351 115.215C135.768 114.736 135.853 113.675 135.443 113.089C133.942 110.945 131.006 112.109 128.904 109.839C126.593 107.343 129.06 104.187 132.247 103.776C132.602 103.73 132.373 103.519 132.625 102.366C132.869 101.246 134.51 101.424 134.311 102.648C134.095 103.978 134.129 103.999 134.382 104.094C138.22 105.519 137.268 108.163 136.348 107.356C136.019 107.069 135.482 105.707 133.396 105.341C132.014 105.099 130.816 105.485 129.921 106.604C129.358 107.309 129.353 107.992 129.956 108.694C131.673 110.701 135.539 109.502 137.038 112.827C137.204 113.196 137.171 113.36 137.171 113.98C137.336 116.414 134.797 117.98 132.521 118V117.999ZM125.651 95.2584C125.206 94.905 124.535 94.1476 124.807 93.6494C125.017 93.2638 124.837 93.47 125.216 93.0568C125.766 93.6248 125.628 93.7651 126.953 94.5692C129.727 96.2526 132.678 96.714 135.916 96.9264C139.771 97.1801 140.475 95.9759 140.605 96.386C141.612 99.5656 130.085 98.7822 125.651 95.2584ZM139.757 95.6148C134.694 97.2729 123.343 93.6156 125.93 91.4455C126.01 91.3789 126.066 91.385 126.139 91.4501C128.624 93.6793 134.669 95.4876 139.599 94.2917C140.442 94.0871 140.306 93.7544 140.601 94.025C141.021 94.4075 140.601 95.3381 139.757 95.6148Z" fill="black"/>
<path d="M37.1999 96.7133C35.029 95.3044 34.4004 95.4102 34.3782 94.9901C34.3506 94.4497 34.0608 94.1937 33.5495 94.0197C33.0789 93.8602 33.8684 93.7361 33.341 92.6683C33.1486 92.2796 32.6504 92.3034 32.8052 92.0627C33.2521 91.3674 33.9091 89.7638 34.1858 88.9712C34.9922 86.6623 35.2743 86.8287 31.8263 86.1694C31.6654 86.138 31.6799 86.0913 31.5971 85.708C30.9877 82.9078 28.2358 82.4494 26.7487 83.82C26.1953 84.3297 26.1807 84.631 25.9822 84.4968C25.3835 84.0944 24.3686 83.9372 23.4441 84.3681C22.3403 84.8832 21.9693 85.7034 21.6144 86.3956C20.696 85.9985 20.916 86.1334 20.67 86.0736C19.4941 85.7846 17.9595 86.4423 17.3125 88.2767C17.1753 88.6661 17.1776 88.5404 16.7506 88.6707C15.8553 88.9451 14.6211 89.8527 15.0458 90.6944C16.7445 94.0595 18.158 94.5003 17.3447 94.9602C16.5981 95.3826 16.651 96.2925 17.117 97.0131C17.3439 97.3641 16.9215 97.3258 16.8725 98.0142C16.7928 99.1487 17.1592 99.0237 16.851 99.4078C9.23688 108.91 10.8543 118.675 14.6012 122.459C17.8475 125.737 19.8467 126.869 25.6955 126.869C25.6985 126.938 32.6994 126.828 36.5897 124.914C37.4965 124.468 38.2439 124.056 38.8794 123.661C37.6031 120.005 37.2482 112.466 37.1999 96.7133ZM26.751 85.0495C27.7046 83.5601 29.624 83.7502 30.317 84.9989C30.4895 85.3101 30.8804 86.0345 30.527 86.0736C30.294 86.0997 30.4113 86.0131 28.4052 86.3067C27.4302 86.4492 27.365 86.6792 27.2431 86.3312C26.8146 85.1147 26.6291 85.2404 26.7518 85.0503L26.751 85.0495ZM22.3043 86.8432C23.579 84.0507 26.0481 84.8732 26.347 86.6501C26.4137 87.0471 26.439 86.7804 25.0217 87.632C24.584 87.8949 23.369 88.6868 23.3529 88.6998C23.113 88.8861 23.1383 88.4607 22.804 87.8091C22.4399 87.1008 22.21 87.0502 22.3043 86.8432ZM22.3403 89.0639C22.3809 89.251 22.5404 89.3062 22.3418 89.448C21.3077 90.1862 20.3948 90.7634 18.9345 90.7458C18.5275 90.7412 17.7494 90.7212 17.7609 90.3111C17.8836 85.8598 21.7041 86.1242 22.3411 89.0639H22.3403ZM18.0016 95.4025C18.8257 95.9368 21.3752 96.1668 22.3556 96.1009C23.7331 96.0089 25.5859 95.9322 28.6252 94.8552C29.5712 94.5202 31.3472 93.6878 32.1146 92.8622C32.2694 92.6958 32.3323 92.82 32.4894 92.9841C34.359 94.9472 24.4613 98.5776 18.6662 97.0644C17.1569 96.6704 17.3769 94.997 18.0016 95.4025ZM31.5458 118.913C31.056 119.3 31.6309 120.387 31.8616 121.058C32.2364 122.147 30.5477 122.743 30.1392 121.688C29.2929 119.504 30.6175 120.059 28.1883 120.63C26.9787 120.915 24.561 120.584 24.0689 119.463C23.4602 118.074 26.7648 118.748 27.8188 118.555C31.6102 117.858 32.4342 114.725 30.1001 114.113C28.1446 113.6 24.7488 114.606 23.1904 112.233C22.7443 111.554 22.4384 110.18 22.8546 108.872C23.3958 107.174 24.7365 106.478 25.2217 106.158C25.5146 105.965 25.444 106.11 24.7986 104.162C24.4912 103.234 25.9001 102.627 26.321 103.483C26.6069 104.066 26.5341 104.098 27.0063 105.288C27.2278 105.243 27.4478 105.192 27.6686 105.152C32.0962 104.334 32.0762 108.159 30.5424 107.576C30.0932 107.405 29.3519 106.501 27.7291 106.959C25.8128 107.499 24.0259 108.721 24.3686 110.692C24.7649 112.972 29.2446 110.979 31.8969 112.791C34.1712 114.345 33.6116 117.281 31.5458 118.913ZM33.5143 95.4462C33.3142 96.2212 32.3844 96.9119 31.6822 97.309C28.5892 99.0597 26.3923 99.3518 22.8592 99.7496C22.6852 99.7688 22.5059 99.7527 22.3303 99.7527L22.3288 99.7642C19.491 99.6385 19.0802 99.7029 17.869 98.8719C17.4566 98.5891 17.5631 97.5313 17.8606 97.7091C20.0813 99.0322 25.464 97.9613 26.4114 97.8179C27.3589 97.6746 28.6467 97.3603 30.7279 96.2848C32.9409 95.1404 32.9585 94.1952 33.1655 94.5394C33.6101 95.2784 33.5641 95.2523 33.5143 95.4462Z" fill="black"/>
<path d="M119.909 114.704C119.38 120.429 119.822 123.819 116.718 125.778C116.187 126.113 115.027 126.392 114.969 126.549C114.782 127.047 113.745 128.394 113.615 128.558C113.113 129.19 112.824 129.069 110.683 129.224C110.664 129.224 106.837 129.418 104.973 129.154C103.685 128.972 103.976 127.197 103.336 127.2C102.731 127.204 90.7624 127.431 90.7409 127.432C90.3745 127.435 90.0502 128.498 88.7923 129.312C87.7322 129.998 87.6509 129.909 81.2732 129.879C77.8314 129.862 78.0093 129.676 77.255 127.854C77.1116 127.507 77.2726 127.637 74.71 127.619C74.2769 127.616 73.2383 129.417 72.1015 129.48C65.3252 129.858 64.8576 129.591 64.4574 128.857C63.9454 127.918 64.0274 127.765 63.6533 127.768C58.5979 127.81 58.6968 127.614 58.4185 128.072C57.8536 129.002 56.9552 129.929 55.8675 129.889C49.4591 129.654 46.6781 130.228 46.2358 128.769C45.7597 127.2 45.8042 127.299 45.562 127.286C37.4151 126.856 37.0372 127.665 37.2257 79.1155C37.2771 65.8105 38.5526 53.6875 38.5948 53.4253C39.4372 48.2151 40.978 47.8426 44.2573 47.4256C60.3073 45.3865 94.244 46.4888 110.408 47.1941C116.232 47.4486 119.198 47.956 119.682 53.9343C121.486 76.2417 121.164 101.115 119.908 114.705L119.909 114.704ZM67.6984 47.2523C67.6984 47.296 48.8075 47.4562 42.9396 48.5731C39.8849 49.1541 39.4066 50.3346 38.8516 63.97C37.7378 91.3259 38.5381 114.319 39.1774 119.579C40.0689 126.916 40.2046 126.095 50.3659 126.461C61.6802 126.87 94.2931 126.99 97.5088 125.729C100.791 124.441 100.649 122.932 100.885 120.738C102.258 107.985 102.888 78.7667 101.669 59.9065C100.879 47.6923 104.011 47.2523 67.6984 47.2523ZM118.531 119.46C121.233 90.8307 118.851 55.9251 119.091 58.4125C118.464 51.8984 119.174 48.9165 113.336 48.3048C108.655 47.8142 97.2642 47.5881 97.1439 47.7644C102.385 49.4638 102.182 51.1311 102.718 57.4528C104.944 83.7094 102.574 118.144 101.685 122.23C100.755 126.502 97.5249 126.395 98.6532 126.4C116.838 126.474 117.906 126.084 118.531 119.459L118.531 119.46Z" fill="black"/>
<path d="M93.3147 53.39C96.5404 54.388 95.0425 57.9671 95.8367 69.821C96.0759 73.387 96.2138 99.1385 95.0065 116.389C94.6156 121.972 91.7778 120.081 84.5262 120.865C84.1798 120.902 60.6352 121.369 51.514 120.843C44.116 120.417 43.5741 121.079 43.3227 114.38C42.9861 105.406 42.1797 58.0184 44.3828 54.4532C45.5778 52.5192 48.7123 53.4482 55.9347 52.6181C58.2551 52.3513 89.7626 52.2908 93.3147 53.39ZM94.2262 55.0488C93.7448 53.0772 85.5611 53.9174 77.5606 53.4682C73.5684 53.2436 49.7149 53.2712 45.8377 54.2501C44.6641 54.5467 44.9002 55.5608 44.6917 57.2503C44.3261 60.2138 42.5147 118.705 45.4912 119.468C50.0599 120.639 91.5578 120.21 93.1806 119.242C95.481 117.869 95.133 58.7643 94.2262 55.0488Z" fill="black"/>
<path d="M78.7291 89.1459C78.9667 96.0326 73.3923 103.859 63.638 104.081C56.2692 104.248 48.3561 98.0011 48.8689 88.1264C49.2483 80.8196 55.8537 74.304 64.045 74.3783C72.6319 74.4565 78.9882 81.8867 78.7291 89.1459ZM77.7801 89.0853C76.1489 69.2532 48.6113 72.5693 49.8869 90.2413C50.4664 98.2732 58.0828 103.913 65.7023 102.716C72.8757 101.589 77.6298 95.8555 77.7801 89.0853Z" fill="black"/>
<path d="M83.3705 61.0932C87.089 61.0104 91.2207 64.2077 90.8451 68.8614C90.5615 72.3753 87.3267 75.1732 83.6794 74.934C80.3112 74.7133 76.2255 71.5428 76.631 67.3176C77.0051 63.4212 80.4154 60.8993 83.3705 61.0932ZM89.1549 67.3782C89.1549 66.1065 88.8874 66.7534 88.396 66.7902C87.8525 66.8316 87.7559 66.2283 88.1223 65.9777C88.5554 65.681 88.8705 65.7715 88.7133 65.4549C88.1093 64.2414 88.048 64.2583 87.8326 64.4975C87.3236 65.0632 86.534 64.6929 86.8652 64.1357C87.0867 63.7631 87.5229 63.7401 87.2508 63.4864C86.8928 63.1522 86.4904 62.8862 86.0442 62.6838C85.7606 62.555 85.8327 63.7616 85.1159 63.5239C84.7235 63.3936 84.7786 62.8593 84.981 62.5098C85.0722 62.3519 85.0416 62.2346 84.8883 62.197C83.2294 61.7915 83.6679 61.9724 83.5138 62.6531C83.4142 63.0962 83.0171 63.041 82.8492 62.7574C82.5748 62.2921 82.8638 61.938 82.5104 62.0039C81.3736 62.2154 81.4717 62.1909 81.553 62.5397C81.6902 63.1276 81.7278 63.7033 81.1329 63.458C80.6071 63.2411 80.6492 62.5382 80.3258 62.7566C79.3131 63.4373 79.3722 63.468 79.5592 63.6734C80.1073 64.2767 79.7271 65.1015 78.8524 64.2713C78.7612 64.1847 78.6861 64.1901 78.6179 64.2859C77.373 66.0428 78.0713 65.612 78.4991 66.1195C78.6501 66.2989 78.6133 66.6484 78.2844 66.6469C77.5516 66.6438 77.4987 66.3847 77.5156 68.0566C77.5179 68.2505 77.5984 68.3141 77.8153 68.3494C78.1587 68.4061 78.578 68.7181 78.2645 68.9373C77.8498 69.2278 77.4374 68.9373 78.263 70.4352C78.463 70.7985 78.6095 70.4168 79.0901 70.3163C79.6757 70.1937 79.7639 70.534 79.4565 70.9104C79.1468 71.2899 78.8977 71.355 79.0364 71.48C80.0398 72.3868 80.0406 72.4711 80.1878 72.1982C80.2706 72.0434 80.4952 71.329 81.0685 71.6463C81.4304 71.8464 81.169 72.281 81.008 72.6635C80.8984 72.9241 80.9996 72.9303 81.7554 73.1618C82.1969 73.2967 81.9685 73.0376 82.1478 72.5087C82.2391 72.2396 82.7151 72.1093 82.8968 72.5915C83.07 73.0506 82.6653 73.3703 83.0708 73.3841C84.1516 73.4224 84.1102 73.3366 83.9975 73.0246C83.5629 71.8195 84.7005 71.4846 84.8277 73.0016C84.8484 73.2522 85.0101 73.1564 85.7315 72.8667C86.3539 72.616 85.5268 72.5378 85.5621 71.9483C85.5889 71.5037 86.1661 71.5037 86.3455 71.7874C86.5402 72.0955 86.5846 72.4596 86.7786 72.2902C87.8333 71.3688 87.9131 71.3412 87.6156 71.1733C86.9396 70.7924 87.1243 70.1117 87.6839 70.1408C88.3209 70.1745 88.3354 70.8284 88.6835 69.9262C89.0391 69.0048 89.0936 69.004 88.7808 68.912C87.5781 68.5563 88.1231 67.7706 88.698 67.8649C89.0545 67.9232 89.1549 68.1792 89.1549 67.3782Z" fill="black"/>
<path d="M70.3845 80.6303C75.2674 84.5121 76.1037 91.9637 70.7133 97.1479C65.2494 102.403 54.5046 99.8002 52.7776 91.1221C50.8589 81.4819 62.3426 74.238 70.3845 80.6303ZM64.4759 85.6044C64.4629 86.0199 64.3786 86.013 64.6353 86.1303C65.513 86.5304 66.3218 87.4733 66.4314 88.5625C66.587 90.111 65.9477 90.1853 66.3302 90.5034C71.6041 94.8827 70.987 95.0591 71.4017 94.5056C75.5748 88.9412 72.31 80.5935 64.8308 79.5801C64.3372 79.5134 64.6798 79.2106 64.4759 85.6044ZM53.8048 89.2156C53.9205 90.5832 54.4333 93.1879 54.8112 93.0415C55.0144 92.9633 56.3505 91.8978 59.074 90.4981C60.2836 89.8764 60.2484 89.9331 60.2269 89.697C60.0928 88.2092 60.4132 86.9643 61.9248 86.2353C62.5082 85.954 62.0068 80.9768 62.2751 79.7602C62.453 78.9546 53.8906 80.9308 53.8055 89.2149L53.8048 89.2156ZM69.1756 96.6872C69.4523 96.4718 69.46 96.8474 66.7664 93.6363C65.0631 91.6065 65.1282 91.549 64.9121 91.6985C64.4284 92.0335 63.5545 92.2489 62.5335 92.0519C61.4948 91.8518 61.4243 91.28 61.0862 91.5536C56.1772 95.5266 55.948 95.066 56.3903 95.5458C59.6995 99.1333 65.6035 99.4652 69.1764 96.6872H69.1756ZM61.2986 88.9144C61.1016 91.5245 65.4249 91.7422 65.4272 88.945C65.4295 86.1724 61.0349 86.3871 61.2986 88.9144Z" fill="black"/>
<path d="M80.0228 67.7224C79.8925 65.1874 83.1794 63.2082 85.4155 65.3798C87.2107 67.1237 86.1613 70.3164 83.6846 70.6858C81.2079 71.0553 79.8357 69.0286 80.0228 67.7224ZM82.2895 65.3775C79.2938 66.374 81.0883 70.9166 83.9889 69.8434C86.947 68.7495 85.4638 64.3212 82.2895 65.3775Z" fill="black"/>
<path d="M63.3384 89.9255C61.977 89.9301 61.9708 87.9509 63.3108 87.9731C64.6929 87.9961 64.5434 89.9217 63.3384 89.9255Z" fill="black"/>
</svg>
