<svg width="154" height="154" viewBox="0 0 154 154" fill="none" xmlns="http://www.w3.org/2000/svg">
<path d="M17.9242 73.2471C16.4095 60.5899 17.091 47.8797 19.8605 35.3665C20.263 33.549 21.9287 35.2025 33.6715 32.5725C34.5699 32.3716 35.4606 32.1616 36.3429 31.9446C36.7384 31.2126 37.1769 30.4836 37.6644 29.7661C27.4394 32.1938 19.4152 33.0186 19.1292 33.2677C18.6218 33.7092 18.4639 33.8963 18.109 35.4171C14.6917 50.0659 14.6028 65.5862 17.3478 80.4627C17.4835 78.0963 17.6759 75.6656 17.9235 73.2464L17.9242 73.2471Z" fill="black"/>
<path d="M132.49 42.9645C130.482 41.042 127.096 38.9808 125.658 38.4695C123.656 37.7566 105.874 36.0518 80.6985 21.0542C71.2914 15.4508 72.4635 14.4604 68.965 16.9632C67.74 17.8393 66.4576 18.6695 65.1307 19.4552C65.7087 19.5434 66.282 19.6461 66.8516 19.7641C71.4555 16.9126 70.7526 16.3223 71.8365 17.1349C82.8043 25.36 102.402 35.0951 121.402 38.9624C123.451 39.3794 124.603 38.796 124.28 40.717C123.802 43.5632 122.676 60.7845 114.426 80.8267C103.635 107.04 81.3608 131.132 60.2807 142.305C58.6809 143.153 57.0681 144.316 54.8842 142.611C49.8986 138.717 46.3747 135.656 41.7701 130.167C33.7665 120.628 31.1235 115.987 27.6058 107.681C27.0469 107.468 26.4536 107.24 25.7806 106.988C25.7024 106.958 25.625 106.929 25.5483 106.9C30.9602 118.97 38.3942 129.777 47.4985 138.237C49.2002 139.818 61.0887 150.135 63.4588 149.445C70.5763 147.374 90.5955 134.023 104.507 116.814C129.636 85.7273 133.905 44.3206 132.49 42.9661L132.49 42.9645ZM131.482 44.007C128.156 84.1865 106.565 123.018 70.2474 144.686C62.3542 149.395 62.8816 148.682 61.268 147.483C60.8587 147.179 58.5935 145.47 58.5368 145.412C57.8485 144.719 57.6131 145.596 63.1001 142.551C81.7388 132.209 97.6431 114.477 108.015 97.3474C116.677 83.0413 120.566 71.0571 123.372 57.1288C127.199 38.1406 124.58 39.2728 127.284 40.7753C128.637 41.5265 129.864 42.4701 131.149 43.3233C131.493 43.5517 131.491 43.5594 131.482 44.007Z" fill="black"/>
<path d="M48.4443 45.8774C74.1835 46.5374 73.8638 49.7347 74.1781 46.7145C75.2029 36.8574 69.7866 31.3199 61.0356 30.814C56.6249 32.9894 52.1428 34.6352 47.9429 35.8901C46.8306 37.4155 45.9944 39.2621 45.3812 41.4046C44.9343 42.9668 44.8039 44.1075 44.8069 45.5034C44.8077 46.0054 44.7741 45.7831 48.4443 45.8774Z" fill="black"/>
<path d="M31.5888 46.4292C32.7448 46.4078 32.3723 45.8359 32.4259 45.56C32.6344 44.4876 32.8651 42.0752 33.6095 39.124C29.776 39.7465 27.2946 39.9879 27.0256 40.1888C26.7266 40.4111 26.466 40.6855 26.3855 41.0841C25.8796 43.5738 25.4672 46.0176 25.1406 48.4138C27.0371 47.2403 29.6709 46.4653 31.5888 46.4292Z" fill="black"/>
<path d="M113.677 44.8348C112.703 44.4968 101.186 42.9897 86.1945 35.5366C85.9945 35.4377 85.7982 35.3388 85.6035 35.2415C85.8718 36.0931 86.0903 36.9769 86.2551 37.8922C87.8526 46.7604 85.0631 49.6909 86.3777 50.0504C92.8857 51.8327 96.0401 53.0063 97.2313 60.3368C98.6318 68.9566 95.3234 91.1229 92.2786 103.313C102.149 89.3446 111.899 65.8199 114.494 46.21C114.507 45.2281 114.407 45.0878 113.678 44.8348H113.677Z" fill="black"/>
<path d="M73.9981 114.455C64.9298 114.455 57.8615 115.204 37.3494 110.545C46.5234 125.695 57.3885 133.473 58.9967 132.983C62.9629 131.773 68.4774 127.372 70.7548 125.641C76.7186 121.109 80.5115 117.571 84.0698 113.568C80.8419 114.255 77.036 114.287 73.9981 114.455Z" fill="black"/>
<path d="M97.2315 60.3367C96.0402 53.0062 92.8859 51.8326 86.3779 50.0504C85.0632 49.6901 87.8527 46.7604 86.2552 37.8921C83.2266 21.0779 62.158 15.0252 47.1337 21.8145C33.8348 27.8243 33.0337 42.424 32.4251 45.5607C32.3714 45.8367 32.744 46.4078 31.588 46.4292C28.7035 46.4836 24.1985 48.2084 23.0218 50.4467C17.6721 60.625 15.6767 92.2359 18.1811 99.8608C18.8871 102.01 18.5475 104.282 25.7799 106.987C29.4723 108.369 30.7739 109.045 37.0259 110.472C57.7879 115.213 64.8824 114.456 73.9982 114.456C79.8607 114.131 88.5863 114.313 90.4935 109.319C93.782 100.706 98.9163 70.7104 97.2307 60.3375L97.2315 60.3367ZM34.1138 45.9969C34.1598 43.8873 35.8347 36.4541 38.2355 32.2956C40.7192 27.9929 43.2028 25.8941 46.571 23.99C50.7755 21.6137 58.5821 20.6877 59.5134 20.6693C64.8869 20.5628 70.144 22.171 74.2971 24.3733C80.2899 27.5506 82.7682 31.3128 83.9832 36.1237C85.0801 40.4678 85.0456 45.655 84.4538 48.8921C84.23 50.1148 84.4101 49.5215 76.0954 48.3257C75.8011 48.2835 75.7298 48.2084 75.7743 47.8765C78.7913 25.3644 51.3497 24.5335 44.9896 37.6446C43.1898 41.3547 43.2779 45.7286 43.2748 45.7493C43.199 46.1778 39.7372 45.8666 39.7372 45.9838C33.8762 45.9838 34.1069 46.3349 34.1138 45.9969ZM74.1783 46.7144C73.864 49.7346 74.1837 46.5373 48.4445 45.8773C44.7742 45.783 44.8072 46.0061 44.8064 45.5032C44.8041 44.1073 44.9337 42.9659 45.3806 41.4045C47.3743 34.435 51.7345 30.5885 60.2378 30.7816C69.4556 30.9909 75.2331 36.5614 74.1775 46.7136L74.1783 46.7144ZM90.4053 103.297C88.9159 109.817 88.9979 110.423 82.9844 111.796C79.7012 112.546 64.7934 112.906 61.4536 112.481C59.0129 112.171 58.8887 113.413 41.6551 109.829C16.1328 104.523 20.7283 102.426 18.9269 93.8909C17.8882 70.8247 22.6891 53.6202 24.1211 51.6525C25.2862 50.0519 26.2651 49.8427 27.2264 49.1535C27.5284 48.9374 27.4042 49.0761 28.9396 48.5664C30.048 48.1984 31.7751 48.1417 31.7935 48.1417C47.6089 46.8424 60.9216 48.1739 76.6443 50.3141C84.417 51.3719 93.6057 52.1216 95.0299 58.0976C97.3909 68.0045 92.5547 93.8917 90.4061 103.296L90.4053 103.297Z" fill="black"/>
<path d="M46.0268 65.514C43.6213 69.9477 44.4178 75.8509 48.8201 79.6936C49.0064 79.8561 49.0792 80.0378 49.0447 80.2731C48.7028 82.6288 48.1647 88.1763 48.1777 91.1091C48.1999 96.0089 48.4061 98.7179 52.5501 100.468C55.4837 101.707 58.5438 100.559 59.7733 96.7471C60.2877 95.1511 60.3206 93.976 60.9308 88.4438C61.6951 81.5196 61.0972 81.735 61.7901 81.4345C65.0993 79.9995 68.3065 75.8816 68.2253 71.0117C68.696 60.0339 51.8319 54.8137 46.026 65.5132L46.0268 65.514ZM52.7395 84.8479C51.2577 98.8382 53.3542 100.289 50.9848 98.3944C49.3751 97.1073 49.3053 94.0388 49.3298 91.7967C49.4295 82.7115 51.1013 80.0669 50.0949 79.1846C46.4062 75.9544 44.5274 70.669 47.7638 65.4358C48.5173 64.2178 50.2497 62.9184 50.3662 62.8081C51.6663 61.5793 53.6402 61.4467 52.882 62.2845C47.9041 67.7914 49.8174 73.8778 53.3956 76.6474C54.087 77.1824 53.5689 77.0061 52.7379 84.8471L52.7395 84.8479Z" fill="black"/>
<path d="M86.6234 61.0712C86.3796 70.9766 82.8021 110.389 81.1686 105.788C80.7547 104.623 85.5096 62.1107 85.4789 60.3859C85.4138 56.731 84.5138 56.3056 85.0543 56.0112C85.4467 55.7973 85.9005 56.442 86.0423 56.8161C86.5575 58.176 86.6602 59.6171 86.6241 61.072L86.6234 61.0712Z" fill="black"/>
<path d="M14.4847 131.389C14.0447 131.239 18.1174 127.045 18.0431 126.266C17.981 125.615 17.206 125.238 16.6809 125.705C15.9665 126.341 14.6304 127.748 13.5909 128.808C13.1525 129.256 13.3824 125.569 11.8662 122.735C11.5052 122.061 10.6206 122.222 10.5953 123.041C10.5439 124.711 11.3848 129.138 11.67 130.474C10.2288 130.109 6.08721 128.968 6.05271 130.474C6.04505 130.81 6.23745 131.009 6.49654 131.137C9.60104 132.666 10.435 132.317 10.11 132.75C8.37916 135.053 7.82954 135.658 7.53215 136.544C7.31982 137.175 7.48693 137.878 8.18369 137.883C8.94641 137.889 9.19937 137.258 10.8942 135.21C13.1379 132.5 11.9513 133.212 13.4384 137.326C13.8086 138.35 13.9014 138.607 14.3828 138.535C15.2137 138.411 14.6618 135.666 14.4886 134.168C14.405 133.446 18.5881 135.83 19.1845 134.306C19.6819 133.035 17.4528 132.396 14.4847 131.387V131.389Z" fill="black"/>
<path d="M117.782 12.5471C117.186 12.3654 119.246 11.4517 120.74 9.37583C121.171 8.77716 120.63 8.14245 119.161 9.05695C116.133 10.9411 116.096 11.641 116.005 11.1765C115.675 9.49158 115.498 8.20148 114.968 7.25324C114.409 6.25213 112.937 5.95547 113.385 9.13054C113.938 13.0514 114.585 11.5314 111.325 11.6977C109.838 11.7736 109.305 12.6689 109.757 13.2576C110.023 13.6049 110.468 13.6731 111.381 13.8678C113.163 14.2473 112.818 13.5804 109.962 16.3836C109.662 16.6788 109.279 17.3372 109.683 17.7887C110.386 18.576 111.595 17.3702 114.227 15.2974C114.582 15.0176 114.288 15.2898 115.157 17.755C115.448 18.5806 115.629 19.1394 116.23 19.1432C116.736 19.147 117.259 18.6028 117.125 17.6017C116.406 12.2481 115.977 15.8731 120.695 14.3323C122.321 13.8011 119.31 13.0131 117.782 12.5471Z" fill="black"/>
<path d="M116.356 141.028C115.732 143.391 119.429 143.485 119.221 141.428C119.36 139.968 116.881 139.035 116.356 141.028Z" fill="black"/>
<path d="M32.4947 3.83743C31.4407 3.77304 28.3055 4.95889 29.4254 7.29993C30.2909 9.109 32.8052 9.57046 34.2685 7.93464C35.9143 6.09492 34.2386 3.71325 32.4947 3.83743ZM32.1214 7.45631C30.4948 7.57129 30.2265 5.68558 30.7953 5.49164C31.3242 5.3115 31.8324 5.03784 32.418 5.07617C34.0876 5.18579 33.5985 7.58432 32.1214 7.45631Z" fill="black"/>
<path d="M147.043 90.5842C145.795 87.7816 141.616 88.8724 140.372 90.2668C137.88 93.0578 141.645 98.4881 145.496 95.1988C146.8 94.0858 147.683 92.0199 147.043 90.5842ZM142.896 94.6415C142.359 94.7151 141.053 93.4556 141.385 91.9747C141.602 91.0019 142.554 90.2461 143.005 90.3274C143.296 90.3802 143.602 90.3366 143.9 90.3573C146.743 90.5543 145.234 94.5334 142.896 94.6415Z" fill="black"/>
</svg>
