<svg width="154" height="154" viewBox="0 0 154 154" fill="none" xmlns="http://www.w3.org/2000/svg">
<path d="M138.815 57.2997C138.577 54.9004 137.374 41.3555 137.213 40.7039C136.914 39.4774 135.956 39.2168 134.875 38.8565C125.676 35.7903 120.724 34.4795 120.724 34.1882C120.724 32.6551 120.977 30.0335 121.061 28.4544C121.123 27.3123 119.36 26.1548 118.57 25.3882C106.643 13.9283 98.1416 9.29069 93.6573 5.77989C91.7179 4.24679 91.7563 3.71787 90.5911 3.84052C84.4587 4.48442 65.5479 7.51229 54.3716 10.8544C53.9423 10.9848 53.1681 11.0308 52.9458 11.4677C52.8366 12.0361 52.8185 12.6183 52.8922 13.1924C52.8155 14.4189 52.7465 15.6454 52.6929 16.8719C48.0092 15.8524 38.895 14.1123 38.8106 14.1276C38.3201 14.2273 38.1514 14.8482 37.9904 15.2468C35.624 21.23 32.6793 26.968 29.1981 32.3792C28.8225 32.9464 28.2246 33.4983 28.1479 34.2036C28.1603 34.5431 28.2117 34.88 28.3012 35.2077C28.4009 35.9743 30.6699 54.0342 30.7772 54.5478C43.2336 57.1771 45.4643 57.8363 46.1849 58.0356C44.1133 60.3651 42.5147 63.0754 41.4782 66.0154C39.3012 72.7304 41.2483 75.6509 46.9974 79.6293C49.236 81.1747 51.7414 82.2922 54.3869 82.9255C52.6162 85.7387 50.4239 89.6558 50.8685 93.0746C50.8685 93.1742 51.1061 93.4349 51.0831 93.5039C51.0601 93.5729 50.6002 93.8335 50.5235 93.8871C43.3946 98.9157 32.6169 117.183 18.7194 114.929C18.5047 114.891 18.1904 114.814 18.0985 115.082C18.0514 115.218 18.023 115.36 18.0141 115.504C18.0141 115.374 17.4852 115.297 17.3932 115.274C15.7145 114.86 15.0169 117.19 14.6796 118.378C14.465 119.145 13.2999 122.61 14.9863 122.295C16.0671 122.089 16.964 120.08 17.5389 119.229C19.072 120.686 22.5904 121.744 23.2343 121.897C26.9964 122.798 30.8812 123.072 34.7326 122.709C43.6552 121.897 51.8343 117.673 55.8281 113.61C56.449 112.974 57.2002 111.686 58.1277 111.518C58.8943 111.403 59.4078 112.123 59.8524 112.576C66.5214 119.352 67.5179 121.705 67.4719 121.629C71.6002 128.941 74.3004 136.971 75.4287 145.292C75.4824 145.706 75.4287 146.143 75.7737 146.357C76.0113 146.495 76.5862 146.227 76.6016 146.488C76.6629 147.438 76.3563 148.22 77.0155 148.956C77.8434 149.891 80.5416 149.309 81.6148 149.178C82.3813 149.086 83.6078 149.025 84.1214 148.412C84.635 147.799 83.9451 147.201 83.3549 146.978C82.5883 146.702 80.0817 146.81 79.6908 146.143C80.6719 146.02 80.9786 146.097 81.3848 145.116C83.9068 139.129 84.1444 131.578 83.6845 125.185C83.0252 116.217 79.0852 108.636 73.2824 101.944C74.6085 100.978 75.3444 99.46 76.0803 98.0342C77.8049 94.7045 78.9432 91.1028 79.4455 87.3868C81.2555 87.4078 83.0653 87.3207 84.865 87.1262C88.3298 86.6202 91.9096 85.6467 94.4852 83.0864C96.8942 80.5719 98.2633 77.2394 98.3179 73.7575C102.542 75.1757 118.455 80.6565 119.015 80.8711C119.283 81.0041 119.566 81.1045 119.858 81.1701C120.51 81.0321 121.475 79.3917 121.92 78.8704C126.92 72.9822 132.433 67.5491 138.393 62.6349C139.512 61.6767 139.328 62.5736 138.815 57.2997ZM17.8608 116.807C17.6922 118.018 17.6079 119.022 16.7723 120.019C16.3891 120.471 14.6107 123.085 14.4727 121.253C14.3654 119.85 15.3389 117.574 15.9598 116.339C16.3277 115.573 16.4734 115.366 17.3779 115.573C18.2824 115.78 17.9681 116.063 17.8608 116.807ZM79.6371 146.357C80.4036 146.948 81.8678 146.848 82.7723 147.124C83.1019 147.224 83.9528 147.4 83.9988 147.891C84.0601 148.473 82.7723 148.657 82.4043 148.657C81.537 148.809 80.6618 148.912 79.7827 148.964C79.1772 148.964 77.8664 149.224 77.3451 148.856C76.8239 148.488 76.9848 147.04 76.9005 146.35C77.5597 146.327 79.1848 145.99 79.6371 146.357ZM91.6029 4.95968C101.142 11.506 110.238 18.6761 118.831 26.4231C119.366 26.847 119.873 27.3053 120.349 27.7952C120.831 28.3778 120.663 27.4962 120.226 34.1116C100.549 28.0712 89.8399 25.6795 89.5639 25.6182C89.6866 24.8133 90.913 13.2614 91.6029 4.95968ZM53.5054 11.713C65.2849 8.19216 77.3752 5.81005 89.6099 4.5994C89.8169 4.5994 90.6601 4.36944 90.8211 4.48442C90.982 4.5994 90.8671 5.41195 90.8211 5.82588C90.3228 11.0231 89.5563 19.2022 89.2343 25.4956C81.3465 23.5255 53.2754 16.9868 53.1298 16.9485C53.1605 16.0977 53.2524 12.0886 53.5054 11.713ZM58.258 97.3519C56.464 96.4516 54.735 95.427 53.0838 94.2857C52.0566 93.5192 51.2671 93.0056 51.4587 91.6181C52.0106 87.1568 54.6169 82.7338 57.5451 79.2C57.9667 78.6941 58.8559 77.7743 58.7103 77.6669C58.442 77.4446 55.3528 81.0551 54.6782 82.4732C50.6067 81.348 46.8604 79.2726 43.7472 76.4175C41.3862 74.0105 40.773 72.1938 41.5012 68.292C42.4518 63.2328 45.9932 58.9171 49.6497 55.3067C50.5005 54.4711 51.2901 53.5743 52.5549 53.4976C53.2064 53.4976 55.1688 53.6586 55.6211 54.2642C55.897 54.6168 55.6211 55.7973 55.6211 56.2189C55.5214 57.2384 55.3681 58.2426 55.1995 59.2851C54.8585 61.7283 54.2174 64.1201 53.2908 66.4063C53.1758 66.6593 52.7159 67.3492 52.7389 67.5868C52.7389 68.0161 53.0148 67.9088 53.3828 67.9931C56.9089 68.798 61.1786 69.7408 64.0378 72.0788C65.0267 72.8913 66.4601 74.5011 67.5716 74.2558C67.8369 74.1611 68.071 73.995 68.2482 73.776C68.4253 73.5569 68.5387 73.2933 68.5758 73.014C69.64 73.645 70.8263 74.0422 72.0559 74.1791C71.711 76.3255 72.6155 78.5638 72.7152 80.7178C73.0371 88.207 68.4838 101.162 67.1117 101.338C64.6357 100.418 65.0496 100.909 58.258 97.3519ZM51.8956 51.0063C51.7423 50.4008 52.1639 50.853 52.4169 51.06C52.6699 51.267 53.1298 51.8265 53.2908 51.5276C53.4517 51.2286 52.4016 50.6231 52.6775 50.1938C53.0915 50.1938 53.5284 50.7074 53.8274 50.9603C53.9347 51.0523 54.4866 51.7269 54.5939 51.7269C55.0308 51.7269 54.6552 51.3819 54.5939 51.1137C54.4483 50.1938 54.7012 50.1478 55.1841 50.9373C55.2761 51.1443 55.4065 51.3283 55.4984 51.5353C55.7627 52.1535 55.8451 52.8342 55.7361 53.4976V53.6126C55.3085 53.4207 54.8709 53.2518 54.4253 53.1067C53.8427 52.9457 52.8462 53.0377 52.3786 52.7771C52.2176 52.6927 51.7423 52.2788 51.7423 52.0642C51.7423 51.5812 52.3402 52.0642 52.6085 52.1868C52.8768 52.3095 51.9723 51.29 51.8956 51.0063ZM73.2364 74.0028C72.4178 74.0176 71.6009 73.9248 70.8064 73.7269C70.0375 73.5342 69.2958 73.2458 68.5988 72.8683C68.645 72.6711 68.6808 72.4715 68.7061 72.2704C68.8364 72.2704 69.028 72.3164 69.143 72.2244C69.5559 71.5337 69.7005 70.7152 69.5493 69.9248C69.4496 69.7715 68.9514 69.7102 68.7828 69.6105C67.5333 68.8439 68.0162 67.1345 69.028 67.5561C69.4037 67.7095 70.2929 69.1659 70.9138 68.6983C71.343 68.3764 70.3082 66.7129 70.1472 66.2837C70.2753 66.43 70.4316 66.5489 70.6068 66.6332C70.782 66.7175 70.9725 66.7655 71.1667 66.7743C70.7516 66.2914 70.497 65.6913 70.4385 65.0572C71.8336 66.2377 73.6963 65.7241 75.3444 65.8621C76.05 65.8763 76.7437 66.0464 77.3758 66.3603C77.9047 66.7359 77.7897 67.8934 77.828 68.5757C77.9124 70.1088 77.9967 72.3164 76.5326 73.175C75.2064 73.9415 73.3897 73.5276 73.2901 73.5659C73.1904 73.6042 73.2364 74.0028 73.2364 74.0028ZM73.5047 73.8342C75.8043 74.4781 77.6057 73.3129 78.012 71.7108C78.302 70.1915 78.302 68.6309 78.012 67.1115L82.4273 68.5297C83.0712 68.7366 86.3597 69.4265 86.4517 70.0628C86.6341 71.2568 86.9057 72.4355 87.2643 73.5889C85.7822 73.3429 84.2697 73.3429 82.7876 73.5889C81.0777 73.7021 79.3802 73.9586 77.7131 74.3554C76.4341 74.6753 75.1748 75.0695 73.9416 75.5359C73.612 75.5359 73.5737 75.0683 73.543 74.8384C73.5354 74.7464 73.5047 73.8342 73.5047 73.8342ZM77.966 65.9234C78.1492 66.1154 78.3183 66.3203 78.4719 66.5366C77.943 66.345 78.2266 66.5213 77.966 65.9234ZM74.7312 62.3666C72.0406 63.0795 69.3653 63.7311 66.6364 64.2217C68.3515 63.2032 70.1196 62.277 71.9333 61.4467C74.5625 60.2356 75.6817 59.5764 77.6901 60.2893C81.0169 61.4774 76.7472 61.807 74.7312 62.3436V62.3666ZM74.2406 60.1359C67.9702 62.0983 67.3416 63.2021 65.1033 64.26C65.0497 63.9457 65.019 63.6237 64.996 63.3018C64.8748 62.0537 65.1782 60.8011 65.857 59.7467C66.5358 58.6924 67.5504 57.8977 68.7368 57.4913C69.9862 57.1157 71.0364 56.8168 72.2859 57.3457C73.5699 57.897 74.7338 58.6938 75.7124 59.6913C75.4594 59.952 74.6162 59.998 74.2406 60.1129V60.1359ZM68.0009 71.5422C68.1925 71.8258 68.3382 72.3088 68.5834 72.3088C67.8169 76.5708 65.249 72.2321 62.589 70.722C59.6969 69.1636 56.5811 68.0621 53.3521 67.4565C54.4219 65.2566 55.173 62.9156 55.5828 60.5039C55.5828 60.5039 60.481 61.968 60.9486 62.106C62.1368 62.4509 63.3556 62.6656 64.5514 63.0565C64.6664 69.2502 67.081 70.1624 68.0009 71.5422ZM97.6664 73.8955C97.5054 78.0655 95.681 82.0823 92.1395 84.4126C88.4754 86.8195 83.7995 86.8732 79.5374 86.8655C79.7827 84.88 79.857 82.8771 79.7598 80.8788C79.7598 80.6028 79.5145 80.5492 79.5221 80.8328C79.6857 85.8874 78.67 90.9106 76.5556 95.5046C75.697 97.3673 74.7388 99.7206 73.1444 101.07C71.55 102.419 69.3653 101.905 67.5256 101.438C69.0587 99.7512 69.8253 97.1066 70.5918 94.7763C71.374 92.3532 72.0114 89.8856 72.5005 87.3868C74.0949 78.8551 71.5347 77.1227 72.2706 74.1945C72.597 74.2235 72.9253 74.2235 73.2517 74.1945C73.3437 75.4516 73.727 76.8237 75.4441 76.1722C75.2045 76.2393 74.9524 76.2486 74.7085 76.1993C74.4646 76.15 74.236 76.0435 74.0413 75.8885C77.4754 74.2328 81.2009 73.8189 84.9646 73.7652C85.782 73.788 86.5967 73.87 87.4022 74.0105C87.4942 74.1331 87.9235 74.4398 87.8545 73.7959C87.7179 73.2304 87.5437 72.6747 87.3333 72.1324C86.5667 68.9896 85.7465 61.4544 87.8162 58.9785C88.7744 57.8286 90.5298 58.1659 91.6489 58.8558C94.2015 60.4349 97.9423 66.9659 97.6664 73.8955ZM89.9089 56.1882C89.9089 56.2955 90.5911 55.9506 90.6754 55.9199C92.0782 55.2377 92.7221 55.6286 92.2085 55.9966L91.488 56.4795C91.304 56.6021 91.6183 56.6788 91.7103 56.6788C91.8022 56.6788 92.9137 56.1576 93.0441 56.3262C93.297 56.6635 91.9402 57.0927 91.8866 57.1694C91.4803 57.6677 92.2085 57.2154 92.5381 57.3994C92.8678 57.5833 92.3465 57.683 92.0705 57.8133C91.419 58.1199 91.1813 57.8133 90.5374 57.7136C89.8338 57.5058 89.0795 57.5519 88.4064 57.844C88.4581 57.3484 88.6233 56.8713 88.8891 56.4499C89.155 56.0285 89.5145 55.674 89.9395 55.414C90.3228 55.138 91.6106 54.5708 90.6524 55.4753C90.3765 55.6516 89.8475 55.8586 89.9089 56.1882ZM121.337 79.1847C121.023 79.5527 120.456 80.5032 120.027 80.7178C119.597 80.9324 119.858 80.8175 119.444 80.7178C118.445 80.4584 117.466 80.1253 116.516 79.7213C98.3026 73.1443 98.3256 73.2899 98.3103 73.083C98.2489 72.3164 98.1263 71.4656 98.0803 70.8293C97.938 68.655 97.4003 66.5249 96.4935 64.5436C95.497 62.244 94.0482 59.446 91.7256 58.2119C92.1702 58.1429 93.5423 57.2844 92.3465 57.2307C93.2127 56.8934 93.6113 55.7436 92.3465 56.1882C93.596 55.0231 91.488 55.322 90.8747 55.5136C91.327 55.3757 91.2197 54.4405 90.3918 54.7471C89.7737 55.0217 89.2336 55.4457 88.8201 55.9809C88.4066 56.5162 88.1327 57.1459 88.0232 57.8133C87.9312 58.4189 87.4942 58.3882 87.1416 58.8635C86.77 59.4188 86.5097 60.041 86.3751 60.6955C86.0594 62.0596 85.9178 63.4582 85.9535 64.8579C85.9949 66.2584 86.1126 67.6556 86.3061 69.0433C85.2176 68.5373 78.8552 66.8126 78.8782 66.621C79.0124 65.778 79.0124 64.919 78.8782 64.076C78.8399 63.8614 78.2803 62.106 78.0197 62.1673C78.6406 62.0217 79.6524 61.7764 79.4761 60.9178C79.2538 59.86 76.8852 59.8217 76.3409 59.676C75.7967 59.5304 75.5744 59.2161 75.0838 58.7791C72.3549 56.1805 70.7145 55.6746 67.265 57.8133C66.5032 58.3141 65.8652 58.9814 65.3991 59.7649C64.933 60.5484 64.651 61.4275 64.5744 62.3359C61.9835 61.6154 59.3925 60.9025 56.7939 60.2203C56.5695 60.1804 56.349 60.1215 56.1347 60.044C56.035 59.9903 55.7437 60.044 55.6901 59.929C55.7204 59.5196 55.7897 59.1141 55.897 58.7178C56.0427 57.8516 56.1807 56.9854 56.265 56.1116C56.4211 55.4331 56.4211 54.728 56.265 54.0495C56.265 53.9269 55.9354 53.7276 55.851 53.6509C56.0469 52.9062 55.9958 52.1181 55.7054 51.4049C55.5828 51.037 55.2838 50.1785 54.8239 50.1018C54.2336 49.9945 54.249 50.6537 54.3563 51.06C54.0267 50.738 51.7653 49.0133 52.5012 50.7457C51.5584 49.8872 51.4127 51.0293 52.0873 51.7116C50.9758 51.3053 51.704 52.6621 52.2636 52.8614C49.6957 53.168 47.1354 56.7401 46.5988 57.499C44.3451 56.8091 32.088 54.3945 31.3214 54.3025C30.9382 52.3401 30.7849 50.8224 29.0218 34.4335C65.9235 40.6272 102.342 51.3589 138.746 61.853C132.45 67.1263 126.614 72.9244 121.299 79.1847H121.337ZM29.0218 33.9583C32.4938 28.5092 35.4918 22.7723 37.9828 16.8105C38.1974 16.297 38.4964 15.0245 39.1479 14.8788C39.7995 14.7332 41.3249 15.3081 42.0761 15.4537C68.0928 20.5666 83.8225 23.3645 134.698 39.5541C135.191 39.654 135.665 39.8326 136.101 40.083C136.799 40.6349 136.699 41.8997 136.799 42.7199C136.952 44.0384 138.899 61.1171 138.945 61.5311C102.772 50.6844 66.805 39.6307 28.9835 33.9429L29.0218 33.9583Z" fill="black"/>
<path d="M34.4951 31.7122C38.0295 32.8098 41.7184 33.3275 45.4185 33.2453L34.4951 31.7122ZM41.4324 30.6084C39.3309 30.1129 37.201 29.7468 35.0547 29.5122C37.0784 30.3272 39.2527 30.7009 41.4324 30.6084ZM133.848 41.5011C133.763 40.9185 124.894 38.8258 124.427 38.8411C123.959 38.8565 124.066 39.3394 124.005 39.6077C123.637 41.1408 123.338 42.2063 123.193 43.1721C123.154 43.4251 122.97 44.368 123.384 44.4369C126.397 44.9659 133.725 47.5031 133.917 47.5031C134.108 47.5031 133.909 41.8613 133.848 41.5011ZM124.534 44.138C123.768 43.931 123.722 44 123.768 43.1951C123.845 41.8359 124.103 40.4929 124.534 39.2014C124.825 39.2474 133.234 41.6927 133.319 41.8077C133.587 42.191 133.518 45.947 133.641 46.9742C131.64 46.177 128.512 45.2265 124.534 44.138ZM92.7069 19.9303C94.8226 21.3638 96.693 21.9234 102.473 25.6028C102.703 25.7485 103.408 26.3694 103.623 26.3694C104.121 26.2774 104.014 25.6028 104.09 25.1276C104.374 23.2802 104.542 21.4175 104.642 19.5547C104.757 17.3471 104.32 16.9178 102.68 15.722C101.039 14.5262 96.67 11.4676 94.8303 10.4481C94.5696 10.3025 93.9717 9.75057 93.8567 10.3025C93.3278 12.9011 93.0902 14.8558 92.6073 18.0753C92.5383 18.5046 92.2547 19.6391 92.7069 19.9303ZM93.0442 18.129C93.4888 14.8711 93.8108 12.1805 94.0637 10.2795C94.0637 10.2795 94.0637 10.2028 94.125 10.2105C95.1599 10.977 102.258 16.2432 102.971 16.7952C104.006 17.6077 104.006 18.2516 103.975 19.4934C103.914 21.6244 103.761 23.7478 103.554 25.8634C99.4909 23.5638 96.5627 21.6628 94.4776 20.329C94.1097 20.0913 93.2052 19.777 92.9445 19.3784C92.6839 18.9798 92.9982 18.4969 93.0442 18.1443V18.129ZM74.555 67.0732C74.2254 66.9198 73.4282 67.1958 73.4052 67.6251C73.766 67.3976 74.1518 67.2124 74.555 67.0732ZM77.4219 66.9122C77.373 66.8279 77.3058 66.7556 77.2253 66.7006C77.1448 66.6457 77.0529 66.6096 76.9566 66.5949C76.8602 66.5802 76.7618 66.5873 76.6685 66.6156C76.5753 66.644 76.4896 66.693 76.4177 66.7589C76.758 66.7625 77.0961 66.8141 77.4219 66.9122ZM76.3028 70.423L75.8658 70.4766C77.7592 71.2432 76.5097 68.3993 76.0728 67.832C76.1954 68.3303 77.0846 70.262 76.3028 70.423ZM74.0798 68.5679C74.1794 68.9819 74.3404 68.2766 74.3021 68.131C74.2177 67.7401 74.0414 68.3763 74.0798 68.5679ZM77.077 67.832C77.2686 68.223 77.3223 67.6097 77.2533 67.4181C77.1383 67.1115 76.9237 67.5024 77.077 67.832ZM76.1341 71.5728C75.5789 71.6029 75.0324 71.4253 74.601 71.0746C74.5167 71.6801 75.6129 72.0557 76.1341 71.5728ZM78.2575 81.2543C77.4909 81.3923 76.7244 81.5456 76.0038 81.7449C76.686 81.6989 77.3759 81.6146 78.0582 81.5226C77.7669 82.0745 77.4449 82.6035 77.1076 83.1247C76.6433 82.7138 76.2337 82.2449 75.8888 81.7296C76.1111 82.2508 76.7703 83.5846 77.3606 83.1784C77.5676 83.0174 78.4951 81.1777 78.2575 81.2543Z" fill="black"/>
</svg>
