<svg width="154" height="154" viewBox="0 0 154 154" fill="none" xmlns="http://www.w3.org/2000/svg">
<path d="M17.6537 85.1084C18.4571 84.8586 19.1117 84.9582 19.7549 84.3227C20.4861 83.5999 21.0166 82.1028 19.3884 79.0742C17.7833 76.0876 15.4055 73.5749 12.5125 71.8072C11.0277 70.9011 9.84107 71.0652 9.22093 72.691C8.05577 75.7465 9.63946 79.0596 10.2857 81.705C10.485 82.5198 10.6375 83.3975 10.9894 84.2146C11.5374 85.4864 12.56 86.4499 13.9444 86.4499C15.0866 86.4499 15.9781 85.7976 17.0351 85.3407C19.7633 93.6241 19.3264 100.493 19.5525 103.657C19.5617 103.785 19.7725 103.836 19.7932 103.69C20.3321 100.009 19.8706 91.9208 17.653 85.1084H17.6537ZM13.1687 85.5301C11.8441 84.9981 11.457 83.3829 11.1641 82.0959C10.4221 78.825 8.85758 75.7956 9.93765 72.9647C10.3769 71.8118 11.0262 71.7988 12.1131 72.4618C14.8911 74.1582 17.1731 76.5705 18.7139 79.4375C19.4881 80.8786 20.2041 82.8011 19.216 83.7777C18.7583 84.23 18.1719 84.1311 17.4046 84.3657C15.7826 79.6644 13.6937 76.1681 12.2948 74.714C12.1208 74.5338 11.8433 74.763 11.956 74.9753C12.6581 76.2961 14.9233 79.2896 16.7829 84.5995C15.5273 85.1529 14.4465 86.0436 13.1679 85.5308L13.1687 85.5301Z" fill="black"/>
<path d="M16.406 96.8312C16.5102 96.7982 16.6359 96.753 16.8023 96.661C17.6999 96.165 17.9958 95.4943 17.7612 94.4848C17.3159 92.5676 15.4861 91.2453 13.9224 90.6482C11.6748 89.7881 10.3311 90.9402 10.3364 92.6221C10.338 93.2698 10.5442 93.8861 10.7649 94.4564C11.3667 96.0094 12.2996 98.4241 13.9975 98.4241C14.2757 98.4241 14.5594 98.3551 14.8438 98.2163C15.3834 97.9542 15.5559 97.4904 15.8694 97.1416C17.6233 100.383 17.7229 102.192 18.2779 103.6C18.3561 103.798 18.6757 103.79 18.6719 103.547C18.6443 101.844 17.299 98.5038 16.4045 96.8327L16.406 96.8312ZM14.5103 97.5264C13.0393 98.2393 12.0711 95.7013 11.4794 94.1774C11.2854 93.6768 11.1045 93.1418 11.103 92.619C11.0984 91.4124 11.9776 90.7233 13.6487 91.3634C15.0285 91.8908 16.6375 93.0329 17.0146 94.6572C17.1833 95.3832 17.0254 95.8117 16.025 96.1451C15.26 94.8098 14.2527 93.3043 13.4042 92.6021C13.2171 92.4473 12.9143 92.6412 13.0516 92.8742C13.536 93.6967 14.4727 94.7439 15.4792 96.4494C15.0346 96.8243 14.8905 97.3409 14.5095 97.5257L14.5103 97.5264Z" fill="black"/>
<path d="M24.1042 105.883C23.4404 106.282 22.545 106.392 21.8283 106.461C19.6337 106.671 16.1888 106.477 15.0206 104.711C15.2015 104.183 15.932 103.723 16.6878 103.289C17.3693 102.899 17.3999 102.902 17.8928 103.082C18.8717 103.44 19.0427 103.141 19.7947 102.84C20.345 102.62 21.0265 102.752 21.4542 103.161C21.7379 103.434 21.9709 103.857 22.4071 104.114C23.1606 104.555 23.6151 104.429 24.062 105.189L23.993 104.005C23.7868 103.874 23.5799 103.794 23.3767 103.716C22.3733 103.333 22.5527 103.151 21.9847 102.608C21.337 101.987 20.342 101.795 19.5095 102.129C19.1737 102.263 18.8725 102.478 18.618 102.481C18.3121 102.477 17.8645 102.182 17.4076 102.199C16.9914 102.209 16.6648 102.419 16.3061 102.625C15.7917 102.92 15.0152 103.364 14.5645 103.966C14.3322 103.849 14.0003 103.959 14.0064 104.291C14.0463 106.431 13.9712 108.61 14.1751 110.742C14.5668 114.834 17.0029 116.693 21.3209 115.685C23.1406 115.261 24.0889 114.272 24.5626 112.467C24.394 110.329 24.2406 108.131 24.1034 105.883L24.1042 105.883Z" fill="black"/>
<path d="M23.6512 96.9829L23.619 96.1804C23.54 96.1543 23.363 96.1298 23.3285 96.0738C23.6611 95.2505 23.6036 95.9067 23.5293 93.7619C23.2234 94.4434 22.9429 95.1179 22.6861 95.7772C21.8843 95.5909 21.2902 94.7661 21.166 93.9765C20.9161 92.3951 22.0537 90.4274 23.3836 88.9173L23.3568 87.8188C21.6635 89.5313 20.0829 92.0249 20.4087 94.0954C20.5735 95.1425 21.337 96.2057 22.4117 96.5016C21.117 100.007 20.5313 102.969 20.6057 103.992C20.6141 104.113 20.8011 104.198 20.8625 104.061C21.3109 103.058 21.6305 100.55 23.0663 96.7798C23.2541 96.8733 23.4503 96.9393 23.6527 96.9822L23.6512 96.9829Z" fill="black"/>
<path d="M77.2125 76.4104L75.1229 76.1812C74.7442 89.4739 75.5292 106.731 76.1263 117.189C56.439 116.19 40.9164 114.099 28.6945 110.798C27.6926 100.17 26.9406 83.8061 27.8329 70.1316L25.5701 69.7974C24.71 84.2422 25.5164 101.265 26.5696 112.29C26.585 112.448 26.6969 112.581 26.8502 112.623C39.9743 116.199 56.6805 118.564 77.9392 119.51C78.1807 119.52 78.3539 119.323 78.3409 119.105C77.0561 96.7953 77.0033 83.8774 77.2125 76.4104Z" fill="black"/>
<path d="M148.885 23.4617C148.867 23.2226 148.677 23.0984 148.499 23.0976C63.3362 22.8584 47.1175 22.8232 24.8976 29.8624C24.7902 29.8946 24.7059 29.9651 24.6523 30.0793C24.4736 30.56 24.1394 33.9926 23.8029 39.4895C17.4482 47.825 10.5991 52.409 3.69784 59.2174C3.63115 59.2826 3.59053 59.3715 3.5844 59.4643C3.42189 61.8774 3.51234 64.0122 3.86342 65.9907C3.88565 66.1179 3.9715 66.2253 4.08955 66.2766C5.69471 66.9634 12.8558 68.252 22.8263 69.7652C22.7136 84.6095 23.1077 101.712 24.6231 117.573C24.6385 117.731 24.7504 117.864 24.9037 117.906C48.7143 124.393 79.0336 128.621 117.613 130.402C117.661 130.405 117.706 130.398 117.743 130.386C121.136 129.311 127.431 124.852 133.464 119.8C133.026 119.873 132.575 119.908 132.1 119.914C127.061 124.083 121.81 127.803 117.984 129.458C116.473 102.842 115.721 59.9955 117.991 33.8891C126.633 31.4637 133.569 29.9 148.146 24.0374C149.568 52.7646 149.411 74.5331 147.577 104.104C146.35 106.409 142.421 110.673 137.607 115.105C137.802 115.32 137.958 115.551 138.05 115.798C142.929 111.358 147.012 107.015 148.295 104.534C148.32 104.486 148.416 104.203 148.419 104.15C150.272 74.3208 151.084 52.4657 148.885 23.461L148.885 23.4617ZM24.4606 39.8927C27.1435 39.8935 29.8893 39.9188 32.7095 39.9686C28.426 49.4217 18.3382 56.8434 13.2345 61.2005C8.72718 60.4731 5.66098 59.8491 4.59394 59.4137C11.3082 52.8635 18.1787 48.1515 24.4606 39.8927ZM98.4864 69.4448C94.9863 69.3213 91.3114 69.1458 87.5255 68.9273C94.4459 62.6355 102.233 54.3867 104.938 44.7105C108.603 45.0662 112.372 45.4425 116.25 45.8404C111.184 55.8615 106.005 62.739 98.4864 69.4448ZM98.2472 76.5629C98.0609 77.9505 97.6968 78.0095 96.5646 77.9129C93.2409 77.6285 89.6465 77.305 85.872 76.9294L86.3396 69.9959L86.7305 69.6456C90.7496 69.8848 94.6283 70.0749 98.2847 70.2052C98.5898 72.8383 98.6136 73.8333 98.2472 76.5629ZM86.453 68.8645C83.0373 68.6606 79.538 68.4222 75.9988 68.1577C83.5325 62.0943 88.5488 54.6848 92.6652 43.5637C96.3829 43.8972 100.213 44.2544 104.164 44.6361C101.402 54.3307 93.3988 62.611 86.453 68.8645ZM85.6627 69.582C85.5623 69.7131 85.629 69.1335 85.1093 76.8535C81.8078 76.5216 78.3744 76.1574 74.8666 75.7688L74.5432 70.5034C74.4926 69.677 74.5263 69.3712 75.128 68.8545C78.7025 69.1266 82.2309 69.3719 85.6627 69.582ZM74.8736 68.0726C70.5901 67.7453 66.2583 67.3797 61.9587 66.9872C62.1235 66.7795 62.306 66.5963 62.5022 66.4445C69.6794 60.9 76.0954 51.4906 78.914 42.3993C83.0795 42.7297 87.3944 43.0938 91.8741 43.4924C87.297 55.7787 81.8875 62.5535 74.8736 68.0726ZM74.0924 75.6829C69.8664 75.2123 65.54 74.7079 61.2113 74.1828C61.1216 68.8959 61.0335 68.6958 61.5087 67.7101C65.724 68.0956 69.9615 68.4559 74.143 68.7794C73.5788 69.5459 73.7322 69.8196 74.0924 75.6829ZM62.0331 65.8381C61.669 66.1195 61.3455 66.4843 61.0795 66.9075C57.2851 66.5579 53.5198 66.1885 49.8396 65.8067C57.1371 59.9311 65.5569 51.1848 66.6508 41.4979C70.3494 41.7478 74.1722 42.0276 78.1314 42.3388C75.3296 51.2369 69.0508 60.4179 62.0338 65.8389L62.0331 65.8381ZM60.4432 74.0901C56.5185 73.6125 52.5984 73.1196 48.7557 72.6213L49.0362 66.4905C52.8575 66.8883 56.7676 67.2731 60.7031 67.6365C60.2531 68.7227 60.3605 69.1604 60.4432 74.0901ZM48.7526 65.6933C44.8202 65.2816 40.9928 64.8577 37.3394 64.4323C37.5993 64.1939 37.9235 63.9739 38.2378 63.7531C45.4963 58.6586 51.7368 49.8609 54.5991 40.7674C58.2325 40.9605 61.9901 41.1867 65.885 41.4465C64.7743 51.1311 56.0601 59.9181 48.7526 65.6933ZM48.2727 66.4108L47.9929 72.5225C44.2123 72.0303 40.5129 71.5344 36.9661 71.0453C36.6258 66.2804 36.5238 65.8151 36.8105 65.1413C40.483 65.5714 44.3273 65.9976 48.2727 66.4108ZM37.6798 63.2081C37.2413 63.5163 36.7545 63.8566 36.405 64.3234C32.4726 63.8612 28.751 63.3974 25.3307 62.9467C25.5001 62.821 25.6948 62.706 25.8918 62.588C33.7566 57.9028 40.8502 49.1718 44.0291 40.286C47.1904 40.4048 50.4459 40.5512 53.808 40.7267C51.0538 49.332 45.1237 57.9802 37.6798 63.2081ZM36.1904 70.9372C32.1997 70.3838 28.4122 69.8395 24.9297 69.319C24.8692 68.4383 24.6484 64.2767 24.8017 63.645C28.2688 64.1073 32.0418 64.5795 36.0271 65.0501C35.7649 65.8565 35.8577 66.2889 36.1896 70.938L36.1904 70.9372ZM25.4717 61.9456C25.0846 62.1763 24.6569 62.4308 24.3633 62.8179C20.5535 62.3089 17.1401 61.8184 14.2517 61.3638C21.7156 55.3663 29.9001 48.2926 33.5419 39.9855C36.6741 40.0453 39.8966 40.135 43.2242 40.2561C40.063 48.9051 33.1525 57.3708 25.4709 61.9464L25.4717 61.9456ZM12.5193 67.336C8.47652 66.6285 5.67248 66.0428 4.58244 65.648C4.29882 63.9471 4.21143 62.1204 4.31568 60.0867C5.56976 60.5566 8.49031 61.1676 12.6328 61.8567C12.1606 62.591 12.2886 62.982 12.5193 67.336ZM13.2943 67.4701C13.0528 62.9237 12.8811 62.6278 13.4997 61.9985C16.4893 62.4845 20.0514 63.0057 24.0398 63.5423C23.8803 64.3319 24.1011 68.4046 24.154 69.2025C20.0185 68.5801 16.3383 67.9944 13.2943 67.4701ZM117.226 129.617C79.0489 127.697 48.9925 123.646 25.3613 117.238C24.0559 103.441 23.4641 86.5711 23.5852 69.8817C44.2499 72.9962 76.3668 77.0069 96.5018 78.6787C97.056 78.7247 97.6324 78.7921 98.1383 78.4656C98.7439 78.0747 98.9179 77.3372 99.0076 76.6665C99.3917 73.8072 99.3602 72.7969 99.0314 69.989C106.331 63.4718 111.446 56.7936 116.375 47.2838C115.26 72.1369 115.85 105.457 117.227 129.618L117.226 129.617ZM116.478 45.0945C87.2426 42.1226 54.1046 39.1545 24.6791 39.1277C24.8769 36.2102 25.1007 33.3747 25.3521 30.6474C49.372 32.7646 79.4314 33.8531 117.216 33.9742C116.921 37.3899 116.677 41.123 116.479 45.0938L116.478 45.0945ZM117.581 33.2092C80.4755 33.0965 50.8108 32.0524 27.0002 30.0211C54.353 21.9156 82.7368 24.5916 146.451 23.8902C132.53 29.4071 125.284 31.0414 117.581 33.2092Z" fill="black"/>
<path d="M110.891 75.7972C110.901 75.578 110.727 75.3963 110.51 75.3955C106.301 75.3718 102.408 75.2752 98.8058 75.1042C98.7621 75.5534 98.7023 76.0471 98.6264 76.6144C98.5498 77.1884 98.4156 77.8285 97.9289 78.142C97.5264 78.4019 97.009 78.3344 96.5322 78.2953C92.0579 77.9243 87.096 77.4506 81.8612 76.9063C81.2855 91.3834 81.3108 114.034 81.9517 127.436C81.9609 127.625 82.1073 127.779 82.2959 127.799C91.0966 128.691 100.557 129.643 110.446 130.016C110.698 130.025 110.858 129.828 110.851 129.622C110.375 113.314 110.235 89.5881 110.891 75.7987V75.7972ZM86.7855 123.439C86.5103 119.142 86.574 115.026 86.7694 112.619C92.6864 113.531 99.1423 114.183 105.975 114.559C105.868 118.337 105.859 121.273 106.089 125.342C98.411 124.642 92.4411 124.298 86.7855 123.439ZM86.7901 107.913C86.2919 98.0777 86.2903 89.8794 86.7848 79.8146C91.8839 80.621 98.2102 81.0411 106.092 81.0978C105.558 90.6398 105.744 98.3145 106.101 109.817C98.5659 109.13 92.4457 108.772 86.7901 107.913ZM108.482 111.941C108.484 112.152 108.312 112.326 108.1 112.326C107.89 112.326 107.717 112.157 107.715 111.946C107.698 109.477 107.72 106.974 107.781 104.507C107.794 103.974 108.56 104.038 108.548 104.526C108.486 106.985 108.464 109.481 108.482 111.941Z" fill="black"/>
<path d="M91.4447 94.2749C95.653 101.444 95.6323 101.48 96.2157 102.133C96.3881 102.325 96.7668 102.123 96.6664 101.871C96.3268 101.017 96.2364 100.954 91.7651 94.0871C91.6355 93.8878 91.3228 94.0672 91.4447 94.2749Z" fill="black"/>
<path d="M95.2654 85.777C96.1047 87.6459 98.6819 93.1581 99.0912 94.0619C99.5281 95.027 100.006 95.9399 100.527 96.8621C100.684 97.1404 101.159 96.9549 101.052 96.6406C100.732 95.6893 100.391 94.7825 99.9544 93.8787C98.7792 91.448 96.9962 88.0644 95.4616 85.662C95.3811 85.5363 95.2063 85.6452 95.2654 85.777Z" fill="black"/>
<path d="M91.5267 116.151C92.1277 117.57 92.7286 118.668 93.6247 119.921C94.1153 120.608 94.0962 120.558 94.6366 120.955C94.8428 121.106 95.0666 120.82 94.9647 120.627C94.855 120.42 94.7615 120.2 94.622 120.012C94.4549 119.786 93.0483 118.198 91.8371 115.969C91.7237 115.76 91.4393 115.944 91.5267 116.151Z" fill="black"/>
<path d="M97.1594 116.076C97.7473 117.026 99.0359 118.928 100.437 121.438C100.6 121.729 100.783 121.919 101.032 122.138C101.247 122.328 101.538 122.141 101.493 121.87C101.387 121.24 101.309 121.165 100.735 120.23C99.8775 118.834 98.5821 116.973 97.5357 115.785C97.3556 115.581 97.0175 115.846 97.1594 116.076Z" fill="black"/>
<path d="M36.1645 90.9214C40.4265 99.9483 46.5942 108.137 49.1782 110.56C49.402 110.77 49.8045 110.494 49.6205 110.219C47.2917 106.73 43.482 103.188 36.34 90.8187C36.2733 90.7037 36.1093 90.8049 36.1645 90.9214Z" fill="black"/>
<path d="M42.21 76.9293C43.632 79.3439 47.8625 86.3234 49.7306 88.3202C49.979 88.5862 50.3814 88.2482 50.2197 87.9431C49.4393 86.4683 46.5272 82.6048 42.5312 76.7423C42.3978 76.5467 42.0881 76.7208 42.2108 76.9293H42.21Z" fill="black"/>
<path d="M57.7548 76.714C59.7685 80.5904 62.407 84.6401 64.9419 87.9477C65.848 89.1298 66.7602 90.3884 67.9338 91.3206C68.2097 91.5398 68.6536 91.2684 68.4512 90.9212C67.1481 88.6852 64.0742 86.1379 58.0859 76.52C57.9548 76.31 57.6413 76.4947 57.7548 76.7132V76.714Z" fill="black"/>
<path d="M66.3211 106.32C65.7623 96.6122 65.2962 93.234 65.9624 85.6728C65.9815 85.4551 65.8129 85.2619 65.5906 85.2565C63.9218 85.2136 62.184 85.13 60.4202 85.0143C57.7243 81.9381 54.7646 79.0751 51.6041 76.4871C51.0346 76.0211 50.6559 76.0395 50.1369 76.3967C47.244 78.3798 44.4055 80.5047 41.6796 82.7269C39.4497 82.3153 37.5625 81.8944 36.1942 81.4966C35.9634 81.4307 35.7281 81.5886 35.7051 81.8293C34.9217 90.2391 35.3303 95.3635 36.0631 103.028C36.0784 103.187 36.1903 103.32 36.3436 103.362C44.2069 105.504 53.972 106.13 65.9194 106.725H65.9386C66.1586 106.725 66.3341 106.541 66.3211 106.32ZM50.8153 76.8996C51.1404 76.9165 55.7696 80.9631 59.3286 84.9376C53.4691 84.5091 47.4157 83.7372 42.6746 82.9055C45.4932 80.6335 50.5578 76.9088 50.8153 76.8996ZM44.4982 93.2731C44.4767 94.2857 44.3694 95.3972 43.7455 96.2366C43.2579 96.8935 42.4799 97.3879 41.6397 97.3757C39.3202 97.3404 38.5758 93.6219 39.1645 91.3782C39.8452 88.785 42.2752 87.8812 43.8589 90.1709C44.4369 91.0064 44.5181 92.364 44.4982 93.2731ZM46.4092 94.6928C46.4322 95.2539 46.4744 95.8134 46.5388 96.3715C46.5863 96.7824 46.8209 97.8785 46.0873 97.8456C45.4142 97.8149 45.4357 96.6919 45.3897 96.2259C45.2088 94.3923 45.1781 91.589 45.8075 89.8505C45.937 89.4932 46.4422 89.4994 46.5411 89.8344C47.3766 89.5392 48.9235 90.0421 49.759 91.0478C51.1611 92.7342 49.3888 95.4095 46.4092 94.6928ZM54.9716 99.3672C54.3392 99.4998 53.568 99.3028 52.9379 99.1886C52.3592 99.0835 51.5773 99.023 51.2362 98.4695C50.9372 97.9843 50.928 97.2645 50.8782 96.7126C50.662 94.3256 51.2094 91.9094 51.6018 91.2425C51.9192 90.7036 52.662 90.6929 53.2146 90.6553C53.8202 90.6147 54.5852 90.5932 55.0927 90.9727C55.3035 91.1298 55.2805 91.4334 55.0206 91.5261C54.402 91.7454 53.7827 91.556 52.7831 91.7492C52.5048 91.8029 52.5385 91.7569 52.4604 92.0367C52.2595 92.7557 52.1162 93.4946 52.0388 94.2382C52.3086 94.196 52.5899 94.1937 52.8567 94.1914C53.5167 94.1853 54.2089 94.183 54.4925 94.439C54.6895 94.6161 54.6581 95.0208 54.4028 95.1358C54.1981 95.2278 54.0425 95.2094 53.8287 95.178C52.9808 95.0553 52.5385 95.0369 51.9843 94.9702C51.9491 95.7399 51.9866 96.4895 52.0679 97.1212C52.0901 97.2929 52.0832 97.68 52.1913 97.8218C52.2664 97.9192 52.537 97.9383 52.6704 97.9675C54.0142 98.2595 54.4151 98.1315 54.9716 98.3362C55.4246 98.5033 55.5312 99.2499 54.9716 99.3672ZM60.8855 99.3181C60.8778 99.8233 60.1121 100.102 59.8729 99.5918C58.9185 97.5558 58.0255 95.4907 57.1831 93.4065C56.7323 96.4819 56.9976 98.3285 56.7661 99.476C56.7047 99.7788 56.3015 99.7183 56.2119 99.476C55.512 97.5842 56.0907 93.3551 56.4947 91.3928C56.6089 90.8393 57.3256 90.9643 57.4951 91.3928C58.2317 93.2539 59.0151 95.0952 59.8361 96.9196L59.9258 91.1183C59.9365 90.4185 61.0235 90.4185 61.0128 91.1183L60.8855 99.3181Z" fill="black"/>
<path d="M41.645 90.0099C39.8704 90.4108 39.8007 93.8795 40.6922 95.5091C41.3966 96.7969 42.7082 96.1599 43.1068 94.9978C43.3421 94.3118 43.3575 93.5728 43.3521 92.8546C43.3421 91.4986 42.8906 89.947 41.645 90.0099Z" fill="black"/>
<path d="M46.5448 90.5027C46.5018 91.3566 46.3915 91.9446 46.3892 93.529C46.6345 93.5191 48.1461 94.0495 48.9333 93.0591C49.2446 92.6682 49.263 92.3194 49.1648 91.953C48.8827 91.3605 47.8264 90.5479 46.5448 90.5027Z" fill="black"/>
<path d="M138.145 115.159C137.606 114.392 136.611 113.822 135.905 113.418C135.466 113.167 135.06 112.901 134.55 112.888C133.944 112.872 133.456 113.244 133.009 113.248C132.652 113.244 132.264 112.963 131.834 112.792C130.811 112.382 129.588 112.619 128.792 113.382C128.076 114.067 128.292 114.316 126.982 114.818C126.501 115.002 126.003 115.192 125.536 115.828C125.254 116.213 125.077 116.585 125.006 116.945C124.814 116.94 124.627 117.078 124.61 117.3C124.44 119.594 124.817 121.876 125.182 124.082C125.79 127.769 126.795 129.655 130.984 130.102C132.59 130.271 134.313 130.198 135.687 129.347C136.871 128.613 137.773 127.305 138.224 125.661C138.697 123.94 138.649 122.763 138.782 115.458C138.789 115.095 138.369 114.963 138.145 115.16V115.159ZM126.154 116.28C126.905 115.258 127.726 115.838 128.955 114.348C129.073 114.205 129.19 114.061 129.322 113.935C129.711 113.563 130.255 113.361 130.796 113.361C132.097 113.361 132.197 114.433 133.899 113.81C134.476 113.597 134.642 113.572 135.264 113.932C136.162 114.452 137.462 115.144 137.712 116.008C135.906 118.826 128.647 119.053 125.743 117.39C125.711 117.063 125.847 116.697 126.153 116.28L126.154 116.28Z" fill="black"/>
<path d="M130.349 102.44C130.852 99.2384 127.704 95.2094 125.151 93.2133C122.233 90.9344 119.96 92.1777 119.682 94.5785C119.56 95.6395 119.835 96.7027 120.378 99.4814C120.693 101.09 121.085 103.091 122.328 104.542C123.492 105.899 125.582 106.573 127.116 105.733C127.607 107.03 128.096 108.476 128.56 110.083C129.314 112.687 129.482 114.023 129.893 115.107C129.946 115.247 130.161 115.234 130.163 115.07C130.188 113.503 129.387 109.764 127.769 105.444C129.138 105.111 130.143 103.74 130.348 102.44L130.349 102.44ZM127.492 104.717C126.631 102.512 125.563 100.18 124.289 97.9291C123.877 97.2001 123.473 96.2926 122.851 95.7192C122.644 95.5283 122.271 95.713 122.36 96.0051C122.679 97.043 124.71 99.6638 126.79 104.893C126.746 104.947 126.716 105.013 126.705 105.084C125.501 105.703 123.815 105.1 122.91 104.045C121.798 102.748 121.443 100.936 121.13 99.3358C120.535 96.2918 120.339 95.5674 120.443 94.6682C120.669 92.7235 122.367 92.0114 124.678 93.8189C127.026 95.654 130.043 99.4553 129.591 102.322C129.423 103.391 128.598 104.504 127.492 104.717Z" fill="black"/>
<path d="M144.89 75.2108C144.123 73.2009 142.684 73.0162 140.848 74.1369C137.176 76.3798 134.159 79.5687 132.122 83.3593C130.504 86.3688 130.337 88.6393 131.637 89.9241C132.461 90.7397 133.39 90.6009 134.351 90.9007C131.703 98.9939 130.872 109.197 131.54 114.642C131.559 114.796 131.778 114.804 131.785 114.642C131.975 110.669 131.506 101.688 134.98 91.1406C136.246 91.6963 137.482 92.6093 138.956 92.6093C140.68 92.6093 141.954 91.4043 142.637 89.8198C142.982 89.0203 143.175 88.1717 143.362 87.3508C144.304 83.2083 146.388 79.1395 144.89 75.2101L144.89 75.2108ZM142.785 86.4547C142.348 88.2446 141.969 90.8432 139.996 91.6358C138.306 92.3142 137.023 91.1735 135.221 90.43C137.455 83.9641 140.156 80.3207 141.452 78.054C141.57 77.8463 141.281 77.6071 141.113 77.7926C138.446 80.7339 135.985 86.1664 134.59 90.1962C133.394 89.8076 132.787 89.9831 132.176 89.3798C130.871 88.0882 131.793 85.5908 132.798 83.7227C134.771 80.0517 137.693 76.9632 141.249 74.7915C142.679 73.9177 143.585 73.9384 144.175 75.4845C145.535 79.0506 143.616 83.0611 142.786 86.4554L142.785 86.4547Z" fill="black"/>
<path d="M139.313 98.159C137.344 98.911 135.042 100.571 134.483 102.974C134.194 104.224 134.544 105.019 135.655 105.633C135.908 105.773 136.088 105.825 136.241 105.872C135.106 107.98 133.371 112.228 133.274 114.5C133.264 114.739 133.594 114.756 133.668 114.553C134.44 112.425 134.373 110.681 136.789 106.182C137.259 106.645 137.433 107.266 138.145 107.611C138.493 107.781 138.839 107.865 139.178 107.865C141.266 107.865 142.447 104.815 143.2 102.875C143.479 102.159 143.737 101.385 143.74 100.576C143.747 98.504 142.108 97.0904 139.313 98.159ZM142.487 102.598C141.699 104.626 140.443 107.875 138.48 106.923C137.953 106.668 137.801 106.016 137.17 105.496C138.442 103.276 139.437 102.262 140.331 100.87C140.475 100.646 140.162 100.434 139.979 100.597C138.788 101.658 137.392 103.847 136.621 105.191C136.427 105.124 136.239 105.081 136.026 104.963C135.221 104.518 135.02 104.06 135.231 103.149C136.251 98.7577 145.122 95.8164 142.487 102.599V102.598Z" fill="black"/>
</svg>
