<svg width="154" height="154" viewBox="0 0 154 154" fill="none" xmlns="http://www.w3.org/2000/svg">
<path d="M46.2219 121.511C45.6164 120.66 45.3711 121.879 39.4075 125.65C39.9681 124.11 40.6632 122.622 41.4848 121.204C41.5767 121.051 41.3315 120.913 41.2395 121.066C40.4716 121.119 39.7002 121.086 38.9399 120.966C38.1733 120.905 33.8425 120.775 33.4745 120.782C33.3389 120.764 33.2008 120.773 33.0689 120.81C32.937 120.847 32.8141 120.911 32.708 120.997C32.4857 121.212 28.4844 128.018 25.6329 132.664C25.6215 132.683 25.6149 132.705 25.6135 132.728C25.6122 132.751 25.6161 132.773 25.6251 132.794C25.634 132.815 25.6477 132.833 25.665 132.848C25.6823 132.863 25.7028 132.873 25.7249 132.878C26.5069 132.943 27.2937 132.92 28.0705 132.809C28.9156 132.861 29.7559 132.974 30.5847 133.147C31.4355 133.254 32.2864 133.3 33.1449 133.361C35.1226 133.499 35.2682 133.53 35.4445 133.422C35.6208 133.315 36.9009 131.123 37.0542 130.893C37.8481 131.746 38.5663 132.667 39.2005 133.645C39.3833 133.697 39.5786 133.683 39.7524 133.606C40.2277 133.453 46.4442 131.062 48.6748 128.486C48.9661 128.149 49.2037 127.98 49.0198 127.536C48.8358 127.091 46.5285 121.94 46.2219 121.511ZM35.2605 133.193C35.1915 133.285 30.2781 132.825 29.8105 132.748C29.3429 132.671 28.952 132.579 28.5151 132.541C27.6872 132.472 26.844 132.748 26.0238 132.633C27.5569 130.272 31.8801 122.99 32.5853 121.756C32.7463 121.465 32.8766 121.089 33.2676 121.058C33.6585 121.028 38.1197 121.196 38.9169 121.25C39.6417 121.338 40.3736 121.353 41.1015 121.296C38.9629 124.945 38.4953 128.846 35.2605 133.193ZM48.6595 128.141C47.1724 130.287 39.3691 133.438 39.2312 133.331C38.6794 132.341 37.9932 131.433 37.1922 130.632C37.3608 130.341 38.7253 127.375 39.2465 126.033C39.3231 125.972 45.693 121.557 45.7697 121.549C45.8463 121.541 46.0303 121.748 46.0916 121.856C46.1529 121.963 48.4909 127.106 48.5828 127.321C48.6748 127.536 48.8818 127.834 48.6672 128.141H48.6595Z" fill="black"/>
<path d="M33.7809 124.523C34.2485 123.657 33.666 123.067 33.0144 123.22C32.8744 123.24 32.7399 123.289 32.6193 123.362C32.4986 123.436 32.3942 123.534 32.3124 123.649C32.2307 123.765 32.1733 123.896 32.1437 124.034C32.1142 124.172 32.1131 124.315 32.1406 124.454C32.1912 124.628 32.2951 124.782 32.4378 124.894C32.5805 125.006 32.7548 125.07 32.936 125.078C33.1172 125.086 33.2962 125.036 33.4478 124.937C33.5994 124.837 33.7159 124.692 33.7809 124.523ZM35.2603 123.695C35.1657 123.897 35.143 124.125 35.1961 124.341C35.2491 124.557 35.3746 124.748 35.5516 124.883C35.7345 125.023 35.958 125.098 36.1878 125.098C36.4177 125.098 36.6412 125.023 36.8241 124.883C37.0004 124.739 37.128 124.544 37.1897 124.324C37.2514 124.105 37.2442 123.872 37.169 123.657C37.0753 123.483 36.9356 123.339 36.7652 123.239C36.5948 123.14 36.4002 123.09 36.203 123.093C36.0057 123.097 35.8134 123.156 35.6471 123.262C35.4808 123.368 35.347 123.518 35.2603 123.695ZM34.7774 126.209C34.6545 126.292 34.5519 126.401 34.4771 126.528C34.4023 126.656 34.3573 126.799 34.3455 126.946C34.3337 127.094 34.3554 127.242 34.409 127.38C34.4625 127.518 34.5466 127.642 34.6548 127.743C35.3447 128.264 36.3182 127.106 35.8429 126.324C35.5286 125.788 34.8771 126.14 34.7774 126.209ZM31.489 126.263C31.2777 126.501 31.1653 126.811 31.1747 127.129C31.1822 127.266 31.23 127.397 31.312 127.506C31.3941 127.615 31.5066 127.697 31.6355 127.743C31.7644 127.788 31.9037 127.794 32.0359 127.759C32.1681 127.725 32.2873 127.653 32.3782 127.551C32.6235 127.321 32.9301 126.685 32.7691 126.378C32.7094 126.265 32.6224 126.169 32.5161 126.098C32.4097 126.028 32.2874 125.985 32.1603 125.973C32.0331 125.962 31.9051 125.982 31.7879 126.033C31.6706 126.084 31.5679 126.163 31.489 126.263ZM33.229 131.131C33.284 131.259 33.3753 131.368 33.4918 131.445C33.6083 131.522 33.7448 131.563 33.8844 131.563C34.024 131.563 34.1605 131.522 34.277 131.445C34.3935 131.368 34.4849 131.259 34.5398 131.131C34.6187 131.021 34.6732 130.896 34.6996 130.764C34.7261 130.632 34.7239 130.495 34.6931 130.364C34.2639 129.222 32.9608 130.41 33.229 131.131ZM31.0674 129.368C30.9691 129.316 30.8609 129.287 30.7502 129.282C30.6395 129.277 30.529 129.295 30.4263 129.337C30.3236 129.378 30.2311 129.442 30.1552 129.522C30.0792 129.603 30.0217 129.699 29.9866 129.804C29.9077 129.938 29.8661 130.09 29.8661 130.245C29.8661 130.4 29.9077 130.553 29.9866 130.686C30.0648 130.761 30.1579 130.818 30.2599 130.855C30.3619 130.891 30.4704 130.905 30.5783 130.896C30.6862 130.888 30.7911 130.856 30.8859 130.804C30.9808 130.752 31.0636 130.68 31.1287 130.594C31.2266 130.472 31.2901 130.327 31.3127 130.172C31.3357 129.889 31.3664 129.498 31.0674 129.368ZM39.5299 130.962C39.5446 131.067 39.5875 131.165 39.6539 131.247C39.7203 131.329 39.8078 131.392 39.907 131.428C40.0062 131.464 40.1134 131.473 40.2171 131.453C40.3208 131.433 40.4171 131.385 40.4958 131.315C40.5975 131.229 40.6796 131.122 40.7365 131.002C40.7934 130.881 40.8237 130.75 40.8254 130.617C40.8308 130.546 40.8213 130.474 40.7976 130.407C40.7738 130.34 40.7363 130.278 40.6874 130.226C40.0282 129.705 39.4686 130.356 39.5299 130.962ZM42.9257 128.011C42.7384 128.071 42.5662 128.17 42.4207 128.302C42.2752 128.435 42.1599 128.597 42.0825 128.777C41.9522 129.099 41.9675 129.958 43.0943 129.85C44.5814 129.682 44.4587 127.428 42.9257 128.011ZM45.4169 125.872C44.911 125.512 43.9988 126.179 43.9681 126.83C43.9681 127.651 44.8496 127.497 45.0489 127.436C45.208 127.393 45.3526 127.308 45.4672 127.19C45.5818 127.071 45.6623 126.924 45.7 126.764C45.7377 126.604 45.7313 126.436 45.6815 126.279C45.6316 126.122 45.5402 125.981 45.4169 125.872ZM43.9605 125.497C44.0914 125.455 44.2088 125.379 44.3004 125.277C44.3919 125.174 44.4543 125.049 44.4809 124.914C44.5076 124.78 44.4975 124.64 44.4518 124.511C44.4061 124.381 44.3264 124.266 44.2211 124.178C43.7995 123.841 43.1709 124.04 43.0483 124.761C43.0296 124.839 43.0268 124.919 43.0399 124.998C43.0531 125.077 43.082 125.153 43.1249 125.221C43.1863 125.297 43.6002 125.711 43.9605 125.497ZM42.6037 126.708C42.6727 126.577 43.1863 125.175 42.0365 125.305C40.8867 125.435 40.3884 127.145 41.8295 127.145C41.9857 127.147 42.1397 127.108 42.2757 127.031C42.4118 126.954 42.5249 126.843 42.6037 126.708ZM40.6261 127.949C40.6797 127.827 40.6261 126.83 39.9209 127.045C38.9397 127.344 38.5718 128.448 39.6296 128.578C40.0742 128.639 40.3731 128.524 40.6261 127.949ZM19.4775 130.18C19.2628 130.234 18.7109 130.51 18.573 129.713C18.504 129.406 18.136 129.276 17.8064 129.222C17.0399 129.092 16.4727 129.682 15.9668 130.172C15.6602 130.471 15.0623 130.77 14.863 130.172C14.7556 129.858 14.8016 129.513 14.6943 129.191C14.587 128.869 14.403 128.54 14.1348 128.647C13.9404 128.719 13.7336 128.75 13.5268 128.74C13.3199 128.729 13.1174 128.677 12.9313 128.586C12.5994 128.574 12.2698 128.646 11.9735 128.796C11.6772 128.947 11.4239 129.169 11.2373 129.444C11.1376 129.598 10.9 130.042 10.8004 130.027C10.6483 129.946 10.5131 129.836 10.4018 129.705C8.86869 127.804 6.69941 129.705 8.04084 131.054C8.30674 131.239 8.52054 131.49 8.66173 131.782C8.71785 132.197 8.64843 132.619 8.46243 132.993C8.25547 133.76 8.41644 135.392 9.32861 135.737C12.0575 136.788 13.2379 137.876 14.0734 138.19C14.9162 138.459 15.8215 138.459 16.6643 138.19C16.8302 138.17 16.9893 138.112 17.1289 138.02C17.2686 137.929 17.385 137.806 17.4692 137.661C17.7243 136.828 17.8154 135.954 17.7375 135.086C17.7375 134.864 17.6761 134.542 18.2357 134.542C18.7675 134.554 19.2917 134.413 19.7447 134.134C20.1977 133.855 20.5602 133.451 20.7882 132.97C21.3708 131.552 20.9952 129.804 19.4775 130.18ZM20.7423 132.257C20.599 132.852 20.2653 133.383 19.7921 133.771C19.3188 134.158 18.7319 134.381 18.1207 134.404C17.9291 134.404 17.6915 134.319 17.5841 134.534C17.4768 134.749 17.6838 135.73 17.4538 136.995C17.3772 137.416 17.3005 137.815 16.8406 137.96C14.3111 138.727 13.3222 137.194 10.877 136.105C10.1641 135.799 9.29795 135.707 8.93002 134.94C8.63173 134.281 8.56684 133.541 8.74605 132.84C9.32861 131.384 8.35512 131.307 7.97952 130.617C7.46594 129.636 8.999 128.54 10.0568 129.72C10.2714 129.965 10.4171 130.303 10.7774 130.364C11.1376 130.425 11.2679 130.218 11.3829 129.942C11.5132 129.62 11.7439 129.349 12.0408 129.168C12.3376 128.987 12.6848 128.906 13.031 128.938C13.4039 129.034 13.7927 129.053 14.1731 128.992C14.5027 128.938 14.4874 129.605 14.518 129.873C14.5232 130.156 14.6292 130.428 14.817 130.64C15.3842 131.161 16.0204 130.525 16.4037 130.134C16.6873 129.858 17.7145 129.053 18.3507 129.904C18.5193 130.134 18.527 130.456 18.8336 130.556C19.1402 130.655 19.4468 130.464 19.7458 130.441C20.6963 130.31 20.8726 131.552 20.7423 132.257Z" fill="black"/>
<path d="M15.4304 134.227C14.7175 134.519 12.5712 134.603 12.5252 132.855C12.5252 132.679 12.7322 132.564 12.9161 132.549C12.9405 132.549 12.9639 132.539 12.9812 132.522C12.9984 132.505 13.0081 132.481 13.0081 132.457C13.0081 132.432 12.9984 132.409 12.9812 132.392C12.9639 132.374 12.9405 132.365 12.9161 132.365C12.7355 132.384 12.5677 132.468 12.4427 132.6C12.3178 132.732 12.2438 132.904 12.2339 133.085C12.1956 133.53 12.8778 135.163 15.5223 134.557C15.737 134.503 15.6297 134.143 15.4304 134.227ZM130.51 84.0657C127.07 83.4371 123.618 82.9261 120.154 82.5326C119.947 82.5326 119.954 82.8239 120.154 82.8469C123.598 83.2659 127.03 83.7565 130.448 84.3186C130.594 84.3186 130.655 84.0887 130.51 84.0657ZM34.0954 85.1235C34.0954 85.2844 34.3483 85.3228 34.379 85.1235C34.6626 83.4754 34.8313 57.1528 15.1467 42.3894C15.0548 42.3204 14.9628 42.4737 15.0548 42.5427C35.1225 58.5709 34.126 84.7172 34.0954 85.1235Z" fill="black"/>
<path d="M148.5 51.8559C148.5 51.8099 148.393 51.6796 148.347 51.6796C144.214 50.4586 140.01 49.4885 135.76 48.7745C135.76 48.7745 135.76 46.7125 135.615 45.7084C135.558 44.8949 135.19 44.1346 134.588 43.5851C134.351 43.3583 134.052 43.209 133.729 43.1569C133.405 43.1049 133.074 43.1526 132.779 43.2938V41.6994C132.625 41.4646 132.41 41.2764 132.158 41.1552C130.204 40.6476 128.197 40.3748 126.179 40.3426C121.579 40.5343 120.529 41.1092 120.468 41.4848C120.138 43.7844 120.629 48.9814 120.69 49.9703C120.652 49.8936 109.545 50.9898 108.058 51.1507C108.028 51.1639 108.001 51.1839 107.98 51.2092C107.958 51.2345 107.943 51.2643 107.935 51.2964C108.112 58.2871 108.602 62.1581 108.633 62.4111C106.64 60.2057 104.46 58.1771 102.117 56.3478C102.296 53.7678 102.037 51.1761 101.351 48.6825C100.791 46.1529 100.239 43.6157 99.5877 41.1092C97.0275 31.2976 94.8352 30.2321 94.222 25.5026C93.9943 22.8942 94.0328 20.2693 94.337 17.6687C94.333 17.5063 94.2834 17.3484 94.194 17.2128C94.1045 17.0773 93.9788 16.9696 93.8311 16.9021C93.5213 16.8015 93.1898 16.7882 92.8729 16.8638C92.459 16.9405 86.9936 18.4582 86.0201 18.5655C84.0646 18.7187 82.0982 18.657 80.1562 18.3815C75.557 17.8756 72.3605 18.1822 67.8304 18.7341C67.4548 15.0395 61.5218 13.4681 58.2564 16.9788C58.1491 16.8485 56.7847 15.4457 56.7233 15.4457C55.7268 14.4646 53.7569 14.9628 52.4691 15.5071C50.4914 16.3502 49.4643 17.8066 49.7249 19.9913C46.3982 19.8763 45.2637 21.0951 44.7578 21.6393C38.7559 23.0037 35.958 24.2225 31.5121 27.005C26.3227 30.2704 21.1256 34.1644 14.8554 33.7275C13.6007 33.5446 12.3246 33.5653 11.0764 33.7888C11.057 33.7876 11.0377 33.7916 11.0204 33.8005C11.0031 33.8095 10.9886 33.8229 10.9783 33.8394C10.9681 33.8559 10.9626 33.8749 10.9623 33.8944C10.962 33.9138 10.967 33.933 10.9768 33.9498C12.5098 36.0577 11.498 38.595 11.1378 40.9099C10.7219 43.7771 10.5858 46.6781 10.7315 49.5717C11.0494 56.9412 12.9694 64.1529 16.3578 70.7049C18.0212 74.047 20.1292 77.1131 22.1068 80.2789C25.3646 85.5143 32.9455 92.8423 33.4668 93.3099C33.4889 93.3265 33.5163 93.3346 33.5439 93.3326C33.5715 93.3307 33.5975 93.3188 33.6171 93.2992C33.6367 93.2797 33.6485 93.2537 33.6505 93.2261C33.6524 93.1985 33.6444 93.1711 33.6278 93.1489C20.3131 80.1179 15.116 67.1559 14.2805 64.9483C12.5635 60.5561 9.68901 51.603 11.8813 38.6946C12.0729 37.5985 12.5022 35.4905 11.2604 33.9728C13.1844 33.5588 14.8248 34.3407 17.9445 33.9038C26.8286 32.6467 32.248 24.6058 44.3592 22.1299C43.9281 22.6611 43.6122 23.2761 43.4314 23.9359C43.2506 24.5956 43.209 25.2858 43.309 25.9625C43.4532 27.5721 44.0335 29.1119 44.9877 30.4161C44.7544 30.9098 44.6333 31.4491 44.6333 31.9951C44.6333 32.5412 44.7544 33.0805 44.9877 33.5742C46.1605 36.1344 46.0456 39.8597 45.9919 40.9405C45.9152 42.5503 45.7313 42.9948 45.9919 43.93C46.2832 44.9955 46.6588 44.9418 47.065 46.0763C47.4576 47.2362 47.5343 48.4796 47.2873 49.679C46.9884 51.3654 46.3368 51.5953 46.3368 52.7451C46.3975 53.849 46.8773 54.8882 47.6783 55.6503C35.5288 71.7474 37.8513 86.7331 38.5489 90.7957C34.8925 90.7497 31.1365 97.3802 30.3547 98.5683C29.6495 99.6338 27.2886 102.531 24.2761 103.459C22.789 102.47 22.743 102.393 22.6664 102.462C22.016 102.898 21.2782 103.185 20.5048 103.305C20.5048 103.305 19.0943 102.746 18.9717 102.018C18.9027 101.665 20.4128 100.316 19.079 99.0512C18.6344 98.6296 18.0289 98.1314 15.6679 96.9739C14.5335 96.422 13.0081 95.7781 11.8353 96.5983C11.8001 96.6219 11.775 96.6578 11.765 96.699C11.7551 96.7402 11.761 96.7836 11.7816 96.8206C12.8395 98.8979 11.6437 101.167 10.1183 102.639C10.0963 102.662 10.0815 102.691 10.0756 102.723C10.0698 102.755 10.0731 102.787 10.0852 102.817C10.0972 102.847 10.1176 102.873 10.1439 102.891C10.1701 102.91 10.2011 102.921 10.2332 102.922C13.675 103.19 13.7593 105.988 13.767 106.088C3.39579 110.258 3.83272 110.005 3.83272 110.22C4.10867 111.868 5.01317 117.655 5.14348 117.801C8.05067 120.223 11.185 122.359 14.5028 124.178C14.5565 124.178 22.9347 121.342 31.9797 117.609C32.2327 117.509 32.0794 117.356 31.9031 116.405C32.1254 115.723 32.3936 115.639 32.9685 115.854C33.5434 116.068 33.9344 117.916 35.6591 117.617C36.0478 117.56 36.4321 117.475 36.8089 117.364C37.1078 117.264 37.6214 116.957 37.5754 116.597C39.1085 116.459 44.8881 115.831 48.3835 111.714C53.66 117.475 59.339 122.855 65.3775 127.811C65.6346 127.837 65.8942 127.816 66.144 127.75C67.3306 129.184 68.8748 130.279 70.6205 130.924C71.0651 131.1 71.1724 130.755 70.9425 130.333C71.3794 130.494 72.0923 130.732 72.4755 130.471C72.5668 130.402 72.6311 130.302 72.6576 130.191C72.6842 130.079 72.6713 129.961 72.6212 129.858C72.6212 129.858 73.495 129.996 73.6407 129.643C73.7863 129.291 73.541 129.13 73.3111 128.954C73.6253 128.954 73.9089 128.724 73.8323 128.363C73.7556 128.003 72.6442 127.106 71.709 126.792C72.1766 126.439 72.7898 125.818 72.3529 125.458C71.916 125.098 71.2031 125.826 70.1759 125.029C70.325 124.812 70.4412 124.575 70.5209 124.324C69.7543 121.112 67.8993 115.125 61.9127 102.746C64.2123 100.845 75.9556 91.1866 85.1769 87.5533C91.3952 85.0629 98.0492 83.8431 104.746 83.9659C106.111 85.7136 108.97 92.0681 110.112 94.4367C111.883 97.9926 113.99 101.371 116.405 104.524C116.749 104.608 117.104 104.634 117.456 104.601C117.456 105.896 116.49 106.011 116.49 106.571C116.49 107.13 117.433 107.023 117.946 106.877C117.732 107.529 117.456 109.047 117.946 109.53C117.998 109.582 118.061 109.622 118.131 109.646C118.2 109.671 118.274 109.68 118.348 109.673C118.421 109.665 118.492 109.642 118.555 109.604C118.618 109.566 118.672 109.514 118.713 109.453C118.713 110.22 119.249 110.511 119.855 109.453C119.899 109.542 119.97 109.616 120.058 109.662C120.146 109.709 120.247 109.727 120.345 109.714C120.713 109.675 121.173 108.595 121.219 108.403C121.277 108.55 121.379 108.676 121.511 108.763C121.932 108.97 121.986 108.089 122.047 107.859C122.443 106.325 122.425 104.714 121.993 103.19C121.993 103.19 122.285 103.099 122.269 102.968C121.465 88.7491 119.495 76.6915 111.17 65.6075C121.373 67.4318 131.1 74.116 140.298 74.6449C140.451 74.6449 140.444 74.4149 140.298 74.4073C137.902 74.0392 135.533 73.509 133.208 72.8205C133.054 68.9879 132.526 59.2836 132.441 58.2565C134.549 57.5973 145.534 53.8642 148.155 52.1242C147.527 58.4251 148.922 67.5315 149.167 68.7273C149.167 68.9189 149.481 68.8346 149.451 68.6506C148.768 64.2737 147.94 55.1903 148.5 51.8559ZM132.779 43.5851C134.235 43.0715 135.078 44.2673 135.3 45.785C135.4 46.5975 135.415 48.5752 135.423 48.7438C135.362 48.7438 133.208 48.8435 132.763 48.9048C132.763 47.1341 132.779 45.3558 132.779 43.5851ZM132.779 49.0734C133.254 49.0198 135.392 49.0121 135.446 49.0044C135.446 51.465 133.369 50.6678 132.771 50.6985C132.763 50.5068 132.763 49.4184 132.763 49.0581L132.779 49.0734ZM120.652 41.8757C126.179 45.2944 132.418 42.098 132.441 42.0827V50.4455C132.441 52.2239 132.05 53.1207 129.942 53.5116C126.7 54.1402 121.917 53.9946 121.135 50.7751C120.782 47.8221 120.615 44.8497 120.637 41.8757H120.652ZM67.861 19.0024C79.267 17.799 79.9722 19.2171 84.4794 19.1021C86.3267 19.0484 85.8285 19.1941 92.7579 17.3007C93.0875 17.2088 93.6088 17.0784 93.8694 17.3927C94.13 17.707 93.1795 22.8734 93.8694 25.8705C94.5094 28.2886 95.3796 30.6398 96.4679 32.892C98.5682 37.5985 99.6337 42.6422 100.799 47.6477C101.45 50.4609 102.087 53.297 101.864 56.2022C99.9557 54.7534 88.2661 46.7585 76.3772 45.2254C76.692 44.5895 76.789 43.8676 76.6531 43.1711C76.1779 41.1092 73.2574 40.9329 71.1341 36.441C71.0268 36.5177 78.5695 29.5882 79.014 29.0823C79.8879 28.1012 79.6733 27.0893 79.014 26.5681C78.0482 25.8016 76.7144 26.5681 75.8636 27.0893C75.3577 27.4189 71.2644 31.1979 70.3982 32.0105C70.6665 30.2168 71.8087 23.3333 67.792 20.2902C67.8572 19.8642 67.8803 19.4329 67.861 19.0024ZM70.7278 36.2034C70.5592 36.3644 69.1948 37.6751 68.6582 38.1197C68.4603 38.3214 68.1963 38.4449 67.9146 38.4674C67.6329 38.4899 67.3526 38.41 67.1251 38.2424C67.0923 38.2105 67.0483 38.1927 67.0025 38.1927C66.9567 38.1927 66.9127 38.2105 66.8799 38.2424C66.8262 38.296 65.1092 40.0667 65.0785 40.1433C64.9789 39.9364 64.6876 39.8597 64.4576 39.8214C65.1628 39.2542 65.8374 38.6486 66.5273 38.0584C66.5886 38.0047 66.2896 37.2919 66.282 37.1232C66.2998 36.8292 66.3769 36.5418 66.5086 36.2784C66.6403 36.0149 66.824 35.7808 67.0485 35.5902C67.93 34.701 75.9939 27.3729 76.4768 27.1123C76.9673 26.7824 77.5416 26.5989 78.1325 26.5834C79.0524 26.6831 79.5966 27.7332 78.7764 28.7144C78.4085 29.159 76.0476 31.2669 76.0092 31.3129C75.7503 31.2055 75.5176 31.0434 75.327 30.8377C75.327 30.784 75.189 30.8377 75.1737 30.9296C75.1584 31.0216 75.4497 31.3666 75.7946 31.5045L74.6601 32.547C74.4225 32.4857 74.2845 32.2021 74.2462 32.1868C74.2283 32.1804 74.2092 32.1786 74.1904 32.1814C74.1717 32.1843 74.1539 32.1917 74.1387 32.2031C74.1235 32.2145 74.1114 32.2295 74.1034 32.2467C74.0954 32.2639 74.0918 32.2828 74.0929 32.3017C74.0929 32.5317 74.4685 32.7233 74.4685 32.7233L73.587 33.5588C73.3985 33.4379 73.2431 33.272 73.1348 33.0759C73.1348 33.0223 73.0044 33.0759 73.0044 33.1296C73.0044 33.4209 73.3494 33.6738 73.4184 33.7198L72.2839 34.7623C72.117 34.6107 71.9346 34.4771 71.7397 34.3637C71.6937 34.3637 71.6094 34.448 71.6477 34.4787C71.8198 34.609 71.9744 34.761 72.1076 34.9309L70.8965 36.0271C70.7349 35.9338 70.5941 35.8086 70.4826 35.6591H70.3522C70.1683 35.7971 70.5209 36.1114 70.7278 36.2034ZM69.3404 33.0069C68.9265 33.3979 66.9412 35.1916 66.4736 35.7818C66.2819 35.9848 66.1367 36.227 66.048 36.4918C65.9593 36.7565 65.9293 37.0374 65.96 37.3148C66.0105 37.5344 66.0851 37.7478 66.1823 37.9511C65.5001 38.5566 64.8102 39.1545 64.151 39.7907C62.2577 39.6834 61.4682 40.4806 61.2612 40.7566C61.1999 40.8332 61.3148 40.9329 61.3838 40.8792C62.8632 39.6681 64.7259 40.1127 64.8486 40.3963C64.9099 40.5189 65.2395 40.3963 65.3085 40.3273L66.9872 38.6103C67.1589 38.7245 67.3534 38.8001 67.5572 38.8319C67.761 38.8636 67.9693 38.8508 68.1676 38.7943C68.809 38.4557 69.3914 38.0156 69.8923 37.4912C69.3634 42.4889 64.9329 44.6046 63.5301 45.1565C60.5636 46.3369 56.0181 46.5515 53.7645 44.3899C52.77 43.4693 51.9857 42.345 51.4649 41.0938C50.9567 41.0938 50.4693 40.8919 50.1099 40.5326C49.7505 40.1732 49.5486 39.6858 49.5486 39.1775C49.5486 38.6693 49.7505 38.1819 50.1099 37.8225C50.4693 37.4631 50.9567 37.2612 51.4649 37.2612C51.7409 36.7936 53.4962 34.9156 52.7297 30.623C53.3059 31.1136 53.9743 31.4843 54.6956 31.7133C55.4169 31.9423 56.1766 32.0251 56.9303 31.9568C58.0522 31.7142 59.0924 31.1861 59.9504 30.4237C61.8284 29.0363 62.25 26.7597 66.6882 26.6371C67.9039 28.6066 68.7991 30.7567 69.3404 33.0069ZM65.3391 50.5375C63.7788 51.2243 62.0469 51.422 60.372 51.1045C58.697 50.7871 57.1576 49.9693 55.9568 48.7592C55.7381 48.3141 55.6796 47.8071 55.7913 47.3239C55.9031 46.8407 56.1781 46.4109 56.57 46.107C58.481 46.5359 60.4678 46.4921 62.3579 45.9791C64.2481 45.4662 65.9845 44.4997 67.4164 43.1635C69.7543 43.7307 68.6046 48.8895 65.3391 50.5375ZM66.1057 50.5375C68.16 51.304 70.8428 57.9499 71.3794 59.7359C71.4254 59.8892 71.5864 59.8202 71.6783 59.8049C71.6977 59.9842 71.7557 60.1573 71.8484 60.3121C71.941 60.4669 72.066 60.5998 72.2149 60.7017C72.2334 60.7046 72.2523 60.703 72.27 60.697C72.2877 60.6909 72.3036 60.6807 72.3165 60.6671C72.3293 60.6535 72.3386 60.637 72.3436 60.619C72.3486 60.601 72.3492 60.582 72.3452 60.5637C72.3452 60.4871 71.893 60.0655 71.9313 59.7512L72.6978 59.5826C72.9648 60.0481 73.095 60.5794 73.0734 61.1156C73.0799 61.1402 73.0943 61.1618 73.1144 61.1773C73.1346 61.1928 73.1592 61.2012 73.1846 61.2012C73.2099 61.2012 73.2346 61.1928 73.2547 61.1773C73.2748 61.1618 73.2892 61.1402 73.2957 61.1156C73.3356 60.5736 73.1925 60.0338 72.8895 59.5826L73.656 59.4139C73.6375 59.633 73.6757 59.8532 73.767 60.0533C73.8583 60.2533 73.9996 60.4265 74.1772 60.5561C74.194 60.5619 74.2122 60.5628 74.2295 60.5585C74.2467 60.5543 74.2624 60.5451 74.2746 60.5321C74.2867 60.5191 74.2949 60.5029 74.298 60.4854C74.3011 60.4679 74.2991 60.4498 74.2922 60.4334C74.2922 60.3414 73.771 59.8815 73.8706 59.3679L74.8364 59.1456C75.0641 59.4663 75.2113 59.837 75.2657 60.2265C75.2758 60.244 75.2903 60.2585 75.3078 60.2686C75.3253 60.2787 75.3451 60.2841 75.3654 60.2841C75.3856 60.2841 75.4054 60.2787 75.4229 60.2686C75.4404 60.2585 75.4549 60.244 75.465 60.2265C75.4875 60.0189 75.4626 59.809 75.3923 59.6125C75.3219 59.416 75.2079 59.238 75.0587 59.092L75.7639 58.931C77.0554 61.3699 78.0833 63.9395 78.8301 66.5963C78.9144 66.9029 79.0524 67.2555 78.8301 67.5238C75.9999 69.0465 73.0551 70.3459 70.0226 71.4101C69.4017 68.5586 67.6081 58.0265 66.029 54.7688C65.4678 53.5421 64.6708 52.4378 63.6834 51.5187C64.534 51.3207 65.354 51.0087 66.121 50.5912L66.1057 50.5375ZM71.6017 59.5289C70.7206 56.6904 69.3988 54.008 67.6847 51.58C67.3628 51.0551 66.9009 50.6304 66.351 50.3535C67.1175 49.7786 68.5049 48.4372 68.7042 46.9501C70.4159 47.7557 71.9992 48.8095 73.403 50.0776C75.8636 52.1702 78.4161 57.2293 78.5618 57.7429C78.3318 57.8962 72.8205 59.2606 71.617 59.5672L71.6017 59.5289ZM50.4838 17.5767C51.8789 15.2771 55.7805 14.8172 56.5164 15.7677C56.8766 16.2353 56.2864 16.8561 55.9721 17.1628C54.3777 18.6958 51.5263 18.8338 51.166 18.8338C50.8057 18.8338 49.8246 18.6652 50.4838 17.5767ZM43.6923 26.2308C43.2707 22.4901 46.0302 20.0986 49.8246 20.3285C49.9201 20.8464 50.0455 21.3582 50.2002 21.8616C50.2091 21.8869 50.2273 21.9079 50.251 21.9205C50.2747 21.933 50.3022 21.9363 50.3282 21.9296C50.3542 21.9228 50.3767 21.9066 50.3913 21.8841C50.4059 21.8616 50.4116 21.8344 50.4071 21.8079C50.1285 20.8114 50.0298 19.773 50.1158 18.7418C50.5451 19.6693 52.837 19.0408 53.5729 18.8491C54.3088 18.6575 57.0299 17.6993 57.0529 15.9976C57.3825 16.4116 58.8006 17.9983 58.77 18.3815C58.4634 22.1069 54.4007 22.7891 53.6495 22.8887C53.6287 22.8947 53.6104 22.9073 53.5974 22.9245C53.5843 22.9418 53.5773 22.9629 53.5773 22.9846C53.5773 23.0062 53.5843 23.0273 53.5974 23.0446C53.6104 23.0619 53.6287 23.0744 53.6495 23.0804C55.06 23.1647 58.54 22.3138 59.1762 18.7648C59.2452 18.3739 58.563 17.3314 58.4097 17.1551C59.2286 16.4235 60.1923 15.8724 61.2382 15.5377C63.7831 14.8095 66.3663 16.0206 67.0485 17.4924C68.0756 19.7 66.7342 22.0532 66.5579 22.4288C65.7377 24.1612 61.1156 25.38 58.8926 25.8322C54.646 26.6831 52.3464 29.6189 51.4419 30.1018C49.6636 31.0523 44.3745 32.3937 43.6923 26.2308ZM13.9203 105.015C13.7435 104.471 13.4379 103.978 13.0295 103.577C12.6211 103.177 12.122 102.881 11.5747 102.715C12.8592 102.603 14.0925 102.159 15.1544 101.427C15.2464 101.358 15.1544 101.205 15.0624 101.274C13.7035 102.037 12.1877 102.477 10.6318 102.562C12.6172 100.5 12.8471 98.346 12.1112 96.7823C13.1231 96.1691 14.4108 96.7133 15.3767 97.1656C16.5517 97.6788 17.6629 98.327 18.6881 99.0972C19.8609 100.186 18.7954 101.297 18.6881 101.703C18.1362 102.7 15.6833 103.543 14.7864 104.233C14.6638 104.317 14.7864 104.517 14.9014 104.432C15.9362 103.758 18.1822 102.899 18.6498 102.133C18.7647 103.19 20.2748 103.313 20.9493 103.873C21.3393 104.212 21.6111 104.667 21.7254 105.172C21.8398 105.676 21.7908 106.204 21.5856 106.678C20.4425 107.442 19.2283 108.094 17.9599 108.625C16.6751 109.116 15.3523 109.501 14.0046 109.775C13.9191 109.763 13.8372 109.733 13.7644 109.687C13.6916 109.641 13.6297 109.579 13.583 109.507C13.7766 108.763 14.1163 108.066 14.5822 107.456C15.0481 106.845 15.6308 106.333 16.2965 105.95C16.4038 105.896 16.2965 105.705 16.2122 105.751C15.5328 106.091 14.9334 106.572 14.4537 107.161C13.974 107.751 13.6249 108.435 13.4297 109.169C13.1844 108.135 14.5641 107.069 13.9203 105.015ZM13.744 106.379C13.6339 107.032 13.4353 107.666 13.1537 108.265C13.0251 108.576 13.0066 108.922 13.1014 109.246C13.1962 109.569 13.3985 109.851 13.675 110.043C13.9509 110.197 17.0477 109.591 19.9912 107.997C20.3055 107.828 21.7849 106.893 21.8232 106.854C22.1051 106.243 22.1457 105.548 21.9367 104.909C21.7277 104.269 21.2847 103.732 20.6964 103.405C21.4057 103.309 22.0885 103.072 22.7047 102.708C23.1723 103.037 29.7951 107.307 30.3087 107.59C26.1847 110.105 14.5028 114.734 13.1767 115.34C12.8931 115.118 5.87169 110.955 4.31563 110.181C7.4814 108.947 10.6088 107.659 13.744 106.395V106.379ZM7.61171 119.326C6.89884 118.812 5.36578 117.609 5.36578 117.594C5.36578 117.578 4.13166 110.327 4.13166 110.327C5.66472 111.178 12.7245 115.417 13.0847 115.593C13.5293 118.352 13.9892 121.104 14.4338 123.864C12.0927 122.488 9.8328 120.978 7.66537 119.341L7.61171 119.326ZM14.6331 123.78C14.2192 121.043 13.8206 118.299 13.399 115.57C19.2476 112.956 24.9813 111.178 30.4697 107.905C30.6103 111.059 31.0232 114.196 31.7038 117.279C27.2732 119.004 15.9209 123.412 14.6561 123.795L14.6331 123.78ZM37.5601 116.268C37.4068 115.746 36.9468 115.248 37.5217 114.834C37.9951 114.601 38.5103 114.466 39.0369 114.436C39.5636 114.405 40.0909 114.481 40.5879 114.658C40.7488 114.711 40.8408 114.527 40.7872 114.397C40.6202 114.004 40.5341 113.582 40.5341 113.155C40.5341 112.729 40.6202 112.306 40.7872 111.914C40.8023 111.887 40.8101 111.858 40.8098 111.827C40.8095 111.797 40.8011 111.768 40.7854 111.742C40.7698 111.716 40.7474 111.695 40.7207 111.68C40.6941 111.666 40.6641 111.659 40.6339 111.661C39.8636 111.594 39.0876 111.648 38.3343 111.822C38.1738 111.607 38.0871 111.346 38.0871 111.078C38.0871 110.81 38.1738 110.549 38.3343 110.335C38.3574 110.308 38.3716 110.275 38.375 110.24C38.3783 110.205 38.3705 110.169 38.3527 110.139C38.335 110.108 38.3081 110.084 38.2759 110.07C38.2437 110.055 38.2078 110.052 38.1733 110.059C37.2914 110.237 36.3756 110.126 35.5612 109.744C34.7468 109.362 34.077 108.728 33.6508 107.935C33.6359 107.908 33.6131 107.886 33.5854 107.872C33.5577 107.858 33.5265 107.853 33.4958 107.857C33.4651 107.861 33.4363 107.875 33.4134 107.895C33.3904 107.916 33.3743 107.943 33.3671 107.974C33.2701 108.574 33.0383 109.144 32.6892 109.642C32.34 110.14 31.8825 110.552 31.3512 110.848C31.2362 110.909 31.3512 111.086 31.4585 111.024C31.9777 110.771 32.4366 110.41 32.8042 109.964C33.1718 109.518 33.4396 108.999 33.5894 108.441C34.0507 109.142 34.6981 109.7 35.459 110.054C36.22 110.407 37.0643 110.542 37.8973 110.442C37.7736 110.717 37.7309 111.022 37.7744 111.321C37.8178 111.619 37.9456 111.9 38.1426 112.128C38.2806 112.297 38.7865 111.906 40.3809 111.983C40.1395 112.709 40.1395 113.494 40.3809 114.221C39.5474 114.003 38.6685 114.032 37.8513 114.305C36.8779 114.65 36.7015 115.371 37.0848 115.907C37.4681 116.444 37.1768 116.85 37.0005 116.934C36.594 117.109 36.1615 117.215 35.7204 117.249C33.6814 117.479 34.2793 115.716 32.7233 115.363C32.5494 115.309 32.3613 115.324 32.1984 115.406C32.0355 115.487 31.9105 115.628 31.8494 115.8C31.3211 113.094 30.9983 110.352 30.8836 107.598C30.8836 107.506 25.5715 104.287 24.7513 103.727C26.8665 102.847 28.7158 101.431 30.1171 99.6185C31.7881 97.4492 34.2563 91.8305 38.6715 91.064C38.6715 91.064 39.4381 94.521 39.9363 96.2227C41.6485 101.831 44.4979 107.026 48.3068 111.484C44.1062 115.67 38.3266 116.168 37.5601 116.268ZM71.479 125.803C71.64 125.803 72.0923 125.711 72.0693 125.857C72.0309 126.133 71.479 126.531 71.1954 126.692C71.1645 126.712 71.1399 126.74 71.1244 126.773C71.1089 126.806 71.1032 126.843 71.1081 126.88C71.1129 126.916 71.128 126.95 71.1517 126.978C71.1753 127.006 71.2065 127.026 71.2414 127.037C71.9953 127.211 72.6921 127.575 73.2651 128.095C73.3724 128.195 73.6177 128.44 73.4337 128.57C73.2497 128.701 72.6672 128.386 71.7857 127.995C71.5787 127.903 71.3947 128.21 71.6094 128.302C72.2632 128.529 72.8433 128.929 73.2881 129.46C73.2881 129.536 72.9201 129.789 71.5174 129.099C71.3487 129.023 71.2108 129.329 71.3871 129.406C73.472 130.349 71.8623 130.663 70.2066 129.505C70.0686 129.406 69.8693 129.643 70.0226 129.743C70.7892 130.241 70.7892 130.655 70.7892 130.663C70.2773 130.488 69.7842 130.262 69.3174 129.988C68.2094 129.4 67.2131 128.622 66.3739 127.689C66.6039 127.627 69.2331 126.577 69.9537 125.351C70.3823 125.692 70.9261 125.854 71.4714 125.803H71.479ZM86.0431 86.6641C83.0841 87.8658 80.1994 89.2429 77.4043 90.788C71.0575 94.0994 61.8284 102.186 61.7134 102.286C59.1938 96.4516 57.7948 90.1951 57.5895 83.8433C66.0137 74.1926 71.2874 74.3536 81.8962 71.4868C83.1686 71.1418 87.5455 69.7851 89.1169 68.5203C93.8004 73.5794 102.6 80.3632 104.448 83.5826C98.1512 83.2936 91.8652 84.3439 86.0048 86.6641H86.0431ZM121.679 108.457C121.542 108.301 121.446 108.113 121.401 107.911C121.355 107.709 121.361 107.498 121.419 107.299C121.419 107.138 121.097 107.077 121.112 107.299C121.189 108.039 120.972 108.78 120.506 109.361C120.246 109.583 120.131 109.215 120.131 109.001C120.208 108.734 120.27 108.463 120.315 108.188C120.315 108.027 120.069 107.958 120.008 108.104C120.008 108.104 119.778 108.993 119.755 109.047C119.732 109.1 119.341 109.99 119.165 109.76C119.007 109.09 119.052 108.388 119.295 107.744C119.307 107.698 119.301 107.649 119.277 107.608C119.254 107.567 119.214 107.537 119.169 107.525C119.123 107.513 119.074 107.52 119.033 107.543C118.992 107.567 118.962 107.606 118.95 107.652C118.858 108.058 118.766 109.093 118.475 109.292C117.977 109.645 118 107.859 118.475 106.694C118.497 106.658 118.506 106.617 118.501 106.576C118.496 106.535 118.477 106.497 118.448 106.467C118.419 106.438 118.381 106.42 118.34 106.415C118.299 106.41 118.257 106.419 118.222 106.441C117.9 106.579 117.233 106.77 116.98 106.594C116.919 106.548 117.272 106.218 117.371 106.103C117.74 105.68 117.929 105.131 117.9 104.57C117.938 104.57 120.66 104.225 121.855 103.298C122.26 105.004 122.186 106.79 121.641 108.457H121.679ZM112.511 68.1217C119.755 79.0294 120.943 89.7992 121.947 102.922C120.369 103.856 118.56 104.326 116.727 104.279C108.978 94.1071 108.725 87.7449 103.359 81.5053C100.923 78.9435 98.3375 76.5273 95.6171 74.2693C92.7886 71.7781 86.94 65.6612 86.6487 65.2855C86.572 65.1936 86.4111 65.2855 86.48 65.4159C87.2466 66.4047 88.0131 67.3475 88.8793 68.2597C86.457 70.2987 77.8259 72.146 75.5033 72.7056C70.6129 73.8784 66.8569 75.3041 62.8249 78.3549C60.793 79.8824 58.9867 81.6888 57.4592 83.7206C57.3747 81.089 57.49 78.4548 57.8041 75.8407C57.8041 75.741 57.6278 75.7104 57.6125 75.8407C56.682 82.3907 57.1073 89.062 58.8619 95.4409C60.5483 101.711 62.9476 105.628 66.4736 113.838C67.7997 116.904 70.1836 124.454 70.1836 124.454C68.8575 126.915 65.7147 127.52 65.5078 127.604C62.9476 125.305 53.0593 116.107 50.7674 113.723C46.45 109.375 43.1238 104.145 41.0171 98.392C37.8363 89.7733 37.567 80.3497 40.2506 71.5634C41.0733 68.6677 42.14 65.847 43.4394 63.1316C44.6428 60.648 49.9932 51.764 56.0564 49.3341C57.0344 50.2671 58.2193 50.9556 59.5142 51.3432C60.8091 51.7309 62.1773 51.8068 63.5071 51.5647C65.2684 53.4821 66.4672 55.8479 66.9718 58.4021C67.2938 59.7895 69.4247 70.0457 69.7543 71.6554C69.7668 71.6963 69.7944 71.7308 69.8313 71.7522C69.8683 71.7735 69.912 71.78 69.9537 71.7704L70.2449 71.6708C70.171 71.9164 70.164 72.1774 70.2246 72.4267C70.2852 72.676 70.4113 72.9046 70.5899 73.0888C70.6972 73.1655 70.8352 73.0198 70.7662 72.9125C70.6389 72.7162 70.5528 72.4961 70.5133 72.2655C70.4737 72.0348 70.4815 71.7986 70.5362 71.5711L71.2491 71.3181C71.171 71.5856 71.1802 71.871 71.2753 72.1329C71.3704 72.3948 71.5465 72.6195 71.778 72.7746C71.8055 72.789 71.8373 72.7932 71.8677 72.7863C71.898 72.7793 71.9248 72.7618 71.9434 72.7368C71.9619 72.7118 71.9708 72.681 71.9686 72.65C71.9664 72.6189 71.9532 72.5897 71.9313 72.5676C71.9313 72.5216 71.2568 71.893 71.5097 71.2262L72.4219 70.8812C72.3928 71.1293 72.4432 71.3802 72.5658 71.5978C72.6884 71.8155 72.8769 71.9886 73.1041 72.0923C73.1281 72.0975 73.1531 72.0947 73.1755 72.0846C73.1978 72.0745 73.2164 72.0575 73.2283 72.0361C73.2403 72.0146 73.2452 71.99 73.2421 71.9656C73.2391 71.9412 73.2283 71.9185 73.2114 71.9007C73.1194 71.8164 72.5522 71.2415 72.6902 70.7739L73.8936 70.2833C73.748 70.6283 74.2922 71.6631 74.4149 71.7551C74.4308 71.7695 74.4505 71.7791 74.4716 71.7829C74.4928 71.7866 74.5146 71.7844 74.5345 71.7764C74.5545 71.7684 74.5718 71.755 74.5845 71.7377C74.5972 71.7204 74.6049 71.6998 74.6065 71.6784C74.6065 71.5404 74.0316 70.6589 74.0853 70.199C74.4838 70.0304 74.8518 69.8617 75.2734 69.6778C75.3377 69.982 75.4301 70.2797 75.5493 70.5669C75.5626 70.5909 75.5834 70.6097 75.6086 70.6204C75.6338 70.6312 75.6618 70.6332 75.6883 70.6261C75.7147 70.6191 75.738 70.6034 75.7545 70.5815C75.771 70.5597 75.7797 70.533 75.7793 70.5056C75.7109 70.1916 75.616 69.8838 75.4957 69.5858L76.1932 69.2638C76.4805 69.6959 76.6375 70.2015 76.6455 70.7203C76.6522 70.7466 76.6676 70.77 76.6891 70.7867C76.7106 70.8034 76.737 70.8125 76.7643 70.8125C76.7915 70.8125 76.818 70.8034 76.8395 70.7867C76.861 70.77 76.8763 70.7466 76.8831 70.7203C76.8988 70.1634 76.7436 69.615 76.4385 69.1489C76.7528 69.0032 77.6036 68.5816 77.7186 68.5203C77.7275 68.7035 77.7906 68.8799 77.8997 69.0272C78.0089 69.1746 78.1592 69.2862 78.3318 69.3482C78.3533 69.3485 78.3743 69.3424 78.3923 69.3306C78.4102 69.3188 78.4242 69.3019 78.4324 69.2821C78.4407 69.2623 78.4428 69.2405 78.4386 69.2195C78.4343 69.1985 78.4238 69.1792 78.4085 69.1642C78.4085 69.1642 77.8719 68.7579 77.9639 68.3977C77.9639 68.3977 78.5158 68.1141 78.6614 68.0374C78.7151 68.6123 79.428 68.9649 79.5046 68.9649C79.5295 68.9704 79.5556 68.9662 79.5774 68.9531C79.5993 68.94 79.6153 68.919 79.6222 68.8945C79.6291 68.8699 79.6263 68.8437 79.6144 68.8211C79.6025 68.7986 79.5824 68.7815 79.5583 68.7733C79.3763 68.7002 79.2187 68.5773 79.1034 68.4186C78.9882 68.26 78.92 68.0721 78.9067 67.8764C78.9067 67.8764 79.52 67.7231 79.1367 66.397C78.3629 63.7815 77.336 61.2476 76.0706 58.8314L76.5305 58.7317C76.595 59.1239 76.8094 59.4757 77.1284 59.7129C77.2127 59.7129 77.32 59.6362 77.2587 59.5519C77.1974 59.4676 76.7298 58.977 76.7681 58.6704L77.6496 58.3944C77.7113 58.7072 77.8117 59.0111 77.9486 59.299C77.9734 59.3111 78.0018 59.314 78.0285 59.3069C78.0553 59.2999 78.0786 59.2835 78.0942 59.2606C78.0393 58.9457 77.9598 58.6356 77.8566 58.3331L78.3855 58.1415C78.4391 58.3714 78.7151 59.4369 78.7764 59.5519C78.7896 59.5759 78.8105 59.5947 78.8357 59.6054C78.8609 59.6161 78.8889 59.6181 78.9153 59.6111C78.9418 59.604 78.9651 59.5883 78.9816 59.5665C78.9981 59.5447 79.0068 59.5179 79.0064 59.4906C79.0064 59.3679 78.6921 58.2795 78.6154 58.0418C78.7381 57.9882 78.8454 57.9652 78.8147 57.8425C78.7074 57.3366 77.4503 54.1402 73.8859 50.1772C72.413 48.732 70.6846 47.5728 68.7885 46.7585C68.9017 46.3587 68.9686 45.9472 68.9878 45.5321C69.969 45.4094 76.1855 44.4129 85.6369 47.939C88.4154 49.0249 91.1352 50.2556 93.7851 51.626C101.398 55.3393 107.867 61.0383 112.511 68.1217ZM132.97 72.7209C125.642 70.2987 117.509 66.0291 110.925 65.2242C110.304 64.4117 109.652 63.6145 108.985 62.848C108.947 62.4264 108.219 53.389 108.173 51.465C114.443 53.1897 130.471 57.8272 132.242 58.3638C132.38 62.1274 132.916 71.7244 132.97 72.7209ZM132.38 58.0112C132.38 58.0112 110.151 51.7563 108.525 51.3347C111.592 51.1201 120.706 50.2462 120.729 50.1926C120.776 50.7563 120.946 51.3028 121.227 51.794C121.508 52.2852 121.892 52.7092 122.354 53.0364C124.109 54.2705 127.068 54.2705 129.191 53.9792C131.314 53.6879 132.602 53.2127 132.748 50.9974C133.108 51.1661 135.975 51.8866 135.76 48.9968C139.056 49.5487 147.128 51.6413 147.933 51.8406C143.955 53.6573 133.537 57.6126 132.38 58.0112Z" fill="black"/>
<path d="M123.542 34.1722C124.638 35.4446 126.355 36.9853 125.581 38.8557C125.57 38.8801 125.569 38.9079 125.578 38.9331C125.587 38.9582 125.606 38.9786 125.631 38.9898C125.655 39.001 125.683 39.002 125.708 38.9927C125.733 38.9834 125.754 38.9644 125.765 38.94C126.531 37.4913 125.535 35.9812 124.592 34.9081C123.404 33.5666 122.331 32.6085 122.499 30.6768C122.806 27.2657 126.37 25.4721 127.765 22.5899C128.16 21.8932 128.352 21.1008 128.323 20.3009C128.293 19.5011 128.042 18.7252 127.597 18.0597C127.536 17.9754 127.39 18.0597 127.451 18.1747C127.813 18.8239 128.003 19.5548 128.003 20.298C128.003 21.0412 127.813 21.7721 127.451 22.4213C126.094 25.2498 122.852 26.9438 122.223 30.1709C121.955 31.8343 122.446 32.9151 123.542 34.1722ZM127.244 32.0872C127.459 33.4516 128.777 34.1645 129.345 35.322C129.541 35.7227 129.644 36.1633 129.644 36.6097C129.644 37.0562 129.541 37.4968 129.345 37.8975C129.337 37.9194 129.337 37.9433 129.344 37.9652C129.352 37.987 129.368 38.0055 129.388 38.0173C129.408 38.0291 129.431 38.0336 129.454 38.0299C129.477 38.0262 129.498 38.0147 129.513 37.9972C129.853 37.4207 129.991 36.7472 129.905 36.0835C129.819 35.4197 129.514 34.8037 129.038 34.3332C127.98 33.0377 126.14 31.8113 129.191 28.2699C129.283 28.1626 129.099 28.0323 129 28.1243C128.427 28.61 127.972 29.2186 127.668 29.9049C127.364 30.5911 127.219 31.3371 127.244 32.0872ZM32.961 110.948C33.3704 110.928 33.778 111.013 34.1457 111.194C34.5135 111.375 34.8293 111.646 35.0637 111.982C35.298 112.318 35.4432 112.709 35.4857 113.116C35.5282 113.524 35.4666 113.936 35.3066 114.313C35.2376 114.451 35.4369 114.574 35.5135 114.436C35.9581 113.577 36.0884 110.68 32.9227 110.687C32.8 110.687 32.8384 110.94 32.961 110.948ZM26.3612 114.459C25.3647 114.106 22.0226 114.459 19.0485 116.613C18.6949 116.836 18.392 117.131 18.1593 117.479C17.5537 118.475 18.2896 119.288 19.2938 119.357C21.762 119.518 24.0309 118.261 26.0622 116.965C27.6873 115.923 27.327 114.804 26.3612 114.459ZM51.6337 27.3961C49.3801 29.0058 46.7049 27.741 46.314 26.8135C46.2756 26.7138 46.107 26.7598 46.153 26.8518C47.2951 29.1974 51.2351 28.3849 51.7717 27.5724C51.8406 27.4574 51.741 27.3194 51.6337 27.3961ZM53.4657 26.6602C53.6352 26.4475 53.8451 26.2704 54.0831 26.1388C54.3212 26.0073 54.5828 25.924 54.8531 25.8937C54.8776 25.8872 54.8993 25.8727 54.9148 25.8526C54.9303 25.8325 54.9387 25.8079 54.9387 25.7825C54.9387 25.7571 54.9303 25.7325 54.9148 25.7124C54.8993 25.6923 54.8776 25.6779 54.8531 25.6714C54.5508 25.6763 54.254 25.7533 53.9873 25.8959C53.7207 26.0386 53.4919 26.2428 53.3201 26.4915C53.1974 26.6372 53.3814 26.7675 53.4657 26.6602ZM56.3325 36.5178C56.3325 36.6404 56.5318 36.6864 56.5548 36.5178C56.6433 36.1842 56.859 35.8987 57.1557 35.7224C57.4523 35.5461 57.8063 35.4932 58.1415 35.5749C58.2182 35.5749 58.2488 35.4293 58.1875 35.4063C57.9929 35.3344 57.7846 35.3071 57.578 35.3264C57.3714 35.3456 57.1718 35.411 56.9938 35.5177C56.8158 35.6243 56.664 35.7695 56.5495 35.9426C56.4351 36.1157 56.3609 36.3122 56.3325 36.5178ZM64.3888 33.8656C64.3888 33.9652 64.5727 33.9422 64.5727 33.8656C64.5823 33.6923 64.6391 33.525 64.737 33.3817C64.8349 33.2384 64.9702 33.1247 65.1281 33.0528C65.2861 32.9809 65.4607 32.9537 65.633 32.974C65.8054 32.9943 65.9689 33.0614 66.1058 33.168C66.1748 33.2064 66.3128 33.076 66.2361 33.0301C64.841 32.1026 64.2891 33.421 64.3888 33.8656ZM61.5909 34.6858C61.5143 34.5708 61.3226 34.6858 61.407 34.7931C61.6216 35.0997 62.5721 36.4871 62.6027 36.5408C62.3102 36.6286 62.0296 36.7522 61.7672 36.9087C61.7059 36.9777 61.7212 37.1157 61.8209 37.131C62.1286 37.0898 62.4299 37.0099 62.7177 36.8934C62.7804 36.8786 62.8375 36.8462 62.8823 36.8C62.9271 36.7538 62.9578 36.6958 62.9707 36.6327C62.5632 35.9482 62.1018 35.2971 61.5909 34.6858ZM76.2087 29.665C76.3899 29.6997 76.5772 29.6854 76.7511 29.6234C76.925 29.5614 77.0791 29.454 77.1975 29.3124C77.3043 29.1871 77.368 29.0307 77.379 28.8664C77.3901 28.7021 77.3479 28.5387 77.2588 28.4002C77.1239 28.2914 76.9524 28.2387 76.7797 28.253C76.607 28.2672 76.4465 28.3474 76.3313 28.4769C76.185 28.5734 76.0724 28.7131 76.0093 28.8766C75.9461 29.0401 75.9354 29.2192 75.9787 29.389C75.7871 29.5653 67.9148 36.5484 67.5469 36.924C67.4855 36.993 67.5469 37.108 67.6465 37.062C68.0911 36.7937 76.0247 29.8336 76.2087 29.665ZM17.5461 47.5251C16.1586 63.4767 23.1494 72.7747 24.3835 74.4534C24.4602 74.5607 24.6441 74.4534 24.5675 74.3537C22.5132 71.2876 16.6722 62.3269 17.73 47.5251C17.7377 47.4025 17.5537 47.4102 17.5461 47.5251Z" fill="black"/>
</svg>
