<svg width="154" height="154" viewBox="0 0 154 154" fill="none" xmlns="http://www.w3.org/2000/svg">
<path fill-rule="evenodd" clip-rule="evenodd" d="M63.9985 9.362C77.4744 8.7611 84.6478 13.1059 91.2217 17.7318C82.8878 27.1984 81.9894 40.0096 85.4121 49.6312C92.9725 70.883 120.816 78.7432 138.401 61.9381C143.395 57.165 146.104 51.0229 147.269 46.8224C150.044 54.6687 150.228 63.2294 147.747 71.228C146.58 75.1197 144.912 78.33 143.251 81.5258C141.468 84.9584 139.694 88.3742 138.557 92.6001C137.185 97.7015 138.256 102.206 139.381 106.94C140.973 113.635 142.674 120.788 137.728 130.737C133.455 139.334 122.873 143.265 113.339 143.52C104.282 143.761 95.1595 138.975 88.21 135.328C85.7892 134.058 83.6329 132.927 81.8338 132.194C73.488 128.794 67.9639 133.331 62.0403 138.195L62.0399 138.196H62.0394L62.0382 138.198H62.0374L62.0371 138.198H62.0364L62.0361 138.199C61.1766 138.905 60.3084 139.618 59.4222 140.314C54.5377 144.152 27.7445 158.914 10.4013 130.597C6.38074 124.04 -0.474511 106.838 7.56506 89.8934C11.3996 81.8125 16.0649 77.8349 20.2141 74.2974C25.0604 70.1657 29.2027 66.6343 30.4949 57.8647C30.9898 54.5052 30.8548 51.1019 30.7173 47.6374C30.4446 40.7604 30.1623 33.6427 34.7776 26.1494C37.8953 21.1669 42.1921 17.029 47.2885 14.1012C52.3849 11.1734 58.1238 9.54567 63.9985 9.362ZM49.7217 61.6784C50.9883 61.0683 52.9836 60.1073 53.5228 59.8838C53.5826 59.8653 53.6468 59.8668 53.7058 59.8879C53.7647 59.9091 53.8152 59.9488 53.8496 60.0011C53.8839 60.0533 53.9005 60.1154 53.8966 60.1779C53.8927 60.2404 53.8685 60.2999 53.8279 60.3475C53.499 60.6772 49.9806 62.6403 49.444 62.9369C49.574 63.1023 49.9827 63.386 50.4456 63.7073C50.8369 63.979 51.267 64.2776 51.6003 64.5544C52.4773 65.2799 52.487 65.393 52.5056 65.6125C52.5072 65.6307 52.5088 65.6496 52.511 65.6697C52.5144 65.6975 52.5118 65.7257 52.5033 65.7524C52.4947 65.7792 52.4805 65.8037 52.4615 65.8243C52.4426 65.8449 52.4194 65.8612 52.3935 65.872C52.3675 65.8827 52.3396 65.8877 52.3117 65.8866C52.217 65.8822 52.1236 65.8628 52.0349 65.8291C51.3595 65.4329 50.7297 64.991 50.1987 64.6183C49.5214 64.143 49.0045 63.7802 48.7579 63.7687C48.597 65.0179 48.5011 66.2747 48.4705 67.534C48.4406 68.0176 48.413 68.3204 48.229 68.4538C48.1498 68.5202 48.0516 68.5599 47.9485 68.5673C47.6027 68.5673 47.5813 68.0843 47.5728 67.7402C47.5437 66.5451 47.7085 64.3926 47.7538 63.8307C47.638 63.8813 47.4517 63.9741 47.1451 64.1374C46.0115 64.7373 45.378 65.1064 45.003 65.3249L45.0025 65.3251C44.4734 65.6335 44.4592 65.6418 44.2797 65.5754C44.2203 65.5556 44.168 65.5186 44.1293 65.4693C44.0906 65.42 44.0672 65.3604 44.062 65.2979C44.0124 64.6986 45.6906 63.8051 46.8516 63.187C47.0522 63.0802 47.2376 62.9814 47.3958 62.894L46.8354 62.5015C44.2098 60.6623 43.8553 60.414 43.869 60.1879C43.8711 60.1526 43.8822 60.1179 43.895 60.0777L43.8965 60.0731C44.152 59.2709 45.5699 60.3328 46.728 61.2C47.2065 61.5584 47.6407 61.8836 47.9301 62.0301C47.9255 61.7641 47.96 61.0068 48.1662 58.7179C48.2721 57.5408 48.259 56.6375 48.2493 55.9702C48.234 54.9088 48.2273 54.4445 48.7219 54.4252C48.8324 54.4341 48.9375 54.4767 49.0229 54.5473C49.1083 54.618 49.17 54.7131 49.1995 54.82C49.2257 57.2426 49.1233 59.665 48.8928 62.0769C49.0834 61.9858 49.3701 61.8478 49.7102 61.6839L49.7157 61.6813L49.7203 61.679L49.7217 61.6784ZM131.486 86.0975C131.53 86.05 131.556 85.9894 131.561 85.925C131.567 85.8606 131.551 85.797 131.515 85.7426C131.481 85.6882 131.429 85.6475 131.367 85.6261C131.307 85.6046 131.241 85.6046 131.18 85.6245C130.57 85.8767 128.113 87.0633 126.937 87.6306L126.935 87.6314L126.55 87.8176C126.78 85.4053 126.882 82.983 126.856 80.5599C126.826 80.4534 126.764 80.3583 126.679 80.2878C126.594 80.2173 126.489 80.1751 126.379 80.1659C125.884 80.1851 125.891 80.6496 125.907 81.709C125.917 82.3767 125.93 83.2804 125.824 84.4586C125.618 86.746 125.584 87.5041 125.588 87.7701C125.299 87.6245 124.863 87.2979 124.383 86.9384C123.227 86.0714 121.81 85.0098 121.554 85.8139L121.552 85.82C121.54 85.8599 121.528 85.8944 121.527 85.9296C121.512 86.1558 121.868 86.4049 124.531 88.2684L125.053 88.634C124.909 88.7137 124.739 88.8034 124.553 88.9023C123.407 89.5109 121.669 90.4339 121.72 91.0387C121.732 91.1046 121.762 91.1667 121.806 91.2173C121.85 91.2679 121.908 91.3054 121.971 91.3269C122.035 91.3484 122.103 91.3522 122.169 91.3376C122.235 91.3238 122.295 91.2924 122.345 91.2472C122.538 91.0939 125.105 89.7033 125.488 89.5201C125.485 89.5569 125.481 89.6014 125.477 89.6512L125.476 89.6566C125.388 90.6431 125.093 93.9324 125.811 93.9324C126.016 93.9324 126.025 93.8082 126.091 92.906V92.9052V92.9045H126.091C126.127 92.4031 126.181 91.6634 126.295 90.5726C126.33 90.2453 126.363 89.4741 126.363 89.4741C126.5 89.5424 126.642 89.6367 126.854 89.7769C127.135 89.9624 127.536 90.2292 128.211 90.624C128.346 90.6738 128.54 90.7244 128.638 90.6194C128.698 90.5542 128.692 90.499 128.685 90.4369C128.684 90.4254 128.682 90.4139 128.682 90.4024C128.662 90.1426 128.58 90.0138 127.776 89.3477C127.514 89.1307 127.326 88.9874 127.168 88.8663C127.108 88.8203 127.051 88.7766 126.997 88.7344C127.344 88.5589 131.149 86.4348 131.486 86.0975ZM66.5125 23.3169C66.5263 23.3444 66.5345 23.3745 66.5365 23.4051C66.548 23.8796 62.6271 27.8258 60.953 29.2892C61.1619 29.5433 62.4525 30.713 63.5784 31.7333L63.5844 31.7387C63.7744 31.911 63.9597 32.0789 64.1342 32.2373C65.2648 33.263 65.2426 33.3565 65.2119 33.4845C65.2018 33.5203 65.183 33.553 65.1572 33.5798C65.1314 33.6065 65.0994 33.6265 65.064 33.6378C64.637 33.7581 61.255 31.0622 60.2347 30.035C60.0636 30.786 59.7985 33.6103 59.62 35.5113C59.525 36.5229 59.4546 37.2734 59.436 37.3104C59.4229 37.3369 59.4039 37.36 59.3802 37.378C59.3567 37.3958 59.3293 37.408 59.3003 37.4135C59.2712 37.419 59.2413 37.4177 59.2128 37.4096C59.1843 37.4016 59.1581 37.387 59.1363 37.3671C58.5437 36.8303 58.8432 34.0944 59.0571 32.1413L59.0573 32.1393C59.1166 31.5971 59.1694 31.1153 59.1945 30.7579C59.037 30.8765 58.8084 31.0643 58.3933 31.4055C58.1883 31.574 57.9377 31.78 57.6277 32.0334C57.0014 32.5481 56.9662 32.6232 56.8782 32.8108C56.8592 32.8512 56.8378 32.8969 56.8075 32.9533C56.4717 33.5964 55.6737 32.9503 56.0409 32.1929C56.2654 31.7309 56.3848 31.6331 58.0715 30.2526C58.3605 30.0161 58.6955 29.7419 59.0849 29.4218C59.1807 29.3428 59.2727 29.2669 59.3271 29.2163C59.2466 29.1466 55.21 25.333 55.1839 25.2241C55.0927 24.8838 55.2108 24.7443 55.3227 24.6876C55.9949 24.3441 59.0443 27.4419 59.551 27.9984C59.5579 27.9216 59.564 27.8281 59.5694 27.7407C59.5881 27.4362 59.6537 26.8374 59.7432 26.0196L59.7434 26.0176C59.8335 25.1952 59.9478 24.1517 60.063 22.9636L60.0632 22.9617C60.2309 21.2427 60.241 21.1392 60.605 21.0817C61.2139 20.9815 60.9603 23.3387 60.6576 26.1514C60.5807 26.8653 60.5008 27.6087 60.431 28.3486C63.1276 26.1017 64.508 24.732 65.2759 23.97C66.054 23.198 66.2034 23.0498 66.456 23.2449C66.4795 23.2649 66.4987 23.2894 66.5125 23.3169ZM96.9003 92.4875C96.0594 92.942 96.015 92.9612 95.8632 93.0248C95.7566 93.07 95.5964 93.1383 95.0675 93.3966C94.7479 93.553 94.3316 93.7668 93.9606 93.9562C93.5452 94.1693 93.1872 94.3525 93.0883 94.3931C93.1128 93.9838 93.247 91.4212 93.1818 91.1943C93.224 91.021 93.2485 90.844 93.2531 90.6654C93.2554 90.5412 93.2102 90.4201 93.1266 90.3281C93.0431 90.2361 92.9273 90.1794 92.8031 90.1694C92.2481 90.1334 92.2267 90.7826 92.229 91.3361C92.232 92.0091 92.2045 92.3962 92.1792 92.7619C92.1539 93.1199 92.1301 93.4564 92.1378 94.019C92.0987 93.9983 92.0542 93.9746 92.0051 93.9485L91.9262 93.9063L91.9247 93.9056C91.1435 93.4855 89.4456 92.5741 88.8922 92.9236C88.8347 92.9665 88.7895 93.0248 88.7626 93.0915C88.735 93.1582 88.7274 93.231 88.7389 93.3023C88.7504 93.3736 88.781 93.4403 88.8278 93.4947C88.8738 93.5499 88.9351 93.5905 89.0033 93.6135C90.8285 94.4583 91.3314 94.7013 91.5851 94.8239C91.7323 94.8952 91.7951 94.9258 91.9852 95.0102C91.8833 95.0776 91.7675 95.1489 91.6272 95.2355C91.3176 95.4264 90.886 95.6916 90.2145 96.16C89.3897 96.7395 89.9079 97.7399 90.3517 97.3305C90.8867 96.8737 91.4724 96.4804 92.0979 96.1585C92.1232 98.9556 92.4007 99.2055 92.5072 99.3013C92.5348 99.3281 92.567 99.3496 92.6031 99.3634C92.6391 99.3772 92.6774 99.3833 92.7157 99.381C92.7548 99.3795 92.7924 99.3695 92.8269 99.3527C92.8614 99.3358 92.892 99.3113 92.9166 99.2822C93.0124 99.161 92.994 99.0116 92.938 98.5608C92.9311 98.5064 92.9242 98.4482 92.9166 98.3853C92.9449 98.2772 92.9664 97.6732 92.9879 97.0538C93.0124 96.3585 93.0377 95.6433 93.0745 95.5897C93.1166 95.5935 93.1573 95.6065 93.1933 95.6288C93.9024 95.9783 94.4389 96.2482 94.8483 96.4544C95.8854 96.9756 96.0978 97.0822 96.1928 97.017C96.2173 97.0009 96.2334 96.9725 96.2549 96.9365L96.2672 96.9158C96.5838 96.3616 95.1994 95.6303 94.3539 95.1826C94.2389 95.1221 94.1339 95.0661 94.0442 95.0171C95.0767 94.4606 96.0763 93.8465 97.0399 93.1774C97.6048 92.696 97.1495 92.351 96.9003 92.4875ZM117.307 114.51C117.32 114.538 117.329 114.569 117.33 114.599C117.347 115.074 113.429 119.015 111.748 120.485C111.948 120.725 113.197 121.857 114.406 122.952L114.407 122.953L114.409 122.956C114.584 123.114 114.758 123.272 114.928 123.426C116.058 124.452 116.036 124.545 116.005 124.673C115.995 124.709 115.977 124.742 115.951 124.768C115.925 124.795 115.892 124.815 115.857 124.827C115.434 124.939 112.049 122.252 111.028 121.224C110.854 121.981 110.582 124.88 110.403 126.783V126.784C110.312 127.756 110.245 128.466 110.228 128.5C110.215 128.526 110.196 128.549 110.172 128.567C110.149 128.584 110.122 128.597 110.093 128.602C109.252 128.733 109.661 124.999 109.883 122.975L109.883 122.974V122.969C109.932 122.527 109.972 122.167 109.987 121.947C109.814 122.078 109.515 122.323 109.099 122.665L109.098 122.667L108.818 122.897C108.694 122.998 108.561 123.107 108.42 123.222C107.793 123.735 107.759 123.807 107.67 123.999C107.651 124.039 107.63 124.083 107.601 124.138C107.264 124.781 106.465 124.136 106.834 123.378C107.065 122.904 107.093 122.88 109.178 121.179L109.498 120.918L109.9 120.589L109.922 120.571C109.969 120.532 110.015 120.495 110.054 120.462C110.08 120.44 110.103 120.42 110.122 120.402C110.045 120.341 106.004 116.519 105.978 116.408C105.887 116.069 106.005 115.929 106.117 115.872C106.791 115.529 109.824 118.618 110.345 119.183C110.448 118.006 110.516 117.384 110.599 116.615C110.666 116.004 110.743 115.299 110.856 114.147C111.025 112.427 111.036 112.324 111.399 112.266C112.008 112.171 111.755 114.529 111.452 117.339C111.375 118.053 111.295 118.795 111.225 119.534C111.272 119.488 111.417 119.366 111.643 119.176C112.434 118.513 114.214 117.02 116.24 115L116.241 115C116.821 114.421 116.996 114.245 117.249 114.439C117.273 114.459 117.293 114.483 117.307 114.51ZM34.8428 96.1255C35.0186 96.114 35.1999 96.0236 35.4435 95.9024C36.212 95.5199 37.6013 94.8293 41.4006 95.313C41.7392 95.326 41.9786 95.3704 42.1665 95.4057C42.5431 95.4762 42.7135 95.5077 43.0632 95.1696C43.5508 94.7097 46.9136 90.2637 46.9611 90.1955C47.2439 89.8045 47.6917 89.3086 48.145 88.8057C49.1576 87.6827 50.1974 86.5306 49.4846 86.4608C48.1055 86.2263 46.6968 86.2263 45.3177 86.4608C44.1943 86.6525 43.0967 86.9737 42.0468 87.4167C39.5689 88.6854 37.4475 90.5535 35.8753 92.8508C35.3387 93.7055 34.8742 94.5993 34.4265 95.5031C34.3914 95.5713 34.3752 95.6472 34.3795 95.7238C34.3838 95.7997 34.4085 95.8733 34.451 95.9369C34.4935 96.0006 34.5523 96.0519 34.6211 96.0849C34.6901 96.1178 34.7666 96.1316 34.8428 96.1255ZM48.8064 108.154C48.8759 108.193 48.9325 108.25 48.9687 108.321C49.1854 108.799 48.2901 109.9 44.0816 115.081C41.2309 118.589 36.8599 123.97 30.2848 132.294C29.853 132.84 29.5109 133.281 29.2367 133.634L29.2363 133.634C28.245 134.911 28.1422 135.044 27.8978 134.893C27.8196 134.842 27.7399 134.74 27.8089 134.51C28.5042 132.231 47.8618 108.107 48.5786 108.107C48.6574 108.1 48.7368 108.116 48.8064 108.154ZM34.5361 132.167C33.7949 133.074 34.5637 133.883 35.0942 133.107C35.4399 132.486 37.8814 131.135 40.6233 131.233C40.9545 131.245 41.0395 131.362 40.9062 131.71C40.5604 132.603 38.6785 133.766 37.9136 134.239C37.7441 134.344 37.6295 134.415 37.5985 134.442C37.4604 134.537 37.3482 134.665 37.272 134.813C37.1959 134.963 37.1582 135.128 37.1624 135.296C37.1665 135.463 37.2125 135.627 37.296 135.773C37.3796 135.918 37.498 136.04 37.6407 136.128C37.8167 136.257 37.996 136.382 38.168 136.503C38.7823 136.933 39.3058 137.299 39.2734 137.544C39.2106 138.018 37.4743 138.74 34.2908 139.906C33.7642 140.099 33.8432 140.749 35.0919 140.749C36.4602 140.654 37.7843 140.225 38.9492 139.501C42.2817 137.649 40.0655 136.28 38.8952 135.557C38.6528 135.407 38.4553 135.285 38.3612 135.192C38.3839 135.176 38.4512 135.14 38.5529 135.085C39.2558 134.708 41.6003 133.447 42.1595 131.89C43.2894 128.741 36.4111 129.877 34.5361 132.167ZM22.5013 124.017C23.4058 120.487 26.1501 117.967 27.7138 121.146C28.8039 123.361 27.9568 126.111 27.0063 126.031C26.9413 126.029 26.8777 126.012 26.8206 125.981C26.7635 125.95 26.7144 125.906 26.6775 125.852C26.6292 125.727 26.6084 125.593 26.6166 125.459C26.6248 125.326 26.6617 125.195 26.725 125.077C27.4164 123.035 26.413 120.397 25.4832 121.222C24.2506 122.317 23.2786 124.882 23.714 125.873C23.8995 126.297 23.8918 126.925 23.448 127.063C22.8577 127.25 22.6592 126.788 22.486 126.381C21.9754 125.198 20.9897 125.053 20.4163 125.538C19.7388 126.239 19.3335 127.159 19.2734 128.131C19.2734 128.485 19.5282 128.702 19.7455 128.886C19.9578 129.067 20.1342 129.217 20.0016 129.434C19.9568 129.503 19.8902 129.554 19.8126 129.579C19.735 129.605 19.6511 129.603 19.5746 129.575C19.1473 129.481 18.7679 129.237 18.506 128.886C18.2442 128.536 18.1173 128.103 18.1488 127.667C18.1332 127.159 18.2383 126.655 18.4554 126.196C18.9483 124.877 19.5968 124.213 20.624 123.973C21.2195 123.845 21.8415 123.957 22.3541 124.286L22.4246 124.318C22.445 124.216 22.4706 124.116 22.5013 124.017ZM54.6128 113.526C54.2163 112.565 53.5718 113.205 52.6334 114.137C52.2549 114.514 51.8284 114.937 51.3512 115.322C49.7805 116.586 45.0747 121.143 43.6274 122.548C38.6809 127.348 38.7798 127.475 38.93 127.668C38.9485 127.694 38.9731 127.715 39.0015 127.73C39.0299 127.744 39.0614 127.752 39.0933 127.751C39.9587 127.751 54.0977 114.474 54.5967 113.703C54.6136 113.677 54.6239 113.647 54.6266 113.617C54.6295 113.586 54.6247 113.555 54.6128 113.526ZM42.0128 107.736L42.0122 107.736C38.8967 112.183 34.1309 118.985 33.4154 120.289C33.2207 120.65 32.724 120.552 32.8505 120.024C33.2499 118.379 42.5711 104.531 43.99 103.402C44.0554 103.327 44.1447 103.277 44.2428 103.259C44.341 103.242 44.4421 103.259 44.5293 103.307C44.6166 103.356 44.6846 103.432 44.722 103.524C44.7595 103.617 44.7641 103.72 44.7351 103.815C44.7151 103.878 43.5702 105.513 42.0128 107.736ZM82.1741 82.2617C80.7031 81.663 79.3011 80.9072 77.9926 80.008C75.7242 78.3599 73.7527 76.3381 72.1622 74.029C71.9116 73.6176 71.7163 73.2854 71.5603 73.0199C71.1599 72.3389 71.0182 72.0979 70.8642 72.0898C70.7798 72.0853 70.6918 72.1508 70.5555 72.2521L70.5287 72.2721C62.8748 76.8422 56.0392 82.661 50.3048 89.4864C49.1696 90.8662 49.1788 90.9007 49.408 91.2939C52.7241 97.0024 60.7828 103.297 66.4875 106.527C66.9037 106.766 67.0325 106.764 71.1734 101.732C75.9209 95.9645 79.8208 89.5485 82.7544 82.6787C82.7537 82.3245 82.6188 82.3184 82.4432 82.3115C82.3597 82.3077 82.2669 82.3038 82.1741 82.2617ZM69.0109 92.4714C66.5634 92.1402 65.1514 91.5323 63.7608 89.4741C60.3482 84.4149 65.9164 77.6279 71.8334 80.3392C77.5312 82.95 76.4419 92.108 69.0109 92.4714ZM64.3112 107.648C65.1544 108.118 65.3232 108.212 65.0701 108.492L65.0024 108.566C64.3315 109.295 61.669 112.189 60.664 112.472C56.5829 111.801 48.7863 105.063 46.131 101.312C45.2918 100.276 44.6364 99.1035 44.1931 97.8464L44.1554 97.759L44.1225 97.6824C43.9287 97.2339 43.8891 97.1427 44.0015 96.9909C45.0409 95.5928 47.2578 92.8784 47.2754 92.8615C47.677 92.3955 47.9135 92.745 48.6152 93.7822C49.7072 95.395 51.9256 98.6735 57.6453 103.133C61.2075 105.913 63.2718 107.066 64.3112 107.648ZM86.7183 67.4404C86.7098 67.2805 86.6677 67.1242 86.5933 66.9823C86.519 66.8403 86.4155 66.716 86.289 66.6179C86.1625 66.5198 86.0161 66.4502 85.8597 66.4138C85.7041 66.3775 85.5424 66.3752 85.3852 66.4072C81.4045 66.8671 78.4955 67.7165 72.8905 70.6024C72.5838 70.7612 72.5999 70.8769 73.1342 71.6757C75.4147 75.0792 77.6461 77.9491 82.3558 79.9973C82.5766 80.0931 82.769 80.1782 82.9369 80.2518C84.0131 80.7247 84.0913 80.7592 84.1955 80.5722C86.22 76.8445 86.9881 69.7785 86.7183 67.4404ZM65.817 90.2407C65.1424 89.7033 64.6096 89.0089 64.2652 88.2185C63.8508 87.2496 63.7351 86.1787 63.9328 85.1431C64.1305 84.1075 64.6326 83.1547 65.375 82.4066C66.1173 81.6576 67.0661 81.1479 68.0998 80.9417C69.1336 80.7355 70.2054 80.8428 71.178 81.2491C71.9714 81.5871 72.67 82.1145 73.2128 82.7845C73.7556 83.4544 74.126 84.247 74.2918 85.0933C74.4575 85.9396 74.4135 86.8142 74.1637 87.639C73.9138 88.4646 73.4657 89.2166 72.8583 89.8291C72.251 90.4408 71.503 90.8953 70.6797 91.1521C69.8564 91.4089 68.9827 91.4595 68.1351 91.3008C67.2874 91.1422 66.4916 90.778 65.817 90.2407ZM72.9167 87.2956C73.1772 86.5896 73.2366 85.8246 73.0882 85.0872C72.9611 84.4663 72.6908 83.8829 72.2987 83.3847C71.9066 82.8864 71.4036 82.487 70.8297 82.2172C70.2558 81.9474 69.627 81.8155 68.9932 81.8324C68.3593 81.8485 67.7381 82.0126 67.1789 82.3115C66.5164 82.6687 65.966 83.2022 65.5891 83.853C65.2122 84.5046 65.0234 85.2482 65.0441 86.0001C65.0648 86.7521 65.2939 87.4842 65.706 88.1135C66.1181 88.7429 66.697 89.2457 67.378 89.5661C68.0591 89.8858 68.8157 90.01 69.5634 89.9256C70.311 89.8406 71.0205 89.5493 71.6125 89.0855C72.2046 88.621 72.6561 88.0008 72.9167 87.2956ZM71.1197 105.391C70.7571 105.32 70.2655 105.94 69.5278 106.869C69.0694 107.447 68.5161 108.143 67.8397 108.869C67.8167 108.894 67.8229 108.887 67.8305 108.879C67.8647 108.84 67.9279 108.771 65.55 111.322C65.2791 111.612 65.0668 111.818 64.8648 112.015C64.5269 112.343 64.2173 112.643 63.7103 113.259C63.3397 113.701 63.5152 114.173 63.7399 114.779C63.8443 115.06 63.9594 115.37 64.0353 115.719C64.1431 116.211 64.2192 116.551 64.2733 116.792C64.3721 117.232 64.3965 117.34 64.4033 117.449C64.4055 117.485 64.4058 117.521 64.4064 117.569C64.408 117.735 64.4111 118.043 64.4998 118.986C64.5165 120.138 64.2691 120.739 64.1125 121.12C63.9682 121.47 63.9011 121.633 64.1894 121.867C64.5555 122.166 64.5895 122.139 66.6389 120.539L66.7098 120.483C72.9694 115.582 72.4497 105.648 71.1197 105.391ZM68.4782 84.5307C69.206 84.1581 69.9736 83.8699 70.7663 83.6698C70.9066 83.643 71.0011 83.5993 71.076 83.564C71.229 83.492 71.2999 83.459 71.5114 83.6928C71.9453 84.1911 72.5915 85.1899 71.9645 85.3877C69.7186 86.0975 69.7191 86.0983 69.9132 86.3995C69.9678 86.4838 70.0377 86.5927 70.0772 86.7475C70.1092 86.8648 70.1062 86.9882 70.0688 87.104C70.0313 87.219 69.961 87.3209 69.8664 87.3968C69.208 87.8253 68.5008 88.1749 67.7599 88.4362C67.1697 88.5857 66.5419 88.4148 66.0636 87.0963C65.9661 86.8288 66.0997 86.7981 66.4927 86.7077C66.8137 86.6341 67.3079 86.5214 67.9907 86.2063C68.8133 85.8284 68.631 85.5448 68.4456 85.2574C68.3016 85.0335 68.1557 84.8066 68.4782 84.5307Z" fill="black"/>
<path d="M142.945 19.2067C132.504 4.69052 113.36 2.09882 98.5683 10.3998C76.5108 22.7773 76.4633 58.7308 103.202 69.5951C113.174 73.647 126.907 72.8445 136.053 65.5806C141.031 61.6268 144.402 56.2456 146.375 52.3661C151.217 41.0104 148.799 27.3451 142.945 19.2067ZM147.972 42.9414C147.896 45.9232 145.38 55.2675 138.401 61.938C120.816 78.7431 92.9725 70.8829 85.412 49.631C81.0143 37.2689 83.7501 19.6413 100.225 10.6075C118.407 0.637775 143.028 9.75971 147.304 31.7474C148.114 35.4204 148.34 39.1981 147.972 42.9414Z" fill="black"/>
<path d="M118.939 48.8938C116.67 48.0766 114.503 49.7048 113.316 51.5652C110.839 55.4478 111.691 60.9937 116.335 60.7132C117.684 60.7132 120.305 58.5124 121.138 55.3657C121.953 52.2911 120.725 49.5369 118.939 48.8938ZM120.832 53.7544C120.561 57.0506 118.149 59.6676 116.644 59.9635C115.668 60.1544 118.1 58.2388 118.496 54.2297C118.972 49.3568 115.94 50.0658 116.561 49.5016C116.935 49.2862 117.371 49.205 117.797 49.2717C119.093 48.9911 121.067 50.899 120.832 53.7544Z" fill="black"/>
<path d="M99.8401 40.1205C97.8471 37.9213 94.0442 38.2149 92.1263 43.1201C90.3702 47.6105 94.4873 53.9284 99.4584 48.4744C101.171 46.5964 101.66 42.132 99.8401 40.1205ZM98.5056 39.9274C97.8938 40.1403 97.3511 40.5146 96.9349 41.0105C96.1308 41.8951 95.5712 42.9737 95.3106 44.1403C95.2707 44.4278 95.0806 44.6769 95.0607 44.9736C95.004 45.6734 94.7794 47.4879 95.2753 48.423C95.5053 48.8561 95.6532 49.3529 96.1262 49.6166C96.2979 49.7124 96.2557 49.914 96.1262 49.9102C95.5513 49.9813 94.9679 49.8924 94.4398 49.6534C91.9584 48.1831 92.0581 43.9242 93.5874 41.8001C95.8433 38.1283 99.0099 39.6131 98.5056 39.9274Z" fill="black"/>
<path d="M114.007 21.7499C112.463 20.7717 108.948 21.1451 107.041 21.8097C102.493 23.3933 100.112 26.8827 102.832 28.8481C105.147 30.5215 110.678 28.9815 113.065 27.3526C115.835 25.4615 115.872 22.9319 114.007 21.7499ZM103.215 27.2338C102.909 27.7113 103.021 27.9842 102.728 27.6546C102.172 27.0299 102.438 26.0801 103.29 25.0821C106.208 21.6625 112.097 21.2301 113.757 22.3715C114.188 22.6768 114.484 23.1365 114.584 23.6547C114.684 24.173 114.579 24.7099 114.293 25.1533C114.172 25.3342 113.618 24.8705 113.334 24.639C111.32 22.9963 104.82 24.7317 103.215 27.2338Z" fill="black"/>
<path d="M127.692 37.9587C129.597 37.4719 129.733 35.5962 129.875 33.6407C129.675 31.6239 129.508 29.7083 127.83 28.5363C124.538 26.2374 122.986 37.1086 127.692 37.9587ZM126.649 28.9571C127.394 28.6466 128.29 29.5289 128.548 30.2142C130.196 34.5836 128.689 37.4965 127.574 37.3309C127.368 37.2995 127.312 37.2228 127.411 37.0381C128.147 35.6583 128.373 32.4917 127.15 30.0709C126.872 29.5205 126.427 29.4638 126.453 29.0966C126.452 28.9586 126.568 28.9908 126.649 28.9571Z" fill="black"/>
<path d="M95.9344 21.1233C96.0716 19.6668 95.0644 19.013 93.9629 19.3058C91.5866 19.9374 89.234 23.8085 89.4739 25.9748C89.8879 29.7109 94.8574 26.8709 95.9344 21.1233ZM91.1581 25.7126C91.0331 26.1057 90.9871 26.5197 91.0231 26.9307C90.9764 27.2035 90.4007 27.0073 90.2114 26.5359C89.1988 24.0331 93.7467 18.573 95.0652 20.0417C95.9965 21.078 93.9491 19.686 91.4961 24.6877C91.3819 24.9208 91.2516 25.4742 91.1581 25.7126Z" fill="black"/>
<path d="M134.822 47.7194C133.737 49.2916 133.315 51.6196 134.786 52.5302C136.556 53.6256 139.532 51.3206 139.757 48.2375C139.961 45.4358 136.734 44.9467 134.822 47.7194ZM138.232 50.6782C136.981 52.1638 135.861 52.3171 135.69 52.2573C135.349 52.137 135.407 51.9201 135.613 51.8235C136.283 51.3865 136.826 50.7831 137.192 50.0727C138.827 47.3736 137.354 46.5312 138.122 46.5028C139.153 46.4653 139.665 48.9826 138.232 50.6782Z" fill="black"/>
<path d="M142.885 31.1824C141.364 31.489 139.629 34.7323 140.569 37.4819C141.821 41.1452 145.462 38.3941 145.251 34.3858C145.115 31.7351 143.822 30.9923 142.885 31.1824ZM142.097 38.5574C141.299 38.2753 142.262 37.8337 142.518 36.871C142.548 36.756 143.571 34.0723 142.532 32.5783C142.211 32.1184 142.19 32.1452 142.532 31.929C142.712 31.8454 142.909 31.8031 143.107 31.8051C143.305 31.8072 143.5 31.8536 143.679 31.9409C143.857 32.0282 144.013 32.1542 144.136 32.3097C144.259 32.4652 144.346 32.6463 144.39 32.8397C145.368 36.6318 143.268 38.9667 142.097 38.5574Z" fill="black"/>
<path d="M126.523 13.8115C124.466 15.1147 130.351 20.0536 132.587 18.43C133.633 17.6704 132.296 15.9839 131.062 15.012C129.987 14.1642 127.772 13.0205 126.523 13.8115ZM132.014 18.0498C131.707 18.2261 131.567 18.2698 131.025 17.5193C129.991 16.3726 128.695 15.4937 127.247 14.9583C126.979 14.8939 126.619 14.992 126.711 14.6333C126.83 14.1573 127.069 14.2071 127.567 14.1948C129.788 14.1404 133.265 17.3392 132.014 18.0498Z" fill="black"/>
<path d="M125.056 62.3305C124.928 62.5311 124.855 62.7612 124.841 62.9986C124.828 63.236 124.875 63.4729 124.98 63.6866C125.58 64.5696 127.348 64.6332 128.699 64.4255C129.66 64.2783 129.849 64.0507 130.055 63.5394C131.091 61.0213 126.417 60.7422 125.056 62.3305ZM129.537 62.6832C129.409 64.2538 128.873 62.1849 126.205 63.0273C126.042 63.0787 125.768 63.2688 125.591 63.3056C125.017 63.4229 125.591 61.3892 128.664 62.0078C128.917 62.0592 129.584 62.4279 129.537 62.6832Z" fill="black"/>
<path d="M99.5817 59.0144C98.8236 60.1282 101.435 63.6827 103.317 63.3899C106.235 62.9338 101.261 56.5477 99.5817 59.0144ZM102.626 62.5015C102.506 62.2616 102.371 62.0299 102.221 61.8077C101.864 61.2068 101.41 60.6692 100.878 60.2164C100.476 59.8285 100.102 59.9435 100.126 59.4835C100.138 59.2367 100.183 59.1838 100.443 59.1769C101.882 59.1302 102.984 60.7606 103.6 62.2201C103.838 62.7805 102.85 63.1392 102.626 62.5015Z" fill="black"/>
<path d="M114.329 12.1063C119.562 12.482 117.286 6.97655 112.777 9.72084C111.474 10.5142 111.548 11.907 114.329 12.1063ZM116.585 10.0367C116.868 10.285 116.714 10.5648 116.475 10.8032C116.034 11.2424 116.192 10.7833 115.348 10.7059C113.365 10.5234 113.732 11.5015 113.224 11.3191C110.945 10.502 115.238 8.84851 116.585 10.0344V10.0367Z" fill="black"/>
<path d="M115.147 36.6664C113.618 37.3724 113.581 37.9174 113.341 38.7307C113.207 39.1822 113.502 39.5439 113.805 39.8674C114.012 40.0874 114.333 40.0928 114.757 40.1664C115.207 40.1776 115.654 40.0887 116.066 39.9061C116.477 39.7236 116.844 39.452 117.137 39.1108C117.693 38.6708 118.05 37.5686 117.625 37.0658C117.316 36.732 116.904 36.5115 116.454 36.439C116.005 36.3667 115.545 36.4467 115.147 36.6664ZM117.102 37.6928C117.102 38.6525 116.314 37.6759 115.147 38.516C114.499 38.9828 114.411 39.4359 114.208 39.3278C113.824 39.1301 113.824 37.9947 115.147 37.3064C116.334 36.6878 117.232 37.1531 117.102 37.6928Z" fill="black"/>
</svg>
