<svg width="154" height="154" viewBox="0 0 154 154" fill="none" xmlns="http://www.w3.org/2000/svg">
<path fill-rule="evenodd" clip-rule="evenodd" d="M74.9455 37.2466C75.5274 37.637 76.1286 37.9978 76.7469 38.3275C76.7693 38.3336 76.7883 38.3483 76.7998 38.3684C76.8113 38.3886 76.8143 38.4124 76.8082 38.4348C76.8022 38.4571 76.7874 38.4762 76.7673 38.4877C76.7472 38.4992 76.7233 38.5022 76.7009 38.4961C75.9685 38.2284 75.2584 37.9029 74.5776 37.5226C74.5354 37.4958 74.5038 37.4551 74.4884 37.4075C74.4731 37.3599 74.4748 37.3084 74.4933 37.262C75.2531 35.515 76.1772 33.8441 77.2528 32.2717C77.2673 32.257 77.2863 32.2476 77.3068 32.2451C77.3273 32.2425 77.348 32.2468 77.3657 32.2574C77.3834 32.268 77.397 32.2843 77.4043 32.3036C77.4117 32.3228 77.4123 32.344 77.4062 32.3637C77.4062 32.3637 75.1218 36.7944 74.9455 37.2466ZM77.2835 44.4599C77.7652 45.1046 78.481 45.5341 79.2765 45.6557C79.6925 45.7067 80.1136 45.6166 80.4722 45.3998C80.8308 45.1829 81.1062 44.8519 81.2542 44.4599C81.2664 44.4406 81.2705 44.4172 81.2654 44.3949C81.2604 44.3726 81.2467 44.3533 81.2274 44.3411C81.2081 44.3289 81.1847 44.3248 81.1624 44.3299C81.1402 44.3349 81.1208 44.3486 81.1086 44.3679C80.8996 44.6407 80.6392 44.8698 80.342 45.0424C80.0363 45.1885 79.6984 45.2539 79.3602 45.2325C79.0221 45.211 78.6951 45.1034 78.4103 44.9198C78.0834 44.7614 77.7728 44.5714 77.4828 44.3526C77.4686 44.3261 77.4444 44.3064 77.4157 44.2978C77.3869 44.2892 77.3559 44.2923 77.3295 44.3066C77.3031 44.3208 77.2834 44.3449 77.2748 44.3737C77.2661 44.4024 77.2693 44.4334 77.2835 44.4599ZM74.1866 28.7303C74.8071 28.3344 75.4706 28.0103 76.1644 27.7644C76.1867 27.7644 76.2082 27.7555 76.224 27.7397C76.2398 27.7239 76.2487 27.7025 76.2487 27.6801C76.2487 27.6577 76.2398 27.6363 76.224 27.6205C76.2082 27.6047 76.1867 27.5958 76.1644 27.5958C75.9602 27.5426 75.7472 27.5322 75.5388 27.5652C75.3304 27.5982 75.131 27.6738 74.9532 27.7874C74.5673 27.9402 74.2509 28.2293 74.064 28.5999C73.9797 28.6843 74.11 28.8069 74.1866 28.7303ZM81.1086 28.7993C81.907 29.1192 82.6437 29.5758 83.2856 30.1484C83.2916 30.1579 83.2995 30.1662 83.3087 30.1727C83.318 30.1793 83.3284 30.1839 83.3395 30.1864C83.3505 30.1889 83.3619 30.1892 83.373 30.1873C83.3842 30.1853 83.3949 30.1813 83.4044 30.1752C83.414 30.1692 83.4223 30.1613 83.4288 30.1521C83.4353 30.1428 83.4399 30.1324 83.4424 30.1214C83.4449 30.1103 83.4452 30.0989 83.4433 30.0878C83.4414 30.0766 83.4373 30.066 83.4312 30.0564C83.3405 29.8328 83.2136 29.6256 83.0556 29.4432C82.718 29.1062 82.3017 28.8586 81.8445 28.7226C81.6169 28.6497 81.378 28.6186 81.1393 28.6306C81.1169 28.6265 81.0938 28.6315 81.0751 28.6445C81.0565 28.6574 81.0437 28.6772 81.0396 28.6996C81.0355 28.722 81.0405 28.745 81.0535 28.7637C81.0664 28.7824 81.0862 28.7952 81.1086 28.7993ZM75.1218 32.9616C75.1755 32.6703 75.2445 32.3867 75.3211 32.0954C75.3559 31.9795 75.3451 31.8546 75.291 31.7464C75.2369 31.6381 75.1435 31.5546 75.0299 31.5128C74.9745 31.4955 74.9162 31.4898 74.8585 31.496C74.8008 31.5023 74.7451 31.5203 74.6947 31.5491C74.6443 31.5779 74.6004 31.6168 74.5658 31.6633C74.5311 31.7098 74.5064 31.763 74.4933 31.8195C74.409 32.1337 74.34 32.448 74.2786 32.7623C74.2523 32.88 74.2718 33.0033 74.333 33.1072C74.3942 33.2111 74.4926 33.2878 74.6083 33.3219C74.6657 33.3329 74.7248 33.3322 74.782 33.32C74.8392 33.3077 74.8934 33.2841 74.9413 33.2504C74.9892 33.2168 75.0299 33.174 75.0609 33.1244C75.0919 33.0747 75.1126 33.0194 75.1218 32.9616ZM82.6417 34.9393C82.703 34.6493 82.7798 34.3627 82.8717 34.0808C82.9099 33.9647 82.9026 33.8385 82.8514 33.7275C82.8002 33.6165 82.7088 33.5291 82.5957 33.4829C82.5404 33.4642 82.4818 33.4572 82.4237 33.4624C82.3655 33.4675 82.3091 33.4847 82.2579 33.5128C82.2068 33.5409 82.162 33.5793 82.1264 33.6256C82.0909 33.672 82.0654 33.7251 82.0515 33.7818C81.9595 34.0884 81.8751 34.4027 81.8062 34.717C81.777 34.8338 81.7932 34.9573 81.8515 35.0626C81.9099 35.1679 82.006 35.2471 82.1204 35.2843C82.1774 35.2977 82.2366 35.2993 82.2942 35.289C82.3518 35.2787 82.4067 35.2567 82.4556 35.2244C82.5044 35.1921 82.5461 35.1501 82.5781 35.1011C82.6101 35.0521 82.6317 34.997 82.6417 34.9393Z" fill="black"/>
<path fill-rule="evenodd" clip-rule="evenodd" d="M90.6752 115.412C91.1122 115.588 96.6313 114.484 99.4216 117.328C100.261 118.202 101.045 119.129 101.767 120.103C109.655 118.623 112.499 119.536 114.638 119.413C114.307 114.506 114.495 109.578 115.197 104.711C115.819 99.7295 116.876 94.8125 118.355 90.0158C118.36 89.9982 118.369 89.9818 118.38 89.9674C118.392 89.9531 118.406 89.9411 118.422 89.9322C118.438 89.9233 118.455 89.9176 118.474 89.9156C118.492 89.9135 118.51 89.915 118.528 89.92C118.545 89.925 118.562 89.9335 118.576 89.9449C118.591 89.9563 118.603 89.9704 118.611 89.9864C118.62 90.0024 118.626 90.02 118.628 90.0382C118.63 90.0564 118.629 90.0749 118.624 90.0925C118.049 92.0855 116.661 99.6974 116.431 101.1C115.416 107.144 114.903 113.262 114.898 119.39C118.562 119.091 120.31 117.359 125.722 116.837C128.228 116.6 130.153 116.929 133.495 118.792C133.527 118.809 133.552 118.839 133.562 118.874C133.573 118.909 133.569 118.947 133.552 118.98C133.535 119.012 133.505 119.037 133.47 119.048C133.435 119.058 133.397 119.055 133.364 119.037C130.007 117.366 128.19 117.167 125.791 117.504C119.183 118.317 117.688 120.686 112.307 120.042C109.402 119.681 104.826 120.042 101.936 120.417L102.235 120.862C103.97 120.744 105.706 121.063 107.286 121.789C107.297 121.793 107.307 121.8 107.315 121.808C107.324 121.816 107.33 121.826 107.335 121.837C107.339 121.848 107.341 121.859 107.34 121.871C107.34 121.882 107.337 121.894 107.332 121.904C107.286 122.012 107.248 121.904 106.612 121.789C105.125 121.46 103.592 121.299 102.396 121.099C102.949 121.937 103.387 122.844 103.699 123.798C105.437 124.298 107.051 125.157 108.436 126.32C108.453 126.335 108.464 126.356 108.465 126.379C108.467 126.402 108.459 126.425 108.444 126.442C108.429 126.46 108.407 126.47 108.384 126.472C108.361 126.473 108.338 126.465 108.321 126.45C107.639 125.967 105.255 124.848 103.783 124.097C104.016 124.812 104.052 125.577 103.889 126.312C103.726 127.047 103.369 127.724 102.856 128.274C104.313 128.933 105.699 129.737 106.995 130.674C107.015 130.685 107.03 130.704 107.037 130.726C107.043 130.748 107.041 130.772 107.03 130.792C107.018 130.813 107 130.828 106.977 130.834C106.955 130.841 106.931 130.838 106.911 130.827C105.431 130.182 104.021 129.388 102.702 128.458C102.004 129.347 101.002 129.947 99.8892 130.145C98.816 130.306 98.3561 129.961 98.9846 130.298C99.9735 130.85 102.319 132.337 103.101 132.797C103.112 132.801 103.122 132.807 103.13 132.815C103.139 132.823 103.146 132.833 103.15 132.843C103.155 132.854 103.157 132.866 103.157 132.877C103.157 132.889 103.154 132.9 103.149 132.911C103.145 132.922 103.138 132.931 103.129 132.939C103.121 132.947 103.11 132.953 103.099 132.956C103.088 132.96 103.077 132.961 103.065 132.96C103.053 132.959 103.042 132.956 103.032 132.95C101.416 132.302 99.8974 131.435 98.517 130.375C97.8425 129.861 98.2334 130.099 97.6125 129.869C97.0021 129.633 96.429 129.31 95.9108 128.911L95.6655 129.026C100.659 133.462 106.493 136.851 112.821 138.991C119.213 141.22 126.023 141.99 132.751 141.244C154.13 138.837 150.259 111.257 142.9 90.9434C141.216 86.1437 138.959 81.565 136.178 77.3064C131.302 69.9552 126.327 67.4333 125.446 66.9273C122.809 69.9935 110.115 73.2131 114.714 76.5399C117.612 78.6632 121.445 80.7176 124.258 78.4869C124.317 78.4341 124.393 78.4045 124.473 78.4035C124.552 78.4025 124.629 78.4302 124.69 78.4814C124.751 78.5327 124.791 78.6042 124.803 78.6826C124.815 78.7611 124.798 78.8413 124.756 78.9085C123.378 81.0771 121.267 82.6792 118.808 83.4235C116.389 84.1436 113.824 84.2255 111.364 83.6611C107.578 82.8946 105.339 81.5531 104.197 80.0124C102.373 77.5517 103.308 74.5622 105.401 72.4618C108.658 69.1887 111.318 67.8625 108.597 65.1259C105.186 61.7225 96.1177 66.5901 97.4669 59.5761C96.9648 60.046 96.5639 60.6132 96.2884 61.2432C96.013 61.8732 95.8688 62.5527 95.8648 63.2402C95.8648 66.3064 97.7505 67.6019 100.794 67.5866C101.91 67.5667 103.02 67.4071 104.098 67.1113C104.149 67.0963 104.204 67.0951 104.256 67.108C104.309 67.1208 104.357 67.1473 104.395 67.1846C104.434 67.2219 104.463 67.2687 104.478 67.3205C104.493 67.3722 104.494 67.427 104.481 67.4793C104.162 68.4352 103.544 69.263 102.718 69.8402C100.877 71.1636 98.6958 71.9323 96.432 72.0556C94.7977 72.2197 93.1529 71.87 91.7267 71.0552C90.3005 70.2404 89.1639 69.0011 88.4752 67.5099C86.7505 63.9915 87.1108 61.1092 89.2418 58.1427C89.0987 56.9859 89.0551 55.8191 89.1115 54.6549C87.8697 54.7009 86.3825 54.7622 85.1484 54.9078C85.5246 56.7122 85.6943 58.5536 85.6543 60.3963C85.6487 60.4153 85.637 60.432 85.6211 60.4438C85.6053 60.4557 85.586 60.462 85.5662 60.462C85.5464 60.462 85.5271 60.4557 85.5112 60.4438C85.4953 60.432 85.4837 60.4153 85.478 60.3963C85.3554 59.5685 85.3017 59.3998 85.1944 58.4646C85.0335 57.2932 84.9439 56.1131 84.9261 54.9308C84.6328 54.9594 84.3411 55.0029 84.0522 55.0612C83.2857 55.2298 82.9101 55.3831 82.8794 56.5483C82.9742 57.7466 83.1329 58.939 83.3547 60.1204C83.3547 60.381 83.1324 60.2277 80.0892 61.1476C80.3181 61.6438 80.5103 62.1562 80.6641 62.6807C81.6759 65.9538 78.786 69.5796 73.6961 68.8974C71.9484 68.6674 70.538 67.8702 69.9247 66.2374C67.4691 67.8044 65.2928 69.7709 63.4857 72.0556C60.6571 75.62 53.7965 92.7524 53.3596 94.4082C55.0452 96.3817 56.8364 98.2625 58.7254 100.042C60.6571 89.9698 64.8578 83.8221 64.2216 84.811C64.231 84.7952 64.2435 84.7815 64.2583 84.7706C64.2731 84.7598 64.2899 84.752 64.3077 84.7477C64.3256 84.7434 64.3441 84.7427 64.3622 84.7457C64.3803 84.7487 64.3977 84.7552 64.4132 84.765C64.7275 84.9489 63.915 85.3322 62.0446 90.4068C57.7668 102.075 57.2309 114.785 60.5115 126.772C61.669 131.049 62.0446 131.302 61.9296 131.463C61.9296 131.463 60.0745 134.315 55.3603 134.583C52.754 134.721 49.2662 134.077 44.7282 131.701C32.1721 125.124 34.6711 88.774 33.9965 85.8228C33.4672 83.741 32.7699 81.7055 31.9115 79.7364C31.8826 79.6744 31.8737 79.6049 31.8861 79.5376C31.8984 79.4703 31.9314 79.4085 31.9805 79.3608L32.3331 79.0235C31.1972 77.7787 30.2424 76.3801 29.4969 74.8688C29.2132 74.3169 29.2899 74.4089 29.1902 74.3705C27.9868 73.9029 27.0132 72.2012 27.6571 70.9747C26.653 71.1664 11.4446 74.0409 9.08364 74.3016C8.0453 74.4777 6.98033 74.4121 5.97144 74.1099C5.56541 73.9719 5.19905 73.7372 4.90392 73.426C4.6088 73.1149 4.39377 72.7366 4.27737 72.3239C3.4265 69.4723 4.13172 27.1971 4.17005 25.112C4.14443 23.7625 4.56476 22.4423 5.36587 21.3559C5.67689 21.0048 6.05457 20.719 6.47698 20.515C6.89938 20.311 7.3581 20.193 7.82649 20.1678C11.276 19.8842 45.1881 24.3455 48.5916 24.7671C49.8698 24.9056 51.0887 25.3789 52.1254 26.1392C52.4767 26.4167 52.766 26.7646 52.9746 27.1607C53.1832 27.5568 53.3065 27.9922 53.3366 28.4389C53.3366 28.4389 54.5554 62.765 54.5707 63.1023C54.701 64.1754 54.4787 65.5169 53.4975 65.9692C52.6927 66.3448 35.7979 69.457 36.3115 69.3573C37.7534 71.3786 38.9863 73.5411 39.9909 75.8117C41.1638 76.1566 39.623 75.666 44.5136 82.7949C47.2118 86.7197 50.8913 91.5029 53.1373 94.1552C54.2411 89.6862 60.0362 75.2751 62.9874 71.6723C64.9183 69.373 67.2572 67.4499 69.8864 65.9998C69.6226 64.981 69.6068 63.9138 69.8404 62.8876C69.8522 62.8114 69.8727 62.7368 69.9017 62.6653C69.9312 62.583 69.9922 62.5157 70.0712 62.4784C70.1503 62.441 70.241 62.4365 70.3233 62.466C70.4057 62.4955 70.4729 62.5565 70.5103 62.6355C70.5477 62.7146 70.5521 62.8053 70.5226 62.8876C70.4291 63.68 70.5788 64.482 70.9519 65.1873C71.9151 64.4157 72.9838 63.7858 74.1254 63.3169C72.692 60.3503 66.1839 56.5789 65.3101 53.3977C64.1909 49.2814 67.2111 46.7364 70.3003 42.3824C74.5163 36.457 63.7233 32.9002 65.2181 25.4263C65.6934 23.0654 67.3644 20.6661 70.4306 18.2361C73.6731 15.6758 77.2069 15.3155 80.1505 16.611C88.1073 10.2026 101.806 8.58522 108.459 16.335C112.031 20.4974 112.959 26.1086 115.81 27.9253C120.333 30.8305 131.747 35.0312 128.842 42.2368C126.067 49.1357 116.792 53.0145 121.268 57.8131C123.737 60.45 125.661 62.2514 126.297 63.7615C126.504 64.1738 126.59 64.637 126.542 65.0962C126.494 65.5554 126.316 65.9914 126.029 66.3524C127.04 66.9197 131.686 69.7942 136.615 77.0841C139.458 81.3526 141.775 85.9496 143.514 90.7747C151.179 111.579 154.881 139.497 132.866 141.942C126.041 142.679 119.138 141.848 112.683 139.512C106.283 137.261 100.409 133.73 95.4202 129.133C94.3989 129.576 93.2895 129.778 92.1777 129.723C92.1976 130.398 91.9943 131.06 91.5993 131.608C91.2043 132.155 90.6397 132.557 89.993 132.751C89.9087 133.954 89.8474 134.721 89.8243 134.805C89.6021 135.641 82.3428 140.332 73.4278 135.012C73.3825 134.986 73.3442 134.95 73.3161 134.906C73.2881 134.862 73.2712 134.811 73.2669 134.759C72.9832 132.521 70.7679 114.124 72.2167 112.368C73.6655 110.613 78.786 109.9 80.8864 109.992C83.5616 110.115 90.1463 110.759 90.5679 113.48C90.6402 114.121 90.6761 114.766 90.6752 115.412ZM89.1421 134.575C89.1421 134.483 90.4299 116.278 90.0543 113.541C89.7324 111.242 83.1554 110.368 80.8557 110.26C78.878 110.176 73.8188 111.081 72.5616 112.652C71.4118 114.086 73.6808 132.644 73.9108 134.499C76.2271 135.909 78.8664 136.7 81.5763 136.798C84.9951 136.875 88.0076 135.603 89.1651 134.552L89.1421 134.575ZM38.9178 76.3176C37.9692 76.3636 37.0436 76.6258 36.2118 77.0841C37.1978 78.5832 38.008 80.1908 38.6265 81.8751C38.6321 81.8853 38.6355 81.8965 38.6365 81.9081C38.6376 81.9197 38.6362 81.9314 38.6325 81.9424C38.6288 81.9534 38.6229 81.9636 38.6151 81.9722C38.6073 81.9808 38.5978 81.9877 38.5871 81.9925C38.5765 81.9973 38.5651 81.9998 38.5534 81.9999C38.5418 82.0001 38.5303 81.9978 38.5196 81.9932C38.5088 81.9887 38.4992 81.9819 38.4912 81.9735C38.4832 81.965 38.4771 81.955 38.4732 81.9441C37.543 80.4085 36.7257 78.8073 36.0279 77.1531C35.2122 77.5863 34.4418 78.0999 33.7282 78.6862C34.3291 79.8053 34.8615 80.9598 35.3226 82.1434C35.4913 82.588 35.6983 83.2242 35.7442 83.3775C35.7498 83.3877 35.7533 83.399 35.7543 83.4105C35.7553 83.4221 35.754 83.4338 35.7503 83.4448C35.7466 83.4559 35.7406 83.466 35.7328 83.4746C35.725 83.4833 35.7155 83.4902 35.7049 83.4949C35.6943 83.4997 35.6828 83.5023 35.6712 83.5024C35.6596 83.5025 35.648 83.5002 35.6373 83.4957C35.6266 83.4911 35.617 83.4844 35.609 83.4759C35.601 83.4675 35.5949 83.4574 35.5909 83.4465C34.7508 81.9917 34.0722 80.4494 33.5672 78.8472C33.253 79.1078 32.9233 79.3991 32.5861 79.7211C33.4358 81.6554 34.1204 83.6581 34.6327 85.7078C35.315 88.6667 32.9617 124.802 44.9352 131.272C49.3505 133.656 52.754 134.338 55.2989 134.238C59.4076 134.062 61.14 131.754 61.4313 131.341C57.5731 121.51 56.5998 110.782 58.6258 100.418C51.2056 93.7566 41.6237 80.3573 40.0523 76.5399C39.7875 76.4264 39.5045 76.3614 39.2167 76.3482C40.1176 77.7188 40.8487 79.1937 41.3937 80.7406C41.3977 80.7511 41.3997 80.7624 41.3993 80.7737C41.399 80.785 41.3965 80.7962 41.3918 80.8065C41.3872 80.8168 41.3806 80.8261 41.3724 80.8339C41.3641 80.8416 41.3545 80.8477 41.3439 80.8517C41.3333 80.8558 41.3221 80.8577 41.3108 80.8573C41.2994 80.857 41.2883 80.8545 41.278 80.8498C41.2677 80.8452 41.2584 80.8386 41.2506 80.8304C41.2428 80.8221 41.2368 80.8125 41.2327 80.8019C40.3636 79.3659 39.5976 77.8699 38.9408 76.3252L38.9178 76.3176ZM90.1923 129.056C89.9853 132.621 89.924 132.49 90.0007 132.444C90.5115 132.158 90.9498 131.758 91.282 131.276C91.6142 130.793 91.8314 130.241 91.917 129.662C91.3134 129.587 90.733 129.383 90.2153 129.064L90.1923 129.056ZM90.1923 128.665C92.423 129.662 95.4738 128.497 97.6508 127.377C97.6658 127.364 97.6834 127.354 97.7026 127.348C97.7218 127.342 97.742 127.341 97.7618 127.344C97.7817 127.346 97.8007 127.353 97.8175 127.364C97.8344 127.375 97.8486 127.39 97.8594 127.407C97.8701 127.423 97.877 127.442 97.8796 127.462C97.8822 127.482 97.8805 127.502 97.8745 127.522C97.8685 127.541 97.8584 127.558 97.8449 127.573C97.8315 127.588 97.8149 127.6 97.7965 127.607C97.2946 128.018 96.7586 128.384 96.1944 128.704C98.6397 130.321 101.154 129.991 102.886 127.017C104.465 124.357 101.031 120.026 98.8926 117.78C97.7735 116.592 94.6153 115.381 91.1811 115.764C91.8086 116.406 92.2235 117.225 92.3693 118.11C93.0243 117.808 93.7276 117.623 94.4466 117.566C94.4675 117.565 94.488 117.571 94.5048 117.584C94.5215 117.597 94.5334 117.614 94.5386 117.635C94.5386 117.872 93.9561 117.589 90.5909 119.459C90.5909 120.264 90.4683 123.184 90.4376 123.79C91.0294 123.372 91.6914 123.063 92.3923 122.878C92.4106 122.869 92.4318 122.867 92.4512 122.874C92.4706 122.88 92.4866 122.894 92.4958 122.912C92.5049 122.931 92.5064 122.952 92.5 122.971C92.4935 122.991 92.4796 123.007 92.4613 123.016C91.8578 123.475 91.185 123.834 90.4682 124.081C90.3916 124.081 90.4683 123.813 90.3073 126.534H91.0738C91.7177 126.534 93.1052 126.588 93.2892 126.534C93.3095 126.534 93.329 126.542 93.3434 126.557C93.3577 126.571 93.3658 126.591 93.3658 126.611C93.3658 126.631 93.3577 126.651 93.3434 126.665C93.329 126.68 93.3095 126.688 93.2892 126.688C92.3099 126.969 91.2742 126.99 90.2843 126.749C90.3073 127.423 90.269 128.06 90.2383 128.673L90.1923 128.665ZM90.6292 115.68V118.968C91.1098 118.656 91.6241 118.399 92.1623 118.202C91.8131 117.285 91.3102 116.435 90.6752 115.688L90.6292 115.68ZM73.7651 114.354C75.8655 112.821 84.4278 112.2 88.3296 114.354C89.6327 113.587 89.5331 112.943 89.7324 113.035C89.7391 113.042 89.7444 113.049 89.7481 113.058C89.7517 113.067 89.7536 113.076 89.7536 113.085C89.7536 113.094 89.7517 113.104 89.7481 113.112C89.7444 113.121 89.7391 113.129 89.7324 113.135C88.3066 116.462 80.1888 116.14 76.6014 115.603C72.8376 115.036 72.5387 113.304 72.4927 113.127C72.4896 113.117 72.4886 113.107 72.4897 113.096C72.4908 113.086 72.4939 113.076 72.4988 113.066C72.5038 113.057 72.5106 113.049 72.5187 113.042C72.5269 113.036 72.5362 113.031 72.5463 113.028C72.5564 113.025 72.5669 113.024 72.5774 113.025C72.5879 113.026 72.598 113.029 72.6073 113.034C72.6165 113.039 72.6247 113.046 72.6313 113.054C72.638 113.062 72.6429 113.071 72.646 113.081C72.8992 113.609 73.2982 114.053 73.7958 114.361L73.7651 114.354ZM102.718 33.1072C104.389 34.9239 103.967 39.2396 100.97 40.0061C102.311 40.7727 103.768 42.2444 104.872 46.5218C106.888 54.3329 101.2 56.165 97.8655 59.2542C96.202 66.5211 105.194 61.2089 108.927 64.8577C112.039 67.9239 108.927 69.6563 105.784 72.8451C103.898 74.7691 103.001 77.4827 104.68 79.7441C105.769 81.1928 107.923 82.4193 111.518 83.1245C115.925 83.9907 120.31 83.1859 123.277 79.882C122.953 79.9986 122.62 80.0833 122.28 80.135C105.608 87.9691 105.799 74.2249 114.109 68.1308C120.417 63.5315 110.613 59.6145 107.363 56.5789C104.113 53.5434 110.92 47.8249 111.648 42.1908C112.2 37.9288 111.15 36.48 108.022 34.8319C106.803 34.1957 104.075 32.9232 102.902 32.1873C102.81 32.6856 102.718 33.1838 102.718 33.1072ZM112.085 42.1601C111.357 47.8326 104.672 53.3824 107.67 56.1803C110.667 58.9782 121.222 63.3782 114.362 68.3761C106.512 74.0716 105.753 87.1413 121.697 80.1043C119.153 80.1963 116.408 78.5712 114.346 77.0381C113.965 76.827 113.646 76.5185 113.423 76.1442C113.199 75.7699 113.079 75.3431 113.074 74.9071C113.204 72.7378 117.382 70.6988 119.505 69.5873C123.1 65.6472 122.679 62.8876 119.743 59.7984C116.807 56.7092 113.679 54.9998 115.519 51.6653C116.646 49.611 119.582 47.112 121.705 43.2333C123.905 39.2012 120.057 36.9552 115.941 34.9086C112.583 33.2375 109.364 32.0417 108.513 28.4925C107.938 26.0549 108.697 23.441 107.869 20.2291C106.842 16.2431 101.56 13.1692 97.7351 11.6361C95.6891 11.4376 93.6255 11.5228 91.6027 11.8891C96.0641 12.3873 105.546 16.772 103.009 31.6584C109.134 35.3225 112.997 35.0235 112.085 42.1601ZM39.6536 75.7427C38.603 73.5037 37.3319 71.3749 35.8592 69.388C34.0732 68.6214 32.0265 68.6214 31.0146 70.3462C30.5854 71.059 29.8725 72.4465 30.7003 72.5232C31.3826 72.5845 31.8885 72.0632 32.3561 71.565C33.5289 70.3385 33.5366 70.0319 33.6746 70.1622C33.6829 70.1701 33.6896 70.1796 33.6941 70.1901C33.6987 70.2007 33.701 70.212 33.701 70.2235C33.701 70.235 33.6987 70.2464 33.6941 70.2569C33.6896 70.2674 33.6829 70.277 33.6746 70.2848C33.6746 70.2848 33.2146 70.9901 32.6934 71.634C32.793 72.5538 32.3408 73.0214 31.5742 73.0291C31.612 73.2586 31.583 73.4941 31.4906 73.7075C31.3981 73.9209 31.2462 74.1032 31.053 74.2326C30.8368 74.377 30.5934 74.476 30.3378 74.5235C30.0821 74.5709 29.8195 74.5658 29.5659 74.5085C29.6118 74.5622 32.4404 78.8242 32.4941 78.8932C34.3951 77.1914 37.17 75.1984 39.6536 75.7427ZM28.3624 70.4765C28.1116 70.724 27.9382 71.0392 27.8633 71.3835C27.7885 71.7278 27.8154 72.0865 27.9408 72.4158C28.4697 74.0179 30.1791 74.4549 30.8077 73.9489C31.4362 73.443 31.2216 73.1824 31.0913 72.9448C30.9308 72.9913 30.7616 72.9989 30.5976 72.9669C30.4336 72.9349 30.2796 72.8642 30.1484 72.7608C29.6676 72.584 29.2457 72.2765 28.9301 71.873C28.6146 71.4694 28.4179 70.9857 28.3624 70.4765ZM8.24043 20.8424C7.7051 20.8155 7.17245 20.9338 6.69884 21.1848C6.22522 21.4358 5.82822 21.8101 5.54984 22.2681C5.06814 23.1404 4.82242 24.1233 4.83695 25.1197C4.78329 29.0291 4.00908 69.6946 4.7373 72.2089C5.32754 74.2556 7.91081 73.9873 9.02998 73.8799C11.9965 73.5887 24.4453 71.289 27.8564 70.6758C27.9913 70.5069 28.1486 70.3574 28.324 70.2312C28.324 69.0584 29.6425 68.4834 30.8 68.2611C30.5394 67.9929 30.2941 67.7552 30.0334 67.4946C20.7889 69.204 11.9812 70.7754 12.0119 70.6911C12.0425 70.6068 8.32475 71.5726 7.58886 69.0967C6.85298 66.6207 7.58886 27.8946 7.58886 27.8946C7.58886 27.8946 7.45088 24.1079 10.5707 23.8549C13.6906 23.6019 46.5986 27.8946 46.5986 27.8946C46.5986 27.8946 50.3394 28.2012 50.5157 30.8075L51.7038 61.1016C51.7038 61.1016 51.9644 62.9106 50.8759 63.4012C50.1094 63.7462 33.2453 66.889 34.1498 66.7127C34.848 67.4572 35.5007 68.2431 36.1045 69.066C36.8711 68.9204 52.5777 65.8695 53.2906 65.5246C53.4439 65.4466 53.5799 65.3385 53.6906 65.2068C53.8012 65.0751 53.8842 64.9225 53.9345 64.758C54.2794 63.8458 54.1414 65.8005 52.6467 28.4312C52.6209 28.0738 52.521 27.7257 52.3534 27.409C52.1858 27.0922 51.9541 26.8138 51.6732 26.5915C50.7429 25.9264 49.6534 25.5192 48.515 25.411C43.839 24.8514 13.0314 20.827 8.24043 20.8424ZM32.5171 71.8639C32.271 72.1791 31.979 72.4556 31.6509 72.6841C32.1951 72.6995 32.4634 72.4158 32.5171 71.8639ZM35.5833 69.043C33.3526 66.1915 30.2787 63.3169 26.676 62.9643C26.17 63.0793 26.2007 63.4472 26.4767 63.8841C27.1282 64.9113 27.9561 64.7273 31.3213 68.2535C31.3456 68.2792 31.3624 68.3111 31.3697 68.3458C31.377 68.3804 31.3745 68.4164 31.3626 68.4498C31.3507 68.4831 31.3298 68.5125 31.3022 68.5347C31.2746 68.5569 31.2414 68.571 31.2063 68.5754C29.7498 68.7057 28.301 69.342 28.6767 70.7678C28.7522 71.118 28.904 71.4472 29.1213 71.7321C29.3386 72.0169 29.616 72.2504 29.9338 72.4158C29.7115 71.7566 30.2787 70.7218 30.639 70.1162C31.7505 68.3225 33.6592 68.1538 35.5909 69.043H35.5833ZM103.714 67.8472C99.2146 68.8667 95.2822 67.8472 95.2822 63.2479C95.2822 56.2416 106.964 57.0159 104.312 46.6444C101.66 36.273 96.8919 42.9727 96.6466 35.1462C96.524 30.8458 96.5393 25.0354 93.8334 21.1413C91.7867 18.1978 88.1763 16.3657 81.7526 17.1169C84.8188 17.6995 86.4669 19.9378 85.685 23.8319C84.8648 27.887 83.8759 32.5246 83.9526 35.9817C83.9986 38.1204 84.4355 39.8145 85.6467 40.5427C87.77 41.8535 92.9442 43.8542 95.2439 46.5678C99.3909 51.443 91.2425 54.9998 88.7129 60.22C87.77 62.1671 87.586 64.4131 89.0041 67.2876C89.6435 68.6685 90.6972 69.8158 92.0188 70.5701C93.3404 71.3243 94.8643 71.6479 96.3784 71.496C99.2606 71.289 102.718 69.7559 103.722 67.8472H103.714ZM98.425 11.7587C102.196 13.2918 107.141 16.2277 108.199 20.1908C109.095 23.5406 108.321 26.0396 108.904 28.4465C109.716 31.8194 112.836 32.9462 116.125 34.5789C120.494 36.7406 124.434 39.1782 122.081 43.4939C119.919 47.4493 117.006 49.9023 115.872 51.926C114.178 54.9922 117.06 56.5253 119.973 59.5915C122.886 62.6577 123.33 65.5629 119.973 69.365C123.851 67.3566 126.596 66.1838 125.661 63.9991C125.04 62.5427 123.154 60.8103 120.762 58.25C117.535 54.8005 120.463 51.7956 123.614 48.3845C128.336 43.2869 130.873 39.5002 125.914 34.9775C122.847 32.1643 117.995 30.0716 115.435 28.4235C110.583 25.296 111.51 13.5295 98.4327 11.7587H98.425ZM80.1965 16.9483C77.3449 15.6605 73.8571 15.9901 70.6836 18.581C66.3603 22.0918 63.9763 26.2465 66.9582 30.9532C69.5108 35.0159 74.0411 38.2124 70.7909 42.7657C67.7247 47.043 64.8961 49.4577 65.9233 53.2061C66.9505 56.9545 77.8738 62.3357 74.3554 65.7929C72.8989 67.234 71.3965 67.326 70.4306 65.6319C70.8369 67.2953 72.1017 68.1155 73.8264 68.3685C74.4786 68.464 75.1396 68.4846 75.7965 68.4298C78.0961 66.9427 78.0118 64.9573 76.3944 62.719C73.5122 58.7406 69.963 58.9322 72.8146 53.0835C73.4529 51.6971 74.4377 50.4985 75.6738 49.6033C72.8223 45.8932 72.4543 40.0061 72.5233 35.3455C68.3533 30.5929 69.7177 24.3302 73.8188 19.8918C75.4822 18.0981 77.7818 16.6877 80.2041 16.9483H80.1965ZM75.7735 49.7566C73.6425 51.2897 72.1324 55.0305 72.1707 56.5866C72.2397 58.9476 74.616 59.4995 76.7163 62.4814C78.2494 64.689 78.4947 66.8507 76.2411 68.3685C79.3916 67.8472 80.94 65.1719 80.2655 62.8646C79.4223 59.9747 79.0237 60.9866 78.7324 57.7901C78.4258 54.7929 80.0662 54.7239 79.4989 52.5392C78.0436 51.9422 76.7642 50.9846 75.7812 49.7566H75.7735ZM9.79653 51.6193C9.79653 51.6193 9.57423 64.0528 9.70454 66.9043C9.70454 66.9043 22.2606 65.3099 22.6669 64.8117C22.8202 64.6277 22.5059 51.2131 22.3526 51.1901C22.1993 51.1671 9.64322 51.604 9.79653 51.6193ZM74.1867 63.5315C73.1871 64.2361 72.1307 64.8566 71.0285 65.3866C71.7951 66.6591 72.7993 66.3601 73.8571 65.3099C74.0961 65.0886 74.2583 64.7969 74.3203 64.4771C74.3824 64.1574 74.3409 63.8262 74.2021 63.5315H74.1867ZM29.9568 63.5315C32.816 63.0869 35.7519 62.6117 36.0892 62.4967C36.4265 62.3817 36.4725 50.7991 36.4725 50.5768C36.4725 50.3545 24.085 51.1287 24.2077 51.1364C24.2077 51.1364 24.246 61.4005 24.3456 64.4054L26.1164 64.1371C25.7791 63.6005 25.7101 63.0179 26.2544 62.696C26.3728 62.6259 26.5025 62.5766 26.6376 62.5503C27.801 62.6493 28.9337 62.9748 29.9721 63.5085L29.9568 63.5315ZM15.331 59.0242C15.285 58.1427 15.1547 54.6166 15.6836 53.9113C15.7172 53.8592 15.764 53.8169 15.8192 53.7887C15.8744 53.7604 15.936 53.7472 15.9979 53.7504C16.9561 53.7963 16.6418 54.9385 16.9408 58.9629C19.0871 60.2047 18.6425 63.1253 15.9903 63.1712C14.8634 63.1712 13.5603 62.0674 13.7903 60.8026C13.8844 60.4038 14.0737 60.0337 14.342 59.724C14.6103 59.4143 14.9497 59.1742 15.331 59.0242ZM16.4272 55.7127C16.3735 54.3559 16.3429 54.08 15.9749 54.057C15.9289 54.057 15.8446 54.2409 15.8293 54.2869C15.3847 55.4828 15.4843 59.4841 15.469 59.0702C15.4704 59.0842 15.4675 59.0984 15.4607 59.1107C15.4538 59.1231 15.4433 59.133 15.4307 59.1392C15.0785 59.3015 14.763 59.5336 14.5031 59.8214C14.3408 59.9805 14.2129 60.1713 14.1275 60.382C14.0421 60.5927 14.001 60.8187 14.0068 61.0459C14.0126 61.2732 14.065 61.4968 14.161 61.7029C14.2569 61.9089 14.3943 62.093 14.5645 62.2437C14.9432 62.6172 15.4508 62.8312 15.9826 62.8416C16.4758 62.8444 16.9568 62.6885 17.3547 62.397C17.6911 62.1082 17.9062 61.7032 17.9574 61.2628C18.0085 60.8225 17.8919 60.379 17.6307 60.0207C17.3899 59.6982 17.0777 59.4358 16.7185 59.2542C16.6915 59.2404 16.6687 59.2196 16.6525 59.194C16.6363 59.1684 16.6273 59.1388 16.6265 59.1085C16.5038 57.4221 16.5652 57.5754 16.4732 57.5754C16.4172 57.5831 16.3605 57.5831 16.3045 57.5754C16.2657 57.5801 16.2263 57.5749 16.1901 57.5601C16.1539 57.5454 16.1221 57.5216 16.0976 57.4911C16.0286 57.4451 16.0209 57.4298 16.0209 57.4298C16.0019 57.4241 15.9853 57.4125 15.9734 57.3966C15.9616 57.3807 15.9552 57.3615 15.9552 57.3416C15.9552 57.3218 15.9616 57.3025 15.9734 57.2867C15.9853 57.2708 16.0019 57.2591 16.0209 57.2535L16.0976 57.1922C16.1393 57.1534 16.1939 57.1316 16.2509 57.1308C16.5192 57.0848 16.4655 57.2688 16.4425 56.8012C16.2559 56.8779 16.0466 56.8779 15.8599 56.8012C15.8195 56.7864 15.7829 56.7629 15.7526 56.7322C15.7303 56.7322 15.7088 56.7233 15.693 56.7075C15.6772 56.6917 15.6683 56.6703 15.6683 56.6479C15.6683 56.6255 15.6772 56.6041 15.693 56.5883C15.7088 56.5725 15.7303 56.5636 15.7526 56.5636C15.8497 56.4961 15.9612 56.4519 16.0782 56.4346C16.1952 56.4173 16.3147 56.4274 16.4272 56.4639V56.1267C16.3716 56.1382 16.3142 56.1382 16.2585 56.1267C16.0056 56.0807 15.9289 55.7587 16.2585 55.7051C16.3118 55.6956 16.3663 55.6956 16.4195 55.7051L16.4272 55.7127ZM37.8446 50.4695C37.8446 50.4695 37.9289 60.0284 38.2202 62.0521C38.2202 62.0521 48.515 60.8026 48.8676 60.3503C49.0286 60.151 48.8063 49.7873 48.6683 49.772C48.5303 49.7566 37.7066 50.4542 37.8369 50.4619L37.8446 50.4695ZM28.3164 55.3524C27.9331 52.1329 30.3017 51.5197 31.2139 52.9378C31.5594 53.5422 31.7392 54.227 31.7352 54.9232C32.747 54.8772 33.4446 54.9232 33.4446 54.9232C33.6286 54.9232 33.6362 55.1915 33.6592 55.4061C33.7972 56.7246 33.8202 60.9636 33.8125 60.8256C33.8123 60.8534 33.806 60.8809 33.7941 60.906C33.7822 60.9312 33.7649 60.9534 33.7435 60.9712C33.069 61.4848 27.3122 61.9678 27.3888 61.9601C27.2202 61.9601 27.1282 61.6841 27.0899 61.5232C26.8272 59.6542 26.7017 57.7686 26.7143 55.8814L26.7679 55.82C27.2715 55.6253 27.7892 55.469 28.3164 55.3524ZM33.3066 55.2298C31.1222 55.1172 28.9341 55.3632 26.8293 55.958C26.8676 56.7246 27.0746 60.9636 27.4195 61.6688C28.324 61.5768 32.6244 61.1399 33.4293 60.7566C33.4599 59.8521 33.4216 56.0807 33.3066 55.2298ZM84.8341 54.5399V53.5817C83.1076 53.5809 81.3948 53.2746 79.7749 52.6772C80.2961 54.7775 78.74 54.8465 79.085 57.7517C79.13 58.9058 79.4677 60.0295 80.0662 61.0172C80.986 60.68 82.1052 60.3197 83.0404 60.0284C82.9254 59.1929 81.8446 55.912 83.1017 54.9998C83.6467 54.7434 84.2336 54.5876 84.8341 54.5399ZM30.1331 58.6179C29.9062 58.517 29.7197 58.3429 29.6033 58.1236C29.4869 57.9042 29.4473 57.6522 29.4908 57.4078C29.5343 57.1633 29.6584 56.9404 29.8434 56.7747C30.0283 56.609 30.2634 56.51 30.5112 56.4935C30.759 56.477 31.0051 56.5439 31.2104 56.6836C31.4157 56.8233 31.5683 57.0277 31.6439 57.2642C31.7195 57.5008 31.7137 57.7558 31.6274 57.9886C31.5411 58.2215 31.3794 58.4187 31.1679 58.549C31.2863 59.0521 31.3556 59.5655 31.3749 60.0821C31.3749 60.4347 30.3707 60.4653 30.1024 60.3197C29.8341 60.174 30.0411 59.2312 30.1331 58.6179ZM44.5519 52.7002C44.8845 52.7848 45.1954 52.939 45.4641 53.1524C45.3426 53.2902 45.2746 53.467 45.2725 53.6507C45.2725 54.2716 45.924 54.5706 46.2996 54.1336C46.4761 54.4645 46.5977 54.8217 46.6599 55.1915C46.5105 55.2337 46.3789 55.3235 46.2852 55.4474C46.1915 55.5712 46.1408 55.7222 46.1408 55.8775C46.1408 56.0328 46.1915 56.1839 46.2852 56.3077C46.3789 56.4315 46.5105 56.5214 46.6599 56.5636C46.5902 56.9298 46.4608 57.282 46.2766 57.6061C46.1921 57.5149 46.081 57.4527 45.959 57.4283C45.8371 57.404 45.7106 57.4188 45.5975 57.4707C45.4845 57.5225 45.3908 57.6087 45.3296 57.717C45.2685 57.8253 45.2431 57.9501 45.2571 58.0737C45.2547 58.2545 45.3204 58.4296 45.4411 58.5643C45.1658 58.7666 44.8532 58.9125 44.5212 58.9936C44.5046 58.8476 44.4349 58.7129 44.3253 58.6151C44.2158 58.5173 44.074 58.4632 43.9272 58.4632C43.7803 58.4632 43.6386 58.5173 43.529 58.6151C43.4194 58.7129 43.3497 58.8476 43.3331 58.9936C42.9781 58.8992 42.6466 58.7321 42.3596 58.503C42.8195 57.9127 42.1296 57.0542 41.593 57.5218C41.4281 57.2036 41.3119 56.8625 41.2481 56.5099C41.3759 56.4535 41.4846 56.3612 41.5608 56.2441C41.6371 56.1271 41.6777 55.9904 41.6777 55.8507C41.6777 55.711 41.6371 55.5743 41.5608 55.4572C41.4846 55.3402 41.3759 55.2479 41.2481 55.1915C41.313 54.8489 41.4293 54.5181 41.593 54.2103C42.1526 54.7162 42.8732 53.8423 42.4132 53.2138C42.7044 52.9882 43.0381 52.824 43.3944 52.7308C43.374 52.8198 43.3741 52.9122 43.3949 53.001C43.4157 53.0899 43.4565 53.1728 43.5143 53.2434C43.5721 53.314 43.6453 53.3705 43.7282 53.4085C43.8112 53.4465 43.9017 53.465 43.9929 53.4625C44.0842 53.4601 44.1736 53.4369 44.2544 53.3945C44.3353 53.3522 44.4054 53.292 44.4593 53.2184C44.5133 53.1448 44.5496 53.0598 44.5657 52.97C44.5817 52.8802 44.577 52.7879 44.5519 52.7002ZM92.4689 54.5859L89.4027 54.6779C89.5926 55.6883 89.6723 56.7164 89.6404 57.7441C90.4529 56.6556 91.4648 55.6361 92.4689 54.5859ZM43.9463 55.1455C44.1159 55.1592 44.2731 55.2394 44.3837 55.3687C44.4943 55.498 44.5493 55.6657 44.5366 55.8354C44.5505 55.9219 44.5454 56.0104 44.5218 56.0948C44.4981 56.1792 44.4564 56.2575 44.3996 56.3242C44.3427 56.3909 44.2721 56.4445 44.1925 56.4812C44.1129 56.518 44.0263 56.537 43.9387 56.537C43.851 56.537 43.7644 56.518 43.6848 56.4812C43.6053 56.4445 43.5346 56.3909 43.4777 56.3242C43.4209 56.2575 43.3792 56.1792 43.3556 56.0948C43.3319 56.0104 43.3269 55.9219 43.3408 55.8354C43.3345 55.7502 43.3453 55.6646 43.3725 55.5836C43.3996 55.5026 43.4427 55.4278 43.499 55.3636C43.5554 55.2993 43.624 55.247 43.7008 55.2096C43.7775 55.1721 43.861 55.1503 43.9463 55.1455ZM31.5819 54.9308C31.4209 53.873 30.9456 52.4779 29.8648 52.6312C28.784 52.7845 28.4774 54.2333 28.462 55.3524C29.4901 55.1346 30.5329 54.9937 31.5819 54.9308ZM79.9129 17.1476C79.9129 17.1476 77.3296 18.535 75.3596 22.9734C73.9292 26.4741 73.1774 30.2148 73.1442 33.9964C72.9986 38.772 73.2285 45.1803 75.9728 49.0821C78.0885 52.0793 81.3386 53.1294 84.9721 53.2981C85.0094 53.3 85.0445 53.3163 85.0702 53.3434C85.0958 53.3705 85.1101 53.4064 85.1101 53.4437V54.5092C87.6265 54.2997 90.1541 54.2587 92.6759 54.3866C93.6923 53.3722 94.5969 52.2518 95.3742 51.0444C98.1567 46.3838 88.9198 43.126 85.409 40.9336C84.0982 40.1058 83.554 38.3274 83.554 35.9741C83.508 32.4939 84.5352 27.8256 85.3937 23.7552C85.8383 21.6242 85.5087 20.1908 84.8494 19.2249C84.3742 18.6282 83.7751 18.1416 83.0935 17.7989C82.412 17.4561 81.6642 17.2653 80.9017 17.2396C80.8813 17.2491 80.8591 17.2541 80.8366 17.2541C80.814 17.2541 80.7918 17.2491 80.7714 17.2396C80.4906 17.1705 80.2019 17.1396 79.9129 17.1476ZM9.96517 33.4138C9.96517 33.4138 9.74287 45.6786 9.96517 48.4918C9.96517 48.4918 22.138 48.1929 22.7359 47.9859C23.0425 47.8786 22.7359 33.9887 22.6132 33.958C22.4906 33.9274 9.79653 33.3984 9.96517 33.4138ZM24.1693 33.958C24.1693 33.958 24.016 44.6897 24.2537 48.0855C24.2537 48.0855 35.8669 47.7789 36.4265 47.5643C36.6948 47.273 36.7254 34.7936 36.5721 34.7706C36.4188 34.7476 24.0084 33.9427 24.1463 33.958H24.1693ZM38.0746 34.8856C38.0746 34.8856 37.7909 44.1838 38.0286 47.5643C38.0286 47.5643 48.1164 47.1734 48.7143 47.135C48.9826 47.135 48.7143 35.8284 48.5456 35.8054C48.377 35.7824 37.9136 34.8702 38.0516 34.8856H38.0746ZM14.9477 45.0653C16.0029 45.2008 17.0698 45.2188 18.1289 45.119C18.4585 45.119 18.5505 45.119 18.5505 45.0117C18.5505 45.0026 18.5487 44.9936 18.5453 44.9853C18.5418 44.9769 18.5367 44.9693 18.5303 44.9629C18.5239 44.9565 18.5163 44.9514 18.5079 44.9479C18.4996 44.9445 18.4906 44.9427 18.4815 44.9427C17.3081 44.7976 16.1212 44.7976 14.9477 44.9427C14.9382 44.9498 14.9305 44.9591 14.9252 44.9697C14.9199 44.9804 14.9171 44.9921 14.9171 45.004C14.9171 45.0159 14.9199 45.0277 14.9252 45.0383C14.9305 45.0489 14.9382 45.0582 14.9477 45.0653ZM43.0418 38.6417C42.8732 37.5148 44.3679 37.6221 44.0843 38.6417C44.3818 38.7477 44.6461 38.9301 44.8509 39.1706C45.4871 39.9371 45.1498 40.5044 45.7401 42.0298C46.269 43.4096 46.6063 43.4709 46.5066 43.6779C46.407 43.8849 46.5066 43.7699 44.7742 43.7239C45.0655 43.8312 44.7742 44.3295 44.4599 44.4904C44.2499 44.6301 44.0021 44.702 43.7499 44.6965C43.4977 44.691 43.2533 44.6084 43.0495 44.4598C42.8172 44.2525 42.6428 43.9883 42.5435 43.6932L40.5122 43.6319C40.4742 43.6257 40.4394 43.6073 40.4128 43.5795C40.3863 43.5517 40.3696 43.516 40.3653 43.4778C40.3609 43.4396 40.3692 43.401 40.3888 43.3679C40.4084 43.3349 40.4383 43.3091 40.4739 43.2946C41.0181 43.1643 41.2404 42.2291 41.3937 41.6465C41.7233 40.2437 41.6697 39.0019 43.0418 38.6417ZM14.9477 44.2758C16.003 44.4098 17.0698 44.4278 18.1289 44.3295C18.4585 44.3295 18.5505 44.3294 18.5505 44.2221C18.5505 44.2038 18.5433 44.1863 18.5303 44.1734C18.5174 44.1604 18.4998 44.1531 18.4815 44.1531C17.3083 44.0049 16.121 44.0049 14.9477 44.1531C14.9382 44.1603 14.9305 44.1695 14.9252 44.1802C14.9199 44.1908 14.9171 44.2026 14.9171 44.2145C14.9171 44.2264 14.9199 44.2381 14.9252 44.2487C14.9305 44.2594 14.9382 44.2687 14.9477 44.2758ZM42.8272 43.8925C42.9112 44.023 43.0233 44.133 43.1553 44.2146C43.2873 44.2962 43.4358 44.3473 43.59 44.3642C43.7443 44.3811 43.9004 44.3634 44.0469 44.3122C44.1934 44.2611 44.3266 44.178 44.4369 44.0688C43.7854 44.0228 43.4327 43.9845 42.8272 43.8925ZM29.5659 39.6918C29.5659 39.6918 26.7833 39.1782 26.4997 40.6807C26.216 42.1831 28.3087 42.3901 29.5352 42.1601C29.5352 42.1601 31.0683 44.1838 31.4209 44.0152C31.7735 43.8465 31.6739 38.5113 31.5052 38.1971C31.3366 37.8828 29.6272 39.6305 29.5659 39.6918ZM14.8788 41.5699C14.4246 41.4584 14.0233 41.1925 13.7437 40.8177C13.464 40.443 13.3233 39.9826 13.3457 39.5155C13.3457 37.7831 14.6181 37.1162 16.3352 37.0166C18.4969 36.9092 19.6084 38.0437 19.639 39.6842C19.6333 40.0457 19.537 40.4001 19.3589 40.7148C19.1808 41.0295 18.9266 41.2945 18.6195 41.4855V43.6089C18.6195 43.6516 18.6026 43.6925 18.5724 43.7227C18.5422 43.7529 18.5012 43.7699 18.4585 43.7699L14.9094 43.6932C14.8789 43.6932 14.8497 43.6811 14.8281 43.6595C14.8065 43.638 14.7944 43.6087 14.7944 43.5782L14.8788 41.5699ZM18.3206 43.4479C18.3206 41.2479 18.3206 41.3092 18.3972 41.2479C18.6633 41.0853 18.8864 40.8612 19.0478 40.5944C19.2092 40.3276 19.3042 40.026 19.3247 39.7148C19.3247 38.2737 18.3512 37.2925 16.3812 37.3768C14.8481 37.4458 13.6599 37.9901 13.6216 39.5462C13.5849 39.9751 13.6998 40.4034 13.9464 40.7563C14.1929 41.1093 14.5554 41.3646 14.9707 41.4779C14.9848 41.4828 14.997 41.4923 15.0053 41.5047C15.0136 41.5171 15.0176 41.5319 15.0167 41.5469V43.5169L18.3206 43.4479ZM46.0313 43.4479C45.4957 42.543 45.1708 41.5291 45.0808 40.4814C45.1026 40.063 44.9679 39.6515 44.7029 39.327C44.4379 39.0025 44.0617 38.7882 43.6474 38.726C43.2352 38.728 42.8357 38.8684 42.5129 39.1246C42.2072 39.3958 42.011 39.7692 41.961 40.1748C41.777 41.2556 41.616 42.6737 41.0641 43.2946L46.0313 43.4479ZM33.8585 39.5002C34.0731 39.6934 34.2442 39.93 34.3605 40.1943C34.4768 40.4586 34.5356 40.7445 34.5331 41.0333C34.54 41.332 34.4738 41.6278 34.3402 41.895C34.2066 42.1622 34.0096 42.3927 33.7665 42.5664C33.7513 42.5837 33.7298 42.5942 33.7068 42.5956C33.6838 42.5971 33.6612 42.5893 33.6439 42.5741C33.6266 42.5588 33.6161 42.5373 33.6147 42.5143C33.6132 42.4913 33.621 42.4687 33.6362 42.4514C33.7697 42.2329 33.8753 41.9986 33.9505 41.7538C34.0575 41.3967 34.0882 41.0211 34.0407 40.6513C33.9931 40.2816 33.8684 39.9259 33.6746 39.6075C33.6056 39.4619 33.7589 39.4005 33.8202 39.5002C33.8815 39.5998 33.8662 39.4849 33.8585 39.5002ZM33.092 41.9991C33.0737 42.0134 33.0505 42.0198 33.0275 42.0169C33.0045 42.014 32.9836 42.0021 32.9693 41.9838C32.9551 41.9655 32.9487 41.9423 32.9516 41.9193C32.9545 41.8963 32.9664 41.8754 32.9847 41.8612C33.088 41.726 33.1755 41.5794 33.2453 41.4242C33.4676 40.9643 33.3066 40.6577 33 40.1288C32.9233 39.9984 33.046 39.9525 33.0843 39.9754C33.2902 40.0528 33.4676 40.1911 33.5929 40.3719C33.7181 40.5527 33.7852 40.7674 33.7852 40.9873C33.7852 41.2072 33.7181 41.4219 33.5929 41.6027C33.4676 41.7835 33.2902 41.9218 33.0843 41.9991H33.092ZM32.5554 40.466C32.6268 40.6966 32.6451 40.9403 32.6091 41.1789C32.5966 41.2675 32.5761 41.3547 32.5477 41.4396C32.4634 41.5239 32.5477 41.6465 32.6627 41.5699C32.7672 41.5257 32.8587 41.4557 32.9286 41.3664C32.9984 41.277 33.0444 41.1713 33.062 41.0593C33.0797 40.9473 33.0684 40.8326 33.0294 40.7261C32.9904 40.6196 32.9249 40.5248 32.839 40.4507C32.7907 40.4134 32.7394 40.3801 32.6857 40.3511C32.6684 40.3328 32.6446 40.3221 32.6194 40.3214C32.5943 40.3206 32.5699 40.3299 32.5516 40.3472C32.5333 40.3645 32.5226 40.3883 32.5219 40.4135C32.5211 40.4387 32.5305 40.4631 32.5477 40.4814L32.5554 40.466ZM33.1456 40.0138C33.1421 40.0184 33.1395 40.0236 33.138 40.0291L33.1456 40.0138ZM100.725 39.8605C101.431 39.6646 102.055 39.2465 102.506 38.668C102.956 38.0895 103.207 37.3814 103.224 36.6486C103.328 35.7705 103.193 34.8805 102.833 34.073C102.736 33.8151 102.583 33.5817 102.386 33.3895C102.188 33.1974 101.951 33.0512 101.691 32.9615C99.7205 32.4709 98.6243 34.9086 97.2675 36.3957C97.6662 39.2702 99.0076 39.0019 100.725 39.8605ZM33.8355 39.5998C33.8207 39.6051 33.8044 39.6051 33.7895 39.5998C33.8062 39.6005 33.8226 39.595 33.8355 39.5845V39.5998ZM43.9387 38.6417C43.9108 38.5148 43.853 38.3966 43.77 38.2967C43.7485 38.2696 43.7211 38.2476 43.6899 38.2326C43.6587 38.2175 43.6245 38.2097 43.5899 38.2097C43.5552 38.2097 43.521 38.2175 43.4899 38.2326C43.4587 38.2476 43.4313 38.2696 43.4097 38.2967C43.3248 38.3985 43.2551 38.5121 43.2028 38.634C43.4434 38.5685 43.6968 38.5658 43.9387 38.6263V38.6417ZM80.8634 16.9866C87.9923 15.8751 91.94 17.7915 94.163 20.9267C97.4745 25.6026 96.8919 33.0842 97.2292 35.9434C97.9958 34.9162 98.7623 33.5901 99.8815 32.8772C99.1149 31.2521 100.763 14.526 80.5338 16.657C80.3575 16.772 80.3728 16.6723 80.8634 16.9713V16.9866ZM79.4223 17.1706C76.1108 17.4542 73.2285 20.6661 71.7568 23.6249C69.7944 27.496 69.9324 31.5587 72.5233 34.9009C72.5344 32.2873 72.8352 29.683 73.4202 27.1357C74.3094 23.4793 76.2717 19.2173 79.4223 17.1553V17.1706ZM32.5477 24.3991C32.6716 24.3771 32.7992 24.3937 32.9133 24.4467C33.0274 24.4997 33.1225 24.5865 33.1856 24.6954C33.2487 24.8042 33.2768 24.9298 33.2661 25.0552C33.2553 25.1805 33.2063 25.2996 33.1257 25.3961C33.045 25.4926 32.9366 25.5621 32.8152 25.5949C32.6937 25.6277 32.5651 25.6224 32.4468 25.5797C32.3284 25.537 32.2261 25.4589 32.1537 25.356C32.0812 25.2532 32.0422 25.1305 32.0418 25.0047C32.029 24.8574 32.0751 24.711 32.1699 24.5976C32.2647 24.4841 32.4005 24.4128 32.5477 24.3991Z" fill="black"/>
</svg>
