<svg width="154" height="154" viewBox="0 0 154 154" fill="none" xmlns="http://www.w3.org/2000/svg">
<path d="M130.026 137.112C100.773 142.116 67.615 147.789 36.7314 140.458C31.0768 139.096 23.7863 136.991 17.5452 132.772C10.7369 128.233 6.20897 123.748 4.67591 115.425C3.40117 108.377 4.83381 100.567 8.71092 93.4322C12.5083 86.3219 18.2504 80.254 23.7257 74.367C23.795 74.2925 23.8319 74.1935 23.8283 74.0918C23.8246 73.9901 23.7807 73.894 23.7062 73.8247C23.6317 73.7554 23.5327 73.7185 23.431 73.7222C23.3293 73.7258 23.2332 73.7698 23.1639 73.8443C17.6034 79.7979 11.8836 85.865 8.03561 93.0689C4.07725 100.351 2.61624 108.343 3.92164 115.563C5.50069 124.124 10.3406 128.89 17.119 133.408C30.1784 142.236 53.172 144.731 69.1772 144.731C90.0352 144.731 110.939 141.155 130.156 137.868C130.256 137.851 130.346 137.795 130.405 137.712C130.463 137.629 130.487 137.526 130.47 137.426C130.453 137.325 130.396 137.236 130.314 137.177C130.231 137.119 130.128 137.095 130.027 137.112H130.026Z" fill="black"/>
<path d="M140.706 131.491C112.651 135.707 80.8566 140.484 51.0684 133.452C46.3543 132.333 41.4615 130.867 37.6174 127.742C31.2858 122.576 30.8044 115.464 36.2928 108.232C42.8895 99.6918 51.94 93.496 59.9058 88.3594C59.9866 88.3025 60.0423 88.2165 60.0612 88.1194C60.0802 88.0224 60.0608 87.9217 60.0073 87.8386C59.9537 87.7554 59.8701 87.6962 59.7739 87.6733C59.6777 87.6504 59.5764 87.6655 59.4911 87.7156C51.4716 92.8866 42.3568 99.1261 35.6842 107.766C29.9091 115.375 30.4365 122.872 37.1329 128.337C41.0982 131.557 46.089 133.057 50.8921 134.197C80.31 141.144 111.342 136.678 140.819 132.248C140.916 132.229 141.002 132.173 141.059 132.093C141.116 132.012 141.139 131.913 141.125 131.815C141.11 131.717 141.058 131.629 140.98 131.569C140.902 131.508 140.804 131.48 140.706 131.491Z" fill="black"/>
<path d="M134.186 135.156C115.881 137.986 97.425 139.726 78.9143 140.369C71.1817 140.597 63.4425 140.299 55.7505 139.475C43.7597 138.091 32.0425 133.825 24.4086 128.063C20.4346 125.063 17.7021 120.706 16.7311 115.823C13.6511 100.142 31.0031 84.7054 36.3941 80.3469C36.4702 80.282 36.518 80.19 36.5272 80.0905C36.5364 79.9909 36.5064 79.8917 36.4435 79.814C36.3805 79.7363 36.2898 79.6862 36.1905 79.6745C36.0912 79.6628 35.9912 79.6904 35.912 79.7513C30.4359 84.1765 12.8164 99.8689 15.9822 115.971C16.9893 121.038 19.8237 125.558 23.9464 128.672C31.6884 134.513 43.542 138.835 55.6655 140.234C63.3943 141.06 71.1702 141.36 78.9396 141.133C97.4813 140.49 115.969 138.747 134.304 135.914C134.404 135.899 134.495 135.844 134.555 135.761C134.615 135.679 134.64 135.577 134.624 135.476C134.608 135.376 134.553 135.285 134.471 135.225C134.389 135.165 134.286 135.14 134.186 135.156Z" fill="black"/>
<path d="M7.74961 102.148C7.73999 102.203 7.74254 102.259 7.7571 102.313C7.77166 102.367 7.79787 102.418 7.83388 102.46C7.86989 102.503 7.91484 102.538 7.96557 102.561C8.01629 102.585 8.07157 102.597 8.12751 102.597C9.13166 102.597 7.50432 100.445 13.33 92.2487C17.4214 86.3997 22.0704 80.9612 27.2118 76.0098C27.2849 75.9386 27.3267 75.8414 27.3281 75.7394C27.3295 75.6374 27.2903 75.539 27.2191 75.4659C27.1479 75.3928 27.0507 75.351 26.9487 75.3496C26.8467 75.3483 26.7483 75.3875 26.6752 75.4586C21.5 80.4434 16.8206 85.9186 12.7029 91.8072C10.6364 94.7154 8.43182 98.2169 7.74961 102.148Z" fill="black"/>
<path d="M26.6553 119.572C27.8051 124.448 31.9696 129.113 38.0911 132.373C43.0437 135.01 48.4454 136.31 54.4834 137.623C54.5335 137.637 54.5857 137.64 54.6369 137.632C54.6882 137.625 54.7374 137.607 54.7816 137.58C54.8258 137.553 54.8641 137.518 54.8942 137.475C54.9242 137.433 54.9454 137.385 54.9565 137.335C54.9675 137.284 54.9682 137.232 54.9584 137.181C54.9487 137.13 54.9288 137.082 54.8998 137.039C54.8708 136.996 54.8335 136.959 54.79 136.931C54.7465 136.903 54.6977 136.884 54.6467 136.875C48.6677 135.572 43.3173 134.287 38.4514 131.697C32.5254 128.542 28.4972 124.061 27.4011 119.402C25.0149 109.061 32.6794 96.9866 41.1028 90.8758C41.1453 90.847 41.1815 90.8099 41.2094 90.7668C41.2372 90.7237 41.2561 90.6754 41.265 90.6248C41.2738 90.5743 41.2724 90.5224 41.2608 90.4724C41.2493 90.4224 41.2278 90.3753 41.1976 90.3337C41.1675 90.2922 41.1293 90.2571 41.0854 90.2306C41.0414 90.2041 40.9926 90.1867 40.9418 90.1794C40.891 90.1721 40.8392 90.1751 40.7896 90.1882C40.74 90.2013 40.6935 90.2243 40.6529 90.2557C32.0302 96.506 24.1939 108.909 26.6553 119.572Z" fill="black"/>
<path d="M38.0781 101.014C38.149 101.087 38.2459 101.129 38.3475 101.13C38.4491 101.131 38.5472 101.092 38.62 101.022C48.0178 91.8343 58.8875 84.2854 70.7783 78.6879C70.8601 78.6391 70.9207 78.5616 70.9485 78.4706C70.9762 78.3795 70.9691 78.2813 70.9284 78.1952C70.8878 78.1091 70.8165 78.0412 70.7285 78.0048C70.6406 77.9683 70.5422 77.9659 70.4525 77.9981C58.4841 83.6304 47.5438 91.2279 38.0858 100.475C38.0138 100.546 37.9727 100.642 37.9712 100.743C37.9698 100.844 38.0082 100.941 38.0781 101.014Z" fill="black"/>
<path d="M72.4678 49.6604C76.5396 51.3736 82.4741 42.3523 82.1767 35.6482C81.9812 31.2568 78.9979 29.9675 75.6972 32.9224C70.8174 37.2886 68.2879 47.9004 72.4678 49.6604Z" fill="black"/>
<path d="M149.73 43.1632C149.33 40.1082 148.335 37.1612 146.802 34.4884C145.629 32.4207 144.105 30.5727 142.299 29.0269C142.523 28.7072 142.017 27.7176 141.892 27.4938C140.747 25.461 137.836 23.6481 133.543 21.1446C127.615 17.6508 121.529 13.7093 115.061 11.4986C107.829 9.02579 101.007 8.11362 94.7647 8.792C92.3118 9.09861 85.6369 9.58612 80.5026 13.254C74.0408 17.87 74.9836 17.4316 74.6969 17.4247C70.9409 17.3633 67.2616 18.8443 63.4466 21.9932C60.1007 24.7527 57.5995 27.0209 53.8872 30.655C47.5158 37.0233 45.5588 41.1626 42.5847 49.6105C39.6719 52.8422 36.8066 56.09 33.9888 59.3539C30.3715 63.546 29.7729 69.6323 28.9297 75.0241C28.9184 75.0977 28.9289 75.173 28.9598 75.2409C28.9906 75.3086 29.0406 75.366 29.1036 75.4058C29.1665 75.4457 29.2397 75.4663 29.3142 75.4652C29.3887 75.4641 29.4612 75.4414 29.523 75.3997L35.3149 76.4176C35.6881 76.8329 36.1799 77.1235 36.7238 77.2501C38.5129 77.6333 40.7956 78.4681 42.6107 77.6609C46.5791 78.3838 64.0291 81.328 69.2446 82.3038C69.3225 82.3175 69.4027 82.3071 69.4746 82.2739C69.6992 82.3789 69.0959 82.5805 77.33 78.9778C77.4434 81.975 78.4798 84.0921 79.9944 84.4003C81.1565 84.7549 82.3716 84.9035 83.5849 84.8395C85.7557 84.7444 87.6912 81.8631 88.184 77.9859C88.3558 76.7422 88.34 75.4797 88.1373 74.2407L115.731 62.1441C114.833 66.9456 115.712 70.6863 118.034 71.8936C120.096 72.8885 122.218 73.7525 124.389 74.4806C124.707 74.5445 125.03 74.5782 125.354 74.581C128.992 74.581 133.283 70.5069 135.899 64.4023C137.063 61.8113 137.686 59.0099 137.73 56.1697C138.142 56.4392 138.608 56.6163 139.095 56.6891C139.582 56.7619 140.079 56.7285 140.553 56.5913C143.446 54.859 146.014 51.162 147.804 49.1943C149.799 47.0879 150.065 45.7656 149.73 43.1632ZM102.168 29.5803C104.192 28.4374 105.446 27.6241 107.573 27.1496C112.185 26.5364 117.534 28.744 121.79 30.6251C127.866 33.2635 134.201 36.3158 139.381 40.7548C140.251 41.4434 141.059 42.2089 141.792 43.0421C141.792 43.0528 141.801 43.0628 141.805 43.0728C142.872 45.2091 141.526 47.3508 139.937 49.1475L102.168 29.5803ZM70.1177 38.5487C75.2082 26.4498 84.8665 22.506 85.3364 33.1309C85.3715 36.8735 84.6014 40.5799 83.0782 43.9987C81.109 48.68 76.3618 55.8861 71.7818 55.5925C66.1233 55.2307 67.5314 44.7032 70.1177 38.5472V38.5487ZM34.6856 75.5284L30.1316 74.729C30.7307 74.094 31.3993 73.5284 32.1246 73.0426C32.2442 72.9659 32.3231 72.8778 32.4312 72.3688C32.5362 71.8767 32.6681 70.9891 32.8911 69.3234C33.1984 66.3541 34.1726 63.4927 35.7411 60.9529C36.7544 59.3615 38.3588 57.8507 40.1724 58.3359C40.4185 58.4291 40.6427 58.5721 40.8308 58.756C35.495 58.6954 31.9337 70.4663 34.6856 75.5284ZM46.4733 62.5741C45.5825 63.4093 44.6368 64.184 43.6425 64.8928C43.6325 64.7043 43.5735 64.1639 43.5566 63.973C44.2465 63.3667 45.115 62.6569 46.0862 61.8857C46.172 62.026 46.3997 62.4238 46.4733 62.5748V62.5741ZM74.5597 20.6801C76.5634 18.576 80.5686 15.9514 83.3879 16.5485C84.5139 16.9098 85.4653 17.677 86.0569 18.7009C81.7766 16.8398 75.5118 20.0976 72.5192 23.76C72.254 24.0845 71.9985 24.4167 71.7527 24.7565C72.557 23.3118 73.4969 21.9468 74.5597 20.6801ZM92.0773 34.4677C92.1689 34.9046 92.2378 35.3459 92.2835 35.79C92.2114 35.7539 88.8655 34.1036 87.2359 33.4505C87.622 31.9306 87.74 30.3551 87.5846 28.7946C87.9503 29 88.3082 29.2131 88.6532 29.4301C88.6261 30.3221 88.5429 31.2115 88.404 32.093C88.2492 33.1776 90.0743 33.9043 92.0773 34.4677ZM142.968 44.855C143.211 45.3487 143.329 45.8944 143.312 46.4443C143.296 46.9942 143.145 47.5317 142.873 48.01C141.433 50.5878 139.138 52.6475 136.915 54.6336L136.172 53.1481C138.948 51.6142 142.861 47.915 142.968 44.855ZM145.996 38.4675C132.851 26.1102 115.631 20.2861 103.995 20.766C98.7591 20.9821 92.6031 24.4675 91.4679 25.3399C91.4137 24.7041 91.3319 24.0707 91.2226 23.4396C94.4877 21.1404 98.1289 19.4284 101.982 18.3805C106.235 17.2529 110.714 17.3093 114.937 18.5438C122.774 20.9553 131.759 25.6725 138.4 29.9498C146.304 35.0855 146.818 37.2517 147.476 37.6258C147.992 38.8852 148.393 40.1888 148.674 41.5206C147.91 40.3971 147.01 39.3717 145.996 38.4675ZM146.309 35.179C144.378 33.2647 142.245 31.5653 139.947 30.1107C130.106 23.7003 122.676 20.3873 116.402 18.2157C107.406 15.1013 99.0059 17.2384 91.0647 22.624C90.7615 21.1914 90.3252 19.7903 89.7616 18.4388C93.1343 16.7087 96.1376 15.3972 98.8772 14.2482C100.291 13.6364 101.788 13.2351 103.318 13.057C109.527 12.492 115.259 13.917 122.497 17.8217C127.19 20.2923 131.563 22.887 136.007 25.5537C140.326 28.0549 143.946 30.8704 146.309 35.179ZM45.2361 44.7109C50.0062 39.5996 54.8584 33.9794 59.9428 29.2139C63.7218 25.3984 67.7166 21.8028 71.9075 18.4449C72.5514 18.3145 73.2044 18.2338 73.8607 18.2035C64.4078 25.855 52.0651 39.1428 43.9292 48.1211C44.3531 46.9522 44.7823 45.8154 45.2361 44.7109ZM35.5104 75.4196C34.428 73.7332 34.1881 70.5905 34.8971 67.427C35.9243 62.8447 38.3879 59.4666 40.3656 59.8905C42.1516 60.4017 42.1232 61.9984 42.1232 64.413C42.1231 64.4865 42.1441 64.5584 42.1838 64.6203C42.2234 64.6822 42.28 64.7314 42.3468 64.762C42.4136 64.7926 42.4878 64.8034 42.5606 64.793C42.6333 64.7826 42.7016 64.7516 42.7571 64.7035C42.9058 68.1383 41.7607 72.9759 39.3706 75.4112C37.8 76.9504 36.3206 76.6867 35.5104 75.4196ZM46.6948 61.4082C50.6654 58.2984 62.145 49.9371 62.2768 49.8435C63.9287 48.6746 65.8075 47.3554 66.0267 45.3018C66.7304 38.4675 68.7448 29.5795 73.1118 24.2414C76.1281 20.5559 83.1625 17.0575 86.7798 20.0255C87.9876 22.7014 88.6283 25.5983 88.6616 28.534C87.1121 27.585 85.4509 26.8319 83.7159 26.2919C71.9152 23.0725 61.436 52.6368 70.1269 56.2939C70.1368 56.2985 76.3572 58.5935 77.5469 58.8342C85.6277 60.4539 94.6444 44.3835 92.9005 34.6885C93.6486 34.8686 93.756 34.8134 93.8433 34.7697C93.8433 34.7697 99.104 31.3479 101.375 30.0326L120.874 40.1354L102.652 49.8113L92.4437 45.6215C92.1848 46.6162 91.8016 47.5742 91.3031 48.473L99.4635 51.5038L61.7571 71.5264L48.5215 68.5637C48.4253 69.3039 48.2892 70.0383 48.1137 70.7637L58.9907 72.9951L49.4298 78.0718L43.6157 77.0584C47.3755 74.2001 49.3232 65.641 46.6948 61.4082ZM69.4746 81.5802C69.3979 81.5442 70.4504 81.7335 50.6608 78.2841L60.1727 73.2358L78.8446 77.0385C79.7407 76.6307 80.5555 76.3049 81.4508 75.8979L62.9092 71.7824L100.422 51.8626L119.579 59.0327C120.638 58.5444 121.371 58.2999 122.267 57.8921L103.571 50.1908L121.7 40.5639L139.394 49.7309C138.249 50.9074 136.924 51.8949 135.469 52.6567C71.2583 80.7976 69.552 81.5411 69.4746 81.5802ZM78.0888 78.6413L78.7419 78.3554C78.873 79.4446 79.3843 80.7646 80.4651 80.7646C81.5988 80.7646 82.6988 79.1457 82.9655 77.0592C83.0311 76.868 83.0617 76.6665 83.056 76.4644L84.1628 75.9799C84.1652 76.4805 84.1396 76.9808 84.0862 77.4785C83.7604 80.0311 82.7432 82.2984 81.4961 83.2551C81.1574 83.5481 80.7165 83.6953 80.2696 83.6644C79.0363 83.5341 78.1333 81.4361 78.0888 78.6413ZM116.589 61.7692L118.366 60.9904C117.912 63.6932 118.459 65.7069 119.846 66.3132C122.417 67.3603 125.211 63.6097 126.297 60.8785C126.772 59.6591 127.099 58.3866 127.269 57.0888L130.871 55.5113C130.557 57.6204 129.986 59.6833 129.172 61.6542C126.457 68.0931 121.613 72.5129 118.594 71.3079C116.377 70.3812 115.578 66.5562 116.589 61.7692Z" fill="black"/>
<path d="M37.3475 72.119C39.6195 72.6011 41.6071 67.6493 40.8613 64.4874C40.6107 63.4234 40.0833 62.755 39.3765 62.604C37.0616 62.1142 35.1269 67.115 35.8628 70.2356C36.1142 71.2995 36.64 71.968 37.3475 72.119Z" fill="black"/>
<path d="M140.465 61.1744C139.453 67.762 137.569 72.3044 134.538 75.4694C131.173 78.9847 125.268 81.2069 120.494 78.6551C120.404 78.6072 120.299 78.597 120.202 78.6266C120.105 78.6562 120.023 78.7233 119.975 78.813C119.927 78.9028 119.917 79.0079 119.947 79.1052C119.976 79.2025 120.043 79.2841 120.133 79.332C125.033 81.9504 131.31 79.9506 135.093 75.9999C138.235 72.7153 140.185 68.0417 141.225 61.2909C141.232 61.241 141.23 61.1901 141.218 61.1411C141.206 61.0921 141.185 61.046 141.155 61.0053C141.125 60.9646 141.087 60.9302 141.044 60.904C141.001 60.8779 140.953 60.8605 140.903 60.8528C140.853 60.8452 140.803 60.8474 140.753 60.8594C140.704 60.8715 140.658 60.893 140.618 60.9229C140.577 60.9527 140.543 60.9903 140.516 61.0335C140.49 61.0766 140.473 61.1245 140.465 61.1744Z" fill="black"/>
<path d="M139.092 75.4097C139.006 75.3558 138.902 75.3382 138.803 75.3609C138.704 75.3836 138.618 75.4447 138.564 75.5308C131.742 86.3841 115.178 85.1684 110.157 73.1431C110.139 73.0946 110.111 73.0503 110.076 73.0128C110.04 72.9752 109.997 72.9453 109.95 72.9246C109.903 72.904 109.852 72.8932 109.8 72.8928C109.748 72.8924 109.697 72.9025 109.649 72.9224C109.602 72.9423 109.559 72.9717 109.523 73.0087C109.486 73.0457 109.458 73.0896 109.44 73.1378C109.421 73.1859 109.412 73.2374 109.414 73.289C109.416 73.3406 109.428 73.3914 109.45 73.4382C114.667 85.9372 131.991 87.432 139.214 75.9378C139.241 75.8952 139.259 75.8476 139.267 75.798C139.275 75.7484 139.274 75.6976 139.263 75.6485C139.251 75.5995 139.23 75.5532 139.201 75.5122C139.172 75.4712 139.135 75.4364 139.092 75.4097Z" fill="black"/>
<path d="M90.1126 82.8617C90.015 82.8335 89.9102 82.8452 89.8213 82.8942C89.7323 82.9433 89.6664 83.0256 89.6381 83.1231C89.2466 84.5977 88.4505 85.9334 87.3398 86.9794C86.229 88.0253 84.848 88.7399 83.3526 89.0423C80.2864 89.5137 77.1383 87.4502 76.6186 84.6263C76.6094 84.5767 76.5906 84.5294 76.5632 84.4871C76.5357 84.4448 76.5002 84.4084 76.4587 84.3798C76.4172 84.3512 76.3704 84.3311 76.3211 84.3206C76.2718 84.3101 76.2209 84.3094 76.1713 84.3185C76.1218 84.3277 76.0745 84.3465 76.0322 84.374C75.9899 84.4014 75.9534 84.4369 75.9248 84.4784C75.8962 84.52 75.8761 84.5667 75.8656 84.616C75.8551 84.6653 75.8544 84.7162 75.8636 84.7658C76.4001 87.6733 79.3589 89.8755 82.4787 89.8755C85.817 89.8755 89.2434 87.2532 90.3786 83.3362C90.3925 83.2876 90.3966 83.2367 90.3907 83.1865C90.3848 83.1363 90.3691 83.0877 90.3444 83.0436C90.3196 82.9995 90.2864 82.9607 90.2467 82.9295C90.2069 82.8983 90.1613 82.8753 90.1126 82.8617Z" fill="black"/>
<path d="M85.0641 92.078C83.7681 92.5844 82.3628 92.7454 80.9859 92.5452C79.6089 92.345 78.3077 91.7904 77.2096 90.9359C76.1115 90.0813 75.2543 88.9561 74.722 87.6705C74.1898 86.385 74.0006 84.9831 74.1732 83.6025C74.1817 83.5036 74.1515 83.4053 74.0889 83.3282C74.0263 83.2511 73.9363 83.2014 73.8378 83.1893C73.7392 83.1773 73.6399 83.204 73.5606 83.2638C73.4814 83.3235 73.4284 83.4117 73.4128 83.5097C73.2337 85.0188 73.4472 86.5486 74.0327 87.951C74.6181 89.3534 75.5556 90.5809 76.7545 91.5148C77.9534 92.4486 79.373 93.0572 80.8761 93.2815C82.3791 93.5059 83.9146 93.3385 85.3339 92.7955C85.4291 92.7597 85.5061 92.6876 85.5481 92.595C85.5901 92.5024 85.5935 92.397 85.5578 92.3018C85.522 92.2067 85.4499 92.1297 85.3573 92.0877C85.2647 92.0457 85.1593 92.0422 85.0641 92.078Z" fill="black"/>
</svg>
