<svg width="154" height="154" viewBox="0 0 154 154" fill="none" xmlns="http://www.w3.org/2000/svg">
<path d="M21.2757 99.7529C20.6371 99.8564 19.83 99.969 19.5701 99.969C18.93 99.969 19.2796 99.9575 17.0136 96.4368C15.9888 94.8431 11.7674 88.4371 11.7781 88.2063C11.8578 88.0369 14.0755 87.8729 17.0773 87.2627C16.9631 86.9423 16.9815 86.6602 17.1486 86.418C16.0371 86.6717 15.4001 86.8051 13.0307 87.1232C12.5217 87.1914 11.2822 87.4566 11.2293 87.4773C10.6168 87.715 10.6168 87.8346 10.8422 88.3259C11.404 89.5578 13.5343 92.8087 15.2468 95.4211C18.2578 100.015 16.9792 98.2458 18.2248 100.112C18.8564 101.058 18.9454 101.164 21.8291 100.503C21.6099 100.212 21.4489 99.9897 21.2772 99.7529H21.2757Z" fill="black"/>
<path d="M24.9211 114.872C25.243 114.702 25.2078 114.747 24.8552 114.077C22.9779 114.551 20.643 115.138 17.681 115.88C17.2418 115.991 16.9658 116.181 16.65 115.825C14.8134 113.752 6.58676 101.601 4.72788 98.3646C4.60907 98.1576 4.84363 98.1998 5.46147 97.7567C5.58412 97.6686 5.64621 97.6847 5.72363 97.7997C6.76307 99.3412 13.5739 110.163 16.3104 113.213C16.9038 113.874 18.7481 113.138 22.5126 112.095C24.0925 111.658 25.1419 111.41 25.8824 111.249C25.798 111.079 25.68 110.831 25.5619 110.577C25.0154 110.721 24.327 110.9 23.4455 111.122C21.4172 111.634 18.1985 112.405 17.3606 112.642C16.8095 112.797 16.7458 112.446 16.3281 112.004C15.1054 110.711 8.33909 100.594 7.28662 98.984C4.64816 94.9466 4.66656 94.9289 4.85973 94.8116C5.76732 94.2613 5.86851 94.1179 6.03025 94.3509C7.18621 96.0128 6.62663 95.4019 7.91289 97.283C12.9407 104.639 13.7195 106.881 16.614 109.91C17.2832 110.609 17.0088 110.743 20.4261 109.837C22.7763 109.214 24.813 108.676 26.583 108.212C26.5784 108.189 26.5692 108.163 26.5569 108.13C26.4542 107.858 26.3614 107.605 26.3224 107.376C24.117 107.93 22.0174 108.455 20.4077 108.838C19.4679 109.061 18.7228 109.421 18.19 109.506C17.7332 109.58 17.4557 109.664 16.8838 109.03C15.8505 107.886 15.7164 107.988 12.8234 103.554C12.3321 102.801 11.0795 100.952 10.756 100.394C9.68592 98.5447 9.31951 98.3914 8.09916 96.2313C6.15903 92.7972 6.27018 93.2586 5.63778 91.8114C5.44307 91.3652 5.76809 91.3001 6.40356 91.0249C6.72168 90.8869 6.66879 90.798 6.92251 91.205C9.51268 95.3682 9.11714 94.6867 10.2248 96.7694C10.9139 98.0649 15.6612 105.221 16.4132 106.263C16.6646 106.612 16.9635 106.922 17.3292 107.159C17.793 107.46 17.5507 107.411 22.9603 105.996C24.0189 105.719 24.8429 105.47 25.6654 105.227C25.4546 104.968 25.2714 104.745 25.1081 104.548C25.0177 104.573 24.9288 104.597 24.8406 104.622C22.5172 105.257 19.3973 106.007 17.9118 106.413C17.6603 106.482 17.5178 106.423 17.3851 106.229C10.1037 95.6525 11.5256 97.5574 10.0439 95.0592C7.19924 90.2622 7.27359 90.9015 6.26328 88.5781C6.06168 88.1135 6.38363 88.0461 6.91868 87.8728C7.64 87.6383 7.13791 87.7019 9.89595 91.6887C11.6705 94.2536 12.6816 96.3654 15.0403 100.214C15.7685 101.403 17.3614 103.616 17.6841 104.094C17.9777 104.527 18.3947 104.569 18.8991 104.435C20.6407 103.972 22.2773 103.53 23.8893 103.096C23.7115 102.884 23.5306 102.666 23.3037 102.385C21.6441 102.848 20.1087 103.31 18.7879 103.759C18.1203 103.986 18.0061 103.537 11.6069 93.0271C10.1052 90.5604 8.10299 87.6383 7.4775 86.2156C7.25136 85.7012 8.2816 85.7648 12.2646 85.1386C14.2676 84.8235 16.0904 84.5644 17.8182 84.3298C17.668 84.0638 17.5431 83.8354 17.5047 83.7549C17.4656 83.6721 17.4442 83.594 17.4365 83.5181C12.598 84.1758 8.2724 84.7821 7.23143 85.2114C6.38133 85.5625 6.59596 86.1818 6.88342 86.9392C6.9915 87.2243 6.83743 87.0856 6.04175 87.4367C5.67764 87.5969 5.2798 87.9303 5.46684 88.4378C5.54732 88.6578 6.1391 89.9433 6.29318 90.2208C6.44035 90.4845 6.20886 90.4147 5.59868 90.6217C4.69799 90.9275 4.49945 91.4733 4.86279 92.246C5.49596 93.5936 5.64927 93.4717 5.24837 93.6833C4.24342 94.2145 3.83178 94.3172 4.01192 94.9772C4.17213 95.5652 4.28635 95.7369 5.00154 96.7786C5.25987 97.1558 5.10349 97.0377 4.22502 97.5613C3.96133 97.7184 3.73443 97.9553 3.79576 98.2542C3.87471 98.6375 3.98126 98.8905 4.20126 99.2124C8.717 105.829 7.08196 103.713 9.53108 107.378C10.4379 108.734 10.5023 108.708 12.7713 112.103C14.6041 114.845 13.153 112.701 14.933 115.152C15.9885 116.605 16.3955 117.226 17.4595 116.973C21.49 116.014 21.4617 115.886 22.9917 115.504C23.3167 115.423 23.7943 115.307 24.3408 115.176C24.5056 115.089 24.6996 114.993 24.9226 114.875L24.9211 114.872Z" fill="black"/>
<path d="M42.066 109.794C42.2668 109.59 42.0353 109.475 41.9402 109.094C41.7984 108.527 42.148 108.203 42.4055 108.319C42.9559 108.567 42.7796 109.17 43.123 109.067C43.3699 108.993 43.629 108.908 43.8735 108.914C44.7926 108.934 45.0195 109.692 44.7841 110.056C44.4691 110.545 43.9678 109.915 43.0609 110.416C42.2093 110.887 42.0989 112.099 43.143 111.897C44.2368 111.685 44.824 111.332 45.671 111.407C46.8538 111.511 48.0435 112.762 47.5315 114.417C47.0409 116.001 46.3487 115.752 46.5963 116.272C46.6078 116.296 46.863 116.748 46.9696 117.255C47.0999 117.878 46.5089 118.375 46.1471 117.841C45.4817 116.857 45.6626 116.68 45.2977 116.838C44.6393 117.123 44.0498 117.4 43.2924 117.144C42.7904 116.975 42.6884 116.372 42.8271 116.088C42.9782 115.78 43.1936 115.817 43.4994 115.816C44.9007 115.814 46.446 114.589 46.0796 113.448C45.9025 112.896 45.2257 112.905 44.003 113.242C43.297 113.436 42.4653 113.546 41.8038 113.131C40.9177 112.576 40.9307 110.954 42.066 109.794Z" fill="black"/>
<path d="M88.1078 125.867C87.8303 125.932 87.552 125.998 87.2723 126.059C86.7073 126.182 86.1362 126.276 85.5705 126.395C82.6392 127.012 82.9067 127.152 82.9443 126.673C83.1191 125.723 83.1827 125.397 83.2164 125.154C82.9627 125.052 82.6875 124.941 82.3863 124.826C81.9831 124.67 81.5944 124.48 81.2004 124.3C80.913 126.281 80.6669 127.885 80.6592 127.925C80.614 128.185 80.5212 128.356 80.2507 128.454C79.7992 128.618 79.6382 128.495 79.6719 128.008C79.7064 127.51 79.9755 125.889 80.2668 123.922C80.1855 123.895 80.1042 123.87 80.0215 123.847C79.5861 123.726 79.1721 123.532 78.7413 123.391C78.2722 123.237 75.6728 122.463 73.075 121.46C72.346 121.179 71.6469 120.822 70.934 120.5C70.8045 120.441 70.7033 120.363 70.6228 120.272C70.5592 121.115 70.3798 122.396 69.6125 129.062C69.519 129.876 69.4661 130.289 69.3419 130.332C69.1495 130.401 68.9479 130.457 68.7447 130.479C68.6773 130.487 68.5615 130.395 68.5316 130.322C68.2335 129.603 69.4883 122.33 69.5902 118.83C69.253 118.695 68.7355 118.473 66.6789 117.729C66.7364 117.819 66.7839 117.897 66.8192 117.962C66.2887 118.228 47.4293 121.901 38.4591 124.947C37.7915 125.174 37.6772 124.725 31.2788 114.216C29.7772 111.749 27.7749 108.827 27.1494 107.404C27.0996 107.29 27.1111 107.204 27.2031 107.133C27.0988 107.003 26.9808 106.855 26.8467 106.689C26.7953 106.625 26.7455 106.563 26.6964 106.502C26.0924 106.865 26.2932 107.439 26.5546 108.127C26.6627 108.412 26.5086 108.273 25.7129 108.625C25.3488 108.785 24.951 109.118 25.138 109.625C25.2185 109.845 25.8103 111.131 25.9644 111.409C26.1115 111.672 25.88 111.603 25.2699 111.81C24.3692 112.115 24.1706 112.661 24.534 113.434C25.1671 114.781 25.3212 114.66 24.9195 114.871C23.9146 115.402 23.503 115.505 23.6823 116.165C23.8425 116.753 23.9568 116.925 24.6719 117.966C24.9303 118.344 24.7739 118.226 23.8954 118.749C23.6317 118.906 23.4048 119.143 23.4662 119.442C23.5451 119.825 23.6517 120.078 23.8717 120.4C28.3874 127.016 26.7524 124.901 29.2015 128.566C30.1083 129.922 30.1727 129.896 32.4417 133.291C34.2745 136.033 32.8227 133.889 34.6034 136.34C35.6589 137.793 36.0659 138.414 37.1299 138.16C41.1604 137.202 41.1321 137.074 42.6621 136.692C44.0388 136.348 48.1399 135.389 48.7133 135.243C57.7057 132.94 63.9546 131.794 64.4329 131.665C65.0929 131.485 65.2646 131.301 65.6716 131.753C66.4581 132.625 67.263 132.188 69.926 131.633C70.7608 131.459 71.5618 131.14 72.4173 131.048C72.8665 130.999 73.3065 130.874 73.7541 130.805C74.2417 130.729 76.9323 130.384 79.6581 129.814C80.4231 129.654 81.1705 129.415 81.9256 129.212C82.3142 129.108 82.5104 128.819 82.627 128.463C82.8201 127.876 82.7603 127.912 83.0049 127.876C83.9063 127.743 83.1858 127.751 89.923 126.558C89.0721 126.232 88.4543 126 88.1047 125.866L88.1078 125.867ZM66.1837 128.336L66.1523 128.331C66.0787 128.952 66.0028 129.57 65.9346 130.19C65.9177 130.346 65.4693 130.382 63.8388 130.743C62.4445 131.051 60.1509 131.636 56.8548 132.331C51.1072 133.544 53.2558 133.091 37.3545 137.072C36.9153 137.182 36.6393 137.372 36.3235 137.017C34.4869 134.944 26.2602 122.793 24.4014 119.556C24.2825 119.349 24.5171 119.391 25.1349 118.948C25.2576 118.86 25.3197 118.876 25.3971 118.991C26.4365 120.533 33.2473 131.354 35.9847 134.404C36.578 135.065 38.4223 134.328 42.1868 133.286C45.8969 132.259 46.6834 132.278 47.404 132.007C48.2863 131.674 49.2285 131.581 50.1291 131.325C51.8255 130.843 54.6985 130.178 55.8414 129.975C55.8951 129.966 66.0013 127.795 66.0204 127.792C66.2696 127.743 66.219 127.882 66.1837 128.337V128.336ZM66.4827 125.391C66.2979 127.439 66.6344 126.832 64.8882 127.2C64.3999 127.303 64.8936 127.227 54.6019 129.482C49.985 130.493 51.9926 130.178 47.8386 131.063C47.1104 131.219 46.8168 131.38 43.119 132.312C41.0907 132.823 37.8719 133.595 37.0341 133.831C36.483 133.987 36.4193 133.636 36.0016 133.193C34.7789 131.901 28.0126 121.784 26.9601 120.173C24.3216 116.136 24.34 116.118 24.5332 116.001C25.4408 115.451 25.542 115.307 25.7037 115.54C26.8597 117.202 26.3009 116.591 27.5864 118.472C32.6142 125.828 33.393 128.07 36.2875 131.099C36.9567 131.799 36.6823 131.932 40.0995 131.026C62.1915 125.17 56.5589 126.908 62.3548 125.755C66.8667 124.857 66.5539 124.603 66.4827 125.391ZM66.9004 122.266C66.8238 123.263 66.9418 122.297 66.6705 123.995C66.6237 124.287 66.6643 124.071 63.2984 124.849C62.5778 125.016 58.4944 125.707 57.7631 125.817C54.7682 126.268 45.0744 128.842 40.0811 130.027C39.1421 130.25 38.397 130.609 37.8635 130.695C37.4066 130.769 37.1292 130.853 36.5573 130.219C35.5248 129.075 35.3899 129.176 32.4969 124.743C32.0055 123.99 30.753 122.14 30.4295 121.582C29.3594 119.733 28.993 119.58 27.7726 117.42C25.8325 113.986 25.9437 114.447 25.3113 113C25.1165 112.554 25.4416 112.489 26.077 112.214C26.3952 112.076 26.3423 111.987 26.596 112.394C29.1862 116.557 28.7906 115.875 29.8975 117.958C30.5866 119.254 35.3339 126.408 36.0859 127.452C36.3373 127.801 36.6363 128.111 37.0019 128.348C37.4657 128.648 37.2234 128.599 42.633 127.184C45.8157 126.353 46.8766 125.775 52.1374 124.823C53.4183 124.592 55.068 124.517 61.474 122.867C62.653 122.563 62.6921 122.659 66.2956 121.91C66.9763 121.769 66.9433 121.713 66.9004 122.266ZM67.0683 119.914C66.9801 121.056 67.043 120.946 66.718 121.008C57.2787 122.817 58.1732 123.045 51.9864 124.013C48.4534 124.566 46.2588 125.333 44.5133 125.811C42.1899 126.446 39.0701 127.196 37.5845 127.602C37.3331 127.671 37.1905 127.611 37.0579 127.418C29.7764 116.841 31.1984 118.746 29.7166 116.248C26.8719 111.451 26.9463 112.09 25.936 109.767C25.7344 109.302 26.0563 109.235 26.5914 109.061C27.3127 108.827 26.8106 108.891 29.5687 112.877C31.3432 115.442 32.3535 117.554 34.713 121.403C35.442 122.592 37.0341 124.805 37.3568 125.282C37.6504 125.716 38.0674 125.758 38.5718 125.624C47.2875 123.307 53.3777 121.5 66.8307 118.832C67.2523 118.748 67.1526 118.813 67.0675 119.914L67.0683 119.914Z" fill="black"/>
<path d="M62.782 116.348C56.6749 117.622 43.1988 120.527 41.5278 120.844C40.9452 120.954 39.5945 121.16 39.2442 121.16C38.6041 121.16 38.9537 121.148 36.6878 117.628C35.971 116.513 33.6913 113.046 32.389 110.982L31.9451 111.13C31.7719 111.188 31.6147 111.219 31.4668 111.226C32.3936 112.759 33.7535 114.834 34.9201 116.613C37.9311 121.207 36.6525 119.437 37.8982 121.304C38.6156 122.379 38.6317 122.37 42.8493 121.381C51.7282 119.3 60.5636 117.647 64.417 116.922C63.9234 116.748 63.3806 116.558 62.782 116.348Z" fill="black"/>
<path d="M114.946 72.5503C113.386 72.1057 111.954 72.8684 111.889 73.9117C111.85 74.5295 112.152 75.0838 112.532 75.5498C112.579 75.5652 112.627 75.5797 112.676 75.5951C113.186 75.7576 113.685 75.963 114.197 76.1293C114.536 76.2405 114.884 76.3524 115.24 76.4659C114.9 75.7008 114.314 75.3521 113.613 74.4996C112.937 73.6787 114.056 73.1965 114.875 73.7208C115.748 74.2789 115.434 75.0201 116.013 75.0638C116.446 75.096 117.004 74.5357 116.584 73.7185C116.472 73.5008 116.274 73.313 116.091 73.1321C115.836 72.8792 116.45 72.7466 116.406 72.1448C116.384 71.8627 115.934 71.7102 115.504 72.1057C115.215 72.3717 115.224 72.6293 114.948 72.5511L114.946 72.5503Z" fill="black"/>
<path d="M108.673 68.4362C108.699 68.4454 108.726 68.4546 108.753 68.4638C112.247 69.6612 112.056 69.6121 113.077 69.8566C115.721 70.489 117.844 71.1674 119.346 71.7638C123.032 73.2249 126.08 73.8442 126.146 74.0558C126.132 74.2014 124.095 76.5678 122.291 78.6483C122.619 78.748 122.945 78.8477 123.269 78.9465C125.354 76.5532 127.347 74.1991 127.246 73.8028C127.211 73.6649 127.072 73.566 126.79 73.4096C126.74 73.3812 125.549 72.9481 125.055 72.8109C121.108 71.7109 122.127 71.8504 117.316 70.1778C114.354 69.1476 113.339 69.202 110.22 68.0537C109.631 68.1994 109.12 68.3266 108.673 68.4362Z" fill="black"/>
<path d="M101.881 69.9991C102.001 70.1463 102.112 70.3065 102.213 70.4835C102.263 70.5717 102.308 70.6599 102.346 70.7465C102.739 70.8584 103.018 70.9274 103.193 70.9887C103.237 71.004 103.28 71.0194 103.322 71.0339C103.195 70.5909 102.971 70.1708 102.686 69.7783C102.424 69.8488 102.154 69.9232 101.88 69.9991H101.881Z" fill="black"/>
<path d="M113.323 67.2785C113.299 67.2847 113.276 67.29 113.253 67.2962C117.304 68.4736 121.142 69.4502 126.087 70.9472C129.946 72.1155 130.975 72.1944 130.68 72.6727C129.865 73.9966 127.479 76.6151 125.652 78.8513C125.468 79.0766 125.288 79.2966 125.113 79.5113C125.355 79.5856 125.594 79.6592 125.83 79.7328C126.367 79.0736 126.914 78.432 127.53 77.7612C130.811 74.1928 130.322 74.0602 131.004 74.3913C131.511 74.6366 131.821 74.7485 131.557 75.1801C130.324 77.1986 130.384 76.79 127.566 80.2748C127.789 80.3445 128.006 80.4143 128.22 80.4825C128.667 79.9382 129.337 79.1387 130.543 77.6923C130.85 77.3243 130.785 77.4048 131.081 77.5849C131.672 77.9452 131.986 78.0548 131.731 78.4695C131.071 79.5458 131.05 79.4798 129.844 81.0114C130.133 81.108 130.407 81.2015 130.664 81.2904C130.759 81.1847 130.867 81.0666 130.993 80.9309C131.185 80.7232 131.266 80.8788 132.089 81.5488C132.151 81.5986 132.193 81.6339 132.084 81.8163C132.367 81.9305 132.597 82.034 132.77 82.1245C132.816 82.0355 132.859 81.9405 132.907 81.8293C133.176 81.2 132.782 81.0421 131.86 80.3775C131.492 80.1115 131.627 80.2541 132.439 79.0061C132.905 78.2909 132.784 77.7237 131.934 77.2967C131.359 77.0077 131.12 77.0445 131.302 76.8038C131.493 76.5499 132.255 75.3572 132.366 75.151C132.621 74.675 132.272 74.2894 131.934 74.0809C131.194 73.6233 131.023 73.7398 131.168 73.4722C131.557 72.7617 131.855 72.1783 131.061 71.713C129.655 70.8905 121.502 68.7587 114.844 66.8408C114.341 67.1183 113.73 67.1766 113.322 67.2793L113.323 67.2785Z" fill="black"/>
<path d="M143.82 89.076C143.782 88.9388 143.641 88.8422 143.358 88.6912C143.307 88.6636 142.109 88.2512 141.612 88.1217C137.73 87.1106 138.627 87.2072 134.125 85.7178C134.048 85.8458 133.861 86.1286 133.662 86.4245C134.508 86.6798 135.252 86.932 135.887 87.1719C139.597 88.5701 142.655 89.1374 142.724 89.3482C142.707 89.5789 137.743 95.4277 136.533 96.8856C133.858 100.107 134.203 100.16 133.569 100.083C133.221 100.041 131.904 99.6736 131.34 99.4934C131.252 99.4651 131.131 99.426 130.98 99.3754C130.755 99.6192 130.558 99.833 130.387 100.022C134.032 101.356 134.075 101.333 134.888 100.388C135.251 99.9641 135.411 99.7755 135.968 99.0473C137.796 96.661 144.01 89.7713 143.821 89.0753L143.82 89.076Z" fill="black"/>
<path d="M149.617 97.0045C149.876 96.3706 149.479 96.2196 148.546 95.5703C148.173 95.3112 148.31 95.4508 149.102 94.1898C149.556 93.4669 149.425 92.9012 148.568 92.4888C147.988 92.209 147.749 92.2504 147.927 92.0066C148.113 91.7499 148.856 90.5441 148.963 90.3363C149.209 89.8557 148.855 89.4763 148.513 89.2731C147.765 88.8285 147.595 88.9473 147.737 88.6775C148.113 87.96 148.402 87.3713 147.6 86.9206C146.327 86.2039 139.605 84.5266 133.406 82.8862C133.419 83.14 133.3 83.4136 133.136 83.7126C136.049 84.4684 139.043 85.225 142.613 86.2391C146.491 87.3414 147.521 87.4027 147.234 87.8864C146.441 89.2233 144.101 91.8825 142.312 94.1491C134.69 103.809 134.523 104.242 133.888 103.936C132.451 103.245 130.739 102.502 128.882 101.743C128.72 101.933 128.537 102.144 128.294 102.416C130.04 103.119 131.803 103.835 133.695 104.593C134.18 104.787 134.598 104.796 134.942 104.401C135.32 103.966 137.169 101.961 138.036 100.869C140.843 97.3342 142.101 95.3595 144.172 93.0277C147.391 89.4034 146.9 89.28 147.588 89.5997C148.099 89.8365 148.411 89.9423 148.154 90.3793C146.871 92.5639 147.022 91.9377 143.618 96.356C141.846 98.6572 143.487 96.9386 134.982 106.559C134.827 106.734 134.678 106.777 134.437 106.678C133.011 106.095 130.005 104.974 127.774 104.062C127.545 103.968 127.307 103.868 127.059 103.762C126.829 104.009 126.644 104.202 126.468 104.383C127.4 104.784 128.28 105.18 129.475 105.653C134.675 107.711 134.428 107.73 134.925 107.489C135.317 107.298 135.652 107.025 135.943 106.709C136.815 105.765 142.392 99.2352 143.232 98.0325C144.583 96.0993 144.107 96.7278 147.182 92.9073C147.482 92.534 147.42 92.6153 147.719 92.7908C148.316 93.1411 148.631 93.2454 148.383 93.6639C147.581 95.0246 147.746 94.58 145.406 97.7542C143.933 99.7511 143.552 99.8592 142.265 101.566C141.877 102.081 140.41 103.765 139.832 104.453C136.424 108.505 136.303 108.388 135.139 109.399C134.495 109.958 134.23 109.842 133.786 109.714C133.267 109.564 132.571 109.118 131.665 108.783C130.973 108.528 130.188 108.231 129.343 107.91C129.268 108.135 129.133 108.375 128.984 108.632C128.958 108.677 128.941 108.711 128.936 108.739C129.752 109.064 130.615 109.409 131.526 109.773C134.808 111.085 134.552 110.92 135.301 110.305C138.54 107.649 139.584 105.517 145.463 98.822C146.967 97.1103 146.339 97.6492 147.686 96.1391C147.875 95.9283 147.958 96.0824 148.793 96.7378C148.971 96.8773 148.987 96.8972 145.88 100.587C144.641 102.058 136.703 111.285 135.333 112.42C134.864 112.808 134.759 113.149 134.23 112.928C133.582 112.657 131.436 111.853 129.607 111.156C129.456 111.379 129.302 111.602 129.186 111.764C132.794 113.253 134.535 114.206 135.204 113.622C138.289 110.924 146.357 101.004 147.575 99.5993C147.666 99.4951 147.729 99.4866 147.84 99.5886C148.4 100.103 148.638 100.09 148.495 100.281C146.259 103.27 136.624 114.339 134.552 116.174C134.195 116.489 133.944 116.267 133.521 116.105C132.141 115.575 130.901 115.099 129.784 114.669C129.251 115.388 129.204 115.319 129.51 115.551C129.552 115.583 129.592 115.613 129.632 115.642C130.316 115.941 131.219 116.328 133.611 117.213C134.637 117.593 135.116 117.026 136.339 115.711C138.403 113.493 136.702 115.445 138.853 112.946C141.516 109.85 141.577 109.883 142.641 108.646C145.515 105.304 143.637 107.207 148.918 101.185C149.176 100.891 149.311 100.653 149.436 100.282C149.534 99.9926 149.338 99.7296 149.095 99.5418C148.286 98.9171 148.116 99.0144 148.418 98.6718C149.254 97.7243 149.388 97.5672 149.618 97.003L149.617 97.0045Z" fill="black"/>
<path d="M111.408 109.237C111.364 109.18 111.328 109.125 111.299 109.073C110.817 108.87 110.272 108.644 109.732 108.419C109.717 108.48 109.706 108.543 109.7 108.608C109.632 109.386 110.109 110.075 110.604 110.615C111.461 111.549 111.778 112.147 111.366 112.558C110.518 113.404 108.723 112.587 108.082 111.34C107.942 111.068 107.878 110.859 107.533 110.865C107.218 110.871 106.728 111.237 106.807 111.76C106.924 112.551 107.439 112.95 107.993 113.406C108.3 113.659 108.06 113.579 107.488 114.62C107.177 115.185 107.889 115.484 108.384 115.084C108.787 114.759 109.073 114.325 109.089 114.304C109.439 113.846 109.533 114.577 111.166 114.291C112.872 113.993 113.443 112.364 112.997 111.263C112.678 110.475 112.095 110.113 111.409 109.236L111.408 109.237Z" fill="black"/>
<path d="M65.5036 101.24C65.0222 101.41 64.55 101.607 64.0625 101.757C68.6434 103.255 72.8924 104.593 72.9399 104.553L73.5608 104.017C73.7341 103.866 73.5516 103.857 65.5036 101.24Z" fill="black"/>
<path d="M124.609 108.465C124.566 108.44 123.67 108.088 123.113 107.898C122.862 108.168 122.662 108.382 122.502 108.554C123.385 108.835 123.924 109.007 123.949 109.095C123.922 109.325 118.722 114.966 117.453 116.372C114.648 119.481 114.991 119.548 114.359 119.445C114.013 119.389 112.713 118.968 112.156 118.765C110.085 118.009 89.1403 109.76 89.0529 109.826C88.2603 110.417 88.2519 110.406 88.2802 110.483C88.3101 110.562 99.5623 114.444 110.765 119.081C114.768 120.738 114.782 120.751 115.664 119.805C116.045 119.396 116.212 119.214 116.799 118.51C118.724 116.2 125.216 109.572 125.055 108.869C125.022 108.73 124.886 108.628 124.609 108.465H124.609Z" fill="black"/>
<path d="M129.51 115.553C129.148 115.278 129.28 115.424 130.122 114.196C130.605 113.492 130.498 112.922 129.659 112.474C129.09 112.171 128.851 112.203 129.038 111.966C129.235 111.717 130.026 110.543 130.142 110.339C130.408 109.869 130.07 109.476 129.736 109.259C129.007 108.784 128.833 108.896 128.985 108.632C129.391 107.931 129.703 107.354 128.92 106.871C128.437 106.572 127.137 106.094 125.368 105.511C125.176 105.709 124.954 105.941 124.688 106.221C127.925 107.262 128.802 107.381 128.516 107.821C127.669 109.125 125.221 111.685 123.341 113.877C115.329 123.216 115.143 123.64 114.521 123.309C106.161 118.854 88.1422 112.184 87.6615 111.836C88.2894 111.024 90.6649 108.961 91.0052 108.674C91.1539 108.549 91.2965 108.37 91.4667 108.334C91.6139 108.303 91.7902 108.453 91.9611 108.505C94.1397 109.169 96.8977 109.897 99.5714 108.681C100.106 108.438 100.497 108.041 100.9 107.645C101.015 107.532 101.412 106.737 101.269 105.819C101.207 105.423 101.064 105.042 100.865 104.679C100.396 104.487 99.9424 104.301 99.5032 104.123C99.7332 104.363 99.9394 104.627 100.111 104.947C100.633 105.917 100.446 106.838 100.185 107.16C99.4051 108.126 98.1273 108.343 96.8057 108.489C96.2714 108.548 94.8686 108.559 92.2493 107.791C91.9926 107.716 92.1842 107.728 94.0829 106.152C95.3025 105.14 96.7904 103.864 97.4512 103.302C96.5413 102.941 95.7257 102.623 95.0158 102.35C94.9361 102.419 94.8518 102.49 94.7644 102.564C94.1918 103.053 94.7261 102.519 92.5437 104.448C85.8019 110.406 85.0261 110.76 84.8537 111.805C84.3171 115.043 84.4068 123.066 83.9767 123.758C83.9353 123.825 83.8066 123.896 83.7414 123.877C83.5444 123.822 83.3543 123.735 83.1757 123.637C83.0607 123.573 83.0745 123.158 83.1136 122.34C83.6142 111.837 83.4018 114.616 83.7652 111.602C83.933 110.205 85.0859 109.462 92.0508 103.42C92.6709 102.882 93.2489 102.379 93.8146 101.89C92.6648 101.453 91.9703 101.196 91.8285 101.131C91.2061 100.848 91.0658 100.639 90.5913 101.019C89.6753 101.753 88.9509 101.193 86.4113 100.218C85.6149 99.912 84.8759 99.4697 84.0457 99.2412C83.9116 99.2045 83.7797 99.1608 83.6479 99.1132C81.5069 100.941 78.6017 103.407 74.5121 106.767C74.1465 107.068 73.9541 107.44 73.8813 107.89C73.3087 111.45 73.4612 118.543 73.3554 119.675C73.3102 120.163 73.1316 120.258 72.7123 120.023C72.4609 119.882 72.3972 119.699 72.3942 119.435C72.3934 119.344 72.4716 111.8 72.6579 109.096C72.7292 108.057 72.8932 107.453 72.9154 107.335C73.0488 106.614 73.2312 106.395 74.0093 105.752C74.0277 105.737 77.7907 102.649 77.8091 102.635C80.8469 100.366 79.7155 101.128 82.6245 98.7422C82.2405 98.6219 81.3751 98.3574 80.285 97.9956C76.5918 100.984 72.2608 104.489 71.1202 105.642C70.9799 105.784 70.8848 105.82 70.6963 105.75C67.8133 104.676 64.6352 103.563 61.5927 102.53C60.7817 102.744 60.3156 102.718 59.8182 102.255C59.3736 101.841 59.2179 102.039 58.5763 102.275C58.5296 102.293 58.4246 102.325 58.2651 102.373C63.5367 104.14 69.4851 106.227 70.4487 106.641C70.6871 106.743 70.6173 106.653 70.5567 108.254C70.5767 108.255 70.5744 108.257 70.546 108.546C70.5368 108.639 70.5138 108.703 70.3927 108.662C66.3921 107.335 59.7446 105.049 54.9092 103.378C54.4623 103.514 53.9793 103.663 53.4619 103.824C54.0085 104.015 54.6248 104.231 55.3216 104.471C70.5414 109.714 70.5276 109.437 70.5215 109.771C70.5215 109.787 70.4786 111.1 70.4947 111.1C70.4862 111.196 70.4747 111.293 70.4709 111.39C70.4556 111.8 69.8952 111.236 68.6021 110.815C66.888 110.259 66.5002 109.866 62.8621 108.717C61.6556 108.336 56.7681 106.832 54.867 106.205C53.4152 105.725 51.7533 105.248 50.303 104.826C49.8798 104.963 49.4421 105.105 48.9929 105.253C49.6223 105.463 51.3976 105.99 52.69 106.404C53.4895 106.66 54.2752 106.961 55.0793 107.2C56.0291 107.481 56.9819 107.757 57.911 108.101C59.1168 108.548 64.0809 109.896 64.8544 110.232C66.6282 111.001 67.1479 111.091 70.2057 112.308C70.382 112.378 70.454 112.483 70.4356 112.69C70.2532 114.775 70.4985 114.628 70.0616 114.47C69.9044 114.413 48.9883 107.144 47.338 106.454C46.9217 106.28 47.7879 105.968 48.2885 105.485C47.5495 105.73 46.7791 105.988 45.9804 106.261C45.8125 106.767 46.5645 107.151 47.292 107.394C48.497 107.795 47.9435 107.516 45.893 109.081C45.535 109.354 45.2606 110.009 45.5741 110.336C46.0708 110.854 46.8635 110.982 47.351 111.15C55.0372 113.787 54.683 113.628 55.3476 113.781C56.6715 114.086 58.7182 114.937 60.7273 115.634C70.1282 118.894 69.111 118.699 70.0869 119.01C70.3222 119.085 70.2685 119.039 70.3651 119.649C70.4234 120.018 70.5698 120.335 70.937 120.502C71.6498 120.823 72.3482 121.181 73.0779 121.462C75.6758 122.465 78.2759 123.24 78.7443 123.393C79.1751 123.534 79.589 123.728 80.0244 123.848C80.8538 124.077 81.5928 124.521 82.3885 124.827C84.9265 125.805 85.6509 126.367 86.5677 125.633C87.0422 125.253 87.1824 125.463 87.8049 125.746C88.2556 125.952 94.2378 128.091 102.74 131.816C103.282 132.053 107.176 133.661 108.479 134.223C109.927 134.847 109.878 134.969 113.701 136.565C114.711 136.987 115.212 136.44 116.488 135.176C118.641 133.045 116.863 134.926 119.114 132.516C121.901 129.533 121.961 129.568 123.075 128.376C126.083 125.155 124.129 126.978 129.653 121.178C129.923 120.896 130.069 120.663 130.208 120.298C130.318 120.012 130.131 119.742 129.897 119.544C129.114 118.886 128.941 118.978 129.257 118.647C130.131 117.735 130.271 117.583 130.524 117.029C130.808 116.407 130.418 116.24 129.512 115.553H129.51ZM70.3628 115.629C70.3015 116.398 70.3092 116.126 70.3421 117.83C70.3015 118.309 70.5882 118.214 67.7956 117.131C67.2568 116.922 66.7079 116.737 66.1705 116.525C65.5933 116.297 65.0261 116.046 64.4504 115.82C61.1343 114.517 54.3059 112.5 49.3555 110.7C48.6465 110.443 47.7818 110.231 46.9539 109.919C46.5852 109.779 46.7822 109.546 47.0329 109.384C47.1563 109.305 48.7752 108.286 49.0757 108.156C49.1907 108.106 49.2942 108.101 49.4268 108.139C51.8261 108.812 63.5443 113.165 70.1965 115.376C70.3237 115.419 70.3735 115.499 70.3636 115.629L70.3628 115.629ZM81.5077 111.12C80.4 110.76 78.745 110.12 75.1668 108.586C74.6954 108.385 74.9391 107.692 75.5853 107.881C77.2349 108.362 82.055 110.204 82.7656 110.59C83.1151 110.779 82.7487 111.525 81.5084 111.121L81.5077 111.12ZM87.102 113.723C87.1962 112.622 87.1081 112.542 87.5105 112.693C100.356 117.498 106.074 120.265 114.301 123.959C114.777 124.173 115.196 124.199 115.556 123.819C115.951 123.401 117.88 121.473 118.791 120.417C121.741 117 123.079 115.079 125.245 112.834C128.611 109.345 128.125 109.202 128.799 109.549C129.3 109.807 129.606 109.925 129.333 110.351C127.961 112.48 128.137 111.862 124.556 116.136C122.69 118.363 124.401 116.712 115.507 125.975C115.345 126.143 115.195 126.179 114.958 126.07C113.557 125.43 110.6 124.186 108.409 123.184C106.764 122.431 104.722 121.319 101.325 120.203C95.3753 118.249 96.2952 118.168 87.2714 114.858C86.9609 114.745 87.0046 114.863 87.102 113.721V113.723ZM86.8873 116.071C86.9349 115.518 86.8927 115.568 87.542 115.818C90.9776 117.139 91.0313 117.051 92.1459 117.541C98.2016 120.203 99.8175 120.544 101.044 120.98C106.082 122.768 107.035 123.509 110.043 124.845C115.153 127.115 114.906 127.124 115.412 126.903C115.812 126.728 116.157 126.47 116.461 126.166C117.371 125.259 123.211 118.964 124.101 117.797C125.531 115.921 125.029 116.529 128.258 112.839C128.574 112.478 128.507 112.557 128.799 112.745C129.382 113.119 129.692 113.237 129.428 113.645C128.57 114.971 128.754 114.534 126.285 117.609C124.732 119.543 124.346 119.636 122.99 121.288C122.581 121.786 121.046 123.409 120.44 124.073C116.869 127.981 116.753 127.859 115.549 128.822C114.882 129.354 114.622 129.227 114.183 129.081C113.671 128.911 112.993 128.435 112.102 128.064C107.366 126.088 98.2146 121.982 95.3324 121.053C94.6287 120.827 90.7101 119.486 90.0264 119.205C86.8298 117.892 86.8352 118.113 86.836 117.817C86.8421 116.096 86.803 117.069 86.8881 116.073L86.8873 116.071ZM129.266 120.258C126.909 123.152 116.828 133.816 114.681 135.564C114.312 135.865 114.07 135.632 113.654 135.452C98.6048 128.955 100.652 129.749 95.176 127.624C92.0355 126.406 89.8661 125.459 88.54 124.929C86.99 124.311 86.5523 124.202 86.5616 124.045C86.5945 123.423 86.6198 122.8 86.6474 122.176H86.6152C86.6543 121.72 86.6267 121.575 86.8643 121.664C86.8827 121.671 96.5052 125.445 96.5574 125.463C97.652 125.848 100.38 126.967 101.977 127.718C102.825 128.116 103.739 128.36 104.556 128.83C105.224 129.214 106.003 129.323 109.498 130.936C113.045 132.572 114.747 133.597 115.439 133.041C118.632 130.472 127.102 120.892 128.376 119.539C128.471 119.438 128.535 119.432 128.641 119.539C129.179 120.076 129.417 120.072 129.267 120.257L129.266 120.258ZM126.641 120.455C125.343 121.874 117.032 130.766 115.616 131.844C115.132 132.212 115.013 132.549 114.494 132.306C113.704 131.938 110.653 130.657 108.734 129.824C105.235 128.307 104.972 128.1 104.278 127.829C100.322 126.284 102.253 126.92 97.859 125.176C88.0663 121.29 88.5415 121.444 88.0763 121.263C86.4128 120.618 86.6466 121.272 86.7946 119.221C86.8521 118.431 86.5018 118.631 90.8098 120.246C96.3427 122.321 91.0658 119.695 111.921 129.042C115.147 130.488 114.898 130.312 115.672 129.729C119.017 127.208 120.148 125.121 126.298 118.674C127.871 117.025 127.221 117.538 128.63 116.084C128.827 115.881 128.904 116.038 129.711 116.728C129.883 116.874 129.898 116.895 126.642 120.453L126.641 120.455Z" fill="black"/>
<path d="M34.3813 82.4413C34.5629 82.2198 34.323 82.1255 34.1942 81.7545C34.0034 81.2026 34.323 80.8492 34.5898 80.9427C35.1593 81.1412 35.0367 81.7576 35.3701 81.6249C35.6093 81.5299 35.8599 81.4226 36.1045 81.4065C37.0213 81.3467 37.3141 82.0818 37.111 82.4658C36.8404 82.9802 36.2854 82.3961 35.4253 82.9741C34.6181 83.5175 34.6143 84.7348 35.6361 84.4428C36.707 84.1369 37.2612 83.733 38.1113 83.7337C39.2987 83.7345 40.5934 84.8766 40.227 86.57C39.8767 88.1904 39.1653 88.0026 39.4574 88.4986C39.4712 88.5224 39.7647 88.9501 39.915 89.446C40.099 90.0547 39.5539 90.602 39.1469 90.1007C38.398 89.1785 38.5628 88.9869 38.2132 89.1755C37.5824 89.5173 37.0197 89.8447 36.2417 89.6553C35.7266 89.5304 35.5725 88.9394 35.6859 88.6442C35.8093 88.3231 36.027 88.3414 36.3321 88.3146C37.728 88.1897 39.1599 86.8352 38.6962 85.7306C38.4708 85.1955 37.7978 85.2638 36.6096 85.706C35.9236 85.9613 35.1049 86.143 34.4096 85.7881C33.4783 85.3128 33.351 83.6954 34.3813 82.4413Z" fill="black"/>
<path d="M74.9539 95.9041C74.7439 95.809 74.6059 95.6649 74.5155 95.4894C74.4564 96.4598 74.4143 97.106 74.412 97.1321C74.389 97.3942 74.3123 97.5728 74.0509 97.6947C73.6155 97.8979 73.4446 97.789 73.4354 97.2992C73.4277 96.8929 73.5105 95.7278 73.6056 94.2345C73.0575 94.0153 72.0303 93.5661 64.7389 91.0472C64.4077 90.933 64.0758 90.8142 63.7454 90.6946C63.7385 91.5899 63.6672 93.2786 63.5063 99.2286C63.484 100.047 63.4672 100.463 63.3476 100.517C63.1621 100.602 62.9659 100.675 62.7658 100.716C62.6999 100.73 62.5764 100.648 62.5396 100.578C62.2185 99.9614 62.673 94.0368 62.6301 90.2853C61.7355 89.9556 60.8893 89.6452 60.1664 89.4229C60.181 89.5831 60.1664 89.8667 60.1718 90.3374C60.1833 91.4834 60.2362 91.3684 59.918 91.4581C50.6727 94.085 51.5834 94.2338 45.5054 95.7385C42.0344 96.5978 39.9149 97.5537 38.2186 98.1823C35.9588 99.0186 32.9171 100.037 31.4721 100.572C31.2276 100.663 31.0804 100.615 30.9317 100.435C22.7542 90.5344 24.3371 92.3074 22.643 89.948C19.3906 85.4184 19.5201 86.0485 18.3105 83.8225C18.069 83.3771 18.3841 83.2821 18.9023 83.0628C19.6006 82.7662 19.1054 82.8735 22.2015 86.6035C24.1938 89.0036 25.385 91.0196 28.071 94.6477C28.9011 95.7684 30.6803 97.8342 31.0436 98.2811C31.374 98.6874 31.7933 98.6928 32.2839 98.5149C40.7466 95.4518 46.6491 93.1223 59.7609 89.3041C59.6206 89.265 59.4857 89.2305 59.3577 89.2014C59.0626 89.1339 58.9683 89.1278 58.2807 88.9108C53.6607 90.365 39.4136 94.6362 32.1137 97.8511C31.4683 98.1355 31.3158 97.6978 24.0228 87.7878C22.3111 85.4621 20.0613 82.7255 19.3139 81.3626C19.0433 80.869 20.0751 80.8429 23.9883 79.8717C28.4941 78.7525 32.0862 78.009 35.7464 77.165C35.5103 76.8576 35.3233 76.61 35.1669 76.3984C28.4696 77.9607 20.4085 79.6432 18.9804 80.3845C18.1641 80.8084 18.4324 81.4063 18.7842 82.1361C18.9168 82.4105 18.7512 82.2855 17.9893 82.7056C17.6405 82.8972 17.2733 83.2637 17.5033 83.7527C17.603 83.9643 18.3043 85.1946 18.4822 85.4568C18.6516 85.7074 18.4155 85.6576 17.826 85.9175C16.9552 86.3015 16.8057 86.8618 17.235 87.6C17.9839 88.8871 18.1257 88.7514 17.7448 88.9982C16.7896 89.6153 16.3887 89.7533 16.6256 90.3956C16.8364 90.9667 16.9652 91.1285 17.7685 92.1035C18.0591 92.4561 17.8927 92.3534 17.0633 92.9506C16.8142 93.1299 16.6087 93.386 16.6969 93.6788C16.8088 94.0536 16.9368 94.2966 17.1844 94.5986C22.2605 100.795 20.4469 98.8308 23.2072 102.267C24.229 103.539 24.2911 103.509 26.8483 106.692C28.9134 109.263 27.2806 107.254 29.2675 109.54C30.4465 110.896 30.9057 111.479 31.9436 111.133C35.8744 109.826 35.8353 109.701 37.3263 109.187C38.6677 108.724 42.6691 107.412 43.228 107.215C51.9843 104.135 58.1098 102.448 58.5743 102.277C59.2159 102.041 59.3715 101.843 59.8161 102.256C60.6762 103.057 61.4397 102.551 64.0436 101.764C64.86 101.518 65.6304 101.132 66.4744 100.965C66.9182 100.877 67.3452 100.715 67.7844 100.606C68.2635 100.488 70.9142 99.9085 73.5795 99.1037C74.3277 98.8775 75.0513 98.574 75.7856 98.3057C76.1635 98.1677 76.3337 97.8626 76.4188 97.4985C76.5606 96.896 76.5039 96.9389 76.7437 96.8814C76.838 96.8592 76.9139 96.84 76.9829 96.8209C76.2939 96.548 75.6293 96.2115 74.9524 95.9064L74.9539 95.9041ZM59.9403 100.674C59.9372 100.831 59.4934 100.906 57.9013 101.407C56.5391 101.836 54.3054 102.618 51.0828 103.599C45.4632 105.309 47.5643 104.67 32.0716 110.025C31.6439 110.173 31.3848 110.387 31.0398 110.06C29.0292 108.156 19.7723 96.7703 17.6375 93.7071C17.501 93.5117 17.7386 93.5331 18.3151 93.0372C18.4293 92.9391 18.4922 92.9498 18.5795 93.0563C19.7493 94.5021 27.48 104.687 30.4726 107.487C31.1211 108.094 32.8941 107.198 36.5536 105.831C40.1602 104.483 40.9452 104.433 41.6397 104.1C42.4898 103.692 43.4204 103.517 44.295 103.183C45.9431 102.555 48.7471 101.642 49.8678 101.339C49.9207 101.324 59.7985 98.2804 59.8169 98.2742C60.0606 98.2037 60.0223 98.3463 60.0269 98.8032C60.0269 98.8032 59.9548 100.048 59.941 100.672L59.9403 100.674ZM58.6371 97.7867C58.1596 97.9316 58.6448 97.8135 48.5892 100.958C44.0781 102.369 46.0504 101.879 41.99 103.124C41.2779 103.343 40.9996 103.53 37.3976 104.781C35.4222 105.468 32.2832 106.518 31.4683 106.826C30.9333 107.029 30.839 106.684 30.3836 106.281C29.0521 105.1 21.4288 95.6128 20.2391 94.1004C17.258 90.309 17.2741 90.2899 17.4565 90.1557C18.312 89.5287 18.4009 89.3769 18.5826 89.5946C19.8788 91.1492 19.2687 90.5896 20.7144 92.3511C26.3654 99.2393 27.3374 101.406 30.4856 104.169C31.2131 104.808 30.9517 104.965 34.277 103.764C55.7725 95.9999 50.3139 98.2244 55.9864 96.5687C60.4025 95.2793 60.0691 95.0532 60.0668 95.845C60.0622 97.9017 60.3443 97.267 58.6371 97.7867ZM60.1327 94.4392C60.112 94.7343 60.1327 94.5143 56.848 95.5844C56.1451 95.8136 52.1376 96.8584 51.4185 97.0324C48.4742 97.743 39.0426 101.154 34.1719 102.771C33.2551 103.074 32.5445 103.498 32.021 103.63C31.5726 103.743 31.3035 103.852 30.6788 103.27C29.5496 102.22 29.4247 102.333 26.1554 98.1692C25.5996 97.4617 24.1907 95.7293 23.8197 95.2011C22.5917 93.4534 22.2138 93.3323 20.8094 91.2871C18.5772 88.0354 18.7275 88.4854 17.9717 87.0987C17.7386 86.6717 18.0568 86.5775 18.6654 86.2478C18.9705 86.083 18.9099 85.9987 19.1981 86.3828C22.1425 90.3037 21.6887 89.659 22.9734 91.6367C23.7729 92.867 29.1273 99.5804 29.9674 100.553C30.248 100.878 30.5737 101.162 30.9586 101.367C31.4468 101.625 31.2008 101.597 36.467 99.7154C39.5654 98.6085 40.5719 97.9416 45.7292 96.5334C46.9848 96.1908 48.6214 95.9715 54.8596 93.7692C56.0079 93.3637 56.0546 93.4549 59.5792 92.3948C60.2454 92.194 60.2078 92.1411 60.2132 92.6961C60.2239 93.6964 60.2576 92.7229 60.135 94.4392H60.1327Z" fill="black"/>
<path d="M54.2502 87.5655C47.8465 89.5102 36.3337 93.0654 34.8098 93.4955C34.2387 93.6565 32.9118 93.9792 32.5622 94.0098C31.9245 94.065 32.2717 94.0236 29.7068 90.7144C28.5463 89.2166 23.7822 83.2038 23.7722 82.973C23.8489 82.7645 26.9243 82.3008 30.6788 81.0275C32.2096 80.5078 34.3636 79.9375 37.0366 79.4393C37.219 79.4055 37.3624 79.3787 37.4958 79.3519C37.2681 79.0767 37.0826 78.8536 36.8718 78.5938C35.6369 78.8528 34.5583 79.0292 32.7861 79.5466C27.8978 80.9731 28.9227 80.8857 24.9243 81.7841C24.4238 81.896 23.2119 82.2686 23.1605 82.2947C22.8723 82.4365 22.7274 82.5284 22.6852 82.6641C22.4721 83.3533 28.4505 90.4477 30.1982 92.8945C30.731 93.6404 30.8835 93.8351 31.233 94.2697C32.0418 95.2785 32.0571 95.267 36.1727 93.914C43.7638 91.4181 51.3504 89.2503 55.6523 88.0399C55.2399 87.9004 54.7753 87.7433 54.2495 87.5639L54.2502 87.5655Z" fill="black"/>
<path d="M116.793 82.6776C117.067 82.7627 117.064 82.5044 117.359 82.2453C117.798 81.8597 118.246 82.023 118.26 82.3051C118.292 82.9076 117.674 83.0264 117.923 83.2847C118.102 83.4702 118.295 83.6619 118.402 83.8827C118.804 84.709 118.234 85.2571 117.801 85.2149C117.223 85.1582 117.554 84.4238 116.694 83.8459C115.886 83.3031 114.758 83.7592 115.414 84.5955C116.102 85.4717 116.684 85.8328 117.005 86.6208C117.453 87.7208 116.883 89.3505 115.177 89.6509C113.544 89.9384 113.449 89.2086 113.1 89.6663C113.083 89.6877 112.798 90.1216 112.396 90.4474C111.901 90.8475 111.189 90.5493 111.5 89.9836C112.071 88.9419 112.311 89.0224 112.004 88.7702C111.45 88.3148 110.934 87.917 110.815 87.1259C110.737 86.6016 111.226 86.236 111.541 86.2298C111.885 86.2229 111.949 86.4322 112.09 86.7036C112.732 87.9492 114.527 88.764 115.375 87.917C115.786 87.5069 115.469 86.909 114.611 85.9753C114.115 85.4364 113.638 84.7466 113.705 83.9685C113.794 82.9268 115.243 82.197 116.793 82.6776Z" fill="black"/>
<path d="M75.3076 78.5258C74.157 78.8731 73.6066 78.9398 73.0164 78.3787C72.5841 77.9678 72.4238 78.1525 71.8037 78.3764C74.722 79.3092 76.9059 79.983 76.9397 79.9547L77.5598 79.4173C77.6733 79.3184 77.6349 79.2809 75.3076 78.5258Z" fill="black"/>
<path d="M129.061 84.2124C129.029 84.0736 128.891 83.9717 128.614 83.8092C128.565 83.7801 127.384 83.3194 126.892 83.1706C122.971 81.9802 123.987 82.1435 119.217 80.3605C116.19 79.229 115.203 79.2965 111.885 77.9596C110.572 77.4307 105.221 75.5623 104.839 75.3715C104.81 75.3569 104.776 75.3623 104.753 75.3837C104.125 75.9602 104.061 75.9778 104.077 76.0545C104.098 76.1426 104.094 76.0154 110.694 78.4495C114.161 79.7273 113.971 79.6729 114.985 79.9412C117.615 80.6341 119.721 81.3616 121.209 81.9925C124.86 83.5386 127.893 84.227 127.954 84.4401C127.927 84.67 122.734 90.3157 121.466 91.7238C118.664 94.8352 119.008 94.9027 118.376 94.8C118.03 94.744 116.73 94.3247 116.172 94.1223C114.1 93.3688 93.1464 85.1437 93.059 85.2097C92.2794 85.7923 92.258 85.7907 92.2871 85.8674C92.317 85.9463 103.573 89.8159 114.782 94.4405C118.786 96.0924 118.801 96.1054 119.681 95.1587C120.062 94.7501 120.228 94.5677 120.814 93.8632C122.737 91.5513 129.221 84.9161 129.059 84.2132L129.061 84.2124Z" fill="black"/>
<path d="M134.536 92.3661C134.82 91.7437 134.43 91.5766 133.523 90.8905C133.161 90.6169 133.292 90.7617 134.134 89.533C134.616 88.8285 134.508 88.2582 133.668 87.8113C133.099 87.5085 132.86 87.5407 133.047 87.3038C133.244 87.0547 134.034 85.8803 134.149 85.6757C134.415 85.205 134.075 84.8125 133.742 84.5956C133.012 84.1211 132.838 84.233 132.99 83.9693C133.395 83.2679 133.706 82.6915 132.924 82.2086C131.346 81.2358 121.074 78.3689 114.196 76.1274C113.685 75.961 113.186 75.7556 112.675 75.5931C108.485 74.2631 108.291 74.3796 108.308 73.9389C108.357 72.6817 106.485 72.1444 103.194 70.9877C102.85 70.8665 102.109 70.7171 100.881 70.2725C100.462 70.3867 100.037 70.5009 99.6148 70.6082C89.9769 73.0589 90.9666 72.9554 90.0015 73.1762C89.7608 73.2306 89.8175 73.1892 89.6695 73.7886C89.5791 74.1527 89.4074 74.4555 89.0264 74.5897C88.289 74.8511 87.5608 75.1477 86.8111 75.3662C86.7191 75.393 86.6271 75.4198 86.5351 75.4459C84.5268 77.1585 81.9358 79.3478 78.5147 82.1656C78.1498 82.4669 77.9574 82.8387 77.8854 83.2894C77.3166 86.8493 77.4768 93.9421 77.3733 95.0751C77.3281 95.5626 77.1503 95.6585 76.7302 95.4239C76.4787 95.2828 76.4151 95.0996 76.4112 94.8359C76.4105 94.7447 76.4802 87.2011 76.6635 84.4959C76.734 83.4565 76.8973 82.8532 76.9188 82.7352C77.0514 82.0139 77.2338 81.7954 78.0103 81.1515C78.0287 81.1362 81.7879 78.0431 81.8063 78.0301C83.4536 76.7967 83.8737 76.4578 84.3781 76.0239C82.6909 76.4478 81.331 76.7316 80.9999 76.8098C80.5591 76.9132 80.1298 77.0719 79.686 77.1555C79.6707 77.1585 79.6561 77.1616 79.6415 77.1647C77.5527 78.8817 75.7888 80.3688 75.1204 81.0449C74.9801 81.1868 74.885 81.2236 74.6964 81.1538C72.9165 80.493 71.0231 79.8169 69.1198 79.1546C68.6775 79.2834 68.1731 79.4321 67.602 79.6023C70.9764 80.7636 73.8103 81.7709 74.4496 82.0453C74.688 82.1472 74.6183 82.0568 74.56 83.6581C74.5799 83.6596 74.5776 83.6612 74.55 83.9502C74.5408 84.0437 74.5178 84.1073 74.3967 84.0667C71.7399 83.1882 67.9171 81.8897 64.2315 80.6279C63.7754 80.769 63.2948 80.9185 62.7889 81.0771C74.5439 85.0762 74.5324 84.8693 74.527 85.1751C74.527 85.1912 74.4857 86.5035 74.5017 86.5035C74.4933 86.6001 74.4818 86.6967 74.478 86.7941C74.4634 87.2034 73.9023 86.64 72.6084 86.2215C70.8944 85.6665 70.5057 85.2748 66.8661 84.1295C65.8474 83.8091 62.204 82.6907 59.9496 81.974C59.4827 82.1227 58.9998 82.2776 58.5008 82.4385C58.694 82.5022 58.8871 82.5627 59.0826 82.6202C60.0323 82.9008 60.9852 83.1752 61.9158 83.5186C63.1223 83.9647 68.0873 85.307 68.8615 85.6419C70.6368 86.4085 71.1565 86.4982 74.2151 87.7116C74.3921 87.7814 74.4634 87.8872 74.4458 88.0941C74.2656 90.1791 74.5109 90.032 74.0732 89.8733C73.9552 89.8304 62.1128 85.7301 55.5312 83.4021C55.1165 83.5378 54.6918 83.6765 54.2579 83.8191C57.827 84.9727 68.1325 88.7664 74.2105 90.7801C74.3377 90.8223 74.3875 90.902 74.3776 91.0323C74.317 91.8019 74.3239 91.5298 74.3592 93.2339C74.3193 93.7129 74.606 93.6171 71.8119 92.5378C71.273 92.3293 70.7242 92.1454 70.1861 91.933C69.6089 91.7061 69.0408 91.4555 68.4652 91.2301C65.1475 89.9308 58.3168 87.9209 53.3649 86.1272C52.6551 85.8704 51.7912 85.6596 50.9625 85.3476C50.6781 85.2403 50.7303 85.0778 50.8828 84.9344C50.741 84.9819 50.5984 85.0295 50.4551 85.077C50.0396 85.2157 49.7429 85.3254 49.4463 85.4388C49.4547 85.563 49.4961 85.6772 49.582 85.7669C50.0787 86.2843 50.8721 86.4116 51.3596 86.5787C59.0489 89.2079 58.6947 89.0493 59.3593 89.201C60.6831 89.5046 62.7314 90.3532 64.7413 91.0477C74.1461 94.2971 73.1289 94.1024 74.1047 94.4128C74.34 94.4879 74.2863 94.4412 74.3837 95.0521C74.442 95.4208 74.5891 95.7382 74.9563 95.9037C75.6692 96.2249 76.3691 96.5814 77.0981 96.8619C79.6975 97.8615 82.2976 98.6334 82.7668 98.7867C83.1976 98.9278 83.6115 99.121 84.0469 99.2405C84.8763 99.469 85.616 99.9113 86.4125 100.217C88.9521 101.192 89.6764 101.753 90.5925 101.018C91.067 100.638 91.2072 100.847 91.8297 101.13C92.2804 101.335 98.2656 103.467 106.771 107.183C107.314 107.42 111.208 109.022 112.512 109.584C113.961 110.206 113.912 110.328 117.737 111.92C118.746 112.341 119.248 111.794 120.522 110.528C122.673 108.395 120.896 110.277 123.145 107.865C125.929 104.879 125.989 104.913 127.101 103.72C130.106 100.495 128.153 102.321 133.671 96.5155C133.94 96.2326 134.086 96.0003 134.225 95.6347C134.334 95.3495 134.149 95.0789 133.913 94.8819C133.13 94.225 132.957 94.3162 133.272 93.9858C134.145 93.0729 134.286 92.9211 134.538 92.3669L134.536 92.3661ZM133.438 88.9803C132.582 90.3072 132.765 89.8702 130.3 92.9487C128.749 94.885 128.363 94.9778 127.01 96.6312C126.601 97.1302 125.068 98.7546 124.462 99.4192C120.896 103.332 120.779 103.21 119.576 104.173C118.91 104.707 118.65 104.58 118.211 104.434C117.698 104.264 117.021 103.789 116.129 103.419C111.391 101.449 102.235 97.3533 99.3511 96.4281C98.6466 96.2019 94.7272 94.8651 94.0427 94.5853C90.8454 93.2768 90.85 93.4975 90.8508 93.2017C90.8546 91.4808 90.8171 92.4535 90.9006 91.4578C90.9474 90.9051 90.9052 90.9549 91.5553 91.204C94.9925 92.521 95.0454 92.4328 96.1607 92.9219C102.22 95.5772 103.836 95.9168 105.063 96.3506C110.103 98.1336 111.058 98.8734 114.066 100.205C119.179 102.469 118.932 102.478 119.438 102.257C119.837 102.081 120.182 101.823 120.486 101.519C121.395 100.61 127.228 94.3093 128.116 93.1403C129.543 91.2623 129.043 91.8717 132.268 88.1777C132.583 87.8166 132.517 87.8956 132.809 88.0826C133.391 88.4559 133.702 88.5732 133.438 88.9818V88.9803ZM133.34 85.6887C131.97 87.8197 132.146 87.2011 128.569 91.4792C126.706 93.7076 128.415 92.0557 119.531 101.328C119.37 101.496 119.219 101.533 118.982 101.424C117.58 100.785 114.622 99.5449 112.43 98.5453C110.784 97.7941 108.741 96.6841 105.342 95.5726C99.3909 93.6248 100.311 93.5435 91.2831 90.2443C90.9727 90.1309 91.0171 90.2489 91.113 89.1075C91.2057 88.0068 91.1176 87.927 91.52 88.0773C104.37 92.8674 110.093 95.6286 118.324 99.3134C118.8 99.5265 119.219 99.5525 119.577 99.1715C119.973 98.7522 121.899 96.8228 122.809 95.7665C125.755 92.3462 127.091 90.4229 129.254 88.1762C132.616 84.6838 132.13 84.5404 132.805 84.8877C133.305 85.1445 133.614 85.2633 133.34 85.6887ZM106.875 74.4854C114.798 77.5134 119.907 78.6855 127.968 81.3301C131.799 82.5872 132.826 82.6892 132.52 83.1614C131.674 84.4661 129.23 87.0286 127.352 89.2225C119.35 98.5698 119.166 98.9952 118.543 98.6641C110.178 94.2189 92.1516 87.5683 91.671 87.221C92.298 86.4085 94.6713 84.3426 95.0109 84.056C95.1596 83.9302 95.3014 83.7516 95.4716 83.7156C95.6187 83.6842 95.7951 83.8344 95.966 83.8858C98.1453 84.5473 100.904 85.2732 103.576 84.0529C104.111 83.8091 104.502 83.412 104.903 83.0157C105.018 82.9023 105.414 82.1074 105.27 81.1898C105.056 79.8246 103.873 78.6387 102.787 77.7695C102.651 77.6606 102.581 77.6721 102.92 77.3908C106.516 74.4203 106.436 74.3175 106.875 74.4854ZM98.084 81.5302C99.5649 80.2983 101.441 78.6755 101.749 78.421C101.916 78.2831 102.134 78.3061 102.302 78.4479C103.004 79.0442 103.671 79.5019 104.111 80.3183C104.634 81.2879 104.448 82.2093 104.188 82.5321C103.409 83.4979 102.131 83.7171 100.81 83.8643C100.276 83.9241 98.8735 83.9364 96.2527 83.1714C95.9959 83.0962 96.1875 83.1077 98.084 81.5302ZM85.5156 86.512C84.4072 86.1525 82.7522 85.5147 79.1716 83.9847C78.7002 83.7831 78.9432 83.0901 79.5894 83.2787C81.2398 83.7578 86.0614 85.5952 86.7728 85.9792C87.1223 86.1678 86.7567 86.9144 85.5156 86.512ZM88.8608 87.1927C88.3281 90.4313 88.4262 98.4541 87.9977 99.1463C87.9563 99.2129 87.8275 99.285 87.7624 99.2666C87.5654 99.2114 87.3753 99.1248 87.1967 99.0267C87.0817 98.963 87.0955 98.5476 87.133 97.7297C87.6213 87.2264 87.4128 90.0059 87.7723 86.9911C87.9387 85.5937 89.0908 84.8493 96.0488 78.7997C98.3477 76.8013 100.079 75.2604 102.679 73.3072C103.33 72.8182 103.713 72.0838 104.298 72.5261C104.352 72.5667 104.423 72.5798 104.485 72.6097C105.106 72.9132 104.362 73.3379 103.863 73.7296C100.18 76.6218 101.836 75.311 98.7616 77.9412C98.189 78.431 98.7233 77.896 96.5432 79.8277C89.8083 85.793 89.0333 86.1479 88.8616 87.1927H88.8608ZM133.285 95.5956C130.931 98.4924 120.861 109.167 118.716 110.918C118.348 111.219 118.105 110.986 117.69 110.808C102.633 104.327 104.681 105.119 99.2024 103C96.0603 101.785 93.8902 100.841 92.5633 100.313C91.0125 99.6959 90.5748 99.5886 90.5833 99.4314C90.6155 98.809 90.64 98.1858 90.6668 97.5618H90.6346C90.673 97.1057 90.6454 96.9608 90.883 97.0497C90.9014 97.0566 100.528 100.819 100.58 100.837C101.675 101.221 104.404 102.338 106.002 103.086C106.849 103.483 107.765 103.726 108.583 104.196C109.25 104.58 110.03 104.688 113.527 106.297C117.075 107.929 118.779 108.952 119.469 108.395C122.66 105.823 131.118 96.2334 132.391 94.8781C132.486 94.7777 132.55 94.7716 132.656 94.8781C133.194 95.4147 133.433 95.4109 133.282 95.5964L133.285 95.5956ZM130.661 95.7957C129.364 97.2169 121.063 106.118 119.649 107.197C119.165 107.566 119.046 107.903 118.527 107.661C117.738 107.294 114.684 106.015 112.764 105.186C109.264 103.674 109 103.467 108.306 103.196C104.348 101.656 106.279 102.289 101.884 100.55C92.0872 96.6741 92.5625 96.829 92.0964 96.6488C90.4323 96.0057 90.6668 96.6588 90.8125 94.6075C90.8684 93.818 90.5189 94.0188 94.8292 95.6293C100.364 97.6975 95.0845 95.0782 115.951 104.402C119.178 105.844 118.929 105.668 119.701 105.085C123.044 102.56 124.173 100.472 130.315 94.0173C131.887 92.3669 131.236 92.8805 132.644 91.4248C132.841 91.2209 132.918 91.3788 133.725 92.0672C133.898 92.2136 133.913 92.2335 130.661 95.7957Z" fill="black"/>
<path d="M48.2835 61.0733C50.4483 60.6395 50.7204 60.5398 51.283 60.5544C52.8652 60.595 54.3262 61.9395 53.3259 63.6306C52.6965 64.6953 52.0511 64.565 52.3493 64.9007C52.4398 65.0027 52.6544 65.3714 52.7034 65.5101C52.9196 66.1264 52.2542 66.6232 51.779 66.0712C51.2501 65.4572 51.293 65.228 51.0462 65.3384C50.4306 65.6129 49.6242 65.8827 48.9696 65.7041C48.0551 65.4549 48.0313 64.808 48.5288 64.5075C49.2149 64.092 49.6648 64.371 50.8645 63.7409C51.2401 63.5439 51.8173 63.2749 52.0281 62.7391C52.1301 62.48 52.0526 62.3159 51.7928 62.2117C51.6694 62.1618 51.5222 62.1174 51.3957 62.135C49.4832 62.3972 48.7028 62.7329 47.3445 62.3857C45.7301 61.9733 45.691 60.083 47.0524 58.9132C47.1958 58.7898 47.1222 58.7645 46.7933 58.1152C46.4377 57.4123 47.4395 56.7676 47.9953 57.9964C48.1977 58.4441 48.1693 57.9359 49.4824 58.0332C50.2873 58.093 50.7058 58.7392 50.4306 59.1815C50.0412 59.8085 49.3214 58.8404 48.1034 59.7342C47.9079 59.8775 47.7423 60.0776 47.6013 60.2784C47.3606 60.6203 47.5246 60.963 47.9455 61.0281C48.0543 61.045 48.1678 61.0312 48.2774 61.0312L48.2843 61.0726L48.2835 61.0733Z" fill="black"/>
<path d="M90.4449 47.7111C90.6649 47.4888 90.3399 47.3822 90.1329 46.9897C89.8163 46.3903 90.2165 46.0277 90.589 46.145C91.3655 46.3895 91.2521 47.0288 91.676 46.9062C91.978 46.8188 92.2923 46.7192 92.6027 46.7146C94.145 46.6908 94.2884 48.0599 93.4091 48.0231C93.3394 48.02 93.262 48.033 93.2022 48.0077C92.8151 47.8483 92.4647 47.9993 92.1252 48.1465C91.5893 48.3787 91.2751 48.7505 91.1539 49.1599C91.0267 49.5868 91.6614 49.7693 92.1351 49.6619C93.4068 49.3753 94.0998 49.0188 95.0779 49.0242C96.3987 49.0318 97.7409 50.0261 97.3201 51.4365C96.933 52.7335 96.2116 52.6247 96.5052 52.9941C96.5183 53.011 96.8057 53.323 96.946 53.6856C97.1146 54.1225 96.5742 54.5602 96.1794 54.2244C95.4236 53.5813 95.593 53.4226 95.2328 53.5897C94.5781 53.8941 94.2293 54.2367 93.1462 54.0972C92.5767 54.0244 92.372 53.5767 92.4831 53.333C92.8879 52.4499 94.6479 52.7657 95.7586 51.3384C95.9119 51.1414 96.0116 50.916 95.8736 50.6876C95.396 49.8957 92.917 51.6688 90.7806 50.9398C89.5572 50.522 89.2077 48.9598 90.4449 47.7111Z" fill="black"/>
<path d="M72.5424 62.9994L72.035 62.492C72.0158 62.4728 71.9867 62.4644 71.9599 62.4721C63.7486 64.7441 61.997 65.0768 52.895 67.9284C51.657 68.3162 47.1689 69.7505 45.8458 69.8539C45.208 69.9038 45.5576 69.87 43.0234 66.5294C39.5133 61.9018 39.3025 61.8043 37.1861 58.7627C37.0266 58.5327 40.0369 58.1825 44.0965 56.8533C45.612 56.3565 47.8158 55.7946 50.4696 55.3317C53.0928 54.8702 61.1469 52.3382 61.5984 52.2577C61.672 52.2454 61.685 52.1443 61.6168 52.1137C61.4252 52.0232 61.3677 51.7519 61.0948 51.5526C60.9813 51.469 60.4555 51.8331 56.5698 52.8396C52.5477 53.8852 52.9548 53.9825 49.5513 54.6387C44.4438 55.6214 43.6887 56.4116 38.3282 57.5592C37.8131 57.6696 36.6027 58.0314 36.5613 58.0506C35.9634 58.3258 35.9788 58.4546 36.2394 58.9268C37.2367 60.7328 42.207 66.902 43.3146 68.4742C43.7861 69.148 43.9884 69.4507 44.5074 70.1092C45.6534 71.5626 45.1352 70.9309 57.8063 67.2583C63.2672 65.6762 72.5348 63.1772 72.5616 63.0737C72.5677 63.0477 72.5608 63.0201 72.5417 63.001L72.5424 62.9994Z" fill="black"/>
<path d="M113.842 60.9301C114.225 60.7944 114.77 60.6902 115.252 60.461C115.782 60.2096 115.511 59.5825 115.152 59.2974C114.455 58.7439 113.908 58.5462 113.238 58.0724C113.356 58.0326 113.472 57.9927 113.589 57.9536C113.614 57.9452 113.646 57.9521 113.671 57.9437C113.97 57.8425 114.28 57.7597 114.567 57.6294C115.098 57.3887 115.215 56.7961 114.795 56.4059C114.265 55.9115 114.069 55.877 113.445 55.5283C113.368 55.4853 113.364 55.401 113.468 55.3711C113.522 55.3558 113.58 55.3673 113.634 55.3527C114.049 55.2377 114.493 55.2155 114.799 54.82C115.128 54.3961 115.107 54.012 114.629 53.6732C105.678 47.3147 106.218 48.1824 102.672 45.5087C100.186 43.6337 100.581 43.8192 98.9691 42.7644C98.1681 42.2401 96.9362 41.5594 96.7339 41.4092C95.7558 40.6817 94.146 40.8841 86.0068 42.8518C81.685 43.8959 79.9319 44.2975 75.6324 45.4657C75.0245 45.6306 74.701 44.9468 73.7781 44.9046C70.9304 45.3324 70.9104 45.4366 68.909 45.941C68.0175 46.1656 67.1145 46.3457 66.2383 46.6186C64.4231 47.1828 63.4005 47.2878 62.9713 47.3998C59.5961 48.2805 57.6851 48.6554 57.6276 49.9117C57.6077 50.351 57.426 50.2191 53.1372 51.1934C52.6144 51.3122 52.1008 51.4755 51.578 51.5974C44.5327 53.2447 34.0585 55.25 32.4059 56.0878C31.5864 56.5033 31.8463 57.105 32.192 57.8371C32.3223 58.1131 32.1583 57.9873 31.3909 58.3982C31.0391 58.5868 30.6681 58.9494 30.8935 59.44C30.9916 59.6538 31.6799 60.8903 31.8547 61.154C32.0218 61.4062 31.7857 61.354 31.1939 61.6078C30.3193 61.9834 30.1645 62.5429 30.5861 63.2834C31.3227 64.5774 31.4661 64.444 31.082 64.687C30.1223 65.2949 29.7183 65.4282 29.9483 66.0729C30.1537 66.6455 30.2802 66.8111 31.0736 67.7938C31.361 68.1495 31.1955 68.0437 30.3592 68.6332C30.1085 68.8103 29.9 69.0655 29.9851 69.3576C30.0947 69.7332 30.2189 69.9769 30.4642 70.2805C35.4928 76.5156 33.6829 74.5471 36.4072 78.0111C37.4153 79.2928 37.4766 79.2652 40.0016 82.4732C42.0406 85.0641 40.4286 83.0389 42.3917 85.3462C43.5553 86.713 44.0091 87.3009 45.0509 86.9667C48.9955 85.7011 48.9557 85.5746 50.4527 85.0756C66.0597 79.873 71.2262 78.5783 71.7728 78.3852C72.4175 78.1567 72.5761 77.959 73.0146 78.3767C73.8662 79.1862 74.6343 78.6887 77.2459 77.9275C78.0638 77.6891 78.8388 77.312 79.685 77.1525C80.1289 77.0698 80.5581 76.9111 80.9989 76.8068C81.4795 76.6941 84.1356 76.1446 86.8101 75.365C87.5598 75.1466 88.288 74.8499 89.0255 74.5885C89.4064 74.4536 89.5781 74.1516 89.6686 73.7875C89.8173 73.188 89.7606 73.2294 90.0005 73.175C90.9656 72.955 89.976 73.0577 99.6138 70.6078C101.675 70.0835 103.787 69.4097 105.132 69.2188C105.807 69.123 105.44 69.251 113.322 67.2756C113.821 67.1507 114.624 67.0901 115.162 66.6164C115.501 66.3174 115.284 65.6398 114.952 65.3393C113.039 63.6077 112.466 63.8369 113.701 63.5395C114.583 63.3279 115.515 62.9209 114.942 62.2187C114.654 61.8661 113.574 61.1103 113.574 61.0405C113.575 60.8956 113.747 60.96 113.841 60.9271L113.842 60.9301ZM113.608 56.777C113.698 56.849 113.708 56.8873 113.603 56.9525C113.28 57.1526 112.922 57.253 112.561 57.3465C112.439 57.3787 97.5533 61.1678 90.5693 62.8488C90.4436 62.8787 90.4259 62.8135 90.4252 62.72C90.4229 62.428 90.4183 62.428 90.4405 62.428C90.5172 60.8274 90.439 60.9125 90.6858 60.8305C92.4995 60.2272 111.307 55.4884 111.859 55.7437C112.477 56.0296 113.073 56.3508 113.607 56.777H113.608ZM37.416 55.6371C45.6687 53.677 50.8529 52.9204 59.0082 50.584C59.2328 50.5196 59.3248 50.5242 59.6874 50.8446C60.6456 51.6917 61.8636 52.9879 62.6509 53.7483C63.0318 54.1155 62.9621 54.0894 62.8095 54.1929C61.6566 54.971 60.3757 56.051 60.0484 57.3933C59.7334 58.6849 60.3389 59.7374 61.4972 60.3897C64.1272 61.8722 67.0478 61.2958 69.096 60.8642C69.27 60.8274 69.4586 60.6933 69.6019 60.7354C69.7989 60.7937 72.5217 63.6736 73.092 64.5521C72.5846 64.8572 54.0647 69.9769 45.3544 73.7016C44.7051 73.9791 44.5587 73.5414 37.3685 63.5556C35.6813 61.2115 33.4606 58.4526 32.7263 57.082C32.461 56.5861 33.4928 56.57 37.4153 55.6379L37.416 55.6371ZM63.1966 54.6835C63.3752 54.5563 63.3936 54.5586 63.5485 54.7103C63.8352 54.9894 65.809 56.9801 67.1812 58.3331C68.9373 60.0639 69.1305 60.067 68.8668 60.1206C66.1908 60.6634 64.7941 60.5331 64.2675 60.4296C61.7157 59.9282 59.8522 58.7983 61.2741 56.6206C61.7816 55.8441 62.4439 55.2193 63.1951 54.6843L63.1966 54.6835ZM31.6953 59.5266C31.4592 59.0797 31.775 58.9869 32.2962 58.7723C32.9969 58.4833 32.5017 58.5845 35.5579 62.3459C37.5249 64.7667 38.6946 66.7965 41.3454 70.4507C42.164 71.5798 43.921 73.6641 44.2797 74.1148C44.6055 74.5234 45.0256 74.5333 45.5185 74.3616C54.0333 71.3897 59.9595 69.0931 73.1687 65.4106C73.5826 65.2949 73.4906 65.3708 73.4906 66.4738C73.4906 67.6206 73.5405 67.5056 73.2216 67.5922C63.9494 70.1195 64.8601 70.2836 58.7652 71.7254C55.2866 72.5487 53.1564 73.4824 51.4539 74.0926C49.1856 74.9059 46.1348 75.897 44.6829 76.4129C44.4376 76.5003 44.2904 76.4512 44.1433 76.2688C36.0776 66.2745 37.633 68.0728 35.9642 65.6973C32.7569 61.1333 32.8765 61.7672 31.6937 59.5258L31.6953 59.5266ZM73.2545 74.9388L73.2216 74.9373C73.2101 75.5605 73.1694 76.1829 73.1495 76.8053C73.1442 76.964 72.7019 77.0314 71.1051 77.5167C69.7361 77.9321 67.4962 78.691 64.2644 79.6385C58.6272 81.2904 60.7329 80.6664 45.1873 85.8698C44.758 86.0139 44.4974 86.2239 44.1555 85.8935C42.1656 83.9687 33.0237 72.4897 30.9233 69.4043C30.7892 69.2073 31.0268 69.2288 31.6079 68.7413C31.7229 68.6447 31.7865 68.6562 31.8716 68.765C33.0183 70.2268 40.6516 80.4855 43.6151 83.3164C44.256 83.9289 46.0389 83.0527 49.7115 81.7235C53.3304 80.4134 54.1169 80.3721 54.8144 80.0463C55.6691 79.6469 56.5989 79.4813 57.4789 79.1563C59.1332 78.5446 61.9449 77.6554 63.0694 77.3695C63.123 77.3557 73.0315 74.4137 73.0499 74.4084C73.2959 74.3394 73.2545 74.4835 73.2545 74.9388ZM71.8824 73.9071C71.4018 74.0473 71.8878 73.9323 61.8 76.9732C57.2743 78.3376 59.2504 77.867 55.1793 79.0712C54.4649 79.2828 54.1843 79.4668 50.5708 80.681C48.5877 81.3471 45.4372 82.3666 44.6216 82.6656C44.0842 82.8626 43.9938 82.5176 43.5431 82.1098C42.2238 80.9155 34.6971 71.3498 33.5243 69.8252C30.5822 66.0032 30.5999 65.984 30.7831 65.8521C31.6454 65.2335 31.7359 65.0848 31.9145 65.3033C33.1954 66.8724 32.5906 66.3052 34.0179 68.0813C39.5984 75.0262 40.5435 77.2062 43.6665 79.9987C44.3748 80.6319 44.0934 80.8098 47.4609 79.6316C68.9979 72.0965 63.4795 74.2773 69.2439 72.6606C73.6738 71.4181 73.3442 71.1904 73.3335 71.9815C73.3059 74.0381 73.5956 73.4065 71.8824 73.9071ZM73.4101 70.5687C73.3871 70.8623 73.4086 70.6484 70.1117 71.6841C69.4057 71.9064 65.389 72.909 64.6684 73.0761C61.7172 73.7606 52.2511 77.0736 47.3628 78.6366C46.4429 78.9309 45.7285 79.3479 45.2026 79.4729C44.7534 79.5794 44.4836 79.686 43.8635 79.0988C42.7435 78.0371 42.6178 78.1491 39.393 73.9507C38.8456 73.2379 37.4536 71.4901 37.0895 70.9589C35.8814 69.1974 35.5035 69.0747 34.1199 67.0142C31.9214 63.7403 32.0655 64.1918 31.325 62.7959C31.0981 62.3674 31.4147 62.2762 32.0279 61.9527C32.3346 61.791 32.2763 61.7074 32.5584 62.093C35.4552 66.0476 35.0152 65.3953 36.2792 67.3845C37.0665 68.6232 42.3503 75.3896 43.1805 76.3723C43.458 76.7003 43.7799 76.9862 44.1632 77.1955C44.6492 77.4592 44.4031 77.4285 49.6885 75.6011C52.7984 74.5264 53.8118 73.8703 58.9829 72.515C60.2431 72.1846 61.8812 71.983 68.1424 69.8443C69.2945 69.4511 69.3413 69.5431 72.8751 68.519C73.5428 68.3258 73.5044 68.2721 73.5044 68.8264C73.5044 69.8259 73.5458 68.8532 73.4101 70.5687ZM76.7369 75.3942C76.7055 76.2136 76.6832 76.6283 76.5653 76.6811C76.3782 76.7647 76.1812 76.8337 75.9812 76.8728C75.916 76.8858 75.7926 76.8045 75.7573 76.734C75.3924 76.0059 76.1582 68.0215 75.8991 64.7498C75.8156 63.6951 75.0697 63.2735 68.8576 56.767C66.8462 54.6597 67.3337 55.2362 66.8048 54.7004C63.9617 51.8197 65.5032 53.2677 62.0759 50.0765C61.6122 49.645 60.9062 49.1613 61.5501 48.9083C61.6137 48.8838 61.6873 48.8754 61.744 48.8401C62.3657 48.4499 62.6838 49.2119 63.2932 49.7546C65.7209 51.917 67.3161 53.5973 69.4394 55.782C75.8654 62.3935 76.9508 63.2305 76.9998 64.6379C77.1048 67.6727 77.1393 64.8871 76.7377 75.3934L76.7369 75.3942ZM85.7845 62.3252C82.0897 63.5525 80.2523 63.8208 79.1193 64.086C77.8438 64.385 78.0278 63.5686 78.3926 63.4092C79.1324 63.0864 83.7784 61.9688 85.4602 61.6239C86.3157 61.4483 86.0857 62.2248 85.7837 62.3252H85.7845ZM88.2804 63.0849C88.2413 65.4574 87.6687 73.3206 87.661 73.4096C87.6372 73.6717 87.5575 73.8496 87.2953 73.9691C86.8576 74.1684 86.6882 74.0573 86.6844 73.5682C86.676 72.5694 87.4441 65.567 87.1635 61.7818C87.1298 61.328 86.9688 60.9401 86.6308 60.6097C76.497 50.6913 74.2572 47.9233 72.3101 46.6692C71.6693 46.2568 72.6559 45.7662 73.2147 46.1319C73.8823 46.5688 73.8294 46.44 77.3793 49.9516C77.9097 50.4759 78.0669 50.7979 78.8081 51.5154C82.0368 54.6421 80.7513 53.5398 83.6972 56.2112C83.714 56.2266 87.2026 59.6232 87.2195 59.64C87.9347 60.3537 88.1002 60.5798 88.1723 61.3096C88.1846 61.4299 88.2965 62.0439 88.2796 63.0857L88.2804 63.0849ZM83.5262 53.2639C82.3634 52.1669 77.5379 47.3844 76.7269 46.6999C76.2632 46.309 76.1467 46.2354 76.3537 46.1794C92.4213 41.83 93.036 42.3244 94.7776 41.843C95.0666 41.7633 95.883 41.8108 96.2747 42.06C102.759 46.1717 99.8622 44.6409 106.17 49.0172C113.728 54.2611 113.199 53.7552 113.756 54.2251C113.736 54.2305 100.443 57.1257 90.5156 59.919C90.3217 59.9735 90.2305 59.929 90.1032 59.7749C88.7978 58.2043 83.6205 53.3528 83.5262 53.2639ZM113.784 65.5501C114.021 65.7303 114.197 65.9809 113.818 66.0875C112.966 66.3289 112.087 66.4669 111.359 66.6632C106.275 68.0368 99.2972 69.4626 95.8845 70.4821C95.2935 70.6584 94.7056 70.86 94.1115 71.0386C93.5573 71.2042 92.9947 71.3422 92.4404 71.5039C89.5659 72.3433 89.8411 72.4636 89.8411 71.983C90.0197 70.2889 90.0059 70.5595 90.0082 69.7876C90.0082 69.4695 89.9698 69.6481 95.0406 68.3404C100.132 67.0273 109.586 64.4662 111.501 64.1059C111.636 64.0799 111.739 64.096 111.85 64.1542C111.9 64.1803 111.955 64.1972 111.999 64.2294C113.065 65.012 113.547 65.3692 113.783 65.5494L113.784 65.5501ZM113.731 62.6089C112.028 63.1554 90.567 68.6217 90.4068 68.6654C89.9576 68.7873 90.1845 68.9536 90.1845 66.8609C90.1845 66.6524 90.2611 66.5543 90.4451 66.4983C93.5949 65.5486 94.1207 65.5003 95.9543 64.8848C96.7538 64.6157 101.815 63.6935 103.054 63.3509C104.011 63.0864 104.98 62.894 105.952 62.6932C106.773 62.523 107.583 62.2908 108.401 62.1037C109.827 61.7779 111.82 61.3694 112.31 61.239C112.479 61.1938 112.622 61.2076 112.713 61.3579C113.09 61.9857 114.214 62.454 113.731 62.6089ZM106.251 61.7158C104.304 62.1788 99.3049 63.265 98.0707 63.5418C94.3484 64.3788 93.9275 64.7353 92.1729 65.1462C90.8491 65.4566 90.2443 65.9694 90.2619 65.5601C90.2749 65.2496 90.3501 63.9519 90.3501 63.9427C90.3585 63.6085 90.3363 63.8821 105.946 59.9497C112.288 58.3522 112.191 58.1935 112.407 58.4825C112.651 58.8098 113.033 58.9279 113.35 59.1433C114.437 59.8823 114.296 59.7128 114.423 59.9045C113.346 60.3284 109.345 60.9784 106.251 61.7158Z" fill="black"/>
<path d="M109.084 53.023C108.886 52.6075 108.776 52.7056 106.873 51.3787C104.632 49.8142 98.6167 45.3429 96.2113 43.9125C95.4187 43.4411 95.3742 43.4005 94.0542 43.6381C88.7259 44.5971 82.5583 45.845 77.381 47.4302C77.3319 47.4456 77.3105 47.5046 77.3404 47.5468C77.7811 48.1723 77.7704 48.206 77.8478 48.1776C78.6665 47.8695 79.1839 47.7499 80.8228 47.2846C87.1583 45.4847 89.9999 45.3337 94.5893 44.3801C95.3673 44.2192 95.6425 44.4714 97.5574 45.8282C99.65 47.3114 99.9275 47.3084 102.868 49.5957C105.562 51.6922 107.276 52.6405 107.774 53.1073C87.6926 57.8346 87.7608 57.7081 87.9241 57.8845C88.4622 58.477 88.5358 58.5498 88.5834 58.5498C93.2593 57.4736 106.98 54.3867 108.879 53.5902C109.124 53.4875 109.212 53.2928 109.084 53.023Z" fill="black"/>
<path d="M106.746 25.5477C107.086 22.7383 107.044 23.2427 107.11 22.6264C107.148 22.2692 107.207 22.3726 104.94 23.0388C104.387 23.2013 104.102 22.8732 104.22 22.5367C104.411 21.9924 104.936 21.7954 105.737 21.5018C106.473 21.232 106.814 21.2711 106.65 21.0848C106.636 21.068 105.96 20.3582 105.003 19.2651C104.745 18.9692 104.716 18.543 105.105 18.4855C105.295 18.4571 105.468 18.5085 105.613 18.6242C105.938 18.8825 106.263 19.1416 106.571 19.4191C107.185 19.9726 107.468 20.4478 107.517 20.152C107.774 18.6296 107.783 18.2923 108.382 15.65C108.446 15.3694 108.609 15.2399 108.83 15.2307C109.606 15.1985 109.242 16.2441 108.736 18.9186C108.409 20.6464 108.194 20.8794 108.578 20.8181C111.237 20.3949 109.954 20.641 111.464 20.5743C111.507 20.5728 111.579 20.6096 111.592 20.6464C111.661 20.838 111.268 20.9239 109.122 21.7349C108.571 21.9434 109.364 21.9725 110.305 23.7816C110.381 23.9264 110.424 24.0844 110.29 24.2024C110.137 24.3381 109.971 24.2446 109.834 24.1487C108.553 23.2534 108.112 22.1887 107.983 22.7667C107.146 26.4936 107.278 26.5841 107.03 26.5864C106.823 26.5879 106.867 26.5197 106.746 25.55L106.746 25.5477Z" fill="black"/>
<path d="M16.446 44.3407C16.2958 42.7401 16.2528 42.4358 16.259 41.8984C16.2643 41.4308 16.8201 41.3772 17.0232 41.6968C17.5299 42.4925 17.3605 44.054 17.579 44.7531C18.0512 44.5292 18.9909 43.7435 20.6988 42.8804C20.7356 42.862 20.8023 42.8804 20.8422 42.9018C21.0706 43.0421 19.7721 44.2004 18.2911 45.6024C19.2577 46.1566 19.5705 46.2961 19.8234 46.6173C19.9928 46.8327 19.9767 47.1401 19.6617 47.0611C19.2792 46.9661 18.321 46.7607 17.8542 46.6503C17.6004 46.5905 17.6525 46.5568 17.7507 47.705C17.95 50.0323 18.0174 50.0906 17.8089 50.1726C17.6817 50.2224 17.5475 50.2063 17.4747 50.0875C17.3666 49.9112 17.2509 49.7287 17.1995 49.5333C16.7158 47.7027 16.7886 47.3701 16.7358 47.1409C16.6591 46.812 16.676 46.963 15.0999 48.1489C14.9535 48.2593 14.3158 48.7223 14.0781 48.7698C13.7608 48.8342 13.5101 48.5827 13.6159 48.2777C13.829 47.6583 14.4882 47.2183 15.7461 46.1673C15.9884 45.965 15.7944 46.0179 14.5227 45.4445C13.2755 44.8826 13.8014 44.0655 14.3158 44.2172C14.9765 44.4127 15.6258 44.6434 16.2804 44.8596C16.4774 44.9248 16.446 44.9432 16.446 44.3391V44.3407Z" fill="black"/>
<path d="M49.8993 21.9137C50.0296 23.7212 47.4777 25.0297 45.7814 23.4959C44.8178 22.6251 44.8063 21.2407 45.6342 20.3392C47.0017 18.8506 49.9123 19.66 49.8993 21.9137ZM48.9074 21.8202C48.8736 21.6883 48.846 21.5565 48.8054 21.4262C48.3961 20.1 46.4038 20.3377 46.1432 21.4545C46.029 21.9421 46.1493 22.3982 46.5625 22.7216C47.1175 23.1563 47.6709 23.1839 48.2236 22.8918C48.6276 22.6779 48.9112 22.3345 48.9081 21.8202H48.9074Z" fill="black"/>
<path d="M131.428 45.524C129.229 45.3838 128.443 43.0688 129.778 41.922C130.137 41.6131 130.444 41.6269 130.729 41.3563C131.078 41.0259 133.075 41.3226 133.523 42.8687C133.966 44.3926 132.578 45.5984 131.427 45.5248L131.428 45.524ZM131.031 42.339C130.822 42.3444 130.632 42.3107 130.45 42.4893C129.951 42.9783 129.931 43.6629 130.459 44.1282C131.374 44.933 132.462 44.3236 132.482 43.577C132.497 43.0328 132.137 42.5529 131.599 42.4287C131.412 42.3858 131.221 42.3666 131.03 42.3383L131.031 42.339Z" fill="black"/>
<path d="M78.417 31.3565C78.4216 32.0142 77.8558 32.6036 77.1736 32.5868C76.4179 32.5684 75.9426 32.051 75.9265 31.358C75.912 30.7087 76.5359 30.0894 77.1568 30.0894C77.8597 30.0894 78.4116 30.6704 78.417 31.3565Z" fill="black"/>
</svg>
