<svg width="154" height="154" viewBox="0 0 154 154" fill="none" xmlns="http://www.w3.org/2000/svg">
<path d="M55.5155 37.6172C55.5921 37.8388 55.7845 38.0442 56.0375 37.9729C56.5173 37.838 56.7711 36.4337 56.5672 35.9033C56.2337 35.2372 55.1261 36.41 55.5155 37.6172Z" fill="black"/>
<path d="M62.7177 39.7206C62.899 39.3129 62.9857 38.8695 62.9715 38.4236C62.973 38.3559 62.9536 38.2895 62.9158 38.2333C62.8781 38.1771 62.8239 38.134 62.7607 38.1098C62.6975 38.0856 62.6283 38.0816 62.5627 38.0982C62.4971 38.1149 62.4383 38.1514 62.3943 38.2028C62.2075 38.4196 62.0675 38.6727 61.9831 38.9461C61.8987 39.2196 61.8717 39.5075 61.9037 39.7919C61.9758 40.1437 62.3958 40.3644 62.7177 39.7206Z" fill="black"/>
<path d="M60.5202 44.8862C60.6892 44.8249 60.8305 44.705 60.9184 44.5483C61.0064 44.3915 61.0351 44.2084 60.9993 44.0323C60.8414 43.2297 59.2478 40.4626 60.9403 37.5428C61.1005 37.273 60.6896 37.0063 60.4704 37.2983C60.0431 37.8863 59.7378 38.554 59.5727 39.2619C59.4077 39.9698 59.386 40.7036 59.5092 41.42C59.8756 43.6812 60.3455 44.0262 60.1653 44.2623C60.023 44.3312 59.868 44.3701 59.71 44.3765C59.3019 44.3821 58.895 44.3305 58.5012 44.2232C58.4215 44.2153 58.3414 44.2346 58.274 44.278C58.2066 44.3214 58.1559 44.3863 58.1302 44.4622C58.1044 44.5381 58.1051 44.6205 58.1321 44.6959C58.1591 44.7714 58.2108 44.8355 58.2789 44.8778C58.6244 45.0589 59.0084 45.1542 59.3985 45.1557C59.7886 45.1571 60.1734 45.0647 60.5202 44.8862Z" fill="black"/>
<path d="M54.5371 45.7616C55.0146 45.7478 55.4661 45.4289 58.0164 46.1019C58.0846 46.1328 58.1619 46.1376 58.2335 46.1155C58.3051 46.0933 58.3661 46.0457 58.4049 45.9816C58.4438 45.9176 58.4579 45.8415 58.4445 45.7677C58.4311 45.694 58.3911 45.6277 58.3322 45.5814C57.1668 44.9441 55.819 44.7229 54.511 44.9544C53.4685 44.9536 53.5467 46.0268 54.5371 45.7616Z" fill="black"/>
<path d="M54.8598 35.2049C55.6959 34.729 56.6725 34.5616 57.6193 34.7319C57.7049 34.7312 57.7871 34.6986 57.8499 34.6404C57.9126 34.5822 57.9514 34.5027 57.9586 34.4174C57.9658 34.3321 57.9409 34.2473 57.8888 34.1794C57.8367 34.1115 57.7611 34.0656 57.6768 34.0505C57.1225 33.9243 56.547 33.9233 55.9922 34.0475C55.4374 34.1718 54.9172 34.4181 54.4697 34.7687C54.1171 35.0409 54.6061 35.5031 54.8598 35.2049Z" fill="black"/>
<path d="M62.7347 36.7089C63.0168 36.9502 63.2687 37.2245 63.4851 37.5261C63.6779 37.8478 63.8342 38.19 63.9512 38.5463C63.9804 38.6084 64.0284 38.6596 64.0885 38.6927C64.1486 38.7258 64.2176 38.739 64.2856 38.7305C64.3537 38.722 64.4173 38.6922 64.4673 38.6453C64.5174 38.5985 64.5514 38.537 64.5644 38.4697C64.5426 37.9968 64.3761 37.5419 64.0876 37.1666C63.8402 36.7639 63.4849 36.4386 63.062 36.2276C62.9986 36.1984 62.9269 36.1926 62.8596 36.2114C62.7923 36.2301 62.7339 36.272 62.6946 36.3297C62.6554 36.3875 62.6379 36.4573 62.6452 36.5267C62.6525 36.5961 62.6842 36.6607 62.7347 36.7089Z" fill="black"/>
<path d="M54.3609 103.667C54.3609 103.667 109.923 103.703 110.899 103.655C110.899 103.885 110.88 105.907 110.975 106.947C110.968 107.771 111.053 108.594 111.228 109.4C111.228 109.419 111.233 109.437 111.243 109.453C111.253 109.469 111.268 109.482 111.285 109.49C111.302 109.498 111.321 109.501 111.34 109.499C111.359 109.496 111.376 109.489 111.391 109.476C112.137 110.182 113.014 110.736 113.972 111.107C119.466 113.288 127.195 112.32 128.954 109.636C128.971 109.612 128.982 109.584 128.988 109.556C128.993 109.527 128.993 109.497 128.986 109.469C128.979 109.44 128.967 109.413 128.949 109.39C128.931 109.367 128.909 109.347 128.883 109.333C129.293 107.466 129.549 105.569 129.65 103.661C130.872 103.735 132.097 103.744 133.32 103.685C134.456 103.685 134.027 102.725 133.36 102.871C132.145 102.815 130.927 102.825 129.713 102.9C129.781 101.966 129.822 101.031 129.829 100.094C130.073 99.7285 130.546 97.2902 129.091 96.851C128.048 93.932 121.153 90.9947 120.21 93.4974C120.147 93.5871 119.728 94.3069 119.688 94.3797C119.621 94.5152 119.576 94.6607 119.555 94.8105C119.252 94.7116 118.942 94.6188 118.615 94.5437C116.315 94.0071 114.278 94.2823 113.536 95.1738C113.313 95.0802 113.071 95.0402 112.83 95.0571C112.589 95.074 112.355 95.1473 112.147 95.2711C111.007 96.0377 111.163 95.935 111.151 95.9426C110.348 96.5037 110.308 97.8881 111.047 99.6319C110.946 100.737 110.903 101.843 110.898 102.952C106.421 102.754 59.5496 102.993 59.5542 102.861C59.87 97.7532 61.1685 92.7562 62.5436 87.9002C66.5756 92.8826 71.5297 97.9571 78.0191 98.7987C81.8115 99.2251 85.6489 98.6297 89.1338 97.074C92.4503 95.6767 95.5438 93.8002 98.3153 91.5044C101.438 88.8946 104.407 86.1064 107.207 83.1538C107.429 83.9045 107.873 84.5707 108.48 85.0656C109.688 85.9172 112.236 86.2828 113.412 84.5665C114.168 83.4284 114.481 82.0524 114.29 80.6994C114.298 80.5461 114.303 80.3874 114.299 80.231C114.84 79.8321 115.235 79.2669 115.424 78.6221C115.613 77.9772 115.585 77.2882 115.345 76.6606C114.743 75.3358 113.646 74.299 112.29 73.7715C109.507 72.5113 106.149 73.0579 104.517 74.7258L84.1291 82.0186C77.271 71.1837 73.1079 57.1945 59.896 51.4938C60.1168 50.8806 60.2072 50.0949 59.5787 49.9393V49.9217C60.8242 49.5173 61.9307 48.7703 62.7713 47.7662C63.9205 46.403 64.8279 44.8532 65.4541 43.1839C65.9141 41.949 65.7194 42.1743 65.9309 42.1743C66.1771 42.1622 66.4114 42.0651 66.5941 41.8996C66.7767 41.7341 66.8964 41.5105 66.9328 41.2668C67.04 41.3193 67.1586 41.3443 67.2779 41.3396C67.3971 41.3348 67.5134 41.3005 67.6161 41.2397C67.7188 41.1789 67.8048 41.0934 67.8663 40.9911C67.9278 40.8888 67.9629 40.7728 67.9684 40.6535C68.1016 40.6315 68.2282 40.5798 68.3388 40.5023C68.4494 40.4248 68.5412 40.3235 68.6074 40.2058C68.6736 40.088 68.7126 39.957 68.7214 39.8222C68.7302 39.6874 68.7086 39.5524 68.6582 39.4271C68.7486 39.4121 68.8351 39.3789 68.9124 39.3297C68.9897 39.2805 69.0562 39.2161 69.1081 39.1405C69.1599 39.0649 69.1959 38.9797 69.214 38.8898C69.232 38.8 69.2318 38.7074 69.2132 38.6176C69.4395 38.5595 69.6344 38.4159 69.757 38.2171C69.8797 38.0183 69.9205 37.7797 69.8709 37.5514C69.9626 37.5185 70.046 37.466 70.1153 37.3974C70.1845 37.3289 70.238 37.246 70.2718 37.1546C70.3056 37.0632 70.319 36.9656 70.3111 36.8684C70.3031 36.7713 70.274 36.6771 70.2258 36.5925C70.4979 36.3863 70.8528 35.839 70.7279 35.5117C70.8348 35.4907 70.9347 35.443 71.0182 35.3729C71.1017 35.3028 71.166 35.2127 71.2052 35.111C71.2443 35.0093 71.257 34.8993 71.242 34.7913C71.2271 34.6833 71.1849 34.5809 71.1196 34.4937C71.3902 34.4096 71.6243 34.2361 71.7834 34.0016C71.8393 33.918 71.7834 33.8751 71.5672 33.5777C71.6966 33.5475 71.8146 33.4809 71.9074 33.3858C72.0001 33.2907 72.0637 33.171 72.0906 33.0409C72.1176 32.9108 72.1067 32.7758 72.0593 32.6516C72.0119 32.5275 71.93 32.4196 71.8232 32.3405C71.9223 32.2684 72.0057 32.1768 72.0681 32.0714C72.1306 31.9659 72.1709 31.8488 72.1865 31.7273C72.2022 31.6057 72.1928 31.4822 72.1591 31.3644C72.1254 31.2466 72.0679 31.1369 71.9903 31.042C72.0497 30.9917 72.0976 30.9292 72.1307 30.8589C72.1639 30.7885 72.1816 30.7118 72.1826 30.634C72.1836 30.5562 72.168 30.4791 72.1366 30.4078C72.1053 30.3366 72.0591 30.2729 72.0011 30.2211C72.0786 30.1419 72.1391 30.0478 72.1789 29.9444C72.2187 29.8411 72.2369 29.7307 72.2326 29.62C72.2282 29.5093 72.2012 29.4007 72.1534 29.3008C72.1056 29.2009 72.0378 29.1118 71.9543 29.0391C72.0565 28.964 72.1392 28.8654 72.1953 28.7517C72.2515 28.6379 72.2795 28.5124 72.2771 28.3856C72.2746 28.2587 72.2417 28.1344 72.1811 28.0229C72.1205 27.9115 72.0341 27.8162 71.929 27.7452C71.9996 27.657 72.0503 27.5546 72.0776 27.445C72.105 27.3354 72.1083 27.2212 72.0874 27.1102C72.0665 26.9992 72.0219 26.894 71.9566 26.8018C71.8913 26.7097 71.8068 26.6327 71.709 26.5762C71.7791 26.4927 71.8288 26.394 71.8542 26.288C71.8796 26.1819 71.88 26.0715 71.8554 25.9652C71.8308 25.859 71.7819 25.76 71.7124 25.6759C71.643 25.5918 71.555 25.5251 71.4553 25.4808C71.5315 25.3869 71.5825 25.2751 71.6036 25.156C71.6247 25.0369 71.6152 24.9144 71.576 24.7999C71.5368 24.6855 71.4691 24.583 71.3793 24.5019C71.2896 24.4208 71.1806 24.3638 71.0628 24.3364C71.1886 24.0022 70.8329 23.4442 70.4833 23.2855C70.5471 23.1998 70.5853 23.0979 70.5935 22.9915C70.6018 22.885 70.5797 22.7784 70.5299 22.684C70.4801 22.5895 70.4046 22.5111 70.3122 22.4578C70.2197 22.4044 70.114 22.3783 70.0073 22.3825C70.0468 22.2615 70.0517 22.1319 70.0215 22.0083C69.9913 21.8846 69.9272 21.7719 69.8364 21.6827C69.7335 21.6063 69.6122 21.5585 69.4848 21.5442C69.3574 21.5299 69.2285 21.5497 69.1113 21.6014C69.108 21.4888 69.0813 21.3781 69.033 21.2764C68.9847 21.1746 68.9157 21.084 68.8305 21.0103C68.7454 20.9365 68.6458 20.8813 68.5381 20.8481C68.4305 20.8149 68.3171 20.8044 68.2052 20.8173C68.2364 20.6888 68.2305 20.5541 68.1883 20.4287C68.1461 20.3034 68.0692 20.1926 67.9666 20.1092C67.864 20.0258 67.7399 19.9732 67.6086 19.9574C67.4773 19.9416 67.3443 19.9633 67.2248 20.0201C67.2288 19.8696 67.1901 19.7211 67.1133 19.5916C67.0365 19.4621 66.9247 19.357 66.7907 19.2884C66.6567 19.2197 66.5061 19.1903 66.3562 19.2035C66.2062 19.2168 66.063 19.2721 65.9432 19.3632C65.918 19.2405 65.8676 19.1244 65.7951 19.0222C65.7226 18.9201 65.6297 18.8342 65.5222 18.7699C65.4147 18.7057 65.295 18.6645 65.1707 18.6491C65.0464 18.6336 64.9203 18.6442 64.8003 18.6802C64.7824 18.5804 64.7432 18.4856 64.6853 18.4024C64.6274 18.3191 64.5522 18.2493 64.4649 18.1978C64.3775 18.1463 64.2801 18.1142 64.1792 18.1038C64.0784 18.0934 63.9765 18.1049 63.8805 18.1375C63.8659 18.0037 63.8154 17.8764 63.7342 17.7691C63.653 17.6618 63.5443 17.5785 63.4195 17.5281C63.2947 17.4778 63.1586 17.4622 63.0257 17.4832C62.8928 17.5041 62.768 17.5607 62.6647 17.6469C62.6181 17.552 62.5519 17.468 62.4705 17.4004C62.3891 17.3328 62.2944 17.2831 62.1925 17.2547C62.0906 17.2263 61.9839 17.2197 61.8793 17.2353C61.7747 17.251 61.6745 17.2886 61.5855 17.3456C61.5712 17.2128 61.523 17.0858 61.4455 16.977C61.368 16.8682 61.2637 16.7812 61.1428 16.7243C61.0219 16.6675 60.8884 16.6428 60.7551 16.6525C60.6219 16.6622 60.4934 16.7061 60.382 16.7799C60.2293 16.5962 60.0101 16.4804 59.7723 16.4577C59.5345 16.435 59.2973 16.5073 59.1126 16.6588C59.0581 16.5479 58.975 16.4534 58.872 16.385C58.769 16.3166 58.6497 16.2768 58.5263 16.2695C58.4029 16.2623 58.2797 16.2879 58.1694 16.3438C58.0591 16.3996 57.9656 16.4837 57.8984 16.5875C57.8444 16.5098 57.7732 16.4456 57.6902 16.4C57.6072 16.3544 57.5148 16.3286 57.4203 16.3246C57.3257 16.3207 57.2314 16.3387 57.145 16.3773C57.0585 16.4159 56.9822 16.4739 56.9219 16.5469C56.855 16.4425 56.7607 16.3585 56.6493 16.3039C56.538 16.2494 56.4138 16.2264 56.2903 16.2374C56.1668 16.2485 56.0487 16.2932 55.9488 16.3667C55.8489 16.4402 55.7711 16.5396 55.7238 16.6542C55.6301 16.5833 55.522 16.5339 55.4071 16.5095C55.2921 16.4851 55.1733 16.4864 55.0589 16.5132C54.9445 16.54 54.8374 16.5916 54.7453 16.6645C54.6531 16.7374 54.5781 16.8297 54.5257 16.9348C54.4374 16.8671 54.3353 16.8194 54.2267 16.7952C54.1181 16.7709 54.0055 16.7706 53.8967 16.7942C53.788 16.8178 53.6856 16.8649 53.5969 16.932C53.5082 16.9992 53.4351 17.0849 53.3828 17.1831C53.2939 17.1156 53.1908 17.0691 53.0813 17.0473C52.9717 17.0255 52.8587 17.0288 52.7507 17.0571C52.6426 17.0854 52.5425 17.1379 52.4577 17.2106C52.3729 17.2833 52.3058 17.3743 52.2614 17.4767C52.1637 17.4332 52.0583 17.4096 51.9514 17.4073C51.8444 17.405 51.7381 17.4241 51.6387 17.4633C51.5392 17.5026 51.4485 17.5613 51.372 17.6359C51.2954 17.7106 51.2345 17.7998 51.1928 17.8983C50.9176 17.8347 50.6285 17.8746 50.3808 18.0104C50.1331 18.1463 49.9441 18.3686 49.8499 18.635C49.7741 18.619 49.6959 18.6183 49.6198 18.6328C49.5437 18.6474 49.4713 18.6769 49.4067 18.7197C49.3422 18.7625 49.2868 18.8177 49.2438 18.8821C49.2007 18.9465 49.171 19.0188 49.1562 19.0949C48.9803 19.0964 48.8117 19.165 48.6848 19.2867C48.5579 19.4083 48.4822 19.5739 48.4732 19.7495C48.3915 19.7388 48.3085 19.7451 48.2294 19.7678C48.1502 19.7906 48.0766 19.8293 48.013 19.8817C47.9495 19.9341 47.8974 19.9991 47.86 20.0724C47.8226 20.1458 47.8007 20.2261 47.7956 20.3083C47.7175 20.2924 47.6367 20.2965 47.5606 20.32C47.4845 20.3436 47.4155 20.3859 47.36 20.443C47.3045 20.5002 47.2643 20.5704 47.243 20.6472C47.2218 20.724 47.2201 20.8048 47.2383 20.8824C47.1622 20.8858 47.0877 20.9058 47.0201 20.941C46.9525 20.9761 46.8934 21.0256 46.8469 21.086C46.8004 21.1463 46.7677 21.2161 46.7509 21.2904C46.7342 21.3648 46.7339 21.4419 46.75 21.5163C46.6737 21.5182 46.599 21.5387 46.5325 21.5761C46.466 21.6135 46.4096 21.6666 46.3684 21.7308C46.3272 21.7951 46.3023 21.8684 46.296 21.9445C46.2897 22.0205 46.3022 22.097 46.3323 22.1671C46.2411 22.1787 46.1535 22.2094 46.0751 22.2573C45.9967 22.3052 45.9293 22.3692 45.8775 22.4451C45.8256 22.5209 45.7904 22.6069 45.7742 22.6973C45.758 22.7877 45.7611 22.8806 45.7834 22.9697C45.6825 22.9751 45.5851 23.008 45.5015 23.0647C45.4179 23.1215 45.3513 23.1999 45.309 23.2916C45.2581 23.4806 45.2594 23.6798 45.3128 23.8681C45.2114 23.8688 45.1139 23.9066 45.0384 23.9742C44.9629 24.0418 44.9146 24.1346 44.9027 24.2352C44.8881 24.3742 44.9103 24.5146 44.9671 24.6423C44.6536 24.7542 44.5386 25.3904 44.826 25.7445C44.7288 25.7878 44.6419 25.8512 44.571 25.9305C44.5001 26.0098 44.4469 26.1033 44.4148 26.2047C44.3827 26.3061 44.3725 26.4132 44.3848 26.5189C44.3972 26.6245 44.4318 26.7264 44.4865 26.8177C44.3752 26.8515 44.2747 26.9139 44.195 26.9986C44.1153 27.0832 44.059 27.1872 44.0318 27.3003C44.0047 27.4133 44.0075 27.5316 44.04 27.6432C44.0726 27.7548 44.1337 27.8561 44.2174 27.9368C44.103 27.9861 44.0047 28.0666 43.9338 28.169C43.8629 28.2715 43.8221 28.3918 43.8162 28.5162C43.8103 28.6407 43.8395 28.7643 43.9004 28.873C43.9613 28.9817 44.0515 29.0711 44.1607 29.1311C44.0695 29.186 43.995 29.2649 43.9453 29.3591C43.8956 29.4534 43.8726 29.5594 43.8787 29.6657C43.8849 29.7721 43.92 29.8747 43.9802 29.9626C44.0404 30.0505 44.1235 30.1202 44.2205 30.1643C44.1351 30.2373 44.0658 30.3273 44.0171 30.4285C43.9684 30.5297 43.9414 30.64 43.9376 30.7523C43.9479 30.8609 43.9896 30.9643 44.0577 31.0496C44.1258 31.135 44.2172 31.1987 44.3209 31.2329C44.242 31.3072 44.1942 31.4086 44.1873 31.5168C44.1803 31.6249 44.2146 31.7316 44.2833 31.8154C44.2542 31.8446 44.2235 31.8737 44.1967 31.9028C43.556 32.7429 43.1778 33.7536 43.1098 34.808C42.9025 35.9563 43.1205 37.1408 43.723 38.1401C43.9714 38.5045 44.302 38.8054 44.6882 39.0185C45.0743 39.2316 45.5052 39.3508 45.9459 39.3665C45.6953 39.8908 45.4761 40.4305 45.2791 40.9709C45.0759 41.5305 43.4815 45.7234 43.4394 45.8445C43.2148 45.9035 33.197 43.6215 22.5491 47.573C19.2505 48.7472 16.3173 50.7656 14.0422 53.427C9.61162 58.9 9.53343 67.7765 11.1332 74.5679C8.97846 81.8914 7.11579 97.6405 7.40707 102.771C3.63344 102.771 3.81128 102.735 3.6917 102.855C3.64765 102.898 3.61745 102.953 3.605 103.013C3.59256 103.073 3.59844 103.136 3.62189 103.192C3.64534 103.249 3.68528 103.297 3.73654 103.331C3.7878 103.365 3.84802 103.383 3.9094 103.382C6.51177 103.357 -4.583 103.59 54.3609 103.667ZM10.5782 80.3936C10.8542 78.9318 11.1914 77.5168 11.5118 76.0159C13.2319 82.1481 16.2122 87.5323 21.292 91.4071C25.7961 94.7154 31.2339 95.5686 36.1627 93.1793C40.0473 91.4643 43.3349 88.6342 45.6087 85.0479C51.4473 75.4418 52.8754 66.875 56.7234 53.749C57.2972 53.6945 57.8522 53.5153 58.3496 53.224C58.8471 52.9328 59.2749 52.5364 59.6032 52.0626C72.3644 58.0791 75.5172 69.331 83.604 82.7161C83.6405 82.7787 83.693 82.8305 83.756 82.8662C83.819 82.9019 83.8904 82.9202 83.9628 82.9193C84.0394 82.9193 82.8897 83.3577 103.824 75.8381C102.993 77.4623 102.494 79.6952 104.277 80.9501C104.838 81.3302 105.46 81.6086 106.117 81.7725C106.407 81.8624 106.702 81.9355 107.001 81.9918C107.005 82.0546 107.001 82.1175 107.009 82.1803C106.165 82.5866 99.1899 91.3787 90.4162 95.5946C87.036 97.3401 83.2746 98.2171 79.4709 98.1464C72.0356 97.5677 67.733 92.7393 62.7253 87.2617C64.5588 80.8305 66.8339 73.4158 66.6538 66.6964C66.6523 66.64 66.6302 66.5862 66.5916 66.5451C66.553 66.5039 66.5007 66.4784 66.4445 66.4734L66.3571 66.4649C66.3263 66.4622 66.2954 66.4657 66.266 66.4752C66.2366 66.4848 66.2094 66.5001 66.1861 66.5203C66.1628 66.5406 66.1438 66.5653 66.1302 66.5931C66.1167 66.6208 66.1088 66.651 66.1072 66.6819C65.2916 81.5663 59.6484 89.6356 58.77 102.841C58.77 102.858 58.7769 102.818 58.7792 102.835H8.15138C8.30721 95.2979 9.11922 87.7892 10.5782 80.3936ZM46.7201 39.1097C46.7535 39.0432 46.7662 38.9681 46.7564 38.8943C46.7466 38.8204 46.7149 38.7512 46.6653 38.6957C46.6158 38.6401 46.5507 38.6006 46.4784 38.5825C46.4062 38.5643 46.3302 38.5683 46.2602 38.5939C45.8807 38.669 45.4872 38.6232 45.1352 38.4628C44.7831 38.3025 44.4903 38.0357 44.2979 37.7001C43.8649 36.9474 43.6872 36.0748 43.7912 35.2127C43.8063 34.3943 43.9998 33.5891 44.3585 32.8533C44.977 31.6115 45.8409 31.2505 46.9056 32.1489C47.3418 32.584 47.6674 33.1173 47.8553 33.7041C48.0432 34.2908 48.0879 34.914 47.9857 35.5216C47.7082 36.9389 48.9484 37.0447 49.393 36.4537C49.5351 36.6195 49.7349 36.7249 49.9519 36.7485C50.1689 36.7722 50.3868 36.7122 50.5612 36.581C50.8847 36.2251 51.0695 35.7648 51.0817 35.284C51.2469 35.3169 51.4172 35.3139 51.5811 35.275C51.7449 35.2361 51.8985 35.1624 52.0313 35.0588C52.164 34.9552 52.2729 34.8241 52.3505 34.6746C52.428 34.5251 52.4724 34.3607 52.4806 34.1925C52.6708 34.2637 52.8808 34.2615 53.0694 34.1862C53.2581 34.1109 53.4119 33.968 53.5009 33.7854C53.6085 33.4878 53.6419 33.1683 53.5982 32.8549C54.1034 32.9077 54.3364 31.945 54.3647 31.4414C54.5179 31.5795 54.7138 31.661 54.9197 31.6725C55.1257 31.6839 55.3294 31.6245 55.4969 31.5042C55.6502 31.3831 55.7778 31.2326 55.872 31.0614C55.9663 30.8903 56.0253 30.702 56.0457 30.5077C56.1562 30.6019 56.2878 30.668 56.4293 30.7003C56.5708 30.7327 56.718 30.7304 56.8585 30.6937C56.9989 30.657 57.1284 30.5869 57.2359 30.4894C57.3434 30.3919 57.4258 30.2699 57.4761 30.1337C57.7153 30.4368 58.0508 30.6493 58.4272 30.7358C58.8035 30.8224 59.1981 30.7779 59.5457 30.6097C59.5829 30.771 59.6663 30.918 59.7859 31.0326C59.9055 31.1471 60.0559 31.2242 60.2187 31.2543C60.5162 31.3008 60.8199 31.2883 61.1125 31.2176C61.1149 31.3347 61.1508 31.4488 61.216 31.5462C61.2812 31.6436 61.373 31.7203 61.4804 31.7671C61.5879 31.814 61.7065 31.8291 61.8222 31.8106C61.938 31.7921 62.046 31.7409 62.1335 31.6629C62.2016 31.7904 62.2953 31.9024 62.4089 31.9918C62.5225 32.0812 62.6534 32.146 62.7933 32.1822C62.9333 32.2184 63.0792 32.2251 63.2218 32.2019C63.3645 32.1788 63.5008 32.1263 63.6221 32.0477C63.6437 32.3195 63.7721 32.5717 63.9793 32.7488C64.1866 32.926 64.4556 33.0138 64.7275 32.9928C64.711 33.1284 64.7235 33.266 64.7641 33.3964C64.8047 33.5268 64.8725 33.6471 64.9631 33.7493C65.0537 33.8515 65.1649 33.9334 65.2895 33.9894C65.414 34.0455 65.549 34.0744 65.6856 34.0744C65.6026 34.213 65.5578 34.3712 65.5558 34.5328C65.5538 34.6944 65.5946 34.8536 65.6741 34.9942C65.7661 35.112 65.8859 35.205 66.0228 35.2648C66.1597 35.3247 66.3094 35.3494 66.4583 35.3369C66.0191 39.1695 65.0019 43.4238 62.7023 46.47C61.8606 47.7927 60.5507 48.7489 59.0344 49.1475C59.406 48.4486 59.5269 47.6435 59.3771 46.8663C59.1318 46.0921 58.2204 45.9004 57.7367 47.0602C57.2327 47.9217 56.5462 48.6625 55.7253 49.2303C55.2087 49.5461 54.5318 49.7868 54.1923 49.5292C53.6244 49.0328 53.117 48.4711 52.6807 47.8559C52.4361 47.5301 51.9831 46.9245 51.4389 47.225C50.8425 47.5569 50.6057 49.1352 51.6374 50.6368C50.9889 51.7613 50.296 52.8598 49.5678 53.9329C48.8773 53.7672 48.2149 53.5012 47.6016 53.1434C46.4636 52.4898 45.5188 51.5466 44.8633 50.4096C44.2078 49.2726 43.8649 47.9824 43.8694 46.67C44.1201 46.4186 44.2412 46.017 45.9191 41.3534C46.232 40.6224 46.5005 39.8731 46.7232 39.1097H46.7201ZM56.3485 52.9027C54.9573 52.2722 53.6451 51.48 52.4392 50.5425C52.024 49.9549 51.7606 49.2737 51.6727 48.5595C51.6727 48.1525 51.7601 47.9379 51.8045 47.9141C51.8315 47.9139 51.858 47.9211 51.8812 47.9348C52.6753 48.7013 52.6048 49.31 53.9554 50.2674C54.4314 50.4598 54.9635 50.4598 55.4394 50.2674C56.5749 49.7625 57.5094 48.8931 58.0947 47.7968C58.1905 47.6313 58.3553 47.1691 58.5883 47.2158C58.8213 47.2626 58.8497 47.6972 58.8083 47.9149C58.5823 48.5835 58.1573 49.1671 57.5903 49.5875C57.5294 49.6492 57.4885 49.728 57.4731 49.8134C57.4576 49.8988 57.4683 49.9868 57.5038 50.066C57.5392 50.1452 57.5978 50.2119 57.6718 50.2572C57.7458 50.3026 57.8317 50.3246 57.9184 50.3203C58.1417 50.2849 58.3584 50.2165 58.5615 50.1171C58.7654 50.0236 58.7761 50.1079 58.6657 50.3739C58.6463 50.446 58.6462 50.5219 58.6654 50.594C58.6845 50.6661 58.7224 50.732 58.775 50.7848C58.8277 50.8377 58.8933 50.8758 58.9654 50.8953C59.0374 50.9148 59.1133 50.915 59.1854 50.8959C58.9923 51.4917 58.6117 52.009 58.1004 52.3707C57.5891 52.7324 56.9746 52.919 56.3485 52.9027ZM44.9471 51.8817C46.0187 53.1938 47.466 54.1466 49.0948 54.6121C48.7698 55.072 48.4377 55.5288 48.0984 55.9826C46.2402 55.3729 44.6451 54.1485 43.5758 52.511C42.4163 50.6261 41.814 48.4514 41.8389 46.2385C42.2712 46.2845 42.7196 46.3409 43.1841 46.4079C43.0828 48.3867 43.71 50.334 44.9471 51.8817ZM41.1574 46.1703C41.0546 48.5967 41.6965 50.9965 42.9971 53.0476C44.0677 54.7425 45.6932 56.0137 47.5963 56.6441C42.4651 63.2432 35.4445 68.2118 31.0392 75.9331C30.9074 70.8449 29.5621 65.9299 28.4 61.0624C28.3747 60.96 28.3098 60.8717 28.2194 60.8172C28.1291 60.7626 28.0207 60.7462 27.9183 60.7715C27.8158 60.7968 27.7276 60.8618 27.6731 60.9522C27.6185 61.0425 27.6021 61.1508 27.6274 61.2533C28.863 66.56 30.2528 71.9035 30.1914 77.4899C30.1928 77.5727 30.2191 77.6532 30.2669 77.7208C30.3148 77.7883 30.3819 77.8399 30.4596 77.8686C30.5372 77.8974 30.6217 77.902 30.7021 77.8819C30.7824 77.8618 30.8547 77.8179 30.9097 77.7559C30.9503 77.7354 30.9842 77.7036 31.0072 77.6643C31.0302 77.625 31.0413 77.5799 31.0392 77.5344C36.1619 67.5956 46.1023 62.0796 52.1955 51.319C53.3485 52.1947 54.5938 52.9417 55.9093 53.5466C52.9421 63.769 50.0737 77.6869 43.7307 86.3303C40.9787 89.8346 37.1561 92.3427 32.8459 93.4721C30.1183 94.0543 27.274 93.7005 24.7721 92.4679C11.9327 86.6714 7.8187 65.2983 13.4481 55.6745C15.1994 52.8405 17.7447 50.5834 20.7677 49.1835C24.0157 47.643 27.502 46.6661 31.0775 46.2944C34.4232 45.8896 37.8028 45.8479 41.1574 46.1703ZM114.187 79.2185C114.142 78.9923 114.083 78.7693 114.01 78.5508C113.861 77.8038 113.525 77.1067 113.034 76.5241C112.968 76.4603 112.88 76.4231 112.788 76.4197C112.696 76.4164 112.606 76.447 112.536 76.5059C112.465 76.5647 112.418 76.6476 112.405 76.7386C112.391 76.8297 112.412 76.9225 112.462 76.9994C113.088 77.9412 113.447 79.0349 113.501 80.1644V80.1736C113.591 81.8354 112.607 82.2685 112.558 80.7554C112.541 80.1269 112.37 79.5123 112.059 78.9658C111.749 78.4193 111.308 77.9577 110.777 77.6218C110.263 77.3016 109.666 77.1404 109.061 77.1583C108.457 77.1761 107.87 77.3723 107.376 77.7222C106.573 78.2373 105.783 79.1786 106.332 79.962C106.54 80.1916 106.805 80.3628 107.099 80.4587C107.053 80.6926 107.023 80.9292 107.007 81.167C106.801 81.1387 106.598 81.0872 106.404 81.0137C105.722 80.8885 105.08 80.5991 104.535 80.1705C104.19 79.8136 103.965 79.3581 103.892 78.8674C103.266 75.4609 107.345 72.6846 111.48 74.3134C112.707 74.7084 113.754 75.5271 114.432 76.623C114.651 77.0319 114.744 77.4961 114.7 77.9577C114.657 78.4192 114.478 78.8577 114.187 79.2185ZM106.925 79.3672C106.944 79.2382 107 79.1175 107.086 79.0199C107.345 78.6578 107.694 78.3702 108.099 78.1859C107.706 78.6114 107.429 79.1306 107.294 79.6937C107.077 79.5864 106.963 79.5235 106.925 79.3672ZM111.245 79.0744C111.642 79.7236 111.839 80.4749 111.812 81.2352C111.579 81.2438 111.346 81.2033 111.129 81.1164C110.955 81.001 110.822 80.8335 110.749 80.6379C110.676 80.4423 110.666 80.2285 110.722 80.0272C110.741 79.8414 110.797 79.6615 110.887 79.4978C110.977 79.3342 111.099 79.1902 111.245 79.0744ZM109.547 84.2185C108.869 83.3146 108.546 82.1937 108.639 81.0678C108.732 79.9419 109.234 78.8891 110.051 78.1085C110.294 78.2102 110.521 78.3465 110.725 78.5133C110.496 78.6861 110.306 78.9062 110.168 79.1588C110.031 79.4114 109.949 79.6905 109.929 79.9773C109.855 80.3991 109.943 80.8332 110.174 81.1933C110.406 81.5534 110.765 81.813 111.179 81.9205C111.608 82.004 112.022 81.9281 112.167 82.2654C112.216 82.4224 112.234 82.588 112.218 82.7519C112.201 82.9159 112.152 83.0748 112.072 83.219C112.022 83.3713 111.93 83.5062 111.806 83.6079C111.682 83.7096 111.532 83.7738 111.373 83.7932C111.214 83.8125 111.052 83.786 110.908 83.7169C110.763 83.6478 110.641 83.5389 110.556 83.403C110.506 83.3199 110.427 83.2588 110.334 83.2318C110.241 83.2048 110.142 83.214 110.055 83.2574C109.969 83.3009 109.902 83.3755 109.868 83.4662C109.834 83.5568 109.836 83.6569 109.873 83.7464C109.993 84.0303 110.202 84.268 110.468 84.4244C110.734 84.5808 111.043 84.6475 111.349 84.6148C111.357 84.7842 111.365 84.8686 111.518 84.9598C111.37 84.9978 111.218 85.0191 111.066 85.0234C110.771 85.0012 110.483 84.9183 110.222 84.7797C109.961 84.6412 109.731 84.4502 109.547 84.2185ZM112.029 84.3718C112.352 84.1701 112.612 83.8823 112.78 83.541C112.948 83.1996 113.017 82.8181 112.981 82.4394C113.155 82.4223 113.323 82.3634 113.47 82.2677C113.438 82.7647 113.291 83.2474 113.04 83.6778C112.789 84.1082 112.442 84.4746 112.026 84.7482C112.034 84.713 112.029 84.4109 112.029 84.3734V84.3718ZM126.281 99.6795C126.697 100.186 127.058 100.736 127.359 101.318C126.394 101.771 125.363 102.066 124.304 102.19C124.252 102.113 122.417 100.152 122.185 98.3158C122.108 97.7463 122.218 97.2427 122.798 97.2511L122.815 97.2565C123.968 97.258 125.535 98.7665 126.281 99.681V99.6795ZM120.819 100.388C121.104 101.084 121.475 101.742 121.921 102.348C121.636 102.348 121.36 102.348 121.09 102.342C120.037 102.107 119.049 101.646 118.193 100.989C118.144 100.784 118.077 100.585 118.013 100.385C118.939 100.564 119.892 100.566 120.819 100.389V100.388ZM129.142 99.9669C128.816 100.341 128.439 100.667 128.021 100.935C127.648 100.209 127.185 99.5331 126.642 98.9237C127.08 98.4247 128.155 97.4105 128.794 97.5546C129.763 97.6949 129.084 99.7416 129.142 99.9685V99.9669ZM125.437 94.3636C126.332 94.8338 127.138 95.4581 127.818 96.2078C127.086 96.0936 126.158 96.575 125.218 97.5661C124.567 97.0049 123.776 96.6308 122.929 96.4838C122.131 95.9373 120.526 94.4732 120.936 93.7044C121.29 93.0566 123.29 93.2015 125.437 94.3651V94.3636ZM121.773 96.8847C121.276 97.4213 120.608 97.4358 120.493 98.5274C119.251 98.6348 117.999 98.4781 116.822 98.0674C116.159 97.0454 115.289 96.174 114.268 95.5095C115.637 94.4701 120.152 95.2275 121.773 96.8893V96.8847ZM113.112 95.8391C113.858 95.9863 115.08 96.9177 116.263 98.5987C116.988 99.6097 117.443 100.789 117.586 102.025C116.499 101.847 115.426 101.588 114.377 101.251C113.381 100.235 111.916 97.491 112.361 96.2301C112.38 96.1524 112.415 96.0797 112.464 96.0168C112.513 95.9539 112.575 95.9022 112.646 95.8653C112.717 95.8284 112.795 95.8071 112.875 95.8029C112.955 95.7986 113.034 95.8115 113.109 95.8407L113.112 95.8391Z" fill="black"/>
<path d="M149.507 135.351C149.507 135.351 90.8541 108.413 90.5483 108.301C89.9614 108.219 89.366 108.219 88.7791 108.301C88.7791 108.301 80.3304 108.507 79.1914 108.525C77.1509 106.387 70.0283 106.362 69.2127 108.747C51.597 108.918 30.5105 108.922 30.4262 108.972C30.3686 108.992 30.3178 109.028 30.2802 109.076C30.2425 109.124 30.2194 109.182 30.2138 109.243C30.2081 109.303 30.2201 109.364 30.2482 109.419C30.2764 109.473 30.3196 109.518 30.3726 109.548L74.4389 136.8C74.7232 137.005 75.0723 137.098 75.4208 137.064C112.258 136.542 149.183 136.021 149.357 136.021C149.436 136.019 149.513 135.991 149.574 135.941C149.636 135.891 149.678 135.822 149.696 135.745C149.713 135.668 149.704 135.587 149.669 135.515C149.635 135.444 149.578 135.386 149.507 135.351ZM75.0437 136.366L63.3732 129.199C65.4283 129.189 76.6143 128.955 78.1404 128.929C84.935 132.966 87.6669 134.606 90.5038 136.159C90.4233 136.159 75.2943 136.389 75.0437 136.366ZM45.4188 109.521C45.5031 109.64 46.6452 110.188 53.7694 114.4C46.7173 114.486 44.5143 114.4 39.6959 114.561C39.6116 114.561 40.4302 115.05 31.5239 109.565C36.3446 109.563 40.9545 109.548 45.4188 109.521ZM69.1475 109.232C69.1613 109.453 69.1092 110.275 69.1031 110.352C68.9888 112.684 74.6642 113.766 77.8323 112.635C78.9384 112.241 79.5693 111.632 79.6084 110.928C79.6084 110.901 79.6191 110.621 79.6268 110.342C79.7992 110.445 83.6656 112.39 83.927 112.53C82.2238 112.688 80.8961 113.203 80.2768 113.937C78.4524 113.937 72.8414 114.06 72.5432 114.066C69.7308 112.464 66.9476 110.857 64.0524 109.314C65.7505 109.289 67.4489 109.261 69.1475 109.23V109.232ZM40.4793 115.081C43.9509 115.186 46.334 115.135 54.8962 115.068C56.4093 115.964 63.3472 120.101 64.5039 120.791C52.753 121.227 52.2394 121.239 50.7171 121.385L40.4793 115.081ZM63.049 109.332C65.6092 110.908 68.2691 112.431 71.1474 114.096C71.0063 114.096 58.8653 114.333 55.0886 114.382C52.1704 112.678 49.2729 110.974 46.4758 109.514C51.4698 109.482 62.3522 109.343 63.0498 109.332L63.049 109.332ZM89.4429 114.097C91.1224 114.909 91.2535 115.937 89.1854 116.631C86.4358 117.545 82.3778 116.869 81.0448 115.604C80.9334 115.515 80.8413 115.405 80.7745 115.279C80.7076 115.153 80.6674 115.015 80.6562 114.873C80.7014 114.053 82.4959 113.243 85.0944 113.243C86.5884 113.216 88.0711 113.507 89.4437 114.098L89.4429 114.097ZM56.2422 115.056C56.2422 115.056 67.5355 114.894 72.3393 114.787C72.3508 114.793 78.3566 118.3 80.5129 119.505C78.759 119.379 76.3859 119.56 75.0007 120.542C73.6291 120.476 72.2548 120.487 70.8845 120.577C70.8845 120.577 66.0975 120.73 65.8514 120.739C62.6926 118.86 59.4685 116.947 56.2422 115.056ZM79.9104 115.133C79.9012 115.318 79.8575 116.136 79.8513 116.233C79.7517 117.739 82.1939 119.017 85.4715 119.202C86.824 119.3 88.1827 119.137 89.4736 118.722C90.6832 118.291 91.3731 117.629 91.4152 116.865C91.4152 116.838 91.4252 116.572 91.4329 116.292C93.872 117.719 96.2858 118.899 98.764 120.187C83.9446 120.219 84.5831 120.3 84.4544 120.455C83.7309 120.116 82.9668 119.872 82.1808 119.728C82.1233 119.584 81.1583 118.962 73.7605 114.759C75.8462 114.72 77.8998 114.69 79.9318 114.58C79.8845 114.76 79.8771 114.949 79.9104 115.133ZM80.0322 124.212C78.7186 124.167 77.4256 123.871 76.2226 123.341C75.686 123.076 74.8513 122.549 74.8835 121.948C74.9341 121.01 77.1639 120.085 80.2645 120.25C81.7523 120.331 85.0331 120.968 85.4003 122.303C85.7981 123.741 82.1249 124.323 80.0322 124.213V124.212ZM74.3722 121.173C74.1594 121.477 74.0751 121.852 74.1376 122.218C74.1284 122.401 74.0824 123.269 74.0755 123.368C73.9046 125.94 80.3695 127.281 84.0979 125.95C85.3543 125.502 86.0702 124.816 86.1147 124.025C86.1147 123.975 86.14 123.156 86.1484 122.845C86.1655 122.776 86.1773 122.706 86.1837 122.635C89.2084 124.497 92.3067 126.307 95.382 128.074C90.3674 128.11 78.5904 128.287 78.5904 128.287C76.7254 127.185 69.0026 122.609 67.0066 121.422C73.2875 121.216 73.0032 121.301 74.3722 121.174V121.173ZM86.1208 122.042C85.9471 121.583 85.6343 121.19 85.2263 120.918C86.1906 120.942 100.144 120.909 100.144 120.909L113.719 128.03C112.539 128.03 100.108 128.046 96.8607 128.066C96.6261 127.934 86.383 122.138 86.1208 122.043V122.042ZM115.273 128.03C110.71 125.64 106.133 123.254 101.615 120.909C114.24 120.915 115.841 120.953 116.134 120.848C116.242 120.807 115.27 120.394 132.191 128.155C126.555 128.058 120.873 128.032 115.273 128.03V128.03ZM100.219 120.184C93.2043 116.571 93.0809 116.438 91.449 115.734C91.5068 115.485 91.5009 115.225 91.4319 114.979C91.3629 114.733 91.233 114.508 91.0542 114.326C91.1308 114.326 101.527 114.422 101.812 114.222L114.866 120.209C113.123 120.127 113.24 120.175 100.219 120.185V120.184ZM90.4601 113.804C88.9148 112.913 87.1573 112.456 85.3734 112.481C84.9288 112.176 84.4563 111.914 83.9623 111.698C79.892 109.655 80.3373 109.815 79.6743 109.578C79.6739 109.43 79.648 109.283 79.5976 109.143C80.8816 109.12 87.1648 109.026 89.0604 108.984C89.5773 108.894 90.1081 108.928 90.6088 109.085L100.482 113.613C100.406 113.612 91.8238 113.654 90.4601 113.805V113.804ZM65.6399 121.47C66.7705 122.146 74.3952 126.703 77.1118 128.319C67.445 128.512 65.4337 128.519 62.6006 128.698C62.5239 128.703 63.2422 129.119 51.6078 121.934C52.7775 121.926 52.3206 121.917 65.6399 121.469V121.47ZM91.9158 136.136C90.1489 135.062 80.844 129.62 79.6283 128.904C83.9094 128.834 95.1498 128.736 96.5165 128.729C97.4149 129.244 107.427 134.977 109.072 135.887L91.9158 136.136ZM110.412 135.868C110.235 135.638 98.2534 128.854 98.0212 128.723C103.181 128.703 108.759 128.709 115.07 128.739C115.07 128.739 126.735 134.859 128.243 135.61L110.412 135.868ZM129.575 135.591C125.369 133.198 121.052 131.047 116.649 128.746C118.6 128.756 133.465 128.867 133.595 128.798L147.787 135.328L129.575 135.591ZM71.1658 108.101C73.3467 107.458 75.6824 107.585 77.7809 108.46C78.5153 108.816 79.2534 109.39 78.7215 110.004C78.1895 110.618 76.4801 111.144 74.3093 111.031C73.0706 110.967 70.6407 110.531 70.0168 109.473C69.6427 108.821 70.4537 108.353 71.1612 108.102L71.1658 108.101Z" fill="black"/>
<path d="M71.6155 108.938L71.9413 109.001C71.9674 109.156 72.0388 109.3 72.1465 109.414C72.2541 109.528 72.3932 109.608 72.5461 109.643C73.7036 110.046 75.0496 109.081 76.309 109.391C76.4769 109.417 76.6353 109.486 76.7689 109.592C76.5904 109.791 76.3535 109.929 76.092 109.986C75.8305 110.043 75.5577 110.015 75.3125 109.908C75.2202 109.866 75.1148 109.861 75.0194 109.896C74.924 109.932 74.8465 110.003 74.8039 110.096C74.7613 110.188 74.7571 110.293 74.7923 110.389C74.8274 110.484 74.899 110.562 74.9913 110.604C75.3717 110.77 75.7928 110.818 76.2008 110.744C76.6089 110.669 76.9855 110.475 77.2825 110.185C77.3231 110.19 77.7424 110.248 77.7838 110.248C77.8855 110.254 77.9855 110.22 78.062 110.153C78.1385 110.086 78.1851 109.991 78.1916 109.889C78.1981 109.787 78.164 109.687 78.0967 109.611C78.0294 109.534 77.9345 109.488 77.8329 109.481L77.5217 109.437C77.4381 109.061 77.0932 108.791 76.496 108.644C74.9814 108.269 73.5219 109.283 72.7301 108.887C72.7952 108.816 72.8742 108.76 72.9622 108.721C73.0502 108.683 73.1452 108.663 73.2413 108.663C73.3413 108.681 73.4446 108.66 73.5285 108.602C73.6125 108.545 73.6702 108.457 73.689 108.357C73.7078 108.257 73.6861 108.153 73.6288 108.069C73.5714 107.986 73.4831 107.928 73.3832 107.909C73.1804 107.884 72.9745 107.904 72.7804 107.968C72.5863 108.032 72.4089 108.138 72.261 108.279L71.7642 108.183C71.6644 108.163 71.561 108.184 71.4767 108.241C71.3924 108.298 71.3341 108.386 71.3147 108.486C71.2953 108.586 71.3163 108.689 71.3731 108.773C71.43 108.858 71.518 108.916 71.6178 108.935L71.6155 108.938Z" fill="black"/>
<path d="M82.6037 114.623L82.9931 114.7C83.0153 114.87 83.0893 115.029 83.2052 115.156C83.3211 115.283 83.4732 115.371 83.6408 115.408C84.8971 115.846 86.4118 114.783 87.8092 115.127C88.23 115.231 88.3457 115.365 88.3511 115.393C88.3511 115.406 88.3204 115.505 88.1418 115.63C87.9277 115.773 87.6819 115.861 87.4259 115.887C87.1699 115.913 86.9115 115.875 86.6732 115.778C86.5809 115.736 86.4754 115.731 86.3801 115.767C86.2847 115.802 86.2072 115.873 86.1646 115.966C86.122 116.058 86.1178 116.163 86.153 116.259C86.1881 116.354 86.2597 116.432 86.352 116.474C86.7692 116.656 87.2313 116.708 87.6786 116.625C88.1259 116.541 88.5378 116.325 88.8609 116.004C88.903 116.01 89.389 116.076 89.4311 116.076C89.5328 116.082 89.6329 116.048 89.7093 115.981C89.7858 115.913 89.8324 115.818 89.8389 115.717C89.8455 115.615 89.8113 115.515 89.744 115.439C89.6768 115.362 89.5819 115.316 89.4802 115.309L89.1015 115.26C89.0142 114.746 88.496 114.504 87.9931 114.38C87.1727 114.228 86.3273 114.285 85.5349 114.546C85.0105 114.742 84.4422 114.788 83.893 114.68C83.8209 114.656 83.7811 114.632 83.7642 114.628C83.8379 114.529 83.9346 114.45 84.046 114.396C84.1574 114.343 84.28 114.317 84.4035 114.322C84.5035 114.34 84.6068 114.318 84.6907 114.261C84.7746 114.203 84.8321 114.115 84.8507 114.015C84.8693 113.915 84.8475 113.811 84.7899 113.728C84.7323 113.644 84.6438 113.586 84.5437 113.567C84.3213 113.541 84.0957 113.564 83.8835 113.636C83.6713 113.707 83.4778 113.826 83.3173 113.982L82.7462 113.872C82.696 113.86 82.6439 113.858 82.5931 113.867C82.5422 113.876 82.4937 113.895 82.4504 113.923C82.4071 113.951 82.3699 113.988 82.341 114.03C82.3121 114.073 82.2922 114.121 82.2824 114.172C82.2726 114.223 82.2731 114.275 82.2839 114.325C82.2947 114.376 82.3156 114.423 82.3453 114.466C82.375 114.508 82.413 114.544 82.4568 114.571C82.5007 114.598 82.5496 114.616 82.6006 114.624L82.6037 114.623Z" fill="black"/>
<path d="M84.1093 122.422L83.7 122.369C83.6133 121.832 83.0821 121.582 82.5548 121.449C80.8262 121.02 79.3215 122.128 78.2721 121.762C78.1756 121.729 78.1296 121.698 78.1188 121.706C78.195 121.593 78.2986 121.502 78.42 121.44C78.5413 121.378 78.6764 121.348 78.8126 121.352C78.9125 121.371 79.0158 121.349 79.0997 121.292C79.1837 121.235 79.2414 121.146 79.2602 121.046C79.279 120.946 79.2573 120.843 79.2 120.759C79.1426 120.675 79.0543 120.618 78.9544 120.599C78.7244 120.573 78.4915 120.598 78.2726 120.673C78.0537 120.749 77.8543 120.872 77.6888 121.033L77.0802 120.915C76.9804 120.896 76.877 120.917 76.7927 120.974C76.7085 121.031 76.6503 121.119 76.631 121.219C76.6117 121.319 76.6328 121.422 76.6897 121.506C76.7467 121.591 76.8347 121.649 76.9345 121.668L77.3546 121.749C77.3745 121.926 77.4493 122.092 77.5685 122.225C77.6877 122.357 77.8453 122.449 78.0192 122.487C79.333 122.947 80.9036 121.831 82.37 122.192C82.8138 122.303 82.9388 122.442 82.948 122.482C82.9526 122.502 82.9212 122.592 82.7809 122.704C82.552 122.872 82.2839 122.979 82.0021 123.014C81.7203 123.049 81.4342 123.011 81.1712 122.904C81.0789 122.862 80.9734 122.858 80.8781 122.893C80.7827 122.928 80.7052 123 80.6626 123.092C80.62 123.184 80.6158 123.29 80.6509 123.385C80.6861 123.48 80.7577 123.558 80.85 123.6C81.2837 123.79 81.7643 123.844 82.2292 123.756C82.6941 123.667 83.1217 123.441 83.4562 123.107C83.4984 123.112 84.015 123.183 84.0572 123.183C84.1075 123.187 84.158 123.18 84.2057 123.164C84.2535 123.148 84.2976 123.122 84.3355 123.089C84.3734 123.056 84.4043 123.015 84.4266 122.97C84.4489 122.925 84.4621 122.875 84.4653 122.825C84.4686 122.775 84.4619 122.724 84.4457 122.677C84.4295 122.629 84.404 122.585 84.3707 122.547C84.3374 122.509 84.297 122.478 84.2517 122.456C84.2065 122.433 84.1573 122.42 84.107 122.417L84.1093 122.422Z" fill="black"/>
</svg>
