<svg width="154" height="154" viewBox="0 0 154 154" fill="none" xmlns="http://www.w3.org/2000/svg">
<path d="M71.996 39.2369C72.0914 39.2374 72.1844 39.2071 72.2613 39.1507C72.3382 39.0942 72.3949 39.0145 72.423 38.9234C72.4476 38.6339 72.373 38.3446 72.2114 38.1032C72.0313 37.8487 71.8281 37.6663 71.4947 37.861C71.0095 38.1446 71.4441 39.2369 71.996 39.2369Z" fill="black"/>
<path d="M73.2135 37.9162C73.7117 38.5406 74.2701 39.1144 74.8807 39.6294C74.246 39.9912 73.9815 40.0894 73.98 40.3423C73.9843 40.4243 74.0158 40.5026 74.0697 40.5646C74.1151 40.6052 74.1701 40.6336 74.2295 40.647C74.2889 40.6604 74.3508 40.6584 74.4092 40.6413C74.7628 40.4821 75.1006 40.2898 75.418 40.0671C75.4853 40.0211 75.5404 39.9591 75.5782 39.8868C75.616 39.8145 75.6355 39.734 75.6349 39.6524C75.6288 39.3635 75.3597 39.1665 75.2164 39.063C74.6691 38.587 74.1609 38.0397 73.6067 37.5077C73.5379 37.4588 73.4558 37.432 73.3714 37.431C73.3147 37.431 73.2595 37.4489 73.2137 37.4822C73.1679 37.5155 73.1337 37.5624 73.1162 37.6163C73.0987 37.6702 73.0986 37.7282 73.1161 37.7821C73.1336 37.8359 73.1677 37.8829 73.2135 37.9162Z" fill="black"/>
<path d="M74.8701 40.4617C74.53 40.6471 74.1468 40.7388 73.7596 40.7272C73.3725 40.7156 72.9954 40.6012 72.6671 40.3958C72.6726 40.3507 72.6681 40.305 72.6539 40.2619C72.6397 40.2188 72.616 40.1794 72.5847 40.1466C72.5534 40.1137 72.5152 40.0882 72.4728 40.0719C72.4305 40.0557 72.385 40.049 72.3397 40.0524C72.1703 40.0524 72.1098 40.1375 71.7825 40.4249C71.7396 40.4644 71.7091 40.5156 71.6947 40.5722C71.6804 40.6288 71.6829 40.6883 71.7018 40.7435C71.7208 40.7987 71.7554 40.8472 71.8014 40.883C71.8474 40.9189 71.9029 40.9405 71.9611 40.9454C72.214 42.4922 73.6996 43.0411 74.634 42.1864C74.8747 41.9051 74.5665 41.4551 74.1587 41.7265C74.0209 41.8564 73.8411 41.9327 73.6519 41.9417C73.4627 41.9507 73.2765 41.8917 73.127 41.7755C72.8958 41.5827 72.7267 41.3259 72.641 41.0374C73.7663 41.5448 75.0793 41.1432 75.2418 40.8197C75.2693 40.7682 75.2791 40.7091 75.27 40.6515C75.2608 40.5939 75.2332 40.5408 75.1911 40.5003C75.1491 40.4598 75.095 40.4342 75.0371 40.4272C74.9791 40.4202 74.9205 40.4324 74.8701 40.4617Z" fill="black"/>
<path d="M71.4816 37.2884C71.9875 37.2386 71.9798 36.6997 71.661 36.6445C71.3924 36.6516 71.132 36.7383 70.9129 36.8938C70.6938 37.0493 70.526 37.2664 70.4307 37.5176C70.4134 37.565 70.4091 37.6161 70.4183 37.6657C70.4275 37.7153 70.4498 37.7615 70.4829 37.7996C70.516 37.8376 70.5587 37.8661 70.6065 37.882C70.6544 37.8979 70.7056 37.9007 70.7549 37.8901C70.9627 37.8419 70.8983 37.6602 71.2394 37.4187C71.314 37.3648 71.3955 37.321 71.4816 37.2884Z" fill="black"/>
<path d="M36.3464 62.8767C36.6584 62.682 36.3517 62.1332 36.029 62.3332C34.4806 63.3006 24.1018 69.7372 20.5045 72.0682C20.438 72.1195 20.3932 72.1941 20.3792 72.277C20.3652 72.3598 20.3829 72.445 20.4288 72.5154C20.4748 72.5857 20.5455 72.6362 20.627 72.6568C20.7085 72.6773 20.7948 72.6664 20.8686 72.6262C26.0618 69.5064 31.1738 66.1414 36.3464 62.8767Z" fill="black"/>
<path d="M30.4886 46.9597C30.5279 46.9618 30.5671 46.955 30.6034 46.9398C30.6396 46.9246 30.672 46.9014 30.6979 46.8719C30.7239 46.8423 30.7429 46.8073 30.7533 46.7694C30.7638 46.7315 30.7655 46.6917 30.7584 46.653C30.7638 46.6164 30.7615 46.5791 30.7517 46.5434C30.742 46.5077 30.7249 46.4744 30.7017 46.4456C30.6784 46.4168 30.6495 46.3931 30.6166 46.376C30.5838 46.359 30.5478 46.3489 30.5108 46.3464C24.0282 45.989 17.5279 46.1189 11.0647 46.7351C10.9953 46.745 10.9316 46.7792 10.885 46.8316C10.8384 46.884 10.8119 46.9512 10.8102 47.0213C10.8084 47.0915 10.8316 47.1599 10.8755 47.2146C10.9194 47.2692 10.9813 47.3066 11.0501 47.3199C11.0501 47.3199 29.8416 46.9512 30.4886 46.9597Z" fill="black"/>
<path d="M32.4648 20.7144C32.5024 20.7463 32.5466 20.7696 32.5943 20.7826C32.6419 20.7956 32.6918 20.7981 32.7404 20.7897C32.7891 20.7814 32.8353 20.7625 32.8759 20.7344C32.9165 20.7063 32.9504 20.6696 32.9753 20.627C32.9975 20.5682 33.0035 20.5046 32.9927 20.4427C32.9819 20.3808 32.9547 20.323 32.914 20.2752C30.2779 17.5149 27.4118 14.7171 24.161 11.733C24.1304 11.7048 24.0938 11.6841 24.0539 11.6725C24.014 11.6609 23.9719 11.6588 23.9311 11.6662C23.8902 11.6736 23.8516 11.6904 23.8183 11.7153C23.7851 11.7402 23.758 11.7725 23.7394 11.8096C23.5201 12.2481 23.3093 11.5068 32.4648 20.7144Z" fill="black"/>
<path d="M44.0394 9.95321C46.398 14.4359 46.3658 14.4673 46.6211 14.4673H46.6908C46.7395 14.467 46.7872 14.4534 46.8288 14.4281C46.8705 14.4027 46.9044 14.3666 46.9271 14.3234C46.9497 14.2803 46.9603 14.2318 46.9575 14.1832C46.9548 14.1346 46.9389 14.0876 46.9116 14.0473C46.5176 13.1903 46.0477 12.3509 45.5939 11.5376C45.446 11.2739 43.683 8.02769 43.3595 7.43976C43.3338 7.39154 43.2944 7.35207 43.2462 7.3264C43.198 7.30073 43.1432 7.29002 43.0889 7.29565C43.0429 7.2959 42.9977 7.30796 42.9576 7.33066C42.9176 7.35337 42.884 7.38597 42.8602 7.42535C42.8363 7.46473 42.823 7.50956 42.8214 7.55557C42.8199 7.60157 42.8301 7.64721 42.8513 7.68812C43.2422 8.44238 43.6423 9.19818 44.0394 9.95321Z" fill="black"/>
<path d="M81.9335 15.6148C82.3398 15.4561 81.7725 15.7987 84.693 3.92594C84.7035 3.8705 84.6985 3.81325 84.6786 3.76048C84.6586 3.7077 84.6245 3.66145 84.58 3.62682C84.5354 3.59219 84.4822 3.57052 84.4261 3.56419C84.3701 3.55786 84.3134 3.56713 84.2622 3.59096C84.1792 3.63184 84.1156 3.70369 84.0851 3.79103C83.044 7.58776 82.2037 11.4367 81.5679 15.3219C81.5597 15.3691 81.5644 15.4175 81.5813 15.4623C81.5983 15.507 81.6269 15.5464 81.6643 15.5763C81.7016 15.6062 81.7463 15.6255 81.7936 15.6323C81.841 15.6391 81.8893 15.633 81.9335 15.6148Z" fill="black"/>
<path d="M109.397 24.7786C110.243 23.6687 111.227 22.6717 112.326 21.8121C112.326 21.8121 121.032 14.1759 122.71 12.6766C122.997 12.429 122.717 11.9231 122.27 12.1807C120.719 13.5152 111.756 21.4557 111.756 21.4557C110.675 22.3083 109.715 23.3042 108.902 24.416C108.859 24.4895 108.846 24.5765 108.865 24.6595C108.883 24.7426 108.933 24.8155 109.003 24.8637C109.069 24.8926 109.143 24.9 109.214 24.8848C109.285 24.8695 109.349 24.8323 109.397 24.7786Z" fill="black"/>
<path d="M118.025 36.849C117.924 36.8866 117.882 36.9924 117.851 37.115C117.839 37.1626 117.84 37.2126 117.855 37.2596C117.869 37.3066 117.896 37.3487 117.933 37.3813C117.969 37.414 118.014 37.4359 118.063 37.4448C118.111 37.4537 118.161 37.4491 118.207 37.4316C123.697 35.3382 124.66 35.1941 127.143 34.3417C127.218 34.3041 127.278 34.2423 127.314 34.1662C127.336 34.1145 127.343 34.0577 127.335 34.0021C127.327 33.9465 127.304 33.8941 127.268 33.8508C127.233 33.8074 127.186 33.7747 127.132 33.7563C127.079 33.7378 127.022 33.7343 126.967 33.7461C124.8 34.3402 120.108 36.0664 118.025 36.849Z" fill="black"/>
<path d="M142.319 63.0852C142.141 63.0155 118.432 62.1293 116.687 62.1654C116.64 62.1665 116.595 62.1799 116.554 62.2042C116.514 62.2285 116.481 62.263 116.459 62.3041C116.436 62.3453 116.424 62.3916 116.425 62.4385C116.426 62.4855 116.439 62.5314 116.464 62.5716C116.484 62.6202 116.518 62.662 116.562 62.6921C116.605 62.7222 116.656 62.7394 116.709 62.7418C118.972 62.8185 141.144 63.7099 142.199 63.7099C142.274 63.7086 142.345 63.6816 142.402 63.6336C142.459 63.5855 142.498 63.5193 142.512 63.4461C142.526 63.3728 142.515 63.297 142.479 63.2313C142.444 63.1656 142.387 63.114 142.319 63.0852Z" fill="black"/>
<path d="M133.488 78.9211C133.423 78.8444 133.788 79.0284 127.45 76.1056C127.799 75.4801 128.161 74.86 128.535 74.2452C128.562 74.1694 128.564 74.0864 128.54 74.0093C128.516 73.9322 128.467 73.8652 128.401 73.8189C128.335 73.7725 128.255 73.7493 128.174 73.753C128.093 73.7566 128.016 73.7869 127.954 73.839L125.337 75.2026C120.507 72.9467 116.068 71.0067 111.787 69.2789C110.042 68.5767 105.412 66.7493 105.397 66.7394L105.391 66.7509C105.111 66.6696 105.084 66.7302 105.024 66.8766C104.917 67.1426 104.932 67.1372 106.001 67.5726C101.774 75.7484 97.799 82.3444 93.104 91.972C92.4043 92.2982 91.8343 92.8496 91.4851 93.5381C91.0121 94.7377 92.2087 94.7446 86.8859 71.6252C84.8592 62.8209 85.0171 63.3153 84.9128 63.2294C84.8673 63.1916 84.8123 63.167 84.7538 63.1582C84.6953 63.1495 84.6355 63.1568 84.5809 63.1796C84.5809 63.1796 80.8863 63.8534 79.5418 64.1316C79.4267 63.2283 79.5359 62.3106 79.8599 61.4595C79.9124 61.5083 79.9798 61.538 80.0513 61.5438C80.1228 61.5497 80.1941 61.5313 80.2539 61.4917C81.5289 60.7746 82.7052 59.8946 83.7531 58.874C84.3049 58.3984 84.7733 57.8339 85.139 57.2037C85.3042 56.6053 85.2262 55.9658 84.922 55.4246C84.4084 53.9605 83.7937 52.5339 83.0824 51.155C91.1633 46.0501 98.2424 39.5103 103.97 31.8584C104.182 31.8845 105.531 32.0516 105.626 32.0516C106.292 32.0516 106.569 31.413 106.171 31.016C106.456 31.0068 106.898 30.9455 106.984 30.5277C107.003 30.4116 106.986 30.2923 106.935 30.1862C106.884 30.0801 106.802 29.9922 106.699 29.9344C106.737 29.8752 106.762 29.809 106.774 29.7399C106.785 29.6707 106.783 29.5999 106.767 29.5317C106.75 29.4634 106.721 29.3991 106.679 29.3426C106.638 29.286 106.585 29.2384 106.525 29.2024C106.025 28.8971 105.437 28.7667 104.854 28.8314C104.923 28.7652 104.974 28.6832 105.003 28.5924C105.033 28.5017 105.039 28.4051 105.022 28.3113C105.005 28.2174 104.965 28.1293 104.906 28.0546C104.847 27.9799 104.77 27.921 104.682 27.8832C104.45 27.8091 104.197 27.8295 103.98 27.9399C103.204 28.1748 102.532 28.6662 102.072 29.3334C101.758 29.3971 95.4603 32.2984 91.341 34.5229C87.2707 36.7243 78.1651 42.2487 74.6352 44.4663C74.5877 44.3513 74.5325 44.2141 74.5011 44.1137C74.6697 44.0635 74.8353 44.0036 74.997 43.9343C76.55 43.0283 77.0475 41.0008 76.7133 39.3428C76.6895 39.2179 76.6519 39.0975 76.6251 38.9733C77.0357 38.4219 77.3708 37.8182 77.6216 37.1781C77.6556 36.8544 77.625 36.5271 77.5316 36.2152C77.4382 35.9034 77.2838 35.6132 77.0774 35.3614C76.9326 35.1741 76.8519 34.9451 76.8474 34.7084C76.9011 34.2385 77.6906 33.797 77.154 32.8319C76.9738 32.4999 76.7322 32.2052 76.4419 31.9634C75.4407 30.9109 74.2087 30.1053 72.8431 29.6102C71.5729 29.1564 70.1848 29.1564 68.9146 29.6102C68.3547 29.9136 67.814 30.2513 67.2957 30.6212C66.7799 30.8844 66.2381 31.093 65.6791 31.2436C65.037 31.507 64.4735 31.9312 64.0428 32.4752C63.612 33.0193 63.3284 33.6651 63.2193 34.3504C62.9655 35.76 63.5749 37.1099 63.4055 38.4897C63.2714 39.5766 62.0718 40.2795 60.9158 40.8237C60.5328 40.968 60.164 41.1476 59.8143 41.3603C49.7605 37.9876 40.5476 35.3093 34.7879 33.8383C34.7118 33.8058 34.626 33.8042 34.5487 33.8337C34.2718 33.3314 33.9067 32.883 33.471 32.51C33.3772 32.4461 33.269 32.4068 33.1561 32.3955C33.0432 32.3843 32.9293 32.4015 32.8248 32.4456C32.4806 32.6226 32.5504 33.0657 32.6554 33.4375C32.0803 33.1884 31.4442 33.1164 30.828 33.2305C30.745 33.2452 30.6671 33.2809 30.6017 33.334C30.5363 33.3872 30.4855 33.4561 30.4541 33.5343C30.4226 33.6125 30.4116 33.6974 30.422 33.781C30.4325 33.8647 30.464 33.9443 30.5137 34.0124C30.3938 34.0417 30.286 34.1077 30.2054 34.2012C30.1248 34.2947 30.0754 34.411 30.064 34.5339C30.0526 34.6568 30.0798 34.7802 30.1419 34.8869C30.204 34.9936 30.2978 35.0783 30.4102 35.1292C30.2969 35.2277 30.2246 35.3651 30.2078 35.5142C30.1909 35.6634 30.2306 35.8135 30.319 35.9348C30.7475 36.5526 31.3408 36.105 33.2318 37.139C33.2249 37.1827 33.2096 37.2211 33.2027 37.2647C33.2027 38.1217 33.9294 38.5862 34.5127 38.9603C40.5576 42.8374 46.1831 46.3865 55.9434 51.7238C55.1385 53.4815 54.2493 55.2215 53.2889 56.8971C53.2554 56.9629 53.2435 57.0375 53.2548 57.1104C53.2661 57.1833 53.3 57.2508 53.3517 57.3034C55.6881 59.2102 58.2493 60.8238 60.9779 62.108C61.4246 62.4062 61.9321 62.6012 62.4635 62.6791C62.6778 62.6835 62.8864 62.6093 63.0499 62.4706C63.1265 62.3809 63.1901 62.2843 63.2591 62.19C63.2814 62.1992 63.3044 62.2061 63.3266 62.2153C63.4209 64.3332 62.2803 66.0365 61.1665 67.8616C53.8561 69.4475 46.4706 71.1515 39.1671 72.9452C39.0879 72.9808 39.0243 73.0439 38.9882 73.1229C38.9521 73.2019 38.9459 73.2913 38.9708 73.3745C40.8703 78.5056 42.6004 83.7104 44.4132 89.0017C44.3366 88.9711 26.0096 81.7542 22.6338 80.8543C22.2053 80.4059 21.4472 81.2092 22.1064 81.3678C28.2524 89.9928 34.8147 101.435 43.4926 116.015C40.578 115.448 37.5631 115.702 34.7848 116.75C32.5902 117.598 30.168 119.548 30.5689 122.256C30.9621 124.939 33.8995 126.364 36.0948 127.326C39.1972 128.644 42.1637 130.261 44.9521 132.155C47.6669 134.093 49.7622 136.777 50.9847 139.88C50.922 139.917 50.8743 139.975 50.8498 140.043C50.4159 141.379 49.5237 145.462 49.1833 147.004C48.9709 147.757 48.8212 148.526 48.7357 149.304C48.7364 149.383 48.7658 149.459 48.8184 149.517C48.8709 149.576 48.943 149.613 49.0213 149.623C49.0995 149.632 49.1784 149.613 49.2434 149.568C49.3083 149.524 49.3548 149.457 49.3742 149.381C49.6003 148.623 49.7726 147.849 49.8901 147.067C50.0526 146.307 51.1978 141.361 51.3465 140.698C63.381 145.409 76.3607 146.071 89.0966 143.342C89.8643 143.274 90.612 143.061 91.2996 142.713C91.4751 143.219 93.7716 149.503 93.7716 149.503C93.8028 149.59 93.8674 149.661 93.951 149.701C94.0347 149.741 94.1307 149.745 94.2178 149.714C94.3049 149.683 94.376 149.618 94.4156 149.535C94.4551 149.451 94.4598 149.355 94.4286 149.268C94.4286 149.268 92.0968 142.959 91.7756 142.194C92.0152 141.831 92.1499 141.408 92.165 140.973C92.5736 138.656 93.4612 136.451 94.7711 134.497C96.081 132.544 97.7843 130.885 99.772 129.628C104.745 126.475 108.263 125.671 113.779 123.761C115.326 123.297 116.836 122.714 118.294 122.018C120.572 120.904 122.724 118.61 121.423 116.067C120.158 113.592 116.484 112.609 113.613 112.746C113.144 112.773 112.676 112.828 112.213 112.911C119.863 102.04 125.741 90.7586 133.489 79.345C133.539 79.2853 133.566 79.2102 133.565 79.1327C133.565 79.0553 133.538 78.9804 133.488 78.9211ZM106.624 67.9145C106.701 67.9145 113.491 70.6242 116.916 72.1066C118.545 72.8118 123.728 75.1352 124.664 75.5506L94.1342 91.447C97.4885 84.6762 106.575 67.9911 106.624 67.9145ZM91.436 95.9442C91.4789 95.9056 91.5129 95.8582 91.5359 95.8053C91.5589 95.7524 91.5703 95.6952 91.5694 95.6376C91.5694 95.6061 91.5602 95.574 91.5564 95.5425C91.9695 94.1697 92.119 93.2299 93.3569 92.6098C94.6976 91.9383 127.188 74.9949 127.265 74.9543C125.389 78.3233 123.757 81.8226 122.381 85.4251C121.998 86.3633 110.562 113.686 109.963 114.864C109.326 115.956 107.998 116.482 106.882 117.097C97.1413 122.469 87.6126 127.57 78.277 133.365C83.3047 120.968 87.4884 108.725 91.4383 95.945L91.436 95.9442ZM71.4771 64.9334C71.5386 65.1278 71.6414 65.3065 71.7785 65.4573C71.9156 65.6081 72.0837 65.7275 72.2712 65.8073C71.2027 65.9079 70.1267 65.8979 69.0602 65.7774C68.0596 65.5691 67.07 65.3107 66.0953 65.0032L66.454 63.1781C68.1563 63.5717 69.895 63.7864 71.6419 63.8189C71.4668 64.1625 71.4089 64.5539 71.4771 64.9334ZM74.4298 64.6774C74.6121 64.6574 74.7932 64.628 74.9725 64.5893C74.8127 64.793 74.6087 64.9578 74.376 65.0712C74.1432 65.1846 73.8877 65.2437 73.6288 65.2439C73.2501 65.2899 72.5456 65.3765 72.2659 65.0384C72.1444 64.8506 72.089 64.6277 72.1084 64.4049C72.1279 64.1821 72.221 63.9721 72.3732 63.8082C73.1068 63.7933 73.8381 63.72 74.5601 63.5889C74.5716 63.5889 74.5831 63.6043 74.5946 63.605C74.7441 63.6226 74.8812 63.6966 74.9778 63.812L74.3646 63.9162C74.2698 63.9323 74.1845 63.9833 74.1256 64.0593C74.0667 64.1353 74.0385 64.2307 74.0466 64.3265C74.0547 64.4222 74.0985 64.5115 74.1694 64.5765C74.2402 64.6415 74.3329 64.6775 74.429 64.6774H74.4298ZM71.5231 79.8241C71.5829 79.588 71.7784 79.0031 71.9968 78.8843C72.9435 74.627 73.6311 71.0113 72.9074 66.8352C72.8901 66.735 72.9132 66.6319 72.9718 66.5488C73.0304 66.4656 73.1196 66.4091 73.2198 66.3918C73.32 66.3744 73.4231 66.3975 73.5062 66.4561C73.5894 66.5147 73.6459 66.6039 73.6632 66.7041C73.9361 68.4979 74.0214 70.3151 73.9177 72.1266C74.1621 71.9773 74.3699 71.7749 74.5255 71.5345C74.6811 71.2941 74.7807 71.0217 74.8169 70.7376C74.9074 69.359 74.8279 67.9744 74.58 66.6152C74.57 66.5652 74.57 66.5137 74.5801 66.4637C74.5902 66.4138 74.6102 66.3663 74.6388 66.3241C74.6675 66.282 74.7043 66.246 74.7471 66.2182C74.7899 66.1904 74.8377 66.1715 74.8879 66.1625C74.9381 66.1534 74.9896 66.1545 75.0393 66.1656C75.0891 66.1768 75.1361 66.1977 75.1777 66.2272C75.2193 66.2567 75.2545 66.2943 75.2814 66.3376C75.3083 66.3809 75.3263 66.4292 75.3343 66.4795C75.6001 67.9198 75.681 69.388 75.575 70.8488C75.5114 71.3351 75.3155 71.7947 75.0085 72.1772C74.7015 72.5598 74.2952 72.8507 73.8342 73.018C73.6334 74.709 73.1742 77.0308 72.7886 78.8291C72.8099 78.8346 72.8309 78.8412 72.8515 78.849C73.1757 78.9786 73.2156 79.959 73.2892 80.2909C74.7318 86.9306 75.7635 88.9527 81.5754 104.069C80.2355 104.529 81.4121 104.217 73.5268 107.218C72.0604 107.776 66.8503 109.628 65.7258 110.039C65.2437 108.998 62.7839 103.677 62.0204 102.042C63.0782 99.9286 66.6418 91.7083 67.1316 90.5141C68.854 86.3173 66.6227 91.9513 71.5231 79.8241ZM75.4976 63.3873C76.0432 63.2453 76.5796 63.0694 77.1034 62.8607L77.187 64.6904C76.5377 64.9204 75.89 65.132 75.2461 65.2983C75.5291 65.0756 75.7139 64.7511 75.7608 64.394C75.8078 64.0369 75.7133 63.6757 75.4976 63.3873ZM81.7931 104.639C82.8762 107.452 83.9715 110.262 85.1052 113.057C85.1436 113.231 81.9502 122.172 77.5059 133.707C73.5375 126.781 69.5677 118.318 65.9596 110.544C70.2706 109.116 80.4723 105.245 81.7931 104.639ZM84.1134 63.8856C84.2043 63.8569 84.2966 63.8331 84.3901 63.8143C84.4616 64.0041 84.5172 64.1994 84.5564 64.3984C87.2124 76.2206 89.6316 85.7194 90.842 95.3586C90.7415 95.6751 90.6618 95.994 90.5737 96.3121C90.4955 94.2354 90.2317 92.1698 89.7857 90.14C87.6969 79.7919 85.0623 73.7516 81.6382 68.405C80.7727 67.2897 80.1013 66.0365 79.6521 64.6981C79.9365 64.6498 83.8397 63.9668 84.1134 63.8856ZM80.0722 68.0402C80.1359 68.0099 80.2054 67.9937 80.2759 67.9928C80.3464 67.9919 80.4163 68.0062 80.4808 68.0348C80.5536 68.0722 80.6126 68.1318 80.6491 68.2051C80.6856 68.2784 80.6976 68.3615 80.6835 68.4421C80.6694 68.5227 80.6298 68.5967 80.5705 68.6532C80.5113 68.7098 80.4355 68.7458 80.3543 68.7561C78.2356 69.4368 77.0843 68.2073 76.6811 66.0771C76.6623 65.9772 76.6839 65.8739 76.7413 65.7899C76.7986 65.706 76.887 65.6483 76.9869 65.6294C77.0868 65.6106 77.1901 65.6323 77.2741 65.6897C77.358 65.747 77.4158 65.8354 77.4346 65.9353C77.7466 67.5841 78.4771 68.5622 80.0722 68.0402ZM78.8642 64.0197C78.5254 64.173 78.1873 64.3179 77.8493 64.4505C77.893 64.2206 77.8907 64.3417 77.686 62.6216C78.1321 62.4209 78.5671 62.1965 78.9891 61.9493C78.8192 62.6257 78.7768 63.3278 78.8642 64.0197ZM84.0183 54.9601C84.2882 55.4833 84.4725 56.0465 84.5641 56.6281C84.5641 57.1141 83.9616 57.6422 83.6159 58.017C82.6611 59.044 81.5677 59.9328 80.3673 60.6577C80.3543 60.5811 79.8062 57.7165 79.7901 57.6384C79.8162 57.5617 80.6939 50.0497 80.2562 47.7938C81.7947 50.0221 83.0579 52.4283 84.0183 54.9601ZM104.163 28.6681C103.545 29.1502 103.524 29.0552 103.463 29.2047C103.439 29.2713 103.435 29.3434 103.452 29.4122C103.468 29.481 103.504 29.5436 103.555 29.5925C103.597 29.6276 103.646 29.6528 103.699 29.666C103.752 29.6793 103.808 29.6804 103.861 29.6692C104.233 29.5708 104.619 29.5376 105.002 29.5711C104.846 29.5918 104.692 29.6259 104.542 29.673C104.459 29.6957 104.387 29.7487 104.34 29.8215C104.293 29.8944 104.275 29.982 104.29 30.0673C104.304 30.1526 104.35 30.2296 104.418 30.2832C104.485 30.3368 104.571 30.3633 104.657 30.3575C104.996 30.3104 105.34 30.3104 105.68 30.3575C105.828 30.3614 105.729 30.3644 104.683 30.4035C104.086 30.2686 103.97 31.0466 104.453 31.1064C104.711 31.1534 104.965 31.2195 105.214 31.3042C105.008 31.2804 104.107 31.1662 103.855 31.1394C103.5 30.6066 103.092 30.1119 102.636 29.6631C103.048 29.2037 103.576 28.8622 104.163 28.6735V28.6681ZM97.579 32.1091C97.6557 32.0723 102.006 30.0287 102.083 30.0586C102.547 30.5498 102.959 31.0866 103.315 31.6606C103.209 31.7981 103.095 31.9299 102.975 32.0554C97.3761 39.3652 90.5276 45.6267 82.7466 50.5502C82.1373 49.4154 81.4634 48.3165 80.7284 47.2588C80.6946 47.2098 80.6487 47.1705 80.5951 47.1446C80.5416 47.1187 80.4823 47.1071 80.4229 47.1111C80.3636 47.115 80.3063 47.1343 80.2566 47.167C80.207 47.1998 80.1667 47.2449 80.1397 47.2979C79.9718 46.4862 79.5969 45.7318 79.0513 45.1079C78.5057 44.484 77.808 44.0119 77.026 43.7373C83.6358 39.6916 90.4717 35.5102 97.579 32.1091ZM76.2695 44.2011C78.986 44.4456 79.7457 47.5738 79.7648 49.389C79.7648 50.6077 79.6751 51.3329 79.3363 55.5726C78.6843 52.5968 77.8268 49.6698 76.77 46.8126C76.5612 45.9955 76.1556 45.2418 75.5888 44.6173L76.2695 44.2011ZM74.5248 45.229C74.6942 45.1784 74.6697 45.1792 75.0415 44.9523C75.7267 45.7604 76.2073 46.7216 76.4427 47.7547C76.7347 48.6654 77.2399 50.0543 77.939 52.6046C78.6694 55.2708 79.2465 57.9768 79.6675 60.7091C77.4846 62.2709 74.8811 63.1371 72.1976 63.1942C67.2658 63.3092 63.9406 61.6174 63.5811 61.6979C64.4241 60.3276 65.167 58.8981 65.804 57.4207C67.4412 53.6447 68.3868 49.6053 68.5957 45.495C68.6179 45.4467 68.6908 45.2773 68.7053 45.2405C73.9982 47.2105 68.8709 45.2964 72.2896 46.5773C72.3228 46.591 72.3585 46.5978 72.3944 46.5974C72.4303 46.5971 72.4658 46.5895 72.4987 46.5751C72.5317 46.5608 72.5614 46.54 72.5861 46.5139C72.6109 46.4879 72.6301 46.4571 72.6427 46.4235C72.6554 46.3899 72.6611 46.354 72.6597 46.3182C72.6582 46.2823 72.6495 46.247 72.6342 46.2145C72.6188 46.1821 72.5971 46.153 72.5703 46.1291C72.5435 46.1051 72.5122 46.0868 72.4782 46.0752C69.4121 44.9254 69.8628 45.1071 69.7049 44.9983C69.6941 44.9156 69.6783 44.8337 69.6574 44.753C69.6574 44.7292 69.6459 44.7116 69.6428 44.6894C70.4302 45.14 71.3077 45.4107 72.2122 45.4819C72.7349 45.5885 73.2679 45.6365 73.8012 45.6253C73.9439 45.6209 74.0835 45.5827 74.2085 45.5138C74.3335 45.4449 74.4404 45.3473 74.5202 45.229H74.5248ZM65.4675 64.8001C64.9169 64.6252 64.3824 64.4031 63.87 64.1362C64.0167 63.5939 64.0606 63.029 63.9996 62.4706C64.5783 62.6737 65.1663 62.8492 65.7626 63.0033C65.456 64.4383 65.4253 64.4651 65.4675 64.8001ZM66.4579 39.9407C66.7338 38.9733 68.2715 39.7659 68.3474 40.5179C68.3422 40.7297 68.3868 40.9397 68.4777 41.1311C68.6064 41.3136 68.7184 41.2729 68.9981 41.6064C69.2174 41.867 69.6114 42.3369 69.7302 42.018C69.8426 41.5593 69.8009 41.0763 69.6114 40.6436C69.6289 40.2879 69.7658 39.9484 70 39.6801C70.5826 38.8024 69.9824 37.6748 70.5726 36.8401C71.2211 36.0199 71.7577 36.2568 72.6254 35.4764C72.7713 35.3427 72.878 35.1716 72.934 34.9817C72.9899 34.7918 72.9929 34.5902 72.9427 34.3987C73.535 34.7278 74.0783 35.138 74.557 35.6175C74.5884 35.6665 74.6191 35.7163 74.649 35.7662H74.639C74.4065 35.7991 74.1958 35.9208 74.0511 36.1057C73.8602 36.3495 74.2044 36.719 74.4344 36.5526C74.5144 36.4784 74.612 36.4256 74.718 36.3993C74.8106 36.3785 74.9071 36.3825 74.9978 36.4108H75.0062C75.1005 36.5963 75.1925 36.7834 75.2753 36.975C75.2234 36.9128 75.1565 36.865 75.0809 36.836C75.0053 36.807 74.9236 36.7978 74.8434 36.8094C74.7633 36.8209 74.6874 36.8527 74.6231 36.9018C74.5587 36.951 74.508 37.0157 74.4758 37.09C74.4294 37.2823 74.4399 37.4839 74.506 37.6704C74.5722 37.8568 74.6911 38.02 74.8483 38.1401C74.916 38.2013 75.0011 38.2398 75.0918 38.2501C75.1825 38.2604 75.2741 38.2421 75.3538 38.1977C75.4336 38.1534 75.4974 38.0851 75.5364 38.0026C75.5753 37.9201 75.5875 37.8275 75.5711 37.7377C76.0755 39.2171 76.343 41.0821 75.5765 42.3974C75.4083 42.6934 75.1785 42.9498 74.9027 43.1492C74.6268 43.3486 74.3113 43.4865 73.9775 43.5534C73.9299 43.5658 73.8853 43.5877 73.8464 43.6178C73.8074 43.6479 73.775 43.6856 73.751 43.7285C73.727 43.7715 73.712 43.8189 73.7068 43.8678C73.7016 43.9167 73.7063 43.9662 73.7207 44.0133C73.8602 44.4226 73.9507 44.6503 74.0273 44.8787C73.8894 45.0029 73.4348 44.9622 73.1842 44.9392C71.9019 44.9158 70.6451 44.5778 69.524 43.955C69.4121 43.8922 69.4788 44.0424 69.35 43.5771C69.2769 43.2207 69.1744 42.871 69.0434 42.5316C69.002 42.4427 68.851 41.9567 68.5068 42.1728C68.2043 42.2172 67.8956 42.1653 67.6243 42.0244C67.353 41.8835 67.1329 41.6608 66.9952 41.3879C66.8032 41.2022 66.6552 40.9757 66.5622 40.7253C66.4693 40.4749 66.4336 40.2067 66.4579 39.9407ZM67.7878 47.0894C67.4496 50.3613 66.6352 53.5663 65.3702 56.6028C65.4798 52.8376 65.2552 51.1244 65.2828 49.6273C66.4075 49.1269 67.3021 48.2206 67.7878 47.0894ZM33.3943 36.4507C32.841 36.1582 32.2501 35.9431 31.6382 35.8114C31.4117 35.77 31.1897 35.7071 30.9752 35.6236C31.3159 35.5974 31.6586 35.6337 31.9862 35.7309C32.0486 35.744 32.1135 35.7394 32.1733 35.7174C32.2332 35.6955 32.2857 35.6571 32.3249 35.6068C32.364 35.5565 32.3883 35.4961 32.3948 35.4327C32.4013 35.3693 32.3899 35.3053 32.3618 35.248C32.3547 35.1972 32.3331 35.1496 32.2997 35.1107C32.2663 35.0718 32.2224 35.0434 32.1732 35.0288C32.0086 34.9793 31.8405 34.9419 31.6704 34.9169L30.91 34.6639C31.079 34.6409 31.251 34.6555 31.4136 34.7068C31.6925 34.76 31.9673 34.8325 32.2361 34.9238C32.6845 35.0771 32.7941 34.3611 32.4538 34.2392C32.1773 34.1614 31.9154 34.0392 31.6781 33.8774C32.1738 33.9345 32.6436 34.1294 33.0341 34.4401C33.0841 34.5063 33.1569 34.5516 33.2384 34.5673C33.3198 34.583 33.4042 34.5679 33.4753 34.5251C33.5463 34.4822 33.599 34.4146 33.6231 34.3352C33.6472 34.2558 33.6411 34.1703 33.6059 34.0951C33.4832 33.8045 33.382 33.5053 33.3031 33.1998C33.6398 33.6049 33.9256 34.0497 34.154 34.5244L33.7124 35.6742C33.5845 35.9235 33.4781 36.1833 33.3943 36.4507ZM63.2791 60.8218C63.0951 61.136 62.7525 61.9271 62.4573 61.9915C62.1362 62.062 61.2186 61.5139 60.8331 61.3315C58.5264 60.2224 56.3523 58.8565 54.352 57.2597C54.07 57.0681 54.0117 56.9899 53.9987 57.0213C54.9469 55.4202 55.7918 53.76 56.5282 52.0511C56.5872 52.0825 56.6455 52.117 56.7053 52.1477C56.7849 52.1881 56.8772 52.1954 56.9621 52.1682C57.0471 52.1409 57.1179 52.0812 57.1591 52.0021C57.2001 51.9252 57.2089 51.8352 57.1836 51.7519C57.1583 51.6685 57.1009 51.5986 57.0242 51.5575C48.669 47.0825 42.7951 43.5388 34.83 38.4383C34.111 37.9784 33.7193 37.6679 33.9539 36.9819C34.1978 36.1585 34.5124 35.3578 34.8944 34.5888C34.9711 34.6018 43.0886 36.8738 43.9954 37.1383C50.6865 39.0408 54.8802 40.4405 59.0961 41.8517C58.7699 42.039 58.492 42.3 58.2847 42.6138C58.0773 42.9276 57.9462 43.2856 57.9018 43.6591C57.8605 44.5843 58.7703 45.6437 58.1318 46.434C57.6987 46.9828 56.752 46.8939 56.1772 47.3538C55.9962 47.546 55.8629 47.7779 55.7879 48.031C55.713 48.2841 55.6985 48.5513 55.7456 48.811C55.7927 49.0707 55.9002 49.3157 56.0592 49.5264C56.2183 49.737 56.4247 49.9073 56.6616 50.0236C56.6718 50.0319 56.6848 50.0357 56.6978 50.0344C56.7108 50.033 56.7227 50.0265 56.731 50.0164C56.7392 50.0062 56.7431 49.9932 56.7417 49.9802C56.7403 49.9672 56.7339 49.9552 56.7237 49.947C56.4424 49.6273 56.7237 49.0662 57.1269 48.9244C57.5675 48.8315 58.0263 48.882 58.4361 49.0685C59.9394 49.6466 61.526 49.9787 63.1349 50.052C63.6435 50.0682 64.1515 50.0033 64.6396 49.8596C64.6297 52.2305 64.9317 54.5354 64.6749 58.1573C64.2288 59.0994 63.7604 60 63.2791 60.8218ZM61.9062 68.6312C62.7593 68.7657 63.6329 68.61 64.387 68.189C65.1411 67.768 65.7322 67.1061 66.0654 66.3094C66.1093 66.2202 66.1862 66.1516 66.2797 66.118C66.3733 66.0845 66.4762 66.0885 66.5668 66.1294C66.6574 66.1703 66.7286 66.2448 66.7653 66.3371C66.802 66.4295 66.8015 66.5325 66.7637 66.6244C66.3615 67.5637 65.6609 68.3442 64.7703 68.845C63.8796 69.3458 62.8487 69.539 61.8372 69.3946C61.7869 69.3901 61.7379 69.3757 61.6932 69.3523C61.6484 69.3288 61.6087 69.2968 61.5763 69.258C61.5439 69.2192 61.5195 69.1744 61.5044 69.1262C61.4893 69.0779 61.4839 69.0272 61.4884 68.9769C61.493 68.9265 61.5074 68.8776 61.5308 68.8328C61.5543 68.7881 61.5863 68.7484 61.6251 68.716C61.6639 68.6836 61.7087 68.6592 61.7569 68.6441C61.8051 68.629 61.8559 68.6236 61.9062 68.6281V68.6312ZM40.1559 74.7059C39.7259 73.5393 39.696 73.6037 39.696 73.5132C40.09 73.3545 59.8596 68.842 60.7135 68.6557C56.644 75.7791 55.1615 84.7912 54.1604 92.9455C53.738 92.7715 47.7576 90.3462 45.1498 89.3045C43.7011 84.4899 42.0477 79.8371 40.1559 74.7059ZM23.1627 81.594C23.4693 81.7013 56.7452 94.7147 57.8467 95.285C58.8615 96.2048 68.979 120.009 76.2894 133.075C75.4256 132.573 74.5293 132.129 73.6065 131.746C71.4748 130.716 47.3651 119.828 46.4913 119.372C46.0291 119.089 31.1599 93.0858 23.1627 81.594ZM116.413 113.642C117.853 113.901 119.185 114.576 120.246 115.583C120.709 116.045 121 116.651 121.071 117.301C121.141 117.951 120.987 118.605 120.635 119.156C119.843 120.2 118.784 121.01 117.569 121.5C110.63 124.386 106.061 124.847 99.7291 128.728C97.5987 130.053 95.7635 131.802 94.3373 133.866C92.9112 135.93 91.9247 138.265 91.4391 140.726C91.4027 141.025 91.3377 141.32 91.2452 141.606C91.155 141.791 91.019 141.948 90.8503 142.065C90.6816 142.181 90.4858 142.253 90.2816 142.272C84.6061 143.584 78.7971 144.231 72.9718 144.2C65.7045 144.106 58.513 142.71 51.7389 140.076V140.066L51.7336 140.046C49.9706 133.815 43.9525 130.22 39.5802 128.059C35.9775 126.28 34.1724 125.844 32.3112 124.026C31.8854 123.606 31.5772 123.082 31.4174 122.505C31.2576 121.929 31.2518 121.321 31.4006 120.741C31.8716 119.53 32.7812 118.54 33.9485 117.969C36.6245 116.436 40.3698 116.057 44.0146 116.896C44.371 117.495 44.729 118.098 45.0878 118.678C45.3012 119.098 45.564 119.49 45.8704 119.848C46.0988 120.019 46.3504 120.158 46.6177 120.259C74.0534 132.725 73.8472 132.553 76.6221 134.127C77.1992 134.454 77.3763 134.78 78.0624 134.349C79.2382 133.61 83.6289 130.604 104.318 119.313C107.916 117.35 107.604 117.558 108.565 116.987C108.528 117.051 108.487 117.113 108.441 117.171C108.254 117.501 108.532 117.812 108.858 117.478L108.87 117.484C109.35 116.904 109.797 116.297 110.21 115.668C110.24 115.651 110.266 115.627 110.287 115.6C110.319 115.555 111.287 114.22 111.695 113.649C113.252 113.335 114.856 113.332 116.413 113.642ZM132.127 80.1782C124.547 91.5957 119.036 101.833 111.891 112.219C125.869 78.9142 125.509 79.6983 127.128 76.7096C133.26 79.5259 132.664 79.2177 132.741 79.289C132.57 79.6073 132.365 79.9057 132.129 80.179L132.127 80.1782Z" fill="black"/>
</svg>
