<svg width="154" height="154" viewBox="0 0 154 154" fill="none" xmlns="http://www.w3.org/2000/svg">
<path d="M110.46 59.9595C105.737 59.9595 102.258 60.411 98.5783 63.3714C94.373 66.755 89.983 76.2763 88.292 79.7564C87.9953 80.3697 87.9685 80.001 84.4155 78.6112C83.3891 78.2095 82.7291 78.1145 81.3447 77.548C81.094 77.446 81.7878 76.0839 81.8813 75.9045C88.6131 63.1798 92.2144 55.9374 107.052 57.0298C113.875 57.5318 125.822 60.5498 132.802 65.3545C140.606 70.7257 137.508 84.1296 135.281 93.1588C135.205 93.4654 135.23 93.5367 135.511 93.6954C142.788 97.8608 141.864 99.1716 142.234 97.4637C143.299 92.5478 145.102 85.8735 144.617 79.4552C144.179 73.6432 142.088 70.8552 140.095 68.561C133.289 60.7422 111.025 54.5293 100.741 55.2644C91.6134 55.9167 87.0141 62.1189 79.4153 77.0221C78.1973 79.4107 78.2394 78.1904 81.6498 79.4828C83.3807 80.1389 87.5975 81.741 89.0539 82.8817C97.2621 89.3069 94.3025 108.484 82.4976 115.706C77.2084 118.942 72.521 117.143 66.9221 115.002C66.2429 114.743 65.9194 114.424 65.921 114.749C65.9846 127.188 69.1535 127.517 81.022 132.993C83.6106 134.189 83.4244 134.204 83.7095 133.902C84.3327 133.265 85.0993 132.786 85.9448 132.504C86.7911 132.222 87.6917 132.147 88.5725 132.284C90.9649 132.56 95.5665 134.645 97.6945 135.766C102.447 138.264 104.344 138.464 104.853 140.771C105.727 144.747 102.486 149.539 99.3602 149.471C97.3411 149.427 98.865 149.592 93.3811 147.215C90.7288 146.065 85.7263 143.773 83.5355 141.888C81.2067 139.884 81.9848 138.031 81.4658 137.762C70.242 131.944 58.2877 130.889 60.8456 110.851C61.0204 109.479 60.181 109.807 59.2543 106.124C56.044 93.3688 66.709 77.0551 77.2306 78.4211C78.06 78.5284 84.0077 62.4646 92.7096 56.5169C99.7618 51.6946 114.683 55.095 124.699 58.6157C133.266 61.6268 139.191 64.8838 142.881 69.999C148.429 77.6906 145.371 89.8642 143.418 99.0681C143.134 100.403 147.88 102.324 147.306 109.57C147.016 113.191 146.146 116.743 144.729 120.088C142.163 125.826 137.743 132.937 131.473 133.396C127.21 133.707 118.389 132.476 115.393 129.739C105.703 120.886 114.446 92.7272 128.983 91.306C129.993 91.2232 131.008 91.3842 131.942 91.7767C133.475 92.3815 133.675 92.9809 133.791 92.5294C135.09 87.5085 136.883 79.3494 136.265 73.9674C136.003 71.3826 134.851 68.9691 133.005 67.1405C130.92 65.0448 121.999 60.8694 115.645 60.2079C113.924 60.0132 112.191 59.9303 110.46 59.9595ZM142.034 102.702C143.674 102.247 143.763 102.654 143.818 102.472C143.446 101.969 143.031 101.499 142.578 101.067C140.662 99.2038 140.394 98.7239 135.69 95.8463C134.505 95.1212 127.911 99.5257 124.292 108.494C121.926 114.361 120.655 122.216 123.261 127.948C124.708 131.131 124.464 131.2 128.122 131.623C129.998 131.841 132.016 132.139 133.743 131.332C143.962 126.561 149.877 103.1 143.183 103.646C138.2 104.053 131.729 117.096 133.218 126.036C133.249 126.126 133.26 126.222 133.251 126.316C133.242 126.411 133.214 126.503 133.167 126.586C133.121 126.669 133.058 126.741 132.981 126.798C132.905 126.855 132.818 126.895 132.725 126.916C132.632 126.937 132.536 126.938 132.443 126.919C132.349 126.901 132.261 126.862 132.184 126.808C132.106 126.753 132.041 126.682 131.992 126.601C131.944 126.519 131.913 126.428 131.902 126.334C130.127 118.564 136.336 104.279 142.033 102.702H142.034ZM60.5988 105.469C61.2373 108.202 62.7451 110.929 64.8409 112.174C65.4334 112.526 68.5203 114.239 69.2049 114.189C68.2497 112.971 67.5001 111.605 66.9857 110.146C64.43 102.388 67.2111 92.7809 72.5363 86.7474C77.6591 80.943 82.1657 81.3049 81.4988 80.9745C69.244 74.9601 57.6231 92.7287 60.598 105.469H60.5988ZM74.4772 110.262C77.8178 110.234 81.6337 105.227 82.6271 102.41C83.9671 98.6097 85.0947 95.5727 83.7141 91.9844C83.3523 91.0883 82.6877 90.3478 81.8368 89.8902C80.986 89.4326 80.0017 89.2869 79.055 89.4786C77.8285 89.7614 77.6492 90.0995 76.8412 91.0224C70.4206 98.3614 70.9902 110.292 74.4764 110.262H74.4772ZM89.2455 95.2591C89.2731 90.7648 87.2824 86.4047 82.9683 87.067C81.8683 87.2855 80.8204 87.7155 79.8844 88.3334C80.1995 88.5388 82.8464 87.8734 84.5604 90.9979C87.6527 96.6282 83.429 107.673 76.9524 110.637C76.1838 110.959 75.3764 111.18 74.5508 111.293C74.1675 111.416 75.6684 112.323 77.0336 112.439C82.4317 112.897 89.1896 104.091 89.2448 95.2591H89.2455ZM62.378 121.677C64.463 129.95 71.6709 131.542 81.9127 136.44C82.1634 136.56 82.1251 136.444 82.7168 135.278C82.9506 134.818 83.0901 135.355 75.4691 131.669C67.9975 128.051 65.4779 127.108 64.7474 117.163C64.489 113.656 65.1307 114.135 64.3319 113.65C62.4462 112.51 61.9311 111.259 61.8544 111.829C61.3579 115.114 61.5358 118.464 62.3772 121.677H62.378ZM103.162 140.066C102.852 139.793 102.455 139.639 102.042 139.633C101.628 139.627 101.227 139.768 100.908 140.031C97.4315 142.286 97.305 148.233 99.479 148.269C102.536 148.32 105.027 142.203 103.161 140.066H103.162Z" fill="black"/>
<path d="M41.7771 6.69208C26.722 6.9757 8.11096 18.1674 6.17776 34.0932C5.09462 43.0174 7.90552 52.1255 12.5079 56.9962C18.844 63.8317 27.3434 68.2732 36.573 69.5714C39.3364 69.9708 39.4989 69.6527 39.6668 70.108C44.1127 82.2194 52.3731 88.21 53.3044 87.4534C53.7115 87.123 53.2086 87.1315 52.0159 80.3245C50.9948 74.4988 50.7265 70.5894 50.564 69.4059C50.4529 68.5987 61.7288 68.0192 70.9826 58.4588C91.4496 37.3119 73.8311 6.0934 41.7771 6.69208ZM51.7736 67.4151C49.694 67.9149 49.4503 67.8467 49.4695 68.5979C49.699 74.343 50.5173 80.0493 51.9116 85.6275C51.1122 85.0403 50.3607 84.3903 49.6641 83.6843C46.0485 79.9351 43.1838 75.5293 41.2244 70.7036C39.7219 67.2296 41.3907 69.1905 34.0188 67.6696C14.9884 63.7464 4.59942 47.8152 7.56214 33.053C9.31291 24.3389 16.5445 17.4491 25.1751 12.7486C38.5215 5.48016 58.2694 7.80054 69.1751 17.9313C87.0143 34.501 77.6831 61.1854 51.7736 67.4151Z" fill="black"/>
<path d="M106.035 10.9831C106.002 10.5746 105.949 10.0058 106.336 9.93449C106.389 9.91555 106.445 9.90796 106.501 9.91233C106.557 9.9167 106.611 9.93288 106.661 9.95986C106.71 9.98684 106.753 10.0239 106.786 10.0687C106.82 10.1135 106.845 10.1649 106.857 10.2196C107.48 12.0295 107.447 14.7178 107.517 16.8449C107.523 17.0481 107.492 17.0481 109.121 16.2969C111.898 15.0144 112.975 14.497 113.03 14.4863C113.7 14.3575 112.07 15.6897 111.525 16.1021C108.911 18.0844 108.129 17.8054 108.819 18.2431C110.838 19.5263 111.094 19.6283 111.984 20.1426C112.48 20.4293 112.053 21.0318 111.407 20.9613C110.701 20.8847 110.802 20.8785 107.915 19.3431C107.2 18.9598 107.747 18.7866 107.252 23.3146C107.222 23.5867 106.579 24.3717 106.366 20.7451C106.322 19.997 106.248 19.2757 106.238 19.1783C104.658 19.9265 104.262 20.1089 103.696 20.3918C102.92 20.775 102.739 21.1805 102.301 20.9046C101.903 20.6539 102.016 19.9242 102.626 19.5095C104.385 18.3144 105.846 18.109 105.36 17.7886C102.624 15.9749 101.687 15.9695 101.666 15.446C101.628 14.5054 102.77 14.7829 103.609 15.2076C106.452 16.6426 106.261 16.8817 106.261 16.0385C106.134 16.0401 106.386 15.2919 106.035 10.9831Z" fill="black"/>
<path d="M39.1185 124.505C39.097 125.448 38.0951 126.033 37.8859 122.854C37.7916 121.42 37.7801 121.571 37.7149 121.426C37.4673 121.54 37.6835 121.393 34.7951 123.784C34.2011 124.275 33.8339 123.92 33.8868 123.43C33.9634 122.701 34.779 122.254 36.4164 120.679C36.5697 120.532 36.4593 120.466 35.3823 120.12C33.6691 119.569 33.5549 119.922 33.3065 119.544C32.9822 119.051 33.6668 118.566 34.4609 118.649C35.4868 118.712 36.4929 118.96 37.4313 119.379C37.718 119.478 37.6214 119.461 37.4704 117.02C37.4638 115.789 37.3478 114.562 37.1239 113.352C36.9024 112.365 37.9426 112.121 38.3918 114.169C39.005 116.95 38.6762 118.701 39.0686 118.38C42.5902 115.503 42.7941 115.253 42.9658 115.391C43.2824 115.644 39.2365 119.956 39.2204 119.974C38.9583 120.28 39.1284 120.155 40.7696 121.085C42.6952 122.175 42.6975 122.358 42.9535 122.191C43.2295 122.011 43.6273 123.824 40.3894 122.398C39.0725 121.818 39.1231 121.726 39.1215 122.034C39.1154 122.661 39.1307 123.992 39.1185 124.505Z" fill="black"/>
<path d="M20.749 86.2946C21.5593 83.801 24.1671 84.5162 24.4714 86.3161C24.5445 86.7668 24.4531 87.2283 24.2138 87.6169C23.9745 88.0055 23.6034 88.2953 23.1683 88.4325C22.8579 88.5406 22.5244 88.5636 22.2021 88.5C21.8798 88.4363 21.5801 88.2884 21.3339 88.0707C21.0877 87.853 20.9038 87.574 20.801 87.262C20.6982 86.95 20.6803 86.6158 20.749 86.2946ZM23.5009 86.5713C23.6795 85.1915 21.5961 85.3073 21.6083 86.4517C21.6229 87.7702 23.4879 88.0446 23.5009 86.5713Z" fill="black"/>
<path d="M30.3715 22.6637C15.4874 23.257 14.8612 22.4338 14.7462 23.7177C14.4396 27.1848 14.3023 40.7298 14.9853 42.9673C15.144 43.4871 15.5633 43.4273 15.8991 43.4273C32.6175 43.4273 32.629 42.7788 32.6689 44.4391C32.6911 45.3774 33.2001 58.6763 33.2415 59.2228C33.3181 60.2232 33.4477 60.5796 33.9628 60.7728C34.2059 60.8746 34.4659 60.9301 34.7294 60.936C39.7763 60.9031 52.892 60.5681 52.892 60.5681C53.0892 60.5442 53.2706 60.4479 53.4009 60.298C53.5312 60.1479 53.6011 59.9549 53.5972 59.7563C53.5788 58.5521 53.5336 43.9309 53.5374 43.9117C53.6087 43.4947 53.6984 43.2034 54.8666 43.1728C71.4486 42.7358 71.2386 43.1 71.3889 41.9225C71.4982 41.0201 71.5494 40.1117 71.5422 39.2028C71.5123 21.0356 71.4594 21.172 69.9385 21.1713C62.0032 21.1713 63.7533 21.4342 53.7582 21.4419C53.2469 21.4419 53.0269 21.3959 52.9219 20.6124C52.774 19.5124 52.5471 5.26305 52.5386 4.56319C52.5333 4.14235 52.3922 3.98214 51.9622 3.93538C50.1715 3.73838 36.0179 3.81963 33.5519 4.19677C32.3653 4.37845 32.1898 4.10326 32.1269 5.55663C32.1062 6.04109 32.0357 20.3457 32.0564 22.2674C32.0618 22.6085 31.7774 22.6078 30.3715 22.6637Z" fill="black"/>
</svg>
