<svg width="154" height="154" viewBox="0 0 154 154" fill="none" xmlns="http://www.w3.org/2000/svg">
<path d="M41.7599 112.732C41.4771 111.995 40.4323 111.718 39.6895 112.329C38.7719 113.084 38.6286 114.683 40.0275 114.963C41.1521 115.188 42.1685 113.796 41.7599 112.732Z" fill="black"/>
<path d="M81.1976 93.7144C79.8063 95.3494 78.4564 97.0197 77.2974 98.8341C73.8962 104.155 72.2696 110.518 67.6557 114.875C66.7742 115.707 65.9785 115.973 65.0563 116.281C62.7505 117.05 62.3144 117.562 61.6045 118.437C60.3719 119.957 59.1585 121.51 57.9726 123.082C55.1671 116.934 49.7928 112.076 43.3944 109.902C48.0864 104.349 48.1508 104.795 48.1179 101.853C48.0174 92.8857 51.8464 84.7358 57.6967 77.9832L57.7871 76.7261C51.3443 83.8581 47.2271 92.461 47.3544 102.03C47.3781 103.798 47.2348 104.169 46.1961 105.399L42.6056 109.648C41.9387 109.447 41.2618 109.275 40.5765 109.134C38.6847 108.745 38.0515 109.061 36.9952 109.947C36.9178 110.011 36.9807 109.942 29.7575 115.91C28.0373 116.415 26.5847 117.558 25.2969 118.573C19.6681 123.004 20.6347 122.166 18.3604 124.143C17.9135 124.532 17.7518 124.617 17.7495 124.845C17.7265 127.528 18.6302 130.558 20.437 133.851C26.8515 145.542 38.2225 150.973 49.1588 149.666C49.2845 149.651 49.3949 149.575 49.4532 149.463C51.6202 145.323 53.4768 141.696 54.5469 139.512C55.213 138.154 55.4185 137.44 54.99 135.869C56.3751 133.952 57.6062 131.924 58.6664 129.807C59.4413 128.262 59.8024 127.476 58.3252 123.891C59.5877 122.207 60.8832 120.545 62.2017 118.92C62.4792 118.578 62.7935 118.19 63.1737 117.948C64.9682 116.806 66.4691 117.052 68.1838 115.432C71.2017 112.583 72.9832 108.91 74.7447 105.258C77.3234 99.918 78.2755 98.3244 82.145 93.7887C81.83 93.7642 81.5149 93.7396 81.1991 93.7144H81.1976ZM58.5667 127.806C58.418 129.3 55.6017 133.67 54.7087 134.942C51.2201 124.048 42.9881 117.118 34.0003 115.779C33.2821 115.673 32.3108 115.563 31.2852 115.639C31.6685 115.321 37.3885 110.617 37.4866 110.535C38.3811 109.784 38.7828 109.546 40.4209 109.885C48.5778 111.567 55.7481 118.032 58.2655 125.97C58.4433 126.531 58.628 127.183 58.5659 127.807L58.5667 127.806Z" fill="black"/>
<path d="M59.6151 113.995C59.2909 113.995 59.11 113.611 59.3246 113.362C61.9293 110.333 63.7284 106.585 64.5287 102.523C64.5387 102.473 64.5617 102.38 64.5962 102.248C65.529 98.6254 65.608 95.2051 64.8315 92.0829C64.784 91.8928 64.8882 91.6974 65.0722 91.6307C67.8548 90.6173 73.16 89.1754 76.4102 86.9302C78.6938 85.3526 80.1954 83.2852 80.6377 81.109C80.9168 79.7369 80.3511 79.4487 79.0663 79.5981C73.8729 80.2029 67.8847 80.9917 62.5372 82.7103C58.3227 84.0648 54.8855 88.2264 52.362 91.7004C52.2378 91.8714 51.9987 91.9097 51.827 91.7855C51.656 91.6613 51.6177 91.4214 51.7419 91.2505C54.3343 87.6822 57.8773 83.4033 62.3026 81.9813C67.716 80.2413 73.748 79.4464 78.9774 78.8377C79.7294 78.7496 80.4975 78.7434 81.0218 79.2808C81.4442 79.7131 81.5676 80.38 81.3882 81.2623C80.906 83.634 79.2924 85.8708 76.8456 87.5618C73.5341 89.8492 68.3392 91.2788 65.6555 92.2355C66.3761 95.3898 66.2695 98.8209 65.3382 102.44C65.3098 102.551 65.2891 102.629 65.2807 102.672C64.4551 106.864 62.597 110.733 59.9064 113.862C59.8305 113.95 59.7232 113.996 59.6159 113.996L59.6151 113.995Z" fill="black"/>
<path d="M56.7188 85.9821C56.9847 85.7299 57.2546 85.4846 57.5305 85.2478C57.7429 81.7316 58.1675 75.1868 58.9456 64.8522C58.6888 64.82 58.4351 64.7885 58.1844 64.7563C57.342 75.9426 56.9127 82.699 56.7188 85.9821Z" fill="black"/>
<path d="M113.086 11.4488C113.001 8.70303 110.762 7.41295 108.469 7.20598C106.634 7.04041 105.128 6.29915 87.1876 4.69323C70.4699 3.19616 66.9185 3.46138 66.841 3.47288C65.3355 3.34104 64.0945 4.48243 63.981 5.82236C63.9734 5.85839 63.5939 7.66284 62.9263 12.8608C63.1792 12.8754 63.4353 12.8907 63.6928 12.906C64.3513 7.78624 64.7261 5.9956 64.7369 5.93734C64.8204 5.00598 65.5824 4.2287 66.6471 4.2287C76.9419 4.2287 101.133 6.59811 107.692 7.89969C108.659 7.98631 109.467 8.80191 109.391 9.95404C109.385 10.0552 108.947 20.3485 106.584 47.0336C104.22 73.7218 102.024 92.2939 102 92.4894C101.908 93.5242 100.992 94.2847 99.9652 94.1904C99.6455 94.1628 95.3835 94.487 79.5037 93.1916C73.5261 92.7033 69.0916 92.1874 65.9097 91.7412C65.6606 91.8271 65.4245 91.9099 65.2037 91.9904C65.242 92.1444 65.278 92.2978 65.311 92.4511C76.0987 93.9543 94.3985 95.17 99.9223 94.9562C102.584 95.1608 105.664 94.1758 105.891 91.5964C107.631 81.6557 113.298 18.2903 113.086 11.4488Z" fill="black"/>
<path d="M60.7227 83.0533C60.9818 82.9207 61.2439 82.798 61.5091 82.6861C61.7046 77.551 62.0181 71.5986 62.4305 65.2653L61.6701 65.1787C61.2178 72.0324 60.8905 78.2432 60.7227 83.0533Z" fill="black"/>
<path d="M103.64 11.599C96.4761 9.98003 77.2748 7.47647 70.1037 8.59334C68.6664 8.49063 67.407 9.64275 67.2744 11.1452C67.1609 11.783 67.0482 12.4437 66.9355 13.1267L67.7159 13.1857C67.8209 12.525 67.9267 11.878 68.034 11.2464C68.1298 10.1717 68.9654 9.35376 69.932 9.35376C70.9193 9.35376 74.3749 8.56345 86.2112 9.76923C96.7628 10.8447 103.406 12.331 103.521 12.3548C104.552 12.4468 105.308 13.4425 105.205 14.61C105.279 36.0243 101.002 67.0957 98.5979 88.3746C98.4668 89.5359 97.5485 90.35 96.5458 90.2595C96.0943 90.2227 92.9661 91.1932 79.6978 90.0043C77.0264 89.7651 74.7613 89.5083 72.8464 89.2507C72.3735 89.4531 71.8936 89.6463 71.413 89.831C80.2881 91.1127 92.4203 91.775 96.5328 91.0268C97.9992 91.1265 99.1912 89.9299 99.3598 88.4612C99.3759 88.3194 101.366 74.0728 103.682 52.614C106 31.1399 105.972 14.7687 105.971 14.6414C106.109 13.0884 105.042 11.7193 103.641 11.5967L103.64 11.599Z" fill="black"/>
<path d="M86.8911 8.0556C87.3418 8.0556 87.7075 7.6901 87.7075 7.23923C87.7075 6.78835 87.3418 6.42285 86.8911 6.42285C86.4403 6.42285 86.0747 6.78835 86.0747 7.23923C86.0747 7.6901 86.4403 8.0556 86.8911 8.0556Z" fill="black"/>
<path d="M79.7733 76.7046C77.666 76.7046 75.8424 77.9372 74.9839 79.7202C75.2989 79.6773 75.614 79.6359 75.9283 79.5952C76.7339 78.3197 78.1566 77.4711 79.7733 77.4711C82.2799 77.4711 84.3189 79.5102 84.3189 82.016C84.3189 85.2915 80.9476 87.4815 77.9673 86.1868C77.7596 86.3746 77.5457 86.5555 77.3265 86.7295C80.8288 88.5539 85.0855 86.0113 85.0855 82.016C85.0855 79.087 82.7023 76.7046 79.7733 76.7046Z" fill="black"/>
<path d="M91.8029 86.798C89.9264 86.798 88.3994 85.271 88.3994 83.3937C88.3994 81.5164 89.9264 79.9902 91.8029 79.9902C93.6794 79.9902 95.2071 81.5172 95.2071 83.3937C95.2071 85.2702 93.6802 86.798 91.8029 86.798ZM91.8029 80.7568C90.3488 80.7568 89.166 81.9396 89.166 83.3937C89.166 84.8479 90.3488 86.0314 91.8029 86.0314C93.257 86.0314 94.4406 84.8486 94.4406 83.3937C94.4406 81.9388 93.2578 80.7568 91.8029 80.7568Z" fill="black"/>
<path d="M65.7984 81.392C65.4557 79.7547 66.7075 78.2124 68.3801 78.2124C69.6557 78.2124 70.7227 79.123 70.9657 80.328C71.2179 80.2851 71.4701 80.2429 71.7223 80.2015C71.4187 78.634 70.0359 77.4458 68.3809 77.4458C66.2185 77.4458 64.5895 79.4496 65.0564 81.5813C65.3032 81.517 65.5516 81.4533 65.7999 81.392H65.7984Z" fill="black"/>
<path d="M74.0054 73.7714L66.0171 73.1237C65.5089 73.0823 65.5764 72.3134 66.0792 72.3594L74.036 73.0064C74.5212 73.0455 74.4921 73.7714 74.0054 73.7714Z" fill="black"/>
<path d="M81.8477 74.4092L77.3596 74.0459C76.8537 74.0053 76.9158 73.2372 77.4217 73.2816L81.8784 73.6435C82.3636 73.6825 82.3345 74.4092 81.8477 74.4092Z" fill="black"/>
<path d="M87.1385 74.8393L84.1497 74.5978C83.9389 74.581 83.7817 74.3955 83.7986 74.1847C83.8155 73.9739 84.001 73.8144 84.2118 73.8336L87.1691 74.0743C87.6544 74.1134 87.6252 74.8393 87.1385 74.8393Z" fill="black"/>
<path d="M96.043 75.5629L89.2391 75.011C88.7301 74.9696 88.7998 74.1992 89.3012 74.2467L96.0736 74.7971C96.5589 74.8362 96.5297 75.5629 96.043 75.5629Z" fill="black"/>
<path d="M50.1766 63.8352C48.4197 63.6826 47.0759 62.6969 47.174 61.6015C47.1702 61.5424 46.9686 51.3627 48.0954 36.9109C49.223 22.443 51.4284 13.9818 51.4506 13.8983C51.4897 13.397 51.9029 12.9163 52.602 12.609C53.2259 12.3353 54.0232 12.2241 54.8495 12.2985C63.6901 11.9313 88.2987 14.6855 97.2704 16.0975C99.0587 16.257 100.403 17.242 100.304 18.3374C100.314 18.3742 101.257 29.053 99.5133 42.9199C97.7725 56.7576 96.0508 65.9225 96.0339 66.0137C95.9412 67.067 94.4579 67.7944 92.6573 67.6426C84.4529 68.0489 56.7191 65.4289 50.1774 63.8344L50.1766 63.8352ZM54.8326 13.0635C54.1956 13.0099 53.4919 13.0559 52.9109 13.3111C52.4855 13.4982 52.2271 13.7603 52.2034 14.0309C52.1704 14.1781 49.9819 22.5795 48.8604 36.9707C47.7367 51.3818 47.9375 61.5271 47.9398 61.6275C47.8877 62.2323 48.8466 62.9506 50.3031 63.0809C61.274 65.3238 86.6897 67.2287 92.6404 66.8761C92.6596 66.8746 92.6787 66.8753 92.6979 66.8761C94.1528 67.0064 95.2252 66.4706 95.2758 65.9079C95.298 65.7799 97.0159 56.6365 98.7529 42.8241C100.486 29.0446 99.5509 18.4439 99.5417 18.3381C99.5915 17.7065 98.6333 16.9883 97.1769 16.8579C87.7613 15.4329 63.6487 12.6772 54.8334 13.0628L54.8326 13.0635Z" fill="black"/>
<path d="M75.6924 56.3937C75.3529 56.2634 75.0125 56.1086 74.6821 55.9399C76.1209 59.253 76.6499 62.8619 77.1941 66.5176C77.2225 66.7077 77.3865 66.8441 77.5728 66.8441C77.8112 66.8441 77.9867 66.6333 77.9522 66.4049C77.4233 62.8634 76.9603 59.6133 75.6924 56.3937Z" fill="black"/>
<path d="M72.6416 48.3439C73.3721 43.0685 75.0294 38.2921 79.8847 36.1565C79.7797 35.8967 79.595 35.6621 79.3382 35.4858C79.5996 34.8618 79.1481 33.7848 78.5034 33.5296C79.4371 32.4342 78.6237 31.2061 77.513 31.2038C77.6564 30.0962 76.3578 29.1832 75.3759 29.1625C75.4717 27.4002 73.9731 26.2588 72.5412 26.8629C72.2177 25.6724 70.8831 25.2271 69.7164 25.9016C69.038 24.1094 66.7116 23.7683 65.5495 25.293C64.3184 23.9446 62.3062 24.2221 61.6654 25.756C60.2679 24.9043 58.5355 25.8518 58.4957 27.4876C57.3589 27.3251 56.1661 28.3423 56.2642 29.5082C54.7288 29.7006 53.7998 31.3388 54.5656 32.7814C53.5284 32.9945 53.0923 33.8868 53.4755 34.6525C52.5963 34.8886 52.3679 35.8223 52.8079 36.4823C51.9486 36.9668 51.5492 37.9372 52.1057 38.7329C50.243 39.527 50.2376 41.9378 51.8773 42.4783C50.476 44.4284 52.5626 46.8445 54.4966 45.7307C54.6077 46.4306 55.0178 47.2048 55.707 47.3888C54.4391 48.0196 53.1996 48.9341 51.8006 50.2035C50.2108 51.647 48.0016 53.8991 47.1845 56.7836C47.127 56.9875 47.245 57.1991 47.4489 57.2566C48.5129 57.5601 47.0902 55.0205 53.3406 49.8831C53.8619 51.2982 54.4866 52.8267 55.5943 54.0041C57.0615 55.5633 59.519 56.5667 61.5925 56.9308L60.1913 64.8209C60.1545 65.0294 60.294 65.2279 60.5025 65.2647C60.7072 65.3023 60.9095 65.1651 60.9463 64.9535L62.3514 57.0396C66.3766 57.4934 69.9732 55.9059 72.1387 53.2613C72.1418 53.2069 72.2828 51.5787 72.3595 50.7953C71.4059 49.7099 70.345 48.7985 69.2067 48.0879C70.0292 47.7828 70.8233 47.3681 71.5684 46.8422C71.7148 47.5536 72.1249 48.0618 72.6424 48.3454L72.6416 48.3439ZM57.4823 46.3225C57.6571 45.8434 57.6417 45.3436 57.5789 44.886C58.0235 45.4348 58.5118 45.9262 59.0338 46.3593C56.7265 46.695 57.1979 47.1013 57.4823 46.3225ZM66.6012 48.6835C65.0857 50.6834 60.7969 50.918 60.8344 47.5574C62.6174 48.4888 64.6258 48.8713 66.6012 48.6835ZM71.7585 51.2706C71.9172 51.45 72.0728 51.6355 72.2254 51.8256C70.7911 54.0785 68.5605 55.5326 66.0952 56.0891C62.1973 56.9683 58.0012 55.4437 56.1508 53.4767C55.0861 52.3453 54.4866 50.7915 53.9723 49.3818C54.1409 49.2546 54.3149 49.1288 54.4927 49.0054C55.6311 51.7389 58.4711 52.9693 61.381 53.5219C65.2559 54.2571 68.864 53.9022 71.7585 51.2706ZM71.2365 50.7095C70.0246 51.8118 68.6969 52.5983 66.5904 52.9401C63.6982 53.4108 59.7229 52.6849 57.6111 51.3909C56.4314 50.6688 55.5644 49.6762 55.1466 48.5769C56.6184 47.6724 58.0334 47.1887 59.9383 47.0285C59.9897 47.0622 60.0418 47.096 60.0939 47.1289C59.6363 52.2257 66.4632 51.5948 67.5448 48.5486C67.7709 48.5056 67.9963 48.4543 68.2201 48.396C69.2971 48.9863 70.312 49.7643 71.2357 50.7087L71.2365 50.7095ZM58.4052 44.6775C59.6455 44.0589 59.67 42.502 58.6421 41.724C59.7222 40.8125 59.6601 39.5301 58.8705 38.8885C59.5183 38.2231 59.5826 37.5624 59.3159 37.0342C60.1545 36.7307 60.8053 36.2002 60.8796 35.3049C61.8639 35.5295 62.75 34.8626 62.678 33.7542C63.1218 33.8017 63.6201 33.745 63.8194 33.6637C64.2233 33.4997 64.5637 33.1593 64.7668 32.7546C65.3456 33.2107 66.2194 33.344 66.9162 33.0129C67.3056 33.7748 68.2684 34.2072 69.0963 33.9895C69.301 34.6433 69.9265 35.1516 70.5918 35.2428C70.6248 35.7135 70.9452 36.2255 71.1445 36.3957C71.3285 36.5528 71.5217 36.6433 71.7194 36.6954C71.2334 37.4244 71.2932 38.3113 71.8014 38.9744C69.9594 39.5577 69.5708 41.4166 70.6869 42.4047C69.278 43.4901 69.7111 45.5491 71.3293 46.0672C67.3447 49.0392 61.7183 48.4742 58.4052 44.6775Z" fill="black"/>
<path d="M63.0124 39.018C62.2389 38.5895 61.3022 38.4599 60.4406 38.6615C60.2344 38.709 60.0282 38.5818 59.9799 38.3756C59.9316 38.1694 60.0596 37.9632 60.2658 37.9149C61.3091 37.6696 62.4459 37.8275 63.3834 38.3465C63.8265 38.5918 63.4555 39.2625 63.0124 39.018Z" fill="black"/>
<path d="M70.6113 40.7399C69.959 40.3734 69.1902 40.2071 68.4451 40.2684C68.2335 40.2868 68.0488 40.1289 68.0311 39.9181C68.0135 39.7073 68.1706 39.5218 68.3814 39.5042C69.2783 39.4306 70.2028 39.6307 70.987 40.0714C71.4277 40.319 71.0521 40.9875 70.6113 40.7399Z" fill="black"/>
<path d="M62.7074 41.6032C62.5886 41.4276 62.6353 41.1892 62.8101 41.0712C62.9857 40.9524 63.2241 40.9991 63.3421 41.1739C64.1225 42.3298 65.7437 42.5728 66.8299 41.6798C66.9932 41.5449 67.2346 41.5687 67.3696 41.7319C67.5045 41.8952 67.4807 42.1367 67.3174 42.2716C65.8893 43.4467 63.743 43.1363 62.7074 41.6032Z" fill="black"/>
<path d="M88.3471 56.9469C85.5338 57.8759 82.3588 57.6552 79.6299 56.1826C74.5729 57.3294 70.5823 61.1713 68.9633 65.9684C68.8959 66.1692 69.6356 66.3731 69.69 66.2137C69.713 66.1447 69.7375 66.0749 69.7621 66.006C88.2865 67.6126 89.5644 67.9553 93.8685 66.9917C94.1269 66.9335 94.389 66.8691 94.6106 66.7242C95.0919 66.4092 95.315 65.9738 95.3648 65.4778C95.6477 65.5368 95.8876 65.2754 95.8117 65.001C94.7961 61.3277 91.9338 58.4386 88.3471 56.9469Z" fill="black"/>
<path d="M80.1678 48.018C79.7508 48.018 79.6351 47.4416 80.0199 47.2806C80.6615 47.0123 81.3384 46.8567 82.0328 46.8161C82.2413 46.81 82.4253 46.9656 82.4376 47.1764C82.4498 47.3872 82.2881 47.5688 82.0773 47.5811C80.9574 47.6455 80.3418 48.018 80.1678 48.018Z" fill="black"/>
<path d="M90.7072 49.4172C90.6267 49.4172 90.5446 49.3919 90.4757 49.339C89.9743 48.958 89.4163 48.6683 88.8161 48.4789C88.6145 48.4153 88.5026 48.1999 88.5662 47.9975C88.6298 47.7959 88.8452 47.6832 89.0476 47.7476C89.7321 47.9638 90.3683 48.2942 90.9402 48.7288C91.2315 48.9503 91.0728 49.4172 90.7072 49.4172Z" fill="black"/>
<path d="M83.0019 50.6881C82.8839 50.5125 82.9299 50.2741 83.1054 50.1561C83.281 50.0373 83.5194 50.084 83.6374 50.2596C84.3235 51.2776 85.7999 51.3082 86.5403 50.3631C86.6714 50.1967 86.9121 50.1676 87.0785 50.2979C87.2448 50.4282 87.2747 50.6697 87.1436 50.836C86.0743 52.2005 83.9709 52.1254 83.0019 50.6881Z" fill="black"/>
<path d="M96.171 42.3102C94.4623 38.4736 89.9696 35.0272 84.9234 34.8226C81.4586 34.68 77.9386 36.1334 75.7417 38.8171C72.6394 42.6077 72.1964 48.2426 71.7686 53.0565C71.6766 54.0906 71.83 54.5973 72.7874 55.2542C73.5248 55.7601 75.4197 56.9582 77.0762 57.1522C77.2824 57.1759 77.4687 57.0334 77.5001 56.8295C77.5737 56.3465 77.655 55.8651 77.7408 55.3845C81.5774 58.4522 86.8858 58.6998 90.9592 56.1311C90.878 56.8463 90.786 57.5722 90.6557 58.279C90.612 58.5143 90.7929 58.732 91.032 58.732C91.5288 58.732 92.9246 58.5136 94.1557 58.0828C95.1323 57.7409 95.4014 57.3553 95.6214 56.4002C95.9579 54.9468 96.2783 53.4628 96.5719 51.9902C97.2971 48.3514 97.5071 45.3128 96.171 42.3102ZM91.0711 55.1331C87.0736 57.9915 81.6341 57.7508 77.8987 54.5191L80.0389 43.0921C83.5099 42.9526 91.7725 44.4819 92.2363 44.5501C91.6054 52.8242 91.472 51.5495 91.0711 55.1331ZM94.8755 56.2277C94.7996 56.552 94.7306 56.8149 94.575 56.9904C94.1573 57.4634 92.1297 57.8421 91.495 57.9187C91.7465 56.3504 91.8415 54.7598 92.0937 53.2359C92.5851 50.277 93.0527 45.2944 93.0619 41.7384C93.0619 41.5268 92.8909 41.3543 92.6793 41.3543C92.4678 41.3543 92.2953 41.5261 92.2953 41.7369C92.2938 42.4244 92.2577 43.0423 92.2409 43.7766C91.7051 43.6969 91.1693 43.6034 90.6403 43.5076L91.0075 40.9649C91.0382 40.7557 90.8925 40.561 90.6825 40.5311C90.4763 40.5027 90.2793 40.6461 90.2486 40.8561L89.886 43.3696C89.0896 43.2224 88.274 43.0714 87.4446 42.9511C87.6416 41.8143 87.8179 40.6629 87.9681 39.5215C87.9957 39.3123 87.8478 39.1199 87.6378 39.0915C87.4254 39.0654 87.2353 39.2111 87.2077 39.4219C87.0575 40.5625 86.8819 41.7139 86.6842 42.8507C86.0173 42.7702 84.2427 42.5969 83.3635 42.5164L83.828 39.149C83.8571 38.9397 83.7107 38.7465 83.5007 38.7174C83.2906 38.6883 83.0975 38.8347 83.0691 39.0447L82.5992 42.449C81.779 42.3815 81.0906 42.3041 80.2037 42.3233C80.341 41.7123 80.5127 41.1075 80.7181 40.5173C80.7871 40.3172 80.6813 40.0987 80.4812 40.0297C80.2812 39.9608 80.0627 40.0658 79.993 40.2658C79.3766 42.0435 79.2946 42.8553 77.238 53.8775C77.0854 54.6946 76.9336 55.5125 76.801 56.3335C75.4005 56.043 73.856 55.0595 73.2212 54.6241C72.375 54.043 72.4716 53.8138 72.5712 52.6778C72.9767 48.0701 73.4336 42.8491 76.3334 39.3054C80.2505 34.5213 88.251 34.0714 93.4559 39.6572C97.7685 44.2879 96.4561 49.4016 94.874 56.23L94.8755 56.2277Z" fill="black"/>
<path d="M120.592 20.742C122.449 20.3825 124.92 19.4941 129.526 17.8284C129.959 17.672 130.364 17.5678 130.662 17.1998C130.777 17.0572 130.768 16.7698 130.539 16.7345C129.723 16.6088 128.815 17.1829 128.068 17.4811C123.419 19.3385 122.273 19.6351 120.513 20.5535C120.404 20.6102 120.483 20.7635 120.592 20.742Z" fill="black"/>
<path d="M121.022 27.4089C123.916 27.5277 125.426 27.31 133.647 27.1505C134.202 27.1398 134.853 27.2341 135.357 26.975C135.581 26.86 135.596 26.4729 135.357 26.3625C134.861 26.1326 134.279 26.236 133.743 26.2506C126.2 26.4499 123.171 26.5841 121.023 26.8715C120.689 26.916 120.665 27.3958 121.023 27.4104L121.022 27.4089Z" fill="black"/>
<path d="M121.032 33.6569C121.088 33.9589 121.431 34.0777 121.682 34.2042C122.518 34.6258 127.82 37.2374 128.959 37.6912C129.399 37.8668 129.697 37.1439 129.281 36.9278C128.235 36.3843 122.749 34.0655 121.889 33.7128C121.628 33.6063 121.325 33.43 121.06 33.5864C121.035 33.6017 121.025 33.6293 121.031 33.6577L121.032 33.6569Z" fill="black"/>
</svg>
