<svg width="154" height="154" viewBox="0 0 154 154" fill="none" xmlns="http://www.w3.org/2000/svg">
<path fill-rule="evenodd" clip-rule="evenodd" d="M73.4891 43.8852C73.1365 44.6517 73.4891 44.6057 73.5658 44.4677C73.7569 44.1438 74.0245 43.8717 74.3453 43.6752C74.666 43.4788 75.0301 43.364 75.4055 43.3409C75.7101 43.3325 76.0149 43.3453 76.3177 43.3792C76.7239 43.4329 76.8159 43.4789 76.8542 43.3792C76.8926 43.2796 74.3553 41.9918 73.4891 43.8852ZM87.6626 39.7075C87.6724 39.677 87.6698 39.6438 87.6555 39.6152C87.6412 39.5865 87.6162 39.5646 87.586 39.5542C84.7421 38.1744 82.9866 41.5242 83.3776 41.7005C83.5156 41.7542 83.4926 41.6392 83.9065 41.1562C85.7156 39.0942 87.5783 39.9834 87.6626 39.7075ZM85.8535 36.9249C85.9762 37.0169 86.3288 36.8329 85.5393 36.3883C84.4738 35.7904 82.2814 36.0357 82.2891 36.3116C82.2968 36.5876 85.3936 36.6873 85.8535 36.9249ZM79.9588 48.8371C79.5985 47.6643 78.9546 41.7848 78.6326 41.8231C78.3107 41.8615 79.0236 49.412 79.7748 49.3967C80.2463 49.3523 80.7086 49.2387 81.1469 49.0594C81.3462 48.9827 82.5344 48.4998 82.4271 48.2928C82.3197 48.0859 81.6299 48.7221 79.9588 48.8371ZM88.3602 47.235C88.4045 47.5039 88.4326 47.7752 88.4445 48.0475C88.5825 50.6768 86.5281 50.9144 86.4361 50.9911C86.3441 51.0677 86.2138 51.3284 87.1643 50.9911C90.2612 49.9562 87.9922 45.0503 88.3602 47.235ZM66.4598 53.835C66.4749 53.8475 66.4939 53.8543 66.5135 53.8543C66.5331 53.8543 66.552 53.8475 66.5671 53.835C66.5796 53.8199 66.5864 53.8009 66.5864 53.7813C66.5864 53.7617 66.5796 53.7428 66.5671 53.7277C52.1867 41.6238 42.2522 33.3374 23.487 18.0141C23.4727 18.0001 23.4534 17.9922 23.4334 17.9922C23.4133 17.9922 23.3941 18.0001 23.3797 18.0141C23.3657 18.0284 23.3578 18.0477 23.3578 18.0678C23.3578 18.0878 23.3657 18.1071 23.3797 18.1214C40.4738 32.5096 49.68 40.1367 66.4598 53.835ZM40.8187 65.4329L44.9581 66.3374C44.9784 66.3374 44.9979 66.3293 45.0123 66.315C45.0267 66.3006 45.0348 66.2811 45.0348 66.2608C45.0348 66.2404 45.0267 66.2209 45.0123 66.2066C44.9979 66.1922 44.9784 66.1841 44.9581 66.1841L40.8417 65.1953C-6.7457 53.789 -9.7429 54.3332 40.8187 65.4329ZM53.9344 85.4935C53.9463 85.4796 53.9528 85.4619 53.9528 85.4437C53.9528 85.4254 53.9463 85.4077 53.9344 85.3939C53.926 85.3758 53.911 85.3616 53.8923 85.3545C53.8737 85.3473 53.8531 85.3477 53.8348 85.3555C41.3553 90.1158 35.0466 92.3771 6.34698 103.753C6.33734 103.756 6.32848 103.761 6.32092 103.768C6.31337 103.775 6.30727 103.784 6.30298 103.793C6.29869 103.802 6.29631 103.812 6.29597 103.822C6.29563 103.833 6.29733 103.843 6.30099 103.852C6.30949 103.872 6.3254 103.888 6.3454 103.897C6.3654 103.906 6.38794 103.906 6.4083 103.898C37.2236 92.2621 50.5233 86.835 53.9344 85.4935Z" fill="black"/>
<path fill-rule="evenodd" clip-rule="evenodd" d="M143.521 76.402C140.636 71.7263 136.52 67.9341 131.624 65.4404C131.241 63.2404 127.232 43.1184 109.501 38.4808C109.501 38.4808 110.452 15.8753 95.029 15.1164C79.284 14.3498 73.2053 23.1115 73.213 23.0885C73.2206 23.0655 63.907 28.3624 71.8178 45.6557C73.4583 56.2111 80.3802 62.4355 91.4109 59.6223L92.5837 61.9832C91.4952 62.0982 82.8332 63.1791 73.1056 70.0397C50.7377 85.7999 42.16 119.582 49.6492 132.613C50.4054 134.061 51.4947 135.309 52.8273 136.254C54.16 137.199 55.698 137.814 57.3147 138.048C74.6234 140.532 81.898 118.992 83.7607 101.591C85.6311 104.734 88.13 108.651 91.1042 112.729C90.8436 117.014 89.5711 129.018 90.7593 137.258C90.7602 137.269 90.7632 137.278 90.768 137.287C90.7727 137.296 90.7792 137.304 90.7871 137.311C90.7949 137.317 90.8039 137.322 90.8136 137.325C90.8233 137.328 90.8335 137.328 90.8436 137.327C90.8626 137.323 90.8795 137.312 90.8919 137.297C90.9043 137.281 90.9116 137.263 90.9126 137.243C90.1997 130.344 91.1732 116.638 91.2652 112.951C91.7481 113.618 92.2541 114.285 92.7983 114.952C92.7293 116.056 92.2847 119.344 92.0318 123.315C91.3419 134.484 92.7983 138.347 92.622 137.235C91.5948 129.049 92.829 118.394 92.9516 115.166C102.219 127.247 116.515 141.168 131.08 136.622C155.448 128.995 150.65 88.4982 143.521 76.402ZM108.904 56.6557C100.77 61.0864 100.525 61.255 100.839 64.6738C100.602 64.8195 100.356 64.9728 100.119 65.1338H100.058C99.7049 61.623 99.6513 60.7108 102.518 59.0014L108.083 55.5519L108.904 56.6557ZM100.111 65.655H100.157L100.977 66C102.02 75.5512 98.2715 79.1846 95.2666 98.793C94.776 98.4097 94.2241 97.9421 93.8178 97.5895C95.2513 87.9539 100.165 75.3979 100.311 69.7637C100.332 68.3913 100.266 67.0189 100.111 65.655ZM100.678 65.2871L100.885 65.1567V65.471L100.655 65.379L100.678 65.2871ZM91.8171 59.7909C91.6638 59.5149 91.6485 59.2237 91.4492 59.2773C78.6631 62.1672 71.5955 52.708 71.9328 41.6467C72.4474 40.9275 73.0218 40.2531 73.6499 39.6306C73.8454 39.4434 74.0614 39.2789 74.2938 39.14C74.3229 39.1281 74.3468 39.106 74.3609 39.0778C74.375 39.0496 74.3784 39.0172 74.3704 38.9867C74.2708 38.6724 72.592 39.255 71.9711 40.8188C72.2318 36.2195 73.5886 29.7728 78.7168 26.101C78.7168 26.101 96.0945 40.3819 97.114 40.4738C98.1335 40.5658 97.9495 36.0279 100.265 35.2613C102.579 34.4948 104.764 35.3839 104.802 38.4655C104.758 39.6664 104.401 40.8349 103.767 41.8554C103.132 42.8759 102.242 43.7129 101.184 44.2836C103.218 48.1227 105.492 51.8299 107.991 55.3832C101.307 59.3386 100.265 59.6069 99.7433 61.37C99.2354 60.908 98.6775 60.5043 98.0798 60.1665C95.2129 58.6181 92.0778 59.5456 91.8171 59.7909ZM91.9014 59.9595C92.0164 59.9595 95.4276 58.7484 99.6053 61.5463C99.5404 61.8309 99.5019 62.1208 99.4903 62.4125C96.93 60.6801 94.1244 60.7031 92.5913 61.646L91.9014 59.9595ZM73.3969 70.4459C83.6457 63.0947 92.7523 62.2515 92.7523 62.2515C93.0359 62.2515 92.7523 61.9296 92.7523 61.8529C94.8373 61.0864 97.5279 61.7609 99.544 62.7191C99.5535 63.4622 99.6021 64.2042 99.6896 64.9421C99.5516 64.8808 96.3474 63.547 96.2631 63.7233C96.1788 63.8996 99.6129 65.3867 99.6896 65.4174C95.8568 67.8933 95.4122 68.6446 99.7816 65.8773C99.9159 67.1502 99.9696 68.4304 99.9426 69.7101C99.7969 75.1602 95.0673 87.1874 93.6952 97.4208C92.0763 95.9692 90.5576 94.4095 89.1495 92.7525C86.9189 90.2153 86.3746 89.8013 85.6157 85.9839C84.9488 82.6034 76.6701 74.4857 75.8346 76.7853C74.4778 75.5742 73.6422 76.4404 73.8569 77.4829C73.0213 77.1149 72.5461 78.0271 72.6304 79.016C72.1858 78.6864 71.4652 78.9623 71.6185 80.4801C71.8255 82.4731 73.2513 85.9839 73.6652 87.1951C75.6276 92.8829 77.8123 93.7951 76.992 96.1254C75.7042 99.7741 68.9893 105.217 65.9231 107.601C69.4262 94.439 71.8638 89.2034 71.6262 89.1191C71.3886 89.0348 68.9739 95.8801 68.56 97.2369C66.4744 95.6869 64.038 94.6765 61.4677 94.2953C58.8973 93.9142 56.2726 94.1742 53.8269 95.0522C58.2576 85.5393 64.5739 76.7776 73.3969 70.4459ZM53.7119 95.3205C56.1762 94.5498 58.7808 94.3357 61.3379 94.6936C63.8949 95.0515 66.3407 95.9725 68.4987 97.3902L68.2457 98.1567C62.9335 94.7456 57.261 94.5003 53.2673 96.2863C53.413 95.9874 53.5586 95.6501 53.7119 95.3205ZM57.4067 137.373C55.8948 137.152 54.4575 136.573 53.2138 135.685C51.9701 134.797 50.9558 133.626 50.2548 132.268C44.8889 122.932 48.8367 106.512 53.16 96.5623C57.0387 95.0292 62.5809 95.1595 68.1997 98.3407C67.3795 101.131 66.7969 102.802 65.7238 107.762C62.7342 110.107 59.829 112.1 56.6631 115.151C55.4499 116.244 54.3669 117.474 53.436 118.815C53.4235 118.83 53.4167 118.849 53.4167 118.869C53.4167 118.889 53.4235 118.907 53.436 118.923C53.4503 118.937 53.4696 118.944 53.4896 118.944C53.5097 118.944 53.529 118.937 53.5433 118.923C54.4885 117.606 55.5816 116.402 56.8011 115.335C61.9293 110.521 79.7133 99.1456 77.337 94.163C75.8039 90.9895 74.9684 89.993 73.9718 87.1337C73.2208 85.241 72.5809 83.306 72.0555 81.3386C71.5725 79.154 72.2318 78.901 72.684 79.4989C73.4506 83.6613 78.4792 90.9972 79.9893 94.6766C81.0662 96.905 82.2559 99.0772 83.5537 101.185C81.576 118.24 74.2938 139.88 57.4067 137.373ZM130.919 136.124C122.081 138.876 113.288 134.652 105.531 127.999C91.6255 116.056 81.2541 96.271 80.4875 94.4773C79.2074 91.3191 72.9447 81.4459 73.144 78.6327C73.3279 75.9958 76.6701 82.1128 78.3565 84.7651C78.3901 84.8261 78.4464 84.8713 78.5133 84.8907C78.5801 84.9101 78.652 84.9021 78.7129 84.8686C78.7739 84.835 78.8191 84.7786 78.8385 84.7118C78.8579 84.6449 78.85 84.5731 78.8164 84.5121C77.6963 82.3766 76.3961 80.3404 74.93 78.4257C73.7649 77.0919 74.0408 75.0069 77.2987 79.1923C79.9893 82.6494 79.9663 83.8529 80.4645 83.5769C80.4938 83.5609 80.5196 83.5393 80.5405 83.5132C80.5614 83.4872 80.5769 83.4573 80.5862 83.4252C80.5954 83.3932 80.5982 83.3596 80.5945 83.3264C80.5907 83.2932 80.5804 83.2612 80.5642 83.232C79.4012 81.0565 77.9636 79.0393 76.2868 77.2299C75.8729 75.0299 84.4506 82.4808 85.1711 86.0529C85.3726 87.3819 85.7704 88.6736 86.3516 89.8857C87.3251 91.71 91.8478 96.4167 94.1551 98.3177C104.235 106.75 111.97 106.573 122.173 111.226C125.722 112.851 128.566 114.768 129.792 117.359C129.798 117.372 129.807 117.384 129.817 117.393C129.828 117.403 129.84 117.411 129.854 117.416C129.867 117.421 129.882 117.423 129.896 117.422C129.91 117.422 129.925 117.419 129.938 117.412C129.951 117.406 129.963 117.398 129.972 117.387C129.982 117.377 129.99 117.364 129.995 117.351C130 117.337 130.002 117.323 130.001 117.308C130.001 117.294 129.997 117.28 129.991 117.267C128.757 114.607 125.883 112.668 122.28 110.966C121.061 110.399 119.75 109.87 118.401 109.364C118.738 106.926 119.229 104.289 119.72 101.882C124.806 100.541 130.161 100.603 135.215 102.061C140.27 103.518 144.835 106.317 148.427 110.161C147.177 122.058 142.218 132.613 130.919 136.124ZM148.473 110.107C140.278 101.185 128.083 99.1149 119.735 101.813C119.827 101.361 119.942 100.84 120.034 100.418C129.784 98.0187 141.497 100.349 148.549 108.605C148.558 108.611 148.569 108.614 148.58 108.614C148.591 108.614 148.602 108.611 148.611 108.605C148.572 109.118 148.526 109.617 148.473 110.107ZM120.064 100.272C122.196 90.6062 123.897 87.0954 123.675 87.0111C123.662 86.9998 123.646 86.9935 123.629 86.9935C123.612 86.9935 123.596 86.9998 123.583 87.0111C120.885 94.6076 119.191 100.203 118.255 109.341C108.29 105.615 103.453 105.171 95.3969 98.8313C98.6164 79.8975 102.396 75.3212 101.353 66.0996C104.733 67.5101 105.638 67.5254 101.299 65.6167C101.299 65.5247 101.238 65.0494 101.215 64.9115C104.956 62.4585 104.511 62.3512 101.161 64.4362C100.893 61.462 100.97 61.37 109.003 56.7707C110.023 58.1407 111.121 59.4511 112.292 60.6954C112.292 60.6954 122.855 62.0599 129.209 64.5282C134.836 67.0731 140.048 71.1128 143.23 76.563C146.48 82.1282 149.63 95.6271 148.595 108.505C141.543 99.8355 129.547 97.7428 120.064 100.272Z" fill="black"/>
</svg>
