<svg width="154" height="154" viewBox="0 0 154 154" fill="none" xmlns="http://www.w3.org/2000/svg">
<path d="M28.446 76.4463C30.865 77.886 33.4699 78.9873 36.188 79.7194C36.3796 79.8114 36.5636 79.888 36.7552 79.9647C36.8306 80.1627 36.8946 80.3649 36.9468 80.5702C35.9686 80.817 34.9785 81.014 33.9804 81.1605C34.9683 81.7283 36.1007 81.9947 37.2381 81.927V82.3869C36.2518 82.3835 35.2737 82.2071 34.3483 81.8657C33.4818 81.5194 32.6607 81.069 31.9031 80.5243C31.7626 80.4579 31.6126 80.4139 31.4585 80.3939C30.7632 80.655 30.1447 81.0866 29.6598 81.6492C29.1749 82.2118 28.8393 82.8872 28.6836 83.6134C28.538 84.7172 29.6341 84.4795 30.6843 84.4259C32.4243 84.3569 34.1797 84.2802 35.9197 84.2726C38.6204 84.2396 41.2961 84.794 43.7613 85.8976C45.692 86.8278 47.2374 88.403 48.1305 90.3512C48.5285 91.272 48.8042 92.2409 48.9507 93.2333C49.2185 94.2985 49.2654 95.4071 49.0887 96.4911C49.6724 94.6042 50.0225 92.6529 50.1312 90.6808V90.0982C50.2385 88.3505 50.2691 86.2656 48.9507 84.9625C48.2499 84.2668 47.3893 83.7536 46.4441 83.4677C45.4895 83.1523 44.5062 82.9314 43.5083 82.8085C42.5042 82.6475 41.5 82.5556 40.4422 82.4636C39.3844 82.3716 38.6255 82.4099 37.698 82.3946C37.6925 81.5985 37.5119 80.8135 37.1691 80.095C38.6404 80.5598 40.216 80.5811 41.6993 80.1563C42.8491 79.865 44.4282 79.3898 44.7654 78.1327C45.0107 78.332 46.2985 79.0525 45.5933 78.5773C45.5166 78.5159 45.5933 78.5159 45.6699 78.5773C46.6894 78.9759 47.8086 79.0218 48.8357 79.3898C50.6601 80.049 52.7833 81.1375 52.998 83.2914C52.8922 82.2194 52.5431 81.1857 51.9772 80.2691C51.4113 79.3525 50.6436 78.5772 49.7326 78.0024C48.1729 77.0782 46.377 76.6306 44.5661 76.7146C45.1445 76.3357 45.6315 75.833 45.9919 75.2429C46.5053 74.3868 46.7879 73.4122 46.8121 72.4144C46.8172 70.6255 46.4079 68.8598 45.6163 67.2556C45.9939 66.8872 46.2596 66.4195 46.3828 65.9065C46.4546 65.6309 46.4622 65.3424 46.4051 65.0633C46.348 64.7843 46.2276 64.522 46.0532 64.2968C45.8462 64.0757 45.5976 63.8978 45.3216 63.7731C45.0456 63.6484 44.7477 63.5794 44.445 63.5702C44.1423 63.5609 43.8408 63.6115 43.5577 63.7191C43.2746 63.8267 43.0156 63.9892 42.7955 64.1971C42.2882 64.576 41.9258 65.117 41.7683 65.7302C41.6626 66.1265 41.6895 66.5465 41.845 66.926C41.7431 66.9429 41.6462 66.9821 41.5613 67.041C41.3237 66.8263 41.0784 66.6271 40.8485 66.3971C41.0174 66.6669 41.207 66.9232 41.4157 67.1636C41.2811 67.3062 41.1699 67.4692 41.0861 67.6465C40.5613 67.4467 39.9911 67.3975 39.4399 67.5045C38.8886 67.6115 38.3782 67.8704 37.9663 68.2521C37.4904 68.5674 37.112 69.0092 36.8737 69.5279C36.6353 70.0466 36.5465 70.6215 36.6172 71.1879C36.2344 71.4473 35.873 71.737 35.5364 72.0541C35.2704 72.2613 35.0287 72.4978 34.8159 72.7593C34.5505 71.3702 34.6215 69.9378 35.0228 68.5817C35.9579 65.8625 37.1974 63.2576 38.7175 60.8167C39.3614 60.8167 42.2129 62.8021 42.4965 63.0627H42.5425C42.822 63.2499 43.0792 63.4685 43.309 63.7142C43.6934 63.4959 44.1279 63.381 44.57 63.381C45.0121 63.381 45.4465 63.4959 45.8309 63.7142C45.8787 63.1668 45.8214 62.6152 45.6623 62.0892C46.0137 62.4896 46.2449 62.9812 46.3292 63.5073C46.3326 63.5277 46.3427 63.5463 46.358 63.5602C46.3733 63.5741 46.3929 63.5825 46.4135 63.5839C46.4346 63.584 46.4549 63.5762 46.4705 63.562C46.4862 63.5478 46.4959 63.5283 46.4978 63.5073C46.5972 62.3127 46.3126 61.1176 45.6853 60.0962C44.5313 58.333 42.8037 57.0225 40.7948 56.3862C38.5445 55.6266 36.1343 55.4704 33.8048 55.9331C31.4753 56.3958 29.3077 57.4612 27.5185 59.0231C24.1458 61.7979 22.4901 65.5386 23.0956 69.0953C23.5632 71.8931 25.5332 74.576 28.446 76.4463ZM45.3097 64.4578C45.3206 64.4491 45.3341 64.4443 45.348 64.4443C45.3619 64.4443 45.3755 64.4491 45.3863 64.4578C45.2937 65.0215 45.1342 65.5722 44.9111 66.0981C44.9111 66.1748 44.7424 66.1441 44.7808 66.0981C44.9877 65.5616 45.118 65.0173 45.2867 64.4578H45.3097ZM44.1599 64.9253C44.1599 64.8717 44.2595 64.9253 44.2442 64.9253C43.9652 65.6384 43.7398 66.3711 43.5697 67.1176C43.5697 67.1789 43.4547 67.1176 43.47 67.1176C43.6106 66.3645 43.8342 65.6292 44.1369 64.9253H44.1599ZM40.4729 68.8117C40.4842 68.8041 40.4975 68.8 40.5112 68.8C40.5248 68.8 40.5382 68.8041 40.5495 68.8117C40.3962 69.4479 40.1663 70.0764 39.9516 70.7127C39.9516 70.7816 39.8366 70.7127 39.852 70.7127C40.0513 70.0764 40.2199 69.4325 40.4499 68.8117H40.4729ZM39.2388 68.5204C39.2388 68.4667 39.3691 68.5204 39.3537 68.574C39.0854 69.3406 38.7405 70.1071 38.5259 70.9733C38.3113 71.8395 38.5259 71.0193 38.4722 71.0193C38.4662 71.0193 38.4602 71.0181 38.4546 71.0158C38.449 71.0135 38.444 71.0101 38.4397 71.0058C38.4354 71.0015 38.432 70.9965 38.4297 70.9909C38.4274 70.9853 38.4262 70.9793 38.4262 70.9733C38.5656 70.1208 38.8318 69.2941 39.2158 68.5204H39.2388ZM30.2397 73.5871C30.2866 73.3976 30.3816 73.2233 30.5156 73.0812C30.6762 72.9409 30.8726 72.8481 31.0829 72.8129C32.8076 72.5063 33.9957 73.9551 35.0458 75.2582C35.2835 75.5495 35.5057 75.8331 35.7204 76.0707C35.736 76.0853 35.7565 76.0933 35.7779 76.0933C35.7992 76.0933 35.8197 76.0853 35.8354 76.0707C35.8421 76.0643 35.8474 76.0565 35.8511 76.048C35.8547 76.0394 35.8566 76.0302 35.8566 76.0209C35.8566 76.0116 35.8547 76.0024 35.8511 75.9938C35.8474 75.9852 35.8421 75.9775 35.8354 75.9711C35.4211 75.0926 35.1099 74.1692 34.9079 73.2192C35.2373 72.9498 35.5402 72.6495 35.8124 72.3224L36.7935 71.4255C36.8369 71.5255 36.8909 71.6206 36.9545 71.7091C37.6367 72.5983 39.2541 72.5217 40.5572 71.4869C41.8603 70.452 42.3662 68.9496 41.6763 68.0528C41.5851 67.9398 41.4795 67.8393 41.362 67.7538C41.4674 67.624 41.5914 67.5103 41.73 67.4166L41.8833 67.5852C42.2477 67.9288 42.6709 68.204 43.1327 68.3977C43.6156 68.597 44.2442 68.3977 44.2289 68.896C44.2217 69.1294 44.1526 69.3568 44.0287 69.5548C43.9048 69.7527 43.7305 69.9143 43.5237 70.0228C43.7735 69.9484 43.9956 69.8017 44.1621 69.6011C44.3285 69.4006 44.4318 69.1552 44.4588 68.896C44.4672 68.8199 44.4592 68.743 44.4354 68.6703C44.4116 68.5975 44.3726 68.5308 44.3209 68.4744C44.2136 68.3728 44.0766 68.3083 43.9299 68.2904C43.6971 68.2587 43.4684 68.2022 43.2477 68.1218C42.8026 67.9385 42.3927 67.6791 42.0366 67.3553C42.0072 67.3207 41.9737 67.2898 41.9369 67.2633L42.0902 67.1789C42.1177 67.2384 42.1511 67.2949 42.1899 67.3476C42.3719 67.577 42.6058 67.76 42.8723 67.8812C43.1389 68.0025 43.4304 68.0587 43.723 68.0451C44.3191 68.0392 44.8983 67.8462 45.3787 67.4932C46.0809 69.0228 46.4469 70.6853 46.4518 72.3684C46.4535 73.2931 46.213 74.2022 45.7543 75.0052C45.2713 75.8223 44.5525 76.4743 43.6923 76.8756C43.6659 76.9051 43.6513 76.9433 43.6513 76.9829C43.6513 77.0225 43.6659 77.0607 43.6923 77.0902L43.8763 77.2665L43.9682 77.3355C44.2135 77.5808 44.4665 77.8107 44.7348 78.033C44.2059 79.5661 41.408 79.9953 40.0819 80.0643C39.0494 80.0488 38.0216 79.9228 37.0158 79.6887C36.7869 79.2948 36.5087 78.9316 36.188 78.6079C35.7381 77.919 35.3629 77.1841 35.0688 76.4156V76.2777C35.0831 76.2604 35.0898 76.2382 35.0877 76.2159C35.0855 76.1936 35.0746 76.1731 35.0573 76.1589C35.0401 76.1446 35.0178 76.1378 34.9955 76.14C34.9733 76.1422 34.9528 76.1531 34.9385 76.1704C34.7391 76.408 34.4906 76.5995 34.2101 76.7318C33.9295 76.8642 33.6236 76.9341 33.3135 76.9369C32.683 76.9175 32.0712 76.718 31.5505 76.362C31.0759 76.0874 30.6963 75.6748 30.4622 75.1791C30.228 74.6833 30.1504 74.1281 30.2397 73.5871Z" fill="black"/>
<path d="M37.9049 66.8186C37.5265 66.987 37.214 67.2752 37.0158 67.6388C37.3837 67.4395 37.698 67.2402 38.0506 67.0869C38.3932 66.916 38.7605 66.7996 39.1391 66.742C38.9412 66.6596 38.727 66.6237 38.5131 66.637C38.2992 66.6503 38.0911 66.7124 37.9049 66.8186ZM41.4616 65.2319C41.523 65.1002 41.5921 64.9722 41.6686 64.8486C41.7443 64.7348 41.8289 64.6272 41.9216 64.5267C42.0919 64.2963 42.2817 64.0808 42.4888 63.8828C42.3296 63.8875 42.1735 63.9287 42.0327 64.0031C41.8918 64.0775 41.7699 64.1832 41.6763 64.3121C41.5678 64.436 41.4915 64.5848 41.4541 64.7452C41.4166 64.9056 41.4192 65.0727 41.4616 65.2319ZM40.9864 72.0924C41.0358 72.1437 41.0795 72.2002 41.1167 72.261C41.2087 72.4143 41.3313 72.6443 41.4386 72.8512C41.5292 73.0493 41.637 73.2391 41.7606 73.4185L41.8526 73.5028C41.8529 73.5194 41.8582 73.5356 41.8678 73.5492C41.8773 73.5629 41.8907 73.5734 41.9062 73.5794C42.0885 73.7994 42.3287 73.964 42.5996 74.0547C42.8704 74.1455 43.1613 74.1587 43.4393 74.093C43.7056 74.0126 43.9488 73.8698 44.1488 73.6765C44.3488 73.4832 44.4997 73.2449 44.5891 72.9815V72.8895C44.7514 72.4276 44.809 71.9354 44.7577 71.4485C44.7581 71.4322 44.7548 71.4161 44.748 71.4013C44.7412 71.3865 44.7312 71.3735 44.7187 71.3631C44.7061 71.3528 44.6914 71.3455 44.6756 71.3416C44.6598 71.3378 44.6433 71.3377 44.6274 71.3412C44.6119 71.3423 44.5969 71.3471 44.5836 71.3551C44.5703 71.3631 44.5591 71.374 44.5508 71.3871C44.3015 71.4914 44.0454 71.5785 43.7842 71.6478H43.6922L42.8107 71.8854C42.597 71.9398 42.3791 71.9757 42.1592 71.9927C41.7799 71.9919 41.4019 71.9482 41.0324 71.8624C41.0019 71.8552 40.9699 71.86 40.9428 71.8756C40.9157 71.8913 40.8957 71.9167 40.8867 71.9467C40.8834 71.9628 40.8834 71.9795 40.8866 71.9956C40.8899 72.0118 40.8964 72.0271 40.9057 72.0407C40.9149 72.0543 40.9269 72.0659 40.9408 72.0747C40.9546 72.0836 40.9702 72.0896 40.9864 72.0924ZM42.2512 72.2533C42.4656 72.2548 42.6794 72.229 42.8874 72.1767L43.447 72.008C43.8143 71.9154 44.1732 71.7923 44.5201 71.6401C44.562 72.0722 44.5016 72.5081 44.3438 72.9125C44.2537 73.1235 44.1173 73.3115 43.9449 73.4627C43.7724 73.614 43.5682 73.7246 43.3473 73.7864C43.1236 73.8281 42.8932 73.8165 42.6748 73.7526C42.4564 73.6887 42.2561 73.5742 42.0902 73.4185C42.0309 73.3707 41.977 73.3167 41.9292 73.2575C41.824 73.0991 41.7318 72.9324 41.6533 72.7592C41.546 72.5446 41.431 72.3376 41.3313 72.169C41.6338 72.2313 41.9424 72.2596 42.2512 72.2533ZM70.8964 126.999C69.693 122.361 68.4588 117.663 68.3285 112.864C68.3285 111.668 68.3285 110.473 68.3822 109.277C69.0951 107.23 69.8003 105.183 70.3368 103.083C70.3888 102.889 70.3921 102.684 70.3465 102.488C70.3008 102.292 70.2075 102.11 70.075 101.959C69.9424 101.807 69.7746 101.691 69.5863 101.62C69.398 101.548 69.1951 101.524 68.9954 101.55H65.0938C64.8763 101.528 64.6576 101.579 64.4729 101.696C64.3581 101.817 64.274 101.964 64.2276 102.125L61.6521 109.346C61.607 109.24 61.5388 109.146 61.4526 109.071C61.3664 108.995 61.2643 108.94 61.1538 108.909C60.9085 108.909 60.6019 108.817 60.2953 109.407C59.8171 110.194 59.441 111.039 59.1762 111.921C59.1302 111.799 59.0842 111.676 59.0305 111.561C58.9181 111.202 58.7085 110.881 58.425 110.634C58.1926 110.481 57.9319 110.377 57.6584 110.327C54.2702 109.49 50.8153 108.952 47.3333 108.717C47.6169 105.521 48.0998 102.317 48.6594 99.1969C49.1653 94.1991 48.943 88.979 43.9145 86.3268C40.6568 84.6021 37.0158 84.4872 33.3747 84.6021C32.9455 85.4683 32.5162 86.3422 32.11 87.2237C28.7066 91.6772 25.8168 95.8088 24.368 101.588C22.858 107.903 22.858 114.484 24.368 120.798C24.7361 122.636 25.6063 124.337 26.8822 125.711C26.1343 130.314 24.7084 134.78 22.651 138.964C22.3988 139.388 22.2689 139.874 22.2754 140.367C22.3985 140.947 22.7316 141.46 23.2105 141.808C26.6369 144.92 31.6424 146.737 36.0576 147.81C40.0359 148.784 44.1215 148.83 48.1381 149.504C49.3339 141.609 48.3681 133.637 47.6552 125.658C49.788 124.571 51.8376 123.328 53.7875 121.94C56.6313 121.219 59.3601 120.476 61.8897 118.874C62.2653 118.621 62.7022 118.383 63.0548 118.107C63.0548 118.107 64.4959 116.942 64.6722 116.789C64.3886 126.087 64.0666 135.346 68.7885 143.717C68.8176 143.798 68.8623 143.872 68.9201 143.935C68.9778 143.998 69.0475 144.049 69.1251 144.086C69.2027 144.122 69.2867 144.143 69.3723 144.147C69.4579 144.15 69.5435 144.137 69.624 144.108C69.7397 144.07 69.8412 143.998 69.9153 143.901C72.7415 142.141 74.9327 139.526 76.1702 136.435C74.9843 135.311 73.8706 134.112 72.8357 132.848C71.9358 130.991 71.2838 129.025 70.8964 126.999ZM59.2911 112.128C59.5563 111.229 59.9377 110.368 60.4256 109.568C60.8702 108.61 62.0737 109.246 61.1921 110.703C61.178 110.73 61.1749 110.762 61.1834 110.792C61.1919 110.822 61.2115 110.847 61.2381 110.863C61.2544 110.873 61.2729 110.878 61.2918 110.878C61.3106 110.878 61.3291 110.873 61.3454 110.863L63.599 109.944C63.8212 109.827 64.0686 109.766 64.3196 109.767C64.8562 109.721 64.4959 110.365 64.1969 110.733C63.8431 111.123 63.4383 111.463 62.9935 111.745C62.9531 111.768 62.9232 111.805 62.9103 111.85C62.8974 111.894 62.9025 111.942 62.9245 111.983C62.9496 112.02 62.9878 112.047 63.0316 112.059C63.0754 112.07 63.1219 112.065 63.1621 112.044L65.2471 111.147C65.3388 111.102 65.4371 111.071 65.5384 111.055C65.6227 111.055 65.638 111.055 65.661 111.147C65.73 111.53 65.3774 111.96 64.9865 112.205C64.5955 112.45 64.1203 112.726 63.691 113.017C63.6669 113.033 63.6472 113.055 63.6337 113.08C63.6203 113.106 63.6136 113.134 63.6144 113.163C63.6201 113.202 63.6409 113.238 63.6723 113.262C63.7038 113.287 63.7435 113.298 63.783 113.293C64.1045 113.255 64.4224 113.191 64.7335 113.102C65.0325 113.048 65.4157 113.056 65.3927 113.255C65.2931 114.022 62.4799 114.88 62.8478 114.788L62.3496 114.949C61.7193 115.157 61.0695 115.301 60.4103 115.378C60.0423 114.336 59.6437 113.293 59.2222 112.259C59.2363 112.256 59.2497 112.251 59.2614 112.243C59.2731 112.234 59.2826 112.223 59.2893 112.211C59.296 112.198 59.2997 112.184 59.3 112.17C59.3003 112.155 59.2973 112.141 59.2911 112.128ZM52.9673 122.093L52.7833 122.139H52.9596C49.4744 124.638 45.5849 126.518 41.4616 127.696C37.7056 128.708 34.5629 128.877 31.857 128.195C30.0788 127.791 28.4534 126.887 27.1736 125.588C25.8939 124.289 25.0133 122.651 24.6363 120.867C23.1492 114.604 23.1492 108.081 24.6363 101.818C26.2537 95.4869 29.5728 91.087 33.4744 86.0585C33.7496 85.891 34.0427 85.7547 34.3482 85.6523C39.8519 84.2035 43.5083 92.2674 44.6887 96.2381C45.6316 99.4038 45.5932 103.03 43.8072 105.82C43.7459 105.927 43.171 107.077 42.7188 107.981C43.5958 105.333 44.0107 102.553 43.9452 99.7641C43.9452 99.7214 43.9282 99.6805 43.8981 99.6503C43.8679 99.6201 43.8269 99.6031 43.7842 99.6031C43.7625 99.6021 43.7407 99.6055 43.7203 99.6131C43.6998 99.6207 43.6812 99.6324 43.6654 99.6475C43.6496 99.6625 43.6371 99.6806 43.6285 99.7007C43.62 99.7207 43.6156 99.7423 43.6156 99.7641C43.6925 102.938 43.1402 106.095 41.9905 109.054C41.9752 109.095 41.9762 109.14 41.9934 109.18C42.0105 109.22 42.0425 109.252 42.0825 109.269H42.1592C47.5249 108.679 52.745 109.637 57.5664 110.748C57.795 110.787 58.0138 110.871 58.2103 110.994C58.4452 111.216 58.6171 111.496 58.7086 111.806C59.2222 113.063 59.7051 114.344 60.1573 115.601C60.2221 115.748 60.2536 115.907 60.2493 116.068C60.1962 116.231 60.101 116.376 59.9734 116.49C59.1457 117.412 58.2348 118.256 57.2522 119.012C55.7498 120.154 54.347 121.181 52.9673 122.124V122.093ZM65.3237 115.194H62.043C62.0427 115.22 62.0519 115.246 62.0688 115.265C62.0857 115.285 62.1092 115.298 62.135 115.302H64.7335V116.137C64.4694 116.414 64.185 116.67 63.8827 116.904L62.8555 117.701C62.4952 117.962 62.089 118.192 61.721 118.467C60.4691 119.259 59.132 119.907 57.7351 120.399C56.9686 120.667 55.9414 120.813 55.0446 121.097C55.8111 120.506 56.6696 119.901 57.5128 119.257C58.5107 118.489 59.4369 117.632 60.28 116.697C60.4535 116.56 60.5728 116.367 60.6164 116.15C60.6599 115.934 60.6249 115.709 60.5176 115.516C61.166 115.434 61.8052 115.291 62.4263 115.087L62.9168 114.934C64.3426 114.482 64.7642 114.382 65.3621 113.815C65.4405 113.756 65.5057 113.681 65.5532 113.595C65.6008 113.509 65.6297 113.414 65.638 113.316C65.6404 113.257 65.6293 113.198 65.6054 113.143C65.5815 113.089 65.5454 113.041 65.5 113.002C65.4259 112.934 65.3366 112.884 65.2394 112.856C65.0664 112.833 64.8912 112.833 64.7182 112.856H64.6109C64.8025 112.741 64.9941 112.634 65.1858 112.504C65.4436 112.373 65.6578 112.17 65.8021 111.92C65.9464 111.669 66.0146 111.382 65.9983 111.093C65.9216 110.81 65.5997 110.641 65.1321 110.879L64.2046 111.285C64.2971 111.207 64.3841 111.122 64.4652 111.032C64.652 110.805 64.7949 110.545 64.8868 110.266C64.9176 110.178 64.9275 110.085 64.9155 109.993C64.9035 109.901 64.87 109.813 64.8178 109.737C64.756 109.672 64.6807 109.621 64.5974 109.588C64.514 109.555 64.4245 109.54 64.3349 109.545C64.0495 109.552 63.7692 109.623 63.5147 109.752L61.9817 110.404L64.2813 103.919V103.965L64.6799 102.792C64.6928 102.705 64.7232 102.621 64.769 102.546C64.8148 102.471 64.8752 102.406 64.9467 102.354C65.0181 102.303 65.0991 102.266 65.185 102.247C65.2708 102.227 65.3597 102.225 65.4464 102.24H69.4094C69.7006 102.24 69.8693 102.24 70.0302 102.554C70.0955 102.761 70.0955 102.983 70.0302 103.191C69.4783 105.137 66.9641 112.772 66.1976 114.688C66.0596 115.064 65.6687 115.187 65.3237 115.194Z" fill="black"/>
<path d="M60.0347 130.648C60.0347 130.648 59.981 130.594 59.9734 130.648C59.493 133.617 59.0178 136.581 58.5476 139.539C58.3023 141.072 58.2257 141.54 58.218 141.517C57.7522 143.907 57.6027 146.347 57.7734 148.776C57.7734 148.8 57.7831 148.824 57.8004 148.841C57.8176 148.858 57.841 148.868 57.8654 148.868C57.8898 148.868 57.9132 148.858 57.9304 148.841C57.9477 148.824 57.9574 148.8 57.9574 148.776C58.034 146.155 58.2793 143.548 58.5859 140.95C58.7511 143.284 59.4234 145.555 60.5559 147.603C60.6019 147.672 60.7322 147.603 60.7016 147.534C59.7941 145.169 59.1239 142.719 58.7009 140.222C59.0842 137.033 59.5824 133.844 60.0347 130.648Z" fill="black"/>
<path d="M58.4941 139.785C58.4979 139.716 58.4979 139.647 58.4941 139.578C58.4941 139.578 58.2104 141.463 58.2181 141.517C58.2564 141.042 58.4941 139.785 58.4941 139.785ZM130.625 9.58186C128.912 10.4187 127.082 10.9899 125.198 11.2759C126.937 9.51403 128.402 7.5012 129.544 5.30461C129.561 5.27477 129.571 5.24174 129.574 5.20764C129.578 5.17355 129.574 5.13915 129.563 5.10665C129.552 5.07416 129.534 5.04429 129.511 5.01898C129.488 4.99366 129.46 4.97346 129.429 4.95968C129.393 4.94088 129.354 4.93106 129.314 4.93106C129.274 4.93106 129.234 4.94088 129.199 4.95968C127.728 5.94163 126.136 6.72757 124.462 7.29759C123.542 7.60421 122.024 8.2021 121.058 7.77284C120.092 7.34359 119.173 6.13247 118.268 5.58823C115.499 3.95015 112.208 3.43191 109.07 4.13949C106.617 4.68372 99.2428 7.48923 98.4993 17.3621C98.438 18.1287 98.6449 18.8339 97.9474 19.2478C97.4492 19.5391 95.4255 19.0408 94.82 18.9872C92.8301 18.7893 90.8574 18.446 88.9177 17.96C82.2029 16.266 75.4497 13.0159 72.8205 6.18612C72.7439 5.96383 72.3683 5.83352 72.2456 6.10947C71.0355 8.94176 70.6314 12.0533 71.0777 15.1008C71.5241 18.1482 72.8036 21.0131 74.7752 23.3794C72.7869 23.0922 70.8996 22.3209 69.2792 21.1335C69.243 21.1132 69.2031 21.1002 69.1619 21.0954C69.1206 21.0905 69.0789 21.0939 69.039 21.1053C68.9991 21.1167 68.9618 21.1359 68.9293 21.1618C68.8969 21.1877 68.8699 21.2197 68.8499 21.2561C68.8395 21.3041 68.8395 21.3538 68.8499 21.4018C68.7327 24.5721 69.7171 27.6852 71.6358 30.2117C73.5545 32.7383 76.289 34.5224 79.3744 35.2606C78.0306 35.4903 76.6643 35.5598 75.3041 35.4676C75.2632 35.4676 75.2227 35.4758 75.1849 35.4916C75.1472 35.5075 75.1131 35.5308 75.0845 35.5601C75.0559 35.5894 75.0335 35.6241 75.0186 35.6622C75.0036 35.7003 74.9964 35.741 74.9975 35.7819C74.9946 35.8073 74.9946 35.8331 74.9975 35.8585C75.8567 37.9818 77.2381 39.8538 79.0135 41.3009C80.789 42.7481 82.9011 43.7236 85.154 44.1371C82.951 45.1647 80.6697 46.0157 78.3319 46.6819C75.8866 47.3871 71.9697 48.7669 69.5551 47.4485C69.521 47.4279 69.4831 47.4143 69.4437 47.4086C69.4043 47.4028 69.3641 47.405 69.3256 47.415C69.287 47.425 69.2508 47.4426 69.2192 47.4668C69.1875 47.491 69.161 47.5212 69.1412 47.5558C69.1088 47.6141 69.0959 47.6811 69.1041 47.7473C69.1124 47.8134 69.1415 47.8752 69.1872 47.9237C72.8972 51.7564 78.3165 53.4197 83.46 54.1403C83.2134 54.7766 83.046 55.4408 82.9617 56.1179L82.0189 55.5277L81.9346 55.5967C77.8155 58.5883 73.9001 61.8507 70.2143 65.3623C68.3969 67.1897 66.7426 69.1723 65.2702 71.2876C64.8946 71.8011 64.5727 72.3837 64.1971 72.8206C63.7854 73.2475 63.2484 73.5321 62.664 73.6331C61.4478 73.9858 60.2315 74.3665 59.0153 74.7753C56.5945 75.5734 54.2198 76.5049 51.9019 77.5655L50.9744 78.01C50.8513 77.9784 50.7256 77.9579 50.5988 77.9487C50.4892 77.9543 50.3808 77.9749 50.2769 78.01L50.4608 78.102C52.0627 79.1811 53.2008 80.8226 53.6496 82.7012C53.9409 83.3258 54.2739 83.9302 54.6461 84.5102C55.8649 86.3422 57.6432 87.768 59.2453 89.2934C60.3177 90.6133 61.2694 92.0268 62.0891 93.517C62.3014 93.9199 62.4908 94.3345 62.6563 94.7587C63.1315 95.96 63.4758 97.209 63.6835 98.4841C63.8751 99.5419 63.9901 100.615 64.0821 101.68C64.125 101.597 64.1821 101.522 64.2507 101.458C64.4359 101.342 64.6542 101.291 64.8716 101.313H68.7043C68.7671 98.4994 68.2451 95.7039 67.1712 93.103C68.0604 92.5128 68.9419 91.8919 69.7851 91.225C72.0394 89.4088 74.1345 87.4034 76.0476 85.2308C79.9304 80.9257 82.8934 75.8733 84.7554 70.3831C85.6772 67.6536 86.2641 64.8222 86.5031 61.9512C86.7177 59.1457 86.7484 58.6628 86.2961 58.1799C87.1534 58.0127 87.9754 57.699 88.726 57.2524C88.967 57.0807 89.1881 56.8827 89.3853 56.6622C89.496 56.5478 89.5867 56.4157 89.6535 56.2712C89.694 56.1775 89.7032 56.0731 89.6797 55.9737C89.6562 55.8743 89.6014 55.7851 89.5232 55.7193C89.411 55.6572 89.2834 55.628 89.1553 55.635C89.0511 55.6436 88.9482 55.6642 88.8487 55.6963L89.2779 55.3514C89.5408 55.1615 89.7368 54.8931 89.8375 54.5849C93.5322 54.5247 97.1956 53.8964 100.699 52.7222C101.734 52.3619 102.731 51.9557 103.719 51.4957C103.428 52.017 103.144 52.5382 102.892 53.0748C102.792 53.2511 102.892 53.5577 103.152 53.5271C103.768 53.4055 104.405 53.4344 105.007 53.6114C104.988 53.8379 104.925 54.0584 104.819 54.2598C104.714 54.4613 104.569 54.6395 104.394 54.7842C104.211 54.9405 103.997 55.0556 103.765 55.1214C103.546 55.1438 103.33 55.19 103.121 55.2594C103.106 55.2744 103.094 55.2923 103.086 55.312C103.077 55.3318 103.073 55.353 103.073 55.3744C103.073 55.3958 103.077 55.417 103.086 55.4367C103.094 55.4565 103.106 55.4744 103.121 55.4894C103.236 55.5976 103.385 55.6627 103.543 55.6733L97.5258 58.7395C97.1465 58.9376 96.8596 59.2762 96.7265 59.6829C96.5933 60.0896 96.6243 60.5323 96.8129 60.9164L101.542 70.2374C101.735 70.6204 102.071 70.9114 102.478 71.0465C102.885 71.1816 103.328 71.1498 103.712 70.958L118.429 63.4996C118.81 63.3016 119.098 62.9611 119.23 62.5522C119.362 62.1432 119.328 61.6987 119.134 61.315L114.443 51.971C114.246 51.5902 113.908 51.3021 113.501 51.1687C113.093 51.0354 112.65 51.0675 112.266 51.2581L110.917 51.948C110.404 50.8902 109.162 50.6832 108.066 50.7369C108.567 49.9382 109.013 49.1058 109.399 48.2457C116.794 43.0804 121.95 35.2991 123.825 26.4762C124.169 24.8636 124.425 23.2336 124.592 21.5934C124.722 20.2826 124.308 17.3851 125.236 16.427C125.588 16.059 126.301 15.7908 126.708 15.4305C127.31 14.8668 127.878 14.2678 128.409 13.6368C129.352 12.579 129.942 10.8926 130.985 9.99578C131.184 9.78882 130.885 9.45921 130.625 9.58186ZM86.3345 58.7241C86.4045 59.0643 86.4251 59.4129 86.3958 59.7589C86.4111 60.4782 86.3804 61.1976 86.3038 61.9129C86.04 64.7885 85.4221 67.6206 84.4641 70.3447C82.6341 75.7661 79.7152 80.7561 75.8866 85.0085C73.9714 87.149 71.8734 89.1188 69.6164 90.8954C68.7962 91.5546 67.9454 92.1602 67.0715 92.7504C66.8576 92.2858 66.6144 91.8352 66.3433 91.4013C64.335 88.1896 60.9776 86.0816 58.1338 83.598C55.8879 81.6511 54.1862 79.5278 51.465 78.2323L52.0399 77.9564C54.365 76.9343 56.7285 76.0196 59.1303 75.2122C60.3261 74.8136 61.5372 74.4457 62.7636 74.0777C63.0802 73.9961 63.3902 73.891 63.6911 73.7635C64.0082 73.6253 64.287 73.4122 64.5037 73.1426C64.9329 72.6137 65.2702 72.0771 65.5998 71.5559C67.0608 69.4875 68.697 67.5487 70.4903 65.7609C74.1298 62.2825 77.9689 59.0192 81.9882 55.9876L85.6369 58.0879C85.7051 58.1483 85.7767 58.2046 85.8515 58.2565C86.0611 58.3528 86.2315 58.5178 86.3345 58.7241ZM88.956 55.0295C88.6111 55.3131 88.1435 55.658 87.7832 55.9876C87.7663 56.0041 87.7528 56.0237 87.7436 56.0454C87.7345 56.0672 87.7297 56.0905 87.7297 56.1141C87.7297 56.1377 87.7345 56.161 87.7436 56.1828C87.7528 56.2045 87.7663 56.2241 87.7832 56.2406C87.8053 56.2642 87.8332 56.2816 87.8642 56.2911C87.8951 56.3005 87.928 56.3016 87.9595 56.2942C88.2661 56.2099 88.5267 56.0796 88.7797 55.9953C88.9965 55.8908 89.2418 55.8612 89.4772 55.911C89.5232 55.911 89.5539 56.0259 89.4772 56.1409C89.1821 56.652 88.7382 57.0611 88.2048 57.3137C87.5428 57.6166 86.8447 57.833 86.1275 57.9576C86.0328 57.8845 85.9299 57.8228 85.8209 57.7736L83.1917 56.2406C83.2754 55.5328 83.4533 54.8393 83.7206 54.1786C84.9164 54.3626 86.1198 54.4699 87.3233 54.5389C87.193 54.6615 87.0703 54.7918 86.94 54.9068C86.8979 54.9498 86.8743 55.0076 86.8743 55.0678C86.8743 55.128 86.8979 55.1858 86.94 55.2288C86.9754 55.2475 87.0149 55.2574 87.055 55.2574C87.0951 55.2574 87.1346 55.2475 87.17 55.2288L88.2431 54.5465H89.3239C89.2347 54.7304 89.1096 54.8946 88.956 55.0295ZM105.275 53.6957C105.579 53.8789 105.823 54.1449 105.981 54.4622L104.854 55.0295C105.016 54.8505 105.137 54.6388 105.21 54.4086C105.283 54.1784 105.305 53.9352 105.275 53.6957ZM101.834 70.0381L97.2345 60.8398C97.12 60.6154 97.0797 60.3603 97.1195 60.1115C99.6491 60.5791 106.226 62.0125 106.211 62.0355C104.762 64.7451 103.53 67.5644 102.524 70.4674C102.253 70.4035 102.011 70.2528 101.834 70.0381ZM118.13 63.2543L103.681 70.5594C103.432 70.6418 103.163 70.6418 102.915 70.5594C103.941 67.656 105.191 64.8369 106.655 62.1275L108.755 62.5261C108.774 62.5278 108.794 62.5236 108.81 62.514C108.827 62.5043 108.84 62.4898 108.847 62.4725C109.185 61.7826 109.514 61.1004 109.852 60.4258C110.028 60.4258 114.596 61.3917 114.673 61.4147C116.114 61.7136 117.494 62.0125 118.766 62.2502C118.758 62.4587 118.695 62.6613 118.583 62.8375C118.471 63.0138 118.315 63.1576 118.13 63.2543ZM114.06 52.3006L118.621 61.3227C118.675 61.4445 118.711 61.5736 118.728 61.7059C117.494 61.476 111.63 60.2495 110.105 59.9736C111.438 57.2447 112.749 54.6385 114.06 52.3006ZM110.304 52.7375C110.334 52.953 110.292 53.1723 110.185 53.3619C110.079 53.5515 109.913 53.701 109.714 53.7877C109.653 53.8252 109.608 53.8832 109.586 53.9511C109.564 54.0191 109.568 54.0926 109.595 54.1583C109.623 54.224 109.674 54.2776 109.737 54.3095C109.801 54.3413 109.874 54.3493 109.944 54.3319C110.135 54.2757 110.313 54.181 110.467 54.0534C110.621 53.9258 110.747 53.7681 110.837 53.5901C110.928 53.412 110.981 53.2173 110.993 53.018C111.006 52.8186 110.977 52.6188 110.909 52.4309C111.576 52.2086 112.818 51.0052 113.669 52.0706C111.983 55.0678 110.289 58.5095 108.564 62.0355C104.118 61.0084 100.347 60.2112 97.3495 59.6516C97.4005 59.4995 97.4818 59.3592 97.5885 59.2393C97.6953 59.1194 97.8251 59.0224 97.9704 58.9541L106.065 54.8608C106.079 55.0661 106.03 55.2707 105.924 55.4474C105.819 55.6241 105.662 55.7644 105.475 55.8496C105.441 55.87 105.411 55.897 105.388 55.9292C105.364 55.9614 105.348 55.998 105.339 56.0367C105.331 56.0755 105.33 56.1156 105.338 56.1546C105.345 56.1936 105.36 56.2307 105.383 56.2636C105.415 56.3155 105.462 56.356 105.519 56.3794C105.575 56.4028 105.638 56.4078 105.697 56.3939C105.888 56.3455 106.067 56.2577 106.222 56.1363C106.378 56.0148 106.506 55.8623 106.599 55.6884C106.692 55.5146 106.748 55.3232 106.763 55.1266C106.778 54.93 106.752 54.7324 106.686 54.5465L110.304 52.7375ZM110.304 52.2546L109.284 52.7682C109.551 52.4211 109.672 51.984 109.622 51.5494C109.91 51.7188 110.149 51.9623 110.312 52.2546H110.304ZM107.238 50.9055C107.146 51.0818 107.238 51.3808 107.498 51.3501C108.115 51.2282 108.752 51.2598 109.353 51.4421C109.335 51.668 109.272 51.888 109.168 52.0893C109.064 52.2906 108.921 52.4693 108.748 52.6149C108.562 52.7691 108.345 52.8815 108.112 52.9445C107.893 52.9705 107.678 53.0167 107.468 53.0825C107.452 53.0975 107.44 53.1153 107.432 53.1351C107.424 53.1548 107.419 53.176 107.419 53.1974C107.419 53.2189 107.424 53.2401 107.432 53.2598C107.44 53.2795 107.452 53.2974 107.468 53.3124C107.56 53.4027 107.678 53.4617 107.805 53.4811L106.556 54.1173C106.073 52.9981 104.785 52.7835 103.673 52.8448C104.049 52.2393 104.394 51.6184 104.708 50.9898C105.934 50.3852 107.121 49.7068 108.265 48.9585C107.935 49.6101 107.606 50.254 107.314 50.9055H107.238ZM114.78 11.3219C114.621 11.3419 114.459 11.3142 114.315 11.2421C114.171 11.1701 114.052 11.057 113.973 10.9172C113.893 10.7774 113.857 10.6171 113.869 10.4567C113.88 10.2963 113.939 10.1429 114.038 10.0161C114.137 9.88927 114.271 9.79464 114.424 9.74419C114.577 9.69374 114.741 9.68975 114.896 9.73271C115.051 9.77568 115.19 9.86368 115.295 9.98556C115.4 10.1074 115.466 10.2577 115.486 10.4174C115.489 10.4479 115.489 10.4788 115.486 10.5094C115.499 10.7043 115.437 10.8969 115.313 11.0479C115.189 11.1989 115.013 11.2969 114.819 11.3219H114.78Z" fill="black"/>
</svg>
