<svg width="154" height="154" viewBox="0 0 154 154" fill="none" xmlns="http://www.w3.org/2000/svg">
<path fill-rule="evenodd" clip-rule="evenodd" d="M125.849 15.6678C128.336 15.7225 130.777 16.3466 132.985 17.4921C139.992 20.9415 144 28.0319 146.07 35.5976C142.567 25.7936 135.822 19.0252 125.374 18.9945C125.259 18.9945 125.259 19.1631 125.374 19.1631C128.453 19.1772 131.488 19.9011 134.243 21.2788C127.949 22.6739 128.44 27.9629 132.985 32.0102C136.872 35.4519 139.647 34.9537 143.663 37.9738C146.016 39.7368 146.798 41.4462 147.649 42.619C147.649 42.619 147.971 42.7876 148.032 42.5193C148.094 42.251 148.285 41.1396 148.339 40.8023C149.451 33.9802 151.405 17.0015 144.79 14.8859C142.49 14.1194 140.773 14.3493 139.509 14.9472C138.715 15.3721 138.016 15.9541 137.455 16.6579C136.893 17.3616 136.481 18.1723 136.243 19.0405C136.243 19.1478 136.389 19.1938 136.412 19.0788C136.652 18.2436 137.06 17.4662 137.611 16.7941C138.162 16.1219 138.844 15.5691 139.616 15.1695C141.243 14.5099 143.063 14.5099 144.69 15.1695C151.06 17.2928 148.937 34.946 147.756 41.5688C146.223 31.6883 142.153 21.5701 133.1 17.2545C130.84 16.1126 128.344 15.5141 125.811 15.5068C125.798 15.5073 125.786 15.5105 125.775 15.5163C125.764 15.5221 125.754 15.5302 125.747 15.5401C125.739 15.55 125.734 15.5615 125.732 15.5737C125.729 15.5859 125.729 15.5985 125.732 15.6106C125.735 15.6227 125.74 15.634 125.748 15.6437C125.756 15.6535 125.766 15.6613 125.777 15.6668C125.788 15.6723 125.8 15.6752 125.813 15.6754C125.825 15.6755 125.838 15.6729 125.849 15.6678ZM138.351 34.7237C130.31 31.7572 125.995 23.3714 134.312 21.4627C134.392 21.4438 134.476 21.4438 134.557 21.4627C141.617 25.2494 145.518 33.298 147.189 41.1702C145.48 38.5717 143.242 36.5404 138.351 34.7237ZM53.4962 120.92C54.0755 119.512 54.1486 117.946 53.7032 116.49C53.4908 115.992 53.1532 115.559 52.7233 115.231C52.2934 114.903 51.7859 114.692 51.2503 114.619C46.8887 113.722 46.5974 119.126 46.2525 119.571C44.4588 121.464 43.9529 123.465 45.6699 125.435C45.7191 125.486 45.7652 125.54 45.8079 125.596C45.3592 126.444 45.2292 127.424 45.4416 128.359C45.654 129.294 46.1946 130.123 46.9654 130.693C46.9654 130.785 47.042 130.893 47.111 130.954C47.5273 131.298 48.0062 131.558 48.5214 131.72C48.5686 133.272 48.4969 134.825 48.3068 136.366C48.2919 136.509 48.3056 136.654 48.3469 136.792C48.3882 136.931 48.4564 137.059 48.5475 137.171C48.6387 137.283 48.751 137.376 48.8781 137.444C49.0051 137.512 49.1444 137.555 49.288 137.569C49.5785 137.597 49.8683 137.509 50.0938 137.323C50.3194 137.138 50.4623 136.871 50.4914 136.58C50.6132 135.05 50.6132 133.512 50.4914 131.981C52.5687 131.774 54.3241 129.888 53.1896 127.873C54.1707 127.489 54.8376 126.071 55.1826 125.067C55.3416 124.673 55.4188 124.252 55.4096 123.827C55.4004 123.403 55.3049 122.985 55.1289 122.599C54.7545 121.896 54.1883 121.314 53.4962 120.92ZM54.7686 124.891C54.4774 125.757 53.7645 127.374 52.8676 127.528C52.8295 127.526 52.7918 127.536 52.7597 127.556C52.7275 127.577 52.7026 127.607 52.6882 127.642C52.6739 127.678 52.671 127.717 52.6798 127.754C52.6886 127.791 52.7087 127.824 52.7373 127.85C52.9274 128.103 53.0606 128.394 53.1281 128.704C53.1955 129.013 53.1956 129.334 53.1283 129.643C52.9179 130.202 52.5536 130.69 52.0775 131.051C51.6014 131.412 51.0329 131.631 50.4377 131.682C50.1235 128.309 49.4796 125.979 49.7785 123.089C49.7986 122.976 49.7728 122.858 49.7067 122.764C49.6406 122.669 49.5397 122.604 49.4259 122.583C49.3113 122.566 49.1942 122.593 49.0996 122.661C49.0051 122.728 48.9406 122.83 48.92 122.944C48.1995 125.864 48.4448 128.547 48.5138 131.475C48.1841 131.376 47.203 131 47.1493 130.655C47.1493 130.517 44.5278 128.754 46.0915 125.696C46.107 125.669 46.1151 125.638 46.1151 125.607C46.1151 125.576 46.107 125.546 46.0915 125.519C45.9919 125.282 44.7348 124.277 44.9571 122.606C45.1755 121.545 45.7099 120.575 46.4901 119.824C46.9884 119.257 47.134 114.213 51.0893 115.033C53.6648 115.57 53.9025 118.015 53.1129 120.498C52.9443 121.035 52.814 121.035 53.2356 121.311C53.8211 121.654 54.3052 122.146 54.6383 122.737C54.8053 123.068 54.903 123.43 54.9254 123.8C54.9478 124.171 54.8945 124.542 54.7686 124.891ZM72.7438 128.984C71.9773 129.199 68.9111 130.218 68.3592 130.364C68.2519 130.364 68.2213 130.402 68.2059 130.479C68.1906 130.555 68.0373 132.226 68.0449 132.303C68.0449 132.51 68.2596 132.441 68.3899 132.403L72.8741 130.908C72.9159 130.894 72.9524 130.867 72.9784 130.831C73.0045 130.796 73.0189 130.753 73.0197 130.709V129.176C73.0197 129.176 72.9737 128.915 72.7438 128.984ZM72.5981 130.517L68.3516 132.05V130.517C69.0261 130.448 71.9313 129.605 72.5905 129.406L72.5981 130.517ZM89.0326 31.8952C89.1169 31.8952 90.0827 31.7496 90.1594 31.7113C91.6924 31.8109 93.1028 31.4813 92.7809 29.9252C92.4053 28.1162 90.2973 28.0626 88.5496 28.6375C88.2967 27.1581 86.733 26.1079 85.3455 25.5713C84.5198 25.2095 83.5881 25.1719 82.7359 25.4659C81.8836 25.7599 81.1734 26.3641 80.7464 27.1581C78.7764 20.2593 73.9932 20.7729 72.0692 24.7895C71.3027 26.4912 71.1647 28.5302 72.0692 29.7643C74.8057 33.3363 84.5637 32.5238 89.0326 31.8952ZM76.0092 22.2293C76.5007 22.2552 76.9803 22.3896 77.4137 22.6229C77.847 22.8562 78.2234 23.1824 78.5158 23.5784C79.4312 24.8067 80.0835 26.2106 80.4321 27.7023C80.448 27.7421 80.4755 27.7763 80.511 27.8004C80.5466 27.8244 80.5885 27.8373 80.6314 27.8373C80.6743 27.8373 80.7162 27.8244 80.7517 27.8004C80.7873 27.7763 80.8148 27.7421 80.8307 27.7023C81.2118 26.8995 81.8442 26.2429 82.632 25.832C83.0361 25.6517 83.4735 25.5585 83.916 25.5585C84.3584 25.5585 84.7959 25.6517 85.1999 25.832C86.5183 26.3455 88.1357 27.365 88.266 28.7524C88.266 28.9901 88.5113 28.9134 88.7566 28.8368C90.2897 28.3309 92.1983 28.3079 92.5893 29.9022C92.8882 31.2207 91.6924 31.535 90.351 31.4353C89.7684 31.4353 90.0827 31.4353 89.2932 31.5579C84.694 32.1635 74.9744 32.7307 72.4295 29.381C70.7278 27.2884 72.8204 22.2293 76.0092 22.2293ZM65.983 130.555C65.1416 130.488 64.2971 130.467 63.4534 130.494C63.3921 130.494 63.3691 130.555 63.3691 130.578C63.2541 131.192 63.0625 133.522 63.0625 133.537C63.0604 133.561 63.0631 133.586 63.0705 133.609C63.0778 133.632 63.0897 133.653 63.1053 133.672C63.121 133.69 63.1402 133.706 63.1618 133.717C63.1834 133.728 63.2069 133.735 63.2311 133.736L65.753 134.066C65.7818 134.069 65.811 134.067 65.8387 134.058C65.8665 134.05 65.8922 134.036 65.9144 134.017C65.9366 133.999 65.9548 133.976 65.9679 133.95C65.981 133.924 65.9888 133.896 65.9906 133.867L66.1593 130.755C66.1614 130.705 66.1442 130.657 66.1114 130.619C66.0785 130.582 66.0325 130.559 65.983 130.555ZM65.5767 133.622L63.4534 133.376L63.5378 130.655C63.967 130.655 65.3391 130.854 65.7607 130.908L65.5767 133.622ZM40.0283 50.4529C38.6715 50.5296 38.6025 52.4842 38.6945 53.818C38.6945 53.887 38.6945 54.025 38.7865 54.0326C38.8785 54.0403 39.461 54.0326 41.477 54.1323C41.684 54.1323 41.6993 53.9023 41.7146 53.7107C41.8296 52.2926 41.477 50.3763 40.0283 50.4529ZM69.532 54.1323C69.739 54.1323 69.7543 53.9023 69.7696 53.7107C69.8846 52.2926 69.532 50.3763 68.0833 50.4529C66.6345 50.5296 66.6882 52.4842 66.7495 53.818C66.7648 54.1323 66.7265 54.025 69.532 54.1323ZM62.8555 54.1323C63.0625 54.1323 63.0778 53.9023 63.0932 53.7107C63.2081 52.2926 62.8555 50.3763 61.4068 50.4529C59.9581 50.5296 59.981 52.5686 60.0654 53.8946C60.0577 54.1016 60.0117 54.025 62.8555 54.1323ZM48.7667 37.1H48.851C48.7897 37.1 48.7897 37.169 48.805 37.2073C48.8204 37.2456 48.7284 37.2533 51.5415 37.3606C51.7485 37.3606 51.7638 37.123 51.7792 36.939C51.8942 35.5209 51.5415 33.5969 50.0928 33.6812C48.6441 33.7656 48.6671 35.7125 48.759 37.0463C48.759 37.0463 48.7667 37.077 48.7667 37.1ZM48.4141 53.7107C48.5291 52.2926 48.1765 50.3763 46.7277 50.4529C45.279 50.5296 45.302 52.4842 45.394 53.818C45.394 53.9176 45.394 54.025 45.5166 54.0403C45.6393 54.0556 46.2831 54.0403 48.1765 54.1323C48.3834 54.1399 48.3988 53.9023 48.4141 53.7107Z" fill="black"/>
<path fill-rule="evenodd" clip-rule="evenodd" d="M75.1657 127.244C74.2228 125.877 73.0444 124.688 71.6856 123.733C71.2717 123.419 63.1388 124.147 62.6636 124.201C62.1883 124.255 56.8763 127.926 56.723 128.087C56.7103 128.095 56.6997 128.105 56.6924 128.118C56.685 128.131 56.6812 128.145 56.6812 128.16C56.6812 128.175 56.685 128.189 56.6924 128.202C56.6997 128.215 56.7103 128.226 56.723 128.233C57.0602 128.317 57.5508 128.432 58.1411 128.532C58.1411 128.593 57.6505 134.787 57.9188 135.791C57.9724 135.983 58.0797 136.052 58.1564 136.059C59.2219 136.251 59.6205 136.412 65.2161 137.263C66.159 137.408 66.4962 137.347 66.8795 137.408C67.0251 137.408 73.2264 134.266 73.5483 133.806C73.6173 133.714 73.5483 133.806 73.602 132.978C73.6556 132.15 73.7553 129.329 73.6863 128.11C74.2152 127.949 75.48 127.643 75.1657 127.244ZM56.9913 128.149C57.7578 127.635 62.2037 124.738 62.6866 124.6C63.6754 125.006 67.1401 128.432 67.9373 129.199C66.7799 129.137 58.9153 128.509 56.9913 128.11V128.149ZM73.1957 133.622C72.7818 133.928 70.1296 135.316 67.2628 136.971C67.2628 136.703 67.5311 130.073 67.5311 129.958C67.5311 129.843 67.3854 129.858 67.3624 129.958C67.3394 130.057 66.8795 136.703 66.8488 137.002C64.8966 136.834 62.9546 136.562 61.0309 136.19C61.1382 135.477 61.3988 133.284 61.3988 132.617C61.3988 131.951 59.4288 131.667 59.1989 132.165C59.0742 133.388 59.0486 134.618 59.1222 135.845L58.3557 135.707C58.1257 134.572 58.3557 129.758 58.3557 128.593C60.4177 128.953 66.9408 129.735 68.2746 129.62C68.3361 129.625 68.3971 129.606 68.4454 129.568C68.4937 129.529 68.5257 129.474 68.5352 129.413C70.2289 129.138 71.8995 128.735 73.533 128.21C73.51 128.976 73.2034 133.376 73.1957 133.583V133.622ZM68.4739 129.206C68.0753 128.501 64.143 125.044 63.1082 124.385C68.3972 124.178 70.9958 124.048 71.448 124.094C72.7639 125.02 73.9454 126.124 74.9587 127.374C74.5908 127.558 70.7811 128.448 68.4739 129.168V129.206ZM146.928 85.9511C146.132 85.366 145.223 84.9511 144.259 84.7322C143.295 84.5133 142.296 84.4951 141.325 84.6787C140.45 84.9118 139.656 85.3802 139.029 86.0329C138.402 86.6856 137.966 87.4978 137.768 88.381C137.072 87.4386 136.05 86.7882 134.902 86.556C133.753 86.3237 132.56 86.5261 131.552 87.1239C129.858 88.0054 128.171 89.4235 127.934 91.3092C126.753 89.5845 124.975 88.5343 122.951 89.1245C121.502 89.5461 119.77 90.4813 119.073 91.7997C119.036 91.8571 119.008 91.9189 118.988 91.9837C118.531 92.6587 118.322 93.4715 118.398 94.2833C118.478 94.6904 118.661 95.0702 118.93 95.3868C119.198 95.7034 119.543 95.9462 119.931 96.0923C122.829 97.4337 141.938 98.1236 145.158 96.2686C149.557 93.7621 150.117 88.1511 146.928 85.9511ZM119.088 91.9301H119.034C119.034 91.9301 119.073 91.9224 119.088 91.9301ZM144.989 95.916C141.992 97.6484 122.867 97.1501 120.061 95.916C117.432 94.7355 119.05 92.321 119.157 92.0374C119.785 90.7496 121.571 89.7991 122.99 89.4005C123.469 89.2589 123.972 89.2198 124.468 89.2859C124.963 89.3519 125.439 89.5216 125.864 89.7838C126.717 90.3208 127.421 91.0642 127.911 91.9454C127.925 91.9756 127.948 92.0005 127.978 92.0162C128.007 92.0319 128.041 92.0375 128.074 92.0323C128.107 92.0271 128.137 92.0114 128.16 91.9874C128.183 91.9634 128.198 91.9325 128.202 91.8994C128.202 91.6848 128.033 89.3545 131.69 87.4995C132.392 87.091 133.194 86.8861 134.007 86.9078C134.819 86.9294 135.609 87.1768 136.289 87.6221C136.83 87.9613 137.278 88.4303 137.592 88.9866C137.582 89.0328 137.588 89.0812 137.609 89.1236C137.63 89.166 137.665 89.1999 137.708 89.2196C137.751 89.2393 137.799 89.2437 137.845 89.232C137.891 89.2203 137.932 89.1932 137.96 89.1552C138.067 89.0172 138.481 85.8591 141.402 85.1386C142.314 84.9695 143.252 84.9898 144.157 85.1981C145.061 85.4065 145.913 85.7984 146.66 86.3497C149.611 88.312 149.067 93.5551 144.989 95.916ZM55.4659 37.1001H55.5502C55.4889 37.1001 55.4889 37.1691 55.5042 37.2074C55.5195 37.2458 55.4275 37.2534 58.2407 37.3607C58.4477 37.3607 58.463 37.1231 58.4783 36.9391C58.5933 35.5211 58.2407 33.5971 56.792 33.6814C55.3432 33.7657 55.3662 35.7127 55.4582 37.0465C55.4582 37.0465 55.4659 37.0771 55.4659 37.1001Z" fill="black"/>
<path fill-rule="evenodd" clip-rule="evenodd" d="M128.233 91.8074C128.237 91.8144 128.239 91.8223 128.239 91.8304C128.239 91.8384 128.237 91.8464 128.233 91.8534C128.233 91.8534 128.248 91.8764 128.233 91.8074Z" fill="black"/>
<path fill-rule="evenodd" clip-rule="evenodd" d="M123.411 78.3394C121.706 78.8275 119.966 79.1837 118.206 79.4049C115.071 79.6655 109.775 80.0871 106.64 79.8418C103.87 79.6443 101.177 78.841 98.752 77.4886C99.3618 75.4275 100.324 73.4877 101.596 71.7549C105.339 71.2897 109.028 70.4605 112.611 69.279C112.632 69.2719 112.65 69.2566 112.66 69.2365C112.67 69.2164 112.672 69.1931 112.664 69.1717C112.657 69.1504 112.642 69.1327 112.622 69.1227C112.602 69.1126 112.579 69.111 112.557 69.1181C109.264 70.1424 105.889 70.8835 102.47 71.3333C100.204 71.6525 97.9065 71.686 95.6322 71.433C89.0093 70.5438 79.903 63.0012 79.0674 60.9239C78.3469 59.1532 79.5964 57.8577 81.1524 56.7156C82.7085 55.5735 90.9947 59.9427 94.628 59.4751C98.2614 59.0075 110.227 54.1094 110.511 54.1094C110.522 54.1094 110.533 54.1072 110.543 54.103C110.553 54.0987 110.562 54.0925 110.57 54.0847C110.578 54.0769 110.584 54.0676 110.588 54.0573C110.593 54.0471 110.595 54.0362 110.595 54.0251C110.595 54.014 110.593 54.003 110.588 53.9928C110.584 53.9826 110.578 53.9733 110.57 53.9655C110.562 53.9576 110.553 53.9514 110.543 53.9472C110.533 53.9429 110.522 53.9408 110.511 53.9408C110.081 54.0327 98.3764 58.6856 94.6204 59.1378C91.4776 59.5288 84.6555 56.0104 81.8576 56.1484C82.3942 55.5198 84.3412 53.3275 83.9196 52.6147C87.4686 48.6134 88.4421 46.8887 90.757 44.0525C90.711 46.3061 95.2182 48.7897 94.0991 45.5856C94.3862 45.8779 94.7307 46.1076 95.1109 46.2601C95.6782 46.4518 96.2147 46.1298 95.8775 45.3863C95.7816 45.1829 95.6688 44.9881 95.5402 44.8037C96.0154 44.9724 96.4984 44.8037 96.506 44.2748C96.506 43.47 95.2796 42.0212 94.9193 41.5153C95.4022 40.9021 97.0503 38.9398 96.644 38.3112C96.552 38.1732 96.5673 38.5105 97.9241 36.0116C102.991 26.6676 103.29 17.201 102.953 16.9633C102.937 16.9537 102.919 16.9489 102.901 16.9495C102.883 16.9502 102.865 16.9562 102.85 16.9669C102.835 16.9776 102.824 16.9924 102.818 17.0095C102.811 17.0266 102.81 17.0452 102.815 17.063C102.836 17.2027 102.836 17.3448 102.815 17.4846C102.662 19.7261 102.326 21.9513 101.81 24.1381C100.665 29.0246 98.8273 33.7224 96.3527 38.0889C95.1952 37.56 86.6944 48.4677 86.6178 48.5444C85.9586 47.2796 84.3182 47.0113 82.9308 47.1493C82.0163 47.2157 81.1197 47.436 80.2786 47.8009C79.5358 47.1749 78.5977 46.8278 77.6264 46.8197C77.1605 46.859 76.7102 47.0063 76.3111 47.2497C75.9119 47.4932 75.5749 47.8262 75.3268 48.2224C75.3268 48.0308 75.6717 43.7152 75.6794 43.6233C79.2438 43.6233 79.2208 43.6233 79.2897 43.378C79.3971 43.0407 79.2897 40.8024 79.2897 39.9286C79.2897 39.0547 78.0326 38.9398 77.1741 39.208C76.8675 39.3077 76.7142 39.415 76.6529 39.7216C76.5916 40.0282 76.6529 40.3502 76.6069 40.5878C76.1153 40.691 75.6067 40.6805 75.1198 40.5571C74.9972 40.2275 75.3498 39.3843 74.8209 39.0777C74.1536 38.8478 73.4483 38.7489 72.7436 38.7865C71.977 38.8478 71.7394 39.1621 71.6781 39.8213V40.7334C71.1951 40.7738 70.7087 40.7376 70.237 40.6261C70.1834 40.2429 70.4057 38.7711 69.6851 38.7328C68.9646 38.6945 67.4852 38.3265 67.2322 39.2464C67.0406 39.9362 67.1172 45.5013 67.1326 46.2295C66.8949 46.2295 66.596 46.2295 66.366 46.2755L66.6496 30.9832C67.0559 30.5003 68.0754 29.3581 68.4817 28.9442C69.1409 28.285 68.9952 26.5143 68.7116 25.6175C68.313 24.3603 63.4915 24.529 62.3264 24.7666C61.1613 25.0042 62.3264 27.1812 61.7898 28.2773C61.3069 29.2508 58.2331 28.4766 57.0604 28.4919C56.0562 28.4919 56.6848 26.3303 56.1482 25.4258C55.7113 24.6976 53.9406 24.7053 53.0821 24.7206C53.0821 24.23 53.0361 20.4817 53.0207 19.7305C55.6039 17.9445 57.9649 16.2735 58.3864 16.0435C58.6624 15.9898 58.5474 15.6296 58.3405 15.6449C57.7196 15.3996 53.3043 12.5788 52.7524 12.2568C52.7192 12.2357 52.6809 12.2241 52.6415 12.2233C52.6022 12.2225 52.5634 12.2326 52.5293 12.2523C52.4953 12.2721 52.4674 12.3009 52.4486 12.3355C52.4298 12.3701 52.4209 12.4092 52.4228 12.4485C52.4228 12.4485 52.7371 24.2377 52.7601 24.713C51.9936 24.713 51.411 24.7973 50.8898 24.8433C49.1574 24.9812 50.2459 27.4725 50.1232 28.6069C50.0159 29.5268 48.1993 28.8522 46.1066 28.7066C45.0182 28.6299 44.7039 28.1547 44.7192 27.1735C44.7345 26.1924 44.8878 25.8474 44.4049 25.6405C43.4851 25.1959 40.2963 25.5868 39.2768 25.7324C39.2346 25.7405 39.1961 25.762 39.167 25.7938C39.138 25.8256 39.1201 25.8659 39.1159 25.9087C39.1159 25.8321 38.9396 27.6948 38.8859 29.1588C38.8323 30.6229 41.0245 30.9602 41.1165 31.9873C41.2085 33.0145 41.1165 45.1103 41.1165 46.1298H39.3228C39.4455 45.1717 40.0357 40.3425 39.5528 39.53C39.2467 39.1784 38.8479 38.9201 38.4019 38.7846C37.956 38.649 37.4808 38.6417 37.0309 38.7635C36.7166 38.8861 36.64 39.1007 36.617 39.4763C36.6507 39.9087 36.6327 40.3436 36.5633 40.7718C36.2184 40.9251 35.0992 41.063 35.0303 40.7718C34.9613 40.2275 35.4978 38.6255 34.785 38.4722C34.0721 38.3189 32.2018 37.9816 31.9718 38.7635C31.8032 39.3537 32.0561 40.6645 31.8798 40.9557C31.2031 41.0651 30.5147 41.0831 29.8332 41.0094C29.9098 40.5725 29.9405 38.4798 29.3579 38.4032C29.013 38.3572 27.273 37.721 27.0124 38.5412C26.7517 39.3613 26.4145 42.4965 27.0124 43.5236C27.0588 43.6139 27.1237 43.6933 27.203 43.7567C27.2823 43.8201 27.374 43.8661 27.4723 43.8915C28.9348 44.1109 30.4092 44.2414 31.8875 44.2825C31.9335 47.7395 32.3167 56.4933 31.7802 63.6834C30.5849 63.3555 29.3089 63.5068 28.2235 64.105C26.4528 64.9405 24.6284 66.3356 24.2912 68.2519C23.855 67.4138 23.1476 66.7483 22.2844 66.3641C21.4213 65.9798 20.4534 65.8995 19.5387 66.1363C16.6795 66.8491 14.9395 68.5968 14.5256 69.9306C13.9583 69.9306 5.41152 69.8309 4.56067 69.6393C4.32463 69.1144 4.20837 68.5436 4.2203 67.9682C4.23223 67.3928 4.37206 66.8272 4.62966 66.3126C5.50224 64.7872 6.84753 63.5872 8.46231 62.8938C8.51105 62.8962 8.55923 62.8825 8.5994 62.8548C8.63958 62.8271 8.66952 62.7869 8.68461 62.7405C9.68322 60.5171 11.4454 58.725 13.6517 57.6891C15.8888 56.7161 18.3773 56.4799 20.7575 57.0145C20.7934 57.0272 20.8323 57.0288 20.8691 57.0193C20.906 57.0097 20.9392 56.9894 20.9644 56.9609C23.8926 53.7031 27.5183 53.1282 31.1286 55.9797C31.2589 56.087 31.3279 55.9797 31.2129 55.8341C31.0849 55.7083 30.9492 55.5905 30.8067 55.4815C29.3964 54.3467 27.6164 53.7733 25.8089 53.8718C23.8425 54.1147 22.0408 55.0922 20.7651 56.6083C18.3223 56.0796 15.7757 56.3206 13.4754 57.2982C11.199 58.3622 9.37569 60.2018 8.332 62.4876C6.92189 63.1105 5.69095 64.0779 4.7523 65.3007C4.25631 65.938 3.94769 66.7009 3.86103 67.5038C3.77438 68.3067 3.91313 69.1178 4.26172 69.8463L4.35371 69.9383C5.04359 70.2449 14.3569 70.1835 14.4566 70.2065C14.2036 71.1647 14.5332 72.1229 15.8977 72.8204C18.7492 74.2921 37.7438 75.0663 41.3925 73.8476C43.0865 73.288 44.4586 71.548 45.1255 69.647C56.5851 70.0379 71.954 70.2449 73.6404 70.2065C72.5711 73.0324 71.6903 75.926 71.0035 78.8683C70.3673 79.083 65.0246 82.9769 64.2887 86.1427C59.1779 84.3888 53.6377 84.3296 48.4905 85.9741C48.515 85.8091 48.5278 85.6426 48.5289 85.4758C48.6055 82.5477 47.7623 78.8837 45.2864 77.2663C41.2698 74.6677 34.4707 75.6029 29.5266 81.8655C25.1803 87.4228 22.5511 98.0163 21.7386 104.93C21.7321 104.986 21.7477 105.042 21.7821 105.087C21.8165 105.131 21.8669 105.16 21.9226 105.168C27.4467 105.893 33.0363 105.976 38.5793 105.413C42.6266 104.907 46.4976 103.819 48.9964 101.726C51.664 99.488 52.3998 97.1884 52.2389 95.1418C52.0012 92.0067 49.648 89.4848 48.9275 88.7872C53.5177 88.2214 58.1632 89.2468 62.0888 91.6924C61.2609 93.3711 58.8157 99.3577 58.6547 101.964C58.574 102.438 58.6813 102.925 58.9537 103.321C58.7161 103.666 57.9572 104.746 57.5663 104.854C56.999 105.03 50.9971 105.199 50.5142 106.341C50.3609 106.709 50.7058 106.992 51.0507 107.184C53.5803 108.571 57.183 108.755 59.5286 108.97C60.663 109.07 61.7669 106.394 62.1808 105.314C62.3869 105.298 62.5876 105.24 62.771 105.145C63.4226 104.792 66.6037 101.995 68.52 100.301C68.9417 99.9395 69.4018 99.6259 69.8921 99.3654C70.1144 100.768 70.398 102.186 70.7583 103.604C73.0578 112.542 76.2696 119.456 80.6312 124.239C79.3511 126.171 78.2013 128.992 78.3316 131.345C78.3534 132.228 78.5877 133.092 79.0147 133.864C79.4417 134.637 80.0488 135.295 80.7845 135.783C82.1792 136.627 83.3144 137.839 84.0652 139.286C84.3135 139.743 84.4435 140.254 84.4435 140.773C84.4435 141.293 84.3135 141.804 84.0652 142.26C84.0341 142.297 84.0163 142.343 84.0145 142.391C84.0127 142.439 84.0271 142.486 84.0554 142.525C84.0837 142.564 84.1242 142.593 84.1705 142.606C84.2167 142.619 84.266 142.616 84.3105 142.598C84.4215 142.564 84.5293 142.52 84.6325 142.467C85.104 142.235 85.52 141.904 85.852 141.497C86.184 141.089 86.4243 140.615 86.5564 140.106C86.8094 138.995 86.5564 137.47 84.8471 135.469C83.5363 133.936 83.1377 132.602 83.2067 131.537C83.29 130.861 83.5311 130.215 83.9107 129.651C84.2902 129.086 84.7975 128.619 85.3913 128.287C91.3473 132.188 98.9589 133.215 108.587 131.199C118.498 129.107 120.905 122.768 119.402 116.735C119.121 115.63 118.722 114.559 118.214 113.539C120.73 112.03 123.455 110.901 126.301 110.189C126.031 110.428 125.82 110.727 125.687 111.063C125.554 111.399 125.502 111.761 125.535 112.12C125.971 114.29 131.107 114.926 133.307 115.118C136.916 115.467 140.274 117.122 142.751 119.77C143.264 120.315 143.211 120.361 143.364 120.361C143.364 120.361 143.571 120.292 143.579 120.154C143.579 120.23 145.756 106.747 137.63 103.037C134.955 101.818 133.031 101.841 131.59 102.416C128.792 103.566 128.11 106.916 128.056 107.238C124.063 107.307 120.046 108.817 116.558 110.871C113.669 106.931 109.223 104.141 104.8 104.555C98.9206 105.099 94.8733 106.793 94.8733 107.153C94.8725 107.173 94.8786 107.192 94.8904 107.208C94.9022 107.223 94.919 107.234 94.938 107.239C94.957 107.243 94.977 107.241 94.9946 107.232C95.0121 107.224 95.0262 107.209 95.0343 107.192C95.1611 107.107 95.2944 107.033 95.4329 106.969C97.9854 105.72 102.002 105.038 104.815 104.792C116.742 103.758 128.785 126.562 108.472 130.785C87.3843 135.216 76.6529 124.722 71.1569 103.52C67.2475 88.4116 72.322 71.0574 78.5615 60.6939C78.7378 61.5447 79.1748 61.928 79.9566 62.7559C83.4606 66.2721 87.6299 69.0551 92.2211 70.9424C89.1648 73.7157 86.5627 76.9515 84.5098 80.5317C78.1399 91.6617 77.7107 104.938 85.3837 118.659C86.1133 120.017 86.9733 121.3 87.9515 122.492C87.5168 122.945 87.1219 123.435 86.7711 123.956C86.1885 124.898 86.5564 125.335 87.4533 125.19C88.4409 125.009 89.3999 124.697 90.3048 124.262C93.6073 125.625 97.1496 126.31 100.722 126.278C108.035 126.01 111.952 121.495 111.676 117.762C111.346 113.401 103.435 106.486 95.3562 113.715C95.3389 113.73 95.3284 113.752 95.327 113.775C95.3255 113.798 95.3333 113.82 95.3486 113.837C95.3638 113.855 95.3853 113.865 95.4083 113.867C95.4313 113.868 95.4539 113.86 95.4712 113.845C103.466 106.946 110.955 113.791 111.246 117.793C111.507 121.219 107.866 125.558 100.707 125.903C97.2306 125.983 93.7716 125.392 90.5194 124.163C92.152 123.346 93.7225 122.411 95.2182 121.365C96.1841 120.736 95.3792 117.923 95.0419 116.819C95.3332 113.845 94.6893 105.651 94.4287 102.7C95.1263 102.148 103.458 95.6324 109.368 92.6736C115.14 89.7837 118.291 80.9303 118.651 79.7958C120.092 79.5735 121.311 79.3359 122.177 79.1366C123.519 78.83 123.764 78.7534 123.81 78.5847C126.723 72.7514 123.097 52.7526 122.054 50.5834C121.915 50.2502 121.652 49.9842 121.32 49.8413C120.988 49.6983 120.614 49.6896 120.276 49.8168C120.882 48.3298 121.549 46.3214 121.985 44.8037C123.519 45.3326 124.883 44.1445 125.55 42.7494C128.01 42.4351 128.478 40.1662 128.141 37.698C129.245 36.0653 129.045 34.7928 128.394 33.8653C127.604 32.8569 126.462 32.1835 125.197 31.9797C125.436 31.1067 125.404 30.1818 125.105 29.3275C124.638 28.308 123.634 28.0474 122.514 28.1163C124.722 22.9193 125.634 16.3884 125.964 10.7774C125.958 10.7584 125.946 10.7418 125.931 10.73C125.915 10.7181 125.895 10.7117 125.876 10.7117C125.856 10.7117 125.837 10.7181 125.821 10.73C125.805 10.7418 125.793 10.7584 125.787 10.7774C125.864 9.42833 125.105 20.4127 121.955 28.1777C121.734 28.2181 121.526 28.3081 121.345 28.4409C121.165 28.5737 121.017 28.7458 120.912 28.9442C120.429 27.1122 118.981 26.246 117.08 26.2537C116.573 26.2201 116.065 26.2875 115.585 26.452C115.104 26.6165 114.661 26.8748 114.282 27.2118C113.962 27.5411 113.71 27.9312 113.543 28.359C113.376 28.7869 113.296 29.2439 113.308 29.7031C110.725 29.0055 109.966 32.087 110.794 34.5705C110.846 34.7878 110.964 34.9838 111.131 35.1319C111.298 35.28 111.507 35.3731 111.729 35.3984C110.15 40.5111 109.966 47.3409 115.401 46.7737C114.489 48.1918 112.902 51.0509 112.335 52.0704C111.806 52.0704 111.039 52.0168 111.039 51.4879C111.034 51.4689 111.022 51.4522 111.006 51.4404C110.99 51.4285 110.971 51.4222 110.951 51.4222C110.931 51.4222 110.912 51.4285 110.896 51.4404C110.88 51.4522 110.869 51.4689 110.863 51.4879C110.863 52.6377 113.446 52.2544 114.581 52.0474C115.839 51.7871 117.065 51.3913 118.237 50.867C119.013 50.5713 119.804 50.3154 120.606 50.1004C120.837 50.0538 121.077 50.0886 121.285 50.1991C121.493 50.3095 121.657 50.4886 121.748 50.706C122.683 52.6607 126.178 72.6518 123.411 78.3394ZM112.603 52.0628C113.715 50.2308 115.585 47.1186 115.991 46.6281C116.016 46.5955 116.03 46.5565 116.032 46.5159C116.035 46.4753 116.025 46.4349 116.005 46.3997C115.984 46.3646 115.954 46.3362 115.917 46.3182C115.881 46.3002 115.84 46.2933 115.8 46.2985C111.453 47.065 110.809 43.0867 111.338 38.7251C111.473 37.6034 111.683 36.492 111.967 35.3984C113.163 35.3984 114.795 34.0416 115.355 33.7044C116.827 36.1573 120.797 36.3029 120.92 36.3795C121.138 36.5411 121.318 36.7469 121.45 36.9834C121.583 37.2199 121.663 37.4817 121.687 37.7516C121.788 38.5891 121.739 39.4381 121.541 40.2582C121.541 40.2582 121.61 40.4345 121.733 40.3502C121.867 40.2232 122.031 40.1309 122.21 40.0813C122.388 40.0318 122.576 40.0264 122.757 40.0656C122.938 40.1048 123.107 40.1875 123.249 40.3065C123.391 40.4256 123.502 40.5773 123.572 40.7488C123.697 40.901 123.766 41.092 123.766 41.2892C123.766 41.4863 123.697 41.6773 123.572 41.8296C123.339 42.034 123.063 42.1846 122.765 42.2707C122.467 42.3568 122.154 42.3763 121.848 42.3278C121.785 42.31 121.719 42.3056 121.654 42.3148C121.589 42.3241 121.527 42.3468 121.472 42.3815C120.997 42.6804 121.242 43.8149 121.288 44.3745C121.291 44.4002 121.3 44.4248 121.315 44.4461C121.33 44.4675 121.349 44.485 121.372 44.4971L121.641 44.6581C121.457 45.1716 120.046 49.5255 119.947 49.9088C118.222 50.3841 115.907 51.9401 112.626 52.0628H112.603ZM84.7781 116.942C85.6913 115.583 86.7362 114.317 87.8979 113.163C88.4358 114.706 89.1401 116.187 89.9982 117.578C90.3439 117.994 90.7788 118.327 91.2706 118.552C91.2093 119.747 91.0483 119.127 88.0588 122.331C86.7751 120.662 85.6824 118.854 84.8011 116.942H84.7781ZM94.743 117.923C94.8474 117.729 94.9198 117.519 94.9576 117.302C95.1416 118.069 95.7242 120.606 95.0036 121.028C92.865 122.346 89.9982 124.301 87.3383 124.738C87.2192 124.759 87.0972 124.759 86.978 124.738C86.0199 124.6 91.0637 119.862 91.3319 119.441C91.4483 119.186 91.5059 118.908 91.5006 118.628C92.0509 118.863 92.6606 118.922 93.2455 118.795C93.8304 118.669 94.3617 118.364 94.766 117.923H94.743ZM96.5827 81.4055L86.8171 92.6276C85.7679 94.2617 84.9453 96.0306 84.3718 97.886C83.6053 101.228 86.5028 109.583 87.7676 112.826C86.4772 113.879 85.4311 115.199 84.7014 116.697C80.9684 108.932 79.1364 100.837 80.6695 92.252C81.2751 92.206 84.3182 91.9683 86.5564 91.8227C86.7174 91.6311 96.5213 81.2906 96.5213 81.2906C96.5275 81.2758 96.5377 81.2631 96.5507 81.2539C96.5638 81.2447 96.5792 81.2394 96.5952 81.2387C96.6111 81.2379 96.627 81.2417 96.6409 81.2495C96.6547 81.2574 96.6661 81.2691 96.6736 81.2832C96.6812 81.2973 96.6845 81.3132 96.6833 81.3292C96.6821 81.3451 96.6764 81.3604 96.6669 81.3732C96.6574 81.386 96.6444 81.3959 96.6295 81.4016C96.6146 81.4073 96.5983 81.4087 96.5827 81.4055ZM101.358 71.7779C100.936 72.3236 100.552 72.8972 100.208 73.495L88.0359 75.7945C89.3295 74.0565 90.7904 72.4493 92.3974 70.9961C94.5437 71.7703 96.8663 72.2532 101.381 71.7779H101.358ZM90.941 43.7766C91.01 43.6999 94.9576 38.5335 96.2071 38.4875C96.3374 38.4875 96.3604 38.4875 96.3144 38.6638C95.8851 39.5741 95.3275 40.4182 94.6587 41.1704C94.4134 41.477 94.3981 41.4846 94.6587 41.8219C95.1234 42.3938 95.5389 43.0041 95.9005 43.6463C96.5903 45.0183 95.3102 44.4128 94.2064 43.194C93.9611 42.9334 93.8078 43.3856 93.8538 43.4546C93.8998 43.5236 93.8538 43.4546 93.9151 43.5083C94.5627 44.1331 95.113 44.8514 95.5479 45.6392C95.5479 45.7159 95.6015 45.8309 95.5479 45.8615C95.0343 46.0915 93.8002 44.7117 93.4936 44.2748L93.4476 44.2135C93.3249 44.1215 92.9723 44.1598 93.1639 44.4741C93.5628 45.0881 93.8243 45.781 93.9305 46.5054C93.9305 46.8887 93.6009 46.8427 93.2406 46.7124C92.1674 46.3138 90.7494 44.9724 90.941 43.7766ZM81.4973 56.1484C81.2953 56.1838 81.1024 56.2594 80.9301 56.3707C79.8304 57.0233 78.9866 58.0321 78.5385 59.2298C77.2584 57.2522 79.1594 55.5811 81.2751 54.5003C81.8605 53.9123 82.4938 53.3739 83.1684 52.8906C83.2527 52.8446 83.5133 52.7066 83.5517 52.791C83.7586 53.2969 81.8346 55.7268 81.4973 56.1484ZM57.8652 15.8672L52.9747 19.1633C52.9747 18.9026 52.8291 13.4296 52.8138 12.8087C53.7566 13.4143 56.8687 15.3306 57.8652 15.8672ZM39.3535 29.7567C39.1542 29.4424 39.1159 29.3658 39.4301 26.0774C40.1507 25.9777 43.3931 25.6175 44.2746 26.0774C44.4126 26.8439 43.6307 28.9595 46.0223 29.1435C47.5554 29.2508 48.9428 29.6494 49.74 29.4808C50.7288 29.2585 50.5065 28.308 50.3839 27.1812C50.2459 26.269 50.0773 25.3185 50.8745 25.2495C51.6716 25.1805 55.3127 24.8509 55.7726 25.6175C56.2325 26.384 55.5196 28.9059 57.0604 28.8752C58.4171 28.8752 61.5062 29.7414 62.1654 28.423C62.748 27.2502 61.7055 25.2725 62.4031 25.1269C63.4149 24.9276 68.0371 24.7896 68.3284 25.6941C68.5813 26.4606 68.7346 28.101 68.2134 28.6376C67.6921 29.1742 66.6267 30.4083 66.458 30.6612C66.2894 30.9142 66.0211 29.7567 66.0211 46.2831C64.488 46.3444 60.1341 46.3674 59.291 46.2831C58.969 45.4629 59.8505 41.6839 59.5592 41.1167C59.1606 40.3042 56.907 40.3502 56.8917 41.0401C56.9167 41.6961 56.86 42.3527 56.7231 42.9947C56.3858 42.9947 55.0597 42.9947 54.8834 42.8337C54.8563 42.7048 54.8563 42.5717 54.8834 42.4428C54.8834 41.7453 55.1287 40.8024 54.6228 40.7488C54.1169 40.6951 52.5761 40.3732 52.0319 40.6875C51.7866 40.8331 51.7483 41.1014 51.7406 41.454C51.7711 42.008 51.7711 42.5633 51.7406 43.1174C51.0582 43.1971 50.3675 43.1686 49.694 43.033C49.4947 42.9027 50.0083 40.4345 49.0118 40.3578C48.4486 40.2322 47.871 40.1832 47.2948 40.2122C46.4516 40.3732 46.4516 41.063 46.4669 41.9216C46.4669 43.3243 46.7199 45.5089 46.4669 46.0532C45.961 46.0915 43.2475 46.1068 41.2622 46.1068C41.2622 44.9877 41.4844 33.0758 41.3925 31.9337C41.3081 30.8835 39.8594 30.5769 39.3535 29.7567ZM41.2622 73.449C37.8971 74.5834 18.7721 74.0009 15.9666 72.6134C15.6267 72.491 15.3219 72.2874 15.0787 72.0202C14.8356 71.7529 14.6615 71.4303 14.5716 71.0804C14.219 68.9724 17.4614 66.8951 19.6 66.3892C20.5365 66.1417 21.5326 66.271 22.3748 66.7495C23.2041 67.244 23.8724 67.9682 24.2988 68.8345C24.3133 68.8649 24.3375 68.8898 24.3675 68.9051C24.3976 68.9205 24.4319 68.9255 24.4651 68.9194C24.4983 68.9133 24.5285 68.8964 24.5511 68.8713C24.5737 68.8463 24.5874 68.8144 24.5901 68.7808C24.5901 68.6658 24.4905 66.2282 28.4228 64.4346C29.1534 64.0432 29.9787 63.8632 30.8059 63.9147C31.6332 63.9661 32.4297 64.247 33.1063 64.7258C33.6479 65.0946 34.086 65.596 34.3787 66.1823C34.3698 66.2262 34.3754 66.2719 34.3947 66.3125C34.4141 66.353 34.446 66.3861 34.4858 66.4069C34.5256 66.4276 34.5711 66.4349 34.6154 66.4276C34.6596 66.4202 34.7003 66.3987 34.7313 66.3662C34.8463 66.2359 35.4519 63.0318 38.4643 62.3956C39.4092 62.2497 40.3741 62.3017 41.2978 62.5485C42.2215 62.7953 43.0838 63.2313 43.83 63.829C46.6815 65.9983 44.6426 72.3222 41.2622 73.449ZM45.2251 69.44C45.9457 67.2094 45.754 64.7412 44.083 63.4917C43.2921 62.8548 42.3773 62.3895 41.3967 62.1255C40.4162 61.8616 39.3914 61.8048 38.3877 61.9587C37.4804 62.17 36.6463 62.6207 35.9723 63.2637C35.2982 63.9067 34.8088 64.7187 34.555 65.615C34.0149 64.7661 33.2049 64.1236 32.2554 63.7907C32.815 56.7769 32.2554 47.2719 32.2171 44.6274C32.2171 44.1062 32.2554 43.9605 32.0485 43.9452C30.5581 43.9129 29.071 43.7926 27.5949 43.5849C26.7134 43.3703 27.0967 39.4687 27.3726 38.6331C27.5183 38.1809 29.036 38.6715 29.3503 38.7175C29.5758 39.4382 29.6387 40.2001 29.5342 40.9481C29.3886 41.7146 31.3509 41.3007 31.9411 41.3007C32.6617 41.3007 32.1558 39.5683 32.3704 38.8554C32.5084 38.3955 34.2791 38.7098 34.7466 38.8554C34.9689 38.9091 34.647 40.4728 34.7007 40.8484C34.7543 41.224 34.9689 41.27 35.3062 41.3237C35.7942 41.3661 36.2856 41.3033 36.7473 41.1397C37.3145 40.8867 36.8316 39.3307 37.1536 39.1621C37.5206 39.0597 37.9088 39.0606 38.2753 39.1648C38.6418 39.2689 38.9725 39.4722 39.2309 39.7523C39.6294 40.4268 39.0086 45.5702 38.9089 46.3444C38.9089 46.3444 38.9089 46.5514 39.1159 46.5591C47.1414 46.6434 46.6662 46.5591 46.7812 46.3751C47.3024 45.7619 46.6509 41.569 46.9498 40.9404C47.2488 40.3118 48.3909 40.7641 48.9658 40.8101C49.1268 40.8101 49.1804 41.339 49.1957 41.4923C49.3107 42.8721 48.9351 43.3473 49.7553 43.5466C50.4285 43.6063 51.1057 43.6063 51.779 43.5466C52.5455 43.6079 51.9706 41.5536 52.2005 41.0784C52.2005 41.0784 52.3002 41.0247 52.3232 41.0247C53.0444 40.9692 53.7699 41.0183 54.4771 41.1704C54.5615 41.5843 54.2548 42.7801 54.5845 43.1327C54.9141 43.4853 56.3168 43.3473 56.7461 43.424C57.4283 43.5543 57.2673 41.6916 57.3286 41.063C57.626 40.9289 57.9542 40.878 58.2782 40.9158C58.6022 40.9536 58.9098 41.0787 59.1683 41.2777C59.3446 41.6379 58.5398 45.5473 58.8694 46.3904C58.8914 46.4616 58.9322 46.5255 58.9875 46.5755C59.0428 46.6254 59.1106 46.6594 59.1836 46.6741C59.7662 46.7507 66.3737 46.766 67.3319 46.5974C67.4238 46.5974 67.5542 46.5284 67.5542 46.3751C67.6308 42.2358 67.3165 39.346 67.8301 39.1084C68.4316 38.9812 69.053 38.9812 69.6544 39.1084C69.8461 39.1084 69.8001 40.2275 69.8078 40.4881C69.8154 40.7488 69.8691 40.9021 70.122 41.0017C70.6249 41.1145 71.14 41.1634 71.6551 41.1474C72.3756 41.1474 71.8851 40.0436 72.1917 39.415C72.391 39.0011 74.2843 39.2464 74.6062 39.415C74.9282 39.5836 74.4146 40.6338 74.9205 40.9021C75.4163 41.055 75.9398 41.0969 76.4536 41.0247C76.7142 41.0247 76.8675 40.9404 76.9288 40.7104C76.9902 40.4805 76.9288 40.0282 76.9902 39.7829C76.9902 39.6756 77.0515 39.645 77.3581 39.5683C77.8793 39.438 78.8222 39.3997 78.8222 39.9362C78.8222 40.7028 78.8988 42.6498 78.8222 43.1787C78.1323 43.24 75.4801 43.2323 75.4034 43.24C75.1965 43.24 75.2041 43.2937 75.1965 43.4316C74.9512 47.0803 73.924 60.7092 73.3951 64.3426C73.1247 64.4874 72.8319 64.5859 72.5289 64.6339C69.4628 65.2931 62.3954 65.4694 59.2373 65.4924C59.6129 62.9552 59.5362 59.5364 58.2255 57.2828C57.7411 56.4219 57.0161 55.7211 56.1392 55.2663C55.2623 54.8115 54.2717 54.6226 53.289 54.7226C48.4445 54.9143 47.4097 60.5023 47.9233 65.3084C46.1296 65.2318 46.1373 65.1934 46.1296 65.3084C46.1296 65.3308 46.1385 65.3522 46.1543 65.368C46.1701 65.3838 46.1916 65.3927 46.2139 65.3927C53.9866 65.8143 60.6477 65.799 65.4539 65.592C66.642 65.5384 72.5289 65.2547 73.5178 64.6262C73.5642 64.606 73.6048 64.5742 73.6356 64.534C73.6665 64.4938 73.6866 64.4464 73.6941 64.3962C74.0927 61.7517 74.7672 53.8794 75.2271 48.5674C76.5226 46.6894 78.3852 46.835 80.1099 48.2071C80.1397 48.222 80.1725 48.2297 80.2057 48.2297C80.239 48.2297 80.2718 48.222 80.3016 48.2071C80.4319 48.2071 80.3016 48.1535 80.7002 48.0001C81.8969 47.5679 83.1731 47.4005 84.4408 47.5096C84.8428 47.5282 85.2345 47.6422 85.5837 47.8422C85.9329 48.0421 86.2295 48.3222 86.4491 48.6594C85.0924 50.3764 85.0234 50.5067 83.6666 52.3234C83.0304 52.0168 81.574 53.5038 81.0298 54.0557C80.6748 54.2298 80.3317 54.4269 80.0026 54.646C76.7449 56.7999 77.8717 58.9079 78.4312 59.4521C78.3966 59.691 78.3966 59.9337 78.4312 60.1727C76.5883 63.2437 75.0013 66.4612 73.6864 69.7926C73.6251 69.8616 69.6774 69.8923 45.2251 69.44ZM59.5976 108.625C57.114 108.341 53.634 108.111 51.2884 106.824C51.178 106.772 51.077 106.702 50.9894 106.617C50.9204 106.548 50.9128 106.525 50.9894 106.463C51.756 105.697 57.1217 105.329 57.6889 105.145C58.2561 104.961 58.8464 103.919 59.1147 103.497C59.4371 103.992 59.8619 104.412 60.3603 104.73C60.8588 105.047 61.4194 105.254 62.0045 105.337C61.6365 106.118 60.4178 108.725 59.5746 108.625H59.5976ZM52.0166 95.1878C52.1392 97.1654 51.4034 99.373 48.8125 101.504C43.1172 106.203 29.5726 105.766 22.2139 104.8C23.0954 97.9549 25.5866 87.6375 29.8792 82.1414C34.6623 76.0092 41.2698 75.0127 45.2098 77.5422C47.6244 79.0753 48.4522 82.5937 48.4292 85.4145C48.4391 85.6327 48.4237 85.8514 48.3832 86.0661C45.1529 87.0744 42.0624 88.4857 39.1849 90.2666C33.9936 93.4616 29.2963 97.397 25.2417 101.949C25.201 101.989 25.1782 102.044 25.1782 102.102C25.1782 102.159 25.201 102.215 25.2417 102.255C25.2823 102.296 25.3375 102.319 25.395 102.319C25.4525 102.319 25.5076 102.296 25.5483 102.255C31.8185 96.1229 39.9897 89.9907 48.7128 88.8869C49.2417 89.3545 51.779 91.9837 51.9936 95.1878H52.0166ZM62.5717 91.6464C51.9629 84.8013 40.3423 89.3468 30.4924 97.2497C47.7163 81.6815 61.1536 84.2724 69.4781 89.0555C69.2757 92.2451 69.3887 95.4468 69.8154 98.6142C67.6737 96.0156 65.2349 93.6771 62.5487 91.6464H62.5717ZM82.9001 131.506C82.7928 132.625 83.176 134.028 84.5328 135.699C85.454 136.67 86.0373 137.912 86.1962 139.24C86.2087 139.787 86.0727 140.326 85.8027 140.801C85.5327 141.277 85.1389 141.67 84.6631 141.938C85.5676 139.394 83.268 136.971 81.0298 135.431C80.3451 134.979 79.779 134.369 79.3788 133.652C78.9787 132.936 78.7562 132.134 78.7302 131.314C78.5845 129.015 79.8033 126.462 80.9761 124.546C82.2017 125.895 83.5924 127.085 85.1154 128.087C84.4964 128.443 83.9707 128.94 83.5816 129.538C83.1925 130.137 82.951 130.819 82.8771 131.529L82.9001 131.506ZM118.107 113.37C117.69 112.548 117.211 111.758 116.673 111.009C124.676 106.67 132.909 105.774 138.903 112.488C132.817 107.314 124.99 109.254 118.084 113.393L118.107 113.37ZM143.203 119.625C140.643 116.813 137.118 115.07 133.33 114.742C128.999 114.435 123.572 113.27 126.585 110.143C129.778 109.354 133.147 109.709 136.105 111.147C138.751 112.611 140.879 114.857 142.199 117.578C142.219 117.604 142.245 117.624 142.274 117.638C142.303 117.653 142.335 117.66 142.368 117.66C142.4 117.66 142.432 117.653 142.461 117.638C142.49 117.624 142.516 117.604 142.536 117.578C142.62 117.448 142.536 117.318 142.414 117.111C139.539 111.3 134.794 107.238 128.202 107.284C128.263 106.954 128.969 103.781 131.667 102.73C133.031 102.202 134.894 102.217 137.446 103.42C142.95 105.95 143.893 113.607 143.18 119.648L143.203 119.625Z" fill="black"/>
<path fill-rule="evenodd" clip-rule="evenodd" d="M113.646 40.2121C113.886 40.4058 114.175 40.528 114.481 40.5647C114.627 40.5647 114.589 40.4037 114.481 40.4267C114.272 40.3228 114.077 40.1941 113.899 40.0435C113.899 40.0435 113.86 39.9975 113.899 39.9591C113.975 39.7905 114.297 39.1236 114.481 38.6484C114.527 38.5411 114.665 38.1578 114.688 38.1118C114.711 38.0658 114.688 37.9585 114.596 38.0045C114.175 38.5718 113.837 39.1964 113.592 39.8595C113.563 39.9165 113.553 39.9812 113.562 40.0444C113.572 40.1076 113.601 40.1663 113.646 40.2121ZM113.109 36.6937C113.404 36.6794 113.699 36.7263 113.975 36.8317C113.986 36.8427 114.001 36.8497 114.016 36.8517C114.031 36.8536 114.047 36.8504 114.06 36.8424C114.073 36.8345 114.083 36.8223 114.089 36.8078C114.095 36.7934 114.095 36.7775 114.09 36.7627C114.053 36.6633 113.991 36.5753 113.91 36.507C113.829 36.4388 113.732 36.3928 113.627 36.3735C113.523 36.3542 113.416 36.3623 113.315 36.3969C113.215 36.4315 113.126 36.4915 113.056 36.5711C112.979 36.6017 113.033 36.732 113.109 36.6937ZM113.385 38.1501C113.385 38.1041 113.446 37.9355 113.462 37.8818C113.497 37.7955 113.501 37.6997 113.474 37.6105C113.447 37.5213 113.39 37.4442 113.313 37.392C113.235 37.3399 113.142 37.316 113.05 37.3242C112.957 37.3324 112.87 37.3723 112.803 37.4372C112.665 37.5676 112.688 37.6902 112.611 37.8895C112.576 37.9903 112.581 38.1007 112.625 38.1979C112.669 38.295 112.749 38.3713 112.849 38.4107C112.954 38.4453 113.069 38.4375 113.17 38.3889C113.27 38.3402 113.347 38.2546 113.385 38.1501ZM93.9 43.5082C93.7313 43.6002 93.7926 43.5772 93.9 43.5082V43.5082ZM115.823 42.6727C115.761 42.573 115.685 42.5653 114.612 42.4734C113.845 42.4044 113.017 42.3584 112.987 42.3584C112.956 42.3584 112.887 42.4734 112.872 42.55C112.709 42.9728 112.707 43.4407 112.867 43.8647C113.027 44.2887 113.337 44.6392 113.738 44.8496C115.324 45.5088 115.961 42.4427 115.853 42.849C115.864 42.8195 115.867 42.7876 115.862 42.7566C115.857 42.7256 115.843 42.6966 115.823 42.6727ZM113.891 44.4587C113.558 44.2801 113.295 43.9949 113.143 43.6488C112.992 43.3027 112.961 42.9158 113.056 42.55C113.929 42.7186 114.435 42.8183 115.355 42.9639C115.148 43.6921 114.619 44.7423 113.891 44.4587ZM117.984 37.7515C117.739 37.5864 117.458 37.4813 117.164 37.4449C117.019 37.4297 116.872 37.4297 116.727 37.4449C116.643 37.4449 116.635 37.5752 116.727 37.5829C117.233 37.7351 117.727 37.9221 118.207 38.1425C118.268 38.2038 118.36 38.0965 118.291 38.0428C118.201 37.9334 118.098 37.8356 117.984 37.7515ZM116.451 38.8247C116.321 38.9473 116.336 39.0776 116.267 39.2769C116.248 39.3257 116.238 39.3778 116.239 39.4303C116.24 39.4829 116.252 39.5346 116.273 39.5826C116.295 39.6305 116.326 39.6736 116.364 39.7093C116.403 39.7451 116.448 39.7727 116.497 39.7905C116.602 39.8275 116.717 39.8217 116.818 39.7744C116.918 39.727 116.996 39.6419 117.034 39.5375C117.034 39.4839 117.095 39.3229 117.111 39.2616C117.154 39.1746 117.163 39.0749 117.138 38.9812C117.113 38.8875 117.054 38.8063 116.973 38.7527C116.893 38.6991 116.795 38.6768 116.699 38.69C116.603 38.7033 116.515 38.7512 116.451 38.8247Z" fill="black"/>
</svg>
