<svg width="154" height="154" viewBox="0 0 154 154" fill="none" xmlns="http://www.w3.org/2000/svg">
<path d="M93.9539 44.459C93.8159 44.459 93.6703 44.5816 93.8159 44.8346C94.8737 46.8596 95.746 48.9762 96.4221 51.1585C96.4911 51.3731 96.8437 51.4038 96.7594 51.0128C96.2457 48.7611 95.3707 46.6073 94.1685 44.6353C94.0995 44.528 94.0305 44.459 93.9539 44.459Z" fill="black"/>
<path d="M87.6758 40.8636C89.4542 41.8908 93.6471 44.2823 93.7621 44.3513C93.7897 44.3655 93.8217 44.3686 93.8516 44.3601C93.8815 44.3515 93.907 44.332 93.923 44.3053C93.923 44.244 95.0575 41.9214 95.6017 40.7563C97.1808 40.7563 98.7215 40.7026 100.301 40.6643C101.775 42.5202 103.117 44.4771 104.317 46.5206C104.339 46.5602 104.375 46.5898 104.418 46.6027C104.461 46.6157 104.507 46.6109 104.547 46.5896C104.587 46.5682 104.616 46.532 104.629 46.4889C104.642 46.4458 104.637 46.3993 104.616 46.3596C103.545 44.3378 102.29 42.4185 100.868 40.626C105.521 40.5263 109.982 40.511 112.711 36.6477C116.858 30.7531 111.982 22.1679 103.612 23.1184C104.199 22.2492 104.576 21.2557 104.715 20.216C104.853 19.1763 104.748 18.1187 104.409 17.1264C104.069 16.134 103.504 15.2338 102.758 14.4966C102.012 13.7594 101.105 13.2052 100.109 12.8776C98.9602 12.4359 97.7073 12.3399 96.5046 12.6014C95.302 12.8629 94.2021 13.4705 93.3405 14.3493C93.1412 11.5132 91.5314 8.89162 88.8026 6.9293C84.4487 3.83252 78.0252 2.87435 72.4218 4.5224C67.4547 6.00946 62.5566 9.91877 62.8555 15.3305C60.6319 13.8507 57.9948 13.1176 55.3265 13.2375C52.6582 13.3574 50.0974 14.3241 48.0155 15.9974C46.7722 16.981 45.8501 18.3128 45.3668 19.8227C44.8835 21.3327 44.8609 22.9524 45.302 24.4752C40.9404 22.8578 35.958 24.4215 33.6354 28.1699C32.7682 29.5853 32.375 31.2403 32.5128 32.8945C32.6507 34.5487 33.3124 36.1159 34.4019 37.3682C36.9851 40.1737 41.3007 40.557 45.187 40.695C56.1254 41.0782 77.0287 40.9786 87.6758 40.8636ZM34.1873 28.5148C36.2416 25.1574 40.9174 23.2411 45.7926 25.1421C45.8131 25.148 45.8348 25.1484 45.8556 25.1433C45.8763 25.1382 45.8954 25.1278 45.9109 25.1131C45.9264 25.0984 45.9378 25.0799 45.9439 25.0594C45.95 25.039 45.9507 25.0172 45.9459 24.9964L45.8769 24.7818C45.4263 23.3005 45.4348 21.7174 45.9014 20.2411C46.368 18.7647 47.2707 17.4643 48.4908 16.5109C50.5437 14.9065 53.0503 13.9902 55.6541 13.8925C58.2578 13.7948 60.8261 14.5206 62.9935 15.9667C63.1545 16.0817 63.2081 16.1507 63.3001 16.1047C63.3921 16.0587 63.3615 15.9437 63.3461 15.7674C62.9935 10.532 67.6234 6.61502 72.6135 5.15862C81.0453 2.69805 91.0102 6.39273 92.6736 13.1842C92.8271 13.8223 92.9119 14.475 92.9265 15.1312C92.9265 15.2308 93.0415 15.2922 93.1335 15.1925C94.2227 13.9435 95.7563 13.1688 97.4079 13.0332C99.0596 12.8976 100.699 13.4118 101.977 14.4665C103.256 15.5211 104.072 17.0329 104.253 18.6802C104.433 20.3275 103.964 21.9804 102.945 23.2871L102.799 23.494C102.786 23.5121 102.777 23.534 102.776 23.5568C102.774 23.5796 102.78 23.6024 102.791 23.6221C102.803 23.6418 102.82 23.6577 102.84 23.6677C102.861 23.6776 102.884 23.6812 102.907 23.678C110.978 22.6125 116.221 30.5308 112.143 36.3411C109.491 40.1201 104.984 40.0358 100.454 40.1737C99.505 38.9972 98.4808 37.8833 97.3877 36.8393C97.978 35.4979 98.4916 34.3021 98.9208 33.183C98.9321 33.1553 98.9329 33.1244 98.923 33.0962C98.9131 33.0679 98.8932 33.0443 98.8671 33.0297C95.0345 31.282 91.3628 29.7413 87.9747 28.4305C87.9502 28.4194 87.9223 28.418 87.8968 28.4265C87.8712 28.4351 87.8498 28.4529 87.8368 28.4765C85.9956 31.5298 84.3097 34.674 82.7853 37.8971C82.7754 37.923 82.7745 37.9515 82.7829 37.978C82.7913 38.0044 82.8083 38.0273 82.8313 38.0428C83.9121 38.6867 85.2152 39.4532 86.7866 40.3424C76.9137 40.465 56.1254 40.5877 45.1563 40.2197C42.0902 40.1047 37.3991 39.9361 34.7622 36.9773C33.8018 35.8 33.2306 34.3535 33.1277 32.8376C33.0247 31.3217 33.3949 29.8112 34.1873 28.5148ZM97.2421 37.1536C98.1905 38.0938 99.0765 39.095 99.8943 40.1507L95.8164 40.2427C96.3223 39.1926 96.7975 38.1578 97.2421 37.1536ZM97.3494 33.6506L93.3558 42.0824L84.3184 37.0999C85.6752 34.5857 87.1009 31.9642 88.404 29.8639C91.7997 31.2053 96.1536 33.0757 97.3494 33.6506ZM114.106 101.726C112.281 101.512 110.273 103.642 108.786 105.789C110.75 100.82 111.729 95.5169 111.668 90.1745C111.607 88.0206 111.254 84.1956 109.583 82.7315C107.284 80.7232 104.631 84.5252 103.129 87.1467C104.242 83.7026 104.712 80.0832 104.516 76.469C104.325 73.6481 103.489 69.2789 100.684 69.2789C98.5145 69.2789 96.7975 71.7778 95.9007 73.4335C95.1341 71.1339 91.8074 61.8436 90.3203 58.2255C87.8904 52.3846 86.1734 50.7059 80.2405 51.9553C77.7262 52.5149 67.7307 55.4124 65.1628 56.1482C58.1874 58.1565 51.6029 60.0575 48.7207 62.1578C47.7525 62.7917 46.9903 63.6943 46.5274 64.7549C46.0645 65.8155 45.921 66.9882 46.1145 68.1291C46.5514 71.4788 53.1359 93.233 55.2056 99.8021C51.6565 103.481 49.4106 109.223 48.6057 111.53C46.6204 117.241 44.0909 128.148 49.3723 137.01C52.1451 141.58 56.472 144.998 61.5601 146.637C61.3225 147.404 61.0005 148.339 60.6479 149.435C60.6433 149.453 60.6428 149.471 60.6463 149.49C60.6499 149.508 60.6575 149.525 60.6685 149.539C60.6796 149.554 60.6938 149.566 60.7101 149.575C60.7265 149.583 60.7445 149.588 60.7629 149.588H61.0542C61.0784 149.586 61.1016 149.577 61.1207 149.562C61.1398 149.547 61.154 149.527 61.1615 149.504C61.5524 148.324 61.8897 147.281 62.1427 146.522C62.1508 146.492 62.1528 146.46 62.1487 146.429C62.1446 146.398 62.1345 146.369 62.1188 146.342C62.1031 146.314 62.0823 146.291 62.0574 146.272C62.0326 146.253 62.0043 146.239 61.974 146.231C56.9786 144.688 52.7268 141.359 50.0315 136.879C46.1988 130.348 45.8462 120.951 49.1806 111.729C52.699 102.048 57.2599 97.4719 59.7894 98.1158C61.974 98.6524 62.7022 102.868 61.7977 109.69C61.3207 113.111 60.5199 116.478 59.4062 119.747C59.3888 119.792 59.3861 119.842 59.3985 119.889C59.4108 119.936 59.4377 119.977 59.4751 120.008C60.2417 120.629 61.5678 121.541 62.4646 122.185C63.4138 124.975 64.5694 127.691 65.9217 130.31C67.1634 132.502 68.4972 133.874 71.3334 133.936C73.9626 134.005 78.7764 132.671 81.2983 131.966C79.7334 133.668 78.4895 135.639 77.6266 137.784C76.7834 140.045 76.4538 143.364 78.3088 145.273C78.3535 145.317 78.4142 145.343 78.4774 145.343C78.5407 145.343 78.6013 145.317 78.6461 145.273C78.6908 145.228 78.7159 145.167 78.7159 145.104C78.7159 145.041 78.6908 144.98 78.6461 144.935C77.067 143.149 77.4733 140.083 78.3011 138.037C79.2758 135.771 80.5661 133.655 82.1338 131.751C90.3433 129.452 100.569 125.811 102.064 125.19C104.608 124.147 106.801 123.066 107.82 120.475C109.123 117.156 107.054 111.898 106.808 110.035C108.134 107.575 111.454 102.002 113.991 102.309C116.689 102.638 116.29 108.97 116.183 110.227C115.087 122.016 107.751 135.461 92.4206 145.487C91.5238 146.07 91.4471 146.131 91.4625 146.254C91.6158 147.404 91.7767 148.553 91.93 149.519C91.9338 149.547 91.9475 149.573 91.9687 149.591C91.9899 149.609 92.017 149.619 92.045 149.619H92.3976C92.4141 149.619 92.4304 149.616 92.4455 149.609C92.4605 149.602 92.474 149.592 92.4849 149.58C92.4958 149.568 92.5039 149.553 92.5087 149.537C92.5135 149.522 92.5148 149.505 92.5126 149.489C92.413 148.63 92.2826 147.603 92.1217 146.369C99.3041 142.168 108.717 133.644 113.677 122.269C115.344 118.466 116.379 114.417 116.743 110.281C116.973 108.341 117.233 102.086 114.106 101.726ZM80.2864 52.4382C87.4305 50.9052 88.1817 53.542 92.2367 64.5724C100.124 86.0353 106.586 110.38 107.491 115.163C108.87 122.43 104.815 123.802 97.4491 126.286C94.291 127.351 89.3852 129.099 82.586 131.054C68.2213 135.162 67.7613 134.71 63.1622 122.407C62.2653 120.008 61.5831 118.138 60.9545 116.329C61.5454 114.245 62.0113 112.128 62.3496 109.989C63.3844 113.377 67.7613 128.095 70.5745 129.628C72.0616 130.456 74.2309 129.904 75.9785 129.459C79.2823 128.624 102.202 122.116 103.995 119.586C104.29 119.164 104.46 118.667 104.486 118.153C104.685 114.474 98.2309 92.8957 96.6902 88.3502L98.8748 87.438C98.9017 87.4262 98.9231 87.4045 98.9345 87.3774C98.9459 87.3503 98.9465 87.3199 98.9361 87.2924C95.5711 77.6417 92.6582 69.1409 88.358 59.3983C88.3462 59.3714 88.3245 59.3501 88.2974 59.3387C88.2703 59.3273 88.2399 59.3267 88.2124 59.337C80.2328 62.3418 66.0366 67.5312 58.1644 70.835C57.9497 70.9269 58.0801 70.6587 61.3225 79.3971C59.5978 80.1636 57.2522 81.3824 55.9568 82.0416C55.9145 82.0645 55.8824 82.1024 55.8668 82.1479C55.8512 82.1933 55.8532 82.2429 55.8724 82.2869C60.6326 92.6734 62.4493 97.4336 67.7383 106.939C67.7843 107.031 67.8993 107.084 68.068 107.023C71.5327 105.819 79.3896 102.002 81.099 101.197C86.411 98.7137 90.2973 96.3144 93.7467 94.4978C93.7727 94.4802 93.7934 94.456 93.8069 94.4277C93.8204 94.3994 93.8261 94.368 93.8234 94.3368C93.831 94.3144 93.831 94.2902 93.8234 94.2678C93.4478 93.2713 92.6812 91.3933 92.091 90.2358L96.2303 88.5035C97.3647 92.3361 104.118 114.489 103.896 118.107C103.874 118.53 103.736 118.938 103.497 119.287C101.872 121.587 78.0865 128.417 75.7333 129.007C74.1159 129.406 72.1076 129.919 70.7815 129.183C68.5432 127.949 65.3698 117.969 63.0548 110.687C62.8402 110.005 62.6256 109.353 62.4263 108.725C62.9475 104.562 62.9782 96.7514 58.8389 97.4336C56.34 88.4038 50.9667 71.6628 50.4531 67.8378C50.3334 67.3145 50.3921 66.7662 50.6199 66.28C50.8477 65.7939 51.2315 65.3979 51.7102 65.155C55.2439 62.7481 79.06 55.6806 82.2871 55.5503C83.9198 55.4737 84.5407 56.1252 85.4682 58.0109C86.0738 59.268 85.9894 59.2833 86.1504 59.3523C86.3114 59.4213 86.572 59.268 86.4264 58.9461C86.2807 58.6241 86.1734 58.4095 85.8898 57.8039C85.0696 56.0716 84.464 55.0138 82.3944 55.0981C80.6314 55.1594 72.1919 57.3977 70.9808 57.7579C67.1941 58.8081 54.1171 62.909 51.4342 64.7487C50.8767 65.0435 50.4306 65.5121 50.1636 66.0835C49.8966 66.6548 49.8233 67.2977 49.9548 67.9145C50.4914 72.1151 57.1296 93.4553 58.4403 97.5715C57.3599 97.9625 56.3841 98.5972 55.5888 99.4266C54.8223 96.92 47.0114 70.6663 46.6511 68.0678C46.4387 67.02 46.5441 65.9327 46.9538 64.9453C47.3636 63.9579 48.0589 63.1153 48.9507 62.5258C52.9673 59.6053 78.2781 52.8905 80.2864 52.4382ZM87.8904 76.9672C87.867 76.9866 87.8485 77.0114 87.8365 77.0394C87.8245 77.0673 87.8193 77.0978 87.8214 77.1282L87.8981 77.7184L87.6835 77.3351C87.6221 77.2355 87.5532 77.2355 87.4458 77.2585C87.1076 77.3606 86.75 77.3812 86.4023 77.3186C86.0545 77.256 85.7266 77.1119 85.4452 76.8982L85.1233 75.8864C85.6066 75.9296 86.0926 75.8412 86.5298 75.6307C86.967 75.4202 87.3392 75.0954 87.6068 74.6906L88.2354 75.5798C88.3081 75.817 88.3145 76.0696 88.2536 76.3102C88.1928 76.5508 88.0672 76.7701 87.8904 76.9442V76.9672ZM87.2619 78.9908C86.7258 79.07 86.1794 78.9471 85.7288 78.6459C85.546 78.4691 85.4157 78.2453 85.3521 77.9991C85.2885 77.7529 85.2942 77.494 85.3685 77.2508C85.911 77.6292 86.5756 77.7906 87.2312 77.7031C87.1618 78.1177 87.1722 78.5418 87.2619 78.9525V78.9908ZM82.0648 73.7171C82.0392 73.7465 82.0038 73.7655 81.9651 73.7708C81.8702 73.7696 81.7767 73.7469 81.6917 73.7045C81.6067 73.662 81.5325 73.6008 81.4746 73.5255C81.3811 73.4362 81.3116 73.3247 81.2728 73.2014C81.2339 73.0781 81.2269 72.947 81.2523 72.8203C81.3213 72.6823 81.4746 72.7053 81.6202 72.7743C81.7423 73.0928 81.891 73.4005 82.0648 73.6941V73.7171ZM84.1651 67.5312C86.2271 67.5312 87.9288 69.9764 87.9058 72.345C87.6816 71.9591 87.3243 71.6682 86.9009 71.5271C86.4774 71.3859 86.0171 71.4042 85.6062 71.5785C85.6362 71.4989 85.6593 71.4168 85.6752 71.3332C85.6884 71.2925 85.6849 71.2483 85.6655 71.2102C85.6461 71.1721 85.6123 71.1433 85.5717 71.1301C85.531 71.1169 85.4868 71.1203 85.4487 71.1397C85.4106 71.1591 85.3818 71.1929 85.3685 71.2336C85.3308 71.3333 85.282 71.4284 85.2229 71.5172C85.1868 71.5804 85.13 71.6292 85.0619 71.6552C84.947 71.6935 84.7936 71.5632 84.7017 71.4329C84.4623 71.0582 84.303 70.638 84.2341 70.1987C84.2261 70.163 84.2062 70.131 84.1777 70.1081C84.1491 70.0852 84.1136 70.0727 84.0769 70.0727C84.0403 70.0727 84.0048 70.0852 83.9762 70.1081C83.9476 70.131 83.9277 70.163 83.9198 70.1987C83.9198 70.8196 84.1881 71.7318 84.74 71.9694C83.4676 72.7896 83.2069 73.8168 83.5595 74.7673C80.4857 72.2607 81.4132 67.4546 84.1651 67.5082V67.5312ZM86.2424 72.414C86.3893 72.4038 86.5366 72.4262 86.6738 72.4798C86.811 72.5333 86.9346 72.6166 87.0358 72.7236C87.1369 72.8306 87.2131 72.9587 87.2588 73.0987C87.3046 73.2387 87.3187 73.3871 87.3002 73.5331C87.2006 74.8056 85.4452 75.6718 84.694 74.7903C83.9428 73.9087 84.9776 72.391 86.2424 72.391V72.414ZM87.8598 70.1144C87.8861 70.0281 87.9399 69.9527 88.0131 69.8998C88.2737 69.7695 88.45 70.2217 88.4653 70.5207C88.4807 70.8196 88.3733 71.0726 88.1511 71.0573C88.0803 70.7379 87.9828 70.4251 87.8598 70.1221V70.1144ZM88.588 75.6411C89.3545 75.7254 89.7991 76.7756 89.1169 78.0327C89 77.6099 88.7257 77.2478 88.3503 77.0209C88.4815 76.8205 88.5702 76.5954 88.611 76.3594C88.6519 76.1234 88.6441 75.8816 88.588 75.6488V75.6411ZM81.9422 78.5616C80.7157 77.5651 79.4126 77.6188 78.945 77.0899C78.8952 77.0182 78.8636 76.9356 78.853 76.849C78.8423 76.7625 78.8529 76.6746 78.8839 76.5931C78.9149 76.5115 78.9652 76.4388 79.0306 76.3811C79.096 76.3234 79.1745 76.2825 79.2593 76.262C79.9859 76.0395 80.7623 76.038 81.4898 76.2577C82.2172 76.4775 82.863 76.9085 83.3449 77.4961C83.9194 78.1692 84.3522 78.9514 84.6173 79.7957C84.8739 80.6006 85.0435 81.4306 85.1233 82.2716L83.5902 83.1301C83.7245 82.2925 83.6437 81.4346 83.3554 80.6368C83.0671 79.839 82.5808 79.1275 81.9422 78.5693V78.5616ZM82.1951 84.5865C82.1605 84.6129 82.1379 84.652 82.1321 84.6951C82.1264 84.7383 82.138 84.7819 82.1644 84.8165C82.1909 84.851 82.23 84.8737 82.2731 84.8794C82.3162 84.8852 82.3598 84.8736 82.3944 84.8471C82.5784 84.7116 82.7457 84.5546 82.8927 84.3796C83.1073 84.7322 83.4522 85.2611 83.6592 85.5677C83.6055 87.0088 81.7275 87.599 80.7617 86.8095C80.6927 86.4799 80.5317 85.9126 80.3938 85.4987H80.8537C80.8913 85.4905 80.925 85.4697 80.9492 85.4397C80.9734 85.4098 80.9866 85.3724 80.9866 85.3339C80.9866 85.2954 80.9734 85.258 80.9492 85.228C80.925 85.1981 80.8913 85.1772 80.8537 85.1691C80.409 85.214 79.9598 85.1573 79.5402 85.0032C79.1206 84.8492 78.7415 84.6019 78.4314 84.2799C77.5193 83.2528 77.5653 81.3441 78.0175 80.041C78.094 80.0343 78.171 80.0343 78.2475 80.041C78.2921 80.0508 78.3387 80.0444 78.379 80.0229C78.4193 80.0014 78.4506 79.9662 78.4673 79.9237C78.4839 79.8812 78.4848 79.8341 78.4698 79.7909C78.4548 79.7478 78.4249 79.7114 78.3855 79.6884C78.3146 79.6524 78.2401 79.6241 78.1632 79.6041C78.4384 78.9808 78.674 78.3408 78.8684 77.6877C78.9067 77.4884 78.8684 77.4884 78.968 77.5651C79.6119 78.0097 81.4899 78.0173 82.5554 79.8187C83.4982 81.4054 83.5519 83.4061 82.1951 84.5942V84.5865ZM78.5004 77.6264C78.2781 78.3929 78.0482 78.7762 77.7339 79.6117C77.5955 79.6434 77.4667 79.708 77.3586 79.8001C77.2505 79.8921 77.1662 80.009 77.113 80.1406C77.0886 80.1854 77.083 80.2379 77.0974 80.2868C77.1117 80.3357 77.1449 80.3769 77.1897 80.4013C77.2344 80.4257 77.287 80.4313 77.3358 80.4169C77.3847 80.4025 77.4259 80.3693 77.4503 80.3246C77.4688 80.2885 77.492 80.255 77.5193 80.225C77.2198 81.1889 77.1802 82.2149 77.4043 83.1991C77.5098 83.663 77.728 84.0938 78.0395 84.4534C78.3509 84.813 78.7462 85.0904 79.1903 85.2611L77.8565 85.8283C76.4768 84.4255 75.2427 81.7274 75.557 79.6961C75.8252 78.094 77.2127 76.8982 78.0482 76.8292C78.4774 76.7909 78.5924 77.2508 78.5004 77.6341V77.6264ZM72.2609 81.4591C72.5102 82.1622 72.8812 82.8161 73.357 83.3907C73.1117 84.9238 71.7243 85.5523 70.2142 84.7628C70.0754 83.9915 69.8168 83.2466 69.4477 82.5552C69.4347 82.5323 69.4171 82.5123 69.396 82.4964C69.3749 82.4806 69.3507 82.4693 69.3251 82.4632C68.9341 82.3942 67.5927 81.919 66.6729 78.9525C65.5231 75.2272 68.4972 75.7101 69.2791 74.476C69.9996 75.3345 71.479 75.3958 72.0769 77.1205C72.5612 78.4726 72.6253 79.9396 72.2609 81.3288C72.2474 81.3685 72.2474 81.4116 72.2609 81.4514V81.4591ZM70.0993 85.0464C71.686 86.0123 73.4797 85.2841 73.6943 83.5134L74.4608 83.4597C74.4358 84.007 74.2597 84.5366 73.9521 84.9899C73.6445 85.4432 73.2174 85.8024 72.7182 86.0279C72.2189 86.2533 71.667 86.3361 71.1235 86.267C70.5801 86.198 70.0664 85.9798 69.6393 85.6367C69.8032 85.4457 69.9567 85.2461 70.0993 85.0388V85.0464ZM88.496 75.2732L87.8214 74.3533C88.2566 73.4565 88.3987 72.4456 88.2277 71.4635C88.6416 71.4635 88.8793 70.9269 88.8486 70.5207C88.8026 69.8308 88.3427 69.3172 87.8291 69.5855L87.6528 69.0796C88.1511 68.681 88.1664 67.7612 87.5302 67.5925C87.6638 67.4094 87.7365 67.1888 87.7379 66.9621C87.7393 66.7353 87.6694 66.5139 87.538 66.3291C87.4066 66.1442 87.2204 66.0055 87.0058 65.9323C86.7911 65.8592 86.5589 65.8554 86.342 65.9215C86.3229 65.6523 86.2133 65.3975 86.0311 65.1986C85.8488 64.9996 85.6046 64.8681 85.3382 64.8254C85.0717 64.7828 84.7987 64.8315 84.5634 64.9637C84.3282 65.0959 84.1446 65.3038 84.0424 65.5536C83.9324 65.4336 83.7917 65.3459 83.6355 65.2999C83.4794 65.2538 83.3137 65.2511 83.1561 65.2921C82.9986 65.3331 82.8551 65.4161 82.7412 65.5324C82.6273 65.6487 82.5471 65.7938 82.5094 65.9522C81.5972 65.063 80.0028 66.1208 80.4091 67.4392C78.9604 67.3702 78.5234 69.6315 79.8495 70.2371C79.7209 70.4071 79.6466 70.612 79.6364 70.825C79.6263 71.0379 79.6807 71.249 79.7926 71.4305C79.9044 71.612 80.0685 71.7554 80.2634 71.842C80.4582 71.9286 80.6746 71.9543 80.8843 71.9158L81.1603 72.437C80.3938 72.7743 81.076 74.246 81.9268 74.1694C82.0291 74.1541 82.1264 74.1147 82.2104 74.0544C82.7715 74.9346 83.6362 75.5783 84.6403 75.8634L84.9776 76.9135C84.6097 77.1435 84.2571 77.3888 83.9121 77.6801C82.0035 75.1352 78.7457 75.4801 78.4391 76.6376C78.2444 76.5597 78.0335 76.5308 77.825 76.5536C77.6164 76.5763 77.4167 76.6499 77.2433 76.7679C76.7203 77.0608 76.265 77.4606 75.9071 77.9414C75.5491 78.4222 75.2966 78.9731 75.166 79.5581C74.3392 78.8214 73.8193 77.8009 73.7096 76.6989C73.564 74.7749 73.2497 72.6746 71.3564 72.2147C70.9955 72.148 70.6248 72.1564 70.2674 72.2395C69.9099 72.3226 69.5735 72.4786 69.2791 72.6976C68.5337 72.3559 67.6919 72.2877 66.9012 72.505C66.1106 72.7222 65.4218 73.2111 64.9558 73.8857C63.6911 75.4725 63.898 77.3658 65.5921 79.6731C66.9028 81.4667 65.3391 84.5329 68.1293 86.4799C67.8227 86.7558 67.5007 87.0471 67.1558 87.4073C66.052 84.6095 62.273 74.6599 61.3915 72.3987C70.0303 68.8343 78.0405 65.9215 86.8326 62.7021C88.7566 66.9716 90.4353 70.9883 91.9607 74.9666C90.7885 74.9478 89.6174 75.0479 88.4653 75.2655L88.496 75.2732ZM67.4164 87.7216C68.1293 86.9551 68.7732 86.4645 69.3864 85.8743C69.8554 86.2967 70.4376 86.5729 71.0614 86.6692C71.6852 86.7655 72.3235 86.6777 72.8981 86.4164C73.4727 86.1552 73.9585 85.7319 74.296 85.1985C74.6335 84.6651 74.808 84.0448 74.7981 83.4137L75.8022 83.3371C76.2326 84.4306 76.8674 85.4322 77.6726 86.2882C77.7105 86.312 77.7543 86.3247 77.7991 86.3247C77.8438 86.3247 77.8876 86.312 77.9255 86.2882L79.7192 85.468C79.7393 85.4732 79.7604 85.4732 79.7805 85.468H80.0258C80.0948 85.767 80.2175 86.2346 80.3861 86.7175C78.0865 87.9746 77.0517 89.6456 77.2663 91.8149C77.2672 91.8335 77.2727 91.8516 77.2821 91.8676C77.2916 91.8837 77.3048 91.8972 77.3206 91.907C77.3365 91.9168 77.3545 91.9226 77.373 91.9239C77.3916 91.9252 77.4102 91.922 77.4273 91.9146C80.4474 90.6651 89.8298 86.8861 90.0827 86.7941C90.167 86.7941 90.19 86.7098 90.1287 86.6408C88.6493 84.8318 86.7943 84.4025 83.9275 85.1997C83.7358 84.8701 83.4292 84.3949 83.1609 84.0499C83.2348 83.9341 83.3014 83.8138 83.3602 83.6897L85.4912 82.6165C85.5318 82.5943 85.5651 82.5607 85.5869 82.5199C85.6086 82.479 85.618 82.4327 85.6138 82.3866C85.5044 80.8086 85.021 79.2794 84.2034 77.9254C84.4717 77.7184 84.7477 77.5268 85.0236 77.3428C84.74 78.8759 86.0354 79.5734 87.5455 79.3205C87.57 79.3151 87.5933 79.3048 87.6137 79.2902C87.6341 79.2755 87.6513 79.2569 87.6642 79.2353C87.6772 79.2138 87.6855 79.1898 87.6888 79.1649C87.6922 79.14 87.6903 79.1147 87.6835 79.0905C87.5665 78.685 87.5326 78.26 87.5838 77.841L88.0284 78.4926C88.0459 78.5204 88.0722 78.5415 88.1032 78.5525C88.1342 78.5635 88.1679 78.5636 88.199 78.553C88.2301 78.5423 88.2567 78.5215 88.2744 78.4938C88.2921 78.4661 88.3 78.4333 88.2967 78.4006L88.2277 77.4195C88.5731 77.6755 88.813 78.049 88.9023 78.4696C88.9088 78.4964 88.9224 78.521 88.9417 78.5408C88.961 78.5605 88.9853 78.5746 89.012 78.5817C89.0387 78.5888 89.0668 78.5885 89.0934 78.5809C89.1199 78.5733 89.1439 78.5587 89.1629 78.5386C90.1057 77.5498 89.9984 76.0244 89.2165 75.5108C90.1912 75.3451 91.1792 75.2707 92.1677 75.2885C93.6471 79.1212 94.8199 82.4326 95.755 85.2534C89.6228 87.645 70.5132 95.2796 70.5132 95.2796C69.4017 92.7347 68.3669 90.2052 67.3704 87.7063L67.4164 87.7216ZM69.3021 99.2196C69.3139 99.2465 69.3356 99.2678 69.3627 99.2792C69.3898 99.2906 69.4202 99.2912 69.4477 99.2809C75.4726 97.1423 84.9086 93.302 91.8074 90.4428C92.1677 91.424 93.1028 93.6009 93.4095 94.2755C88.7336 96.667 81.7659 100.484 68.1139 106.617C61.7901 94.2831 60.7399 91.217 56.34 82.3099C56.34 82.3099 60.8242 80.1253 61.4834 79.788C63.9363 86.2882 66.3816 92.8037 69.2714 99.1813L69.3021 99.2196ZM101.588 91.217C103.014 88.1509 106.693 80.8995 109.192 83.1454C110.725 84.5175 110.978 88.5112 111.009 90.1592C111.043 96.7666 109.544 103.292 106.632 109.223C106.073 107.069 104.287 100.247 101.588 91.217ZM101.351 90.4121C99.8176 85.3071 97.8323 79.0368 96.1 73.9854C97.3648 71.9158 98.8978 69.8155 100.699 69.8155C103.114 69.8155 103.804 74.0697 103.934 76.4766C104.094 81.2666 103.213 86.0343 101.351 90.4505V90.4121ZM62.089 121.227C61.5294 120.805 60.6249 120.138 59.9044 119.655C60.2033 118.789 60.4563 117.946 60.6709 117.133C61.1615 118.49 61.6061 119.801 62.089 121.227Z" fill="black"/>
<path d="M79.1365 111.147L80.5776 111.96C80.6208 111.984 80.6684 112 80.7177 112.006C80.767 112.011 80.817 112.007 80.8647 111.994C80.9125 111.98 80.9571 111.958 80.9959 111.927C81.0348 111.896 81.0671 111.857 81.0911 111.814L81.9726 110.151L83.9733 116.283C84.0011 116.368 84.0555 116.443 84.1286 116.495C84.2017 116.548 84.2896 116.575 84.3795 116.574C84.9887 116.438 85.5841 116.245 86.1579 115.999C86.2656 115.963 86.3544 115.885 86.4047 115.783C86.455 115.681 86.4627 115.563 86.4262 115.455L84.3795 109.545L85.6903 110.174C85.7783 110.215 85.8787 110.221 85.9712 110.191C86.0637 110.162 86.1414 110.098 86.1886 110.013L87.0317 108.48C87.0556 108.435 87.0703 108.387 87.0751 108.337C87.0799 108.287 87.0746 108.237 87.0596 108.189C87.0446 108.141 87.0202 108.097 86.9877 108.058C86.9553 108.02 86.9155 107.989 86.8708 107.966L82.0186 105.651C81.9005 105.595 81.7653 105.588 81.642 105.631C81.5187 105.674 81.4172 105.764 81.3594 105.881L78.9525 110.626C78.9293 110.672 78.9157 110.722 78.9124 110.774C78.9091 110.825 78.9163 110.877 78.9335 110.926C78.9506 110.974 78.9775 111.019 79.0124 111.057C79.0473 111.095 79.0895 111.126 79.1365 111.147Z" fill="black"/>
<path d="M77.4194 123.205C77.4631 123.328 77.553 123.43 77.6702 123.489C77.7875 123.547 77.9229 123.558 78.048 123.519L95.7778 117.854C95.9025 117.814 96.0066 117.726 96.0681 117.61C96.1296 117.495 96.1437 117.359 96.1074 117.233L94.2831 111.247C94.2646 111.184 94.2339 111.125 94.1926 111.074C94.1514 111.023 94.1005 110.98 94.0428 110.949C93.9851 110.918 93.9217 110.898 93.8564 110.891C93.7911 110.884 93.7251 110.891 93.6622 110.909L92.1675 111.354C92.1036 111.372 92.044 111.403 91.9923 111.445C91.9406 111.487 91.8978 111.539 91.8664 111.597C91.8349 111.656 91.8155 111.72 91.8093 111.786C91.8031 111.852 91.8102 111.919 91.8302 111.983L92.957 115.769C92.9762 115.838 92.9677 115.912 92.9333 115.975C92.899 116.038 92.8415 116.085 92.773 116.107L79.4124 120.384C79.3433 120.406 79.2683 120.399 79.2038 120.366C79.1392 120.333 79.0903 120.276 79.0675 120.207L77.6954 116.168C77.6746 116.105 77.6416 116.047 77.5983 115.997C77.555 115.948 77.5022 115.907 77.443 115.878C77.3838 115.848 77.3194 115.831 77.2535 115.827C77.1876 115.823 77.1215 115.832 77.0591 115.854L75.5797 116.352C75.4544 116.395 75.3511 116.487 75.2924 116.606C75.2336 116.725 75.2239 116.862 75.2655 116.988L77.4194 123.205ZM80.4855 81.8349C80.5221 81.8187 80.5516 81.7899 80.5689 81.7539C80.5862 81.7179 80.5902 81.6768 80.58 81.6382C80.5699 81.5995 80.5464 81.5657 80.5136 81.5427C80.4809 81.5198 80.441 81.5093 80.4012 81.513C80.2775 81.5402 80.1493 81.5402 80.0256 81.513C79.8646 81.4593 79.972 81.2907 80.0869 81.1374C80.1018 81.1237 80.1137 81.1072 80.1218 81.0887C80.1299 81.0702 80.1341 81.0503 80.1341 81.0301C80.1341 81.0099 80.1299 80.9899 80.1218 80.9715C80.1137 80.953 80.1018 80.9364 80.0869 80.9228C80.018 80.8691 79.903 80.9228 79.7957 80.9764C79.7344 81.0162 79.6821 81.0683 79.642 81.1294C79.6019 81.1904 79.5749 81.2591 79.5626 81.3311C79.5504 81.4032 79.5532 81.4769 79.5709 81.5478C79.5885 81.6187 79.6207 81.6851 79.6653 81.7429C79.7762 81.8404 79.9143 81.9016 80.061 81.918C80.2077 81.9345 80.3559 81.9055 80.4855 81.8349ZM81.0834 81.9576C81.0669 82.0869 81.0192 82.2103 80.9444 82.3171C80.8697 82.4239 80.77 82.511 80.6542 82.5708C80.4082 82.6697 80.1336 82.6697 79.8876 82.5708C79.8429 82.5464 79.7903 82.5408 79.7415 82.5551C79.6926 82.5695 79.6514 82.6027 79.627 82.6474C79.6026 82.6922 79.597 82.7448 79.6114 82.7936C79.6257 82.8425 79.659 82.8837 79.7037 82.9081C79.8991 83.0338 80.1266 83.1007 80.3591 83.1007C80.5915 83.1007 80.819 83.0338 81.0144 82.9081C81.174 82.8093 81.303 82.6681 81.3869 82.5002C81.4708 82.3324 81.5064 82.1445 81.4897 81.9576C81.4897 81.9037 81.4683 81.852 81.4302 81.8139C81.3921 81.7758 81.3404 81.7544 81.2866 81.7544C81.2327 81.7544 81.181 81.7758 81.1429 81.8139C81.1048 81.852 81.0834 81.9037 81.0834 81.9576ZM80.7232 79.5737C80.3859 79.7116 80.5929 80.3402 80.9531 80.3402C81.0044 80.3406 81.0545 80.3254 81.097 80.2967C81.1394 80.2679 81.1721 80.227 81.1907 80.1792C81.3211 79.9109 81.0068 79.4587 80.7232 79.5737ZM78.7149 80.6621C78.4389 80.4628 78.1629 80.7465 78.3163 81.1297C78.4006 81.3214 78.5922 81.4823 78.7685 81.4057C78.9448 81.329 78.9525 80.8384 78.7149 80.6621ZM80.0793 79.0907C80.1534 78.9613 80.2698 78.8611 80.4089 78.8071C80.5567 78.7652 80.7133 78.7652 80.8611 78.8071C80.9067 78.821 80.9558 78.8174 80.9989 78.7971C81.042 78.7767 81.0759 78.741 81.0941 78.697C81.1123 78.6529 81.1134 78.6037 81.0973 78.5589C81.0811 78.5141 81.0489 78.4769 81.0068 78.4545C80.8974 78.3917 80.7757 78.3532 80.6501 78.3414C80.5245 78.3297 80.3978 78.345 80.2786 78.3864C80.1595 78.4279 80.0506 78.4944 79.9593 78.5815C79.8681 78.6686 79.7966 78.7743 79.7497 78.8914C79.7232 78.9352 79.7153 78.9876 79.7275 79.0372C79.7397 79.0868 79.7711 79.1295 79.8148 79.1559C79.8585 79.1823 79.9109 79.1903 79.9605 79.1781C80.0101 79.1659 80.0528 79.1345 80.0793 79.0907ZM71.2105 79.8879C71.0112 79.8343 71.0112 80.0566 70.7199 80.2865C70.5596 80.4148 70.3627 80.4891 70.1576 80.4987C69.9524 80.5084 69.7495 80.4529 69.5778 80.3402C69.5392 80.3066 69.4888 80.2898 69.4378 80.2934C69.3867 80.297 69.3392 80.3207 69.3057 80.3594C69.2721 80.398 69.2553 80.4484 69.2589 80.4994C69.2625 80.5504 69.2862 80.5979 69.3249 80.6315C69.4727 80.7815 69.6571 80.8903 69.8599 80.9472C70.0627 81.0042 70.2768 81.0073 70.4811 80.9562C70.6854 80.9051 70.8729 80.8016 71.025 80.656C71.1771 80.5103 71.2886 80.3275 71.3485 80.1256C71.3554 80.1009 71.3573 80.0751 71.3541 80.0497C71.3509 80.0243 71.3426 79.9998 71.3297 79.9776C71.3168 79.9555 71.2997 79.9361 71.2792 79.9207C71.2587 79.9053 71.2354 79.8942 71.2105 79.8879ZM70.1987 79.5813C70.2408 79.559 70.273 79.5218 70.2892 79.477C70.3053 79.4321 70.3042 79.3829 70.286 79.3389C70.2678 79.2949 70.2339 79.2592 70.1908 79.2388C70.1477 79.2184 70.0986 79.2148 70.0531 79.2287C69.6698 79.4127 69.5241 78.5772 69.5241 78.1556C69.5298 78.1277 69.5292 78.099 69.5224 78.0714C69.5156 78.0439 69.5027 78.0182 69.4847 77.9962C69.4668 77.9742 69.4441 77.9565 69.4185 77.9443C69.3928 77.9321 69.3648 77.9258 69.3364 77.9258C69.308 77.9258 69.2799 77.9321 69.2542 77.9443C69.2286 77.9565 69.2059 77.9742 69.188 77.9962C69.17 78.0182 69.1571 78.0439 69.1503 78.0714C69.1435 78.099 69.1429 78.1277 69.1485 78.1556C69.1485 78.9528 69.4552 79.8649 70.1987 79.5813ZM68.4433 76.8601C68.4433 76.6685 68.1444 76.5995 67.9681 76.6149C67.7836 76.648 67.6153 76.7411 67.4891 76.8797C67.363 77.0183 67.2862 77.1946 67.2706 77.3814C67.2673 77.4084 67.2698 77.4358 67.278 77.4618C67.2861 77.4878 67.2997 77.5117 67.3179 77.532C67.336 77.5523 67.3582 77.5685 67.3831 77.5796C67.408 77.5906 67.435 77.5962 67.4622 77.596C67.7228 77.596 67.7305 77.0441 68.2287 77.0441C68.3744 77.0594 68.451 76.9675 68.4433 76.8601ZM69.4552 76.2622C69.6085 76.2622 69.9227 75.994 70.375 76.2009C70.4219 76.2223 70.4753 76.2246 70.5238 76.2075C70.5724 76.1903 70.6125 76.155 70.6356 76.1089C70.7659 75.81 69.9687 75.3424 69.3249 75.9326C69.2975 75.959 69.2786 75.9929 69.2705 76.03C69.2625 76.0671 69.2656 76.1058 69.2796 76.1411C69.2936 76.1764 69.3177 76.2068 69.349 76.2284C69.3802 76.2499 69.4172 76.2617 69.4552 76.2622ZM68.382 78.1249C68.0141 78.3089 68.382 79.0907 68.773 78.8914C69.1639 78.6922 68.75 77.9486 68.382 78.1249ZM70.0684 77.2357C69.7081 77.412 70.0684 78.2016 70.4593 78.0023C70.8502 77.803 70.444 77.0518 70.0684 77.2357ZM84.9391 73.6714C85.4019 73.6533 85.8472 73.4897 86.2115 73.2038C86.3648 73.886 86.1195 74.3076 85.7133 74.4762C85.6824 74.4911 85.6574 74.5159 85.6423 74.5467C85.6272 74.5774 85.6228 74.6124 85.6299 74.6459C85.637 74.6794 85.655 74.7096 85.6813 74.7317C85.7075 74.7537 85.7404 74.7663 85.7746 74.7675C85.9962 74.7306 86.1988 74.6198 86.3495 74.4532C86.5346 74.2094 86.6477 73.9187 86.6762 73.6139C86.7046 73.3091 86.6472 73.0024 86.5105 72.7285C86.4885 72.6791 86.4486 72.6397 86.3989 72.6184C86.3491 72.5971 86.2932 72.5954 86.2422 72.6136C85.865 72.9757 85.4042 73.239 84.9008 73.3801C84.8621 73.3852 84.8271 73.4054 84.8034 73.4363C84.7797 73.4672 84.7692 73.5063 84.7743 73.5449C84.7794 73.5835 84.7996 73.6185 84.8305 73.6423C84.8614 73.666 84.9005 73.6765 84.9391 73.6714ZM85.7439 69.6471C85.667 69.6429 85.5906 69.6626 85.5251 69.7033C85.4597 69.7441 85.4084 69.804 85.3782 69.8749C85.3479 69.9458 85.3403 70.0243 85.3562 70.0998C85.3721 70.1752 85.4109 70.2439 85.4672 70.2965C85.5235 70.3492 85.5947 70.3832 85.671 70.394C85.7473 70.4048 85.8251 70.3919 85.8939 70.357C85.9626 70.3221 86.0189 70.2668 86.0552 70.1988C86.0914 70.1308 86.1059 70.0532 86.0965 69.9767C86.0907 69.8872 86.051 69.8033 85.9855 69.7421C85.92 69.6809 85.8336 69.6469 85.7439 69.6471ZM83.4827 71.0038C83.4963 70.9441 83.495 70.8819 83.4791 70.8227C83.4631 70.7635 83.4329 70.7091 83.3911 70.6643C83.3492 70.6195 83.2971 70.5856 83.2392 70.5656C83.1812 70.5455 83.1193 70.54 83.0587 70.5494C82.9981 70.5588 82.9408 70.5829 82.8917 70.6196C82.8426 70.6563 82.8032 70.7044 82.7769 70.7598C82.7507 70.8153 82.7384 70.8762 82.7412 70.9375C82.744 70.9987 82.7617 71.0583 82.7928 71.1112C82.8282 71.1798 82.8843 71.2356 82.9531 71.2706C83.022 71.3056 83.1001 71.3181 83.1764 71.3062C83.2527 71.2943 83.3234 71.2587 83.3784 71.2045C83.4333 71.1502 83.4698 71.08 83.4827 71.0038ZM85.8513 68.6353C85.8857 68.6227 85.9172 68.6031 85.9438 68.5779C85.9705 68.5526 85.9916 68.5221 86.006 68.4884C86.0203 68.4546 86.0276 68.4182 86.0274 68.3815C86.0271 68.3448 86.0194 68.3086 86.0046 68.275C85.8972 67.9301 85.238 67.9147 84.8854 68.0987C84.7168 68.183 84.5941 68.3057 84.6018 68.4666C84.6095 68.6276 84.7704 68.7502 84.9697 68.7579C85.2686 68.7713 85.5674 68.7297 85.8513 68.6353ZM83.5517 69.5474C83.5517 69.3405 83.3754 69.1335 82.9844 69.2332C82.7895 69.2807 82.6117 69.3816 82.4708 69.5244C82.1336 69.8617 82.3175 70.2067 82.5858 70.2067C82.8541 70.2067 83.4673 69.8234 83.5517 69.5474ZM120.782 58.3868C118.352 54.876 113.04 47.2567 110.296 43.999C110.275 43.9822 110.25 43.973 110.223 43.973C110.197 43.973 110.171 43.9822 110.15 43.999L94.3521 53.2203C94.3099 53.2472 94.2798 53.2895 94.2684 53.3382C94.2569 53.3869 94.2649 53.4381 94.2908 53.481C97.6175 58.7853 101.902 64.4883 105.589 69.5781C105.603 69.5986 105.621 69.6161 105.642 69.6295C105.662 69.643 105.686 69.6521 105.71 69.6564C105.734 69.6607 105.759 69.66 105.783 69.6545C105.807 69.6489 105.83 69.6386 105.85 69.6241C110.449 66.374 114.527 63.4918 120.744 58.6627C120.765 58.6476 120.783 58.6283 120.796 58.606C120.81 58.5837 120.819 58.5588 120.822 58.533C120.826 58.5072 120.824 58.4809 120.817 58.4557C120.81 58.4306 120.798 58.4071 120.782 58.3868ZM108.119 52.6148C108.097 52.5938 108.069 52.5791 108.04 52.5719C108.01 52.5648 107.979 52.5655 107.949 52.574C107.92 52.5825 107.893 52.5985 107.872 52.6205C107.851 52.6424 107.835 52.6695 107.828 52.6991C107.797 52.9347 107.676 53.1492 107.49 53.297C107.222 53.4196 106.969 53.0364 106.824 53.0134C106.779 53.0065 106.733 53.017 106.696 53.0427C106.659 53.0683 106.634 53.1072 106.624 53.1513C106.532 53.7109 106.226 54.3011 105.781 54.3548C105.336 54.4085 105.26 54.2168 105.145 54.2935C105.122 54.3051 105.103 54.3227 105.09 54.3443C105.077 54.3659 105.07 54.3908 105.07 54.4161C105.07 54.4415 105.077 54.4663 105.09 54.4879C105.103 54.5096 105.122 54.5272 105.145 54.5388C105.85 54.9067 106.624 54.5924 106.9 53.481C106.997 53.57 107.117 53.629 107.246 53.6508C107.375 53.6726 107.508 53.6562 107.628 53.6036C107.833 53.4881 107.987 53.2991 108.058 53.0747C108.815 53.9871 109.261 55.1179 109.33 56.3018C109.57 56.8482 109.899 57.3507 110.304 57.7889C110.112 58.5554 109.744 58.9693 108.472 58.9463C108.317 58.4616 108.098 58.0001 107.82 57.5742C107.644 57.3059 106.417 57.6662 105.076 54.8454C105.059 54.8102 105.029 54.7827 104.993 54.7686C104.957 54.7545 104.916 54.7548 104.88 54.7695C104.844 54.7842 104.815 54.8121 104.798 54.8475C104.782 54.883 104.78 54.9234 104.792 54.9604C104.92 55.3025 105.071 55.6354 105.244 55.9569C104.294 56.2865 103.366 54.9374 104.708 54.2628C104.739 54.2527 104.765 54.2332 104.784 54.2071C104.803 54.1809 104.813 54.1495 104.813 54.1172C104.813 54.0849 104.803 54.0534 104.784 54.0273C104.765 54.0011 104.739 53.9816 104.708 53.9715C103.297 53.6343 103.083 52.5381 103.888 51.557C104.693 50.5758 105.712 50.6371 106.563 51.8866C106.576 51.9105 106.596 51.9305 106.619 51.9444C106.643 51.9583 106.67 51.9657 106.697 51.9657C106.724 51.9657 106.751 51.9583 106.775 51.9444C106.799 51.9305 106.818 51.9105 106.831 51.8866C106.919 51.6941 107.066 51.5346 107.251 51.4313C107.435 51.3279 107.648 51.286 107.858 51.3117C108.334 51.3807 108.372 51.7563 108.38 52.1319V52.2698C108.38 52.5381 108.832 52.2698 109.023 52.8754C109.063 53.0045 109.072 53.141 109.049 53.2741C109.027 53.4072 108.973 53.5332 108.893 53.6419C108.68 53.268 108.42 52.9228 108.119 52.6148ZM106.586 62.4494C106.923 61.2516 107.543 60.1526 108.395 59.2453C108.882 59.3525 109.39 59.2987 109.844 59.092C110.066 58.9643 110.252 58.783 110.386 58.5648C110.52 58.3465 110.597 58.0982 110.61 57.8425C111.596 57.3707 112.678 57.1354 113.77 57.1553C114.863 57.1753 115.936 57.45 116.903 57.9575C114.129 60.0118 109.522 63.2542 106.67 65.2549C106.355 64.3495 106.333 63.3677 106.609 62.4494H106.586ZM117.179 57.7505C116.17 57.1711 115.034 56.8466 113.871 56.8052C112.707 56.7638 111.551 57.0067 110.503 57.5129C110.201 57.1058 109.919 56.6837 109.66 56.2481C109.639 55.3827 109.408 54.5354 108.985 53.7799C109.144 53.6587 109.263 53.4917 109.325 53.3012C109.386 53.1108 109.388 52.906 109.33 52.7144C109.302 52.5462 109.223 52.3907 109.104 52.2688C108.984 52.1468 108.831 52.0643 108.663 52.0322C108.71 51.7721 108.659 51.5037 108.52 51.2792C108.38 51.0547 108.162 50.8901 107.908 50.8175C107.653 50.7449 107.381 50.7694 107.144 50.8862C106.907 51.003 106.722 51.2038 106.624 51.4497C104.532 48.5522 101.182 53.1514 104.21 54.1325C103.951 54.2824 103.759 54.5253 103.674 54.8116C103.588 55.0979 103.615 55.4061 103.75 55.6732C103.884 55.9403 104.114 56.1462 104.395 56.2488C104.676 56.3513 104.985 56.3429 105.26 56.2251C105.299 56.2151 105.336 56.1968 105.367 56.1715C105.587 56.5904 105.897 56.9555 106.275 57.2405C106.652 57.5254 107.089 57.7232 107.552 57.8195C107.759 58.2181 107.95 58.5861 108.119 59.046C106.394 60.8933 105.459 63.1546 106.387 65.4618L105.474 66.1134C104.708 64.9713 102.569 62.3574 96.6593 53.7722C101.151 50.8441 105.988 47.9159 109.644 45.923C112.979 49.9473 116.727 55.4663 117.892 57.214L117.179 57.7505ZM92.865 35.7818C93.1155 35.8003 93.3658 35.7428 93.5832 35.6169C93.8006 35.491 93.975 35.3024 94.0836 35.0759C94.1922 34.8494 94.23 34.5954 94.1921 34.347C94.1542 34.0987 94.0422 33.8676 93.871 33.6838C93.6997 33.5 93.477 33.3722 93.2319 33.3169C92.9868 33.2616 92.7308 33.2815 92.4972 33.3739C92.2636 33.4664 92.0633 33.6271 91.9224 33.8351C91.7816 34.0431 91.7067 34.2888 91.7075 34.54C91.6972 34.8579 91.8131 35.167 92.03 35.3997C92.2469 35.6324 92.5471 35.7698 92.865 35.7818ZM92.865 33.6738C93.0411 33.652 93.2197 33.6844 93.377 33.7665C93.5343 33.8487 93.6628 33.9768 93.7455 34.1338C93.8282 34.2909 93.8611 34.4693 93.8399 34.6455C93.8187 34.8217 93.7443 34.9873 93.6267 35.1201C93.5091 35.253 93.3538 35.347 93.1815 35.3895C93.0092 35.432 92.8281 35.421 92.6622 35.358C92.4963 35.295 92.3535 35.183 92.2528 35.0369C92.1521 34.8908 92.0983 34.7174 92.0985 34.54C92.0879 34.3241 92.1622 34.1127 92.3054 33.9508C92.4486 33.789 92.6495 33.6896 92.865 33.6738ZM85.8513 36.7936C87.2849 36.6516 88.7301 36.6721 90.1592 36.8549C91.6076 37.0346 93.0351 37.3555 94.4211 37.8131C94.4555 37.8183 94.4907 37.8103 94.5195 37.7907C94.5483 37.7711 94.5686 37.7414 94.5763 37.7074C94.5841 37.6735 94.5787 37.6378 94.5613 37.6076C94.5439 37.5775 94.5157 37.555 94.4824 37.5448C91.7305 36.4463 88.7397 36.0843 85.8053 36.4946C85.629 36.487 85.5753 36.7936 85.8513 36.7936ZM87.2157 33.9114C88.1246 34.4674 88.9247 35.1843 89.5766 36.0271C89.6022 36.0498 89.6347 36.0633 89.6689 36.0655C89.7031 36.0676 89.737 36.0582 89.7653 36.0388C89.7935 36.0194 89.8144 35.9911 89.8247 35.9584C89.8349 35.9257 89.834 35.8905 89.8219 35.8584C89.0554 34.3254 87.438 33.5588 87.2233 33.6661C87.2023 33.6787 87.1848 33.6963 87.1724 33.7173C87.16 33.7384 87.1531 33.7623 87.1524 33.7867C87.1516 33.8111 87.157 33.8354 87.1681 33.8572C87.1791 33.879 87.1955 33.8976 87.2157 33.9114ZM64.7717 27.0663C68.0907 29.5499 67.9298 29.4656 68.0064 29.4656C68.0831 29.4656 68.0064 29.6419 69.6238 26.798C72.092 27.3499 72.9812 27.7332 73.3338 27.8098C73.6864 27.8865 73.6404 27.5569 73.4794 27.4956C72.2897 27.0671 71.0766 26.7062 69.8461 26.4148L70.1527 25.8859C70.1629 25.8759 70.171 25.8639 70.1765 25.8508C70.1821 25.8376 70.1849 25.8235 70.1849 25.8092C70.1849 25.7949 70.1821 25.7808 70.1765 25.7676C70.171 25.7545 70.1629 25.7425 70.1527 25.7325L67.0406 23.9312C67.0188 23.9138 66.9918 23.9043 66.9639 23.9043C66.9361 23.9043 66.909 23.9138 66.8873 23.9312L64.787 26.8823C64.7702 26.8905 64.7559 26.9028 64.7454 26.9182C64.7348 26.9336 64.7285 26.9514 64.7269 26.97C64.7254 26.9885 64.7287 27.0072 64.7365 27.0241C64.7444 27.041 64.7565 27.0555 64.7717 27.0663ZM69.4858 25.9778L69.2942 26.2998C68.6388 26.1616 67.9759 26.0618 67.3089 26.0008C67.2755 25.9978 67.2419 26.0043 67.2121 26.0197C67.1823 26.0351 67.1575 26.0586 67.1406 26.0876C67.1237 26.1165 67.1154 26.1497 67.1167 26.1832C67.118 26.2168 67.1288 26.2492 67.1479 26.2768C67.2322 26.3918 67.2169 26.2768 69.0796 26.683L67.9374 28.63L65.4769 26.8287L67.0636 24.5981L69.4858 25.9778ZM95.7702 68.2903C97.1316 65.4657 97.8241 62.3654 97.7938 59.2299C97.7854 59.1904 97.7637 59.155 97.7323 59.1295C97.7009 59.1041 97.6617 59.0902 97.6213 59.0902C97.5809 59.0902 97.5417 59.1041 97.5103 59.1295C97.4789 59.155 97.4572 59.1904 97.4489 59.2299C97.2896 62.2914 96.6104 65.3034 95.4406 68.137C95.3562 68.3363 95.6705 68.4896 95.7702 68.2903ZM81.459 31.6578C84.4715 33.7275 84.3182 33.7275 84.4945 33.7275C84.5257 33.7221 84.5547 33.708 84.5782 33.6869C84.6018 33.6658 84.6189 33.6386 84.6277 33.6082C84.6365 33.5778 84.6366 33.5456 84.6279 33.5152C84.6193 33.4848 84.6023 33.4574 84.5788 33.4362C83.6931 32.6253 82.7063 31.9322 81.643 31.3742C81.6054 31.3498 81.5596 31.3414 81.5158 31.3507C81.4719 31.3601 81.4336 31.3864 81.4092 31.424C81.3848 31.4616 81.3764 31.5074 81.3857 31.5513C81.395 31.5951 81.4214 31.6334 81.459 31.6578ZM110.557 68.4053C110.555 68.3584 110.536 68.3137 110.503 68.2798C110.471 68.2459 110.427 68.2251 110.38 68.2213C109.859 68.2213 110.771 69.6778 108.847 80.0796C108.844 80.1211 108.856 80.1624 108.88 80.1962C108.904 80.23 108.94 80.2541 108.98 80.2642C109.021 80.2743 109.063 80.2698 109.101 80.2514C109.138 80.2331 109.168 80.202 109.184 80.1639C110.379 76.3659 110.844 72.3763 110.557 68.4053ZM81.597 27.7945C84.8624 28.814 85.5446 29.3276 85.7516 29.2663C85.7833 29.2539 85.8104 29.2323 85.8296 29.2043C85.8488 29.1763 85.859 29.1431 85.859 29.1091C85.859 29.0752 85.8488 29.042 85.8296 29.0139C85.8104 28.9859 85.7833 28.9643 85.7516 28.952C84.466 28.2798 83.0975 27.7798 81.6813 27.4649C81.6376 27.4537 81.5913 27.4604 81.5524 27.4834C81.5136 27.5064 81.4855 27.5438 81.4744 27.5876C81.4632 27.6313 81.4698 27.6776 81.4928 27.7164C81.5158 27.7552 81.5533 27.7833 81.597 27.7945Z" fill="black"/>
<path d="M71.4331 26.1465L74.1773 26.3535L73.909 29.7799C73.9068 29.8071 73.9151 29.8342 73.9322 29.8556C73.9493 29.877 73.9739 29.891 74.001 29.8948C76.3006 30.2858 80.7005 31.0063 80.6238 31.0063C80.7848 31.0063 80.7158 31.2439 81.3214 23.6476C81.324 23.6309 81.3226 23.6138 81.3174 23.5978C81.3121 23.5817 81.3032 23.5671 81.2912 23.5551C81.2793 23.5432 81.2647 23.5342 81.2486 23.529C81.2325 23.5237 81.2154 23.5224 81.1987 23.525L74.4686 23.9006C74.4401 23.9006 74.4128 23.9119 74.3927 23.932C74.3726 23.9521 74.3613 23.9794 74.3613 24.0079L74.208 25.9702C73.2916 25.8676 72.3705 25.8139 71.4484 25.8092C71.4037 25.8072 71.36 25.823 71.327 25.8532C71.2939 25.8834 71.2742 25.9255 71.2721 25.9702C71.2701 26.0149 71.2859 26.0586 71.3161 26.0917C71.3463 26.1248 71.3884 26.1445 71.4331 26.1465ZM74.6602 28.7834C74.6602 28.86 74.7982 28.8907 74.8672 28.8754C76.3773 28.5501 77.9286 28.4596 79.4664 28.6071C79.4885 28.6096 79.5109 28.6077 79.5324 28.6016C79.5538 28.5954 79.5738 28.5851 79.5912 28.5712C79.6087 28.5574 79.6232 28.5402 79.634 28.5207C79.6448 28.5012 79.6516 28.4797 79.6542 28.4576C79.6567 28.4355 79.6548 28.413 79.6487 28.3916C79.6425 28.3702 79.6322 28.3502 79.6183 28.3327C79.6044 28.3153 79.5873 28.3008 79.5678 28.29C79.5483 28.2792 79.5268 28.2723 79.5047 28.2698C78.9499 28.2081 78.3918 28.1799 77.8336 28.1855V27.7026C78.0137 27.7766 78.2062 27.8156 78.4009 27.8175C78.6572 27.8369 78.911 27.7557 79.1084 27.5912C79.3059 27.4266 79.4315 27.1916 79.4587 26.936C80.4092 26.3228 79.819 24.5905 78.5465 25.1807C77.6343 24.0002 76.2469 24.7284 76.6072 25.6253C76.4009 25.6222 76.2001 25.6922 76.0405 25.823C75.8808 25.9537 75.7726 26.1367 75.735 26.3396C75.6973 26.5425 75.7327 26.7522 75.8348 26.9315C75.9369 27.1108 76.0992 27.2482 76.2929 27.3193C76.3337 27.3247 76.3751 27.3156 76.4099 27.2936C76.4447 27.2717 76.4708 27.2382 76.4835 27.1991C76.4963 27.1599 76.4949 27.1176 76.4797 27.0793C76.4645 27.0411 76.4364 27.0094 76.4002 26.9897C75.8483 26.8057 76.0476 25.8936 76.8832 25.9625C76.9158 25.966 76.9487 25.96 76.9779 25.945C77.0071 25.9301 77.0313 25.907 77.0475 25.8785C77.0638 25.8501 77.0714 25.8175 77.0694 25.7847C77.0675 25.752 77.056 25.7206 77.0365 25.6943C76.5152 24.9967 77.642 24.5445 78.3626 25.5026C78.3872 25.5366 78.4237 25.5601 78.4648 25.5686C78.5059 25.5771 78.5487 25.57 78.5848 25.5486C79.543 25.0044 79.9109 26.3535 79.1904 26.6907C79.1697 26.7013 79.1514 26.7158 79.1363 26.7335C79.1213 26.7511 79.1099 26.7716 79.1028 26.7937C79.0956 26.8157 79.093 26.839 79.0948 26.8621C79.0967 26.8852 79.1031 26.9077 79.1138 26.9284C79.1059 27.0012 79.0819 27.0714 79.0435 27.1337C79.005 27.1961 78.9531 27.249 78.8915 27.2886C78.7362 27.3965 78.5516 27.4542 78.3626 27.4542C78.1735 27.4542 77.989 27.3965 77.8336 27.2886V27.12C77.8253 27.0805 77.8036 27.045 77.7722 27.0196C77.7408 26.9941 77.7016 26.9803 77.6612 26.9803C77.6208 26.9803 77.5816 26.9941 77.5502 27.0196C77.5188 27.045 77.4971 27.0805 77.4887 27.12V28.1472H77.0211L77.1361 27.0127C77.1361 26.968 77.1183 26.9251 77.0867 26.8934C77.0551 26.8618 77.0122 26.8441 76.9675 26.8441C76.9227 26.8441 76.8799 26.8618 76.8482 26.8934C76.8166 26.9251 76.7988 26.968 76.7988 27.0127L76.6762 28.1855C76.0208 28.2274 75.3725 28.3457 74.7445 28.5381C74.7036 28.5472 74.6678 28.572 74.6449 28.6071L74.8212 26.3995C75.0128 26.3995 75.0895 26.4455 75.1661 26.3995C75.2108 26.3934 75.2513 26.3698 75.2786 26.3338C75.3059 26.2979 75.3179 26.2526 75.3118 26.2078C75.3057 26.1631 75.282 26.1226 75.2461 26.0953C75.2102 26.068 75.1649 26.0561 75.1201 26.0622H74.8825L75.0051 24.5291L80.6008 24.2149L80.1179 29.8948L74.6372 29.1283L74.6602 28.7834ZM100.623 48.4372C99.6513 45.9633 98.3323 43.6403 96.7056 41.5384C96.6786 41.5061 96.6405 41.485 96.5987 41.4793C96.5569 41.4737 96.5146 41.4839 96.4799 41.5079C96.4453 41.532 96.4209 41.5681 96.4116 41.6092C96.4023 41.6504 96.4088 41.6935 96.4297 41.7301C97.876 43.94 99.1718 46.2448 100.308 48.6289C100.334 48.6705 100.375 48.7004 100.422 48.7119C100.47 48.7234 100.52 48.7156 100.561 48.6902C100.603 48.6648 100.633 48.6238 100.644 48.5764C100.656 48.529 100.648 48.4789 100.623 48.4372ZM85.3686 30.9297C84.2701 30.2852 83.1156 29.7413 81.9193 29.3046C81.8775 29.2861 81.8301 29.2846 81.7872 29.3003C81.7443 29.3161 81.7092 29.3478 81.6893 29.3889C81.6727 29.4309 81.6721 29.4776 81.6876 29.52C81.7032 29.5624 81.7338 29.5976 81.7736 29.6189C82.4482 29.9255 85.2 31.2516 85.2767 31.2516C85.3137 31.2501 85.3494 31.2369 85.3785 31.214C85.4077 31.1911 85.4288 31.1595 85.439 31.1239C85.4492 31.0882 85.4479 31.0503 85.4353 31.0154C85.4226 30.9805 85.3993 30.9505 85.3686 30.9297Z" fill="black"/>
</svg>
