<svg width="154" height="154" viewBox="0 0 154 154" fill="none" xmlns="http://www.w3.org/2000/svg">
<path d="M18.6538 74.8192C18.551 74.6544 18.4729 74.5087 18.4115 74.3784C8.53147 76.4013 2.72178 77.8126 3.86854 78.1276C5.2169 78.4979 13.6628 76.6842 19.1651 75.5597C18.9864 75.3251 18.8155 75.079 18.6538 74.8192Z" fill="black"/>
<path d="M149.384 51.5474C149.368 51.4493 149.282 51.2883 148.889 51.3143C147.476 51.4132 140.613 52.4872 130.579 54.1544C130.599 54.527 130.617 54.8842 130.634 55.2268C133.45 54.7462 136.349 54.2518 139.337 53.7428C148.895 52.1154 149.465 52.0142 149.385 51.5474H149.384Z" fill="black"/>
<path d="M130.608 52.3317C130.313 47.297 130.306 47.5039 129.893 45.747C129.766 45.2043 129.408 44.8402 128.915 44.6048C128.841 44.5706 128.808 44.5247 128.815 44.4669C128.973 43.0779 128.716 41.3616 128.49 39.8476C128.207 37.9596 128.219 37.4391 127.245 35.7826C126.887 35.1724 126.549 34.596 126.395 33.6539C125.717 29.4708 125.639 28.6813 125.52 27.4862C125.207 24.3426 124.107 16.5821 124.062 16.3237C123.744 13.1725 121.705 10.6014 118.988 9.92764C114.939 8.91886 116.971 9.51217 114.812 9.12047C112.056 8.62144 95.9848 7.85796 90.0287 8.18988C89.6554 8.13008 89.9988 8.462 73.022 8.34395C56.4607 8.2305 56.2453 8.43287 50.6449 8.95872C48.1865 9.18946 47.1694 9.28528 44.7302 11.5274C36.7358 18.8748 28.8764 31.9223 23.0008 36.0969C22.5493 36.4181 16.0067 40.0178 14.049 42.2393C13.655 42.6877 13.4197 43.1607 13.3292 43.685C13.2411 44.1963 13.1506 44.7236 13.1836 45.2694C13.2043 45.6113 12.3603 45.097 12.1449 48.8531C12.0936 49.7675 12.2691 50.114 12.3741 50.3202C12.5297 50.6261 12.3458 50.3195 12.2745 52.068C12.253 52.5908 12.3174 53.0591 12.6432 53.7206C12.9736 54.3914 13.2809 54.5263 13.4465 54.5983C13.5761 54.6558 13.3369 54.5937 13.3292 57.5373C13.3292 57.8179 13.4128 57.6017 12.7796 57.9719C10.1504 59.5165 10.1059 61.9572 11.3209 69.5499C11.7693 72.3516 14.9619 72.7886 17.9001 73.4578C18.0129 73.4831 18.0136 73.4907 18.0488 73.6801C18.0902 73.9039 18.16 74.2772 18.5379 74.8859C21.6839 79.9459 28.3367 80.2969 32.7014 76.9134C33.2971 76.4496 34.1096 77.3082 44.4573 78.7201C44.639 78.7447 44.8352 78.7362 44.9602 78.8037C45.062 78.8581 45.0222 79.095 45.1127 79.2767C46.4948 82.0554 47.1486 83.0036 51.6882 84.4432C54.4723 85.327 59.2556 85.9571 62.078 84.9307C66.5715 83.2957 68.5162 78.0026 68.8175 73.5927C68.8459 73.1795 68.7999 73.0737 69.3663 72.9925C69.5151 73.4601 69.2843 74.2098 69.7757 74.5854C71.1011 75.5972 77.0257 73.444 106.836 68.4146C106.97 68.3909 106.973 68.3916 107.058 68.663C107.14 68.9313 107.279 69.3797 107.741 69.9684C108.765 71.2723 109.691 72.1416 111.399 72.728C112.933 73.2539 115.71 73.2178 117.042 72.9917C121.413 72.252 123.482 69.7799 123.964 64.7252C123.971 64.6486 123.953 64.6639 124.082 64.67C124.506 64.6892 125.625 64.7413 128.709 63.4635C131.097 62.4746 131.074 60.339 130.608 52.3317ZM114.053 62.956C114.23 58.74 116.018 56.0763 117.693 55.6248C117.87 55.5772 118.046 55.5527 118.221 55.5527C119.486 55.5527 120.303 56.8336 120.409 57.0291C123.188 61.3655 121.303 68.6783 118.358 69.6971C115.516 70.6813 113.928 65.928 114.053 62.956ZM124.045 63.7632C124.051 63.4436 124.26 62.7521 124.194 60.4034C124.183 60.0347 123.926 56.6052 123.55 55.2752C122.885 52.9234 122.359 51.0684 118.482 51.408C112.207 51.9584 111.601 59.6116 110.542 65.698C110.16 67.9003 109.056 66.4132 77.8375 72.7962C73.4406 73.6954 75.0955 73.2991 73.1562 73.608C70.4218 74.0442 70.5162 74.117 70.51 74.0358C70.5047 73.9591 70.3813 73.8541 70.3698 72.3539C70.3652 71.7629 70.3613 71.2057 70.0279 68.3993C69.4438 63.4727 68.2947 58.2464 62.1025 58.5829C60.9749 58.6434 57.1491 59.0045 55.2749 61.0956C53.7977 62.7445 53.5884 64.2339 53.4006 65.547C52.9652 68.5902 52.4869 72.4475 51.2742 75.0775C50.208 77.3909 47.5718 78.2602 45.6301 77.9022C44.7056 77.7298 41.2217 77.4776 30.4747 75.2293C29.1317 74.948 15.6703 71.9047 15.0577 71.7123C13.3606 71.1781 12.2806 70.574 12.1465 69.2165C12.0798 68.5526 11.8061 67.1207 11.754 66.5657C11.2803 61.577 11.3193 60.2823 12.7872 59.0144C12.9804 58.8473 13.2143 58.6465 13.3269 58.5775C13.3706 58.8044 13.3844 59.1938 13.6497 59.6783C14.1425 60.582 15.7906 61.0305 16.4767 61.1815C23.8563 62.8012 31.7984 63.7257 35.3368 63.9518C36.1333 64.0001 36.2629 63.1914 36.3664 62.5398C37.2993 56.6236 37.5921 57.7113 30.4271 56.967C25.1586 56.4189 21.0085 56.1606 14.4584 54.1047C13.7823 53.8939 13.0847 53.217 13.0594 52.3324C13.0471 51.8518 13.0947 51.3505 13.1215 50.866C13.3814 50.935 13.9632 51.2662 14.847 51.3574C15.2134 51.3957 14.8018 51.5275 16.9619 52.2205C21.1542 53.5681 47.5357 55.9812 50.5636 55.2951C51.4397 55.0966 51.5441 54.5845 51.6989 50.7648C51.7204 50.2413 51.6314 49.5276 50.8565 49.3781C48.9202 49.0087 46.9126 48.9527 44.3722 48.8814C35.8014 48.6423 34.8187 48.3004 23.0353 46.9957C13.6711 45.9601 13.7485 45.9448 14.1157 43.8406C14.4446 41.9595 22.0311 37.7273 24.2334 36.3598C24.7179 36.0586 26.5613 34.1667 26.9262 33.7605C30.6609 29.6211 32.5666 27.116 34.4094 24.6937C38.469 19.3577 39.6004 18.2539 43.772 13.7382C47.824 9.35273 47.4645 9.66625 65.1687 9.26381C66.0518 9.24388 66.4013 9.20172 66.5792 9.19252C66.6029 9.22855 66.6436 9.25231 66.6903 9.25231C70.2096 9.26304 76.8502 9.24158 77.4397 9.25078C76.23 9.55357 74.2186 9.98207 73.1071 10.9219C71.367 12.3929 67.0406 19.1738 66.1277 20.4685C63.3926 20.3819 40.8437 19.1998 39.8035 20.355C33.8658 26.9443 28.9094 34.6864 28.3705 35.1832C27.7028 35.154 27.2306 35.1479 26.8052 35.2782C26.6595 35.3227 26.3874 35.4062 26.4112 35.6017C26.461 36.0034 28.1367 36.1291 35.9248 36.5354C41.1933 36.8098 48.3989 37.1862 55.8728 37.8538C53.7831 41.7625 54.7305 41.452 48.1926 45.3346C46.6963 46.223 45.8417 46.7358 45.6761 46.9505C45.4163 47.2878 45.7558 47.635 46.0631 47.5016C47.2505 46.9896 51.6544 44.1664 52.2056 43.8253C53.094 43.2749 54.6769 41.997 55.1406 40.9093C55.911 39.1048 65.0813 23.0648 71.4529 14.1138C73.6429 11.0368 74.5766 9.90082 84.1638 9.45085C87.8456 9.27761 91.824 8.77245 105.206 9.3719C125.954 10.3002 122.12 11.1112 124.987 30.7402C126.31 39.7825 127.016 32.5792 128.125 43.3899C128.263 44.7244 127.907 44.9781 128.536 45.3515C129.017 45.6381 128.995 46.049 129.15 46.7765C129.279 47.3866 129.365 47.7898 129.659 51.9055C130.44 62.8671 129.583 61.9634 126.884 63.0971C126.231 63.3715 124.491 63.7456 124.044 63.764L124.045 63.7632ZM37.0884 49.3352C37.1911 49.2938 38.1953 49.4724 43.736 49.6526C47.7282 49.7813 47.3549 49.8404 49.3418 49.9799C50.976 50.0933 50.9154 50.0435 50.7445 51.6786C50.4601 54.4098 50.6356 54.4044 50.4455 54.4481C49.3394 54.7708 37.1245 53.9376 36.7443 53.8272C36.7787 53.7482 36.7749 53.6938 36.7757 53.5689C36.7795 51.9407 37.1535 49.6564 37.0884 49.3352ZM15.3683 46.8018C15.3966 46.883 15.2571 47.4112 14.9973 48.5242C14.9612 48.679 14.9681 48.6323 14.8846 50.4229C14.7972 50.4306 14.4391 50.4137 13.2448 49.9017C13.1368 49.8549 13.1253 49.8381 13.0747 49.3774C13.021 48.8876 13.0234 49.2218 13.0954 48.3211C13.1545 47.5852 13.2641 46.2154 13.5063 46.1249C13.5232 46.1195 13.5615 46.1333 13.6213 46.1924C13.8758 46.4446 14.4131 46.5419 15.3683 46.8018ZM29.958 34.4235C32.0131 31.8257 35.6182 26.791 36.4269 25.7692C40.3179 20.8609 40.0826 20.897 40.3662 20.8977C55.445 20.9 58.8914 20.8663 65.6133 21.2297C65.2592 22.2308 61.2287 27.7722 57.0172 35.6715C56.3358 36.9478 56.3848 36.9554 56.2008 36.9508C56.0529 36.9424 31.8292 35.3947 29.3287 35.2353C29.4598 35.0536 29.6897 34.7639 29.958 34.4235ZM56.1525 73.0055C56.2782 68.8914 57.7508 65.8114 59.9079 65.1576C61.2202 64.7597 62.5962 65.4067 63.6785 66.9321C66.734 71.2355 64.6996 79.0988 61.106 80.0915C59.0708 80.6542 57.691 78.4787 57.3169 77.7987C56.3473 76.0372 56.3211 74.7632 56.1517 73.004L56.1525 73.0055ZM57.5822 60.6832C59.6611 59.7074 60.9887 59.7404 62.4551 59.6262C63.1435 59.574 64.5769 59.4636 66.1461 60.7384C67.8938 62.1573 68.4917 64.8111 68.8781 67.468C69.013 68.384 69.328 70.6921 69.3579 71.9346C69.3595 72.0213 69.3617 72.1109 69.3587 72.1255C69.3411 72.1385 69.262 72.1562 69.1854 72.1738C69.095 72.1945 68.9294 72.2321 68.8474 72.2627C68.8436 72.2282 68.839 72.1746 68.8374 72.091C68.7631 68.5143 67.3764 63.5754 63.71 61.4268C61.9078 60.3712 59.6473 60.4249 57.5822 60.6832Z" fill="black"/>
<path d="M104.417 61.2004C104.399 57.1055 104.388 50.1008 104.043 46.0136C103.564 40.3081 102.29 25.1527 100.859 19.4449C100.615 18.4706 99.3084 18.6998 96.2054 18.6998C95.2012 18.5688 85.5665 18.9137 84.8766 19.1176C83.5305 19.5139 84.8122 19.123 86.8113 48.7011C88.0769 63.2862 87.3364 64.1578 88.0355 64.5035C88.4058 64.6882 96.9068 63.3062 97.5706 63.1896C104.453 61.9823 104.421 61.9992 104.417 61.2004ZM101.027 44.9841C101.004 44.9894 100.975 44.9979 100.952 44.9856C100.829 43.871 99.8504 29.0207 97.8857 19.4626C98.525 19.4365 99.372 19.4219 99.9983 19.5208C100.697 20.3556 102.888 39.4894 103.125 44.8139C103.125 44.8331 103.127 44.8568 103.135 44.8591C102.976 44.9166 101.377 44.9021 101.027 44.9848V44.9841ZM98.689 29.7757C98.7734 29.87 100.248 43.9945 100.342 44.6445C100.408 45.0968 100.478 45.073 99.4318 45.1236C97.8826 45.2002 97.0379 45.3152 96.0414 45.3551C95.6788 44.2444 95.2672 35.6912 94.3082 29.9352C94.6026 29.8585 97.9715 29.7834 98.6883 29.775L98.689 29.7757ZM86.3215 30.4924C86.3867 30.415 86.655 30.4357 93.2642 29.9574C93.7042 29.9513 93.708 29.952 93.7402 30.3261C95.0878 45.4808 95.7784 45.4248 94.992 45.4908C90.4149 45.8687 87.699 46.1454 87.5043 46.1362C87.2966 45.9239 87.5649 44.8507 86.6619 35.1331C86.3552 31.8431 86.1705 30.6734 86.3215 30.4924ZM87.8707 46.8399C88.372 46.7839 91.9833 46.462 92.6563 46.4267C92.7881 46.4206 92.8088 46.5218 92.9062 47.8073C92.9667 48.6037 93.0925 49.8049 93.2488 51.6308C93.2557 51.7083 93.9548 62.7834 93.9272 62.9512C87.8922 63.7983 88.4679 63.9079 88.4403 63.6051C88.0953 47.7276 86.9923 46.9388 87.8707 46.8399ZM94.6723 62.8386C94.6332 62.742 94.2476 52.3085 93.4113 46.7004C93.3883 46.544 93.3692 46.4183 93.3623 46.3439C94.5198 46.2481 102.496 45.477 103.206 45.7499C103.805 55.4912 103.603 60.4316 103.603 61.2334C103.416 61.4473 94.752 62.87 94.6723 62.8386Z" fill="black"/>
<path d="M120.658 19.1969C120.34 18.2066 120.602 18.2158 112.474 18.297C109.658 18.3254 110.415 18.2771 104.193 18.4664C103.15 18.4971 103.318 19.443 103.49 20.4165C104.151 24.1374 105.013 33.5721 105.462 36.4259C105.54 36.9234 105.986 37.0269 106.454 37.0162C122.171 36.6582 123.009 36.4911 123.078 35.26C123.232 32.4951 121.25 21.0474 120.657 19.1962L120.658 19.1969ZM122.136 35.3305C120.992 35.5222 107.179 36.4252 106.126 36.1331C105.734 30.1509 104.928 24.4455 104.207 19.3648C105.304 19.0084 118.582 19.1893 119.776 19.1402C119.902 19.1341 119.899 19.1065 120.136 20.3575C120.596 22.8036 122.057 30.8247 122.231 33.3076C122.371 35.2914 122.344 35.2953 122.135 35.3305H122.136Z" fill="black"/>
<path d="M83.4371 34.9192C82.0704 18.9873 82.8676 18.7466 80.6545 18.9168C78.1663 19.1076 76.7137 19.1115 75.6628 19.2571C71.3831 19.8496 71.2628 19.4311 71.4076 22.1033C71.6223 26.0641 71.2804 22.275 72.4279 40.4545C72.4992 41.5813 72.4839 42.0221 73.1623 41.9884C73.8353 41.95 75.2772 41.3613 76.0959 40.4905C77.9808 38.4829 76.7283 39.0724 82.5663 38.01C82.8269 37.9625 83.0569 37.8613 83.3083 37.7877C83.5529 37.7162 83.5958 36.7605 83.4371 34.9192ZM73.3462 41.185C73.3317 40.9106 72.211 22.8039 72.1451 22.1508C72.0372 21.0797 72.2059 20.5045 72.651 20.4253C76.1181 19.8059 80.4054 19.8082 80.8416 19.6917C81.4724 19.6894 81.4609 19.6595 81.5008 20.4054C81.5046 20.4828 82.7702 37.1691 82.7878 37.1622C82.7296 37.2105 82.3432 37.2641 81.7032 37.3538C77.7401 37.9057 77.1177 37.987 76.2699 38.9896C75.2864 40.1525 75.0457 40.4997 73.3462 41.185Z" fill="black"/>
<path d="M85.1443 57.9145C84.9458 57.9299 84.988 57.9268 85.1443 57.9145C84.9167 54.7234 84.725 51.4548 84.5556 48.5718C83.9677 38.5546 83.9102 38.6688 83.4855 38.7209C83.3598 38.7378 83.2402 38.8466 83.2563 39.0505C83.5484 42.6211 85.0232 66.0614 85.0477 66.2868C85.1827 67.5048 85.1696 67.3055 84.6821 67.4489C81.8627 68.2906 73.4536 69.8122 73.1861 69.7286C73.1646 69.6497 71.295 44.017 70.924 43.761C70.8872 43.7357 70.8366 43.7288 70.796 43.7449C70.4127 43.8897 70.4579 44.6893 70.6066 46.6463C70.7776 48.9022 71.5112 62.7254 72.5016 69.6888C72.5659 70.1311 72.4479 70.289 73.4053 70.4622C73.5272 70.4775 74.6556 70.2951 75.0304 70.2338C82.9566 68.936 84.459 68.23 85.3076 68.0054C86.2014 67.7678 85.8588 67.9081 85.1428 57.9145H85.1443Z" fill="black"/>
<path d="M33.1892 66.3605C30.3506 65.7771 21.0999 63.9067 18.1908 63.9067C17.6397 63.9067 17.3446 64.0616 17.2273 64.6127C17.0954 64.9262 16.9107 67.265 17.2035 68.9974C17.2181 69.0802 17.284 69.1361 17.3331 69.1706C18.4683 69.9655 32.5445 72.7121 33.2397 72.5902C33.6552 72.5143 33.7564 72.4499 33.7986 71.9923C34.28 66.789 34.1734 66.5628 33.1892 66.3605ZM17.954 68.5835C17.8352 67.012 17.8919 66.3574 18.0345 64.6189C18.0506 64.4234 30.2272 66.6556 32.789 67.0251C33.0519 67.0626 33.2597 67.0917 33.2896 67.1101C33.3931 67.4068 33.0481 71.7156 33.0243 71.7922C32.9117 71.8467 18.9428 69.0373 17.954 68.5835Z" fill="black"/>
<path d="M83.2771 64.9565C83.0448 56.3298 82.795 58.332 82.4646 52.8228C82.158 47.772 81.9847 41.1199 81.1752 41.9577C81.0273 42.1095 81.0488 42.3885 81.2136 44.5617C81.5347 48.7785 81.8253 54.2355 82.2124 58.0223C82.3848 59.6995 82.509 60.9114 82.6432 65.1811C82.5742 65.2524 82.0146 65.3597 80.7874 65.5943C75.4007 66.6222 75.6115 66.7119 75.6062 66.6153C75.357 62.0697 73.8316 44.6728 73.8293 44.5954C73.8224 44.3639 73.7059 44.2742 73.5204 44.3049C73.1915 44.3578 73.3088 44.3118 73.6377 49.2361C73.7534 50.9739 73.8101 53.896 73.9842 55.3401C75.2267 65.6694 74.3912 67.2907 75.5801 67.2907C75.945 67.2907 76.6356 67.1036 77.6913 66.9219C78.9047 66.7127 81.4198 66.2788 82.7436 65.812C83.1867 65.8227 83.2886 65.3996 83.2771 64.9565Z" fill="black"/>
<path d="M50.3281 60.2033C50.0384 58.6879 49.6513 59.0849 39.1894 58.231C39.1672 58.2287 39.1334 58.2341 39.1112 58.2479C38.258 58.2471 38.2818 58.2402 38.1921 58.2831C37.9552 58.3958 37.8817 58.7001 38.1408 58.845C38.4228 59.0021 38.3814 59.0029 39.808 59.1815C39.6953 59.5977 39.6056 59.922 39.5811 60.7054C39.5366 62.135 39.9759 62.1228 47.6751 62.6463C48.1243 62.677 49.3194 62.7276 49.3462 62.7329C49.3462 63.3124 49.1906 63.8161 49.7456 63.8161C50.0867 63.8161 50.1541 63.3485 50.2438 62.7667C50.3695 61.9511 50.5251 61.2313 50.3281 60.2033ZM40.5163 60.5713C40.5883 59.5533 40.5646 59.3816 40.5723 59.2513L48.8909 59.9174C49.3791 59.9849 49.4328 60.526 49.4205 61.0473C49.4175 61.1554 49.465 61.7441 49.4136 61.7924C49.3538 61.8483 49.0196 61.8184 48.5551 61.7778C44.0171 61.3777 42.4181 61.4681 40.6244 61.0151C40.5746 61.0021 40.5171 60.9883 40.5079 60.9829C40.4895 60.9469 40.5017 60.7729 40.5163 60.5713Z" fill="black"/>
<path d="M88.0002 12.9411C88.0409 16.4319 82.3638 18.0041 82.7563 16.5599C83.1955 14.9456 84.7577 11.6732 84.8535 11.4501C85.2889 10.4337 88.1137 11.2738 88.0002 12.9411ZM87.0359 13.1572C86.9409 12.5287 86.7416 12.1316 85.8355 11.8664C85.6592 11.815 85.7083 11.8441 85.013 13.4577C83.9345 15.9605 84.0295 15.716 83.9728 15.9781C84.4772 15.9536 84.9064 15.7167 85.43 15.4339C86.5691 14.8183 86.7922 13.9314 87.0359 13.158V13.1572Z" fill="black"/>
<path d="M126.509 45.4007C124.593 46.2072 104.963 47.209 107.219 48.1013C108.409 48.5766 119.858 46.9254 121.35 46.8656C121.726 46.8503 122.196 46.8319 124.97 46.5092C126.211 46.3651 126.894 46.1213 127.004 45.784C127.094 45.5088 126.766 45.2919 126.509 45.4007Z" fill="black"/>
<path d="M107.85 12.6856C108.049 12.0493 109.44 12.1651 110.05 12.3912C111.03 12.7545 111.149 13.6422 109.881 14.2746C109.609 14.4103 109.613 14.4049 109.85 14.5897C110.95 15.4459 110.808 16.621 110.298 16.6593C110.11 16.6731 109.853 16.5206 109.8 16.3198C109.737 16.0806 109.609 15.8821 109.497 15.6705C109.135 14.9952 108.375 14.9614 108.245 14.9147C107.917 14.7982 108.052 16.3366 107.498 16.516C106.325 16.8954 107.361 14.2524 107.85 12.6856ZM108.969 12.9523C108.539 12.9523 108.554 12.9316 108.486 13.2237C108.361 13.7633 108.196 14.0768 108.545 13.9634C108.998 13.8162 110.326 13.403 109.913 13.1654C109.599 12.9845 109.244 13.0052 108.969 12.9523Z" fill="black"/>
<path d="M51.5832 65.4941C51.426 64.8931 47.9367 65.307 39.4817 64.1097C37.8949 63.8843 37.7293 63.8613 37.6266 64.171C37.6028 64.2431 37.6166 64.3197 37.6649 64.388C38.2904 65.2565 47.5833 66.1502 48.0417 65.9471C48.7845 65.9471 51.2551 65.9142 51.3548 65.8498C51.4299 65.8007 51.6292 65.6704 51.5832 65.4941Z" fill="black"/>
<path d="M106.884 12.3547C106.88 12.4919 106.848 12.5908 106.702 12.6229C104.308 13.145 104.549 12.1063 104.082 13.7797C105.4 13.6747 105.359 13.5336 106.159 13.6777C106.269 13.6977 106.321 13.9751 106.228 14.0464C105.98 14.2319 105.869 14.2657 104.748 14.4765C104.093 14.5991 103.68 14.4972 103.645 14.8981C103.59 15.5266 102.8 15.4914 105.503 15.1388C106.553 15.0016 106.308 15.6968 105.752 15.8333C101.669 16.8382 102.39 15.9383 103.652 12.4972C103.726 12.2941 103.864 12.1768 104.084 12.1255C104.695 11.9829 106.908 11.7284 106.886 12.3547H106.884Z" fill="black"/>
<path d="M91.4048 12.2612C91.9069 12.4053 92.2886 12.4306 92.1062 12.7089C91.7704 13.2194 90.6865 13.283 90.2228 13.2777C89.8801 13.2738 89.9031 13.2616 89.7805 13.9545C89.9951 14.055 90.7709 13.7775 91.3895 13.9047C91.6577 13.9599 91.8348 14.2129 91.5719 14.4927C91.3051 14.7763 90.9157 14.8138 89.5651 14.879C89.3957 14.8874 89.3872 14.8874 89.1419 15.6593C89.063 15.9085 90.3661 15.4623 90.9272 15.6593C91.1986 15.7544 90.9755 16.3876 90.4765 16.4604C88.4881 16.7509 87.8488 16.8728 88.4344 15.0775C89.3397 12.3026 88.9725 12.4843 91.3941 12.3088L91.4056 12.262L91.4048 12.2612Z" fill="black"/>
<path d="M79.3445 16.1674C81.07 16.1551 81.658 16.0815 81.7308 16.4372C81.8327 16.9362 80.4077 17.17 79.8987 17.1493C77.409 17.0512 73.9855 17.61 73.8743 17.1087C73.8421 16.9615 73.8077 16.776 73.9824 16.6741C74.8249 16.1835 78.6914 16.172 79.3445 16.1674Z" fill="black"/>
<path d="M112.099 17.0043C111.563 17.0128 111.501 16.4516 111.836 16.2431C112.101 16.0783 112.466 15.9702 113.033 15.6199C113.359 15.4183 112.333 15.2673 111.784 13.4613C111.625 12.9362 112.029 12.6557 112.267 12.7247C112.673 12.8427 113.367 14.6089 113.653 14.3628C114.213 13.8814 114.136 13.8162 114.541 13.1999C114.79 12.822 115.379 13.0206 115.233 13.5249C115.006 14.3068 113.895 16.6264 112.098 17.0051L112.099 17.0043Z" fill="black"/>
<path d="M99.5853 12.2773C99.7609 11.9784 100.212 12.1738 100.252 12.8668C100.353 14.5823 100.294 14.7993 100.385 15.1718C101.144 14.4758 101.986 11.8971 102.55 12.1593C102.849 12.298 102.679 12.7311 102.522 13.0446C101.713 14.6582 101.693 14.7847 100.649 16.0625C100.317 16.4696 99.6942 16.4841 99.5784 15.762C99.491 15.2193 99.3063 12.7503 99.5846 12.2773H99.5853Z" fill="black"/>
<path d="M93.364 12.7553C93.4882 12.2417 94.244 12.0593 94.2785 12.4793C94.3284 13.0918 93.6454 14.9591 93.4307 15.4942C93.8623 15.5655 95.0413 15.127 95.5909 15.2228C96.1144 15.314 95.9772 16.0607 95.308 16.158C90.7907 16.8157 92.4066 16.7291 93.3648 12.7561L93.364 12.7553Z" fill="black"/>
<path d="M29.6421 44.7612C29.9487 45.1591 29.4405 45.7662 28.9184 45.8566C25.6391 46.4239 24.6955 44.5535 25.9442 43.9487C26.8978 43.4872 28.9077 43.8092 29.6421 44.7612Z" fill="black"/>
<path d="M78.7374 12.8813C78.3832 12.82 77.7554 12.7893 78.0007 12.416C78.3556 11.8764 80.3126 12.0028 81.1206 11.8779C81.5583 11.8104 82.7618 11.7414 83.3934 11.9086C83.7069 11.9913 83.4693 12.4674 83.1588 12.5241C81.2294 12.8767 80.7519 12.6322 78.7374 12.8813Z" fill="black"/>
<path d="M79.8779 13.996C80.5739 13.996 82.6282 13.8955 82.1844 14.4291C81.7659 14.9327 80.3914 14.9143 79.7659 14.8568C79.0032 14.7878 78.436 14.9779 77.4916 14.7985C77.1443 14.7326 77.0623 14.2436 77.3643 14.1784C78.9917 13.8273 79.8809 14.0795 79.8779 13.996Z" fill="black"/>
<path d="M96.6885 15.9651C96.7981 15.4967 97.4152 12.7371 97.7302 12.3738C98.023 12.0365 98.5558 12.232 98.4768 12.6965C98.427 12.9924 98.3872 13.1242 97.603 15.9628C97.5125 16.2909 97.4075 16.5607 97.084 16.5009C96.6333 16.4173 96.7544 15.9812 96.6885 15.9651Z" fill="black"/>
<path d="M53.075 23.2091C52.6587 23.1455 51.988 23.7288 48.7485 26.5413C44.2865 30.4162 42.4713 31.9646 42.4751 32.4123C42.4751 32.5342 42.5702 32.6515 42.666 32.6515C42.9849 32.6515 44.4175 31.8481 52.8626 23.9082C53.075 23.7081 53.3371 23.2497 53.075 23.2091Z" fill="black"/>
<path d="M58.2902 23.4052C57.4991 23.3362 49.2495 31.2631 48.8087 31.8319C48.4798 32.2597 48.8716 32.6912 49.3123 32.324C49.9309 31.8089 59.3572 23.4052 58.2902 23.4052Z" fill="black"/>
<path d="M47.5521 23.8092C47.5268 23.7594 47.46 23.6842 47.2837 23.7471C46.9533 23.8651 38.8256 29.8849 39.4143 30.7104C39.5124 30.8469 39.7501 30.8262 39.8421 30.7656C39.9632 30.6859 41.9646 29.0309 43.8288 27.4311C47.7015 24.1081 47.6226 23.9495 47.5521 23.8092Z" fill="black"/>
<path d="M62.432 71.7369C62.1131 71.7231 62.0235 71.9309 62.0242 72.2497C62.0242 72.9573 61.585 74.1324 60.892 74.2773C59.411 74.5862 58.7334 69.9685 60.5862 69.5668C60.7088 69.5415 60.9909 69.4173 61.0331 69.2173C61.0929 68.9321 60.5264 68.5849 59.8564 68.9988C57.6342 70.3686 58.5035 75.1772 60.7602 75.1772C62.0518 75.1772 62.6904 73.7116 62.7716 72.4161C62.7731 72.4069 62.7739 72.3985 62.7739 72.3893L62.7754 72.2804C62.7808 72.0596 62.7892 71.7584 62.432 71.7369Z" fill="black"/>
<path d="M119.941 61.8781C119.811 61.7018 119.49 61.6803 119.322 61.8382C119.173 61.9808 119.161 62.2153 119.181 62.4798C119.179 63.1942 118.763 63.9585 118.248 64.1907C117.342 64.5985 116.418 62.6983 117.258 60.972C117.61 60.2491 118.108 60.2744 118.33 60.0974C118.65 59.8406 118.498 59.4619 117.998 59.445C116.331 59.4136 115.18 62.8524 116.845 64.6545C117.215 65.0539 117.778 65.2087 118.313 65.0554C119.329 64.7664 119.748 63.6603 119.95 62.6454C120.014 62.3273 120.07 62.0521 119.941 61.8781Z" fill="black"/>
<path d="M49.9644 51.4077C49.0943 50.054 46.8951 49.9904 46.0335 51.213C45.1573 52.4556 46.2773 53.9519 47.0308 53.9833C47.1473 53.9879 47.25 53.9458 47.2952 53.8438C47.5037 53.38 47.1212 53.3341 46.6797 52.7814C46.4298 52.4679 46.4712 51.8922 46.8905 51.5856C47.7084 50.9823 48.9832 51.3433 49.309 52.2946C49.496 52.8427 48.7371 53.2559 49.3381 53.62C49.6026 53.7779 49.9276 53.6039 50.0541 53.3318C50.3645 52.6633 50.3316 51.9803 49.9644 51.4077Z" fill="black"/>
<path d="M43.1267 50.7343C41.4955 50.3901 40.5933 52.1999 41.392 53.2601C41.9531 54.0067 42.8676 53.5069 42.6055 53.2271C42.1624 52.7534 42.085 53.4341 41.8412 52.3709C41.8957 51.3958 43.195 51.3122 43.5261 52.2191C43.648 52.5533 43.7124 52.6928 43.8642 52.7679C44.0811 52.8745 44.4605 52.6974 44.449 52.354C44.4245 51.5345 43.9056 50.8983 43.126 50.7343H43.1267Z" fill="black"/>
<path d="M40.3071 51.1841C39.2531 50.4896 37.9269 51.23 37.8947 52.4259C37.8863 52.7992 38.1301 53.3519 38.4712 53.1725C38.7525 53.0222 38.5026 52.6988 38.8307 52.1346C39.0591 51.7429 39.7697 51.7153 40.0372 51.851C40.0794 51.8724 40.13 51.8686 40.1706 51.8441C40.2465 51.7981 40.7923 51.5037 40.3071 51.1841Z" fill="black"/>
<path d="M115.668 22.5059C112.501 28.5677 110.944 31.338 111.576 31.6953C111.75 31.7949 111.945 31.7251 112.066 31.5534C112.108 31.4936 116.337 23.1084 116.376 22.4905C116.398 22.1532 115.953 21.9608 115.668 22.5059Z" fill="black"/>
<path d="M113.076 22.2471C113.066 22.2111 113.035 22.1735 113.001 22.1574C112.699 22.0072 112.532 22.2226 112.469 22.3031C112.017 22.8856 109.776 27.0296 109.786 27.4014C109.797 27.892 110.253 27.987 110.469 27.6252C110.498 27.5777 113.176 22.5806 113.076 22.2471Z" fill="black"/>
<path d="M117.771 25.9813C117.741 25.9139 117.653 25.8832 117.587 25.9161C117.188 26.1178 114.849 30.113 114.915 30.7148C114.942 30.9585 115.269 30.9348 115.395 30.8251C115.62 30.6327 118.052 26.6122 117.772 25.9821L117.771 25.9813Z" fill="black"/>
<path d="M79.9737 23.6007C79.8733 23.5508 79.7207 23.5692 79.6203 23.7294C78.7119 25.179 74.9972 32.8253 75.2517 33.2101C75.3169 33.3381 75.4096 33.5045 75.5698 33.5029C75.8642 33.4991 76.0719 33.0392 77.4004 30.0726C80.1576 23.9234 80.3217 23.7754 79.9737 23.6007Z" fill="black"/>
<path d="M77.0025 24.4685C76.9887 24.4348 76.9412 24.3872 76.9074 24.3734C76.7304 24.3037 76.5157 24.6149 76.4927 24.6601C74.3509 28.9175 73.7216 30.1409 73.9738 30.5779C74.0543 30.7166 74.2436 30.7611 74.321 30.7381C74.748 30.6515 75.0761 29.6044 76.2819 26.706C77.1029 24.7322 77.0362 24.549 77.0025 24.4685Z" fill="black"/>
<path d="M68.2034 36.6521C68.1888 36.2136 68.2601 36.0366 67.8546 35.536C67.6997 35.3436 65.5603 34.9151 64.494 35.1827C63.5519 35.4188 63.7574 36.1861 63.7283 37.651C63.7145 38.3508 63.6784 40.2511 63.7398 40.6121C63.7398 40.859 63.7497 41.0644 63.4308 41.1257C63.2691 41.1564 63.1679 41.0644 63.1127 40.9349C63.0161 40.7041 62.9111 40.4679 62.8575 40.2243C62.6252 39.1703 60.6805 39.5719 60.6168 40.8559C60.5739 41.7275 60.7073 42.6251 61.2561 43.3035C61.9943 44.2142 62.8827 44.1236 63.739 44.1259C63.9023 44.1259 63.9084 44.1482 63.9751 45.1792C64.0464 46.2808 65.4124 46.3282 66.5921 46.4041C67.8508 46.2577 68.3574 46.3091 68.3743 45.0803C68.4011 43.1639 68.3007 39.6148 68.2026 36.6528L68.2034 36.6521Z" fill="black"/>
<path d="M70.6125 38.8678C69.744 29.312 70.0599 23.5299 69.2887 22.9021C69.1722 22.8071 69.0741 22.8316 68.9714 22.8408C68.6065 22.8676 68.6287 22.9543 68.004 23.8856C65.1677 28.1177 60.967 34.5951 58.8905 39.2304C58.6919 39.6735 58.4451 40.2323 58.5969 40.5596C58.8268 41.0548 59.6271 41.2564 60.1346 41.33C62.6029 41.6872 66.3429 41.3653 69.3071 40.1304C70.1005 39.8007 70.6739 39.5623 70.611 38.8678H70.6125ZM65.2206 40.4661C61.2752 36.2723 61.266 36.3666 61.3725 36.178C64.9301 29.9168 64.8902 30.0694 68.8311 24.0412C68.9223 24.7457 69.0105 26.6329 69.1032 28.6106C69.5785 38.7644 69.8468 38.7628 69.8031 38.9545C69.708 39.0135 69.4788 39.1423 69.3056 39.2097C67.3785 39.9617 67.1017 40.1648 65.2206 40.4661ZM59.4063 40.0069C59.6854 39.3968 60.4412 37.8537 60.9011 37.0825C62.8359 39.2619 61.9544 38.3098 64.1697 40.6041C62.9516 40.729 61.2369 40.7743 59.956 40.4715C59.3335 40.3243 59.3182 40.3412 59.4063 40.0069Z" fill="black"/>
<path d="M80.3113 105.315C79.6881 104.689 74.822 104.724 72.7584 104.768C72.6235 104.771 72.553 104.851 72.5323 104.925C72.4066 105.37 73.5104 105.434 78.0346 105.82C78.4692 105.857 80.0054 105.993 80.3212 105.71C80.4446 105.6 80.4278 105.431 80.3113 105.314V105.315Z" fill="black"/>
<path d="M70.5739 89.9111C70.5195 89.9195 70.4582 89.9701 70.4451 90.0238C70.4198 90.1319 70.4904 90.2101 70.8024 90.4247C74.8589 93.2195 79.6736 95.4019 80.9009 95.8488C81.0864 95.9232 81.2397 95.9071 81.429 95.6779C81.4643 95.6349 81.4674 95.5475 81.4398 95.4993C81.1646 95.0102 71.1933 89.8751 70.5732 89.9103L70.5739 89.9111Z" fill="black"/>
<path d="M121.458 76.7548C121.434 76.7372 121.349 76.6843 121.241 76.7709C120.75 77.1588 115.934 86.3536 116.377 87.3286C116.407 87.3938 116.498 87.5938 116.682 87.5931C117.026 87.5923 117.314 86.9706 118.473 84.346C120.235 80.3607 121.763 76.9924 121.457 76.7556L121.458 76.7548Z" fill="black"/>
<path d="M135.161 81.6369C133.364 83.1164 129.455 86.9522 129.195 87.6428C129.15 87.7617 129.173 87.9525 129.316 88.0123C130.079 88.3289 135.205 82.4633 135.708 81.7688C135.819 81.6162 135.915 81.4836 135.824 81.3801C135.676 81.2107 135.492 81.3633 135.161 81.6369Z" fill="black"/>
<path d="M83.4342 78.9366C83.3729 78.9014 83.2901 78.9205 83.2518 78.9788C82.9682 79.4104 87.3965 86.2741 88.1784 87.1533C88.354 87.3495 88.551 87.4001 88.7947 87.2621C88.8193 87.2483 88.876 87.2069 88.8775 87.1127C88.8875 86.4251 84.2069 79.3958 83.4342 78.9366Z" fill="black"/>
<path d="M146.023 91.0954C146.184 90.9666 146.185 90.8355 146.132 90.7558C145.731 90.1502 140.692 93.0225 140.248 93.5261C140.034 93.7714 140.304 94.2198 140.762 94.0857C141.728 93.809 144.948 91.8504 146.022 91.0962L146.023 91.0954Z" fill="black"/>
<path d="M103.576 79.9192C103.158 81.0606 102.526 86.1505 102.626 87.0826C102.652 87.3248 102.804 87.4391 103.005 87.4391C103.326 87.4391 103.459 87.0213 103.54 86.2072C103.548 86.129 104.005 80.951 103.982 80.0012C103.979 79.7513 103.654 79.7 103.576 79.9192Z" fill="black"/>
<path d="M142.164 105.508C141.699 105.553 141.251 105.764 141.457 106.143C141.678 106.551 143.192 106.351 143.65 106.283C147.024 105.784 149.185 105.412 149.539 105.101C150.511 104.252 143.72 105.356 142.164 105.508Z" fill="black"/>
<path d="M138.409 98.3061C138.001 93.9774 138.086 94.1453 136.907 94.0035C130.857 93.276 89.9873 93.9644 89.1395 94.1062C88.3844 94.2342 88.4565 94.3262 88.3522 94.9785C87.9268 100.163 87.9421 109.414 87.9391 114.562C87.7175 114.693 86.5823 114.082 83.4226 114.43C77.5608 115.077 78.1119 115.202 77.8283 118.349C77.3392 123.794 77.3752 126.486 77.4258 130.002C77.4458 131.456 77.2503 131.994 78.0644 132.237C85.782 134.542 92.9255 135.122 93.633 135.266C93.8806 135.641 93.4582 136.196 94.5145 136.637C98.5159 138.304 115.429 141.024 117.138 141.024C118.001 141.024 118.372 140.824 119.969 140.551C126.815 139.381 132.644 137.628 133.704 137.159C134.251 136.916 134.255 136.723 134.284 135.22C134.335 132.579 134.207 133.051 134.259 132.521C134.307 132.024 134.315 130.228 134.312 130.15C134.39 130.125 137.478 129.555 138.435 129.233C139.325 128.935 138.995 128.629 139.121 125.234C139.398 117.728 138.958 104.155 138.408 98.3069L138.409 98.3061ZM119.454 94.5416C126.609 94.6719 126.575 94.1054 126.608 94.8007C126.537 104.115 126.877 104.559 126.811 105.175C124.447 105.202 120.553 105.039 119.78 105.1C119.734 104.976 119.782 104.232 119.68 102.745C119.555 100.982 119.683 95.8869 119.472 94.7202C119.459 94.6474 119.441 94.5485 119.455 94.5416H119.454ZM130.838 111.042C124.957 111.705 122.876 111.984 117.973 112.994C117.304 112.851 97.8651 110.426 97.8291 110.421C105.406 109.677 120.938 109.412 130.838 111.042ZM119.528 105.868C119.592 106.005 119.657 106.143 119.655 106.29C119.644 106.922 119.71 107.548 119.611 108.203C119.569 108.476 119.595 108.766 119.58 109.069C119.573 109.242 119.342 109.442 119.191 109.325C119.019 109.221 118.968 109.11 118.958 108.852C118.945 108.579 118.837 106.182 118.929 105.93C119.036 105.642 119.411 105.631 119.527 105.867L119.528 105.868ZM118.786 94.5508C118.797 94.5868 118.79 94.6965 118.784 94.7946C118.701 96.1107 118.908 105.058 118.905 105.097C118.89 105.095 118.874 105.093 118.858 105.092C108.184 104.718 107.344 105.058 107.34 104.688C107.35 104.508 107.275 95.8907 107.178 94.5815C108.69 94.4634 116.258 94.5362 118.786 94.5508ZM89.1119 95.1043C89.1311 94.8199 89.1119 95.0606 99.9716 94.5914C100.717 94.5585 101.427 94.5462 101.551 94.6735C101.559 94.6819 101.577 94.6995 101.571 94.7769C101.505 95.6401 101.504 95.2284 101.508 99.794C101.513 105.298 101.543 104.762 101.427 104.764C101.43 104.921 101.43 104.964 101.427 104.764C100.413 104.766 90.1513 104.462 89.1433 104.566C89.0245 104.578 88.8888 104.592 88.8589 104.55C88.8559 104.509 88.8482 102.672 88.8382 102.058C88.7991 99.7143 88.9762 97.121 89.1119 95.1043ZM85.3627 115.059C85.4394 115.068 93.1669 116.02 93.2735 116.102C93.2766 116.112 93.2758 116.148 93.275 116.176V116.185C93.4322 116.187 93.4743 116.188 93.275 116.185C93.2574 116.939 93.2804 117.606 93.2589 117.754C93.2589 117.754 82.3034 116.14 79.9171 115.73C81.1551 115.406 84.1086 114.946 85.3627 115.059ZM93.2037 118.56C93.2037 118.56 93.1286 123.403 93.1156 123.96C93.0129 123.948 90.0456 123.353 89.6132 123.339C89.4683 123.334 89.3173 123.329 89.2813 123.272C89.1863 122.915 89.3166 118.496 89.4315 117.97C89.4883 117.973 89.6493 118.013 89.7297 118.021C93.0221 118.36 93.2045 118.377 93.2037 118.559V118.56ZM83.5184 132.793C83.2294 132.865 78.9865 131.736 78.9099 131.716C78.2315 131.539 78.2568 131.593 78.2905 131.307C78.4369 130.51 78.2568 126.902 78.3932 126.318C79.4649 126.689 83.5751 127.217 83.6518 127.291C83.769 127.47 83.3666 132.503 83.5184 132.793ZM84.2719 117.491C84.0672 118.638 83.9929 122.034 83.9093 122.419C79.8474 121.874 79.9723 121.794 78.512 121.769C78.4806 121.701 78.5197 118.325 78.7443 117.275C78.8555 116.75 78.824 116.556 78.8447 116.417C79.2311 116.401 81.3751 116.743 81.7515 116.802C84.3026 117.202 84.2305 117.133 84.3072 117.175C84.3225 117.208 84.2964 117.351 84.2719 117.491ZM93.5027 134.474C93.3479 134.454 93.4559 134.352 89.1426 133.824C88.9057 133.795 88.8336 133.789 88.8359 133.681C88.9226 128.909 88.9586 128.231 89.0567 128.132C89.1334 128.111 91.0988 128.501 93.0727 128.865C93.2582 128.9 93.1915 128.904 93.2773 131.011C93.3793 133.534 93.5219 134.185 93.5035 134.473L93.5027 134.474ZM93.5027 110.85C93.4038 112.02 93.4437 114.027 93.3394 115.278C93.2543 115.286 93.0098 115.25 92.6871 115.203C90.6849 114.917 90.5545 114.953 89.0858 114.762C88.7578 114.719 88.8881 114.784 88.849 109.659C88.849 109.614 88.8474 109.551 88.8359 109.551C89.4461 109.551 94.1106 109.712 95.833 109.826C94.9392 109.925 93.5748 109.989 93.5019 110.849L93.5027 110.85ZM102.635 113.573C102.149 123.848 102.158 137.676 102.153 137.757C100.04 137.326 96.8188 136.7 94.7138 135.796C94.5084 135.707 94.4272 135.573 94.4249 135.319C94.4134 134.48 94.0132 126.014 94.0132 126.014C94.0125 125.854 94.0109 125.701 94.001 125.687C94.2294 125.662 100.612 127.128 100.949 126.718C100.984 126.675 100.983 126.675 100.981 126.291C100.949 121.773 101.364 121.362 100.747 121.285C99.0379 121.093 94.5099 120.67 94.0079 120.401C94.0224 118.943 94.1673 111.741 94.2493 111.168C94.26 111.091 94.2715 111.012 94.2623 111.009C94.2815 111.003 94.3605 111.009 94.398 111.011C100.738 111.412 101.886 111.822 102.658 111.822C102.714 111.903 102.687 112.461 102.635 113.573H102.635ZM117.392 140.116C117.224 140.169 116.438 140.015 115.571 139.882C112.982 139.479 108.089 139.015 107.817 138.659C107.867 135.483 107.95 119.343 108.071 112.648C108.071 112.6 108.073 112.541 108.065 112.541C108.125 112.514 117.288 113.645 117.402 113.738L116.992 122.575C116.779 122.761 109.911 121.934 109.498 122.32C109.414 122.397 109.435 122.32 109.412 127.82C109.411 128.05 109.637 128.103 112.75 128.331C113.345 128.375 116.034 128.569 116.897 128.701C116.932 128.757 116.929 129.061 116.925 129.521C116.869 135.672 117.42 138.03 117.392 140.116ZM117.316 127.931H117.301C117.083 127.929 116.952 127.928 116.956 124.053C116.956 123.345 117.732 123.324 117.717 124.134C117.651 127.847 117.524 127.931 117.316 127.931ZM118.212 140.104C118.222 140.116 118.229 140.131 118.23 140.143C118.071 140.161 118.044 140.183 118.212 140.104ZM124.653 138.683C124.576 138.699 118.458 140.042 118.226 140.069C117.676 131.433 118.035 139.489 117.766 128.937C117.76 128.658 117.779 128.947 122.33 127.732C122.858 127.591 123.041 127.528 123.023 127.177C123.053 125.946 122.862 122.722 122.85 122.411C122.835 121.999 122.604 121.8 122.301 121.8C122.195 121.8 117.813 122.698 117.843 122.603C117.862 122.425 117.871 121.835 117.967 120.407C118.04 119.326 118.031 118.811 118.083 113.806C118.14 113.749 118.586 113.694 119.818 113.472C123.876 112.742 123.805 112.789 123.789 112.933C123.757 113.204 124.527 132.077 124.7 133.442H124.683C124.683 137.22 124.715 138.574 124.653 138.683ZM133.32 136.302C133.112 136.584 129.898 137.415 129.564 137.471C129.542 137.35 129.547 136.184 129.527 135.335C129.522 135.129 129.143 125.721 128.879 116.784C128.847 115.685 128.727 112.972 128.56 112.163C128.592 112.151 128.75 112.132 129.038 112.096C132.791 111.634 132.994 111.508 132.998 111.603C133.01 111.905 133.233 116.567 133.231 119.544C130.387 119.942 130.392 120.17 130.395 120.293C130.436 122.019 130.48 123.418 130.573 125.053C130.612 125.726 133.068 124.928 133.392 124.9C133.41 125.376 133.493 133.953 133.321 136.302L133.32 136.302ZM132.554 105.339C132.476 105.358 132.511 104.941 132.441 102.895C132.209 96.1537 131.891 94.7509 131.979 94.5424C131.996 94.5378 136.678 94.7033 137.106 94.7769C137.474 95.5512 137.937 105.42 138.015 105.489C137.868 105.526 132.632 105.342 132.555 105.34L132.554 105.339ZM138.213 122.654C138.038 128.244 138.322 128.337 137.996 128.412C135.529 128.98 136.098 128.747 134.328 129.152C134.277 128.942 134.256 114.549 133.754 111.358V111.351C133.846 111.346 134 111.4 134.292 111.4C137.436 111.413 137.5 111.404 138.133 111.33C138.288 111.308 138.235 121.958 138.213 122.654Z" fill="black"/>
</svg>
